%FSTAX23Y23*%
%MOIN*%
%SFA1B1*%

%IPPOS*%
%ADD141C,0.005000*%
%ADD145C,0.004000*%
%ADD272C,0.006667*%
%LNx98_carrier_v1r2_12082022_drawing_1-1*%
%LPD*%
G54D141*
X00214Y00062D02*
Y00052D01*
X00234*
Y00062*
X00244*
Y00082*
X00234*
Y00092*
X00214*
Y00082*
X00204*
Y00062*
X00214*
X0049D02*
Y00052D01*
X0051*
Y00062*
X0052*
Y00082*
X0051*
Y00092*
X0049*
Y00082*
X0048*
Y00062*
X0049*
X00275Y00204D02*
Y00154D01*
X00308*
X0045Y00204D02*
Y00154D01*
X00483*
X00561Y0035D02*
X00571Y0036D01*
X00581*
X00571Y0037*
X00581Y0038*
X00571*
X00561Y0039*
X00551Y0038*
X00541*
X00551Y0037*
X00541Y0036*
X00551*
X00561Y0035*
X00661D02*
X00671Y0036D01*
X00681*
X00671Y0037*
X00681Y0038*
X00671*
X00661Y0039*
X00651Y0038*
X00641*
X00651Y0037*
X00641Y0036*
X00651*
X00661Y0035*
X00074Y00459D02*
Y00499D01*
X00114*
Y00459*
X00074*
X00082Y00467D02*
Y00491D01*
X00106*
Y00467*
X00082*
X00074Y00381D02*
Y00421D01*
X00114*
Y00381*
X00074*
X00082Y00389D02*
Y00413D01*
X00106*
Y00389*
X00082*
X00073Y00627D02*
Y00667D01*
X00113*
Y00627*
X00073*
X00081Y00635D02*
Y00659D01*
X00105*
Y00635*
X00081*
X00073Y00705D02*
Y00745D01*
X00113*
Y00705*
X00073*
X00081Y00713D02*
Y00737D01*
X00105*
Y00713*
X00081*
X00776Y00417D02*
X00796Y00437D01*
X00816Y00417*
X00796Y00397*
X00776Y00417*
X02354Y00137D02*
Y00177D01*
X02394*
Y00137*
X02354*
Y00037D02*
Y00077D01*
X02394*
Y00037*
X02354*
X02468Y00042D02*
X02448Y00082D01*
X02488*
X02468Y00042*
Y0005D02*
X02456Y00074D01*
X0248*
X02468Y0005*
X02809Y00042D02*
X02789Y00082D01*
X02829*
X02809Y00042*
Y0005D02*
X02797Y00074D01*
X02821*
X02809Y0005*
Y00192D02*
X02789Y00232D01*
X02829*
X02809Y00192*
Y002D02*
X02797Y00224D01*
X02821*
X02809Y002*
X02468Y00192D02*
X02448Y00232D01*
X02488*
X02468Y00192*
Y002D02*
X02456Y00224D01*
X0248*
X02468Y002*
X01232Y00098D02*
X01242Y00108D01*
X01252*
X01242Y00118*
X01252Y00128*
X01242*
X01232Y00138*
X01222Y00128*
X01212*
X01222Y00118*
X01212Y00108*
X01222*
X01232Y00098*
X01547D02*
X01557Y00108D01*
X01567*
X01557Y00118*
X01567Y00128*
X01557*
X01547Y00138*
X01537Y00128*
X01527*
X01537Y00118*
X01527Y00108*
X01537*
X01547Y00098*
X01038Y01183D02*
Y01133D01*
Y0115*
X01071Y01183*
X01046Y01158*
X01071Y01133*
X01038Y02506D02*
Y02456D01*
Y02473*
X01071Y02506*
X01046Y02481*
X01071Y02456*
X02828Y02758D02*
X02845D01*
X02836*
Y02708*
X02828*
X02845*
X00346Y02641D02*
X00326Y02681D01*
X00366*
X00346Y02641*
X00539D02*
X00519Y02681D01*
X00559*
X00539Y02641*
X0289Y01578D02*
Y01528D01*
X02923*
X0289Y01528D02*
Y01478D01*
X02923*
X0284Y01528D02*
Y01478D01*
X02873*
X0284Y01478D02*
Y01428D01*
X02873*
X0284Y01578D02*
Y01528D01*
X02873*
X0284Y01628D02*
Y01578D01*
X02873*
X0289Y01478D02*
Y01428D01*
X02923*
X0289Y01628D02*
Y01578D01*
X02923*
X0284Y01678D02*
Y01628D01*
X02873*
X0289Y01678D02*
Y01628D01*
X02923*
X02617Y02744D02*
Y02784D01*
X02657*
Y02744*
X02617*
X02517D02*
Y02784D01*
X02557*
Y02744*
X02517*
X02417D02*
Y02784D01*
X02457*
Y02744*
X02417*
X02317D02*
Y02784D01*
X02357*
Y02744*
X02317*
Y02644D02*
Y02684D01*
X02357*
Y02644*
X02317*
X02417D02*
Y02684D01*
X02457*
Y02644*
X02417*
X02517D02*
Y02684D01*
X02557*
Y02644*
X02517*
X02617D02*
Y02684D01*
X02657*
Y02644*
X02617*
X00924Y02744D02*
Y02784D01*
X00964*
Y02744*
X00924*
X00824D02*
Y02784D01*
X00864*
Y02744*
X00824*
X00724D02*
Y02784D01*
X00764*
Y02744*
X00724*
Y02644D02*
Y02684D01*
X00764*
Y02644*
X00724*
X00824D02*
Y02684D01*
X00864*
Y02644*
X00824*
X00924D02*
Y02684D01*
X00964*
Y02644*
X00924*
X01713Y00425D02*
Y00375D01*
X01738*
X01746Y00384*
Y00417*
X01738Y00425*
X01713*
X02283D02*
Y00375D01*
X02308*
X02317Y00384*
Y00417*
X02308Y00425*
X02283*
X01004Y00417D02*
X01024Y00437D01*
X01044Y00417*
X01024Y00397*
X01004Y00417*
Y00692D02*
X01024Y00712D01*
X01044Y00692*
X01024Y00672*
X01004Y00692*
X00776D02*
X00796Y00712D01*
X00816Y00692*
X00796Y00672*
X00776Y00692*
X0089Y00417D02*
X009Y00437D01*
X0089Y00457*
X0091Y00447*
X0093Y00457*
X0092Y00437*
X0093Y00417*
X0091Y00427*
X0089Y00417*
Y00495D02*
X009Y00515D01*
X0089Y00535*
X0091Y00525*
X0093Y00535*
X0092Y00515*
X0093Y00495*
X0091Y00505*
X0089Y00495*
Y00574D02*
X009Y00594D01*
X0089Y00614*
X0091Y00604*
X0093Y00614*
X0092Y00594*
X0093Y00574*
X0091Y00584*
X0089Y00574*
Y00653D02*
X009Y00673D01*
X0089Y00693*
X0091Y00683*
X0093Y00693*
X0092Y00673*
X0093Y00653*
X0091Y00663*
X0089Y00653*
X02855Y00867D02*
Y00907D01*
X02895*
Y00867*
X02855*
X02863Y00875D02*
Y00899D01*
X02887*
Y00875*
X02863*
X02855Y00945D02*
Y00985D01*
X02895*
Y00945*
X02855*
X02863Y00953D02*
Y00977D01*
X02887*
Y00953*
X02863*
X02817Y0062D02*
X02827D01*
X02837Y0063*
X02847Y0062*
X02857*
Y0063*
X02847Y0064*
X02857Y0065*
Y0066*
X02847*
X02837Y0065*
X02827Y0066*
X02817*
Y0065*
X02827Y0064*
X02817Y0063*
Y0062*
Y0072D02*
X02827D01*
X02837Y0073*
X02847Y0072*
X02857*
Y0073*
X02847Y0074*
X02857Y0075*
Y0076*
X02847*
X02837Y0075*
X02827Y0076*
X02817*
Y0075*
X02827Y0074*
X02817Y0073*
Y0072*
X02828Y00475D02*
X02845D01*
X02836*
Y00425*
X02828*
X02845*
X02361Y01183D02*
Y01133D01*
Y0115*
X02394Y01183*
X02369Y01158*
X02394Y01133*
X00711Y02658D02*
X00694D01*
X00702*
Y02617*
X00694Y02608*
X00686*
X00678Y02617*
X00748Y02659D02*
X00731D01*
X0074*
Y02617*
X00731Y02609*
X00723*
X00715Y02617*
X0152Y02694D02*
X01503D01*
X01511*
Y02653*
X01503Y02645*
X01495*
X01487Y02653*
X01308Y02576D02*
X01291D01*
X01299*
Y02535*
X01291Y02527*
X01283*
X01275Y02535*
X0177Y02401D02*
X01753D01*
X01762*
Y0236*
X01753Y02351*
X01745*
X01737Y0236*
X01735Y02427D02*
X01718D01*
X01726*
Y02386*
X01718Y02378*
X0171*
X01702Y02386*
X01627Y02415D02*
X0161D01*
X01618*
Y02374*
X0161Y02366*
X01602*
X01594Y02374*
X01395Y0282D02*
X01378D01*
X01386*
Y02779*
X01378Y02771*
X0137*
X01362Y02779*
X01489Y02818D02*
X01472D01*
X0148*
Y02777*
X01472Y02769*
X01464*
X01456Y02777*
X01452Y02565D02*
X01435D01*
X01443*
Y02524*
X01435Y02516*
X01427*
X01419Y02524*
X01282Y02813D02*
X01265D01*
X01273*
Y02772*
X01265Y02764*
X01257*
X01249Y02772*
X01204Y02817D02*
X01187D01*
X01195*
Y02776*
X01187Y02768*
X01179*
X01171Y02776*
X01325Y02821D02*
X01308D01*
X01316*
Y0278*
X01308Y02772*
X013*
X01292Y0278*
X00426Y01382D02*
X00409D01*
X00417*
Y01341*
X00409Y01333*
X00401*
X00392Y01341*
X00323Y01545D02*
X00306D01*
X00314*
Y01504*
X00306Y01496*
X00298*
X0029Y01504*
X00177Y00353D02*
X0016D01*
X00168*
Y00312*
X0016Y00304*
X00152*
X00143Y00312*
X00252Y0041D02*
X00236D01*
X00244*
Y00369*
X00236Y00361*
X00227*
X00219Y00369*
X00252Y00238D02*
X00236D01*
X00244*
Y00196*
X00236Y00188*
X00227*
X00219Y00196*
X00071Y00354D02*
X00055D01*
X00063*
Y00312*
X00055Y00304*
X00046*
X00038Y00312*
X02629Y02354D02*
X02612D01*
X0262*
Y02313*
X02612Y02305*
X02604*
X02596Y02313*
X00452Y01693D02*
X00435D01*
X00443*
Y01652*
X00435Y01644*
X00427*
X00419Y01652*
X00308Y007D02*
X00291D01*
X00299*
Y00659*
X00291Y00651*
X00283*
X00275Y00659*
X00568Y00906D02*
X00552D01*
X0056*
Y00865*
X00552Y00856*
X00543*
X00535Y00865*
X0088Y02605D02*
X00863D01*
X00872*
Y02564*
X00863Y02555*
X00855*
X00847Y02564*
X00895Y02618D02*
X00879D01*
X00887*
Y02576*
X00879Y02568*
X0087*
X00862Y02576*
X00928Y0265D02*
X00911D01*
X00919*
Y02608*
X00911Y026*
X00903*
X00894Y02608*
X00694Y02556D02*
X00677D01*
X00686*
Y02515*
X00677Y02506*
X00669*
X00661Y02515*
X00758Y02555D02*
X00741D01*
X00749*
Y02514*
X00741Y02505*
X00733*
X00724Y02514*
X0066Y02663D02*
X00643D01*
X00652*
Y02622*
X00643Y02613*
X00635*
X00627Y02622*
X00678Y02663D02*
X00661D01*
X0067*
Y02622*
X00661Y02613*
X00653*
X00645Y02622*
X00647Y02765D02*
X0063D01*
X00639*
Y02724*
X0063Y02715*
X00622*
X00614Y02724*
X00707Y02705D02*
X0069D01*
X00699*
Y02664*
X0069Y02655*
X00682*
X00674Y02664*
X00691Y02846D02*
X00674D01*
X00682*
Y02805*
X00674Y02797*
X00666*
X00657Y02805*
X00228Y01663D02*
X00211D01*
X00219*
Y01622*
X00211Y01614*
X00203*
X00194Y01622*
X01247Y02123D02*
X0123D01*
X01238*
Y02082*
X0123Y02074*
X01222*
X01213Y02082*
X00506Y01267D02*
X00489D01*
X00497*
Y01226*
X00489Y01218*
X00481*
X00472Y01226*
X00528Y01308D02*
X00511D01*
X00519*
Y01267*
X00511Y01259*
X00503*
X00494Y01267*
X00309Y01726D02*
X00292D01*
X003*
Y01685*
X00292Y01677*
X00284*
X00275Y01685*
X02802Y0031D02*
X02785D01*
X02794*
Y00269*
X02785Y0026*
X02777*
X02769Y00269*
X02762Y0033D02*
X02745D01*
X02754*
Y00289*
X02745Y0028*
X02737*
X02729Y00289*
X02782Y0033D02*
X02765D01*
X02774*
Y00289*
X02765Y0028*
X02757*
X02749Y00289*
X02707Y00395D02*
X0269D01*
X02699*
Y00354*
X0269Y00345*
X02682*
X02674Y00354*
X02802Y0033D02*
X02785D01*
X02794*
Y00289*
X02785Y0028*
X02777*
X02769Y00289*
X02817Y01429D02*
X028D01*
X02808*
Y01388*
X028Y0138*
X02792*
X02783Y01388*
X02928Y01336D02*
X02911D01*
X02919*
Y01295*
X02911Y01287*
X02903*
X02894Y01295*
X02782Y0031D02*
X02765D01*
X02774*
Y00269*
X02765Y0026*
X02757*
X02749Y00269*
X02763Y0031D02*
X02747D01*
X02755*
Y00269*
X02747Y0026*
X02738*
X0273Y00269*
X02707Y00355D02*
X0269D01*
X02699*
Y00314*
X0269Y00305*
X02682*
X02674Y00314*
X02707Y00375D02*
X0269D01*
X02699*
Y00334*
X0269Y00325*
X02682*
X02674Y00334*
X00265Y00973D02*
X00249D01*
X00257*
Y00932*
X00249Y00924*
X0024*
X00232Y00932*
X00228Y02245D02*
X00211D01*
X00219*
Y02204*
X00211Y02196*
X00203*
X00194Y02204*
X00406Y00761D02*
X0039D01*
X00398*
Y00719*
X0039Y00711*
X00381*
X00373Y00719*
X00407Y00543D02*
X00391D01*
X00399*
Y00501*
X00391Y00493*
X00382*
X00374Y00501*
X00483Y00295D02*
X00467D01*
X00475*
Y00253*
X00467Y00245*
X00458*
X0045Y00253*
X00389Y00307D02*
X00373D01*
X00381*
Y00265*
X00373Y00257*
X00364*
X00356Y00265*
X00467Y00783D02*
X0045D01*
X00458*
Y00742*
X0045Y00734*
X00442*
X00433Y00742*
X00538Y00583D02*
X00521D01*
X00529*
Y00542*
X00521Y00534*
X00513*
X00504Y00542*
X00671Y00529D02*
X00654D01*
X00662*
Y00488*
X00654Y0048*
X00646*
X00637Y00488*
X00367Y00588D02*
X0035D01*
X00358*
Y00547*
X0035Y00539*
X00342*
X00333Y00547*
X00404Y00338D02*
X00387D01*
X00395*
Y00297*
X00387Y00289*
X00379*
X0037Y00297*
X00763Y00167D02*
X00747D01*
X00755*
Y00125*
X00747Y00117*
X00738*
X0073Y00125*
X00783Y00167D02*
X00767D01*
X00775*
Y00125*
X00767Y00117*
X00758*
X0075Y00125*
X00512Y01016D02*
X00495D01*
X00503*
Y00975*
X00495Y00967*
X00487*
X00478Y00975*
X01546Y02643D02*
X01529D01*
X01537*
Y02602*
X01529Y02593*
X01521*
X01513Y02602*
X02634Y02252D02*
X02617D01*
X02625*
Y02211*
X02617Y02203*
X02609*
X026Y02211*
X00254Y02305D02*
X00237D01*
X00245*
Y02264*
X00237Y02256*
X00229*
X0022Y02264*
X01124Y01034D02*
X01107D01*
X01115*
Y00993*
X01107Y00985*
X01099*
X0109Y00993*
X01051Y01522D02*
X01034D01*
X01042*
Y01481*
X01034Y01473*
X01026*
X01017Y01481*
X01171Y01542D02*
X01154D01*
X01162*
Y01501*
X01154Y01493*
X01146*
X01137Y01501*
X0115Y01024D02*
X01133D01*
X01141*
Y00983*
X01133Y00975*
X01125*
X01116Y00983*
X01001Y01687D02*
X00984D01*
X00992*
Y01646*
X00984Y01638*
X00976*
X00967Y01646*
X01109Y01682D02*
X01092D01*
X011*
Y01641*
X01092Y01633*
X01084*
X01075Y01641*
X02032Y01042D02*
X02015D01*
X02023*
Y01001*
X02015Y00993*
X02007*
X01998Y01001*
X02017Y01023D02*
X02D01*
X02008*
Y00982*
X02Y00974*
X01992*
X01983Y00982*
X01681Y00892D02*
X01664D01*
X01672*
Y00851*
X01664Y00843*
X01656*
X01647Y00851*
X01604Y00805D02*
X01587D01*
X01596*
Y00763*
X01587Y00755*
X01579*
X01571Y00763*
X01986Y02103D02*
X01969D01*
X01977*
Y02062*
X01969Y02054*
X01961*
X01952Y02062*
X01648Y00877D02*
X01631D01*
X01639*
Y00836*
X01631Y00828*
X01623*
X01614Y00836*
X01961Y02098D02*
X01944D01*
X01952*
Y02057*
X01944Y02049*
X01936*
X01927Y02057*
X02027Y01145D02*
X0201D01*
X02018*
Y01104*
X0201Y01096*
X02002*
X01993Y01104*
X0162Y02521D02*
X01603D01*
X01611*
Y0248*
X01603Y02471*
X01595*
X01587Y0248*
X00341Y02075D02*
X00324D01*
X00332*
Y02034*
X00324Y02026*
X00316*
X00307Y02034*
X00337Y02027D02*
X0032D01*
X00328*
Y01986*
X0032Y01978*
X00312*
X00303Y01986*
X0034Y01972D02*
X00323D01*
X00331*
Y01931*
X00323Y01923*
X00315*
X00306Y01931*
X00342Y01924D02*
X00325D01*
X00333*
Y01883*
X00325Y01875*
X00317*
X00308Y01883*
X00787Y0188D02*
X00771D01*
X00779*
Y01839*
X00771Y01831*
X00762*
X00754Y01839*
X00763Y0198D02*
X00746D01*
X00754*
Y01939*
X00746Y01931*
X00738*
X00729Y01939*
X00774Y01933D02*
X00757D01*
X00765*
Y01892*
X00757Y01884*
X00749*
X0074Y01892*
X00759Y02022D02*
X00742D01*
X0075*
Y01981*
X00742Y01973*
X00734*
X00725Y01981*
X01922Y01015D02*
X01905D01*
X01913*
Y00974*
X01905Y00966*
X01897*
X01888Y00974*
X01938Y01034D02*
X01921D01*
X01929*
Y00993*
X01921Y00985*
X01913*
X01904Y00993*
X01954Y01017D02*
X01937D01*
X01945*
Y00976*
X01937Y00968*
X01929*
X0192Y00976*
X0197Y01042D02*
X01953D01*
X01961*
Y01001*
X01953Y00993*
X01945*
X01936Y01001*
X00377Y01769D02*
X0036D01*
X00368*
Y01728*
X0036Y0172*
X00352*
X00343Y01728*
X00343Y01826D02*
X00326D01*
X00334*
Y01785*
X00326Y01777*
X00318*
X00309Y01785*
X00343Y01878D02*
X00326D01*
X00334*
Y01837*
X00326Y01829*
X00318*
X00309Y01837*
X0025Y02652D02*
X00233D01*
X00241*
Y02611*
X00233Y02603*
X00225*
X00216Y02611*
X0026Y02735D02*
X00243D01*
X00251*
Y02694*
X00243Y02686*
X00235*
X00226Y02694*
X00251Y02687D02*
X00234D01*
X00242*
Y02646*
X00234Y02638*
X00226*
X00217Y02646*
X00234Y02736D02*
X00217D01*
X00225*
Y02695*
X00217Y02687*
X00209*
X002Y02695*
X01481Y01816D02*
X01464D01*
X01472*
Y01775*
X01464Y01767*
X01456*
X01447Y01775*
X01596Y02102D02*
X01579D01*
X01587*
Y02061*
X01579Y02053*
X01571*
X01562Y02061*
X01589Y02001D02*
X01572D01*
X0158*
Y0196*
X01572Y01952*
X01564*
X01555Y0196*
X00858Y02113D02*
X00841D01*
X00849*
Y02072*
X00841Y02064*
X00833*
X00824Y02072*
X02318Y00875D02*
X02301D01*
X02309*
Y00834*
X02301Y00826*
X02293*
X02284Y00834*
X01188Y02009D02*
X01171D01*
X01179*
Y01968*
X01171Y0196*
X01163*
X01154Y01968*
X01913Y02306D02*
X01896D01*
X01904*
Y02265*
X01896Y02257*
X01888*
X01879Y02265*
X0114Y00879D02*
X01123D01*
X01131*
Y00838*
X01123Y0083*
X01115*
X01106Y00838*
X02196Y0088D02*
X02179D01*
X02187*
Y00839*
X02179Y00831*
X02171*
X02162Y00839*
X0234Y0075D02*
X02324D01*
X02332*
Y00708*
X02324Y007*
X02315*
X02307Y00708*
X01655Y00765D02*
X01638D01*
X01646*
Y00723*
X01638Y00715*
X0163*
X01621Y00723*
X02536Y02667D02*
X0252D01*
X02528*
Y02626*
X0252Y02617*
X02511*
X02503Y02626*
X01996Y02425D02*
X01979D01*
X01988*
Y02384*
X01979Y02375*
X01971*
X01963Y02384*
X02365Y00986D02*
X02348D01*
X02356*
Y00945*
X02348Y00936*
X0234*
X02331Y00945*
X01894Y0082D02*
X01877D01*
X01886*
Y00779*
X01877Y0077*
X01869*
X01861Y00779*
X01926Y00842D02*
X01909D01*
X01917*
Y008*
X01909Y00792*
X01901*
X01892Y008*
X02089Y00835D02*
X02072D01*
X02081*
Y00794*
X02072Y00785*
X02064*
X02056Y00794*
X02195Y02809D02*
X02179D01*
X02187*
Y02768*
X02179Y02759*
X0217*
X02162Y02768*
X02274Y0276D02*
X02257D01*
X02265*
Y02719*
X02257Y0271*
X02249*
X02241Y02719*
X02283Y02664D02*
X02266D01*
X02274*
Y02622*
X02266Y02614*
X02258*
X02249Y02622*
X02191Y02678D02*
X02174D01*
X02182*
Y02637*
X02174Y02628*
X02166*
X02158Y02637*
X02119Y02675D02*
X02102D01*
X02111*
Y02634*
X02102Y02625*
X02094*
X02086Y02634*
X02002Y02683D02*
X01985D01*
X01993*
Y02642*
X01985Y02633*
X01977*
X01969Y02642*
X0219Y00933D02*
X02173D01*
X02182*
Y00891*
X02173Y00883*
X02165*
X02157Y00891*
X01234Y0127D02*
X01218D01*
X01226*
Y01228*
X01218Y0122*
X01209*
X01201Y01228*
X01227Y00936D02*
X0121D01*
X01218*
Y00895*
X0121Y00887*
X01202*
X01193Y00895*
X01342Y01081D02*
X01325D01*
X01333*
Y0104*
X01325Y01032*
X01317*
X01308Y0104*
X01247Y0071D02*
X0123D01*
X01239*
Y00668*
X0123Y0066*
X01222*
X01214Y00668*
X02259Y006D02*
X02242D01*
X0225*
Y00559*
X02242Y00551*
X02234*
X02225Y00559*
X02066Y00665D02*
X0205D01*
X02058*
Y00624*
X0205Y00615*
X02041*
X02033Y00624*
X02492Y006D02*
X02475D01*
X02484*
Y00559*
X02475Y0055*
X02467*
X02459Y00559*
X02492Y0062D02*
X02475D01*
X02484*
Y00579*
X02475Y0057*
X02467*
X02459Y00579*
X02492Y0058D02*
X02475D01*
X02484*
Y00539*
X02475Y0053*
X02467*
X02459Y00539*
X02129Y00641D02*
X02112D01*
X0212*
Y006*
X02112Y00592*
X02104*
X02095Y006*
X01421Y00438D02*
X01405D01*
X01413*
Y00397*
X01405Y00389*
X01396*
X01388Y00397*
X02321Y00831D02*
X02304D01*
X02312*
Y0079*
X02304Y00782*
X02296*
X02287Y0079*
X02493Y01785D02*
X02476D01*
X02484*
Y01744*
X02476Y01736*
X02468*
X02459Y01744*
X02443Y01615D02*
X02426D01*
X02434*
Y01573*
X02426Y01565*
X02418*
X02409Y01573*
X02351Y01801D02*
X02335D01*
X02343*
Y0176*
X02335Y01751*
X02326*
X02318Y0176*
X01819Y02176D02*
X01802D01*
X0181*
Y02135*
X01802Y02127*
X01794*
X01785Y02135*
X01819Y01472D02*
X01802D01*
X0181*
Y01431*
X01802Y01423*
X01794*
X01785Y01431*
X02535Y01098D02*
X02518D01*
X02526*
Y01057*
X02518Y01049*
X0251*
X02501Y01057*
X02616Y01256D02*
X02599D01*
X02607*
Y01215*
X02599Y01207*
X02591*
X02582Y01215*
X0206Y00614D02*
X02043D01*
X02051*
Y00573*
X02043Y00565*
X02035*
X02026Y00573*
X02435Y00923D02*
X02418D01*
X02426*
Y00882*
X02418Y00874*
X0241*
X02401Y00882*
X0234Y02633D02*
X02323D01*
X02331*
Y02592*
X02323Y02584*
X02315*
X02306Y02592*
X01968Y02527D02*
X01951D01*
X01959*
Y02486*
X01951Y02478*
X01943*
X01934Y02486*
X02431Y01323D02*
X02414D01*
X02422*
Y01282*
X02414Y01274*
X02406*
X02397Y01282*
X01936Y0136D02*
X0192D01*
X01928*
Y01318*
X0192Y0131*
X01912*
X01903Y01318*
X00779Y0266D02*
X00763D01*
X00771*
Y02618*
X00763Y0261*
X00754*
X00746Y02618*
X0083Y02682D02*
X00813D01*
X00822*
Y02641*
X00813Y02632*
X00805*
X00797Y02641*
X00758Y0253D02*
X00741D01*
X00749*
Y02488*
X00741Y0248*
X00733*
X00724Y02488*
X00738Y02535D02*
X00722D01*
X0073*
Y02493*
X00722Y02485*
X00713*
X00705Y02493*
X0095Y02667D02*
X00933D01*
X00942*
Y02625*
X00933Y02617*
X00925*
X00917Y02625*
X01843Y02512D02*
X01827D01*
X01835*
Y0247*
X01827Y02462*
X01818*
X0181Y0247*
X00928Y02678D02*
X00911D01*
X00919*
Y02637*
X00911Y02629*
X00903*
X00894Y02637*
X01508Y00637D02*
X01491D01*
X01499*
Y00596*
X01491Y00588*
X01483*
X01474Y00596*
X0082Y01422D02*
X00803D01*
X00811*
Y01381*
X00803Y01373*
X00795*
X00786Y01381*
X00531Y01182D02*
X00514D01*
X00522*
Y01141*
X00514Y01133*
X00506*
X00497Y01141*
X02584Y00199D02*
X02567D01*
X02575*
Y00158*
X02567Y0015*
X02559*
X0255Y00158*
X0255Y00192D02*
X02533D01*
X02541*
Y00151*
X02533Y00143*
X02525*
X02516Y00151*
X02566Y00201D02*
X02549D01*
X02557*
Y0016*
X02549Y00152*
X02541*
X02532Y0016*
X02572Y00182D02*
X02555D01*
X02563*
Y00141*
X02555Y00133*
X02547*
X02538Y00141*
X02234Y00264D02*
X02217D01*
X02225*
Y00223*
X02217Y00215*
X02209*
X022Y00223*
X01854Y00523D02*
X01837D01*
X01845*
Y00482*
X01837Y00474*
X01829*
X0182Y00482*
X01605Y00201D02*
X01588D01*
X01597*
Y0016*
X01588Y00151*
X0158*
X01572Y0016*
X00891Y00511D02*
X00874D01*
X00882*
Y0047*
X00874Y00462*
X00866*
X00857Y0047*
X02801Y00221D02*
X02784D01*
X02792*
Y00179*
X02784Y00171*
X02776*
X02767Y00179*
X00769Y01108D02*
X00752D01*
X0076*
Y01067*
X00752Y01059*
X00744*
X00735Y01067*
X01028Y00818D02*
X01011D01*
X01019*
Y00777*
X01011Y00769*
X01003*
X00994Y00777*
X02618Y02126D02*
X02601D01*
X02609*
Y02085*
X02601Y02077*
X02593*
X02584Y02085*
X02618Y02106D02*
X02601D01*
X02609*
Y02065*
X02601Y02057*
X02593*
X02584Y02065*
X02681Y02073D02*
X02665D01*
X02673*
Y02032*
X02665Y02024*
X02656*
X02648Y02032*
X02589Y01968D02*
X02572D01*
X0258*
Y01927*
X02572Y01919*
X02564*
X02555Y01927*
X02727Y01904D02*
X0271D01*
X02719*
Y01863*
X0271Y01854*
X02702*
X02694Y01863*
X02841Y01871D02*
X02824D01*
X02832*
Y0183*
X02824Y01822*
X02816*
X02807Y0183*
X02808Y01902D02*
X02791D01*
X02799*
Y01861*
X02791Y01853*
X02783*
X02774Y01861*
X02727Y01279D02*
X0271D01*
X02718*
Y01238*
X0271Y0123*
X02702*
X02693Y01238*
X02653Y01249D02*
X02636D01*
X02644*
Y01208*
X02636Y012*
X02628*
X02619Y01208*
X02599Y00938D02*
X02582D01*
X02591*
Y00897*
X02582Y00888*
X02574*
X02566Y00897*
X0198Y00666D02*
X01963D01*
X01971*
Y00624*
X01963Y00616*
X01955*
X01946Y00624*
X02714Y00971D02*
X02697D01*
X02705*
Y0093*
X02697Y00922*
X02689*
X0268Y0093*
X02676Y00993D02*
X02659D01*
X02667*
Y00952*
X02659Y00944*
X02651*
X02642Y00952*
X00772Y01017D02*
X00755D01*
X00763*
Y00976*
X00755Y00968*
X00747*
X00738Y00976*
X00831Y01045D02*
X00814D01*
X00822*
Y01004*
X00814Y00996*
X00806*
X00797Y01004*
X01137Y0067D02*
X0112D01*
X01128*
Y00629*
X0112Y00621*
X01112*
X01103Y00629*
X01098Y00662D02*
X01081D01*
X01089*
Y00621*
X01081Y00613*
X01073*
X01064Y00621*
X00993Y00657D02*
X00976D01*
X00984*
Y00616*
X00976Y00608*
X00968*
X00959Y00616*
X00898Y00784D02*
X00881D01*
X00889*
Y00743*
X00881Y00735*
X00873*
X00864Y00743*
X00896Y00828D02*
X00879D01*
X00887*
Y00787*
X00879Y00779*
X00871*
X00862Y00787*
X01125Y00506D02*
X01108D01*
X01116*
Y00465*
X01108Y00457*
X011*
X01091Y00465*
X01019Y0059D02*
X01002D01*
X0101*
Y00549*
X01002Y00541*
X00994*
X00985Y00549*
X00685Y01402D02*
X00668D01*
X00676*
Y01361*
X00668Y01353*
X0066*
X00651Y01361*
X0077Y01362D02*
X00753D01*
X00761*
Y01321*
X00753Y01313*
X00745*
X00736Y01321*
X00875Y01358D02*
X00858D01*
X00867*
Y01317*
X00858Y01308*
X0085*
X00842Y01317*
X00838Y01306D02*
X00821D01*
X00829*
Y01265*
X00821Y01257*
X00813*
X00804Y01265*
X00838Y01267D02*
X00821D01*
X00829*
Y01226*
X00821Y01217*
X00813*
X00804Y01226*
X00767Y01247D02*
X0075D01*
X00758*
Y01206*
X0075Y01198*
X00742*
X00733Y01206*
X00907Y01218D02*
X0089D01*
X00898*
Y01177*
X0089Y01169*
X00882*
X00873Y01177*
X00667Y0107D02*
X0065D01*
X00658*
Y01029*
X0065Y01021*
X00642*
X00633Y01029*
X00429Y01208D02*
X00412D01*
X0042*
Y01167*
X00412Y01159*
X00404*
X00395Y01167*
X00435Y01188D02*
X00418D01*
X00426*
Y01147*
X00418Y01139*
X0041*
X00401Y01147*
X00426Y01228D02*
X00409D01*
X00417*
Y01187*
X00409Y01179*
X00401*
X00392Y01187*
X00839Y01089D02*
X00822D01*
X0083*
Y01048*
X00822Y0104*
X00814*
X00805Y01048*
X00646Y01066D02*
X00629D01*
X00637*
Y01025*
X00629Y01017*
X00621*
X00612Y01025*
X00665Y01328D02*
X00648D01*
X00656*
Y01287*
X00648Y01279*
X0064*
X00631Y01287*
X00705Y01328D02*
X00688D01*
X00696*
Y01287*
X00688Y01279*
X0068*
X00671Y01287*
X00769Y01227D02*
X00752D01*
X0076*
Y01186*
X00752Y01177*
X00744*
X00735Y01186*
X00769Y01168D02*
X00752D01*
X0076*
Y01127*
X00752Y01118*
X00744*
X00735Y01127*
X00769Y01129D02*
X00752D01*
X0076*
Y01088*
X00752Y01079*
X00744*
X00735Y01088*
X00506Y01148D02*
X00489D01*
X00497*
Y01107*
X00489Y01098*
X00481*
X00472Y01107*
X02828Y00183D02*
X02811D01*
X02819*
Y00142*
X02811Y00134*
X02803*
X02794Y00142*
X02208Y0039D02*
X02191D01*
X022*
Y00348*
X02191Y0034*
X02183*
X02175Y00348*
X0211Y00375D02*
X02093D01*
X02101*
Y00334*
X02093Y00326*
X02085*
X02076Y00334*
X0206Y0039D02*
X02043D01*
X02051*
Y00349*
X02043Y00341*
X02035*
X02026Y00349*
X02012Y00391D02*
X01995D01*
X02003*
Y0035*
X01995Y00342*
X01987*
X01978Y0035*
X02522Y01946D02*
X02505D01*
X02514*
Y01904*
X02505Y01896*
X02497*
X02489Y01904*
X0236Y02064D02*
X02343D01*
X02352*
Y02023*
X02343Y02014*
X02335*
X02327Y02023*
X01469Y00639D02*
X01452D01*
X0146*
Y00598*
X01452Y0059*
X01444*
X01435Y00598*
X00578Y02182D02*
X00561D01*
X00569*
Y02141*
X00561Y02133*
X00553*
X00544Y02141*
X00395Y02184D02*
X00378D01*
X00386*
Y02142*
X00378Y02134*
X0037*
X00361Y02142*
X01881Y02508D02*
X01865D01*
X01873*
Y02466*
X01865Y02458*
X01856*
X01848Y02466*
X0162Y00716D02*
X01603D01*
X01612*
Y00674*
X01603Y00666*
X01595*
X01587Y00674*
X0164Y0066D02*
X01623D01*
X01632*
Y00618*
X01623Y0061*
X01615*
X01607Y00618*
X02629Y0204D02*
X02613D01*
X02621*
Y01998*
X02613Y0199*
X02604*
X02596Y01998*
X0149Y00701D02*
X01473D01*
X01481*
Y00659*
X01473Y00651*
X01465*
X01456Y00659*
X01413Y00723D02*
X01397D01*
X01405*
Y00681*
X01397Y00673*
X01388*
X0138Y00681*
X01819Y02457D02*
X01802D01*
X0181*
Y02415*
X01802Y02407*
X01794*
X01785Y02415*
X02762Y0022D02*
X02745D01*
X02754*
Y00179*
X02745Y0017*
X02737*
X02729Y00179*
X02782Y0022D02*
X02765D01*
X02774*
Y00179*
X02765Y0017*
X02757*
X02749Y00179*
X02762Y002D02*
X02745D01*
X02754*
Y00159*
X02745Y0015*
X02737*
X02729Y00159*
X02782Y002D02*
X02765D01*
X02774*
Y00159*
X02765Y0015*
X02757*
X02749Y00159*
X02802Y002D02*
X02785D01*
X02794*
Y00159*
X02785Y0015*
X02777*
X02769Y00159*
X02612Y0023D02*
X02595D01*
X02604*
Y00189*
X02595Y0018*
X02587*
X02579Y00189*
X02581Y00221D02*
X02564D01*
X02572*
Y00179*
X02564Y00171*
X02556*
X02547Y00179*
X02562Y0022D02*
X02545D01*
X02554*
Y00179*
X02545Y0017*
X02537*
X02529Y00179*
X02667Y00375D02*
X0265D01*
X02659*
Y00334*
X0265Y00325*
X02642*
X02634Y00334*
X02687Y00355D02*
X0267D01*
X02679*
Y00314*
X0267Y00305*
X02662*
X02654Y00314*
X02687Y00375D02*
X0267D01*
X02679*
Y00334*
X0267Y00325*
X02662*
X02654Y00334*
X02687Y00395D02*
X0267D01*
X02679*
Y00354*
X0267Y00345*
X02662*
X02654Y00354*
X02667Y00395D02*
X0265D01*
X02659*
Y00354*
X0265Y00345*
X02642*
X02634Y00354*
X01383Y00642D02*
X01366D01*
X01375*
Y006*
X01366Y00592*
X01358*
X0135Y006*
X01341Y00642D02*
X01324D01*
X01333*
Y006*
X01324Y00592*
X01316*
X01308Y006*
X00917Y02763D02*
X009D01*
X00908*
Y02721*
X009Y02713*
X00892*
X00883Y02721*
X00609Y02406D02*
X00592D01*
X00601*
Y02364*
X00592Y02356*
X00584*
X00576Y02364*
X01509Y008D02*
X01492D01*
X015*
Y00758*
X01492Y0075*
X01484*
X01475Y00758*
X01846Y01043D02*
X01829D01*
X01838*
Y01001*
X01829Y00993*
X01821*
X01813Y01001*
X01826Y0102D02*
X01809D01*
X01817*
Y00979*
X01809Y0097*
X01801*
X01792Y00979*
X01982Y00857D02*
X01965D01*
X01973*
Y00815*
X01965Y00807*
X01957*
X01948Y00815*
X02275Y00792D02*
X02259D01*
X02267*
Y00751*
X02259Y00742*
X0225*
X02242Y00751*
X01983Y00898D02*
X01966D01*
X01975*
Y00856*
X01966Y00848*
X01958*
X0195Y00856*
X01875Y01071D02*
X01858D01*
X01866*
Y01029*
X01858Y01021*
X0185*
X01841Y01029*
X01984Y00917D02*
X01967D01*
X01975*
Y00876*
X01967Y00867*
X01959*
X0195Y00876*
X01899Y01043D02*
X01882D01*
X0189*
Y01001*
X01882Y00993*
X01874*
X01865Y01001*
X01983Y00877D02*
X01967D01*
X01975*
Y00836*
X01967Y00827*
X01958*
X0195Y00836*
X01853Y01016D02*
X01837D01*
X01845*
Y00974*
X01837Y00966*
X01828*
X0182Y00974*
X01868Y01032D02*
X01852D01*
X0186*
Y0099*
X01852Y00982*
X01843*
X01835Y0099*
X02274Y00886D02*
X02258D01*
X02266*
Y00844*
X02258Y00836*
X02249*
X02241Y00844*
X02592Y0059D02*
X02575D01*
X02584*
Y00549*
X02575Y0054*
X02567*
X02559Y00549*
X02592Y0061D02*
X02575D01*
X02584*
Y00569*
X02575Y0056*
X02567*
X02559Y00569*
X02542Y0059D02*
X02525D01*
X02534*
Y00549*
X02525Y0054*
X02517*
X02509Y00549*
X02542Y0061D02*
X02525D01*
X02534*
Y00569*
X02525Y0056*
X02517*
X02509Y00569*
X02642Y0058D02*
X02625D01*
X02634*
Y00539*
X02625Y0053*
X02617*
X02609Y00539*
X02642Y006D02*
X02625D01*
X02634*
Y00559*
X02625Y0055*
X02617*
X02609Y00559*
X02642Y0062D02*
X02625D01*
X02634*
Y00579*
X02625Y0057*
X02617*
X02609Y00579*
X02642Y0064D02*
X02625D01*
X02634*
Y00599*
X02625Y0059*
X02617*
X02609Y00599*
X02492Y0064D02*
X02475D01*
X02484*
Y00599*
X02475Y0059*
X02467*
X02459Y00599*
X02467Y00528D02*
X0245D01*
X02459*
Y00487*
X0245Y00478*
X02442*
X02434Y00487*
X02568Y00528D02*
X02552D01*
X0256*
Y00487*
X02552Y00478*
X02543*
X02535Y00487*
X02519Y00528D02*
X02502D01*
X0251*
Y00487*
X02502Y00478*
X02494*
X02485Y00487*
X01021Y01992D02*
X01004D01*
X01013*
Y01951*
X01004Y01942*
X00996*
X00988Y01951*
X01596Y00666D02*
X01579D01*
X01587*
Y00625*
X01579Y00616*
X01571*
X01562Y00625*
X01556Y0066D02*
X01539D01*
X01548*
Y00619*
X01539Y0061*
X01531*
X01523Y00619*
X01296Y00642D02*
X01279D01*
X01288*
Y006*
X01279Y00592*
X01271*
X01263Y006*
X01854Y02575D02*
X01838D01*
X01846*
Y02533*
X01838Y02525*
X01829*
X01821Y02533*
X00521Y02296D02*
X00505D01*
X00513*
Y02254*
X00505Y02246*
X00496*
X00488Y02254*
X01037Y01727D02*
X0102D01*
X01028*
Y01686*
X0102Y01678*
X01012*
X01003Y01686*
X02333Y01356D02*
X02316D01*
X02325*
Y01314*
X02316Y01306*
X02308*
X023Y01314*
X02464Y01709D02*
X02447D01*
X02455*
Y01667*
X02447Y01659*
X02439*
X0243Y01667*
X02337Y01711D02*
X02321D01*
X02329*
Y01669*
X02321Y01661*
X02312*
X02304Y01669*
X02357Y01424D02*
X0234D01*
X02349*
Y01382*
X0234Y01374*
X02332*
X02324Y01382*
X02222Y01739D02*
X02205D01*
X02213*
Y01697*
X02205Y01689*
X02197*
X02188Y01697*
X02242Y01785D02*
X02225D01*
X02234*
Y01743*
X02225Y01735*
X02217*
X02209Y01743*
X02132Y0175D02*
X02115D01*
X02124*
Y01708*
X02115Y017*
X02107*
X02099Y01708*
X01909Y00381D02*
X01892D01*
X01901*
Y0034*
X01892Y00332*
X01884*
X01876Y0034*
X01874Y00355D02*
X01857D01*
X01866*
Y00314*
X01857Y00305*
X01849*
X01841Y00314*
X01437Y02444D02*
X0142D01*
X01428*
Y02402*
X0142Y02394*
X01412*
X01403Y02402*
X00503Y02661D02*
X00486D01*
X00494*
Y02619*
X00486Y02611*
X00478*
X00469Y02619*
X00473Y02661D02*
X00456D01*
X00464*
Y02619*
X00456Y02611*
X00448*
X00439Y02619*
X019Y00851D02*
X01884D01*
X01892*
Y00809*
X01884Y00801*
X01875*
X01867Y00809*
X02091Y01351D02*
X02075D01*
X02083*
Y01309*
X02075Y01301*
X02066*
X02058Y01309*
X01659Y02557D02*
X01642D01*
X01651*
Y02515*
X01642Y02507*
X01634*
X01626Y02515*
X01634Y02573D02*
X01617D01*
X01626*
Y02531*
X01617Y02523*
X01609*
X01601Y02531*
X01611Y0258D02*
X01595D01*
X01603*
Y02539*
X01595Y0253*
X01586*
X01578Y02539*
X01427Y02536D02*
X01411D01*
X01419*
Y02495*
X01411Y02486*
X01402*
X01394Y02495*
X02356Y01712D02*
X02339D01*
X02348*
Y0167*
X02339Y01662*
X02331*
X02323Y0167*
X02065Y01584D02*
X02048D01*
X02056*
Y01543*
X02048Y01534*
X0204*
X02032Y01543*
X021Y01617D02*
X02083D01*
X02091*
Y01576*
X02083Y01567*
X02075*
X02067Y01576*
X02089Y0171D02*
X02072D01*
X0208*
Y01668*
X02072Y0166*
X02064*
X02055Y01668*
X02262Y01782D02*
X02245D01*
X02254*
Y0174*
X02245Y01732*
X02237*
X02229Y0174*
X01898Y01501D02*
X01881D01*
X0189*
Y01459*
X01881Y01451*
X01873*
X01865Y01459*
X01898Y01521D02*
X01881D01*
X0189*
Y01479*
X01881Y01471*
X01873*
X01865Y01479*
X01896Y01555D02*
X01879D01*
X01887*
Y01514*
X01879Y01505*
X01871*
X01862Y01514*
X01959Y01538D02*
X01942D01*
X01951*
Y01496*
X01942Y01488*
X01934*
X01926Y01496*
X02182Y01603D02*
X02166D01*
X02174*
Y01562*
X02166Y01553*
X02157*
X02149Y01562*
X02346Y01374D02*
X02329D01*
X02337*
Y01332*
X02329Y01324*
X02321*
X02312Y01332*
X02397Y01338D02*
X0238D01*
X02388*
Y01296*
X0238Y01288*
X02372*
X02363Y01296*
X02187Y01349D02*
X0217D01*
X02178*
Y01307*
X0217Y01299*
X02162*
X02153Y01307*
X02137Y01295D02*
X0212D01*
X02129*
Y01253*
X0212Y01245*
X02112*
X02104Y01253*
X02073Y02287D02*
X02057D01*
X02065*
Y02245*
X02057Y02237*
X02048*
X0204Y02245*
X02049Y02288D02*
X02033D01*
X02041*
Y02246*
X02033Y02238*
X02024*
X02016Y02246*
X02098Y02288D02*
X02082D01*
X0209*
Y02246*
X02082Y02238*
X02073*
X02065Y02246*
X01179Y01456D02*
X01162D01*
X01171*
Y01415*
X01162Y01406*
X01154*
X01146Y01415*
X01159Y01456D02*
X01142D01*
X01151*
Y01415*
X01142Y01406*
X01134*
X01126Y01415*
X02621Y02146D02*
X02605D01*
X02613*
Y02104*
X02605Y02096*
X02596*
X02588Y02104*
X00683Y01505D02*
X00666D01*
X00675*
Y01463*
X00666Y01455*
X00658*
X0065Y01463*
X00745Y02049D02*
X00729D01*
X00737*
Y02007*
X00729Y01999*
X0072*
X00712Y02007*
X01436Y01068D02*
X0142D01*
X01428*
Y01027*
X0142Y01018*
X01411*
X01403Y01027*
X0272Y02045D02*
X02703D01*
X02712*
Y02003*
X02703Y01995*
X02695*
X02687Y02003*
X0274Y02045D02*
X02723D01*
X02732*
Y02003*
X02723Y01995*
X02715*
X02707Y02003*
X01702Y0226D02*
X01685D01*
X01694*
Y02218*
X01685Y0221*
X01677*
X01669Y02218*
X02742Y02659D02*
X02726D01*
X02734*
Y02618*
X02726Y02609*
X02717*
X02709Y02618*
X02369Y00614D02*
X02352D01*
X02361*
Y00572*
X02352Y00564*
X02344*
X02336Y00572*
X02369Y00633D02*
X02352D01*
X02361*
Y00592*
X02352Y00583*
X02344*
X02336Y00592*
X02311Y00633D02*
X02294D01*
X02302*
Y00592*
X02294Y00583*
X02286*
X02277Y00592*
X02351Y00593D02*
X02334D01*
X02342*
Y00552*
X02334Y00543*
X02326*
X02317Y00552*
X02351Y00613D02*
X02334D01*
X02342*
Y00572*
X02334Y00563*
X02326*
X02317Y00572*
X02331Y00593D02*
X02314D01*
X02322*
Y00552*
X02314Y00543*
X02306*
X02297Y00552*
X02101Y00518D02*
X02084D01*
X02092*
Y00476*
X02084Y00468*
X02076*
X02067Y00476*
X01436Y01247D02*
X0142D01*
X01428*
Y01205*
X0142Y01197*
X01411*
X01403Y01205*
X00964Y01054D02*
X00947D01*
X00956*
Y01012*
X00947Y01004*
X00939*
X00931Y01012*
X02535Y02382D02*
X02519D01*
X02527*
Y0234*
X02519Y02332*
X0251*
X02502Y0234*
X02621Y02205D02*
X02605D01*
X02613*
Y02163*
X02605Y02155*
X02596*
X02588Y02163*
X02534Y02266D02*
X02518D01*
X02526*
Y02224*
X02518Y02216*
X02509*
X02501Y02224*
X02534Y02324D02*
X02518D01*
X02526*
Y02282*
X02518Y02274*
X02509*
X02501Y02282*
X02533Y02501D02*
X02517D01*
X02525*
Y02459*
X02517Y02451*
X02508*
X025Y02459*
X02533Y02442D02*
X02517D01*
X02525*
Y024*
X02517Y02392*
X02508*
X025Y024*
X02007Y02706D02*
X0199D01*
X01998*
Y02664*
X0199Y02656*
X01982*
X01973Y02664*
X01999Y02656D02*
X01982D01*
X01991*
Y02614*
X01982Y02606*
X01974*
X01966Y02614*
X01977Y02721D02*
X01961D01*
X01969*
Y02679*
X01961Y02671*
X01952*
X01944Y02679*
X02118Y02654D02*
X02101D01*
X0211*
Y02612*
X02101Y02604*
X02093*
X02085Y02612*
X01675Y01274D02*
X01658D01*
X01666*
Y01232*
X01658Y01224*
X0165*
X01641Y01232*
X02311Y00593D02*
X02294D01*
X02302*
Y00552*
X02294Y00543*
X02286*
X02277Y00552*
X01529Y01075D02*
X01513D01*
X01521*
Y01033*
X01513Y01025*
X01504*
X01496Y01033*
X01999Y0108D02*
X01982D01*
X0199*
Y01039*
X01982Y0103*
X01974*
X01965Y01039*
X01906Y01078D02*
X0189D01*
X01898*
Y01036*
X0189Y01028*
X01881*
X01873Y01036*
X0262Y01424D02*
X02604D01*
X02612*
Y01382*
X02604Y01374*
X02595*
X02587Y01382*
X0262Y01486D02*
X02604D01*
X02612*
Y01444*
X02604Y01436*
X02595*
X02587Y01444*
X02639Y01545D02*
X02623D01*
X02631*
Y01503*
X02623Y01495*
X02614*
X02606Y01503*
X0262Y01603D02*
X02604D01*
X02612*
Y01561*
X02604Y01553*
X02595*
X02587Y01561*
X0262Y01663D02*
X02604D01*
X02612*
Y01621*
X02604Y01613*
X02595*
X02587Y01621*
X0264Y01664D02*
X02623D01*
X02631*
Y01622*
X02623Y01614*
X02615*
X02606Y01622*
X0264Y01719D02*
X02623D01*
X02631*
Y01677*
X02623Y01669*
X02615*
X02606Y01677*
X02521Y01379D02*
X02504D01*
X02512*
Y01338*
X02504Y01329*
X02496*
X02487Y01338*
X02026Y01926D02*
X02009D01*
X02017*
Y01885*
X02009Y01876*
X02001*
X01993Y01885*
X01576Y01256D02*
X0156D01*
X01568*
Y01214*
X0156Y01206*
X01551*
X01543Y01214*
X01621Y01311D02*
X01604D01*
X01613*
Y01269*
X01604Y01261*
X01596*
X01588Y01269*
X01961Y0146D02*
X01944D01*
X01952*
Y01419*
X01944Y0141*
X01936*
X01927Y01419*
X02626Y01623D02*
X02609D01*
X02618*
Y01582*
X02609Y01573*
X02601*
X02593Y01582*
X02626Y01643D02*
X02609D01*
X02618*
Y01601*
X02609Y01593*
X02601*
X02593Y01601*
X0077Y01552D02*
X00753D01*
X00761*
Y01511*
X00753Y01503*
X00745*
X00736Y01511*
X02065Y01215D02*
X02049D01*
X02057*
Y01174*
X02049Y01165*
X0204*
X02032Y01174*
X02Y01248D02*
X01984D01*
X01992*
Y01206*
X01984Y01198*
X01975*
X01967Y01206*
X01953Y01248D02*
X01936D01*
X01945*
Y01206*
X01936Y01198*
X01928*
X0192Y01206*
X01526Y01245D02*
X0151D01*
X01518*
Y01203*
X0151Y01195*
X01501*
X01493Y01203*
X01812Y0107D02*
X01795D01*
X01804*
Y01028*
X01795Y0102*
X01787*
X01779Y01028*
X022Y00661D02*
X02184D01*
X02192*
Y0062*
X02184Y00611*
X02175*
X02167Y0062*
X00277Y02844D02*
X00261D01*
X00269*
Y02803*
X00261Y02794*
X00252*
X00244Y02803*
X01357Y0125D02*
X0134D01*
X01349*
Y01208*
X0134Y012*
X01332*
X01324Y01208*
X01927Y01181D02*
X0191D01*
X01918*
Y0114*
X0191Y01131*
X01902*
X01893Y0114*
X01994Y01168D02*
X01977D01*
X01985*
Y01126*
X01977Y01118*
X01969*
X0196Y01126*
X01971Y01176D02*
X01954D01*
X01962*
Y01134*
X01954Y01126*
X01946*
X01937Y01134*
X02464Y01583D02*
X02447D01*
X02455*
Y01541*
X02447Y01533*
X02439*
X0243Y01541*
X01637Y0099D02*
X01621D01*
X01629*
Y00949*
X01621Y0094*
X01612*
X01604Y00949*
X02464Y01645D02*
X02447D01*
X02455*
Y01603*
X02447Y01595*
X02439*
X0243Y01603*
X01384Y00453D02*
X01367D01*
X01375*
Y00412*
X01367Y00403*
X01359*
X0135Y00412*
X02464Y01563D02*
X02447D01*
X02455*
Y01521*
X02447Y01513*
X02439*
X0243Y01521*
X01338Y008D02*
X01321D01*
X01329*
Y00758*
X01321Y0075*
X01313*
X01304Y00758*
X02464Y01454D02*
X02447D01*
X02455*
Y01412*
X02447Y01404*
X02439*
X0243Y01412*
X01245Y01289D02*
X01228D01*
X01237*
Y01247*
X01228Y01239*
X0122*
X01212Y01247*
X01211Y01319D02*
X01194D01*
X01202*
Y01277*
X01194Y01269*
X01186*
X01177Y01277*
X01679Y01007D02*
X01662D01*
X0167*
Y00966*
X01662Y00957*
X01654*
X01645Y00966*
X01623Y00932D02*
X01606D01*
X01614*
Y00891*
X01606Y00882*
X01598*
X01589Y00891*
X01763Y00979D02*
X01746D01*
X01755*
Y00938*
X01746Y00929*
X01738*
X0173Y00938*
X0202Y01164D02*
X02003D01*
X02011*
Y01123*
X02003Y01114*
X01995*
X01986Y01123*
X02464Y01689D02*
X02447D01*
X02455*
Y01647*
X02447Y01639*
X02439*
X0243Y01647*
X02464Y01625D02*
X02447D01*
X02455*
Y01583*
X02447Y01575*
X02439*
X0243Y01583*
X02045Y01313D02*
X02028D01*
X02036*
Y01272*
X02028Y01263*
X0202*
X02012Y01272*
X02464Y01434D02*
X02447D01*
X02455*
Y01393*
X02447Y01384*
X02439*
X0243Y01393*
X02464Y015D02*
X02447D01*
X02455*
Y01458*
X02447Y0145*
X02439*
X0243Y01458*
X02464Y01519D02*
X02447D01*
X02455*
Y01478*
X02447Y01469*
X02439*
X0243Y01478*
X02102Y02518D02*
X02085D01*
X02094*
Y02476*
X02085Y02468*
X02077*
X02069Y02476*
X01878Y02433D02*
X01862D01*
X0187*
Y02391*
X01862Y02383*
X01853*
X01845Y02391*
X02546Y01128D02*
X0253D01*
X02538*
Y01087*
X0253Y01078*
X02521*
X02513Y01087*
X00789Y00265D02*
X00773D01*
X00781*
Y00224*
X00773Y00215*
X00764*
X00756Y00224*
X01717Y01068D02*
X017D01*
X01708*
Y01027*
X017Y01019*
X01692*
X01683Y01027*
X00234Y02845D02*
X00218D01*
X00226*
Y02804*
X00218Y02795*
X00209*
X00201Y02804*
X00409Y026D02*
X00393D01*
X00401*
Y02558*
X00393Y0255*
X00384*
X00376Y02558*
X01722Y01313D02*
X01705D01*
X01713*
Y01272*
X01705Y01263*
X01697*
X01689Y01272*
X02249Y01113D02*
X02232D01*
X0224*
Y01072*
X02232Y01063*
X02224*
X02215Y01072*
X02822Y01259D02*
X02805D01*
X02814*
Y01217*
X02805Y01209*
X02797*
X02789Y01217*
X02553Y01021D02*
X02536D01*
X02544*
Y00979*
X02536Y00971*
X02528*
X02519Y00979*
X02251Y01041D02*
X02235D01*
X02243*
Y00999*
X02235Y00991*
X02226*
X02218Y00999*
X029Y0122D02*
X02884D01*
X02892*
Y01179*
X02884Y0117*
X02875*
X02867Y01179*
X02727Y01145D02*
X0271D01*
X02718*
Y01104*
X0271Y01095*
X02702*
X02694Y01104*
X02285Y01087D02*
X02268D01*
X02276*
Y01045*
X02268Y01037*
X0226*
X02251Y01045*
X02274Y01106D02*
X02257D01*
X02266*
Y01064*
X02257Y01056*
X02249*
X02241Y01064*
X02286Y01066D02*
X02269D01*
X02277*
Y01025*
X02269Y01016*
X02261*
X02252Y01025*
X02275Y01048D02*
X02258D01*
X02266*
Y01007*
X02258Y00998*
X0225*
X02241Y01007*
X02096Y01D02*
X02079D01*
X02087*
Y00959*
X02079Y0095*
X02071*
X02062Y00959*
X02561Y00908D02*
X02544D01*
X02552*
Y00867*
X02544Y00858*
X02536*
X02527Y00867*
X01914Y01279D02*
X01897D01*
X01905*
Y01237*
X01897Y01229*
X01889*
X0188Y01237*
X01768Y01287D02*
X01751D01*
X01759*
Y01246*
X01751Y01237*
X01743*
X01735Y01246*
X01675Y01438D02*
X01658D01*
X01666*
Y01397*
X01658Y01388*
X0165*
X01641Y01397*
X01626Y01565D02*
X0161D01*
X01618*
Y01524*
X0161Y01515*
X01601*
X01593Y01524*
X01626Y01627D02*
X0161D01*
X01618*
Y01585*
X0161Y01577*
X01601*
X01593Y01585*
X01626Y01439D02*
X01609D01*
X01617*
Y01398*
X01609Y01389*
X01601*
X01593Y01398*
X01626Y01646D02*
X0161D01*
X01618*
Y01604*
X0161Y01596*
X01601*
X01593Y01604*
X01626Y01545D02*
X0161D01*
X01618*
Y01504*
X0161Y01495*
X01601*
X01593Y01504*
X01626Y01585D02*
X0161D01*
X01618*
Y01544*
X0161Y01535*
X01601*
X01593Y01544*
X01626Y01665D02*
X0161D01*
X01618*
Y01624*
X0161Y01615*
X01601*
X01593Y01624*
X01481Y01253D02*
X01464D01*
X01472*
Y01212*
X01464Y01204*
X01456*
X01447Y01212*
X01296Y01271D02*
X01279D01*
X01287*
Y0123*
X01279Y01221*
X01271*
X01262Y0123*
X01897Y02563D02*
X0188D01*
X01889*
Y02522*
X0188Y02513*
X01872*
X01864Y02522*
X01894Y02449D02*
X01877D01*
X01885*
Y02407*
X01877Y02399*
X01869*
X0186Y02407*
X01941Y02558D02*
X01924D01*
X01932*
Y02517*
X01924Y02508*
X01916*
X01907Y02517*
X01873Y02533D02*
X01856D01*
X01864*
Y02492*
X01856Y02483*
X01848*
X01839Y02492*
X01877Y02563D02*
X0186D01*
X01869*
Y02521*
X0186Y02513*
X01852*
X01844Y02521*
X01852Y02545D02*
X01835D01*
X01843*
Y02504*
X01835Y02495*
X01827*
X01818Y02504*
X01832Y02554D02*
X01815D01*
X01823*
Y02513*
X01815Y02504*
X01807*
X01798Y02513*
X01771Y02563D02*
X01754D01*
X01762*
Y02521*
X01754Y02513*
X01746*
X01737Y02521*
X01751Y02563D02*
X01734D01*
X01743*
Y02521*
X01734Y02513*
X01726*
X01718Y02521*
X01853Y02823D02*
X01836D01*
X01845*
Y02782*
X01836Y02773*
X01828*
X0182Y02782*
X02067Y02456D02*
X0205D01*
X02058*
Y02415*
X0205Y02406*
X02042*
X02034Y02415*
X01675Y02645D02*
X01659D01*
X01667*
Y02604*
X01659Y02595*
X0165*
X01642Y02604*
X02081Y02518D02*
X02064D01*
X02072*
Y02476*
X02064Y02468*
X02056*
X02048Y02476*
X01976Y02377D02*
X01959D01*
X01967*
Y02335*
X01959Y02327*
X01951*
X01942Y02335*
X01862Y02417D02*
X01846D01*
X01854*
Y02375*
X01846Y02367*
X01837*
X01829Y02375*
X02003Y02779D02*
X01987D01*
X01995*
Y02737*
X01987Y02729*
X01978*
X0197Y02737*
X02002Y02816D02*
X01985D01*
X01994*
Y02774*
X01985Y02766*
X01977*
X01969Y02774*
X0193Y02685D02*
X01913D01*
X01921*
Y02643*
X01913Y02635*
X01905*
X01896Y02643*
X01928Y02815D02*
X01911D01*
X01919*
Y02773*
X01911Y02765*
X01903*
X01894Y02773*
X02088Y02456D02*
X02071D01*
X0208*
Y02415*
X02071Y02406*
X02063*
X02055Y02415*
X02192Y02456D02*
X02175D01*
X02183*
Y02414*
X02175Y02406*
X02167*
X02158Y02414*
X02556Y02531D02*
X0254D01*
X02548*
Y02489*
X0254Y02481*
X02531*
X02523Y02489*
X01862Y02397D02*
X01845D01*
X01853*
Y02355*
X01845Y02347*
X01837*
X01828Y02355*
X02077Y02783D02*
X0206D01*
X02068*
Y02741*
X0206Y02733*
X02052*
X02043Y02741*
X01708Y02559D02*
X01691D01*
X017*
Y02518*
X01691Y02509*
X01683*
X01675Y02518*
X01631Y02637D02*
X01614D01*
X01622*
Y02596*
X01614Y02587*
X01606*
X01598Y02596*
X01854Y02745D02*
X01837D01*
X01845*
Y02704*
X01837Y02695*
X01829*
X0182Y02704*
X01729Y02558D02*
X01712D01*
X0172*
Y02516*
X01712Y02508*
X01704*
X01696Y02516*
X0178Y02824D02*
X01764D01*
X01772*
Y02783*
X01764Y02774*
X01755*
X01747Y02783*
X01778Y02747D02*
X01761D01*
X0177*
Y02705*
X01761Y02697*
X01753*
X01745Y02705*
X02536Y01259D02*
X0252D01*
X02528*
Y01217*
X0252Y01209*
X02512*
X02503Y01217*
X02154Y02438D02*
X02137D01*
X02146*
Y02396*
X02137Y02388*
X02129*
X02121Y02396*
X02264Y02451D02*
X02247D01*
X02255*
Y02409*
X02247Y02401*
X02239*
X0223Y02409*
X02257Y02471D02*
X0224D01*
X02249*
Y0243*
X0224Y02421*
X02232*
X02224Y0243*
X01409Y00836D02*
X01393D01*
X01401*
Y00794*
X01393Y00786*
X01384*
X01376Y00794*
X01853Y02846D02*
X01836D01*
X01844*
Y02805*
X01836Y02796*
X01828*
X0182Y02805*
X02156Y01885D02*
X02139D01*
X02147*
Y01844*
X02139Y01835*
X02131*
X02122Y01844*
X01942Y01672D02*
X01926D01*
X01934*
Y0163*
X01926Y01622*
X01917*
X01909Y0163*
X01924Y01469D02*
X01907D01*
X01916*
Y01428*
X01907Y01419*
X01899*
X01891Y01428*
X01924Y01489D02*
X01907D01*
X01916*
Y01447*
X01907Y01439*
X01899*
X01891Y01447*
X0251Y014D02*
X02494D01*
X02502*
Y01359*
X02494Y0135*
X02485*
X02477Y01359*
X02464Y01543D02*
X02447D01*
X02456*
Y01501*
X02447Y01493*
X02439*
X02431Y01501*
X00379Y026D02*
X00363D01*
X00371*
Y02558*
X00363Y0255*
X00354*
X00346Y02558*
X00354Y026D02*
X00338D01*
X00346*
Y02558*
X00338Y0255*
X00329*
X00321Y02558*
X00344Y0256D02*
X00328D01*
X00336*
Y02518*
X00328Y0251*
X00319*
X00311Y02518*
X02108Y0255D02*
X02091D01*
X02099*
Y02508*
X02091Y025*
X02083*
X02074Y02508*
X02064Y0255D02*
X02047D01*
X02055*
Y02508*
X02047Y025*
X02039*
X0203Y02508*
X02062Y02518D02*
X02046D01*
X02054*
Y02476*
X02046Y02468*
X02037*
X02029Y02476*
X02086Y0255D02*
X02069D01*
X02077*
Y02508*
X02069Y025*
X02061*
X02052Y02508*
X02174Y02418D02*
X02157D01*
X02166*
Y02376*
X02157Y02368*
X02149*
X02141Y02376*
X02155Y02419D02*
X02138D01*
X02147*
Y02377*
X02138Y02369*
X0213*
X02122Y02377*
X02192Y02418D02*
X02175D01*
X02184*
Y02377*
X02175Y02368*
X02167*
X02159Y02377*
X02119Y02851D02*
X02102D01*
X0211*
Y0281*
X02102Y02801*
X02094*
X02086Y0281*
X01824Y0025D02*
X01807D01*
X01816*
Y00209*
X01807Y002*
X01799*
X01791Y00209*
X01864Y0028D02*
X01847D01*
X01856*
Y00239*
X01847Y0023*
X01839*
X01831Y00239*
X01844Y00275D02*
X01827D01*
X01836*
Y00234*
X01827Y00225*
X01819*
X01811Y00234*
X01824Y00275D02*
X01807D01*
X01816*
Y00234*
X01807Y00225*
X01799*
X01791Y00234*
X01874Y00295D02*
X01857D01*
X01866*
Y00254*
X01857Y00245*
X01849*
X01841Y00254*
X01874Y00315D02*
X01857D01*
X01866*
Y00274*
X01857Y00265*
X01849*
X01841Y00274*
X01874Y00335D02*
X01857D01*
X01866*
Y00294*
X01857Y00285*
X01849*
X01841Y00294*
X01854Y00375D02*
X01837D01*
X01846*
Y00334*
X01837Y00325*
X01829*
X01821Y00334*
X01834Y00375D02*
X01817D01*
X01826*
Y00334*
X01817Y00325*
X01809*
X01801Y00334*
X01814Y00375D02*
X01797D01*
X01806*
Y00334*
X01797Y00325*
X01789*
X01781Y00334*
X02632Y0089D02*
X02615D01*
X02624*
Y00849*
X02615Y0084*
X02607*
X02599Y00849*
X02652Y0089D02*
X02635D01*
X02644*
Y00849*
X02635Y0084*
X02627*
X02619Y00849*
X02673Y0089D02*
X02656D01*
X02665*
Y00849*
X02656Y0084*
X02648*
X0264Y00849*
X02632Y00909D02*
X02615D01*
X02624*
Y00868*
X02615Y00859*
X02607*
X02599Y00868*
X02652Y00909D02*
X02635D01*
X02644*
Y00868*
X02635Y00859*
X02627*
X02619Y00868*
X02673Y00909D02*
X02656D01*
X02665*
Y00868*
X02656Y00859*
X02648*
X0264Y00868*
X02673Y00927D02*
X02656D01*
X02665*
Y00886*
X02656Y00877*
X02648*
X0264Y00886*
X02652Y00927D02*
X02635D01*
X02644*
Y00886*
X02635Y00877*
X02627*
X02619Y00886*
X02632Y00927D02*
X02615D01*
X02624*
Y00886*
X02615Y00877*
X02607*
X02599Y00886*
X02285Y02586D02*
X02269D01*
X02277*
Y02544*
X02269Y02536*
X0226*
X02252Y02544*
X02111Y02734D02*
X02094D01*
X02103*
Y02693*
X02094Y02684*
X02086*
X02078Y02693*
X01011Y00247D02*
X00994D01*
X01002*
Y00206*
X00994Y00198*
X00986*
X00977Y00206*
X01211Y00373D02*
X01194D01*
X01202*
Y00332*
X01194Y00324*
X01186*
X01177Y00332*
X01719Y00755D02*
X01702D01*
X01711*
Y00714*
X01702Y00705*
X01694*
X01686Y00714*
X01719Y00775D02*
X01702D01*
X01711*
Y00734*
X01702Y00725*
X01694*
X01686Y00734*
X02481Y02062D02*
X02464D01*
X02472*
Y02021*
X02464Y02012*
X02456*
X02447Y02021*
X02444Y0206D02*
X02427D01*
X02436*
Y02019*
X02427Y0201*
X02419*
X02411Y02019*
X02374Y02238D02*
X02357D01*
X02365*
Y02196*
X02357Y02188*
X02349*
X0234Y02196*
X02126Y02521D02*
X02109D01*
X02117*
Y0248*
X02109Y02471*
X02101*
X02093Y0248*
X01924Y00667D02*
X01908D01*
X01916*
Y00625*
X01908Y00617*
X01899*
X01891Y00625*
X01943Y00758D02*
X01926D01*
X01934*
Y00717*
X01926Y00708*
X01918*
X01909Y00717*
X00767Y0037D02*
X0075D01*
X00759*
Y00329*
X0075Y0032*
X00742*
X00734Y00329*
X00767Y00351D02*
X0075D01*
X00759*
Y0031*
X0075Y00301*
X00742*
X00734Y0031*
X00777Y00252D02*
X0076D01*
X00768*
Y00211*
X0076Y00203*
X00752*
X00743Y00211*
X02234Y02135D02*
X02217D01*
X02225*
Y02094*
X02217Y02085*
X02209*
X02201Y02094*
X02245Y0204D02*
X02228D01*
X02236*
Y01999*
X02228Y0199*
X0222*
X02212Y01999*
X02066Y02436D02*
X02049D01*
X02057*
Y02395*
X02049Y02386*
X02041*
X02033Y02395*
X01736Y00931D02*
X01719D01*
X01727*
Y0089*
X01719Y00881*
X01711*
X01703Y0089*
X02421Y02749D02*
X02404D01*
X02413*
Y02707*
X02404Y02699*
X02396*
X02388Y02707*
X02818Y01399D02*
X02801D01*
X0281*
Y01357*
X02801Y01349*
X02793*
X02785Y01357*
X01822Y02433D02*
X01805D01*
X01814*
Y02392*
X01805Y02383*
X01797*
X01789Y02392*
X02311Y00613D02*
X02294D01*
X02302*
Y00572*
X02294Y00563*
X02286*
X02277Y00572*
X02331Y00613D02*
X02314D01*
X02322*
Y00572*
X02314Y00563*
X02306*
X02297Y00572*
X02351Y00633D02*
X02334D01*
X02342*
Y00592*
X02334Y00583*
X02326*
X02317Y00592*
X02331Y00633D02*
X02314D01*
X02322*
Y00592*
X02314Y00583*
X02306*
X02297Y00592*
X02654Y00229D02*
X02637D01*
X02645*
Y00188*
X02637Y00179*
X02629*
X0262Y00188*
X0269Y00229D02*
X02673D01*
X02681*
Y00188*
X02673Y00179*
X02665*
X02656Y00188*
X01934Y0087D02*
X01918D01*
X01926*
Y00829*
X01918Y0082*
X01909*
X01901Y00829*
X02206Y01148D02*
X02189D01*
X02197*
Y01107*
X02189Y01098*
X02181*
X02172Y01107*
X02206Y01128D02*
X02189D01*
X02197*
Y01087*
X02189Y01078*
X02181*
X02172Y01087*
X02206Y01189D02*
X02189D01*
X02197*
Y01148*
X02189Y01139*
X02181*
X02172Y01148*
X02206Y01169D02*
X02189D01*
X02197*
Y01127*
X02189Y01119*
X02181*
X02172Y01127*
X02205Y0123D02*
X02188D01*
X02196*
Y01189*
X02188Y0118*
X0218*
X02171Y01189*
X02205Y0121D02*
X02188D01*
X02196*
Y01169*
X02188Y0116*
X0218*
X02171Y01169*
X02204Y0127D02*
X02187D01*
X02195*
Y01229*
X02187Y0122*
X02179*
X0217Y01229*
X02204Y01251D02*
X02188D01*
X02196*
Y01209*
X02188Y01201*
X02179*
X02171Y01209*
X02473Y02171D02*
X02456D01*
X02465*
Y02129*
X02456Y02121*
X02448*
X0244Y02129*
X01927Y01584D02*
X0191D01*
X01919*
Y01542*
X0191Y01534*
X01902*
X01894Y01542*
X01927Y01564D02*
X0191D01*
X01919*
Y01522*
X0191Y01514*
X01902*
X01894Y01522*
X02626Y01465D02*
X02609D01*
X02618*
Y01423*
X02609Y01415*
X02601*
X02593Y01423*
X02616Y01223D02*
X02599D01*
X02607*
Y01181*
X02599Y01173*
X02591*
X02582Y01181*
X01253Y01345D02*
X01237D01*
X01245*
Y01304*
X01237Y01295*
X01228*
X0122Y01304*
X01871Y02695D02*
X01855D01*
X01863*
Y02654*
X01855Y02645*
X01846*
X01838Y02654*
X02273Y02691D02*
X02256D01*
X02265*
Y02649*
X02256Y02641*
X02248*
X0224Y02649*
X02315Y00768D02*
X02299D01*
X02307*
Y00727*
X02299Y00718*
X0229*
X02282Y00727*
X02071Y00843D02*
X02054D01*
X02062*
Y00802*
X02054Y00793*
X02046*
X02037Y00802*
X01376Y01694D02*
X01359D01*
X01367*
Y01653*
X01359Y01645*
X01351*
X01342Y01653*
X01302Y01456D02*
X01285D01*
X01294*
Y01415*
X01285Y01406*
X01277*
X01269Y01415*
X01344Y02185D02*
X01327D01*
X01335*
Y02144*
X01327Y02136*
X01319*
X0131Y02144*
X01175Y01905D02*
X01159D01*
X01167*
Y01864*
X01159Y01855*
X0115*
X01142Y01864*
X0129Y02428D02*
X01274D01*
X01282*
Y02387*
X01274Y02378*
X01265*
X01257Y02387*
X01023Y02366D02*
X01006D01*
X01014*
Y02325*
X01006Y02316*
X00998*
X0099Y02325*
X01025Y02346D02*
X01009D01*
X01017*
Y02305*
X01009Y02296*
X01*
X00992Y02305*
X01049Y02346D02*
X01032D01*
X0104*
Y02305*
X01032Y02296*
X01024*
X01016Y02305*
X01369Y01307D02*
X01352D01*
X01361*
Y01266*
X01352Y01257*
X01344*
X01336Y01266*
X02619Y0207D02*
X02603D01*
X02611*
Y02029*
X02603Y0202*
X02594*
X02586Y02029*
X02183Y02066D02*
X02166D01*
X02174*
Y02025*
X02166Y02016*
X02158*
X0215Y02025*
X02706Y01164D02*
X02689D01*
X02697*
Y01122*
X02689Y01114*
X02681*
X02672Y01122*
X02192Y02438D02*
X02175D01*
X02183*
Y02396*
X02175Y02388*
X02167*
X02158Y02396*
X02173Y02456D02*
X02157D01*
X02165*
Y02415*
X02157Y02406*
X02148*
X0214Y02415*
X02173Y02437D02*
X02157D01*
X02165*
Y02396*
X02157Y02387*
X02148*
X0214Y02396*
X02154Y02456D02*
X02137D01*
X02146*
Y02415*
X02137Y02406*
X02129*
X02121Y02415*
X02196Y02764D02*
X02179D01*
X02188*
Y02722*
X02179Y02714*
X02171*
X02163Y02722*
X02508Y01359D02*
X02491D01*
X02499*
Y01317*
X02491Y01309*
X02483*
X02474Y01317*
X02952Y01283D02*
X02935D01*
X02944*
Y01241*
X02935Y01233*
X02927*
X02919Y01241*
X02317Y02816D02*
X023D01*
X02308*
Y02775*
X023Y02766*
X02292*
X02284Y02775*
X0232Y02766D02*
X02303D01*
X02311*
Y02725*
X02303Y02717*
X02295*
X02286Y02725*
X02269Y02852D02*
X02252D01*
X0226*
Y02811*
X02252Y02802*
X02244*
X02235Y02811*
X02187Y02736D02*
X0217D01*
X02178*
Y02694*
X0217Y02686*
X02162*
X02153Y02694*
X02052Y02797D02*
X02035D01*
X02043*
Y02755*
X02035Y02747*
X02027*
X02018Y02755*
X02371Y02266D02*
X02354D01*
X02363*
Y02224*
X02354Y02216*
X02346*
X02338Y02224*
X02221Y02017D02*
X02204D01*
X02212*
Y01976*
X02204Y01967*
X02196*
X02188Y01976*
X02861Y01851D02*
X02844D01*
X02852*
Y0181*
X02844Y01801*
X02836*
X02828Y0181*
X02708Y01885D02*
X02691D01*
X02699*
Y01844*
X02691Y01835*
X02683*
X02675Y01844*
X02448Y01905D02*
X02431D01*
X02439*
Y01864*
X02431Y01855*
X02423*
X02415Y01864*
X02266Y01888D02*
X02249D01*
X02257*
Y01846*
X02249Y01838*
X02241*
X02232Y01846*
X02448Y01879D02*
X02431D01*
X02439*
Y01838*
X02431Y01829*
X02423*
X02415Y01838*
X02126Y0243D02*
X0211D01*
X02118*
Y02389*
X0211Y0238*
X02101*
X02093Y02389*
X01923Y02775D02*
X01906D01*
X01914*
Y02734*
X01906Y02725*
X01898*
X0189Y02734*
X01848Y02697D02*
X01831D01*
X01839*
Y02656*
X01831Y02647*
X01823*
X01815Y02656*
X01724Y02522D02*
X01707D01*
X01715*
Y02481*
X01707Y02472*
X01699*
X01691Y02481*
X01975Y01952D02*
X01958D01*
X01966*
Y01911*
X01958Y01902*
X0195*
X01942Y01911*
X02464Y01479D02*
X02447D01*
X02456*
Y01438*
X02447Y01429*
X02439*
X02431Y01438*
X02464Y01414D02*
X02447D01*
X02456*
Y01372*
X02447Y01364*
X02439*
X02431Y01372*
X02257Y01612D02*
X02241D01*
X02249*
Y01571*
X02241Y01562*
X02232*
X02224Y01571*
X02242Y01596D02*
X02226D01*
X02234*
Y01555*
X02226Y01546*
X02217*
X02209Y01555*
X02227Y01582D02*
X02211D01*
X02219*
Y01541*
X02211Y01532*
X02202*
X02194Y01541*
X02244Y01497D02*
X02228D01*
X02236*
Y01456*
X02228Y01447*
X02219*
X02211Y01456*
X02218Y01496D02*
X02202D01*
X0221*
Y01455*
X02202Y01446*
X02193*
X02185Y01455*
X0211Y0153D02*
X02093D01*
X02101*
Y01489*
X02093Y0148*
X02085*
X02077Y01489*
X02089Y01511D02*
X02072D01*
X0208*
Y0147*
X02072Y01461*
X02064*
X02056Y0147*
X02951Y0135D02*
X02934D01*
X02942*
Y01309*
X02934Y013*
X02926*
X02918Y01309*
X02507Y01318D02*
X0249D01*
X02498*
Y01277*
X0249Y01268*
X02482*
X02474Y01277*
X02299Y01375D02*
X02282D01*
X0229*
Y01334*
X02282Y01325*
X02274*
X02266Y01334*
X02225Y01272D02*
X02208D01*
X02217*
Y01231*
X02208Y01222*
X022*
X02192Y01231*
X02227Y01169D02*
X0221D01*
X02218*
Y01127*
X0221Y01119*
X02202*
X02193Y01127*
X02227Y01189D02*
X0221D01*
X02218*
Y01147*
X0221Y01139*
X02202*
X02193Y01147*
X02227Y01148D02*
X0221D01*
X02218*
Y01106*
X0221Y01098*
X02202*
X02193Y01106*
X02226Y0123D02*
X02209D01*
X02217*
Y01188*
X02209Y0118*
X02201*
X02192Y01188*
X02226Y0121D02*
X02209D01*
X02217*
Y01169*
X02209Y0116*
X02201*
X02192Y01169*
X02227Y01128D02*
X0221D01*
X02218*
Y01087*
X0221Y01078*
X02202*
X02193Y01087*
X02225Y01252D02*
X02208D01*
X02217*
Y01211*
X02208Y01202*
X022*
X02192Y01211*
X02186Y01241D02*
X0217D01*
X02178*
Y01199*
X0217Y01191*
X02161*
X02153Y01199*
X02186Y012D02*
X02169D01*
X02177*
Y01159*
X02169Y0115*
X02161*
X02153Y01159*
X02184Y01158D02*
X02167D01*
X02175*
Y01117*
X02167Y01108*
X02159*
X02151Y01117*
X01866Y01284D02*
X01849D01*
X01857*
Y01243*
X01849Y01234*
X01841*
X01833Y01243*
X01816Y01285D02*
X01799D01*
X01807*
Y01244*
X01799Y01235*
X01791*
X01783Y01244*
X01721Y01505D02*
X01704D01*
X01712*
Y01464*
X01704Y01455*
X01696*
X01688Y01464*
X01578Y01433D02*
X01561D01*
X01569*
Y01392*
X01561Y01383*
X01553*
X01545Y01392*
X01966Y00757D02*
X01949D01*
X01957*
Y00716*
X01949Y00707*
X01941*
X01933Y00716*
X01053Y02795D02*
X01036D01*
X01044*
Y02754*
X01036Y02745*
X01028*
X0102Y02754*
X01053Y02815D02*
X01036D01*
X01044*
Y02774*
X01036Y02765*
X01028*
X0102Y02774*
X01053Y02835D02*
X01036D01*
X01044*
Y02794*
X01036Y02785*
X01028*
X0102Y02794*
X0118Y02698D02*
X01163D01*
X01171*
Y02657*
X01163Y02649*
X01155*
X01147Y02657*
X01248Y02409D02*
X01232D01*
X0124*
Y02368*
X01232Y02359*
X01223*
X01215Y02368*
X01483Y01532D02*
X01466D01*
X01474*
Y01491*
X01466Y01482*
X01458*
X0145Y01491*
X01483Y01488D02*
X01466D01*
X01474*
Y01447*
X01466Y01438*
X01458*
X0145Y01447*
X01483Y01437D02*
X01466D01*
X01474*
Y01396*
X01466Y01387*
X01458*
X0145Y01396*
X00328Y02302D02*
X00311D01*
X00319*
Y02261*
X00311Y02252*
X00303*
X00295Y02261*
X00364Y02298D02*
X00347D01*
X00355*
Y02257*
X00347Y02248*
X00339*
X00331Y02257*
X00353Y02276D02*
X00336D01*
X00344*
Y02235*
X00336Y02226*
X00328*
X0032Y02235*
X00966Y01095D02*
X00949D01*
X00958*
Y01053*
X00949Y01045*
X00941*
X00933Y01053*
X00966Y01074D02*
X00949D01*
X00957*
Y01032*
X00949Y01024*
X00941*
X00932Y01032*
X00982Y01054D02*
X00965D01*
X00973*
Y01012*
X00965Y01004*
X00957*
X00948Y01012*
X01006Y01034D02*
X00989D01*
X00997*
Y00992*
X00989Y00984*
X00981*
X00972Y00992*
X01001Y01054D02*
X00984D01*
X00992*
Y01012*
X00984Y01004*
X00976*
X00967Y01012*
X01006Y01014D02*
X00989D01*
X00997*
Y00972*
X00989Y00964*
X00981*
X00972Y00972*
X02096Y00956D02*
X02079D01*
X02087*
Y00914*
X02079Y00906*
X02071*
X02062Y00914*
X02077Y00915D02*
X0206D01*
X02069*
Y00873*
X0206Y00865*
X02052*
X02044Y00873*
X01961Y00827D02*
X01944D01*
X01952*
Y00786*
X01944Y00777*
X01936*
X01928Y00786*
X02084Y00893D02*
X02067D01*
X02076*
Y00851*
X02067Y00843*
X02059*
X02051Y00851*
X0232Y0178D02*
X02303D01*
X02312*
Y01738*
X02303Y0173*
X02295*
X02287Y01738*
X02881Y01413D02*
X02864D01*
X02873*
Y01371*
X02864Y01363*
X02856*
X02848Y01371*
X01927Y01648D02*
X0191D01*
X01919*
Y01606*
X0191Y01598*
X01902*
X01894Y01606*
X01927Y01628D02*
X0191D01*
X01919*
Y01586*
X0191Y01578*
X01902*
X01894Y01586*
X01898Y01616D02*
X01881D01*
X0189*
Y01574*
X01881Y01566*
X01873*
X01865Y01574*
X01898Y01596D02*
X01881D01*
X0189*
Y01554*
X01881Y01546*
X01873*
X01865Y01554*
X02952Y0173D02*
X02935D01*
X02943*
Y01688*
X02935Y0168*
X02927*
X02918Y01688*
X02344Y0178D02*
X02327D01*
X02335*
Y01738*
X02327Y0173*
X02319*
X0231Y01738*
X02266Y02589D02*
X02249D01*
X02258*
Y02548*
X02249Y02539*
X02241*
X02233Y02548*
X02474Y022D02*
X02457D01*
X02466*
Y02159*
X02457Y0215*
X02449*
X02441Y02159*
X02196Y02852D02*
X0218D01*
X02188*
Y02811*
X0218Y02802*
X02171*
X02163Y02811*
X02194Y02788D02*
X02178D01*
X02186*
Y02746*
X02178Y02738*
X02169*
X02161Y02746*
X01927Y02749D02*
X0191D01*
X01919*
Y02707*
X0191Y02699*
X01902*
X01894Y02707*
X02318Y02837D02*
X02301D01*
X0231*
Y02796*
X02301Y02787*
X02293*
X02285Y02796*
X02094Y02746D02*
X02077D01*
X02086*
Y02704*
X02077Y02696*
X02069*
X02061Y02704*
X02193Y02704D02*
X02176D01*
X02184*
Y02663*
X02176Y02654*
X02168*
X0216Y02663*
X02194Y02656D02*
X02177D01*
X02185*
Y02615*
X02177Y02606*
X02169*
X02161Y02615*
X02294Y02739D02*
X02277D01*
X02285*
Y02697*
X02277Y02689*
X02269*
X02261Y02697*
X02418Y0161D02*
X02401D01*
X0241*
Y01569*
X02401Y0156*
X02393*
X02385Y01569*
X0231Y01356D02*
X02293D01*
X02302*
Y01315*
X02293Y01306*
X02285*
X02277Y01315*
X02626Y01702D02*
X02609D01*
X02618*
Y0166*
X02609Y01652*
X02601*
X02593Y0166*
X02626Y01682D02*
X02609D01*
X02618*
Y01641*
X02609Y01632*
X02601*
X02593Y01641*
X02626Y01583D02*
X02609D01*
X02618*
Y01541*
X02609Y01533*
X02601*
X02593Y01541*
X02626Y01563D02*
X02609D01*
X02618*
Y01522*
X02609Y01513*
X02601*
X02593Y01522*
X02626Y01525D02*
X02609D01*
X02618*
Y01483*
X02609Y01475*
X02601*
X02593Y01483*
X02626Y01505D02*
X02609D01*
X02618*
Y01464*
X02609Y01455*
X02601*
X02593Y01464*
X02626Y01445D02*
X02609D01*
X02618*
Y01404*
X02609Y01395*
X02601*
X02593Y01404*
X01898Y01476D02*
X01882D01*
X0189*
Y01434*
X01882Y01426*
X01873*
X01865Y01434*
X01874Y01493D02*
X01858D01*
X01866*
Y01451*
X01858Y01443*
X01849*
X01841Y01451*
X01882Y01571D02*
X01865D01*
X01873*
Y0153*
X01865Y01521*
X01857*
X01848Y0153*
X01902Y01573D02*
X01886D01*
X01894*
Y01531*
X01886Y01523*
X01877*
X01869Y01531*
X01872Y01589D02*
X01856D01*
X01864*
Y01547*
X01856Y01539*
X01847*
X01839Y01547*
X01873Y01613D02*
X01857D01*
X01865*
Y01571*
X01857Y01563*
X01848*
X0184Y01571*
X01901Y0164D02*
X01885D01*
X01893*
Y01598*
X01885Y0159*
X01876*
X01868Y01598*
X01099Y0132D02*
X01083D01*
X01091*
Y01278*
X01083Y0127*
X01074*
X01066Y01278*
X01041Y01369D02*
X01024D01*
X01032*
Y01328*
X01024Y0132*
X01016*
X01007Y01328*
G54D145*
X02295Y00139D02*
D01*
X02295Y0014*
X02295Y00141*
X02295Y00142*
X02295Y00143*
X02295Y00143*
X02294Y00144*
X02294Y00145*
X02294Y00146*
X02293Y00146*
X02293Y00147*
X02292Y00148*
X02291Y00148*
X02291Y00149*
X0229Y00149*
X02289Y0015*
X02289Y0015*
X02288Y0015*
X02287Y00151*
X02286Y00151*
X02286Y00151*
X02285Y00151*
X02284Y00151*
X02283*
X02282Y00151*
X02281Y00151*
X02281Y00151*
X0228Y00151*
X02279Y0015*
X02278Y0015*
X02277Y0015*
X02277Y00149*
X02276Y00149*
X02275Y00148*
X02275Y00148*
X02274Y00147*
X02274Y00146*
X02273Y00146*
X02273Y00145*
X02272Y00144*
X02272Y00143*
X02272Y00143*
X02272Y00142*
X02272Y00141*
X02271Y0014*
X02271Y00139*
X02271Y00138*
X02272Y00138*
X02272Y00137*
X02272Y00136*
X02272Y00135*
X02272Y00134*
X02273Y00134*
X02273Y00133*
X02274Y00132*
X02274Y00132*
X02275Y00131*
X02275Y0013*
X02276Y0013*
X02277Y00129*
X02277Y00129*
X02278Y00128*
X02279Y00128*
X0228Y00128*
X02281Y00128*
X02281Y00127*
X02282Y00127*
X02283Y00127*
X02284*
X02285Y00127*
X02286Y00127*
X02286Y00128*
X02287Y00128*
X02288Y00128*
X02289Y00128*
X02289Y00129*
X0229Y00129*
X02291Y0013*
X02291Y0013*
X02292Y00131*
X02293Y00132*
X02293Y00132*
X02294Y00133*
X02294Y00134*
X02294Y00134*
X02295Y00135*
X02295Y00136*
X02295Y00137*
X02295Y00138*
X02295Y00138*
X02295Y00139*
X01725D02*
D01*
X01725Y0014*
X01724Y00141*
X01724Y00142*
X01724Y00143*
X01724Y00143*
X01724Y00144*
X01723Y00145*
X01723Y00146*
X01722Y00146*
X01722Y00147*
X01721Y00148*
X01721Y00148*
X0172Y00149*
X01719Y00149*
X01719Y0015*
X01718Y0015*
X01717Y0015*
X01716Y00151*
X01715Y00151*
X01715Y00151*
X01714Y00151*
X01713Y00151*
X01712*
X01711Y00151*
X0171Y00151*
X0171Y00151*
X01709Y00151*
X01708Y0015*
X01707Y0015*
X01707Y0015*
X01706Y00149*
X01705Y00149*
X01705Y00148*
X01704Y00148*
X01703Y00147*
X01703Y00146*
X01702Y00146*
X01702Y00145*
X01702Y00144*
X01701Y00143*
X01701Y00143*
X01701Y00142*
X01701Y00141*
X01701Y0014*
X01701Y00139*
X01701Y00138*
X01701Y00138*
X01701Y00137*
X01701Y00136*
X01701Y00135*
X01702Y00134*
X01702Y00134*
X01702Y00133*
X01703Y00132*
X01703Y00132*
X01704Y00131*
X01705Y0013*
X01705Y0013*
X01706Y00129*
X01707Y00129*
X01707Y00128*
X01708Y00128*
X01709Y00128*
X0171Y00128*
X0171Y00127*
X01711Y00127*
X01712Y00127*
X01713*
X01714Y00127*
X01715Y00127*
X01715Y00128*
X01716Y00128*
X01717Y00128*
X01718Y00128*
X01719Y00129*
X01719Y00129*
X0172Y0013*
X01721Y0013*
X01721Y00131*
X01722Y00132*
X01722Y00132*
X01723Y00133*
X01723Y00134*
X01724Y00134*
X01724Y00135*
X01724Y00136*
X01724Y00137*
X01724Y00138*
X01725Y00138*
X01725Y00139*
G54D272*
X00604Y02765D02*
D01*
X00604Y02767*
X00604Y02768*
X00604Y02769*
X00603Y02771*
X00603Y02772*
X00602Y02773*
X00602Y02775*
X00601Y02776*
X006Y02777*
X00599Y02778*
X00599Y02779*
X00598Y0278*
X00596Y02781*
X00595Y02782*
X00594Y02783*
X00593Y02783*
X00592Y02784*
X0059Y02784*
X00589Y02785*
X00588Y02785*
X00586Y02785*
X00585Y02785*
X00583*
X00582Y02785*
X00581Y02785*
X00579Y02785*
X00578Y02784*
X00577Y02784*
X00575Y02783*
X00574Y02783*
X00573Y02782*
X00572Y02781*
X00571Y0278*
X0057Y02779*
X00569Y02778*
X00568Y02777*
X00567Y02776*
X00566Y02775*
X00566Y02773*
X00565Y02772*
X00565Y02771*
X00565Y02769*
X00564Y02768*
X00564Y02767*
X00564Y02765*
X00564Y02764*
X00564Y02762*
X00565Y02761*
X00565Y0276*
X00565Y02758*
X00566Y02757*
X00566Y02756*
X00567Y02755*
X00568Y02753*
X00569Y02752*
X0057Y02751*
X00571Y0275*
X00572Y02749*
X00573Y02749*
X00574Y02748*
X00575Y02747*
X00577Y02747*
X00578Y02746*
X00579Y02746*
X00581Y02746*
X00582Y02745*
X00583Y02745*
X00585*
X00586Y02745*
X00588Y02746*
X00589Y02746*
X0059Y02746*
X00592Y02747*
X00593Y02747*
X00594Y02748*
X00595Y02749*
X00596Y02749*
X00598Y0275*
X00599Y02751*
X00599Y02752*
X006Y02753*
X00601Y02755*
X00602Y02756*
X00602Y02757*
X00603Y02758*
X00603Y0276*
X00604Y02761*
X00604Y02762*
X00604Y02764*
X00604Y02765*
X00321D02*
D01*
X00321Y02767*
X0032Y02768*
X0032Y02769*
X0032Y02771*
X00319Y02772*
X00319Y02773*
X00318Y02775*
X00318Y02776*
X00317Y02777*
X00316Y02778*
X00315Y02779*
X00314Y0278*
X00313Y02781*
X00312Y02782*
X00311Y02783*
X00309Y02783*
X00308Y02784*
X00307Y02784*
X00306Y02785*
X00304Y02785*
X00303Y02785*
X00301Y02785*
X003*
X00299Y02785*
X00297Y02785*
X00296Y02785*
X00295Y02784*
X00293Y02784*
X00292Y02783*
X00291Y02783*
X00289Y02782*
X00288Y02781*
X00287Y0278*
X00286Y02779*
X00285Y02778*
X00285Y02777*
X00284Y02776*
X00283Y02775*
X00282Y02773*
X00282Y02772*
X00281Y02771*
X00281Y02769*
X00281Y02768*
X00281Y02767*
X00281Y02765*
X00281Y02764*
X00281Y02762*
X00281Y02761*
X00281Y0276*
X00282Y02758*
X00282Y02757*
X00283Y02756*
X00284Y02755*
X00285Y02753*
X00285Y02752*
X00286Y02751*
X00287Y0275*
X00288Y02749*
X00289Y02749*
X00291Y02748*
X00292Y02747*
X00293Y02747*
X00295Y02746*
X00296Y02746*
X00297Y02746*
X00299Y02745*
X003Y02745*
X00301*
X00303Y02745*
X00304Y02746*
X00306Y02746*
X00307Y02746*
X00308Y02747*
X00309Y02747*
X00311Y02748*
X00312Y02749*
X00313Y02749*
X00314Y0275*
X00315Y02751*
X00316Y02752*
X00317Y02753*
X00318Y02755*
X00318Y02756*
X00319Y02757*
X00319Y02758*
X0032Y0276*
X0032Y02761*
X0032Y02762*
X00321Y02764*
X00321Y02765*
X02303Y00139D02*
D01*
X02303Y00141*
X02303Y00142*
X02303Y00143*
X02303Y00145*
X02302Y00146*
X02302Y00147*
X02301Y00149*
X023Y0015*
X023Y00151*
X02299Y00152*
X02298Y00153*
X02297Y00154*
X02296Y00155*
X02295Y00156*
X02293Y00157*
X02292Y00157*
X02291Y00158*
X0229Y00158*
X02288Y00159*
X02287Y00159*
X02286Y00159*
X02284Y00159*
X02283*
X02281Y00159*
X0228Y00159*
X02279Y00159*
X02277Y00158*
X02276Y00158*
X02275Y00157*
X02273Y00157*
X02272Y00156*
X02271Y00155*
X0227Y00154*
X02269Y00153*
X02268Y00152*
X02267Y00151*
X02266Y0015*
X02266Y00149*
X02265Y00147*
X02265Y00146*
X02264Y00145*
X02264Y00143*
X02264Y00142*
X02263Y00141*
X02263Y00139*
X02263Y00138*
X02264Y00136*
X02264Y00135*
X02264Y00134*
X02265Y00132*
X02265Y00131*
X02266Y0013*
X02266Y00129*
X02267Y00128*
X02268Y00126*
X02269Y00125*
X0227Y00124*
X02271Y00124*
X02272Y00123*
X02273Y00122*
X02275Y00121*
X02276Y00121*
X02277Y0012*
X02279Y0012*
X0228Y0012*
X02281Y00119*
X02283Y00119*
X02284*
X02286Y00119*
X02287Y0012*
X02288Y0012*
X0229Y0012*
X02291Y00121*
X02292Y00121*
X02293Y00122*
X02295Y00123*
X02296Y00124*
X02297Y00124*
X02298Y00125*
X02299Y00126*
X023Y00128*
X023Y00129*
X02301Y0013*
X02302Y00131*
X02302Y00132*
X02303Y00134*
X02303Y00135*
X02303Y00136*
X02303Y00138*
X02303Y00139*
X01733D02*
D01*
X01733Y00141*
X01732Y00142*
X01732Y00143*
X01732Y00145*
X01731Y00146*
X01731Y00147*
X0173Y00149*
X0173Y0015*
X01729Y00151*
X01728Y00152*
X01727Y00153*
X01726Y00154*
X01725Y00155*
X01724Y00156*
X01723Y00157*
X01721Y00157*
X0172Y00158*
X01719Y00158*
X01717Y00159*
X01716Y00159*
X01715Y00159*
X01713Y00159*
X01712*
X0171Y00159*
X01709Y00159*
X01708Y00159*
X01706Y00158*
X01705Y00158*
X01704Y00157*
X01703Y00157*
X01701Y00156*
X017Y00155*
X01699Y00154*
X01698Y00153*
X01697Y00152*
X01696Y00151*
X01696Y0015*
X01695Y00149*
X01694Y00147*
X01694Y00146*
X01693Y00145*
X01693Y00143*
X01693Y00142*
X01693Y00141*
X01693Y00139*
X01693Y00138*
X01693Y00136*
X01693Y00135*
X01693Y00134*
X01694Y00132*
X01694Y00131*
X01695Y0013*
X01696Y00129*
X01696Y00128*
X01697Y00126*
X01698Y00125*
X01699Y00124*
X017Y00124*
X01701Y00123*
X01703Y00122*
X01704Y00121*
X01705Y00121*
X01706Y0012*
X01708Y0012*
X01709Y0012*
X0171Y00119*
X01712Y00119*
X01713*
X01715Y00119*
X01716Y0012*
X01717Y0012*
X01719Y0012*
X0172Y00121*
X01721Y00121*
X01723Y00122*
X01724Y00123*
X01725Y00124*
X01726Y00124*
X01727Y00125*
X01728Y00126*
X01729Y00128*
X0173Y00129*
X0173Y0013*
X01731Y00131*
X01731Y00132*
X01732Y00134*
X01732Y00135*
X01732Y00136*
X01733Y00138*
X01733Y00139*
M02*