%FSTAX23Y23*%
%MOIN*%
%SFA1B1*%

%IPPOS*%
%AMD62*
4,1,8,-0.010800,0.015700,-0.010800,-0.015700,-0.010800,-0.015700,0.010800,-0.015700,0.010800,-0.015700,0.010800,0.015700,0.010800,0.015700,-0.010800,0.015700,-0.010800,0.015700,0.0*
1,1,0.000000,-0.010800,0.015700*
1,1,0.000000,-0.010800,-0.015700*
1,1,0.000000,0.010800,-0.015700*
1,1,0.000000,0.010800,0.015700*
%
%AMD100*
4,1,8,-0.039400,0.014800,-0.039400,-0.014800,-0.024600,-0.029500,0.024600,-0.029500,0.039400,-0.014800,0.039400,0.014800,0.024600,0.029500,-0.024600,0.029500,-0.039400,0.014800,0.0*
1,1,0.029528,-0.024600,0.014800*
1,1,0.029528,-0.024600,-0.014800*
1,1,0.029528,0.024600,-0.014800*
1,1,0.029528,0.024600,0.014800*
%
%AMD107*
4,1,8,-0.035800,-0.011800,0.035800,-0.011800,0.038800,-0.008900,0.038800,0.008900,0.035800,0.011800,-0.035800,0.011800,-0.038800,0.008900,-0.038800,-0.008900,-0.035800,-0.011800,0.0*
1,1,0.005906,-0.035800,-0.008900*
1,1,0.005906,0.035800,-0.008900*
1,1,0.005906,0.035800,0.008900*
1,1,0.005906,-0.035800,0.008900*
%
%AMD127*
4,1,8,-0.112200,-0.118100,0.112200,-0.118100,0.118100,-0.112200,0.118100,0.112200,0.112200,0.118100,-0.112200,0.118100,-0.118100,0.112200,-0.118100,-0.112200,-0.112200,-0.118100,0.0*
1,1,0.011811,-0.112200,-0.112200*
1,1,0.011811,0.112200,-0.112200*
1,1,0.011811,0.112200,0.112200*
1,1,0.011811,-0.112200,0.112200*
%
%AMD129*
4,1,4,-0.016300,0.000700,0.000700,-0.016300,0.016300,-0.000700,-0.000700,0.016300,-0.016300,0.000700,0.0*
%
%ADD15R,0.031735X0.033788*%
%ADD16R,0.031496X0.035433*%
%ADD23R,0.033788X0.031735*%
%ADD24R,0.032000X0.037000*%
%ADD25R,0.118110X0.082677*%
%ADD31R,0.037000X0.032000*%
%ADD35C,0.035000*%
%ADD36R,0.022000X0.024000*%
%ADD38R,0.024000X0.022000*%
%ADD47R,0.057087X0.045275*%
%ADD59R,0.055118X0.011811*%
G04~CAMADD=62~8~0.0~0.0~315.0~216.5~0.0~0.0~15~0.0~0.0~0.0~0.0~0~0.0~0.0~0.0~0.0~0~0.0~0.0~0.0~90.0~216.0~314.0*
%ADD62D62*%
%ADD65R,0.015748X0.023622*%
%ADD66C,0.070866*%
%ADD67R,0.032677X0.024803*%
%ADD82O,0.047244X0.094488*%
%ADD83O,0.041339X0.082677*%
%ADD84C,0.059055*%
%ADD85R,0.059055X0.059055*%
%ADD86R,0.051496X0.051496*%
%ADD87C,0.051496*%
%ADD88O,0.078740X0.094488*%
%ADD89C,0.078740*%
%ADD90O,0.039370X0.066929*%
%ADD92C,0.216535*%
%ADD93O,0.043307X0.074803*%
%ADD94C,0.049212*%
%ADD95C,0.039370*%
%ADD96O,0.055118X0.118110*%
%ADD97O,0.055118X0.122047*%
%ADD98O,0.055118X0.082677*%
%ADD99C,0.070866*%
G04~CAMADD=100~8~0.0~0.0~590.6~787.4~147.6~0.0~15~0.0~0.0~0.0~0.0~0~0.0~0.0~0.0~0.0~0~0.0~0.0~0.0~90.0~788.0~591.0*
%ADD100D100*%
%ADD101O,0.098425X0.078740*%
%ADD104C,0.157480*%
%ADD105R,0.027559X0.025591*%
%ADD106R,0.095000X0.130000*%
G04~CAMADD=107~8~0.0~0.0~775.6~236.2~29.5~0.0~15~0.0~0.0~0.0~0.0~0~0.0~0.0~0.0~0.0~0~0.0~0.0~0.0~180.0~776.0~236.0*
%ADD107D107*%
%ADD108R,0.051181X0.031496*%
%ADD109R,0.039848X0.045596*%
%ADD110R,0.029921X0.028346*%
%ADD111R,0.141732X0.060000*%
%ADD112R,0.078000X0.022000*%
%ADD113R,0.059842X0.023622*%
%ADD114R,0.157000X0.059000*%
%ADD115R,0.035433X0.051181*%
%ADD116R,0.031496X0.015748*%
%ADD117R,0.039370X0.086614*%
%ADD118R,0.047244X0.086614*%
%ADD119R,0.062992X0.055118*%
%ADD120R,0.027559X0.055118*%
%ADD121R,0.045275X0.057087*%
%ADD122R,0.041339X0.025591*%
%ADD123R,0.024803X0.032677*%
%ADD124R,0.035827X0.048031*%
%ADD125O,0.007874X0.039370*%
%ADD126O,0.039370X0.007874*%
G04~CAMADD=127~8~0.0~0.0~2362.2~2362.2~59.1~0.0~15~0.0~0.0~0.0~0.0~0~0.0~0.0~0.0~0.0~0~0.0~0.0~0.0~180.0~2362.0~2362.0*
%ADD127D127*%
%ADD128R,0.161417X0.098425*%
G04~CAMADD=129~9~0.0~0.0~240.0~220.0~0.0~0.0~0~0.0~0.0~0.0~0.0~0~0.0~0.0~0.0~0.0~0~0.0~0.0~0.0~135.0~326.0~325.0*
%ADD129D129*%
%ADD130R,0.015748X0.018898*%
%ADD131R,0.025591X0.041339*%
%ADD132R,0.055118X0.045275*%
%ADD133C,0.015000*%
%ADD136O,0.185039X0.196850*%
%ADD137C,0.149606*%
%LNx98_carrier_v1r2_12082022_pads_bot-1*%
%LPD*%
G54D15*
X00409Y01592D03*
X00362D03*
G54D16*
X00354Y01491D03*
X00428D03*
X00391Y01412D03*
G54D23*
X01219Y02686D03*
Y02733D03*
X01314Y02686D03*
Y02733D03*
X02665Y02242D03*
Y02195D03*
X02661Y02305D03*
Y02352D03*
X01503Y02733D03*
Y02686D03*
X01408Y02733D03*
Y02686D03*
X01125Y02733D03*
Y02686D03*
G54D24*
X01267Y02141D03*
X01216D03*
X01479Y01638D03*
X0153D03*
X01478Y01684D03*
X01529D03*
X01207Y00688D03*
X01258D03*
X00524Y02595D03*
X00575Y02595D03*
X01928Y02443D03*
X01877D03*
X01992Y02441D03*
X02043D03*
X01718Y00718D03*
X01769D03*
X0169Y01318D03*
X01741D03*
X0169Y01414D03*
X01741D03*
X0169Y01366D03*
X01741D03*
X02402Y01318D03*
X02351D03*
X00859Y00336D03*
X0091D03*
X02818Y00809D03*
X02869D03*
G54D25*
X02861Y021D03*
Y02448D03*
X00076Y02602D03*
Y02254D03*
X00076Y01272D03*
Y01571D03*
G54D31*
X01415Y01681D03*
Y0163D03*
X01205Y01848D03*
Y01899D03*
X01784Y00527D03*
Y00578D03*
X01832Y01411D03*
Y0136D03*
X02444Y0132D03*
Y01269D03*
X02238Y01274D03*
Y01223D03*
X02349Y0173D03*
Y01678D03*
X01651Y00654D03*
Y00603D03*
X02394Y01729D03*
Y01678D03*
X0091Y00789D03*
Y00738D03*
X02037Y02268D03*
X02037Y02319D03*
X02191Y02409D03*
Y02357D03*
G54D35*
X01157Y00924D03*
X02794Y00134D03*
X01786Y02255D03*
X01781Y02447D03*
X01231Y00925D03*
X01233Y00777D03*
X01154Y00778D03*
X01785Y02194D03*
X01828Y02422D03*
X01439Y00685D03*
X01979Y007D03*
X00958Y00337D03*
X01858Y02632D03*
G54D36*
X01988Y01679D03*
X02018D03*
X01988Y01711D03*
X02017D03*
X01804Y01489D03*
X01834D03*
X0154Y01838D03*
X0151D03*
X01214Y01732D03*
X01243D03*
X01296Y0184D03*
X01325D03*
X01211Y01693D03*
X01241D03*
X0143Y01835D03*
X01459D03*
X01019Y00922D03*
X01048D03*
X00427Y01133D03*
X00457D03*
Y01169D03*
X00427D03*
X00421Y01204D03*
X00391D03*
X00613Y00991D03*
X00583D03*
X00601Y01254D03*
X00631D03*
X00707Y01153D03*
X00678D03*
X00707Y01186D03*
X00678D03*
X00708Y01118D03*
X00679D03*
X00708Y01078D03*
X00679D03*
X00527Y01099D03*
X00498D03*
X00527Y01217D03*
X00498D03*
X00849Y02514D03*
X00819D03*
X00782Y02432D03*
X00753D03*
X02686Y00127D03*
X02656D03*
X01501Y00622D03*
X01472D03*
X0246Y01379D03*
X0249D03*
X01743Y0154D03*
X01772D03*
X01894Y01336D03*
X01924D03*
X0238Y01531D03*
X02351D03*
X01894Y01367D03*
X01924D03*
X02506Y00808D03*
X02477D03*
X01045Y00963D03*
X01016D03*
X01081Y00932D03*
X01111D03*
X01049Y00875D03*
X01079Y00875D03*
X01206Y01265D03*
X01235D03*
X0209Y01832D03*
X0206D03*
X0246Y01665D03*
X0249D03*
X02346Y01356D03*
X02376D03*
X02375Y0139D03*
X02346D03*
X01842Y00574D03*
X01871D03*
X01872Y00607D03*
X01842D03*
X01898Y00683D03*
X01927D03*
X02339Y00755D03*
X0231D03*
X0218Y00888D03*
X0221D03*
X02686Y00158D03*
X02656D03*
X02591D03*
X0262D03*
Y00127D03*
X02591D03*
X01875Y02795D03*
X01846D03*
X01795Y02702D03*
X01766D03*
X0187Y02764D03*
X01841D03*
X01795Y02671D03*
X01766D03*
X01944Y02644D03*
X01914D03*
X0202Y02694D03*
X0199D03*
X01944Y02725D03*
X01914D03*
X01944Y02613D03*
X01914D03*
X0202Y02725D03*
X0199D03*
X01944Y02694D03*
X01914D03*
X02217Y02644D03*
X02187D03*
X02128Y02724D03*
X02098D03*
X02211Y02801D03*
X02182D03*
X01796Y02798D03*
X01766D03*
X0202D03*
X0199D03*
X02217Y02739D03*
X02188D03*
X01795Y02767D03*
X01766D03*
X0202D03*
X0199D03*
X02128Y02689D03*
X02098D03*
X02216Y02581D03*
X02187D03*
X01944Y02767D03*
X01914D03*
X01913Y02802D03*
X01942D03*
X02217Y02612D03*
X02187D03*
X00779Y02555D03*
X00809D03*
X00779Y02596D03*
X00809D03*
X00764Y02514D03*
X00794D03*
X0246Y01634D03*
X0249D03*
X0246Y01602D03*
X0249D03*
X0246Y0157D03*
X0249D03*
X0246Y01538D03*
X0249D03*
X0246Y01507D03*
X0249D03*
X0246Y01475D03*
X0249D03*
X0246Y01444D03*
X0249D03*
X0246Y01411D03*
X0249D03*
X01841Y02702D03*
X0187D03*
X01841Y02671D03*
X0187D03*
G54D38*
X00245Y02663D03*
Y02634D03*
X02447Y01835D03*
Y01864D03*
X02511D03*
Y01835D03*
X02543Y01864D03*
Y01835D03*
X02479Y01864D03*
Y01835D03*
X0045Y0099D03*
Y0102D03*
X00485Y0099D03*
Y0102D03*
X00577Y02295D03*
Y02324D03*
X02425Y0034D03*
Y0037D03*
X0239D03*
Y0034D03*
X01611Y0063D03*
Y00659D03*
X01434Y00621D03*
Y0065D03*
X02176Y01917D03*
Y01887D03*
X01972Y01932D03*
Y01903D03*
X02126Y01717D03*
Y01687D03*
X02278Y01251D03*
Y0128D03*
X02229Y01805D03*
Y01775D03*
X02301Y00947D03*
Y00918D03*
X01176Y01218D03*
Y01248D03*
X01645Y00688D03*
Y00717D03*
X01307Y0065D03*
Y00621D03*
X01263Y0065D03*
Y00621D03*
X01348Y0065D03*
Y00621D03*
X0138D03*
Y0065D03*
X02462Y01234D03*
Y01205D03*
X02443Y0087D03*
Y00841D03*
X02358Y00947D03*
Y00918D03*
X02443Y00781D03*
Y0081D03*
X02081Y00786D03*
Y00815D03*
X02244Y00814D03*
Y00785D03*
X02198Y01775D03*
Y01805D03*
X02086Y00876D03*
Y00846D03*
X02596Y00347D03*
Y00317D03*
Y00379D03*
Y00408D03*
X00806Y013D03*
Y01329D03*
X00773Y013D03*
Y01329D03*
X01993Y02623D03*
Y02652D03*
X02024Y02623D03*
Y02652D03*
X0226Y02805D03*
Y02776D03*
X02265Y02745D03*
Y02715D03*
X00234Y0274D03*
Y0271D03*
X02105Y01219D03*
Y0119D03*
X01872Y00279D03*
Y0025D03*
G54D47*
X00626Y02666D03*
Y02575D03*
X00781Y00259D03*
Y00168D03*
G54D59*
X02542Y0114D03*
Y0112D03*
Y01159D03*
Y01179D03*
Y01219D03*
Y01199D03*
Y01337D03*
Y01317D03*
Y01356D03*
X02542Y01671D03*
X02542Y01612D03*
Y01553D03*
Y01494D03*
Y01435D03*
Y01376D03*
Y011D03*
Y01258D03*
Y01238D03*
Y01278D03*
Y01297D03*
Y01652D03*
Y01632D03*
Y01593D03*
Y01573D03*
Y01533D03*
Y01514D03*
Y01474D03*
Y01455D03*
Y01415D03*
Y01396D03*
G54D62*
X00436Y02661D03*
Y02754D03*
X00474Y02661D03*
X00399D03*
Y02754D03*
X00474D03*
X00817Y00601D03*
Y00508D03*
X00855D03*
Y00601D03*
X0078Y00508D03*
Y00601D03*
G54D65*
X00773Y02473D03*
X00829D03*
G54D66*
X00193Y01913D03*
X01454Y01286D03*
X0126Y0026D03*
G54D67*
X02408Y00308D03*
Y00221D03*
X0239Y00417D03*
Y00504D03*
G54D82*
X00224Y00072D03*
X005D03*
G54D83*
X00275Y00154D03*
X0045D03*
G54D84*
X00561Y0037D03*
G54D85*
X00661Y0037D03*
G54D86*
X00094Y00479D03*
X00093Y00725D03*
G54D87*
X00094Y00401D03*
X00093Y00647D03*
G54D88*
X00796Y00417D03*
X01024D03*
Y00692D03*
X00796D03*
G54D89*
X02374Y00157D03*
Y00057D03*
X02637Y02764D03*
X02537D03*
X02437D03*
X02337D03*
Y02664D03*
X02437D03*
X02537D03*
X02637D03*
X00944Y02764D03*
X00844D03*
X00744D03*
Y02664D03*
X00844D03*
X00944D03*
G54D90*
X02468Y00062D03*
X02809Y00062D03*
Y00212D03*
X02468D03*
G54D92*
X02828Y02708D03*
Y00425D03*
G54D93*
X00584Y02765D03*
X00301D03*
G54D94*
X00346Y02661D03*
X00539D03*
G54D95*
X0289Y01528D03*
Y01478D03*
X0284D03*
Y01428D03*
Y01528D03*
Y01578D03*
X0289Y01428D03*
Y01578D03*
X0284Y01628D03*
X0289D03*
G54D96*
X01713Y00375D03*
G54D97*
X02283Y00375D03*
G54D98*
X02283Y00139D03*
X01713D03*
G54D99*
X0091Y00437D03*
Y00515D03*
Y00594D03*
Y00673D03*
G54D100*
X02875Y00887D03*
Y00965D03*
G54D101*
X02837Y0064D03*
Y0074D03*
G54D104*
X02361Y01133D03*
G54D105*
X00552Y00435D03*
X00589D03*
G54D106*
X00363Y0041D03*
G54D107*
X00265Y00485D03*
Y00335D03*
X0046D03*
Y00385D03*
Y00435D03*
Y00485D03*
X00265Y00385D03*
Y00435D03*
G54D108*
X02753Y02348D03*
Y02298D03*
Y02249D03*
Y022D03*
X00184Y02354D03*
Y02404D03*
Y02453D03*
Y02502D03*
X00185Y0147D03*
Y01421D03*
Y01372D03*
G54D109*
X00223Y00612D03*
Y00547D03*
G54D110*
X00517Y01601D03*
X00556D03*
G54D111*
X00649Y00247D03*
Y00062D03*
G54D112*
X006Y01675D03*
Y01725D03*
Y01775D03*
Y01825D03*
Y01875D03*
Y01925D03*
Y01975D03*
Y02025D03*
X00414D03*
Y01975D03*
Y01925D03*
Y01875D03*
Y01825D03*
Y01775D03*
Y01725D03*
Y01675D03*
G54D113*
X01507Y02001D03*
Y02051D03*
Y01951D03*
X01286Y02051D03*
Y01951D03*
X01507Y01901D03*
X01286D03*
Y02001D03*
G54D114*
X01685Y0192D03*
Y02061D03*
G54D115*
X00673Y0124D03*
X00744D03*
X00734Y01022D03*
X00663D03*
G54D116*
X02135Y00804D03*
Y0083D03*
Y00855D03*
X02201Y00804D03*
Y0083D03*
Y00855D03*
X02385Y00851D03*
Y00826D03*
Y008D03*
X02319Y00851D03*
Y00826D03*
Y008D03*
G54D117*
X01657Y00133D03*
G54D118*
X01047Y00133D03*
G54D119*
X01082Y00511D03*
X01667Y00507D03*
G54D120*
X01263Y00535D03*
X01307D03*
X0135D03*
X01393D03*
X01436D03*
X0148D03*
X01523D03*
X01566D03*
X0161D03*
G54D121*
X02263Y00249D03*
X02354D03*
G54D122*
X02465Y00341D03*
X02555Y00379D03*
X02465Y00416D03*
X02Y00611D03*
X0191Y00648D03*
Y00573D03*
G54D123*
X01913Y00365D03*
X01825D03*
G54D124*
X02674Y00865D03*
X02802D03*
G54D125*
X022Y01328D03*
X02216D03*
X02137Y01627D03*
X02232Y01328D03*
X02027Y01627D03*
X02058D03*
X02106Y01328D03*
X02169Y01627D03*
X02153D03*
X02184D03*
X02247D03*
X02232D03*
X022D03*
X02216D03*
X02027Y01328D03*
X02043D03*
X02074D03*
X0209D03*
X02121D03*
X02137D03*
X02169D03*
X02184D03*
X0209Y01627D03*
X02074D03*
X02011Y01328D03*
Y01627D03*
X02043D03*
X02153Y01328D03*
X02058D03*
X02247D03*
X02106Y01627D03*
X02121D03*
G54D126*
X02279Y01359D03*
Y01375D03*
X0198Y01359D03*
X02279Y01533D03*
X0198Y01485D03*
Y01375D03*
X02279Y01407D03*
X0198Y01391D03*
X02279Y01438D03*
Y01422D03*
Y0147D03*
Y01454D03*
Y01564D03*
Y01548D03*
Y01596D03*
Y0158D03*
Y01501D03*
Y01485D03*
X0198Y01422D03*
Y01438D03*
Y01517D03*
Y01533D03*
Y01548D03*
Y01564D03*
Y0158D03*
Y01596D03*
Y01454D03*
Y0147D03*
X02279Y01391D03*
X0198Y01407D03*
Y01501D03*
X02279Y01517D03*
G54D127*
X02129Y01477D03*
G54D128*
X02647Y01755D03*
Y01016D03*
G54D129*
X01835Y00192D03*
X01856Y00213D03*
G54D130*
X00967Y00524D03*
Y00472D03*
G54D131*
X01774Y0067D03*
X01736Y00579D03*
X01699Y0067D03*
G54D132*
X02032Y01949D03*
X02119Y01886D03*
X02032D03*
X02119Y01949D03*
G54D133*
X02319Y01405D03*
G54D136*
X01038Y01133D03*
G54D137*
X01038Y02456D03*
M02*