%FSTAX23Y23*%
%MOIN*%
%SFA1B1*%

%IPPOS*%
%AMD127*
4,1,8,-0.112200,-0.118100,0.112200,-0.118100,0.118100,-0.112200,0.118100,0.112200,0.112200,0.118100,-0.112200,0.118100,-0.118100,0.112200,-0.118100,-0.112200,-0.112200,-0.118100,0.0*
1,1,0.011811,-0.112200,-0.112200*
1,1,0.011811,0.112200,-0.112200*
1,1,0.011811,0.112200,0.112200*
1,1,0.011811,-0.112200,0.112200*
%
%AMD194*
4,1,8,-0.012800,0.017700,-0.012800,-0.017700,-0.012800,-0.017700,0.012800,-0.017700,0.012800,-0.017700,0.012800,0.017700,0.012800,0.017700,-0.012800,0.017700,-0.012800,0.017700,0.0*
1,1,0.000000,-0.012800,0.017700*
1,1,0.000000,-0.012800,-0.017700*
1,1,0.000000,0.012800,-0.017700*
1,1,0.000000,0.012800,0.017700*
%
%AMD216*
4,1,8,-0.041400,0.014800,-0.041400,-0.014800,-0.024600,-0.031500,0.024600,-0.031500,0.041400,-0.014800,0.041400,0.014800,0.024600,0.031500,-0.024600,0.031500,-0.041400,0.014800,0.0*
1,1,0.033528,-0.024600,0.014800*
1,1,0.033528,-0.024600,-0.014800*
1,1,0.033528,0.024600,-0.014800*
1,1,0.033528,0.024600,0.014800*
%
%AMD221*
4,1,8,-0.035800,-0.013800,0.035800,-0.013800,0.040800,-0.008900,0.040800,0.008900,0.035800,0.013800,-0.035800,0.013800,-0.040800,0.008900,-0.040800,-0.008900,-0.035800,-0.013800,0.0*
1,1,0.009921,-0.035800,-0.008900*
1,1,0.009921,0.035800,-0.008900*
1,1,0.009921,0.035800,0.008900*
1,1,0.009921,-0.035800,0.008900*
%
%AMD241*
4,1,4,-0.019100,0.000700,0.000700,-0.019100,0.019100,-0.000700,-0.000700,0.019100,-0.019100,0.000700,0.0*
%
%ADD15R,0.031735X0.033788*%
%ADD23R,0.033788X0.031735*%
%ADD35C,0.035000*%
%ADD66C,0.070866*%
%ADD104C,0.157480*%
%ADD109R,0.039848X0.045596*%
%ADD125O,0.007874X0.039370*%
%ADD126O,0.039370X0.007874*%
G04~CAMADD=127~8~0.0~0.0~2362.2~2362.2~59.1~0.0~15~0.0~0.0~0.0~0.0~0~0.0~0.0~0.0~0.0~0~0.0~0.0~0.0~180.0~2362.0~2362.0*
%ADD127D127*%
%ADD133C,0.015000*%
%ADD136O,0.185039X0.196850*%
%ADD137C,0.149606*%
%ADD159R,0.035512X0.039449*%
%ADD163R,0.036016X0.041016*%
%ADD169R,0.041016X0.036016*%
%ADD172C,0.039016*%
%ADD173R,0.026000X0.028000*%
%ADD175R,0.028000X0.026000*%
%ADD184R,0.059055X0.047244*%
G04~CAMADD=194~8~0.0~0.0~354.3~255.9~0.0~0.0~15~0.0~0.0~0.0~0.0~0~0.0~0.0~0.0~0.0~0~0.0~0.0~0.0~90.0~256.0~354.0*
%ADD194D194*%
%ADD196R,0.017748X0.025622*%
%ADD197R,0.036677X0.028803*%
%ADD198O,0.051260X0.098504*%
%ADD199O,0.045354X0.086693*%
%ADD200C,0.063071*%
%ADD201R,0.063071X0.063071*%
%ADD202R,0.055512X0.055512*%
%ADD203C,0.055512*%
%ADD204O,0.082756X0.098504*%
%ADD205C,0.082756*%
%ADD206O,0.043370X0.070929*%
%ADD207C,0.004016*%
%ADD208C,0.220535*%
%ADD209O,0.047323X0.078819*%
%ADD210C,0.053228*%
%ADD211C,0.043386*%
%ADD212O,0.059134X0.122126*%
%ADD213O,0.059134X0.126063*%
%ADD214O,0.059134X0.086693*%
%ADD215C,0.074882*%
G04~CAMADD=216~8~0.0~0.0~630.6~827.4~167.6~0.0~15~0.0~0.0~0.0~0.0~0~0.0~0.0~0.0~0.0~0~0.0~0.0~0.0~90.0~828.0~631.0*
%ADD216D216*%
%ADD217O,0.102441X0.082756*%
%ADD218C,0.019764*%
%ADD219R,0.031575X0.029606*%
%ADD220R,0.099016X0.134015*%
G04~CAMADD=221~8~0.0~0.0~815.7~276.4~49.6~0.0~15~0.0~0.0~0.0~0.0~0~0.0~0.0~0.0~0.0~0~0.0~0.0~0.0~180.0~816.0~276.0*
%ADD221D221*%
%ADD222R,0.057181X0.037496*%
%ADD223R,0.124110X0.088677*%
%ADD224R,0.033937X0.032362*%
%ADD225R,0.145748X0.064016*%
%ADD226R,0.082016X0.026016*%
%ADD227R,0.063779X0.027559*%
%ADD228R,0.160937X0.062937*%
%ADD229R,0.039433X0.055181*%
%ADD230R,0.035496X0.019748*%
%ADD231R,0.043370X0.090614*%
%ADD232R,0.051244X0.090614*%
%ADD233R,0.066992X0.059118*%
%ADD234R,0.031559X0.059118*%
%ADD235R,0.047244X0.059055*%
%ADD236R,0.045338X0.029590*%
%ADD237R,0.028803X0.036677*%
%ADD238R,0.043701X0.055905*%
%ADD239R,0.059055X0.015748*%
%ADD240R,0.165417X0.102425*%
G04~CAMADD=241~9~0.0~0.0~280.0~260.0~0.0~0.0~0~0.0~0.0~0.0~0.0~0~0.0~0.0~0.0~0.0~0~0.0~0.0~0.0~135.0~382.0~381.0*
%ADD241D241*%
%ADD242R,0.019748X0.022898*%
%ADD243R,0.029590X0.045338*%
%ADD244R,0.059134X0.049291*%
%LNx98_carrier_v1r2_12082022_soldermask_bot-1*%
%LPD*%
G54D15*
X00409Y01592D03*
X00362D03*
G54D23*
X01219Y02686D03*
Y02733D03*
X01314Y02686D03*
Y02733D03*
X02665Y02242D03*
Y02195D03*
X02661Y02305D03*
Y02352D03*
X01503Y02733D03*
Y02686D03*
X01408Y02733D03*
Y02686D03*
X01125Y02733D03*
Y02686D03*
G54D35*
X02794Y00134D03*
X01781Y02447D03*
X01828Y02422D03*
X01439Y00685D03*
X01979Y007D03*
X00958Y00337D03*
X01858Y02632D03*
G54D66*
X00193Y01913D03*
X01454Y01286D03*
X0126Y0026D03*
G54D104*
X02361Y01133D03*
G54D109*
X00223Y00612D03*
Y00547D03*
G54D125*
X022Y01328D03*
X02216D03*
X02137Y01627D03*
X02232Y01328D03*
X02027Y01627D03*
X02058D03*
X02106Y01328D03*
X02169Y01627D03*
X02153D03*
X02184D03*
X02247D03*
X02232D03*
X022D03*
X02216D03*
X02027Y01328D03*
X02043D03*
X02074D03*
X0209D03*
X02121D03*
X02137D03*
X02169D03*
X02184D03*
X0209Y01627D03*
X02074D03*
X02011Y01328D03*
Y01627D03*
X02043D03*
X02153Y01328D03*
X02058D03*
X02247D03*
X02106Y01627D03*
X02121D03*
G54D126*
X02279Y01359D03*
Y01375D03*
X0198Y01359D03*
X02279Y01533D03*
X0198Y01485D03*
Y01375D03*
X02279Y01407D03*
X0198Y01391D03*
X02279Y01438D03*
Y01422D03*
Y0147D03*
Y01454D03*
Y01564D03*
Y01548D03*
Y01596D03*
Y0158D03*
Y01501D03*
Y01485D03*
X0198Y01422D03*
Y01438D03*
Y01517D03*
Y01533D03*
Y01548D03*
Y01564D03*
Y0158D03*
Y01596D03*
Y01454D03*
Y0147D03*
X02279Y01391D03*
X0198Y01407D03*
Y01501D03*
X02279Y01517D03*
G54D127*
X02129Y01477D03*
G54D133*
X02319Y01405D03*
G54D136*
X01038Y01133D03*
G54D137*
X01038Y02456D03*
G54D159*
X00354Y01491D03*
X00428D03*
X00391Y01412D03*
G54D163*
X01267Y02141D03*
X01216D03*
X01479Y01638D03*
X0153D03*
X01478Y01684D03*
X01529D03*
X01207Y00688D03*
X01258D03*
X00524Y02595D03*
X00575Y02595D03*
X01928Y02443D03*
X01877D03*
X01992Y02441D03*
X02043D03*
X01718Y00718D03*
X01769D03*
X0169Y01318D03*
X01741D03*
X0169Y01414D03*
X01741D03*
X0169Y01366D03*
X01741D03*
X02402Y01318D03*
X02351D03*
X00859Y00336D03*
X0091D03*
X02818Y00809D03*
X02869D03*
G54D169*
X01415Y01681D03*
Y0163D03*
X01205Y01848D03*
Y01899D03*
X01784Y00527D03*
Y00578D03*
X01832Y01411D03*
Y0136D03*
X02444Y0132D03*
Y01269D03*
X02238Y01274D03*
Y01223D03*
X02349Y0173D03*
Y01678D03*
X01651Y00654D03*
Y00603D03*
X02394Y01729D03*
Y01678D03*
X0091Y00789D03*
Y00738D03*
X02037Y02268D03*
X02037Y02319D03*
X02191Y02409D03*
Y02357D03*
G54D172*
X01157Y00924D03*
X01786Y02255D03*
X01231Y00925D03*
X01233Y00777D03*
X01154Y00778D03*
X01785Y02194D03*
G54D173*
X01988Y01679D03*
X02018D03*
X01988Y01711D03*
X02017D03*
X01804Y01489D03*
X01834D03*
X0154Y01838D03*
X0151D03*
X01214Y01732D03*
X01243D03*
X01296Y0184D03*
X01325D03*
X01211Y01693D03*
X01241D03*
X0143Y01835D03*
X01459D03*
X01019Y00922D03*
X01048D03*
X00427Y01133D03*
X00457D03*
Y01169D03*
X00427D03*
X00421Y01204D03*
X00391D03*
X00613Y00991D03*
X00583D03*
X00601Y01254D03*
X00631D03*
X00707Y01153D03*
X00678D03*
X00707Y01186D03*
X00678D03*
X00708Y01118D03*
X00679D03*
X00708Y01078D03*
X00679D03*
X00527Y01099D03*
X00498D03*
X00527Y01217D03*
X00498D03*
X00849Y02514D03*
X00819D03*
X00782Y02432D03*
X00753D03*
X02686Y00127D03*
X02656D03*
X01501Y00622D03*
X01472D03*
X0246Y01379D03*
X0249D03*
X01743Y0154D03*
X01772D03*
X01894Y01336D03*
X01924D03*
X0238Y01531D03*
X02351D03*
X01894Y01367D03*
X01924D03*
X02506Y00808D03*
X02477D03*
X01045Y00963D03*
X01016D03*
X01081Y00932D03*
X01111D03*
X01049Y00875D03*
X01079Y00875D03*
X01206Y01265D03*
X01235D03*
X0209Y01832D03*
X0206D03*
X0246Y01665D03*
X0249D03*
X02346Y01356D03*
X02376D03*
X02375Y0139D03*
X02346D03*
X01842Y00574D03*
X01871D03*
X01872Y00607D03*
X01842D03*
X01898Y00683D03*
X01927D03*
X02339Y00755D03*
X0231D03*
X0218Y00888D03*
X0221D03*
X02686Y00158D03*
X02656D03*
X02591D03*
X0262D03*
Y00127D03*
X02591D03*
X01875Y02795D03*
X01846D03*
X01795Y02702D03*
X01766D03*
X0187Y02764D03*
X01841D03*
X01795Y02671D03*
X01766D03*
X01944Y02644D03*
X01914D03*
X0202Y02694D03*
X0199D03*
X01944Y02725D03*
X01914D03*
X01944Y02613D03*
X01914D03*
X0202Y02725D03*
X0199D03*
X01944Y02694D03*
X01914D03*
X02217Y02644D03*
X02187D03*
X02128Y02724D03*
X02098D03*
X02211Y02801D03*
X02182D03*
X01796Y02798D03*
X01766D03*
X0202D03*
X0199D03*
X02217Y02739D03*
X02188D03*
X01795Y02767D03*
X01766D03*
X0202D03*
X0199D03*
X02128Y02689D03*
X02098D03*
X02216Y02581D03*
X02187D03*
X01944Y02767D03*
X01914D03*
X01913Y02802D03*
X01942D03*
X02217Y02612D03*
X02187D03*
X00779Y02555D03*
X00809D03*
X00779Y02596D03*
X00809D03*
X00764Y02514D03*
X00794D03*
X0246Y01634D03*
X0249D03*
X0246Y01602D03*
X0249D03*
X0246Y0157D03*
X0249D03*
X0246Y01538D03*
X0249D03*
X0246Y01507D03*
X0249D03*
X0246Y01475D03*
X0249D03*
X0246Y01444D03*
X0249D03*
X0246Y01411D03*
X0249D03*
X01841Y02702D03*
X0187D03*
X01841Y02671D03*
X0187D03*
G54D175*
X00245Y02663D03*
Y02634D03*
X02447Y01835D03*
Y01864D03*
X02511D03*
Y01835D03*
X02543Y01864D03*
Y01835D03*
X02479Y01864D03*
Y01835D03*
X0045Y0099D03*
Y0102D03*
X00485Y0099D03*
Y0102D03*
X00577Y02295D03*
Y02324D03*
X02425Y0034D03*
Y0037D03*
X0239D03*
Y0034D03*
X01611Y0063D03*
Y00659D03*
X01434Y00621D03*
Y0065D03*
X02176Y01917D03*
Y01887D03*
X01972Y01932D03*
Y01903D03*
X02126Y01717D03*
Y01687D03*
X02278Y01251D03*
Y0128D03*
X02229Y01805D03*
Y01775D03*
X02301Y00947D03*
Y00918D03*
X01176Y01218D03*
Y01248D03*
X01645Y00688D03*
Y00717D03*
X01307Y0065D03*
Y00621D03*
X01263Y0065D03*
Y00621D03*
X01348Y0065D03*
Y00621D03*
X0138D03*
Y0065D03*
X02462Y01234D03*
Y01205D03*
X02443Y0087D03*
Y00841D03*
X02358Y00947D03*
Y00918D03*
X02443Y00781D03*
Y0081D03*
X02081Y00786D03*
Y00815D03*
X02244Y00814D03*
Y00785D03*
X02198Y01775D03*
Y01805D03*
X02086Y00876D03*
Y00846D03*
X02596Y00347D03*
Y00317D03*
Y00379D03*
Y00408D03*
X00806Y013D03*
Y01329D03*
X00773Y013D03*
Y01329D03*
X01993Y02623D03*
Y02652D03*
X02024Y02623D03*
Y02652D03*
X0226Y02805D03*
Y02776D03*
X02265Y02745D03*
Y02715D03*
X00234Y0274D03*
Y0271D03*
X02105Y01219D03*
Y0119D03*
X01872Y00279D03*
Y0025D03*
G54D184*
X00626Y02666D03*
Y02575D03*
X00781Y00259D03*
Y00168D03*
G54D194*
X00436Y02661D03*
Y02754D03*
X00474Y02661D03*
X00399D03*
Y02754D03*
X00474D03*
X00817Y00601D03*
Y00508D03*
X00855D03*
Y00601D03*
X0078Y00508D03*
Y00601D03*
G54D196*
X00773Y02473D03*
X00829D03*
G54D197*
X02408Y00308D03*
Y00221D03*
X0239Y00417D03*
Y00504D03*
G54D198*
X00224Y00072D03*
X005D03*
G54D199*
X00275Y00154D03*
X0045D03*
G54D200*
X00561Y0037D03*
G54D201*
X00661Y0037D03*
G54D202*
X00094Y00479D03*
X00093Y00725D03*
G54D203*
X00094Y00401D03*
X00093Y00647D03*
G54D204*
X00796Y00417D03*
X01024D03*
Y00692D03*
X00796D03*
G54D205*
X02374Y00157D03*
Y00057D03*
X02637Y02764D03*
X02537D03*
X02437D03*
X02337D03*
Y02664D03*
X02437D03*
X02537D03*
X02637D03*
X00944Y02764D03*
X00844D03*
X00744D03*
Y02664D03*
X00844D03*
X00944D03*
G54D206*
X02468Y00062D03*
X02809Y00062D03*
Y00212D03*
X02468D03*
G54D207*
X01232Y00118D03*
X01547D03*
G54D208*
X02828Y02708D03*
Y00425D03*
G54D209*
X00584Y02765D03*
X00301D03*
G54D210*
X00346Y02661D03*
X00539D03*
G54D211*
X0289Y01528D03*
Y01478D03*
X0284D03*
Y01428D03*
Y01528D03*
Y01578D03*
X0289Y01428D03*
Y01578D03*
X0284Y01628D03*
X0289D03*
G54D212*
X01713Y00375D03*
G54D213*
X02283Y00375D03*
G54D214*
X02283Y00139D03*
X01713D03*
G54D215*
X0091Y00437D03*
Y00515D03*
Y00594D03*
Y00673D03*
G54D216*
X02875Y00887D03*
Y00965D03*
G54D217*
X02837Y0064D03*
Y0074D03*
G54D218*
X01487Y02645D03*
X01275Y02527D03*
X01737Y02351D03*
X01702Y02378D03*
X01594Y02366D03*
X01362Y02771D03*
X01456Y02769D03*
X01249Y02764D03*
X01171Y02768D03*
X01292Y02772D03*
X00392Y01333D03*
X0029Y01496D03*
X00143Y00304D03*
X00219Y00361D03*
Y00188D03*
X02596Y02305D03*
X00419Y01644D03*
X00275Y00651D03*
X00194Y01614D03*
X01213Y02074D03*
X00275Y01677D03*
X00194Y02196D03*
X00433Y00734D03*
X00504Y00534D03*
X00637Y0048D03*
X00333Y00539D03*
X0037Y00289D03*
X026Y02203D03*
X0022Y02256D03*
X0109Y00985D03*
X01017Y01473D03*
X01137Y01493D03*
X01116Y00975D03*
X00967Y01638D03*
X01075Y01633D03*
X01998Y00993D03*
X01983Y00974D03*
X01647Y00843D03*
X01952Y02054D03*
X01614Y00828D03*
X01927Y02049D03*
X00307Y02026D03*
X00303Y01978D03*
X00306Y01923D03*
X00308Y01875D03*
X00754Y01831D03*
X00729Y01931D03*
X0074Y01884D03*
X00725Y01973D03*
X01888Y00966D03*
X01904Y00985D03*
X0192Y00968D03*
X01936Y00993D03*
X00343Y0172D03*
X00309Y01777D03*
Y01829D03*
X01447Y01767D03*
X01562Y02053D03*
X00824Y02064D03*
X02284Y00826D03*
X01879Y02257D03*
X02287Y00782D03*
X02459Y01736D03*
X01785Y02127D03*
Y01423D03*
X02501Y01049D03*
X02026Y00565D03*
X02306Y02584D03*
X01934Y02478D03*
X02397Y01274D03*
X01474Y00588D03*
G54D219*
X00552Y00435D03*
X00589D03*
G54D220*
X00363Y0041D03*
G54D221*
X00265Y00485D03*
Y00335D03*
X0046D03*
Y00385D03*
Y00435D03*
Y00485D03*
X00265Y00385D03*
Y00435D03*
G54D222*
X02753Y02348D03*
Y02298D03*
Y02249D03*
Y022D03*
X00184Y02354D03*
Y02404D03*
Y02453D03*
Y02502D03*
X00185Y0147D03*
Y01421D03*
Y01372D03*
G54D223*
X02861Y021D03*
Y02448D03*
X00076Y02602D03*
Y02254D03*
X00076Y01272D03*
Y01571D03*
G54D224*
X00517Y01601D03*
X00556D03*
G54D225*
X00649Y00247D03*
Y00062D03*
G54D226*
X006Y01675D03*
Y01725D03*
Y01775D03*
Y01825D03*
Y01875D03*
Y01925D03*
Y01975D03*
Y02025D03*
X00414D03*
Y01975D03*
Y01925D03*
Y01875D03*
Y01825D03*
Y01775D03*
Y01725D03*
Y01675D03*
G54D227*
X01507Y02001D03*
Y02051D03*
Y01951D03*
X01286Y02051D03*
Y01951D03*
X01507Y01901D03*
X01286D03*
Y02001D03*
G54D228*
X01685Y0192D03*
Y02061D03*
G54D229*
X00673Y0124D03*
X00744D03*
X00734Y01022D03*
X00663D03*
G54D230*
X02135Y00804D03*
Y0083D03*
Y00855D03*
X02201Y00804D03*
Y0083D03*
Y00855D03*
X02385Y00851D03*
Y00826D03*
Y008D03*
X02319Y00851D03*
Y00826D03*
Y008D03*
G54D231*
X01657Y00133D03*
G54D232*
X01047Y00133D03*
G54D233*
X01082Y00511D03*
X01667Y00507D03*
G54D234*
X01263Y00535D03*
X01307D03*
X0135D03*
X01393D03*
X01436D03*
X0148D03*
X01523D03*
X01566D03*
X0161D03*
G54D235*
X02263Y00249D03*
X02354D03*
G54D236*
X02465Y00341D03*
X02555Y00379D03*
X02465Y00416D03*
X02Y00611D03*
X0191Y00648D03*
Y00573D03*
G54D237*
X01913Y00365D03*
X01825D03*
G54D238*
X02674Y00865D03*
X02802D03*
G54D239*
X02542Y0114D03*
Y0112D03*
Y01159D03*
Y01179D03*
Y01219D03*
Y01199D03*
Y01337D03*
Y01317D03*
Y01356D03*
X02542Y01671D03*
X02542Y01612D03*
Y01553D03*
Y01494D03*
Y01435D03*
Y01376D03*
Y011D03*
Y01258D03*
Y01238D03*
Y01278D03*
Y01297D03*
Y01652D03*
Y01632D03*
Y01593D03*
Y01573D03*
Y01533D03*
Y01514D03*
Y01474D03*
Y01455D03*
Y01415D03*
Y01396D03*
G54D240*
X02647Y01755D03*
Y01016D03*
G54D241*
X01835Y00192D03*
X01856Y00213D03*
G54D242*
X00967Y00524D03*
Y00472D03*
G54D243*
X01774Y0067D03*
X01736Y00579D03*
X01699Y0067D03*
G54D244*
X02032Y01949D03*
X02119Y01886D03*
X02032D03*
X02119Y01949D03*
M02*