%FSTAX23Y23*%
%MOIN*%
%SFA1B1*%

%IPPOS*%
%AMD100*
4,1,8,-0.039400,0.014800,-0.039400,-0.014800,-0.024600,-0.029500,0.024600,-0.029500,0.039400,-0.014800,0.039400,0.014800,0.024600,0.029500,-0.024600,0.029500,-0.039400,0.014800,0.0*
1,1,0.029528,-0.024600,0.014800*
1,1,0.029528,-0.024600,-0.014800*
1,1,0.029528,0.024600,-0.014800*
1,1,0.029528,0.024600,0.014800*
%
%ADD10C,0.010000*%
%ADD12C,0.004000*%
%ADD68C,0.020000*%
%ADD69C,0.008000*%
%ADD72C,0.015000*%
%ADD80C,0.030000*%
%ADD81R,0.127000X0.094000*%
%ADD82O,0.047244X0.094488*%
%ADD83O,0.041339X0.082677*%
%ADD84C,0.059055*%
%ADD85R,0.059055X0.059055*%
%ADD87C,0.051496*%
%ADD88O,0.078740X0.094488*%
%ADD89C,0.078740*%
%ADD90O,0.039370X0.066929*%
%ADD91C,0.236220*%
%ADD92C,0.216535*%
%ADD93O,0.043307X0.074803*%
%ADD94C,0.049212*%
%ADD95C,0.039370*%
%ADD96O,0.055118X0.118110*%
%ADD97O,0.055118X0.122047*%
%ADD98O,0.055118X0.082677*%
%ADD99C,0.070866*%
G04~CAMADD=100~8~0.0~0.0~590.6~787.4~147.6~0.0~15~0.0~0.0~0.0~0.0~0~0.0~0.0~0.0~0.0~0~0.0~0.0~0.0~90.0~788.0~591.0*
%ADD100D100*%
%ADD101O,0.098425X0.078740*%
%ADD102C,0.015748*%
%LNx98_carrier_v1r2_12082022_copper_signal_1-1*%
%LPD*%
G36*
X02775Y02814D02*
X02762Y02807D01*
X0275Y02797*
X02739Y02786*
X0273Y02774*
X02722Y02761*
X02716Y02746*
X02712Y02731*
X0271Y02716*
Y027*
X02712Y02685*
X02716Y0267*
X02722Y02656*
X0273Y02642*
X02739Y0263*
X0275Y02619*
X02762Y0261*
X02776Y02602*
X0279Y02596*
X02805Y02592*
X0282Y0259*
X02836*
X02851Y02592*
X02866Y02596*
X0288Y02602*
X02894Y0261*
X02906Y02619*
X02917Y0263*
X02926Y02642*
X02931Y02651*
X02936Y0265*
Y00483*
X02931Y00482*
X02926Y0049*
X02917Y00503*
X02906Y00514*
X02894Y00523*
X0288Y00531*
X02866Y00537*
X02851Y00541*
X02836Y00543*
X0282*
X02805Y00541*
X0279Y00537*
X02776Y00531*
X02762Y00523*
X0275Y00514*
X02739Y00503*
X0273Y0049*
X02722Y00477*
X02716Y00463*
X02712Y00448*
X0271Y00432*
Y00417*
X02712Y00402*
X02716Y00387*
X02722Y00372*
X0273Y00359*
X02739Y00347*
X0275Y00336*
X02762Y00326*
X02776Y00319*
X0279Y00313*
X02805Y00309*
X0282Y00307*
X02836*
X02851Y00309*
X02866Y00313*
X0288Y00319*
X02894Y00326*
X02906Y00336*
X02917Y00347*
X02926Y00359*
X02931Y00368*
X02936Y00366*
Y00015*
X02838*
X02836Y0002*
X02837Y0002*
X02843Y00029*
X02847Y00038*
X02849Y00049*
Y00076*
X02847Y00087*
X02843Y00096*
X02837Y00105*
X02829Y00111*
X02819Y00115*
X02809Y00116*
X02798Y00115*
X02789Y00111*
X0278Y00105*
X02774Y00096*
X0277Y00087*
X02769Y00076*
Y00049*
X0277Y00038*
X02774Y00029*
X0278Y0002*
X02781Y0002*
X02779Y00015*
X02498*
X02497Y00018*
X02497Y0002*
X02503Y00029*
X02507Y00038*
X02508Y00049*
Y00076*
X02507Y00086*
X02503Y00096*
X02497Y00104*
X02488Y00111*
X02479Y00115*
X02468Y00116*
X02458Y00115*
X02448Y00111*
X0244Y00104*
X02434Y00096*
X0243Y00086*
X02428Y00076*
Y00049*
X0243Y00038*
X02434Y00029*
X0244Y0002*
X0244Y00018*
X02439Y00015*
X02398*
X02397Y0002*
X02405Y00026*
X02412Y00035*
X02416Y00046*
X02418Y00057*
X02416Y00069*
X02412Y00079*
X02405Y00088*
X02396Y00095*
X02385Y001*
X02374Y00101*
X02363Y001*
X02352Y00095*
X02343Y00088*
X02336Y00079*
X02332Y00069*
X0233Y00057*
X02332Y00046*
X02336Y00035*
X02343Y00026*
X02351Y0002*
X02349Y00015*
X00536*
X00534Y0002*
X00538Y00026*
X00543Y00036*
X00544Y00048*
Y00095*
X00543Y00107*
X00538Y00117*
X00531Y00126*
X00522Y00133*
X00511Y00138*
X005Y00139*
X00495Y00138*
X00491Y00142*
Y00175*
X00489Y00185*
X00485Y00195*
X00479Y00204*
X0047Y0021*
X0046Y00214*
X0045Y00216*
X00439Y00214*
X00429Y0021*
X00421Y00204*
X00414Y00195*
X0041Y00185*
X00409Y00175*
Y00134*
X0041Y00123*
X00414Y00113*
X00421Y00105*
X00429Y00098*
X00439Y00094*
X0045Y00092*
X00452Y00093*
X00456Y0009*
Y00048*
X00458Y00036*
X00462Y00026*
X00466Y0002*
X00464Y00015*
X00261*
X00258Y0002*
X00263Y00026*
X00267Y00036*
X00268Y00048*
Y0009*
X00272Y00093*
X00275Y00092*
X00285Y00094*
X00295Y00098*
X00304Y00105*
X0031Y00113*
X00314Y00123*
X00316Y00134*
Y00175*
X00314Y00185*
X0031Y00195*
X00304Y00204*
X00295Y0021*
X00285Y00214*
X00275Y00216*
X00264Y00214*
X00254Y0021*
X00246Y00204*
X00239Y00195*
X00236Y00188*
X00234Y00188*
X00231Y00189*
X0023Y00193*
X00228Y00197*
X00224Y00199*
X00219Y002*
X00214Y00199*
X00211Y00197*
X00208Y00193*
X00207Y00188*
X00208Y00183*
X00211Y00179*
X00214Y00177*
X00219Y00176*
X00224Y00177*
X00228Y00179*
X0023Y00182*
X00234Y0018*
X00234Y00175*
Y00142*
X0023Y00138*
X00224Y00139*
X00213Y00138*
X00202Y00133*
X00193Y00126*
X00186Y00117*
X00182Y00107*
X0018Y00095*
Y00048*
X00182Y00036*
X00186Y00026*
X00191Y0002*
X00188Y00015*
X00015*
Y02819*
X02158*
X02161Y02815*
X02161Y02814*
X02161Y02814*
X02159Y02813*
X02155Y02811*
X02152Y02807*
X02151Y02802*
X02152Y02798*
X02155Y02794*
X02159Y02791*
X02163Y0279*
X02168Y02791*
X02172Y02794*
X02174Y02798*
X02175Y02802*
X02174Y02807*
X02172Y02811*
X02168Y02813*
X02166Y02814*
X02166Y02814*
X02166Y02815*
X02169Y02819*
X02775*
X02775Y02814*
G37*
%LNx98_carrier_v1r2_12082022_copper_signal_1-2*%
%LPC*%
G36*
X02337Y02808D02*
X02325Y02807D01*
X02315Y02802*
X02306Y02795*
X02301Y0279*
X02296Y02791*
X02296Y02792*
X02293Y02796*
X02289Y02798*
X02285Y02799*
X0228Y02798*
X02276Y02796*
X02274Y02792*
X02273Y02787*
X02274Y02783*
X02276Y02779*
X0228Y02776*
X02285Y02775*
X02289Y02776*
X02294Y02773*
X02293Y02764*
X02294Y02753*
X02299Y02743*
X02306Y02734*
X02315Y02727*
X02325Y02722*
X02337Y02721*
X02348Y02722*
X02358Y02727*
X02367Y02734*
X02374Y02743*
X02379Y02753*
X0238Y02764*
X02379Y02776*
X02374Y02786*
X02367Y02795*
X02358Y02802*
X02348Y02807*
X02337Y02808*
G37*
G36*
X02086Y02813D02*
X02081Y02812D01*
X02077Y0281*
X02074Y02806*
X02073Y02801*
X02074Y02797*
X02077Y02793*
X02081Y0279*
X02086Y02789*
X0209Y0279*
X02094Y02793*
X02097Y02797*
X02098Y02801*
X02097Y02806*
X02094Y0281*
X0209Y02812*
X02086Y02813*
G37*
G36*
X00657Y02809D02*
X00653Y02808D01*
X00649Y02805*
X00646Y02801*
X00645Y02797*
X00646Y02792*
X00649Y02788*
X00653Y02785*
X00657Y02784*
X00662Y02785*
X00666Y02788*
X00668Y02792*
X00669Y02797*
X00668Y02801*
X00666Y02805*
X00662Y02808*
X00657Y02809*
G37*
G36*
X00201Y02807D02*
X00196Y02806D01*
X00192Y02804*
X0019Y028*
X00189Y02795*
X0019Y02791*
X00192Y02787*
X00196Y02784*
X00201Y02783*
X00206Y02784*
X0021Y02787*
X00212Y02791*
X00213Y02795*
X00212Y028*
X0021Y02804*
X00206Y02806*
X00201Y02807*
G37*
G36*
X00244Y02806D02*
X00239Y02806D01*
X00235Y02803*
X00233Y02799*
X00232Y02794*
X00233Y0279*
X00235Y02786*
X00239Y02783*
X00244Y02782*
X00249Y02783*
X00253Y02786*
X00255Y0279*
X00256Y02794*
X00255Y02799*
X00253Y02803*
X00249Y02806*
X00244Y02806*
G37*
G36*
X01747Y02787D02*
X01742Y02786D01*
X01738Y02783*
X01736Y02779*
X01735Y02774*
X01736Y0277*
X01738Y02766*
X01742Y02763*
X01747Y02762*
X01752Y02763*
X01755Y02766*
X01758Y0277*
X01759Y02774*
X01758Y02779*
X01755Y02783*
X01752Y02786*
X01747Y02787*
G37*
G36*
X0182Y02808D02*
X01815Y02807D01*
X01811Y02805*
X01808Y02801*
X01808Y02798*
X01779Y02769*
X01777Y02764*
Y02659*
X01779Y02654*
X01806Y02627*
X01811Y02625*
X01825*
X01901Y02549*
Y02518*
X01899Y02517*
X01896Y02513*
X01895Y02508*
X01896Y02504*
X01899Y025*
X01903Y02497*
X01907Y02496*
X01912Y02497*
X01916Y025*
X01918Y02504*
X01919Y02508*
X01918Y02513*
X01916Y02517*
X01914Y02518*
Y02548*
X01915Y0255*
X01913Y02555*
X01839Y02628*
X01841Y02634*
X01843Y02634*
X01846Y02637*
X01849Y02641*
X0185Y02645*
X01849Y0265*
X01846Y02654*
X01843Y02657*
X01838Y02657*
X01833Y02657*
X01829Y02654*
X01827Y0265*
X01826Y02645*
X01826Y02643*
X01823Y02639*
X01822Y02638*
X01813*
X0179Y02661*
Y02762*
X01803Y02774*
X01804Y02774*
X01808Y02772*
X01808Y02769*
X01811Y02765*
X01815Y02762*
X0182Y02761*
X01824Y02762*
X01828Y02765*
X01831Y02769*
X01832Y02773*
X01831Y02778*
X01828Y02782*
X01828Y02788*
X01831Y02792*
X01832Y02796*
X01831Y02801*
X01828Y02805*
X01824Y02807*
X0182Y02808*
G37*
G36*
X01292Y02784D02*
X01287Y02783D01*
X01283Y0278*
X0128Y02776*
X01279Y02772*
X0128Y02767*
X01283Y02763*
X01287Y0276*
X01292Y02759*
X01296Y0276*
X013Y02763*
X01303Y02767*
X01304Y02772*
X01303Y02776*
X013Y0278*
X01296Y02783*
X01292Y02784*
G37*
G36*
X01362Y02783D02*
X01357Y02782D01*
X01353Y02779*
X0135Y02775*
X01349Y02771*
X0135Y02766*
X01353Y02762*
X01357Y02759*
X01362Y02758*
X01366Y02759*
X0137Y02762*
X01373Y02766*
X01374Y02771*
X01373Y02775*
X0137Y02779*
X01366Y02782*
X01362Y02783*
G37*
G36*
X01456Y02781D02*
X01451Y0278D01*
X01447Y02777*
X01444Y02773*
X01443Y02769*
X01444Y02764*
X01447Y0276*
X01451Y02757*
X01456Y02756*
X0146Y02757*
X01464Y0276*
X01467Y02764*
X01468Y02769*
X01467Y02773*
X01464Y02777*
X0146Y0278*
X01456Y02781*
G37*
G36*
X01171Y0278D02*
X01166Y02779D01*
X01162Y02776*
X01159Y02772*
X01158Y02768*
X01159Y02763*
X01162Y02759*
X01166Y02756*
X01171Y02755*
X01175Y02756*
X01179Y02759*
X01182Y02763*
X01183Y02768*
X01182Y02772*
X01179Y02776*
X01175Y02779*
X01171Y0278*
G37*
G36*
X01969Y02778D02*
X01964Y02777D01*
X0196Y02774*
X01958Y02771*
X01957Y02766*
X01958Y02761*
X0196Y02757*
X01964Y02755*
X01969Y02754*
X01973Y02755*
X01977Y02757*
X0198Y02761*
X01981Y02766*
X0198Y02771*
X01977Y02774*
X01973Y02777*
X01969Y02778*
G37*
G36*
X01894Y02777D02*
X0189Y02776D01*
X01886Y02773*
X01883Y0277*
X01882Y02765*
X01883Y0276*
X01886Y02756*
X0189Y02754*
X01894Y02753*
X01899Y02754*
X01903Y02756*
X01906Y0276*
X01907Y02765*
X01906Y0277*
X01903Y02773*
X01899Y02776*
X01894Y02777*
G37*
G36*
X01249Y02776D02*
X01244Y02775D01*
X0124Y02772*
X01237Y02768*
X01236Y02764*
X01237Y02759*
X0124Y02755*
X01244Y02752*
X01249Y02751*
X01253Y02752*
X01257Y02755*
X0126Y02759*
X01261Y02764*
X0126Y02768*
X01257Y02772*
X01253Y02775*
X01249Y02776*
G37*
G36*
X00584Y02807D02*
X00577Y02806D01*
X00571Y02803*
X00566Y02799*
X00562Y02794*
X00559Y02788*
X00558Y02781*
Y0275*
X00559Y02743*
X00562Y02737*
X00566Y02731*
X00571Y02727*
X00577Y02725*
X00584Y02724*
X00591Y02725*
X00597Y02727*
X00602Y02731*
X00607Y02737*
X00609Y02743*
X0061Y0275*
Y02781*
X00609Y02788*
X00607Y02794*
X00602Y02799*
X00597Y02803*
X00591Y02806*
X00584Y02807*
G37*
G36*
X00301D02*
X00294Y02806D01*
X00288Y02803*
X00282Y02799*
X00278Y02794*
X00276Y02788*
X00275Y02781*
Y0275*
X00276Y02743*
X00278Y02737*
X00282Y02731*
X00288Y02727*
X00294Y02725*
X00301Y02724*
X00307Y02725*
X00314Y02727*
X00319Y02731*
X00323Y02737*
X00326Y02743*
X00327Y0275*
Y02781*
X00326Y02788*
X00323Y02794*
X00319Y02799*
X00314Y02803*
X00307Y02806*
X00301Y02807*
G37*
G36*
X02043Y02745D02*
X02039Y02744D01*
X02035Y02742*
X02032Y02738*
X02031Y02733*
X02032Y02728*
X02035Y02724*
X02039Y02722*
X02043Y02721*
X02048Y02722*
X02052Y02724*
X02055Y02728*
X02055Y02733*
X02055Y02738*
X02052Y02742*
X02048Y02744*
X02043Y02745*
G37*
G36*
X00944Y02808D02*
X00933Y02807D01*
X00923Y02802*
X00913Y02795*
X00907Y02786*
X00902Y02776*
X00901Y02764*
X00902Y02753*
X00907Y02743*
X00913Y02734*
X00923Y02727*
X00933Y02722*
X00944Y02721*
X00956Y02722*
X00966Y02727*
X00975Y02734*
X00982Y02743*
X00987Y02753*
X00988Y02764*
X00987Y02776*
X00982Y02786*
X00975Y02795*
X00966Y02802*
X00956Y02807*
X00944Y02808*
G37*
G36*
X00844D02*
X00833Y02807D01*
X00823Y02802*
X00813Y02795*
X00807Y02786*
X00802Y02776*
X00801Y02764*
X00802Y02753*
X00807Y02743*
X00813Y02734*
X00823Y02727*
X00833Y02722*
X00844Y02721*
X00856Y02722*
X00866Y02727*
X00875Y02734*
X00882Y02743*
X00887Y02753*
X00888Y02764*
X00887Y02776*
X00882Y02786*
X00875Y02795*
X00866Y02802*
X00856Y02807*
X00844Y02808*
G37*
G36*
X00744D02*
X00733Y02807D01*
X00723Y02802*
X00713Y02795*
X00707Y02786*
X00702Y02776*
X00701Y02764*
X00702Y02753*
X00707Y02743*
X00713Y02734*
X00723Y02727*
X00733Y02722*
X00744Y02721*
X00756Y02722*
X00766Y02727*
X00775Y02734*
X00782Y02743*
X00787Y02753*
X00788Y02764*
X00787Y02776*
X00782Y02786*
X00775Y02795*
X00766Y02802*
X00756Y02807*
X00744Y02808*
G37*
G36*
X02637Y02808D02*
X02625Y02807D01*
X02615Y02802*
X02606Y02795*
X02599Y02786*
X02594Y02776*
X02593Y02764*
X02594Y02753*
X02599Y02743*
X02606Y02734*
X02615Y02727*
X02625Y02722*
X02637Y02721*
X02648Y02722*
X02658Y02727*
X02667Y02734*
X02674Y02743*
X02679Y02753*
X0268Y02764*
X02679Y02776*
X02674Y02786*
X02667Y02795*
X02658Y02802*
X02648Y02807*
X02637Y02808*
G37*
G36*
X02537D02*
X02525Y02807D01*
X02515Y02802*
X02506Y02795*
X02499Y02786*
X02494Y02776*
X02493Y02764*
X02494Y02753*
X02499Y02743*
X02506Y02734*
X02515Y02727*
X02525Y02722*
X02537Y02721*
X02548Y02722*
X02558Y02727*
X02567Y02734*
X02574Y02743*
X02579Y02753*
X0258Y02764*
X02579Y02776*
X02574Y02786*
X02567Y02795*
X02558Y02802*
X02548Y02807*
X02537Y02808*
G37*
G36*
X02437D02*
X02425Y02807D01*
X02415Y02802*
X02406Y02795*
X02399Y02786*
X02394Y02776*
X02393Y02764*
X02394Y02753*
X02399Y02743*
X02406Y02734*
X02415Y02727*
X02425Y02722*
X02437Y02721*
X02448Y02722*
X02458Y02727*
X02467Y02734*
X02474Y02743*
X02479Y02753*
X0248Y02764*
X02479Y02776*
X02474Y02786*
X02467Y02795*
X02458Y02802*
X02448Y02807*
X02437Y02808*
G37*
G36*
X0197Y02741D02*
X01965Y0274D01*
X01961Y02737*
X01959Y02733*
X01958Y02729*
X01959Y02724*
X01961Y0272*
X01965Y02718*
X0197Y02717*
X01975Y02718*
X01979Y0272*
X01981Y02724*
X01982Y02729*
X01981Y02733*
X01979Y02737*
X01975Y0274*
X0197Y02741*
G37*
G36*
X00614Y02727D02*
X00609Y02727D01*
X00605Y02724*
X00603Y0272*
X00602Y02715*
X00603Y02711*
X00605Y02707*
X00609Y02704*
X00614Y02703*
X00618Y02704*
X00622Y02707*
X00625Y02711*
X00626Y02715*
X00625Y0272*
X00622Y02724*
X00618Y02727*
X00614Y02727*
G37*
G36*
X02162Y02771D02*
X02157Y02771D01*
X02153Y02768*
X02151Y02764*
X0215Y02759*
X02151Y02755*
X02153Y02752*
X02153Y02751*
X02152Y02746*
X0215Y02742*
X02149Y02738*
X0215Y02733*
X02152Y02729*
X02154Y02728*
X02154Y02722*
X02154Y02722*
X02151Y02719*
X0215Y02714*
X02151Y02709*
X02154Y02705*
X02158Y02703*
X02163Y02702*
X02167Y02703*
X02171Y02705*
X02174Y02709*
X02175Y02714*
X02174Y02719*
X02171Y02722*
X0217Y02723*
X02169Y02729*
X0217Y02729*
X02172Y02733*
X02173Y02738*
X02172Y02742*
X0217Y02745*
X02169Y02746*
X02171Y02751*
X02173Y02755*
X02174Y02759*
X02173Y02764*
X02171Y02768*
X02167Y02771*
X02162Y02771*
G37*
G36*
X00883Y02725D02*
X00879Y02724D01*
X00875Y02721*
X00872Y02717*
X00871Y02713*
X00872Y02708*
X00875Y02704*
X00879Y02701*
X00883Y02701*
X00888Y02701*
X00892Y02704*
X00895Y02708*
X00895Y02713*
X00895Y02717*
X00892Y02721*
X00888Y02724*
X00883Y02725*
G37*
G36*
X01894Y02711D02*
X01889Y0271D01*
X01885Y02707*
X01882Y02703*
X01882Y02699*
X01882Y02694*
X01885Y0269*
X01889Y02687*
X01894Y02687*
X01898Y02687*
X01902Y0269*
X01905Y02694*
X01906Y02699*
X01905Y02703*
X01902Y02707*
X01898Y0271*
X01894Y02711*
G37*
G36*
X01745Y02709D02*
X0174Y02708D01*
X01736Y02705*
X01734Y02702*
X01733Y02697*
X01734Y02692*
X01736Y02688*
X0174Y02686*
X01745Y02685*
X01749Y02686*
X01753Y02688*
X01756Y02692*
X01757Y02697*
X01756Y02702*
X01753Y02705*
X01749Y02708*
X01745Y02709*
G37*
G36*
X0182Y02707D02*
X01816Y02707D01*
X01812Y02704*
X01809Y027*
X01808Y02695*
X01809Y02691*
X01812Y02687*
X01816Y02684*
X0182Y02683*
X01825Y02684*
X01829Y02687*
X01832Y02691*
X01833Y02695*
X01832Y027*
X01829Y02704*
X01825Y02707*
X0182Y02707*
G37*
G36*
X02241Y02722D02*
X02236Y02721D01*
X02232Y02719*
X02229Y02715*
X02228Y0271*
X02229Y02706*
X02232Y02702*
X02234Y027*
Y02678*
X02236Y02673*
X02247Y02662*
Y02625*
X02245Y02625*
X02241Y02622*
X02238Y02618*
X02237Y02614*
X02238Y02609*
X02241Y02605*
X02245Y02603*
X02249Y02602*
X02254Y02603*
X02258Y02605*
X0226Y02609*
X02261Y02614*
X0226Y02618*
X02259Y0262*
X0226Y02621*
Y02665*
X02258Y02669*
X02254Y02673*
X02257Y02677*
X02261Y02677*
X02265Y02678*
X02269Y0268*
X02272Y02684*
X02273Y02689*
X02272Y02694*
X02269Y02697*
X02265Y027*
X02261Y02701*
X02256Y027*
X0225Y02702*
X0225Y02703*
X02252Y02706*
X02253Y0271*
X02252Y02715*
X02249Y02719*
X02245Y02721*
X02241Y02722*
G37*
G36*
X002Y02699D02*
X00196Y02698D01*
X00192Y02695*
X00189Y02691*
X00188Y02687*
X00189Y02682*
X00192Y02678*
X00196Y02675*
X002Y02674*
X00205Y02675*
X00209Y02678*
X0021Y0268*
X00212Y0268*
X00216Y0268*
X00218Y02677*
X00222Y02674*
X00226Y02673*
X00231Y02674*
X00235Y02677*
X00237Y02681*
X00238Y02686*
X00237Y0269*
X00235Y02694*
X00231Y02697*
X00226Y02698*
X00222Y02697*
X00218Y02694*
X00216Y02692*
X00215Y02692*
X00211Y02692*
X00209Y02695*
X00205Y02698*
X002Y02699*
G37*
G36*
X02061Y02708D02*
X02056Y02707D01*
X02052Y02705*
X02049Y02701*
X02048Y02696*
X02049Y02691*
X02052Y02687*
X02056Y02685*
X02061Y02684*
X02061Y02684*
X02065Y02684*
X02066Y0268*
X02067Y0268*
X02069Y02676*
X02073Y02673*
X02078Y02672*
X02082Y02673*
X02086Y02676*
X02089Y0268*
X0209Y02684*
X02089Y02689*
X02086Y02693*
X02082Y02696*
X02078Y02696*
X02077Y02696*
X02073Y02696*
X02072Y027*
X02072Y02701*
X02069Y02705*
X02065Y02707*
X02061Y02708*
G37*
G36*
X00674Y02667D02*
X00669Y02667D01*
X00665Y02664*
X00663Y0266*
X00662Y02655*
X00663Y02651*
X00665Y02647*
X00669Y02644*
X00674Y02643*
X00678Y02644*
X00682Y02647*
X00685Y02651*
X00686Y02655*
X00685Y0266*
X00682Y02664*
X00678Y02667*
X00674Y02667*
G37*
G36*
X01487Y02657D02*
X01482Y02656D01*
X01478Y02653*
X01475Y02649*
X01474Y02645*
X01475Y0264*
X01478Y02636*
X01482Y02633*
X01487Y02632*
X01491Y02633*
X01495Y02636*
X01498Y0264*
X01499Y02645*
X01498Y02649*
X01495Y02653*
X01491Y02656*
X01487Y02657*
G37*
G36*
X00539Y0269D02*
X00531Y02689D01*
X00524Y02686*
X00518Y02681*
X00514Y02675*
X00511Y02668*
X0051Y02661*
X00511Y02653*
X00514Y02646*
X00518Y02641*
X00524Y02636*
X00531Y02633*
X00539Y02632*
X00546Y02633*
X00553Y02636*
X00559Y02641*
X00564Y02646*
X00567Y02653*
X00568Y02661*
X00567Y02668*
X00564Y02675*
X00559Y02681*
X00553Y02686*
X00546Y02689*
X00539Y0269*
G37*
G36*
X00346D02*
X00338Y02689D01*
X00332Y02686*
X00326Y02681*
X00321Y02675*
X00318Y02668*
X00317Y02661*
X00318Y02653*
X00321Y02646*
X00326Y02641*
X00332Y02636*
X00338Y02633*
X00346Y02632*
X00353Y02633*
X0036Y02636*
X00366Y02641*
X00371Y02646*
X00374Y02653*
X00375Y02661*
X00374Y02668*
X00371Y02675*
X00366Y02681*
X0036Y02686*
X00353Y02689*
X00346Y0269*
G37*
G36*
X00217Y0265D02*
X00213Y02649D01*
X00209Y02646*
X00206Y02642*
X00205Y02638*
X00206Y02633*
X00209Y02629*
X00213Y02626*
X00217Y02625*
X00222Y02626*
X00226Y02629*
X00228Y02633*
X00229Y02638*
X00228Y02642*
X00226Y02646*
X00222Y02649*
X00217Y0265*
G37*
G36*
X01896Y02647D02*
X01892Y02646D01*
X01888Y02643*
X01885Y02639*
X01884Y02635*
X01885Y0263*
X01888Y02626*
X01892Y02623*
X01896Y02623*
X01901Y02623*
X01905Y02626*
X01907Y0263*
X01908Y02635*
X01907Y02639*
X01905Y02643*
X01901Y02646*
X01896Y02647*
G37*
G36*
X01973Y02668D02*
X01969Y02667D01*
X01965Y02665*
X01962Y02661*
X01961Y02656*
X01962Y02651*
X01963Y02649*
X01964Y02646*
X01962Y02643*
X0196Y02642*
X01957Y02638*
X01956Y02633*
X01957Y02629*
X0196Y02625*
X01964Y02622*
X01969Y02621*
X01973Y02622*
X01977Y02625*
X0198Y02629*
X01981Y02633*
X0198Y02638*
X01978Y0264*
X01978Y02643*
X0198Y02646*
X01982Y02647*
X01985Y02651*
X01985Y02656*
X01985Y02661*
X01982Y02665*
X01978Y02667*
X01973Y02668*
G37*
G36*
X02637Y02708D02*
X02625Y02707D01*
X02615Y02702*
X02606Y02695*
X02599Y02686*
X02594Y02676*
X02593Y02664*
X02594Y02653*
X02599Y02643*
X02606Y02634*
X02615Y02627*
X02625Y02622*
X02637Y02621*
X02648Y02622*
X02658Y02627*
X02667Y02634*
X02674Y02643*
X02679Y02653*
X0268Y02664*
X02679Y02676*
X02674Y02686*
X02667Y02695*
X02658Y02702*
X02648Y02707*
X02637Y02708*
G37*
G36*
X02537D02*
X02525Y02707D01*
X02515Y02702*
X02506Y02695*
X02499Y02686*
X02494Y02676*
X02493Y02664*
X02494Y02653*
X02499Y02643*
X02505Y02634*
X02505Y02632*
X02503Y02629*
X02498Y02628*
X02494Y02626*
X02492Y02622*
X02491Y02617*
X02492Y02613*
X02494Y02609*
X02498Y02606*
X02503Y02605*
X02508Y02606*
X02512Y02609*
X02514Y02613*
X02515Y02617*
X02514Y02621*
X02516Y02623*
X02518Y02625*
X02525Y02622*
X02537Y02621*
X02548Y02622*
X02558Y02627*
X02567Y02634*
X02574Y02643*
X02579Y02653*
X0258Y02664*
X02579Y02676*
X02574Y02686*
X02567Y02695*
X02558Y02702*
X02548Y02707*
X02537Y02708*
G37*
G36*
X02388Y02711D02*
X02383Y0271D01*
X02379Y02707*
X02376Y02704*
X02375Y02699*
X02376Y02694*
X02379Y0269*
X02383Y02688*
X02388Y02687*
X02392Y02688*
X02393Y02688*
X02394Y02688*
X02397Y02682*
X02394Y02676*
X02393Y02664*
X02394Y02653*
X02399Y02643*
X02406Y02634*
X02415Y02627*
X02425Y02622*
X02437Y02621*
X02448Y02622*
X02458Y02627*
X02467Y02634*
X02474Y02643*
X02479Y02653*
X0248Y02664*
X02479Y02676*
X02474Y02686*
X02467Y02695*
X02458Y02702*
X02448Y02707*
X02437Y02708*
X02425Y02707*
X02415Y02702*
X02406Y02695*
X02403Y02692*
X02399Y02694*
X024Y02699*
X02399Y02704*
X02396Y02707*
X02392Y0271*
X02388Y02711*
G37*
G36*
X02337Y02708D02*
X02325Y02707D01*
X02315Y02702*
X02306Y02695*
X02299Y02686*
X02294Y02676*
X02293Y02664*
X02294Y02653*
X02299Y02643*
X02306Y02634*
X02315Y02627*
X02325Y02622*
X02337Y02621*
X02348Y02622*
X02358Y02627*
X02367Y02634*
X02374Y02643*
X02379Y02653*
X0238Y02664*
X02379Y02676*
X02374Y02686*
X02367Y02695*
X02358Y02702*
X02348Y02707*
X02337Y02708*
G37*
G36*
X02086Y02638D02*
X02081Y02637D01*
X02077Y02634*
X02075Y0263*
X02074Y02625*
X02075Y02621*
X02077Y02617*
X02081Y02614*
X02086Y02613*
X0209Y02614*
X02094Y02617*
X02097Y02621*
X02098Y02625*
X02097Y0263*
X02094Y02634*
X0209Y02637*
X02086Y02638*
G37*
G36*
X00944Y02708D02*
X00933Y02707D01*
X00923Y02702*
X00913Y02695*
X00907Y02686*
X00902Y02676*
X00901Y02664*
X00902Y02653*
X00907Y02643*
X00913Y02634*
X00914Y02633*
X00912Y02628*
X00912Y02628*
X00908Y02625*
X00905Y02621*
X00904Y02617*
X00905Y02613*
X00904Y02611*
X00901Y02609*
X00899Y02611*
X00894Y02612*
X0089Y02611*
X00886Y02608*
X00883Y02605*
X00883Y02604*
X00878Y02603*
X00862Y02619*
X00862Y02625*
X00866Y02627*
X00875Y02634*
X00882Y02643*
X00887Y02653*
X00888Y02664*
X00887Y02676*
X00882Y02686*
X00875Y02695*
X00866Y02702*
X00856Y02707*
X00844Y02708*
X00833Y02707*
X00823Y02702*
X00813Y02695*
X00807Y02686*
X00802Y02676*
X00801Y02664*
X00802Y02653*
X00807Y02643*
X00813Y02634*
X00819Y02629*
X00818Y02624*
X00771*
X00769Y02629*
X00775Y02634*
X00782Y02643*
X00787Y02653*
X00788Y02664*
X00787Y02676*
X00782Y02686*
X00775Y02695*
X00766Y02702*
X00756Y02707*
X00744Y02708*
X00733Y02707*
X00723Y02702*
X00713Y02695*
X00707Y02686*
X00702Y02676*
X00701Y02664*
X00702Y02653*
X00707Y02643*
X00713Y02634*
X00723Y02627*
X00732Y02623*
X00734Y02619*
X00734Y02617*
X00733Y02615*
X00732Y0261*
X00733Y02604*
X00736Y026*
X00741Y02597*
X00746Y02595*
X00845*
X00857Y02584*
X00856Y02578*
X00854Y02576*
X00851Y02572*
X0085Y02568*
X00847Y02567*
X00847Y02567*
X00842Y02566*
X00838Y02564*
X00836Y0256*
X00835Y02555*
X00836Y02551*
X00838Y02547*
X00842Y02544*
X00847Y02543*
X00851Y02544*
X00855Y02547*
X00858Y02551*
X00859Y02555*
X00862Y02556*
X00862Y02556*
X00867Y02557*
X00871Y02559*
X00872Y02561*
X00878Y02563*
X00903Y02538*
X00898Y02531*
X00887Y02508*
X00886Y02507*
X00885Y02502*
X0088Y02491*
X00871Y02476*
X0086Y02463*
X00846Y02452*
X00833Y02444*
X00829Y02441*
X00826Y0244*
X00825Y02439*
X00819Y02435*
X00814Y02427*
X0081Y02419*
X00809Y0241*
X00809Y0241*
X00809Y0241*
Y02057*
X0081Y02051*
X00813Y02047*
X00818Y02044*
X00823Y02043*
X00829Y02044*
X00833Y02047*
X00836Y02051*
X00838Y02057*
Y0206*
X00839Y02062*
X01211*
X01213Y02061*
X01218Y02062*
X01222Y02065*
X01224Y02069*
X01225Y02074*
X01224Y02078*
X01222Y02082*
X01218Y02085*
X01213Y02086*
X01211Y02085*
X00838*
Y0241*
X00837Y02411*
X00838Y02412*
X00841Y02415*
X00845Y02417*
X00845Y02418*
X00863Y02429*
X0088Y02443*
X00894Y02459*
X00905Y02478*
X00909Y02487*
X0091Y02488*
X0091Y02488*
X00909Y02487*
X00909Y02487*
Y02487*
X00909Y02487*
X0091Y02488*
X0091Y02488*
X00911Y02492*
X00913Y02497*
X00923Y02517*
X00933Y02532*
X00933Y02532*
X00935Y02535*
X00936Y0254*
X00935Y02546*
X00932Y0255*
X00929Y02552*
X00898Y02583*
X00899Y02589*
X00899Y02589*
X00903Y02591*
X00905Y02595*
X00906Y026*
X00905Y02604*
X00907Y02605*
X0091Y02607*
X00912Y02606*
X00917Y02605*
X00921Y02606*
X00925Y02608*
X00928Y02612*
X00929Y02617*
X00928Y02619*
X00933Y02622*
X00933Y02622*
X00944Y02621*
X00956Y02622*
X00966Y02627*
X00975Y02634*
X00982Y02643*
X00987Y02653*
X00988Y02664*
X00987Y02676*
X00982Y02686*
X00975Y02695*
X00966Y02702*
X00956Y02707*
X00944Y02708*
G37*
G36*
X00469Y02623D02*
X00465Y02622D01*
X00461Y02619*
X00458Y02615*
X00457Y02611*
X00458Y02606*
X00461Y02602*
X00465Y026*
X00469Y02599*
X00474Y026*
X00478Y02602*
X00481Y02606*
X00481Y02611*
X00481Y02615*
X00478Y02619*
X00474Y02622*
X00469Y02623*
G37*
G36*
X00439D02*
X00435Y02622D01*
X00431Y02619*
X00428Y02615*
X00427Y02611*
X00428Y02606*
X00431Y02602*
X00435Y026*
X00439Y02599*
X00444Y026*
X00448Y02602*
X00451Y02606*
X00451Y02611*
X00451Y02615*
X00448Y02619*
X00444Y02622*
X00439Y02623*
G37*
G36*
X02709Y02621D02*
X02704Y0262D01*
X027Y02618*
X02698Y02614*
X02697Y02609*
X02698Y02605*
X027Y02601*
X02704Y02598*
X02709Y02597*
X02714Y02598*
X02718Y02601*
X0272Y02605*
X02721Y02609*
X0272Y02614*
X02718Y02618*
X02714Y0262*
X02709Y02621*
G37*
G36*
X00715Y02621D02*
X0071Y0262D01*
X00706Y02617*
X00703Y02613*
X00702Y02609*
X00703Y02604*
X00706Y026*
X0071Y02598*
X00715Y02597*
X00719Y02598*
X00723Y026*
X00726Y02604*
X00727Y02609*
X00726Y02613*
X00723Y02617*
X00719Y0262*
X00715Y02621*
G37*
G36*
X00678Y0262D02*
X00673Y02619D01*
X00669Y02617*
X00666Y02613*
X00665Y02608*
X00666Y02604*
X00669Y026*
X00673Y02597*
X00678Y02596*
X00682Y02597*
X00686Y026*
X00689Y02604*
X0069Y02608*
X00689Y02613*
X00686Y02617*
X00682Y02619*
X00678Y0262*
G37*
G36*
X0216Y02666D02*
X02155Y02665D01*
X02151Y02663*
X02148Y02659*
X02147Y02654*
X02148Y0265*
X02151Y02646*
X02153Y02644*
X02153Y02642*
X02152Y02639*
X02149Y02637*
X02146Y02633*
X02145Y02628*
X02146Y02624*
X02149Y0262*
X0215Y02619*
X02152Y02615*
X02151Y02613*
X02149Y02611*
X02148Y02606*
X02149Y02602*
X02152Y02598*
X02156Y02595*
X02161Y02594*
X02165Y02595*
X02169Y02598*
X02172Y02602*
X02173Y02606*
X02172Y02611*
X02169Y02615*
X02168Y02615*
X02166Y02619*
X02167Y02622*
X02169Y02624*
X0217Y02628*
X02169Y02633*
X02166Y02637*
X02164Y02638*
X02164Y0264*
X02165Y02644*
X02168Y02646*
X02171Y0265*
X02172Y02654*
X02171Y02659*
X02168Y02663*
X02164Y02665*
X0216Y02666*
G37*
G36*
X01642Y02608D02*
X01637Y02607D01*
X01633Y02604*
X01631Y026*
X0163Y02595*
X01631Y02591*
X01633Y02587*
X01637Y02584*
X01642Y02583*
X01647Y02584*
X01651Y02587*
X01653Y02591*
X01654Y02595*
X01653Y026*
X01651Y02604*
X01647Y02607*
X01642Y02608*
G37*
G36*
X02306Y02596D02*
X02302Y02595D01*
X02298Y02592*
X02295Y02588*
X02294Y02584*
X02295Y02579*
X02298Y02575*
X02302Y02572*
X02306Y02571*
X02311Y02572*
X02315Y02575*
X02317Y02579*
X02318Y02584*
X02317Y02588*
X02315Y02592*
X02311Y02595*
X02306Y02596*
G37*
G36*
X02233Y02551D02*
X02228Y02551D01*
X02224Y02548*
X02221Y02544*
X0222Y02539*
X02221Y02535*
X02224Y02531*
X02228Y02528*
X02233Y02527*
X02237Y02528*
X02241Y02531*
X02243Y02527*
X02247Y02524*
X02252Y02523*
X02257Y02524*
X02261Y02527*
X02263Y02531*
X02264Y02536*
X02263Y0254*
X02261Y02544*
X02257Y02547*
X02252Y02548*
X02247Y02547*
X02244Y02544*
X02241Y02548*
X02237Y02551*
X02233Y02551*
G37*
G36*
X01864Y02525D02*
X01859Y02524D01*
X01855Y02522*
X0185Y02523*
X01848Y02524*
X01844Y02525*
X01839Y02524*
X01835Y02521*
X01832Y02517*
X01831Y02513*
X01832Y02508*
X01835Y02504*
X01839Y02501*
X01844Y025*
X01848Y02501*
X01852Y02504*
X01858Y02503*
X01859Y02502*
X01864Y02501*
X01868Y02502*
X01872Y02505*
X01875Y02509*
X01876Y02513*
X01875Y02518*
X01872Y02522*
X01868Y02524*
X01864Y02525*
G37*
G36*
X01737Y02525D02*
X01733Y02524D01*
X01731Y02523*
X01728Y02522*
X01724Y02523*
X01722Y02524*
X01718Y02525*
X01713Y02524*
X01709Y02521*
X01706Y02517*
X01706Y02513*
X01706Y02508*
X01709Y02504*
X01713Y02501*
X01718Y02501*
X01722Y02501*
X01726Y02504*
X01726Y02504*
X01729*
X01733Y02502*
X01737Y02501*
X01742Y02502*
X01746Y02504*
X01749Y02508*
X01749Y02513*
X01749Y02517*
X01746Y02521*
X01742Y02524*
X01737Y02525*
G37*
G36*
X01275Y02539D02*
X0127Y02538D01*
X01266Y02535*
X01263Y02531*
X01262Y02527*
X01263Y02522*
X01266Y02518*
X0127Y02515*
X01275Y02514*
X01279Y02515*
X01283Y02518*
X01286Y02522*
X01287Y02527*
X01286Y02531*
X01283Y02535*
X01279Y02538*
X01275Y02539*
G37*
G36*
X01578Y02542D02*
X01573Y02541D01*
X0157Y02539*
X01567Y02535*
X01566Y0253*
X01567Y02526*
X0157Y02522*
X01573Y02519*
X01578Y02518*
X01583Y02519*
X01584Y0252*
X01589Y02518*
X0159Y02518*
X01592Y02514*
X01596Y02512*
X01601Y02511*
X01605Y02512*
X01609Y02514*
X01612Y02518*
X01613Y02523*
X01612Y02528*
X01609Y02532*
X01605Y02534*
X01601Y02535*
X01596Y02534*
X01595Y02533*
X01589Y02535*
X01589Y02535*
X01587Y02539*
X01583Y02541*
X01578Y02542*
G37*
G36*
X01675Y02521D02*
X0167Y0252D01*
X01666Y02518*
X01663Y02514*
X01662Y02509*
X01663Y02505*
X01666Y02501*
X0167Y02498*
X01675Y02497*
X01679Y02498*
X01683Y02501*
X01686Y02505*
X01687Y02509*
X01686Y02514*
X01683Y02518*
X01679Y0252*
X01675Y02521*
G37*
G36*
X00724Y02518D02*
X0072Y02517D01*
X00716Y02514*
X00713Y0251*
X00712Y02505*
X00713Y02501*
X00715Y02498*
X00711Y02495*
X0071Y02496*
X00705Y02497*
X007Y02496*
X00696Y02493*
X00694Y02489*
X00693Y02485*
X00694Y0248*
X00696Y02476*
X007Y02473*
X00705Y02472*
X0071Y02473*
X00716Y02472*
X0072Y02469*
X00724Y02468*
X00729Y02469*
X00733Y02472*
X00735Y02475*
X00736Y0248*
X00735Y02485*
X00733Y02489*
X00731Y0249*
Y02496*
X00733Y02497*
X00735Y02501*
X00736Y02505*
X00735Y0251*
X00733Y02514*
X00729Y02517*
X00724Y02518*
G37*
G36*
X01626Y02519D02*
X01621Y02518D01*
X01617Y02515*
X01615Y02511*
X01614Y02507*
X01615Y02502*
X01617Y02498*
X01621Y02495*
X01626Y02495*
X0163Y02495*
X01634Y02498*
X01637Y02502*
X01638Y02507*
X01637Y02511*
X01634Y02515*
X0163Y02518*
X01626Y02519*
G37*
G36*
X01394Y02498D02*
X01389Y02497D01*
X01385Y02495*
X01383Y02491*
X01382Y02486*
X01383Y02482*
X01385Y02478*
X01389Y02475*
X01394Y02474*
X01398Y02475*
X01402Y02478*
X01405Y02482*
X01406Y02486*
X01405Y02491*
X01402Y02495*
X01398Y02497*
X01394Y02498*
G37*
G36*
X01798Y02516D02*
X01794Y02515D01*
X0179Y02513*
X01787Y02509*
X01786Y02504*
X01787Y025*
X0179Y02496*
X01794Y02493*
X01798Y02492*
X01802Y02493*
X01803Y02493*
X01806Y02491*
X01807Y0249*
X0181Y02487*
X01814Y02484*
X01818Y02483*
X01822Y02484*
X01823Y02484*
X01828Y02481*
X01828Y02479*
X01831Y02475*
X01835Y02472*
X01839Y02471*
X01844Y02472*
X01848Y02475*
X01851Y02479*
X01851Y02483*
X01851Y02488*
X01848Y02492*
X01844Y02494*
X01839Y02495*
X01835Y02495*
X01834Y02495*
X0183Y02497*
X01829Y025*
X01827Y02504*
X01823Y02506*
X01818Y02507*
X01815Y02507*
X01814Y02506*
X01811Y02508*
X01809Y02509*
X01807Y02513*
X01803Y02515*
X01798Y02516*
G37*
G36*
X02523Y02493D02*
X02518Y02492D01*
X02514Y02489*
X02512Y02485*
X02511Y02481*
X02512Y02476*
X02514Y02472*
X02518Y0247*
X02523Y02469*
X02528Y0247*
X02532Y02472*
X02534Y02476*
X02535Y02481*
X02534Y02485*
X02532Y02489*
X02528Y02492*
X02523Y02493*
G37*
G36*
X01934Y0249D02*
X0193Y02489D01*
X01926Y02486*
X01923Y02482*
X01922Y02478*
X01923Y02475*
X019Y02452*
X01898Y02448*
Y02133*
X01795*
X01794Y02135*
X0179Y02138*
X01785Y02139*
X01781Y02138*
X01777Y02135*
X01774Y02131*
X01773Y02127*
X01774Y02122*
X01777Y02118*
X01781Y02115*
X01785Y02114*
X0179Y02115*
X01794Y02118*
X01795Y0212*
X01898*
Y01774*
X01796Y01672*
X01794Y01668*
Y0144*
X01788Y01434*
X01785Y01435*
X01781Y01434*
X01777Y01431*
X01774Y01427*
X01773Y01423*
X01774Y01418*
X01777Y01414*
X01781Y01411*
X01785Y0141*
X0179Y01411*
X01794Y01414*
X01795Y01416*
X01846*
X0192Y01342*
X01924Y0134*
X01945*
X02016Y01269*
X02021Y01267*
X02387*
X02389Y01265*
X02393Y01262*
X02397Y01261*
X02402Y01262*
X02403Y01263*
X0245*
X02463Y0125*
X02468Y01248*
X02473*
X02483Y01238*
Y01203*
X02485Y01199*
X02493Y01191*
Y01057*
X0249Y01053*
X02489Y01049*
X0249Y01044*
X0249Y01044*
X02397Y0095*
X02395Y00946*
Y00883*
X02393Y00882*
X0239Y00878*
X02389Y00874*
X0239Y00869*
X02393Y00865*
X02397Y00862*
X02401Y00861*
X02403Y0086*
Y00786*
X02357*
X02352Y00791*
X02347Y00793*
X02321*
X02317Y00791*
X02314Y00788*
X02297*
X02296Y0079*
X02292Y00793*
X02287Y00794*
X02283Y00793*
X02279Y0079*
X02276Y00786*
X02275Y00782*
X02275Y0078*
X02251Y00756*
X02251Y00755*
X02247Y00753*
X02242Y00754*
X02237Y00753*
X02234Y00751*
X02231Y00747*
X0223Y00742*
X02231Y00738*
X02234Y00734*
X02237Y00731*
X02242Y0073*
X02242Y0073*
X02245Y00726*
X02228Y00708*
X02226Y00704*
Y00593*
X02204Y00571*
X02036*
X02035Y00573*
X02031Y00576*
X02026Y00577*
X02022Y00576*
X02018Y00573*
X02015Y00569*
X02014Y00565*
X02015Y0056*
X02018Y00556*
X02022Y00553*
X02026Y00552*
X02031Y00553*
X02035Y00556*
X02036Y00558*
X02206*
X02211Y0056*
X02212Y00561*
X02216Y00558*
X02214Y00555*
X02213Y00551*
X02214Y00546*
X02217Y00542*
X02221Y00539*
X02225Y00538*
X0223Y00539*
X02234Y00542*
X02236Y00546*
X02237Y00551*
X02236Y00555*
X02234Y00559*
X0223Y00562*
X02225Y00563*
X02221Y00562*
X02218Y0056*
X02215Y00564*
X02237Y00586*
X02239Y00591*
Y00701*
X02261Y00723*
X02262Y00728*
Y00749*
X02284Y0077*
X02287Y00769*
X02292Y0077*
X02296Y00773*
X02297Y00775*
X02316*
X02321Y00777*
X02324Y0078*
X02344*
X0235Y00775*
X02354Y00773*
X02407*
X02411Y00775*
X02414Y00777*
X02416Y00782*
Y00862*
X02414Y00867*
X02412Y00869*
X02412Y00869*
X02413Y00874*
X02412Y00878*
X0241Y00882*
X02408Y00883*
Y00943*
X02501Y01036*
X02506Y01037*
X0251Y0104*
X02512Y01044*
X02513Y01049*
X02512Y01053*
X0251Y01057*
X02506Y0106*
X02506Y0106*
Y01193*
X02506Y01194*
X02508Y01198*
X02512Y012*
X02514Y01204*
X02515Y01209*
X02514Y01214*
X02512Y01218*
X02508Y0122*
X02503Y01221*
X02501Y01221*
X02496Y01224*
Y0124*
X02494Y01245*
X0248Y01259*
X02475Y01261*
X0247*
X02457Y01274*
X02453Y01276*
X0242*
X02418Y01281*
X02418Y01282*
X0251*
X02532Y0126*
X02536Y01258*
X02711*
X02716Y0126*
X02753Y01297*
X02755Y01302*
Y01342*
X0277Y01357*
X02774Y01354*
X02773Y01353*
X02773Y01349*
X02773Y01344*
X02776Y0134*
X0278Y01338*
X02785Y01337*
X02789Y01338*
X02793Y0134*
X02796Y01344*
X02797Y01349*
X02796Y01353*
X02793Y01357*
X02789Y0136*
X02785Y01361*
X0278Y0136*
X0278Y0136*
X02777Y01364*
X02781Y01368*
X02783Y01367*
X02788Y01368*
X02792Y01371*
X02794Y01375*
X02795Y0138*
X02794Y01384*
X02792Y01388*
X02788Y01391*
X02783Y01392*
X02779Y01391*
X02775Y01388*
X02772Y01384*
X02771Y0138*
X02772Y01377*
X02744Y01349*
X02742Y01345*
Y01304*
X02709Y01271*
X02539*
X02517Y01293*
X02512Y01295*
X02484*
X02482Y013*
X02483Y01301*
X02485Y01304*
X02486Y01309*
X02486Y01313*
X02487Y01315*
X02489Y01318*
X02492Y01318*
X02496Y01321*
X02499Y01325*
X025Y01329*
X02499Y01334*
X02496Y01338*
X02492Y01341*
X02491Y01341*
X02488Y01346*
X02488Y01346*
X02489Y0135*
X02488Y01355*
X02485Y01359*
X02482Y01361*
X02477Y01362*
X02472Y01361*
X02468Y01359*
X02466Y01355*
X02465Y0135*
X02466Y01346*
X02468Y01342*
X02472Y01339*
X02474Y01339*
X02476Y01334*
X02476Y01334*
X02475Y01329*
X02476Y01326*
X02475Y01323*
X02473Y01321*
X0247Y0132*
X02466Y01318*
X02463Y01314*
X02462Y01309*
X02463Y01304*
X02466Y01301*
X02467Y013*
X02465Y01295*
X02418*
Y01323*
X02464Y01368*
X02466Y01373*
Y01726*
X02468Y01727*
X0247Y01731*
X02471Y01736*
X0247Y0174*
X02468Y01744*
X02464Y01747*
X02459Y01748*
X02455Y01747*
X02451Y01744*
X02448Y0174*
X02447Y01736*
X02448Y01731*
X02451Y01727*
X02453Y01726*
Y01376*
X02407Y0133*
X02405Y01325*
Y01291*
X024Y01285*
X02397Y01286*
X02393Y01285*
X02389Y01282*
X02387Y0128*
X02378*
X02375Y01285*
X02376Y01288*
X02375Y01292*
X02372Y01296*
X02368Y01299*
X02363Y013*
X02359Y01299*
X02355Y01296*
X02352Y01292*
X02351Y01288*
X02352Y01285*
X02349Y0128*
X02024*
X01952Y01351*
X01947Y01353*
X01927*
X01853Y01427*
X01849Y01429*
X01807*
X01805Y01434*
X01807Y01438*
Y01665*
X01909Y01767*
X01911Y01772*
Y02045*
X01916Y02045*
X01916Y02044*
X01919Y0204*
X01923Y02037*
X01927Y02036*
X01932Y02037*
X01936Y0204*
X01938Y02044*
X01944Y02045*
X01948Y02042*
X01952Y02041*
X01957Y02042*
X01961Y02045*
X01963Y02049*
X01964Y02054*
X01964Y02056*
X02067Y02159*
X02068*
X02068Y02159*
X02426*
X02429Y02156*
X02429Y02154*
X02429Y0215*
X0243Y02146*
X02432Y02142*
X02436Y02139*
X02441Y02138*
X02445Y02139*
X02449Y02142*
X02452Y02146*
X02453Y0215*
X02452Y02154*
X02453Y02156*
X02455Y02159*
X02488*
X02492Y02161*
X02532Y02201*
X02558*
X02561Y02198*
X02566Y02196*
X0259*
X02592Y02194*
X02596Y02191*
X026Y0219*
X02605Y02191*
X02609Y02194*
X02611Y02198*
X02612Y02203*
X02611Y02207*
X02609Y02211*
X02605Y02214*
X026Y02215*
X02596Y02214*
X02592Y02211*
X0259Y02209*
X02568*
X02565Y02212*
X02561Y02214*
X0254*
X02538Y02218*
X026Y0228*
X02602Y02285*
Y02295*
X02604Y02296*
X02607Y023*
X02608Y02305*
X02607Y02309*
X02604Y02313*
X026Y02316*
X02596Y02317*
X02591Y02316*
X02587Y02313*
X02584Y02309*
X02583Y02305*
X02584Y023*
X02587Y02296*
X02589Y02295*
Y02287*
X02482Y0218*
X02052*
X02048Y02178*
X0193Y0206*
X01927Y02061*
X01923Y0206*
X01919Y02057*
X01916Y02053*
X01916Y02052*
X01911Y02052*
Y02127*
Y02445*
X01932Y02466*
X01934Y02465*
X01939Y02466*
X01943Y02469*
X01945Y02473*
X01946Y02478*
X01945Y02482*
X01943Y02486*
X01939Y02489*
X01934Y0249*
G37*
G36*
X01042Y02578D02*
Y0246D01*
X0116*
X01159Y02475*
X01155Y02494*
X01147Y02512*
X01137Y02528*
X01125Y02543*
X0111Y02555*
X01094Y02565*
X01076Y02573*
X01057Y02577*
X01042Y02578*
G37*
G36*
X01034D02*
X01019Y02577D01*
X01Y02573*
X00982Y02565*
X00966Y02555*
X00951Y02543*
X00939Y02528*
X00929Y02512*
X00922Y02494*
X00917Y02475*
X00916Y0246*
X01034*
Y02578*
G37*
G36*
X0214Y02418D02*
X02135Y02418D01*
X02134Y02417*
X02131Y02415*
X02127Y02417*
X02125Y02417*
X02121Y02418*
X02116Y02417*
X02112Y02415*
X0211Y02411*
X02109Y02406*
X0211Y02402*
X02112Y02398*
Y02397*
X0211Y02393*
X02109Y02388*
X0211Y02383*
X02112Y0238*
X02111Y02375*
X0211Y02374*
X02109Y02369*
X0211Y02364*
X02113Y0236*
X02117Y02358*
X02122Y02357*
X02126Y02358*
X02127Y02358*
X02132Y02359*
X02135Y02358*
X02136Y02357*
X02141Y02356*
X02145Y02357*
X02146Y02357*
X0215Y0236*
X02154Y02357*
X02159Y02356*
X02163Y02357*
X02167Y0236*
X0217Y02364*
X02171Y02368*
X0217Y02373*
X02169Y02375*
X02167Y02379*
X0217Y02383*
X02171Y02388*
X0217Y02392*
X02167Y02396*
Y02397*
X0217Y02401*
X02171Y02406*
X0217Y02411*
X02167Y02414*
X02163Y02417*
X02158Y02418*
X02154Y02417*
X0215Y02414*
X02146Y02417*
X02145Y02418*
X0214Y02418*
G37*
G36*
X01785Y02419D02*
X01781Y02418D01*
X01777Y02415*
X01774Y02411*
X01773Y02407*
X01774Y02402*
X01777Y02398*
X01779Y02397*
X0178Y02393*
X01779Y02391*
X01778Y02388*
X01777Y02383*
X01778Y02379*
X0178Y02375*
X01784Y02372*
X01789Y02371*
X01793Y02372*
X01797Y02375*
X018Y02379*
X01801Y02383*
X018Y02388*
X01797Y02392*
X01795Y02393*
X01794Y02397*
X01794Y02399*
X01796Y02402*
X01797Y02407*
X01796Y02411*
X01794Y02415*
X0179Y02418*
X01785Y02419*
G37*
G36*
X01702Y0239D02*
X01697Y02389D01*
X01693Y02386*
X0169Y02382*
X01689Y02378*
X0169Y02373*
X01693Y02369*
X01697Y02366*
X01702Y02365*
X01706Y02366*
X0171Y02369*
X01713Y02373*
X01714Y02378*
X01713Y02382*
X0171Y02386*
X01706Y02389*
X01702Y0239*
G37*
G36*
X01963Y02387D02*
X01958Y02386D01*
X01954Y02384*
X01951Y0238*
X0195Y02375*
X01951Y02371*
X01954Y02367*
X01958Y02364*
X01963Y02363*
X01967Y02364*
X01971Y02367*
X01974Y02371*
X01975Y02375*
X01974Y0238*
X01971Y02384*
X01967Y02386*
X01963Y02387*
G37*
G36*
X01594Y02378D02*
X01589Y02377D01*
X01585Y02374*
X01582Y0237*
X01581Y02366*
X01582Y02361*
X01585Y02357*
X01589Y02354*
X01594Y02353*
X01598Y02354*
X01602Y02357*
X01605Y02361*
X01606Y02366*
X01605Y0237*
X01602Y02374*
X01598Y02377*
X01594Y02378*
G37*
G36*
X00576Y02368D02*
X00571Y02367D01*
X00567Y02364*
X00564Y02361*
X00564Y02356*
X00564Y02351*
X00567Y02347*
X00571Y02345*
X00576Y02344*
X0058Y02345*
X00584Y02347*
X00587Y02351*
X00588Y02356*
X00587Y02361*
X00584Y02364*
X0058Y02367*
X00576Y02368*
G37*
G36*
X01737Y02363D02*
X01732Y02362D01*
X01728Y0236*
X01725Y02356*
X01725Y02351*
X01725Y02347*
X01728Y02343*
X01732Y0234*
X01737Y02339*
X01741Y0234*
X01745Y02343*
X01748Y02347*
X01749Y02351*
X01748Y02356*
X01745Y0236*
X01741Y02362*
X01737Y02363*
G37*
G36*
X0186Y02411D02*
X01856Y0241D01*
X01852Y02408*
X01849Y02404*
X01848Y02399*
X01845Y02395*
X0184Y02394*
X01836Y02391*
X01834Y02387*
X01833Y02383*
X01832Y02382*
X0183Y0238*
X01828Y02379*
X01824Y02378*
X01821Y02375*
X01818Y02372*
X01817Y02367*
X01818Y02362*
X01821Y02358*
X01819Y02354*
X01817Y02351*
X01816Y02347*
X01817Y02342*
X0182Y02338*
X01824Y02335*
X01828Y02334*
X01833Y02335*
X01837Y02338*
X0184Y02342*
X0184Y02347*
X0184Y02351*
X01837Y02355*
X01839Y0236*
X0184Y02362*
X01841Y02366*
X01842Y02368*
X01844Y0237*
X01846Y02371*
X01849Y02371*
X01853Y02374*
X01856Y02378*
X01857Y02383*
X0186Y02387*
X01865Y02388*
X01869Y0239*
X01872Y02394*
X01873Y02399*
X01872Y02404*
X01869Y02408*
X01865Y0241*
X0186Y02411*
G37*
G36*
X01034Y02452D02*
X00916D01*
X00917Y02437*
X00922Y02418*
X00929Y024*
X00939Y02384*
X00951Y02369*
X00966Y02357*
X00982Y02347*
X01Y0234*
X01019Y02335*
X01034Y02334*
Y02452*
G37*
G36*
X0116D02*
X01042D01*
Y02334*
X01057Y02335*
X01076Y0234*
X01094Y02347*
X0111Y02357*
X01125Y02369*
X01137Y02384*
X01147Y024*
X01155Y02418*
X01159Y02437*
X0116Y02452*
G37*
G36*
X01942Y02339D02*
X01938Y02338D01*
X01934Y02335*
X01931Y02331*
X0193Y02327*
X01931Y02322*
X01934Y02318*
X01938Y02315*
X01942Y02314*
X01947Y02315*
X01951Y02318*
X01953Y02322*
X01954Y02327*
X01953Y02331*
X01951Y02335*
X01947Y02338*
X01942Y02339*
G37*
G36*
X00216Y02615D02*
X00212Y02614D01*
X00208Y02611*
X00205Y02607*
X00204Y02603*
X00205Y02598*
X00208Y02594*
X00212Y02591*
X00216Y0259*
X00219Y02591*
X00264Y02546*
Y02262*
X0023*
X00229Y02264*
X00225Y02267*
X0022Y02268*
X00216Y02267*
X00212Y02264*
X00209Y0226*
X00208Y02256*
X00209Y02251*
X00212Y02247*
X00216Y02244*
X0022Y02243*
X00225Y02244*
X00229Y02247*
X0023Y02249*
X00268*
X00272Y02251*
X00275Y02253*
X00277Y02258*
Y02549*
X00275Y02553*
X00228Y026*
X00228Y02603*
X00227Y02607*
X00225Y02611*
X00221Y02614*
X00216Y02615*
G37*
G36*
X01879Y02269D02*
X01875Y02268D01*
X01871Y02265*
X01868Y02261*
X01867Y02257*
X01868Y02252*
X01871Y02248*
X01875Y02245*
X01879Y02244*
X01884Y02245*
X01888Y02248*
X0189Y02252*
X01891Y02257*
X0189Y02261*
X01888Y02265*
X01884Y02268*
X01879Y02269*
G37*
G36*
X00194Y02224D02*
X00187Y02223D01*
X0018Y0222*
X00174Y02215*
X0017Y0221*
X00167Y02203*
X00166Y02196*
X00167Y02188*
X0017Y02181*
X00174Y02176*
X0018Y02171*
X00187Y02168*
X00194Y02167*
X00202Y02168*
X00208Y02171*
X00214Y02176*
X00219Y02181*
X00221Y02188*
X00222Y02196*
X00221Y02203*
X00219Y0221*
X00214Y02215*
X00208Y0222*
X00202Y02223*
X00194Y02224*
G37*
G36*
X0244Y02133D02*
X02435Y02132D01*
X02431Y02129*
X02429Y02126*
X02428Y02121*
X02429Y02116*
X02431Y02112*
X02435Y0211*
X0244Y02109*
X02444Y0211*
X02448Y02112*
X02451Y02116*
X02452Y02121*
X02451Y02126*
X02448Y02129*
X02444Y02132*
X0244Y02133*
G37*
G36*
X02584Y02089D02*
X0258Y02088D01*
X02576Y02085*
X02573Y02081*
X02572Y02077*
X02573Y02072*
X02576Y02068*
Y02065*
X02573Y02061*
X02572Y02057*
X02573Y02052*
X02576Y02048*
X0258Y02045*
X02584Y02044*
X02589Y02045*
X02593Y02048*
X02595Y02052*
X02596Y02057*
X02595Y02061*
X02593Y02065*
Y02068*
X02595Y02072*
X02596Y02077*
X02595Y02081*
X02593Y02085*
X02589Y02088*
X02584Y02089*
G37*
G36*
X01562Y02065D02*
X01558Y02064D01*
X01554Y02061*
X01551Y02057*
X0155Y02053*
X01551Y02048*
X01554Y02044*
X01558Y02041*
X01562Y0204*
X01567Y02041*
X01571Y02044*
X01573Y02048*
X01574Y02053*
X01573Y02057*
X01571Y02061*
X01567Y02064*
X01562Y02065*
G37*
G36*
X00307Y02038D02*
X00303Y02037D01*
X00299Y02034*
X00296Y0203*
X00295Y02026*
X00296Y02021*
X00299Y02017*
X00303Y02014*
X00307Y02013*
X00312Y02014*
X00316Y02017*
X00318Y02021*
X00319Y02026*
X00318Y0203*
X00316Y02034*
X00312Y02037*
X00307Y02038*
G37*
G36*
X02586Y02032D02*
X02581Y02031D01*
X02578Y02029*
X02575Y02025*
X02574Y0202*
X02575Y02016*
X02578Y02012*
X02581Y02009*
X02586Y02008*
X02591Y02009*
X02595Y02012*
X02597Y02016*
X02598Y0202*
X02597Y02025*
X02595Y02029*
X02591Y02031*
X02586Y02032*
G37*
G36*
X0215Y02028D02*
X02145Y02027D01*
X02141Y02025*
X02138Y02021*
X02137Y02016*
X02138Y02012*
X02141Y02008*
X02145Y02005*
X0215Y02004*
X02154Y02005*
X02158Y02008*
X02161Y02012*
X02162Y02016*
X02161Y02021*
X02158Y02025*
X02154Y02027*
X0215Y02028*
G37*
G36*
X02327Y02027D02*
X02322Y02026D01*
X02318Y02023*
X02315Y02019*
X02315Y02014*
X02315Y0201*
X02318Y02006*
X02322Y02003*
X02327Y02002*
X02331Y02003*
X02335Y02006*
X02338Y0201*
X02339Y02014*
X02338Y02019*
X02335Y02023*
X02331Y02026*
X02327Y02027*
G37*
G36*
X02447Y02024D02*
X02443Y02023D01*
X02439Y02021*
X02436Y02017*
X02435Y02012*
X02436Y02008*
X02439Y02004*
X02443Y02001*
X02447Y02*
X02452Y02001*
X02456Y02004*
X02459Y02008*
X0246Y02012*
X02459Y02017*
X02456Y02021*
X02452Y02023*
X02447Y02024*
G37*
G36*
X00303Y0199D02*
X00299Y01989D01*
X00295Y01986*
X00292Y01982*
X00291Y01978*
X00292Y01973*
X00295Y01969*
X00299Y01966*
X00303Y01965*
X00308Y01966*
X00312Y01969*
X00314Y01973*
X00315Y01978*
X00314Y01982*
X00312Y01986*
X00308Y01989*
X00303Y0199*
G37*
G36*
X01154Y01972D02*
X0115Y01971D01*
X01146Y01968*
X01143Y01964*
X01142Y0196*
X01143Y01955*
X01146Y01951*
X0115Y01948*
X01154Y01947*
X01159Y01948*
X01163Y01951*
X01165Y01955*
X01166Y0196*
X01165Y01964*
X01163Y01968*
X01159Y01971*
X01154Y01972*
G37*
G36*
X00988Y01955D02*
X00983Y01954D01*
X00979Y01951*
X00977Y01947*
X00976Y01942*
X00977Y01938*
X00979Y01934*
X00983Y01931*
X00988Y0193*
X00992Y01931*
X00996Y01934*
X00999Y01938*
X01Y01942*
X00999Y01947*
X00996Y01951*
X00992Y01954*
X00988Y01955*
G37*
G36*
X00306Y01935D02*
X00302Y01934D01*
X00298Y01931*
X00295Y01927*
X00294Y01923*
X00295Y01918*
X00298Y01914*
X00302Y01911*
X00306Y0191*
X00311Y01911*
X00315Y01914*
X00317Y01918*
X00318Y01923*
X00317Y01927*
X00315Y01931*
X00311Y01934*
X00306Y01935*
G37*
G36*
X02555Y01931D02*
X02551Y0193D01*
X02547Y01927*
X02544Y01923*
X02543Y01919*
X02544Y01914*
X02547Y0191*
X02551Y01907*
X02555Y01906*
X0256Y01907*
X02564Y0191*
X02566Y01914*
X02567Y01919*
X02566Y01923*
X02564Y01927*
X0256Y0193*
X02555Y01931*
G37*
G36*
X02489Y01908D02*
X02484Y01907D01*
X0248Y01904*
X02477Y019*
X02476Y01896*
X02477Y01891*
X0248Y01887*
X02484Y01885*
X02489Y01884*
X02493Y01885*
X02497Y01887*
X025Y01891*
X02501Y01896*
X025Y019*
X02497Y01904*
X02493Y01907*
X02489Y01908*
G37*
G36*
X00308Y01887D02*
X00304Y01886D01*
X003Y01883*
X00297Y01879*
X00296Y01875*
X00297Y0187*
X003Y01866*
X00304Y01863*
X00308Y01862*
X00313Y01863*
X00317Y01866*
X00319Y0187*
X0032Y01875*
X00319Y01879*
X00317Y01883*
X00313Y01886*
X00308Y01887*
G37*
G36*
X01142Y01867D02*
X01137Y01867D01*
X01133Y01864*
X01131Y0186*
X0113Y01855*
X01131Y01851*
X01133Y01847*
X01137Y01844*
X01142Y01843*
X01147Y01844*
X0115Y01847*
X01153Y01851*
X01154Y01855*
X01153Y0186*
X0115Y01864*
X01147Y01867*
X01142Y01867*
G37*
G36*
X02694Y01866D02*
X02689Y01866D01*
X02685Y01863*
X02683Y01859*
X02682Y01854*
X02683Y0185*
X02685Y01846*
X02689Y01843*
X02694Y01842*
X02698Y01843*
X02702Y01846*
X02705Y0185*
X02706Y01854*
X02705Y01859*
X02702Y01863*
X02698Y01866*
X02694Y01866*
G37*
G36*
X00725Y01985D02*
X00721Y01984D01*
X00717Y01981*
X00714Y01977*
X00713Y01973*
X00714Y01968*
X00717Y01964*
X00721Y01961*
X00725Y0196*
X00728Y01961*
X00762Y01927*
Y01845*
X00757Y01842*
X00754Y01843*
X00752Y01842*
X00747Y01845*
Y01874*
X00749Y01875*
X00751Y01879*
X00752Y01884*
X00751Y01888*
X00749Y01892*
X00745Y01895*
X0074Y01896*
X00736Y01895*
X00732Y01892*
X00727Y01894*
Y01916*
X00729Y01918*
X00734Y01919*
X00738Y01922*
X0074Y01926*
X00741Y01931*
X0074Y01935*
X00738Y01939*
X00734Y01942*
X00729Y01943*
X00725Y01942*
X00721Y01939*
X00718Y01935*
X00717Y01931*
X00717Y01929*
X00716Y01928*
X00714Y01923*
Y01626*
X00716Y01622*
X01028Y01309*
X01033Y01307*
X01246*
X01271Y01282*
Y0114*
X01273Y01135*
X01336Y01072*
X0134Y0107*
X01881*
X01882Y01069*
Y00998*
X01877Y00997*
X01877Y00998*
X01874Y01001*
X0187Y01004*
X01865Y01005*
X01861Y01004*
X01857Y01001*
X01854Y00998*
X01853Y00993*
X01854Y00988*
X01857Y00984*
X01861Y00982*
X01865Y00981*
X0187Y00982*
X01874Y00984*
X01877Y00988*
X01877Y00989*
X01882Y00988*
Y00975*
X0188Y00974*
X01877Y0097*
X01876Y00966*
X01877Y00961*
X0188Y00957*
X01884Y00954*
X01888Y00953*
X01893Y00954*
X01897Y00957*
X01899Y00961*
X019Y00966*
X01904Y00969*
X01908Y00968*
X01909Y00963*
X01912Y00959*
X01914Y00958*
X01915Y00952*
X01812Y00849*
X01657*
X01656Y00851*
X01652Y00854*
X01647Y00855*
X01643Y00854*
X01639Y00851*
X01636Y00847*
X01635Y00843*
X01636Y00839*
X01633Y00834*
X01624*
X01623Y00836*
X01619Y00839*
X01614Y0084*
X0161Y00839*
X01606Y00836*
X01603Y00832*
X01602Y00828*
X01603Y00823*
X01606Y00819*
X0161Y00816*
X01614Y00815*
X01619Y00816*
X01623Y00819*
X01624Y00821*
X01841*
X01846Y00823*
X01915Y00892*
X01917Y00896*
Y00901*
X01978Y00962*
X01979Y00962*
X01983Y00961*
X01988Y00962*
X01992Y00965*
X01994Y00969*
X01995Y00974*
X01995Y00976*
X01998Y0098*
X01999Y0098*
X02003Y00981*
X02007Y00984*
X02009Y00988*
X0201Y00993*
X02009Y00997*
X02007Y01001*
X02003Y01004*
X01998Y01005*
X01994Y01004*
X0199Y01001*
X01988Y00999*
X01965*
X0196Y00997*
X01953Y0099*
X01948Y00992*
X01948Y00993*
X01947Y00997*
X01945Y01001*
X01943Y01002*
Y01073*
X01941Y01077*
X01913Y01105*
X01908Y01107*
X01353*
X01308Y01152*
Y01294*
X01306Y01299*
X01263Y01342*
X01258Y01344*
X01045*
X00774Y01615*
Y0193*
X00773Y01934*
X00737Y0197*
X00737Y01973*
X00736Y01977*
X00734Y01981*
X0073Y01984*
X00725Y01985*
G37*
G36*
X02774Y01865D02*
X0277Y01864D01*
X02766Y01861*
X02763Y01857*
X02762Y01853*
X02763Y01848*
X02766Y01844*
X0277Y01841*
X02774Y0184*
X02779Y01841*
X02783Y01844*
X02785Y01848*
X02786Y01853*
X02785Y01857*
X02783Y01861*
X02779Y01864*
X02774Y01865*
G37*
G36*
X00309Y01841D02*
X00305Y0184D01*
X00301Y01837*
X00298Y01833*
X00297Y01829*
X00298Y01824*
X00301Y0182*
X00305Y01817*
X00309Y01816*
X00314Y01817*
X00318Y0182*
X0032Y01824*
X00321Y01829*
X0032Y01833*
X00318Y01837*
X00314Y0184*
X00309Y01841*
G37*
G36*
X02807Y01834D02*
X02803Y01833D01*
X02799Y0183*
X02796Y01826*
X02795Y01822*
X02796Y01817*
X02799Y01813*
X02803Y0181*
X02807Y01809*
X02812Y0181*
X02816Y01813*
X02818Y01817*
X02819Y01822*
X02818Y01826*
X02816Y0183*
X02812Y01833*
X02807Y01834*
G37*
G36*
X00309Y01789D02*
X00305Y01788D01*
X00301Y01785*
X00298Y01781*
X00297Y01777*
X00298Y01772*
X00301Y01768*
X00305Y01765*
X00309Y01764*
X00314Y01765*
X00318Y01768*
X0032Y01772*
X00321Y01777*
X0032Y01781*
X00318Y01785*
X00314Y01788*
X00309Y01789*
G37*
G36*
X01447Y01779D02*
X01443Y01778D01*
X01439Y01775*
X01436Y01771*
X01435Y01767*
X01436Y01762*
X01439Y01758*
X01443Y01755*
X01447Y01754*
X01452Y01755*
X01456Y01758*
X01458Y01762*
X01459Y01767*
X01458Y01771*
X01456Y01775*
X01452Y01778*
X01447Y01779*
G37*
G36*
X01061Y0192D02*
X01044D01*
X01038Y01919*
X01033Y01916*
X0103Y01911*
X01029Y01905*
Y01897*
X01029Y01893*
X01029Y01889*
Y01881*
X01029Y01877*
X01029Y01873*
Y01865*
X01029Y01862*
X01029Y01858*
Y0185*
X01029Y01846*
X01029Y01842*
Y01834*
X01029Y0183*
X01029Y01826*
Y01818*
X01029Y01814*
X01029Y0181*
Y01802*
X01029Y01799*
X01029Y01795*
Y01787*
X01029Y01783*
X01029Y01779*
Y01771*
X01029Y01767*
X01029Y01763*
Y01755*
X0103Y01749*
X01033Y01744*
X01038Y01741*
X01044Y0174*
X01061*
X01067Y01741*
X01072Y01744*
X01075Y01749*
X01077Y01755*
Y01763*
X01076Y01767*
X01077Y01771*
Y01779*
X01076Y01783*
X01077Y01787*
Y01795*
X01076Y01799*
X01077Y01802*
Y0181*
X01076Y01814*
X01077Y01818*
Y01826*
X01076Y0183*
X01077Y01834*
Y01842*
X01076Y01846*
X01077Y0185*
Y01858*
X01076Y01862*
X01077Y01865*
Y01873*
X01076Y01877*
X01077Y01881*
Y01889*
X01076Y01893*
X01077Y01897*
Y01905*
X01075Y01911*
X01072Y01916*
X01067Y01919*
X01061Y0192*
G37*
G36*
X00985D02*
X00968D01*
X00962Y01919*
X00957Y01916*
X00953Y01911*
X00952Y01905*
Y01897*
X00953Y01893*
X00952Y01889*
Y01881*
X00953Y01877*
X00952Y01873*
Y01865*
X00953Y01862*
X00952Y01858*
Y0185*
X00953Y01846*
X00952Y01842*
Y01834*
X00953Y0183*
X00952Y01826*
Y01818*
X00953Y01814*
X00952Y0181*
Y01802*
X00953Y01799*
X00952Y01795*
Y01787*
X00953Y01783*
X00952Y01779*
Y01771*
X00953Y01767*
X00952Y01763*
Y01755*
X00953Y01749*
X00957Y01744*
X00962Y01741*
X00968Y0174*
X00985*
X00991Y01741*
X00996Y01744*
X00999Y01749*
X01Y01755*
Y01763*
X00999Y01767*
X01Y01771*
Y01779*
X00999Y01783*
X01Y01787*
Y01795*
X00999Y01799*
X01Y01802*
Y0181*
X00999Y01814*
X01Y01818*
Y01826*
X00999Y0183*
X01Y01834*
Y01842*
X00999Y01846*
X01Y0185*
Y01858*
X00999Y01862*
X01Y01865*
Y01873*
X00999Y01877*
X01Y01881*
Y01889*
X00999Y01893*
X01Y01897*
Y01905*
X00999Y01911*
X00996Y01916*
X00991Y01919*
X00985Y0192*
G37*
G36*
X0231Y01742D02*
X02306Y01741D01*
X02302Y01739*
X02301Y01738*
X02295*
X02295Y01738*
X02291Y01741*
X02287Y01742*
X02282Y01741*
X02278Y01738*
X02276Y01734*
X02275Y0173*
X02276Y01725*
X02278Y01721*
X02282Y01718*
X02287Y01718*
X02291Y01718*
X02295Y01721*
X02296Y01722*
X02302*
X02302Y01722*
X02306Y01719*
X0231Y01718*
X02315Y01719*
X02319Y01722*
X02322Y01725*
X02322Y0173*
X02322Y01735*
X02319Y01739*
X02315Y01741*
X0231Y01742*
G37*
G36*
X02209Y01747D02*
X02204Y01746D01*
X022Y01743*
X02198Y01739*
X02197Y01735*
X02198Y0173*
X022Y01726*
X02204Y01724*
X02209Y01723*
X02213Y01724*
X02214Y01724*
X0222Y01723*
X02224Y0172*
X02229Y0172*
X02233Y0172*
X02237Y01723*
X0224Y01727*
X02241Y01732*
X0224Y01736*
X02237Y0174*
X02233Y01743*
X02229Y01744*
X02224Y01743*
X02224Y01743*
X02217Y01743*
X02213Y01746*
X02209Y01747*
G37*
G36*
X00343Y01732D02*
X00339Y01731D01*
X00335Y01728*
X00332Y01724*
X00331Y0172*
X00332Y01715*
X00335Y01711*
X00339Y01708*
X00343Y01707*
X00348Y01708*
X00352Y01711*
X00354Y01715*
X00355Y0172*
X00354Y01724*
X00352Y01728*
X00348Y01731*
X00343Y01732*
G37*
G36*
X02099Y01712D02*
X02094Y01711D01*
X0209Y01708*
X02088Y01704*
X02087Y017*
X02088Y01695*
X0209Y01691*
X02094Y01688*
X02099Y01687*
X02103Y01688*
X02107Y01691*
X0211Y01695*
X02111Y017*
X0211Y01704*
X02107Y01708*
X02103Y01711*
X02099Y01712*
G37*
G36*
X02188Y01701D02*
X02184Y017D01*
X0218Y01697*
X02177Y01693*
X02176Y01689*
X02177Y01684*
X0218Y0168*
X02184Y01677*
X02188Y01677*
X02193Y01677*
X02197Y0168*
X02199Y01684*
X022Y01689*
X02199Y01693*
X02197Y01697*
X02193Y017*
X02188Y01701*
G37*
G36*
X02323Y01674D02*
X02318Y01673D01*
X02317Y01672*
X02313Y0167*
X02309Y01672*
X02304Y01673*
X02299Y01672*
X02295Y0167*
X02293Y01666*
X02292Y01661*
X02293Y01656*
X02295Y01652*
X02299Y0165*
X02304Y01649*
X02309Y0165*
X0231Y01651*
X02314Y01653*
X02318Y0165*
X02323Y0165*
X02327Y0165*
X02331Y01653*
X02334Y01657*
X02335Y01662*
X02334Y01666*
X02331Y0167*
X02327Y01673*
X02323Y01674*
G37*
G36*
X02918Y01692D02*
X02914Y01691D01*
X0291Y01688*
X02907Y01684*
X02906Y0168*
X02907Y01675*
X0291Y01671*
X02914Y01668*
X02918Y01668*
X02923Y01668*
X02927Y01671*
X0293Y01675*
X0293Y0168*
X0293Y01684*
X02927Y01688*
X02923Y01691*
X02918Y01692*
G37*
G36*
X00275Y01689D02*
X00271Y01688D01*
X00267Y01685*
X00264Y01681*
X00263Y01677*
X00264Y01672*
X00267Y01668*
X00271Y01665*
X00275Y01664*
X0028Y01665*
X00284Y01668*
X00286Y01672*
X00287Y01677*
X00286Y01681*
X00284Y01685*
X0028Y01688*
X00275Y01689*
G37*
G36*
X02055Y01672D02*
X02051Y01671D01*
X02047Y01668*
X02044Y01664*
X02043Y0166*
X02044Y01655*
X02047Y01651*
X02051Y01648*
X02055Y01648*
X0206Y01648*
X02064Y01651*
X02066Y01655*
X02067Y0166*
X02066Y01664*
X02064Y01668*
X0206Y01671*
X02055Y01672*
G37*
G36*
X0289Y01652D02*
X0288Y0165D01*
X02873Y01645*
X02867Y01637*
X02867Y01637*
X02862*
X02862Y01637*
X02857Y01645*
X02849Y0165*
X0284Y01652*
X0283Y0165*
X02823Y01645*
X02817Y01637*
X02816Y01628*
X02817Y01619*
X02823Y01611*
X0283Y01606*
X02831Y01606*
Y016*
X0283Y016*
X02823Y01595*
X02817Y01587*
X02816Y01578*
X02817Y01569*
X02823Y01561*
X0283Y01556*
X02831Y01556*
Y0155*
X0283Y0155*
X02823Y01545*
X02817Y01537*
X02816Y01528*
X02817Y01519*
X02823Y01511*
X0283Y01506*
X02831Y01506*
Y015*
X0283Y015*
X02823Y01495*
X02817Y01487*
X02816Y01478*
X02817Y01469*
X02823Y01461*
X0283Y01456*
X02831Y01456*
Y0145*
X0283Y0145*
X02823Y01445*
X02817Y01437*
X02816Y01428*
X02817Y01419*
X02823Y01411*
X0283Y01406*
X0284Y01404*
X02849Y01406*
X02857Y01411*
X02862Y01419*
X02862Y0142*
X02867*
X02867Y01419*
X02873Y01411*
X0288Y01406*
X0289Y01404*
X02899Y01406*
X02907Y01411*
X02912Y01419*
X02914Y01428*
X02912Y01437*
X02907Y01445*
X02899Y0145*
X02898Y0145*
Y01456*
X02899Y01456*
X02907Y01461*
X02912Y01469*
X02913Y01474*
X0289*
Y01482*
X02913*
X02912Y01487*
X02907Y01495*
X02899Y015*
X02898Y015*
Y01506*
X02899Y01506*
X02907Y01511*
X02912Y01519*
X02913Y01524*
X0289*
Y01532*
X02913*
X02912Y01537*
X02907Y01545*
X02899Y0155*
X02898Y0155*
Y01556*
X02899Y01556*
X02907Y01561*
X02912Y01569*
X02914Y01578*
X02912Y01587*
X02907Y01595*
X02899Y016*
X02898Y016*
Y01606*
X02899Y01606*
X02907Y01611*
X02912Y01619*
X02914Y01628*
X02912Y01637*
X02907Y01645*
X02899Y0165*
X0289Y01652*
G37*
G36*
X00419Y01656D02*
X00414Y01655D01*
X0041Y01652*
X00407Y01648*
X00406Y01644*
X00407Y01639*
X0041Y01635*
X00414Y01632*
X00419Y01631*
X00423Y01632*
X00427Y01635*
X0043Y01639*
X00431Y01644*
X0043Y01648*
X00427Y01652*
X00423Y01655*
X00419Y01656*
G37*
G36*
X0243Y01671D02*
X02426Y0167D01*
X02422Y01667*
X02419Y01663*
X02418Y01659*
X02419Y01654*
X02422Y0165*
Y01647*
X02419Y01643*
X02418Y01639*
X02419Y01634*
X02422Y0163*
X02426Y01628*
X0243Y01627*
X02435Y01628*
X02439Y0163*
X02441Y01634*
X02442Y01639*
X02441Y01643*
X02439Y01647*
Y0165*
X02441Y01654*
X02442Y01659*
X02441Y01663*
X02439Y01667*
X02435Y0167*
X0243Y01671*
G37*
G36*
X00967Y0165D02*
X00963Y01649D01*
X00959Y01646*
X00956Y01642*
X00955Y01638*
X00956Y01633*
X00959Y01629*
X00963Y01626*
X00967Y01625*
X00972Y01626*
X00976Y01629*
X00978Y01633*
X00979Y01638*
X00978Y01642*
X00976Y01646*
X00972Y01649*
X00967Y0165*
G37*
G36*
X01075Y01645D02*
X01071Y01644D01*
X01067Y01641*
X01064Y01637*
X01063Y01633*
X01064Y01628*
X01067Y01624*
X01071Y01621*
X01075Y0162*
X0108Y01621*
X01084Y01624*
X01086Y01628*
X01087Y01633*
X01086Y01637*
X01084Y01641*
X0108Y01644*
X01075Y01645*
G37*
G36*
X02593Y01664D02*
X02588Y01663D01*
X02584Y01661*
X02582Y01657*
X02581Y01652*
X02582Y01648*
X02584Y01644*
Y01641*
X02582Y01637*
X02581Y01632*
X02582Y01628*
X02584Y01624*
X02588Y01621*
X02593Y0162*
X02597Y01621*
X02601Y01624*
X02604Y01628*
X02605Y01632*
X02604Y01637*
X02601Y01641*
Y01644*
X02604Y01648*
X02605Y01652*
X02604Y01657*
X02601Y01661*
X02597Y01663*
X02593Y01664*
G37*
G36*
X00194Y01642D02*
X00187Y01641D01*
X0018Y01638*
X00174Y01633*
X0017Y01628*
X00167Y01621*
X00166Y01614*
X00167Y01606*
X0017Y01599*
X00174Y01594*
X0018Y01589*
X00187Y01586*
X00194Y01585*
X00202Y01586*
X00208Y01589*
X00214Y01594*
X00219Y01599*
X00221Y01606*
X00222Y01614*
X00221Y01621*
X00219Y01628*
X00214Y01633*
X00208Y01638*
X00202Y01641*
X00194Y01642*
G37*
G36*
X01894Y0161D02*
X01889Y01609D01*
X01885Y01606*
X01883Y01602*
X01882Y01598*
X01883Y01593*
X01885Y01589*
Y01586*
X01883Y01582*
X01882Y01578*
X01883Y01573*
X01885Y01569*
X01889Y01567*
X01894Y01566*
X01898Y01567*
X01902Y01569*
X01905Y01573*
X01906Y01578*
X01905Y01582*
X01902Y01586*
Y01589*
X01905Y01593*
X01906Y01598*
X01905Y01602*
X01902Y01606*
X01898Y01609*
X01894Y0161*
G37*
G36*
X0243Y01607D02*
X02426Y01606D01*
X02422Y01603*
X02419Y01599*
X02418Y01595*
X02419Y0159*
X02422Y01586*
Y01584*
X02419Y0158*
X02418Y01575*
X02419Y0157*
X02422Y01566*
X02426Y01564*
X0243Y01563*
X02435Y01564*
X02439Y01566*
X02441Y0157*
X02442Y01575*
X02441Y0158*
X02439Y01584*
Y01586*
X02441Y0159*
X02442Y01595*
X02441Y01599*
X02439Y01603*
X02435Y01606*
X0243Y01607*
G37*
G36*
X02593Y01605D02*
X02588Y01604D01*
X02584Y01602*
X02582Y01598*
X02581Y01593*
X02582Y01589*
X02584Y01585*
Y01582*
X02582Y01578*
X02581Y01573*
X02582Y01569*
X02584Y01565*
X02588Y01562*
X02593Y01561*
X02597Y01562*
X02601Y01565*
X02604Y01569*
X02605Y01573*
X02604Y01578*
X02601Y01582*
Y01585*
X02604Y01589*
X02605Y01593*
X02604Y01598*
X02601Y01602*
X02597Y01604*
X02593Y01605*
G37*
G36*
X02385Y01573D02*
X0238Y01572D01*
X02376Y01569*
X02373Y01565*
X02373Y0156*
X02373Y01556*
X02376Y01552*
X0238Y01549*
X02385Y01548*
X02389Y01549*
X02393Y01552*
X02396Y01556*
X02397Y0156*
X02396Y01565*
X02393Y01569*
X02389Y01572*
X02385Y01573*
G37*
G36*
X01865Y01578D02*
X0186Y01577D01*
X01856Y01574*
X01854Y0157*
X01853Y01566*
X01854Y01561*
X01856Y01557*
Y01554*
X01854Y0155*
X01853Y01546*
X01854Y01541*
X01856Y01537*
X0186Y01535*
X01865Y01534*
X01869Y01535*
X01873Y01537*
X01876Y01541*
X01877Y01546*
X01876Y0155*
X01873Y01554*
Y01557*
X01876Y01561*
X01877Y01566*
X01876Y0157*
X01873Y01574*
X01869Y01577*
X01865Y01578*
G37*
G36*
X01894Y01546D02*
X01889Y01545D01*
X01885Y01542*
X01883Y01538*
X01882Y01534*
X01883Y01529*
X01885Y01525*
Y01522*
X01883Y01519*
X01882Y01514*
X01883Y01509*
X01885Y01505*
X01889Y01503*
X01894Y01502*
X01898Y01503*
X01902Y01505*
X01905Y01509*
X01906Y01514*
X01905Y01519*
X01902Y01522*
Y01525*
X01905Y01529*
X01906Y01534*
X01905Y01538*
X01902Y01542*
X01898Y01545*
X01894Y01546*
G37*
G36*
X02593Y01545D02*
X02588Y01544D01*
X02584Y01542*
X02582Y01538*
X02581Y01533*
X02582Y01529*
X02583Y01527*
X02584Y01523*
X02583Y0152*
X02582Y01518*
X02581Y01513*
X02582Y01509*
X02584Y01505*
X02588Y01502*
X02593Y01501*
X02597Y01502*
X02601Y01505*
X02604Y01509*
X02605Y01513*
X02604Y01518*
X02603Y0152*
X02602Y01523*
X02603Y01527*
X02604Y01529*
X02605Y01533*
X02604Y01538*
X02601Y01542*
X02597Y01544*
X02593Y01545*
G37*
G36*
X0243Y01545D02*
X02426Y01544D01*
X02422Y01541*
X02419Y01537*
X02418Y01533*
X02419Y01528*
X02422Y01524*
Y01521*
X02419Y01517*
X02418Y01513*
X02419Y01508*
X02422Y01504*
X02426Y01502*
X0243Y01501*
X02435Y01502*
X02439Y01504*
X02441Y01508*
X02442Y01513*
X02441Y01517*
X02439Y01521*
Y01524*
X02441Y01528*
X02442Y01533*
X02441Y01537*
X02439Y01541*
X02435Y01544*
X0243Y01545*
G37*
G36*
X0029Y01508D02*
X00285Y01507D01*
X00281Y01504*
X00278Y015*
X00277Y01496*
X00278Y01491*
X00281Y01487*
X00285Y01484*
X0029Y01483*
X00294Y01484*
X00298Y01487*
X00301Y01491*
X00302Y01496*
X00301Y015*
X00298Y01504*
X00294Y01507*
X0029Y01508*
G37*
G36*
X01137Y01505D02*
X01133Y01504D01*
X01129Y01501*
X01126Y01497*
X01125Y01493*
X01126Y01488*
X01129Y01484*
X01133Y01481*
X01137Y0148*
X01142Y01481*
X01146Y01484*
X01148Y01488*
X01149Y01493*
X01148Y01497*
X01146Y01501*
X01142Y01504*
X01137Y01505*
G37*
G36*
X01926Y015D02*
X01921Y01499D01*
X01917Y01496*
X01915Y01492*
X01914Y01488*
X01915Y01483*
X01917Y01479*
X01921Y01476*
X01926Y01475*
X0193Y01476*
X01934Y01479*
X01937Y01483*
X01938Y01488*
X01937Y01492*
X01934Y01496*
X0193Y01499*
X01926Y015*
G37*
G36*
X01017Y01485D02*
X01013Y01484D01*
X01009Y01481*
X01006Y01477*
X01005Y01473*
X01006Y01468*
X01009Y01464*
X01013Y01461*
X01017Y0146*
X01022Y01461*
X01026Y01464*
X01028Y01468*
X01029Y01473*
X01028Y01477*
X01026Y01481*
X01022Y01484*
X01017Y01485*
G37*
G36*
X02593Y01487D02*
X02588Y01486D01*
X02584Y01484*
X02582Y0148*
X02581Y01475*
X02582Y01471*
X02584Y01467*
Y01464*
X02582Y0146*
X02581Y01455*
X02582Y01451*
X02584Y01447*
X02588Y01444*
X02593Y01443*
X02597Y01444*
X02601Y01447*
X02604Y01451*
X02605Y01455*
X02604Y0146*
X02601Y01464*
Y01467*
X02604Y01471*
X02605Y01475*
X02604Y0148*
X02601Y01484*
X02597Y01486*
X02593Y01487*
G37*
G36*
X0065Y01467D02*
X00645Y01466D01*
X00641Y01463*
X00638Y01459*
X00638Y01455*
X00638Y0145*
X00641Y01446*
X00645Y01443*
X0065Y01443*
X00654Y01443*
X00658Y01446*
X00661Y0145*
X00662Y01455*
X00661Y01459*
X00658Y01463*
X00654Y01466*
X0065Y01467*
G37*
G36*
X0243Y01481D02*
X02426Y01481D01*
X02422Y01478*
X02419Y01474*
X02418Y01469*
X02419Y01465*
X02422Y01461*
Y01458*
X02419Y01454*
X02418Y0145*
X02419Y01445*
X02422Y01441*
X02426Y01438*
X0243Y01437*
X02435Y01438*
X02439Y01441*
X02441Y01445*
X02442Y0145*
X02441Y01454*
X0244Y01456*
X02439Y01459*
X0244Y01463*
X02441Y01465*
X02442Y01469*
X02441Y01474*
X02439Y01478*
X02435Y01481*
X0243Y01481*
G37*
G36*
X01593Y01627D02*
X01588Y01627D01*
X01584Y01624*
X01582Y0162*
X01581Y01615*
X01582Y01611*
X01584Y01607*
Y01604*
X01582Y016*
X01581Y01596*
X01582Y01591*
X01584Y01587*
Y01586*
X01582Y01582*
X01581Y01577*
X01582Y01572*
X01583Y0157*
X01581Y01565*
X01581Y01565*
X01421*
X01416Y01563*
X01271Y01418*
X01269Y01419*
X01264Y01418*
X0126Y01415*
X01257Y01411*
X01257Y01406*
X01257Y01402*
X0126Y01398*
X01264Y01395*
X01269Y01394*
X01273Y01395*
X01277Y01398*
X0128Y01402*
X01281Y01406*
X0128Y01409*
X01423Y01552*
X01587*
X01592Y01554*
X01596Y01559*
X01598Y01563*
Y01566*
X01601Y01568*
X01604Y01572*
X01605Y01577*
X01604Y01582*
X01601Y01586*
Y01587*
X01604Y01591*
X01605Y01596*
X01604Y016*
X01601Y01604*
Y01607*
X01604Y01611*
X01605Y01615*
X01604Y0162*
X01601Y01624*
X01598Y01627*
X01593Y01627*
G37*
G36*
X01146Y01419D02*
X01141Y01418D01*
X01137Y01415*
X01134*
X0113Y01418*
X01126Y01419*
X01121Y01418*
X01117Y01415*
X01115Y01411*
X01114Y01406*
X01115Y01402*
X01117Y01398*
X01121Y01395*
X01126Y01394*
X0113Y01395*
X01134Y01398*
X01137*
X01141Y01395*
X01146Y01394*
X0115Y01395*
X01154Y01398*
X01157Y01402*
X01158Y01406*
X01157Y01411*
X01154Y01415*
X0115Y01418*
X01146Y01419*
G37*
G36*
X01865Y01483D02*
X0186Y01482D01*
X01856Y01479*
X01854Y01475*
X01853Y01471*
X01854Y01466*
X01856Y01462*
Y01459*
X01854Y01456*
X01853Y01451*
X01854Y01446*
X01856Y01442*
X0186Y0144*
X01865Y01439*
X01869Y0144*
X01873Y01442*
X01874Y01444*
X01874Y01444*
X01879Y01442*
X01879Y01441*
X01879Y01439*
X01879Y01435*
X01882Y01431*
Y01428*
X01879Y01424*
X01879Y01419*
X01879Y01415*
X01882Y01411*
X01886Y01408*
X01891Y01407*
X01895Y01408*
X01899Y01411*
X01902Y01415*
X01903Y01419*
X01902Y01424*
X01899Y01428*
Y01431*
X01902Y01435*
X01903Y01439*
X01902Y01444*
X01899Y01448*
X01895Y0145*
X01891Y01451*
X01886Y0145*
X01882Y01448*
X01881Y01446*
X01881Y01446*
X01876Y01448*
X01876Y01449*
X01877Y01451*
X01876Y01456*
X01873Y01459*
Y01462*
X01876Y01466*
X01877Y01471*
X01876Y01475*
X01873Y01479*
X01869Y01482*
X01865Y01483*
G37*
G36*
X02593Y01427D02*
X02588Y01426D01*
X02584Y01424*
X02582Y0142*
X02581Y01415*
X02582Y01411*
X02584Y01407*
Y01404*
X02582Y014*
X02581Y01395*
X02582Y01391*
X02584Y01387*
X02588Y01384*
X02593Y01383*
X02597Y01384*
X02601Y01387*
X02604Y01391*
X02605Y01395*
X02604Y014*
X02601Y01404*
Y01407*
X02604Y01411*
X02605Y01415*
X02604Y0142*
X02601Y01424*
X02597Y01426*
X02593Y01427*
G37*
G36*
X0243Y01416D02*
X02426Y01415D01*
X02422Y01413*
X02419Y01409*
X02418Y01404*
X02419Y01399*
X02422Y01395*
Y01393*
X02419Y01389*
X02418Y01384*
X02419Y0138*
X02422Y01376*
X02426Y01373*
X0243Y01372*
X02435Y01373*
X02439Y01376*
X02441Y0138*
X02442Y01384*
X02441Y01389*
X02439Y01393*
Y01395*
X02441Y01399*
X02442Y01404*
X02441Y01409*
X02439Y01413*
X02435Y01415*
X0243Y01416*
G37*
G36*
X00786Y01385D02*
X00782Y01384D01*
X00778Y01381*
X00775Y01377*
X00774Y01373*
X00775Y01368*
X00778Y01364*
X00782Y01361*
X00786Y0136*
X00791Y01361*
X00795Y01364*
X00797Y01368*
X00798Y01373*
X00797Y01377*
X00795Y01381*
X00791Y01384*
X00786Y01385*
G37*
G36*
X02848Y01375D02*
X02843Y01374D01*
X02839Y01371*
X02837Y01367*
X02836Y01363*
X02837Y01358*
X02839Y01354*
X02843Y01351*
X02848Y01351*
X02852Y01351*
X02856Y01354*
X02859Y01358*
X0286Y01363*
X02859Y01367*
X02856Y01371*
X02852Y01374*
X02848Y01375*
G37*
G36*
X00392Y01345D02*
X00388Y01344D01*
X00384Y01341*
X00381Y01337*
X0038Y01333*
X00381Y01328*
X00384Y01324*
X00388Y01321*
X00392Y0132*
X00397Y01321*
X00401Y01324*
X00403Y01328*
X00404Y01333*
X00403Y01337*
X00401Y01341*
X00397Y01344*
X00392Y01345*
G37*
G36*
X02312Y01336D02*
X02308Y01335D01*
X02304Y01332*
X02301Y01329*
X023Y01324*
X02301Y01323*
X023Y01319*
X02297Y01318*
X02295Y01317*
X02291Y01315*
X02285Y01315*
X02281Y01317*
X02277Y01318*
X02272Y01317*
X02268Y01315*
X02266Y01311*
X02265Y01306*
X02266Y01302*
X02268Y01298*
X02272Y01295*
X02277Y01294*
X02281Y01295*
X02285Y01298*
X02291Y01297*
X02295Y01295*
X023Y01294*
X02304Y01295*
X02308Y01297*
X02311Y01301*
X02312Y01306*
X02312Y01307*
X02312Y01311*
X02315Y01312*
X02317Y01313*
X02321Y01315*
X02324Y01319*
X02325Y01324*
X02324Y01329*
X02321Y01332*
X02317Y01335*
X02312Y01336*
G37*
G36*
X01903Y01322D02*
X01899Y01321D01*
X01895Y01318*
X01892Y01314*
X01891Y0131*
X01892Y01305*
X01895Y01301*
X01899Y01298*
X01903Y01298*
X01908Y01298*
X01912Y01301*
X01914Y01305*
X01915Y0131*
X01914Y01314*
X01912Y01318*
X01908Y01321*
X01903Y01322*
G37*
G36*
X00842Y01321D02*
X00837Y0132D01*
X00833Y01317*
X0083Y01313*
X00829Y01308*
X0083Y01304*
X00833Y013*
X00837Y01297*
X00842Y01296*
X00846Y01297*
X0085Y013*
X00853Y01304*
X00854Y01308*
X00853Y01313*
X0085Y01317*
X00846Y0132*
X00842Y01321*
G37*
G36*
X02894Y01299D02*
X0289Y01298D01*
X02886Y01295*
X02883Y01291*
X02882Y01287*
X02883Y01282*
X02886Y01278*
X0289Y01275*
X02894Y01274*
X02899Y01275*
X02903Y01278*
X02905Y01282*
X02906Y01287*
X02905Y01291*
X02903Y01295*
X02899Y01298*
X02894Y01299*
G37*
G36*
X00671Y01291D02*
X00667Y0129D01*
X00663Y01287*
X0066Y01283*
X00659Y01279*
X0066Y01274*
X00663Y0127*
X00667Y01267*
X00671Y01266*
X00676Y01267*
X0068Y0127*
X00682Y01274*
X00683Y01279*
X00682Y01283*
X0068Y01287*
X00676Y0129*
X00671Y01291*
G37*
G36*
X00631D02*
X00627Y0129D01*
X00623Y01287*
X0062Y01283*
X00619Y01279*
X0062Y01274*
X00623Y0127*
X00627Y01267*
X00631Y01266*
X00636Y01267*
X0064Y0127*
X00642Y01274*
X00643Y01279*
X00642Y01283*
X0064Y01287*
X00636Y0129*
X00631Y01291*
G37*
G36*
X01177Y01281D02*
X01173Y0128D01*
X01169Y01277*
X01166Y01274*
X01165Y01269*
X01166Y01264*
X01169Y0126*
X01173Y01258*
X01177Y01257*
X01182Y01258*
X01186Y0126*
X01189Y01264*
X0119Y01269*
X01189Y01274*
X01186Y01277*
X01182Y0128*
X01177Y01281*
G37*
G36*
X00494Y01271D02*
X0049Y0127D01*
X00486Y01267*
X00483Y01263*
X00482Y01259*
X00483Y01254*
X00486Y0125*
X0049Y01247*
X00494Y01246*
X00499Y01247*
X00503Y0125*
X00505Y01254*
X00506Y01259*
X00505Y01263*
X00503Y01267*
X00499Y0127*
X00494Y01271*
G37*
G36*
X00804Y01269D02*
X008Y01268D01*
X00796Y01265*
X00793Y01261*
X00792Y01257*
X00793Y01252*
X00796Y01248*
X008Y01245*
X00804Y01244*
X00809Y01245*
X00813Y01248*
X00815Y01252*
X00816Y01257*
X00815Y01261*
X00813Y01265*
X00809Y01268*
X00804Y01269*
G37*
G36*
X02104Y01257D02*
X02099Y01256D01*
X02095Y01254*
X02093Y0125*
X02092Y01245*
X02093Y0124*
X02095Y01236*
X02099Y01234*
X02104Y01233*
X02108Y01234*
X02112Y01236*
X02115Y0124*
X02116Y01245*
X02115Y0125*
X02112Y01254*
X02108Y01256*
X02104Y01257*
G37*
G36*
X02919Y01245D02*
X02914Y01244D01*
X0291Y01241*
X02908Y01237*
X02907Y01233*
X02908Y01228*
X0291Y01224*
X02914Y01222*
X02919Y01221*
X02923Y01222*
X02927Y01224*
X0293Y01228*
X02931Y01233*
X0293Y01237*
X02927Y01241*
X02923Y01244*
X02919Y01245*
G37*
G36*
X02693Y01242D02*
X02689Y01241D01*
X02685Y01238*
X02682Y01234*
X02681Y0123*
X02682Y01225*
X02685Y01221*
X02689Y01218*
X02693Y01217*
X02698Y01218*
X02702Y01221*
X02704Y01225*
X02705Y0123*
X02704Y01234*
X02702Y01238*
X02698Y01241*
X02693Y01242*
G37*
G36*
X01212Y01251D02*
X01207Y0125D01*
X01203Y01247*
X01201Y01244*
X012Y01239*
X012Y01237*
X01201Y01234*
X01197Y01231*
X01196Y01231*
X01192Y01229*
X0119Y01225*
X01189Y0122*
X0119Y01215*
X01192Y01211*
X01196Y01209*
X01201Y01208*
X01206Y01209*
X0121Y01211*
X01212Y01215*
X01213Y0122*
X01213Y01222*
X01212Y01225*
X01216Y01228*
X01216Y01228*
X0122Y0123*
X01223Y01234*
X01224Y01239*
X01223Y01244*
X0122Y01247*
X01216Y0125*
X01212Y01251*
G37*
G36*
X00472Y0123D02*
X00468Y01229D01*
X00464Y01226*
X00461Y01222*
X0046Y01218*
X00461Y01213*
X00464Y01209*
X00468Y01206*
X00472Y01205*
X00477Y01206*
X00481Y01209*
X00483Y01213*
X00484Y01218*
X00483Y01222*
X00481Y01226*
X00477Y01229*
X00472Y0123*
G37*
G36*
X00804Y01229D02*
X008Y01228D01*
X00796Y01226*
X00793Y01222*
X00792Y01217*
X00793Y01213*
X00796Y01209*
X008Y01206*
X00804Y01205*
X00809Y01206*
X00813Y01209*
X00815Y01213*
X00816Y01217*
X00815Y01222*
X00813Y01226*
X00809Y01228*
X00804Y01229*
G37*
G36*
X02789Y01221D02*
X02784Y0122D01*
X0278Y01218*
X02777Y01214*
X02777Y01209*
X02777Y01205*
X0278Y01201*
X02784Y01198*
X02789Y01197*
X02793Y01198*
X02797Y01201*
X028Y01205*
X02801Y01209*
X028Y01214*
X02797Y01218*
X02793Y0122*
X02789Y01221*
G37*
G36*
X02582Y01219D02*
X02578Y01218D01*
X02574Y01215*
X02571Y01211*
X0257Y01207*
X02571Y01202*
X02574Y01198*
X02578Y01195*
X02582Y01194*
X02587Y01195*
X02591Y01198*
X02593Y01202*
X02594Y01207*
X02593Y01211*
X02591Y01215*
X02587Y01218*
X02582Y01219*
G37*
G36*
X02619Y01212D02*
X02615Y01211D01*
X02611Y01208*
X02608Y01204*
X02607Y012*
X02608Y01195*
X02611Y01191*
X02615Y01188*
X02619Y01187*
X02624Y01188*
X02628Y01191*
X0263Y01195*
X02631Y012*
X0263Y01204*
X02628Y01208*
X02624Y01211*
X02619Y01212*
G37*
G36*
X00392Y01191D02*
X00388Y0119D01*
X00384Y01187*
X00381Y01183*
X0038Y01179*
X00381Y01174*
X00384Y0117*
X00388Y01167*
X00392Y01166*
X00397Y01167*
X00401Y0117*
X00403Y01174*
X00404Y01179*
X00403Y01183*
X00401Y01187*
X00397Y0119*
X00392Y01191*
G37*
G36*
X00735Y01189D02*
X00731Y01188D01*
X00727Y01186*
X00724Y01182*
X00723Y01177*
X00724Y01173*
X00727Y01169*
X00731Y01166*
X00735Y01165*
X0074Y01166*
X00744Y01169*
X00746Y01173*
X00747Y01177*
X00746Y01182*
X00744Y01186*
X0074Y01188*
X00735Y01189*
G37*
G36*
X02582Y01185D02*
X02578Y01184D01*
X02574Y01181*
X02571Y01178*
X0257Y01173*
X02571Y01168*
X02574Y01164*
X02578Y01162*
X02582Y01161*
X02587Y01162*
X02591Y01164*
X02594Y01168*
X02595Y01173*
X02594Y01178*
X02591Y01181*
X02587Y01184*
X02582Y01185*
G37*
G36*
X02365Y01255D02*
Y01137D01*
X02483*
X02482Y01152*
X02477Y01171*
X0247Y01189*
X0246Y01205*
X02447Y0122*
X02433Y01232*
X02416Y01242*
X02399Y0125*
X0238Y01254*
X02365Y01255*
G37*
G36*
X02357D02*
X02342Y01254D01*
X02323Y0125*
X02305Y01242*
X02289Y01232*
X02274Y0122*
X02262Y01205*
X02252Y01189*
X02244Y01171*
X0224Y01152*
X02239Y01137*
X02357*
Y01255*
G37*
G36*
X01042D02*
Y01137D01*
X0116*
X01159Y01152*
X01155Y01171*
X01147Y01189*
X01137Y01205*
X01125Y0122*
X0111Y01232*
X01094Y01242*
X01076Y0125*
X01057Y01254*
X01042Y01255*
G37*
G36*
X01034D02*
X01019Y01254D01*
X01Y0125*
X00982Y01242*
X00966Y01232*
X00951Y0122*
X00939Y01205*
X00929Y01189*
X00922Y01171*
X00917Y01152*
X00916Y01137*
X01034*
Y01255*
G37*
G36*
X01038Y01133D02*
D01*
G37*
G36*
X00401Y01151D02*
X00397Y0115D01*
X00393Y01147*
X0039Y01143*
X00389Y01139*
X0039Y01134*
X00393Y0113*
X00397Y01127*
X00401Y01126*
X00406Y01127*
X0041Y0113*
X00412Y01134*
X00413Y01139*
X00412Y01143*
X0041Y01147*
X00406Y0115*
X00401Y01151*
G37*
G36*
X00497Y01145D02*
X00493Y01144D01*
X00489Y01141*
X00486Y01137*
X00485Y01133*
X00486Y01128*
X00489Y01124*
X00493Y01121*
X00497Y0112*
X00502Y01121*
X00506Y01124*
X00508Y01128*
X00509Y01133*
X00508Y01137*
X00506Y01141*
X00502Y01144*
X00497Y01145*
G37*
G36*
X01893Y01143D02*
X01889Y01142D01*
X01885Y0114*
X01882Y01136*
X01881Y01131*
X01882Y01127*
X01885Y01123*
X01889Y0112*
X01893Y01119*
X01898Y0112*
X01902Y01123*
X01905Y01127*
X01906Y01131*
X01905Y01136*
X01902Y0114*
X01898Y01142*
X01893Y01143*
G37*
G36*
X00735Y0113D02*
X00731Y01129D01*
X00727Y01127*
X00724Y01123*
X00723Y01118*
X00724Y01114*
X00727Y0111*
X00731Y01107*
X00735Y01106*
X0074Y01107*
X00744Y0111*
X00746Y01114*
X00747Y01118*
X00746Y01123*
X00744Y01127*
X0074Y01129*
X00735Y0113*
G37*
G36*
X02672Y01126D02*
X02668Y01125D01*
X02664Y01122*
X02661Y01119*
X0266Y01114*
X02661Y01109*
X02664Y01105*
X02668Y01103*
X02672Y01102*
X02677Y01103*
X02681Y01105*
X02684Y01109*
X02685Y01114*
X02684Y01119*
X02681Y01122*
X02677Y01125*
X02672Y01126*
G37*
G36*
X00472Y0111D02*
X00468Y01109D01*
X00464Y01107*
X00461Y01103*
X0046Y01098*
X00461Y01094*
X00464Y0109*
X00468Y01087*
X00472Y01086*
X00477Y01087*
X00481Y0109*
X00483Y01094*
X00484Y01098*
X00483Y01103*
X00481Y01107*
X00477Y01109*
X00472Y0111*
G37*
G36*
X01937Y01138D02*
X01933Y01137D01*
X01929Y01134*
X01926Y0113*
X01925Y01126*
X01926Y01121*
X01929Y01117*
X01933Y01115*
X01937Y01114*
X01942Y01115*
X01943Y01116*
X01949Y01114*
X01949Y01113*
X01952Y01109*
X01956Y01107*
X0196Y01106*
X01965Y01107*
X01969Y01109*
X0197Y01111*
X01975Y0111*
X01975Y0111*
X01978Y01106*
X0198Y01105*
X01982Y011*
X01981Y01096*
X01982Y01091*
X01985Y01087*
X01989Y01084*
X01993Y01083*
X01998Y01084*
X02002Y01087*
X02004Y01091*
X02005Y01096*
X02004Y011*
X02002Y01104*
X02Y01105*
X01998Y0111*
X01999Y01114*
X01998Y01119*
X01995Y01123*
X01991Y01125*
X01986Y01126*
X01982Y01125*
X01978Y01123*
X01977Y01121*
X01971Y01122*
X01971Y01122*
X01969Y01126*
X01965Y01129*
X0196Y0113*
X01956Y01129*
X01954Y01128*
X01949Y0113*
X01948Y0113*
X01946Y01134*
X01942Y01137*
X01937Y01138*
G37*
G36*
X0217Y01232D02*
X02166Y01232D01*
X02162Y01229*
X02159Y01225*
X02158Y0122*
X02159Y01216*
X02162Y01212*
X02162Y01212*
Y01209*
X0216Y01205*
X02159Y01201*
X0216Y01196*
X02162Y01192*
X02162Y01187*
X0216Y01185*
X02159Y0118*
X0216Y01176*
X02163Y01172*
Y01169*
X0216Y01165*
X02159Y0116*
X0216Y01156*
X02163Y01152*
X02163Y01146*
X02161Y01144*
X0216Y01139*
X02161Y01135*
X02163Y01133*
X02164Y01129*
X02163Y01126*
X02161Y01124*
X0216Y01119*
X02161Y01114*
X02164Y0111*
Y01107*
X02161Y01103*
X0216Y01098*
X02161Y01094*
X02164Y0109*
Y01087*
X02161Y01083*
X0216Y01078*
X02161Y01074*
X02164Y0107*
X02168Y01067*
X02172Y01066*
X02177Y01067*
X02181Y0107*
X02184Y01074*
X02185Y01078*
X02184Y01083*
X02181Y01087*
Y0109*
X02184Y01094*
X02185Y01098*
X02184Y01103*
X02181Y01107*
Y0111*
X02184Y01114*
X02185Y01119*
X02184Y01124*
X02182Y01126*
X02181Y01129*
X02182Y01133*
X02184Y01135*
X02185Y01139*
X02184Y01144*
X02181Y01148*
X02181Y01154*
X02183Y01156*
X02184Y0116*
X02183Y01165*
X0218Y01169*
Y01172*
X02183Y01176*
X02184Y0118*
X02183Y01185*
X0218Y01189*
X02181Y01194*
X02182Y01196*
X02183Y01201*
X02182Y01205*
X02179Y01209*
X02179Y01209*
Y01212*
X02182Y01216*
X02183Y0122*
X02182Y01225*
X02179Y01229*
X02175Y01232*
X0217Y01232*
G37*
G36*
X00735Y01091D02*
X00731Y0109D01*
X00727Y01088*
X00724Y01084*
X00723Y01079*
X00724Y01075*
X00727Y01071*
Y01067*
X00724Y01063*
X00723Y01059*
X00724Y01054*
X00727Y0105*
X00731Y01047*
X00735Y01046*
X0074Y01047*
X00744Y0105*
X00746Y01054*
X00747Y01059*
X00746Y01063*
X00744Y01067*
Y01071*
X00746Y01075*
X00747Y01079*
X00746Y01084*
X00744Y01088*
X0074Y0109*
X00735Y01091*
G37*
G36*
X02357Y01129D02*
X02239D01*
X0224Y01114*
X02244Y01095*
X02252Y01078*
X02262Y01061*
X02274Y01047*
X02289Y01034*
X02305Y01024*
X02323Y01017*
X02342Y01012*
X02357Y01011*
Y01129*
G37*
G36*
X0116D02*
X01042D01*
Y01011*
X01057Y01012*
X01076Y01017*
X01094Y01024*
X0111Y01034*
X01125Y01047*
X01137Y01061*
X01147Y01078*
X01155Y01095*
X01159Y01114*
X0116Y01129*
G37*
G36*
X01034D02*
X00916D01*
X00917Y01114*
X00922Y01095*
X00929Y01078*
X00939Y01061*
X00951Y01047*
X00966Y01034*
X00982Y01024*
X01Y01017*
X01019Y01012*
X01034Y01011*
Y01129*
G37*
G36*
X02483D02*
X02365D01*
Y01011*
X0238Y01012*
X02399Y01017*
X02416Y01024*
X02433Y01034*
X02447Y01047*
X0246Y01061*
X0247Y01078*
X02477Y01095*
X02482Y01114*
X02483Y01129*
G37*
G36*
X01841Y01033D02*
X01837Y01032D01*
X01833Y01029*
X0183Y01025*
X01829Y01021*
X0183Y01016*
X01833Y01012*
X01837Y01009*
X01841Y01009*
X01846Y01009*
X0185Y01012*
X01852Y01016*
X01853Y01021*
X01852Y01025*
X0185Y01029*
X01846Y01032*
X01841Y01033*
G37*
G36*
X00612Y01029D02*
X00608Y01028D01*
X00604Y01025*
X00601Y01021*
X006Y01017*
X00601Y01012*
X00604Y01008*
X00608Y01005*
X00612Y01004*
X00617Y01005*
X00621Y01008*
X00623Y01012*
X00624Y01017*
X00623Y01021*
X00621Y01025*
X00617Y01028*
X00612Y01029*
G37*
G36*
X02215Y01075D02*
X02211Y01074D01*
X02207Y01072*
X02204Y01068*
X02203Y01063*
X02204Y01059*
X02207Y01055*
X02211Y01052*
X02215Y01051*
X0222Y01052*
X02224Y01055*
X02224Y01055*
X02229Y01054*
X0223Y01052*
X02232Y01048*
X02236Y01045*
X02237Y01045*
X0224Y01041*
X0224Y0104*
X02239Y01037*
X0224Y01032*
X02242Y0103*
X02243Y01027*
X02242Y01022*
X02241Y01021*
X0224Y01016*
X0224Y01015*
X02241Y01012*
X02237Y01009*
X02237Y01009*
X02233Y01007*
X0223Y01003*
X0223Y01003*
X02225Y01001*
X02223Y01002*
X02218Y01003*
X02214Y01002*
X0221Y01*
X02207Y00996*
X02206Y00991*
X02207Y00986*
X0221Y00983*
X02214Y0098*
X02218Y00979*
X02223Y0098*
X02227Y00983*
X02229Y00986*
X02229Y00987*
X02235Y00988*
X02237Y00987*
X02241Y00986*
X02246Y00987*
X0225Y0099*
X02252Y00994*
X02253Y00998*
X02253Y01*
X02252Y01003*
X02257Y01005*
X02257Y01005*
X02261Y01008*
X02263Y01012*
X02264Y01016*
X02263Y01021*
X02262Y01023*
X02261Y01026*
X02262Y0103*
X02263Y01032*
X02264Y01037*
X02263Y01041*
X0226Y01045*
X02256Y01048*
X02255Y01048*
X02252Y01051*
X02252Y01053*
X02253Y01056*
X02252Y01061*
X02249Y01065*
X02245Y01067*
X02241Y01068*
X02236Y01067*
X02232Y01065*
X02232Y01065*
X02227Y01066*
X02226Y01068*
X02224Y01072*
X0222Y01074*
X02215Y01075*
G37*
G36*
X01813Y01005D02*
X01808Y01004D01*
X01804Y01001*
X01801Y00997*
X018Y00993*
X01801Y00988*
X01804Y00984*
X01808Y00982*
X01812Y00981*
X01813Y0098*
X01814Y00976*
X01812Y00974*
X01809Y00971*
X01807Y00971*
X01804Y00972*
X01804Y00975*
X01801Y00979*
X01797Y00982*
X01792Y00983*
X01788Y00982*
X01784Y00979*
X01781Y00975*
X0178Y0097*
X01781Y00966*
X01784Y00962*
X01788Y00959*
X01792Y00958*
X01797Y00959*
X01801Y00962*
X01803Y00965*
X01806Y00965*
X01808Y00964*
X01809Y00961*
X01812Y00957*
X01815Y00954*
X0182Y00953*
X01825Y00954*
X01829Y00957*
X01831Y00961*
X01832Y00966*
X01835Y0097*
X01836Y0097*
X0184Y0097*
X01843Y00973*
X01846Y00977*
X01847Y00982*
X01846Y00986*
X01843Y0099*
X0184Y00993*
X01835Y00994*
X0183Y00993*
X01829Y00992*
X01829Y00992*
X01824Y00995*
X01824Y00997*
X01821Y01001*
X01817Y01004*
X01813Y01005*
G37*
G36*
X029Y00999D02*
X02879D01*
Y00969*
X02919*
Y0098*
X02918Y00987*
X02914Y00994*
X02907Y00998*
X029Y00999*
G37*
G36*
X02871D02*
X02851D01*
X02844Y00998*
X02837Y00994*
X02833Y00987*
X02832Y0098*
Y00969*
X02871*
Y00999*
G37*
G36*
X0109Y00997D02*
X01086Y00996D01*
X01082Y00993*
X01079Y00989*
X01078Y00985*
X01079Y0098*
X01082Y00976*
X01086Y00973*
X0109Y00972*
X01095Y00973*
X01099Y00976*
X011Y00977*
X01104Y00975*
X01104Y00975*
X01105Y0097*
X01108Y00966*
X01112Y00963*
X01116Y00962*
X01121Y00963*
X01125Y00966*
X01127Y0097*
X01128Y00975*
X01127Y00979*
X01125Y00983*
X01121Y00986*
X01116Y00987*
X01112Y00986*
X01108Y00983*
X01107Y00982*
X01102Y00984*
X01102Y00985*
X01101Y00989*
X01099Y00993*
X01095Y00996*
X0109Y00997*
G37*
G36*
X02519Y00983D02*
X02515Y00982D01*
X02511Y00979*
X02508Y00975*
X02507Y00971*
X02508Y00966*
X02511Y00962*
X02515Y00959*
X02519Y00959*
X02524Y00959*
X02528Y00962*
X02531Y00966*
X02532Y00971*
X02531Y00975*
X02528Y00979*
X02524Y00982*
X02519Y00983*
G37*
G36*
X00478Y00979D02*
X00474Y00978D01*
X0047Y00975*
X00467Y00971*
X00466Y00967*
X00467Y00962*
X0047Y00958*
X00474Y00955*
X00478Y00954*
X00483Y00955*
X00487Y00958*
X00489Y00962*
X0049Y00967*
X00489Y00971*
X00487Y00975*
X00483Y00978*
X00478Y00979*
G37*
G36*
X01645Y0097D02*
X01641Y00969D01*
X01637Y00966*
X01634Y00962*
X01633Y00957*
X01634Y00953*
X01637Y00949*
X01641Y00946*
X01645Y00945*
X0165Y00946*
X01654Y00949*
X01657Y00953*
X01657Y00957*
X01657Y00962*
X01654Y00966*
X0165Y00969*
X01645Y0097*
G37*
G36*
X02062Y00962D02*
X02058Y00961D01*
X02054Y00959*
X02051Y00955*
X0205Y0095*
X02051Y00946*
X02054Y00942*
X02058Y00939*
X02062Y00938*
X02067Y00939*
X02071Y00942*
X02073Y00946*
X02074Y0095*
X02073Y00955*
X02071Y00959*
X02067Y00961*
X02062Y00962*
G37*
G36*
X02642Y00956D02*
X02638Y00955D01*
X02634Y00952*
X02631Y00948*
X0263Y00944*
X02631Y00939*
X02634Y00935*
X02638Y00932*
X02642Y00931*
X02647Y00932*
X02651Y00935*
X02653Y00939*
X02654Y00944*
X02653Y00948*
X02651Y00952*
X02647Y00955*
X02642Y00956*
G37*
G36*
X02919Y00961D02*
X02879D01*
Y00931*
X029*
X02907Y00933*
X02914Y00937*
X02918Y00943*
X02919Y0095*
Y00961*
G37*
G36*
X02871D02*
X02832D01*
Y0095*
X02833Y00943*
X02837Y00937*
X02844Y00933*
X02851Y00931*
X02871*
Y00961*
G37*
G36*
X01604Y00953D02*
X01599Y00952D01*
X01596Y00949*
X01593Y00945*
X01592Y0094*
X01593Y00936*
X01596Y00932*
X01599Y00929*
X01604Y00928*
X01609Y00929*
X01613Y00932*
X01615Y00936*
X01616Y0094*
X01615Y00945*
X01613Y00949*
X01609Y00952*
X01604Y00953*
G37*
G36*
X0173Y00941D02*
X01725Y00941D01*
X01721Y00938*
X01718Y00934*
X01718Y00929*
X01718Y00925*
X01721Y00921*
X01725Y00918*
X0173Y00917*
X01734Y00918*
X01738Y00921*
X01741Y00925*
X01742Y00929*
X01741Y00934*
X01738Y00938*
X01734Y00941*
X0173Y00941*
G37*
G36*
X0268Y00934D02*
X02676Y00933D01*
X02672Y0093*
X02669Y00926*
X02668Y00922*
X02669Y00917*
X02672Y00913*
X02676Y0091*
X0268Y00909*
X02685Y0091*
X02689Y00913*
X02691Y00917*
X02692Y00922*
X02691Y00926*
X02689Y0093*
X02685Y00933*
X0268Y00934*
G37*
G36*
X02062Y00918D02*
X02058Y00917D01*
X02054Y00915*
X02051Y00911*
X0205Y00906*
X02051Y00901*
X02054Y00898*
X02058Y00895*
X02062Y00894*
X02067Y00895*
X02071Y00898*
X02073Y00901*
X02074Y00906*
X02073Y00911*
X02071Y00915*
X02067Y00917*
X02062Y00918*
G37*
G36*
X02566Y009D02*
X02561Y009D01*
X02557Y00897*
X02555Y00893*
X02554Y00888*
X02555Y00884*
X02557Y0088*
X02561Y00877*
X02566Y00876*
X0257Y00877*
X02574Y0088*
X02577Y00884*
X02578Y00888*
X02577Y00893*
X02574Y00897*
X0257Y009*
X02566Y009*
G37*
G36*
X01193Y00899D02*
X01189Y00898D01*
X01185Y00895*
X01182Y00891*
X01181Y00887*
X01182Y00882*
X01185Y00878*
X01189Y00875*
X01193Y00874*
X01198Y00875*
X01202Y00878*
X01204Y00882*
X01205Y00887*
X01204Y00891*
X01202Y00895*
X01198Y00898*
X01193Y00899*
G37*
G36*
X02157Y00895D02*
X02152Y00894D01*
X02148Y00892*
X02146Y00888*
X02145Y00883*
X02146Y00878*
X02148Y00874*
X02152Y00872*
X02157Y00871*
X02161Y00872*
X02165Y00874*
X02168Y00878*
X02169Y00883*
X02168Y00888*
X02165Y00892*
X02161Y00894*
X02157Y00895*
G37*
G36*
X01589Y00895D02*
X01585Y00894D01*
X01581Y00891*
X01578Y00887*
X01577Y00882*
X01578Y00878*
X01581Y00874*
X01585Y00871*
X01589Y0087*
X01594Y00871*
X01598Y00874*
X01601Y00878*
X01602Y00882*
X01601Y00887*
X01598Y00891*
X01594Y00894*
X01589Y00895*
G37*
G36*
X01703Y00893D02*
X01698Y00892D01*
X01694Y0089*
X01691Y00886*
X0169Y00881*
X01691Y00877*
X01694Y00873*
X01698Y0087*
X01703Y00869*
X01707Y0087*
X01711Y00873*
X01714Y00877*
X01715Y00881*
X01714Y00886*
X01711Y0089*
X01707Y00892*
X01703Y00893*
G37*
G36*
X02331Y00948D02*
X02327Y00947D01*
X02323Y00945*
X0232Y00941*
X0232Y00937*
X02281Y00898*
X02279Y00895*
X02278Y00892*
X02278Y00892*
X02276Y00889*
X02275Y00886*
Y00858*
X02275Y00853*
X02275*
X02275Y00853*
X02275*
X02275Y00848*
X02275Y00833*
X02273Y0083*
X02272Y00826*
X02273Y00821*
X02276Y00817*
X0228Y00814*
X02284Y00813*
X02289Y00814*
X02293Y00817*
X02295Y00821*
X02296Y00826*
X02295Y0083*
X02293Y00833*
X02293Y00848*
X02294Y00853*
Y00853*
X02293Y00858*
Y00885*
X02294Y00885*
X02333Y00924*
X02336Y00925*
X0234Y00928*
X02343Y00932*
X02344Y00936*
X02343Y00941*
X0234Y00945*
X02336Y00947*
X02331Y00948*
G37*
G36*
X029Y0092D02*
X02851D01*
X02844Y00919*
X02837Y00915*
X02833Y00909*
X02832Y00901*
Y00872*
X02833Y00864*
X02837Y00858*
X02844Y00854*
X02851Y00853*
X029*
X02907Y00854*
X02914Y00858*
X02918Y00864*
X02919Y00872*
Y00901*
X02918Y00909*
X02914Y00915*
X02907Y00919*
X029Y0092*
G37*
G36*
X02527Y0087D02*
X02523Y00869D01*
X02519Y00867*
X02516Y00863*
X02515Y00858*
X02516Y00854*
X02519Y0085*
X02523Y00847*
X02527Y00846*
X02532Y00847*
X02536Y0085*
X02538Y00854*
X02539Y00858*
X02538Y00863*
X02536Y00867*
X02532Y00869*
X02527Y0087*
G37*
G36*
X02044Y00877D02*
X02039Y00876D01*
X02035Y00874*
X02032Y0087*
X02032Y00865*
X02032Y0086*
X02035Y00857*
X02038Y00854*
X02039Y00854*
X0204Y00849*
X0204Y00848*
X02039Y00843*
X0204Y00838*
X02042Y00835*
X02046Y00832*
X02051Y00831*
X02055Y00832*
X02059Y00835*
X02062Y00838*
X02063Y00843*
X02062Y00848*
X02059Y00852*
X02056Y00854*
X02055Y00854*
X02054Y0086*
X02055Y0086*
X02056Y00865*
X02055Y0087*
X02052Y00874*
X02048Y00876*
X02044Y00877*
G37*
G36*
X02241Y00848D02*
X02236Y00847D01*
X02233Y00844*
X0223Y0084*
X02229Y00836*
X0223Y00831*
X02233Y00827*
X02236Y00825*
X02241Y00824*
X02246Y00825*
X0225Y00827*
X02252Y00831*
X02253Y00836*
X02252Y0084*
X0225Y00844*
X02246Y00847*
X02241Y00848*
G37*
G36*
X02162Y00843D02*
X02158Y00842D01*
X02154Y00839*
X02151Y00835*
X0215Y00831*
X02151Y00826*
X02154Y00822*
X02158Y00819*
X02162Y00818*
X02167Y00819*
X02171Y00822*
X02173Y00826*
X02174Y00831*
X02173Y00835*
X02171Y00839*
X02167Y00842*
X02162Y00843*
G37*
G36*
X01106Y00842D02*
X01102Y00841D01*
X01098Y00838*
X01095Y00834*
X01094Y0083*
X01095Y00825*
X01098Y00821*
X01102Y00818*
X01106Y00817*
X01111Y00818*
X01115Y00821*
X01117Y00825*
X01118Y0083*
X01117Y00834*
X01115Y00838*
X01111Y00841*
X01106Y00842*
G37*
G36*
X01901Y00832D02*
X01896Y00831D01*
X01892Y00829*
X0189Y00825*
X01889Y0082*
X0189Y00816*
X01892Y00812*
X01896Y00809*
X01901Y00808*
X01906Y00809*
X01909Y00812*
X01912Y00816*
X01913Y0082*
X01912Y00825*
X01909Y00829*
X01906Y00831*
X01901Y00832*
G37*
G36*
X0195Y00879D02*
X01946Y00879D01*
X01942Y00876*
X01939Y00872*
X01938Y00867*
X01939Y00863*
X0194Y00861*
X01941Y00856*
X01939Y00852*
X01938Y00848*
X01939Y00843*
X0194Y00841*
X01941Y00838*
X0194Y00834*
X01939Y00832*
X01938Y00827*
X01939Y00823*
X0194Y00821*
X0194Y00815*
X01937Y00812*
X01936Y00807*
X01937Y00802*
X0194Y00798*
X01944Y00796*
X01948Y00795*
X01953Y00796*
X01957Y00798*
X0196Y00802*
X01961Y00807*
X0196Y00812*
X01959Y00813*
X01958Y00819*
X01961Y00823*
X01962Y00827*
X01961Y00832*
X0196Y00834*
X01959Y00837*
X0196Y00841*
X01961Y00843*
X01962Y00848*
X01961Y00852*
X0196Y00854*
X01959Y00859*
X01962Y00863*
X01962Y00867*
X01962Y00872*
X01959Y00876*
X01955Y00879*
X0195Y00879*
G37*
G36*
X01867Y00813D02*
X01862Y00812D01*
X01859Y00809*
X01856Y00806*
X01855Y00801*
X01856Y00796*
X01859Y00792*
X01862Y0079*
X01867Y00789*
X01872Y0079*
X01875Y00792*
X01876Y00792*
X0188Y00791*
X01881Y00787*
X01884Y00783*
X01888Y00781*
X01892Y0078*
X01897Y00781*
X01901Y00783*
X01903Y00787*
X01904Y00792*
X01903Y00796*
X01901Y008*
X01897Y00803*
X01892Y00804*
X01888Y00803*
X01884Y00801*
X01883Y00801*
X01879Y00802*
X01878Y00806*
X01876Y00809*
X01872Y00812*
X01867Y00813*
G37*
G36*
X02056Y00797D02*
X02051Y00797D01*
X02047Y00794*
X02045Y0079*
X02044Y00785*
X02045Y00781*
X02047Y00777*
X02051Y00774*
X02056Y00773*
X0206Y00774*
X02064Y00777*
X02067Y00781*
X02068Y00785*
X02067Y0079*
X02064Y00794*
X0206Y00797*
X02056Y00797*
G37*
G36*
X01928Y00789D02*
X01923Y00788D01*
X01919Y00786*
X01916Y00782*
X01915Y00777*
X01916Y00773*
X01919Y00769*
X01923Y00766*
X01928Y00765*
X01932Y00766*
X01936Y00769*
X01939Y00773*
X0194Y00777*
X01939Y00782*
X01936Y00786*
X01932Y00788*
X01928Y00789*
G37*
G36*
X01861Y00782D02*
X01856Y00782D01*
X01852Y00779*
X0185Y00775*
X01849Y0077*
X0185Y00766*
X01852Y00762*
X01856Y00759*
X01861Y00758*
X01865Y00759*
X01869Y00762*
X01872Y00766*
X01873Y0077*
X01872Y00775*
X01869Y00779*
X01865Y00782*
X01861Y00782*
G37*
G36*
X01571Y00767D02*
X01566Y00766D01*
X01562Y00763*
X0156Y00759*
X01559Y00755*
X0156Y0075*
X01562Y00746*
X01566Y00744*
X01571Y00743*
X01575Y00744*
X01579Y00746*
X01582Y0075*
X01583Y00755*
X01582Y00759*
X01579Y00763*
X01575Y00766*
X01571Y00767*
G37*
G36*
X01304Y00762D02*
X013Y00761D01*
X01296Y00758*
X01293Y00754*
X01292Y0075*
X01293Y00745*
X01296Y00741*
X013Y00739*
X01304Y00738*
X01309Y00739*
X01313Y00741*
X01316Y00745*
X01316Y0075*
X01316Y00754*
X01313Y00758*
X01309Y00761*
X01304Y00762*
G37*
G36*
X00433Y00746D02*
X00429Y00745D01*
X00425Y00742*
X00422Y00738*
X00421Y00734*
X00422Y00729*
X00425Y00725*
X00429Y00722*
X00433Y00721*
X00438Y00722*
X00442Y00725*
X00444Y00729*
X00445Y00734*
X00444Y00738*
X00442Y00742*
X00438Y00745*
X00433Y00746*
G37*
G36*
X02282Y0073D02*
X02277Y0073D01*
X02273Y00727*
X02271Y00723*
X0227Y00718*
X02271Y00714*
X02273Y0071*
X02277Y00707*
X02282Y00706*
X02287Y00707*
X0229Y0071*
X02293Y00714*
X02294Y00718*
X02293Y00723*
X0229Y00727*
X02287Y0073*
X02282Y0073*
G37*
G36*
X01621Y00727D02*
X01617Y00726D01*
X01613Y00723*
X0161Y00719*
X01609Y00715*
X0161Y0071*
X01613Y00706*
X01617Y00704*
X01621Y00703*
X01626Y00704*
X0163Y00706*
X01632Y0071*
X01633Y00715*
X01632Y00719*
X0163Y00723*
X01626Y00726*
X01621Y00727*
G37*
G36*
X01909Y00721D02*
X01905Y0072D01*
X01901Y00717*
X01898Y00713*
X01897Y00708*
X01898Y00704*
X01901Y007*
X01905Y00697*
X01909Y00696*
X01914Y00697*
X01918Y007*
X01921Y00704*
X01922Y00708*
X01921Y00713*
X01918Y00717*
X01914Y0072*
X01909Y00721*
G37*
G36*
X02847Y00784D02*
X02828D01*
X02816Y00782*
X02806Y00778*
X02797Y00771*
X0279Y00762*
X02785Y00751*
X02784Y0074*
X02785Y00729*
X0279Y00718*
X02797Y00709*
X02806Y00702*
X02816Y00698*
X02828Y00696*
X02847*
X02859Y00698*
X02869Y00702*
X02878Y00709*
X02885Y00718*
X0289Y00729*
X02891Y0074*
X0289Y00751*
X02885Y00762*
X02878Y00771*
X02869Y00778*
X02859Y00782*
X02847Y00784*
G37*
G36*
X00093Y00755D02*
X00085Y00754D01*
X00078Y00751*
X00072Y00746*
X00067Y0074*
X00064Y00733*
X00063Y00725*
X00064Y00717*
X00067Y0071*
X00072Y00704*
X00078Y00699*
X00085Y00696*
X00093Y00695*
X00101Y00696*
X00108Y00699*
X00114Y00704*
X00119Y0071*
X00122Y00717*
X00123Y00725*
X00122Y00733*
X00119Y0074*
X00114Y00746*
X00108Y00751*
X00101Y00754*
X00093Y00755*
G37*
G36*
X02307Y00712D02*
X02302Y00711D01*
X02298Y00709*
X02296Y00705*
X02295Y007*
X02296Y00695*
X02298Y00691*
X02302Y00689*
X02307Y00688*
X02312Y00689*
X02315Y00691*
X02318Y00695*
X02319Y007*
X02318Y00705*
X02315Y00709*
X02312Y00711*
X02307Y00712*
G37*
G36*
X01587Y00678D02*
X01582Y00677D01*
X01578Y00675*
X01576Y00671*
X01575Y00666*
X01576Y00662*
X01578Y00658*
X01582Y00655*
X01587Y00654*
X01591Y00655*
X01595Y00658*
X01598Y00662*
X01599Y00666*
X01598Y00671*
X01595Y00675*
X01591Y00677*
X01587Y00678*
G37*
G36*
X02847Y00684D02*
X02841D01*
Y00644*
X0289*
X0289Y00651*
X02885Y00662*
X02878Y00671*
X02869Y00678*
X02859Y00682*
X02847Y00684*
G37*
G36*
X02833D02*
X02828D01*
X02816Y00682*
X02806Y00678*
X02797Y00671*
X0279Y00662*
X02785Y00651*
X02784Y00644*
X02833*
Y00684*
G37*
G36*
X00275Y00663D02*
X0027Y00662D01*
X00266Y00659*
X00263Y00655*
X00262Y00651*
X00263Y00646*
X00266Y00642*
X0027Y00639*
X00275Y00638*
X00279Y00639*
X00283Y00642*
X00286Y00646*
X00287Y00651*
X00286Y00655*
X00283Y00659*
X00279Y00662*
X00275Y00663*
G37*
G36*
X01024Y0076D02*
X01013Y00759D01*
X01001Y00755*
X00991Y0075*
X00982Y00742*
X00975Y00733*
X00969Y00723*
X00966Y00712*
X00965Y007*
Y00685*
X00966Y00673*
X00969Y00662*
X00975Y00651*
X00982Y00642*
X00991Y00635*
X01001Y00629*
X01013Y00626*
X01024Y00625*
X01036Y00626*
X01047Y00629*
X01057Y00635*
X01066Y00642*
X01074Y00651*
X01079Y00662*
X01083Y00673*
X01084Y00685*
Y007*
X01083Y00712*
X01079Y00723*
X01074Y00733*
X01066Y00742*
X01057Y0075*
X01047Y00755*
X01036Y00759*
X01024Y0076*
G37*
G36*
X00796D02*
X00784Y00759D01*
X00773Y00755*
X00763Y0075*
X00754Y00742*
X00746Y00733*
X00741Y00723*
X00737Y00712*
X00736Y007*
Y00685*
X00737Y00673*
X00741Y00662*
X00746Y00651*
X00754Y00642*
X00763Y00635*
X00773Y00629*
X00784Y00626*
X00796Y00625*
X00808Y00626*
X00819Y00629*
X00829Y00635*
X00838Y00642*
X00846Y00651*
X00851Y00662*
X00854Y00673*
X00856Y00685*
Y007*
X00854Y00712*
X00851Y00723*
X00846Y00733*
X00838Y00742*
X00829Y0075*
X00819Y00755*
X00808Y00759*
X00796Y0076*
G37*
G36*
X00093Y00677D02*
X00085Y00675D01*
X00078Y00672*
X00072Y00668*
X00067Y00662*
X00064Y00654*
X00063Y00647*
X00064Y00639*
X00067Y00631*
X00072Y00625*
X00078Y00621*
X00085Y00618*
X00093Y00616*
X00101Y00618*
X00108Y00621*
X00114Y00625*
X00119Y00631*
X00122Y00639*
X00123Y00647*
X00122Y00654*
X00119Y00662*
X00114Y00668*
X00108Y00672*
X00101Y00675*
X00093Y00677*
G37*
G36*
X01562Y00628D02*
X01558Y00627D01*
X01554Y00625*
X01551Y00621*
X0155Y00616*
X01551Y00612*
X01554Y00608*
X01558Y00605*
X01562Y00604*
X01567Y00605*
X01571Y00608*
X01573Y00612*
X01574Y00616*
X01573Y00621*
X01571Y00625*
X01567Y00627*
X01562Y00628*
G37*
G36*
X01946Y00628D02*
X01942Y00627D01*
X01938Y00624*
X01935Y00621*
X01934Y00616*
X01935Y00611*
X01938Y00607*
X01942Y00605*
X01946Y00604*
X01951Y00605*
X01955Y00607*
X01958Y00611*
X01959Y00616*
X01958Y00621*
X01955Y00624*
X01951Y00627*
X01946Y00628*
G37*
G36*
X01523Y00623D02*
X01518Y00622D01*
X01514Y00619*
X01512Y00615*
X01511Y0061*
X01512Y00606*
X01514Y00602*
X01518Y00599*
X01523Y00598*
X01527Y00599*
X01531Y00602*
X01534Y00606*
X01535Y0061*
X01534Y00615*
X01531Y00619*
X01527Y00622*
X01523Y00623*
G37*
G36*
X01607Y00622D02*
X01602Y00621D01*
X01598Y00618*
X01595Y00615*
X01594Y0061*
X01595Y00605*
X01598Y00601*
X01602Y00599*
X01607Y00598*
X01611Y00599*
X01615Y00601*
X01618Y00605*
X01619Y0061*
X01618Y00615*
X01615Y00618*
X01611Y00621*
X01607Y00622*
G37*
G36*
X0289Y00636D02*
X02841D01*
Y00596*
X02847*
X02859Y00598*
X02869Y00602*
X02878Y00609*
X02885Y00618*
X0289Y00629*
X0289Y00636*
G37*
G36*
X02833D02*
X02784D01*
X02785Y00629*
X0279Y00618*
X02797Y00609*
X02806Y00602*
X02816Y00598*
X02828Y00596*
X02833*
Y00636*
G37*
G36*
X02336Y00596D02*
X02331Y00595D01*
X02327Y00592*
X02326*
X02322Y00595*
X02317Y00596*
X02313Y00595*
X02311Y00593*
X02307Y00592*
X02304Y00593*
X02302Y00595*
X02297Y00596*
X02293Y00595*
X02291Y00593*
X02287Y00592*
X02284Y00593*
X02282Y00595*
X02277Y00596*
X02273Y00595*
X02269Y00592*
X02266Y00588*
X02265Y00583*
X02266Y00579*
X02269Y00575*
Y00572*
X02266Y00568*
X02265Y00563*
X02266Y00559*
X02269Y00555*
Y00552*
X02266Y00548*
X02265Y00543*
X02266Y00539*
X02269Y00535*
X02273Y00532*
X02277Y00531*
X02282Y00532*
X02284Y00533*
X02287Y00535*
X02291Y00533*
X02293Y00532*
X02297Y00531*
X02302Y00532*
X02304Y00533*
X02307Y00535*
X02311Y00533*
X02313Y00532*
X02317Y00531*
X02322Y00532*
X02326Y00535*
X02329Y00539*
X0233Y00543*
X02329Y00548*
X02328Y00548*
X0233Y00551*
X02332Y00552*
X02336Y00552*
X0234Y00553*
X02344Y00555*
X02347Y00559*
X02348Y00564*
X02347Y00568*
X02346Y0057*
X02345Y00574*
X02346Y00577*
X02347Y00579*
X02348Y00583*
X02347Y00588*
X02344Y00592*
X0234Y00595*
X02336Y00596*
G37*
G36*
X0135Y00604D02*
X01345Y00603D01*
X01341Y006*
X01339Y00596*
X01338Y00592*
X01339Y00587*
X01341Y00583*
X01345Y00581*
X0135Y0058*
X01354Y00581*
X01358Y00583*
X01361Y00587*
X01362Y00592*
X01361Y00596*
X01358Y006*
X01354Y00603*
X0135Y00604*
G37*
G36*
X01308D02*
X01303Y00603D01*
X01299Y006*
X01297Y00596*
X01296Y00592*
X01297Y00587*
X01299Y00583*
X01303Y00581*
X01308Y0058*
X01312Y00581*
X01316Y00583*
X01319Y00587*
X0132Y00592*
X01319Y00596*
X01316Y006*
X01312Y00603*
X01308Y00604*
G37*
G36*
X01263D02*
X01258Y00603D01*
X01254Y006*
X01252Y00596*
X01251Y00592*
X01252Y00587*
X01254Y00583*
X01258Y00581*
X01263Y0058*
X01267Y00581*
X01271Y00583*
X01274Y00587*
X01275Y00592*
X01274Y00596*
X01271Y006*
X01267Y00603*
X01263Y00604*
G37*
G36*
X02095Y00604D02*
X02091Y00603D01*
X02087Y006*
X02084Y00596*
X02083Y00592*
X02084Y00587*
X02087Y00583*
X02091Y0058*
X02095Y00579*
X021Y0058*
X02104Y00583*
X02106Y00587*
X02107Y00592*
X02106Y00596*
X02104Y006*
X021Y00603*
X02095Y00604*
G37*
G36*
X01435Y00602D02*
X01431Y00601D01*
X01427Y00598*
X01424Y00594*
X01423Y0059*
X01424Y00585*
X01427Y00581*
X01431Y00578*
X01435Y00577*
X0144Y00578*
X01444Y00581*
X01446Y00585*
X01447Y0059*
X01446Y00594*
X01444Y00598*
X0144Y00601*
X01435Y00602*
G37*
G36*
X02559Y00572D02*
X02554Y00572D01*
X0255Y00569*
X02548Y00565*
X02547Y0056*
X02548Y00556*
X0255Y00552*
Y00549*
X02548Y00545*
X02547Y0054*
X02548Y00536*
X0255Y00532*
X02554Y00529*
X02559Y00528*
X02563Y00529*
X02567Y00532*
X0257Y00536*
X02571Y0054*
X0257Y00545*
X02567Y00549*
Y00552*
X0257Y00556*
X02571Y0056*
X0257Y00565*
X02567Y00569*
X02563Y00572*
X02559Y00572*
G37*
G36*
X02509D02*
X02504Y00572D01*
X025Y00569*
X02498Y00565*
X02497Y0056*
X02498Y00556*
X025Y00552*
Y00549*
X02498Y00545*
X02497Y0054*
X02498Y00536*
X025Y00532*
X02504Y00529*
X02509Y00528*
X02513Y00529*
X02517Y00532*
X0252Y00536*
X02521Y0054*
X0252Y00545*
X02517Y00549*
Y00552*
X0252Y00556*
X02521Y0056*
X0252Y00565*
X02517Y00569*
X02513Y00572*
X02509Y00572*
G37*
G36*
X00333Y00551D02*
X00329Y0055D01*
X00325Y00547*
X00322Y00543*
X00321Y00539*
X00322Y00534*
X00325Y0053*
X00329Y00527*
X00333Y00526*
X00338Y00527*
X00342Y0053*
X00344Y00534*
X00345Y00539*
X00344Y00543*
X00342Y00547*
X00338Y0055*
X00333Y00551*
G37*
G36*
X00504Y00546D02*
X005Y00545D01*
X00496Y00542*
X00493Y00538*
X00492Y00534*
X00493Y00529*
X00496Y00525*
X005Y00522*
X00504Y00521*
X00509Y00522*
X00513Y00525*
X00515Y00529*
X00516Y00534*
X00515Y00538*
X00513Y00542*
X00509Y00545*
X00504Y00546*
G37*
G36*
X02609Y00602D02*
X02604Y00602D01*
X026Y00599*
X02598Y00595*
X02597Y0059*
X02598Y00586*
X026Y00582*
Y00579*
X02598Y00575*
X02597Y0057*
X02598Y00566*
X026Y00562*
Y00559*
X02598Y00555*
X02597Y0055*
X02598Y00546*
X026Y00542*
Y00539*
X02598Y00535*
X02597Y0053*
X02598Y00526*
X026Y00522*
X02604Y00519*
X02609Y00518*
X02613Y00519*
X02617Y00522*
X0262Y00526*
X02621Y0053*
X0262Y00535*
X02617Y00539*
Y00542*
X0262Y00546*
X02621Y0055*
X0262Y00555*
X02617Y00559*
Y00562*
X0262Y00566*
X02621Y0057*
X0262Y00575*
X02617Y00579*
Y00582*
X0262Y00586*
X02621Y0059*
X0262Y00595*
X02617Y00599*
X02613Y00602*
X02609Y00602*
G37*
G36*
X02459D02*
X02454Y00602D01*
X0245Y00599*
X02448Y00595*
X02447Y0059*
X02448Y00586*
X0245Y00582*
Y00579*
X02448Y00575*
X02447Y0057*
X02448Y00566*
X0245Y00562*
Y00559*
X02448Y00555*
X02447Y0055*
X02448Y00546*
X0245Y00542*
Y00539*
X02448Y00535*
X02447Y0053*
X02448Y00526*
X0245Y00522*
X02454Y00519*
X02459Y00518*
X02463Y00519*
X02467Y00522*
X0247Y00526*
X02471Y0053*
X0247Y00535*
X02467Y00539*
Y00542*
X0247Y00546*
X02471Y0055*
X0247Y00555*
X02467Y00559*
Y00562*
X0247Y00566*
X02471Y0057*
X0247Y00575*
X02467Y00579*
Y00582*
X0247Y00586*
X02471Y0059*
X0247Y00595*
X02467Y00599*
X02463Y00602*
X02459Y00602*
G37*
G36*
X00098Y00509D02*
Y00483D01*
X00124*
X00123Y00487*
X0012Y00494*
X00115Y005*
X00109Y00505*
X00102Y00508*
X00098Y00509*
G37*
G36*
X0009D02*
X00086Y00508D01*
X00079Y00505*
X00073Y005*
X00068Y00494*
X00065Y00487*
X00065Y00483*
X0009*
Y00509*
G37*
G36*
X00637Y00492D02*
X00633Y00491D01*
X00629Y00488*
X00626Y00484*
X00625Y0048*
X00626Y00475*
X00629Y00471*
X00633Y00468*
X00637Y00467*
X00642Y00468*
X00646Y00471*
X00648Y00475*
X00649Y0048*
X00648Y00484*
X00646Y00488*
X00642Y00491*
X00637Y00492*
G37*
G36*
X02535Y00491D02*
X0253Y0049D01*
X02526Y00487*
X02524Y00483*
X02523Y00478*
X02524Y00474*
X02526Y0047*
X0253Y00467*
X02535Y00466*
X0254Y00467*
X02543Y0047*
X02546Y00474*
X02547Y00478*
X02546Y00483*
X02543Y00487*
X0254Y0049*
X02535Y00491*
G37*
G36*
X02485D02*
X02481Y0049D01*
X02477Y00487*
X02474Y00483*
X02473Y00478*
X02474Y00474*
X02477Y0047*
X02481Y00467*
X02485Y00466*
X0249Y00467*
X02494Y0047*
X02496Y00474*
X02497Y00478*
X02496Y00483*
X02494Y00487*
X0249Y0049*
X02485Y00491*
G37*
G36*
X02434D02*
X02429Y0049D01*
X02425Y00487*
X02423Y00483*
X02422Y00478*
X02423Y00474*
X02425Y0047*
X02429Y00467*
X02434Y00466*
X02438Y00467*
X02442Y0047*
X02445Y00474*
X02446Y00478*
X02445Y00483*
X02442Y00487*
X02438Y0049*
X02434Y00491*
G37*
G36*
X0182Y00486D02*
X01816Y00485D01*
X01812Y00482*
X01809Y00478*
X01808Y00474*
X01809Y00469*
X01812Y00465*
X01816Y00462*
X0182Y00461*
X01825Y00462*
X01829Y00465*
X01831Y00469*
X01832Y00474*
X01831Y00478*
X01829Y00482*
X01825Y00485*
X0182Y00486*
G37*
G36*
X02067Y0048D02*
X02063Y00479D01*
X02059Y00476*
X02056Y00473*
X02055Y00468*
X02056Y00463*
X02059Y00459*
X02063Y00457*
X02067Y00456*
X02072Y00457*
X02076Y00459*
X02078Y00463*
X02079Y00468*
X02078Y00473*
X02076Y00476*
X02072Y00479*
X02067Y0048*
G37*
G36*
X0009Y00475D02*
X00065D01*
X00065Y00471*
X00068Y00464*
X00073Y00458*
X00079Y00453*
X00086Y0045*
X0009Y0045*
Y00475*
G37*
G36*
X00124D02*
X00098D01*
Y0045*
X00102Y0045*
X00109Y00453*
X00115Y00458*
X0012Y00464*
X00123Y00471*
X00124Y00475*
G37*
G36*
X01713Y00455D02*
X017Y00453D01*
X01689Y00449*
X01679Y00441*
X01671Y00431*
X01666Y00419*
X01666Y00419*
X01388*
X0138Y00418*
X01373Y00415*
X01367Y0041*
X01366Y00409*
X0136Y0041*
X01359Y00412*
X01355Y00414*
X0135Y00415*
X01346Y00414*
X01342Y00412*
X01339Y00408*
X01338Y00403*
X01339Y00399*
X01342Y00395*
X01346Y00392*
X0135Y00391*
X01353Y00392*
X01357Y00389*
X01358Y00388*
X01359Y00381*
X01362Y00373*
X01367Y00367*
X01373Y00362*
X0138Y00359*
X01388Y00358*
X01665*
Y00344*
X01666Y00332*
X01671Y0032*
X01679Y0031*
X01689Y00302*
X017Y00298*
X01713Y00296*
X01725Y00298*
X01737Y00302*
X01746Y0031*
X01754Y0032*
X01759Y00332*
X01761Y00344*
Y00407*
X01759Y00419*
X01754Y00431*
X01746Y00441*
X01737Y00449*
X01725Y00453*
X01713Y00455*
G37*
G36*
X0091Y00713D02*
X009Y00711D01*
X0089Y00707*
X00882Y00701*
X00876Y00693*
X00872Y00683*
X0087Y00673*
X00872Y00662*
X00876Y00653*
X00882Y00645*
X0089Y00638*
X00896Y00636*
Y00631*
X0089Y00628*
X00882Y00622*
X00876Y00614*
X00872Y00604*
X0087Y00594*
X00872Y00584*
X00876Y00574*
X00882Y00566*
X0089Y0056*
X00896Y00557*
Y00552*
X0089Y0055*
X00882Y00543*
X00876Y00535*
X00872Y00526*
X0087Y00515*
X00872Y00505*
X00876Y00495*
X00882Y00487*
X0089Y00481*
X00896Y00479*
Y00473*
X0089Y00471*
X00882Y00465*
X00876Y00456*
X00872Y00447*
X0087Y00437*
X00872Y00426*
X00876Y00417*
X00882Y00408*
X0089Y00402*
X009Y00398*
X0091Y00397*
X0092Y00398*
X0093Y00402*
X00938Y00408*
X00945Y00417*
X00949Y00426*
X0095Y00437*
X00949Y00447*
X00945Y00456*
X00938Y00465*
X0093Y00471*
X00925Y00473*
Y00479*
X0093Y00481*
X00938Y00487*
X00945Y00495*
X00949Y00505*
X0095Y00515*
X00949Y00526*
X00945Y00535*
X00938Y00543*
X0093Y0055*
X00925Y00552*
Y00557*
X0093Y0056*
X00938Y00566*
X00945Y00574*
X00949Y00584*
X0095Y00594*
X00949Y00604*
X00945Y00614*
X00938Y00622*
X0093Y00628*
X00925Y00631*
Y00636*
X0093Y00638*
X00938Y00645*
X00945Y00653*
X00949Y00662*
X0095Y00673*
X00949Y00683*
X00945Y00693*
X00938Y00701*
X0093Y00707*
X0092Y00711*
X0091Y00713*
G37*
G36*
X00094Y00431D02*
X00086Y00429D01*
X00079Y00426*
X00073Y00422*
X00068Y00416*
X00065Y00408*
X00064Y00401*
X00065Y00393*
X00068Y00385*
X00073Y00379*
X00079Y00375*
X00086Y00372*
X00094Y0037*
X00102Y00372*
X00109Y00375*
X00115Y00379*
X0012Y00385*
X00123Y00393*
X00124Y00401*
X00123Y00408*
X0012Y00416*
X00115Y00422*
X00109Y00426*
X00102Y00429*
X00094Y00431*
G37*
G36*
X02674Y00357D02*
X02669Y00357D01*
X02667Y00355*
X02664Y00354*
X0266Y00355*
X02658Y00357*
X02654Y00357*
X02649Y00357*
X02647Y00355*
X02644Y00354*
X0264Y00355*
X02638Y00357*
X02634Y00357*
X02629Y00357*
X02625Y00354*
X02623Y0035*
X02622Y00345*
X02623Y00341*
X02625Y00337*
Y00334*
X02623Y0033*
X02622Y00325*
X02623Y00321*
X02625Y00317*
X02629Y00314*
X02634Y00313*
X02638Y00314*
X0264Y00315*
X02644Y00312*
X02643Y0031*
X02642Y00305*
X02643Y00301*
X02645Y00297*
X02649Y00294*
X02654Y00293*
X02658Y00294*
X0266Y00295*
X02664Y00296*
X02667Y00295*
X02669Y00294*
X02674Y00293*
X02678Y00294*
X02682Y00297*
X02685Y00301*
X02686Y00305*
X02685Y0031*
X02682Y00314*
Y00317*
X02685Y00321*
X02686Y00325*
X02685Y0033*
X02682Y00334*
Y00337*
X02685Y00341*
X02686Y00345*
X02685Y0035*
X02682Y00354*
X02678Y00357*
X02674Y00357*
G37*
G36*
X01024Y00484D02*
X01013Y00483D01*
X01001Y0048*
X00991Y00474*
X00982Y00467*
X00975Y00458*
X00969Y00448*
X00966Y00436*
X00965Y00425*
Y00409*
X00966Y00397*
X00969Y00386*
X00975Y00376*
X00982Y00367*
X00991Y00359*
X01001Y00354*
X01013Y0035*
X01024Y00349*
X01036Y0035*
X01047Y00354*
X01057Y00359*
X01066Y00367*
X01074Y00376*
X01079Y00386*
X01083Y00397*
X01084Y00409*
Y00425*
X01083Y00436*
X01079Y00448*
X01074Y00458*
X01066Y00467*
X01057Y00474*
X01047Y0048*
X01036Y00483*
X01024Y00484*
G37*
G36*
X00796D02*
X00784Y00483D01*
X00773Y0048*
X00763Y00474*
X00754Y00467*
X00746Y00458*
X00741Y00448*
X00737Y00436*
X00736Y00425*
Y00409*
X00737Y00397*
X00741Y00386*
X00746Y00376*
X00754Y00367*
X00763Y00359*
X00773Y00354*
X00784Y0035*
X00796Y00349*
X00808Y0035*
X00819Y00354*
X00829Y00359*
X00838Y00367*
X00846Y00376*
X00851Y00386*
X00854Y00397*
X00856Y00409*
Y00425*
X00854Y00436*
X00851Y00448*
X00846Y00458*
X00838Y00467*
X00829Y00474*
X00819Y0048*
X00808Y00483*
X00796Y00484*
G37*
G36*
X00219Y00373D02*
X00214Y00372D01*
X00211Y00369*
X00208Y00365*
X00207Y00361*
X00208Y00356*
X00211Y00352*
X00214Y00349*
X00219Y00348*
X00224Y00349*
X00228Y00352*
X0023Y00356*
X00231Y00361*
X0023Y00365*
X00228Y00369*
X00224Y00372*
X00219Y00373*
G37*
G36*
X00695Y00403D02*
X00628D01*
Y00336*
X00695*
Y00403*
G37*
G36*
X00561Y00403D02*
X00552Y00402D01*
X00544Y00399*
X00537Y00393*
X00532Y00386*
X00529Y00378*
X00527Y0037*
X00529Y00361*
X00532Y00353*
X00537Y00346*
X00544Y0034*
X00552Y00337*
X00561Y00336*
X0057Y00337*
X00578Y0034*
X00585Y00346*
X00591Y00353*
X00594Y00361*
X00595Y0037*
X00594Y00378*
X00591Y00386*
X00585Y00393*
X00578Y00399*
X0057Y00402*
X00561Y00403*
G37*
G36*
X01876Y00344D02*
X01871Y00343D01*
X01867Y0034*
X01864Y00336*
X01863Y00332*
X01864Y00327*
X01867Y00323*
X01871Y0032*
X01876Y00319*
X0188Y0032*
X01884Y00323*
X01887Y00327*
X01888Y00332*
X01887Y00336*
X01884Y0034*
X0188Y00343*
X01876Y00344*
G37*
G36*
X02283Y00457D02*
X02271Y00455D01*
X02259Y0045*
X0225Y00443*
X02242Y00433*
X02237Y00421*
X02235Y00409*
Y00342*
X02237Y0033*
X02242Y00318*
X0225Y00308*
X02259Y003*
X02271Y00296*
X02283Y00294*
X02296Y00296*
X02307Y003*
X02317Y00308*
X02325Y00318*
X0233Y0033*
X02331Y00342*
Y00409*
X0233Y00421*
X02325Y00433*
X02317Y00443*
X02307Y0045*
X02296Y00455*
X02283Y00457*
G37*
G36*
X00143Y00316D02*
X00139Y00315D01*
X00135Y00312*
X00132Y00308*
X00131Y00304*
X00132Y00299*
X00135Y00295*
X00139Y00292*
X00143Y00291*
X00148Y00292*
X00152Y00295*
X00155Y00299*
X00155Y00304*
X00155Y00308*
X00152Y00312*
X00148Y00315*
X00143Y00316*
G37*
G36*
X0037Y00301D02*
X00366Y003D01*
X00362Y00297*
X00359Y00293*
X00358Y00289*
X00359Y00284*
X00362Y0028*
X00366Y00277*
X0037Y00276*
X00375Y00277*
X00379Y0028*
X00381Y00284*
X00382Y00289*
X00381Y00293*
X00379Y00297*
X00375Y003*
X0037Y00301*
G37*
G36*
X02579Y00192D02*
X02574Y00192D01*
X0257Y00189*
X02568Y00185*
X02567Y0018*
X02568Y00176*
X0257Y00172*
X02574Y00169*
X02579Y00168*
X02583Y00169*
X02587Y00172*
X0259Y00176*
X02591Y0018*
X0259Y00185*
X02587Y00189*
X02583Y00192*
X02579Y00192*
G37*
G36*
X02656Y00191D02*
X02652Y0019D01*
X02648Y00188*
X02645Y00184*
X02644Y00179*
X02645Y00175*
X02648Y00171*
X02652Y00168*
X02656Y00167*
X02661Y00168*
X02665Y00171*
X02668Y00175*
X02669Y00179*
X02668Y00184*
X02665Y00188*
X02661Y0019*
X02656Y00191*
G37*
G36*
X0262D02*
X02616Y0019D01*
X02612Y00188*
X02609Y00184*
X02608Y00179*
X02609Y00175*
X02612Y00171*
X02616Y00168*
X0262Y00167*
X02625Y00168*
X02629Y00171*
X02632Y00175*
X02633Y00179*
X02632Y00184*
X02629Y00188*
X02625Y0019*
X0262Y00191*
G37*
G36*
X02378Y002D02*
Y00161D01*
X02417*
X02416Y00169*
X02412Y00179*
X02405Y00188*
X02396Y00195*
X02385Y002*
X02378Y002*
G37*
G36*
X02809Y00266D02*
X02798Y00265D01*
X02789Y00261*
X0278Y00254*
X02774Y00246*
X0277Y00236*
X02769Y00226*
Y00198*
X0277Y00188*
X02774Y00178*
X0278Y0017*
X02789Y00164*
X02798Y0016*
X02809Y00158*
X02819Y0016*
X02829Y00164*
X02837Y0017*
X02843Y00178*
X02847Y00188*
X02849Y00198*
Y00226*
X02847Y00236*
X02843Y00246*
X02837Y00254*
X02829Y00261*
X02819Y00265*
X02809Y00266*
G37*
G36*
X02468D02*
X02458Y00265D01*
X02448Y00261*
X0244Y00254*
X02434Y00246*
X0243Y00236*
X02428Y00226*
Y00198*
X0243Y00188*
X02434Y00178*
X0244Y0017*
X02448Y00164*
X02458Y0016*
X02468Y00158*
X02479Y0016*
X02488Y00164*
X02497Y0017*
X02503Y00178*
X02507Y00188*
X02508Y00198*
Y00226*
X02507Y00236*
X02503Y00246*
X02497Y00254*
X02488Y00261*
X02479Y00265*
X02468Y00266*
G37*
G36*
X02794Y00146D02*
X0279Y00145D01*
X02786Y00142*
X02783Y00138*
X02782Y00134*
X02783Y00129*
X02786Y00125*
X0279Y00122*
X02794Y00121*
X02799Y00122*
X02803Y00125*
X02805Y00129*
X02806Y00134*
X02805Y00138*
X02803Y00142*
X02799Y00145*
X02794Y00146*
G37*
G36*
X02283Y00201D02*
X02271Y00199D01*
X02259Y00195*
X0225Y00187*
X02242Y00177*
X02237Y00165*
X02235Y00153*
Y00125*
X02237Y00113*
X02242Y00101*
X0225Y00092*
X02259Y00084*
X02271Y00079*
X02283Y00078*
X02296Y00079*
X02307Y00084*
X02317Y00092*
X02325Y00101*
X0233Y00113*
X02331Y00125*
Y00134*
X02335Y00135*
X02336Y00135*
X02343Y00126*
X02352Y00119*
X02363Y00115*
X0237Y00114*
Y00157*
Y002*
X02363Y002*
X02352Y00195*
X02343Y00188*
X02336Y00179*
X02333Y00171*
X02327*
X02325Y00177*
X02317Y00187*
X02307Y00195*
X02296Y00199*
X02283Y00201*
G37*
G36*
X02417Y00153D02*
X02378D01*
Y00114*
X02385Y00115*
X02396Y00119*
X02405Y00126*
X02412Y00135*
X02416Y00146*
X02417Y00153*
G37*
G36*
X01547Y0014D02*
X01538Y00138D01*
X01531Y00133*
X01526Y00126*
X01525Y00118*
X01526Y00109*
X01531Y00102*
X01538Y00097*
X01547Y00095*
X01555Y00097*
X01562Y00102*
X01567Y00109*
X01569Y00118*
X01567Y00126*
X01562Y00133*
X01555Y00138*
X01547Y0014*
G37*
G36*
X01232D02*
X01223Y00138D01*
X01216Y00133*
X01211Y00126*
X0121Y00118*
X01211Y00109*
X01216Y00102*
X01223Y00097*
X01232Y00095*
X0124Y00097*
X01247Y00102*
X01252Y00109*
X01254Y00118*
X01252Y00126*
X01247Y00133*
X0124Y00138*
X01232Y0014*
G37*
G36*
X01713Y00201D02*
X017Y00199D01*
X01689Y00195*
X01679Y00187*
X01671Y00177*
X01666Y00165*
X01665Y00153*
Y00125*
X01666Y00113*
X01671Y00101*
X01679Y00092*
X01689Y00084*
X017Y00079*
X01713Y00078*
X01725Y00079*
X01737Y00084*
X01746Y00092*
X01754Y00101*
X01759Y00113*
X01761Y00125*
Y00153*
X01759Y00165*
X01754Y00177*
X01746Y00187*
X01737Y00195*
X01725Y00199*
X01713Y00201*
G37*
%LNx98_carrier_v1r2_12082022_copper_signal_1-3*%
%LPD*%
G54D10*
X02284Y00853D02*
D01*
Y00853*
Y00853*
Y00853*
Y00853*
Y00853*
X02284Y00826*
X02284Y00853D02*
Y00886D01*
X02287Y00892D02*
X02331Y00936D01*
G54D12*
X01952Y02054D02*
X02064Y02166D01*
X02068D02*
X02068Y02166D01*
X02064Y02166D02*
X02068D01*
X02068Y02166D02*
X02488D01*
X02484Y02174D02*
X02596Y02285D01*
Y02305*
X02488Y02166D02*
X02529Y02207D01*
X02561*
X02052Y02174D02*
X02484D01*
X02748Y01345D02*
X02783Y0138D01*
X02566Y02203D02*
X026D01*
X02561Y02207D02*
X02566Y02203D01*
X00216Y02603D02*
X0027Y02549D01*
X00215Y02604D02*
X00216Y02603D01*
X0027Y02258D02*
Y02549D01*
X00268Y02256D02*
X0027Y02258D01*
X0022Y02256D02*
X00268D01*
X00768Y01612D02*
X01043Y01338D01*
X00754Y01615D02*
Y01831D01*
X0074Y01617D02*
Y01884D01*
X00768Y01612D02*
Y0193D01*
X00725Y01973D02*
X00768Y0193D01*
X00754Y01615D02*
X01039Y0133D01*
X0074Y01617D02*
X01036Y01322D01*
X01592Y01574D02*
X01594Y01577D01*
X01592Y01563D02*
Y01574D01*
X01587Y01559D02*
X01592Y01563D01*
X01421Y01559D02*
X01587D01*
X01269Y01406D02*
X01421Y01559D01*
X01965Y00993D02*
X01998D01*
X0198Y00974D02*
X01983D01*
X0191Y00903D02*
X0198Y00974D01*
X0191Y00896D02*
Y00903D01*
X01841Y00828D02*
X0191Y00896D01*
X01815Y00843D02*
X01965Y00993D01*
X01647Y00843D02*
X01815D01*
X01614Y00828D02*
X01841D01*
X01904Y01772D02*
Y02127D01*
X01786D02*
X01904D01*
X018Y01668D02*
X01904Y01772D01*
Y02127D02*
Y02448D01*
X01934Y02478*
X01927Y02049D02*
X02052Y02174D01*
X01785Y01423D02*
X01849D01*
X01924Y01347*
X01947*
X02021Y01274D02*
X02397D01*
X01947Y01347D02*
X02021Y01274D01*
X018Y01438D02*
Y01668D01*
X01785Y01423D02*
X018Y01438D01*
X0072Y01626D02*
Y01923D01*
Y01626D02*
X01033Y01314D01*
X00728Y01931D02*
X00729D01*
X0072Y01923D02*
X00728Y01931D01*
X01043Y01338D02*
X01258D01*
X01347Y01093D02*
X01897D01*
X01919Y01071*
Y00969D02*
Y01071D01*
X01894Y01085D02*
X01904Y01074D01*
Y00985D02*
Y01074D01*
X01344Y01085D02*
X01894D01*
X0135Y01101D02*
X01908D01*
X01936Y01073*
X01258Y01338D02*
X01301Y01294D01*
X01255Y0133D02*
X01293Y01291D01*
Y01146D02*
Y01291D01*
X01285Y01143D02*
Y01288D01*
X01252Y01322D02*
X01285Y01288D01*
X01248Y01314D02*
X01277Y01285D01*
Y0114D02*
Y01285D01*
X01033Y01314D02*
X01248D01*
X01036Y01322D02*
X01252D01*
X01039Y0133D02*
X01255D01*
X01301Y01149D02*
Y01294D01*
Y01149D02*
X0135Y01101D01*
X01293Y01146D02*
X01347Y01093D01*
X01883Y01077D02*
X01888Y01072D01*
X0134Y01077D02*
X01883D01*
X01888Y00966D02*
Y01072D01*
X01285Y01143D02*
X01344Y01085D01*
X01277Y0114D02*
X0134Y01077D01*
X01919Y00969D02*
X0192Y00968D01*
X01936Y00993D02*
Y01073D01*
X02254Y02621D02*
Y02665D01*
X02241Y02678D02*
X02254Y02665D01*
X02241Y02678D02*
Y0271D01*
X02206Y00565D02*
X02232Y00591D01*
Y00704*
X02026Y00565D02*
X02206D01*
X02232Y00704D02*
X02256Y00728D01*
X02321Y00787D02*
X02347D01*
X02256Y00751D02*
X02286Y00782D01*
X02316*
X02321Y00787*
X02256Y00728D02*
Y00751D01*
X02347Y00787D02*
X02354Y0078D01*
X02459Y01373D02*
Y01736D01*
X02412Y01289D02*
Y01325D01*
X02459Y01373*
X02398Y01274D02*
X02412Y01289D01*
X02396Y0127D02*
X02453D01*
X02489Y01203D02*
X02499Y01193D01*
Y01051D02*
X02501Y01049D01*
X02499Y01051D02*
Y01193D01*
X02401Y00946D02*
X02501Y01046D01*
Y01049*
X02489Y01203D02*
Y0124D01*
X02453Y0127D02*
X02468Y01254D01*
X02475*
X02489Y0124*
X02401Y00874D02*
Y00946D01*
X02354Y0078D02*
X02407D01*
X02409Y00782*
X02401Y0087D02*
X02409Y00862D01*
X02401Y0087D02*
Y00874D01*
X02409Y00782D02*
Y00862D01*
X02412Y01289D02*
X02512D01*
X02536Y01265*
X02711*
X02748Y01302*
Y01345*
X01827Y02631D02*
X01908Y0255D01*
X01907Y02508D02*
Y02549D01*
X01908Y0255*
X01816Y02796D02*
X01817D01*
X01827Y02635D02*
X01838Y02645D01*
X01827Y02631D02*
Y02635D01*
X01784Y02764D02*
X01816Y02796D01*
X01784Y02659D02*
X01811Y02631D01*
X01827*
X01784Y02659D02*
Y02764D01*
G54D68*
X00921Y0254D02*
D01*
X00914Y02529*
X00908Y02518*
X00902Y02506*
X00898Y02497*
X00922Y0254D02*
D01*
X00921Y0254*
X00921Y0254*
X00921Y0254*
X00921Y0254*
X00921Y0254*
X00835Y02428D02*
D01*
X00842Y02432*
X0085Y02437*
X00857Y02442*
X00864Y02447*
X0087Y02453*
X00876Y0246*
X00881Y02467*
X00886Y02474*
X00891Y02481*
X00895Y02489*
X00898Y02497*
X00835Y02428D02*
D01*
X00833Y02428*
X00832Y02427*
X00831Y02426*
X0083Y02425*
X00829Y02424*
X00828Y02423*
X00827Y02422*
X00826Y02421*
X00826Y0242*
X00825Y02419*
X00825Y02417*
X00824Y02416*
X00824Y02415*
X00823Y02413*
X00823Y02412*
X00823Y02411*
Y0241*
X00835Y02428D02*
X00835Y02428D01*
X00746Y0261D02*
X00851D01*
X00921Y0254*
X00823Y02057D02*
Y0241D01*
X00584Y02765D02*
Y02773D01*
X00595Y02784*
X01388Y00389D02*
X017D01*
X01713Y00375*
G54D69*
X01288Y02054D02*
X0129D01*
G54D72*
X00834Y02074D02*
X01213D01*
X00824Y02064D02*
X00834Y02074D01*
G54D80*
X01007Y02456D02*
D01*
X01007Y02456*
X01007Y02456*
X01006Y02456*
X01006Y02456*
X01006Y02456*
X01037Y02456D02*
X01045Y0255D01*
X00906Y02451D02*
X01006Y02456D01*
X01007Y02456D02*
X01025D01*
X01038D01*
X02357Y00995D02*
Y01135D01*
X02219Y01135D02*
X02359D01*
X0226Y01234D02*
X02359Y01135D01*
Y01131D02*
X02458Y0123D01*
X02361Y01133D02*
X0246Y01034D01*
X00939Y01232D02*
X01038Y01133D01*
X01137Y01232*
X01038Y01133D02*
X01137Y01034D01*
X01038Y02456D02*
X01137Y02555D01*
X01037Y02456D02*
X01136Y02357D01*
X01037Y02456D02*
X01177D01*
X01037Y02315D02*
Y02455D01*
G54D81*
X02837Y0064D03*
G54D82*
X00224Y00072D03*
X005D03*
G54D83*
X00275Y00154D03*
X0045D03*
G54D84*
X00561Y0037D03*
G54D85*
X00661Y0037D03*
G54D87*
X00094Y00479D03*
Y00401D03*
X00093Y00647D03*
Y00725D03*
G54D88*
X00796Y00417D03*
X01024D03*
Y00692D03*
X00796D03*
G54D89*
X02374Y00157D03*
Y00057D03*
X02637Y02764D03*
X02537D03*
X02437D03*
X02337D03*
Y02664D03*
X02437D03*
X02537D03*
X02637D03*
X00944Y02764D03*
X00844D03*
X00744D03*
Y02664D03*
X00844D03*
X00944D03*
G54D90*
X02468Y00062D03*
X02809Y00062D03*
Y00212D03*
X02468D03*
G54D91*
X01038Y01133D03*
Y02456D03*
X02361Y01133D03*
G54D92*
X02828Y02708D03*
Y00425D03*
G54D93*
X00584Y02765D03*
X00301D03*
G54D94*
X00346Y02661D03*
X00539D03*
G54D95*
X0289Y01528D03*
Y01478D03*
X0284D03*
Y01428D03*
Y01528D03*
Y01578D03*
X0289Y01428D03*
Y01578D03*
X0284Y01628D03*
X0289D03*
G54D96*
X01713Y00375D03*
G54D97*
X02283Y00375D03*
G54D98*
X02283Y00139D03*
X01713D03*
G54D99*
X0091Y00437D03*
Y00515D03*
Y00594D03*
Y00673D03*
G54D100*
X02875Y00887D03*
Y00965D03*
G54D101*
X02837Y0064D03*
Y0074D03*
G54D102*
X00678Y02608D03*
X00715Y02609D03*
X01487Y02645D03*
X01275Y02527D03*
X01737Y02351D03*
X01702Y02378D03*
X01594Y02366D03*
X01362Y02771D03*
X01456Y02769D03*
X01419Y02516D03*
X01249Y02764D03*
X01171Y02768D03*
X01292Y02772D03*
X00392Y01333D03*
X0029Y01496D03*
X00143Y00304D03*
X00219Y00361D03*
Y00188D03*
X00038Y00304D03*
X02596Y02305D03*
X00419Y01644D03*
X00275Y00651D03*
X00535Y00856D03*
X00847Y02555D03*
X00862Y02568D03*
X00894Y026D03*
X00661Y02506D03*
X00724Y02505D03*
X00627Y02613D03*
X00645D03*
X00614Y02715D03*
X00674Y02655D03*
X00657Y02797D03*
X00194Y01614D03*
X01213Y02074D03*
X00472Y01218D03*
X00494Y01259D03*
X00275Y01677D03*
X02769Y0026D03*
X02729Y0028D03*
X02749D03*
X02674Y00345D03*
X02769Y0028D03*
X02783Y0138D03*
X02894Y01287D03*
X02749Y0026D03*
X0273Y0026D03*
X02674Y00305D03*
Y00325D03*
X00232Y00924D03*
X00194Y02196D03*
X00373Y00711D03*
X00374Y00493D03*
X0045Y00245D03*
X00356Y00257D03*
X00433Y00734D03*
X00504Y00534D03*
X00637Y0048D03*
X00333Y00539D03*
X0037Y00289D03*
X0073Y00117D03*
X0075D03*
X00478Y00967D03*
X01513Y02593D03*
X026Y02203D03*
X0022Y02256D03*
X0109Y00985D03*
X01017Y01473D03*
X01137Y01493D03*
X01116Y00975D03*
X00967Y01638D03*
X01075Y01633D03*
X01998Y00993D03*
X01983Y00974D03*
X01647Y00843D03*
X01571Y00755D03*
X01952Y02054D03*
X01614Y00828D03*
X01927Y02049D03*
X01993Y01096D03*
X01587Y02471D03*
X00307Y02026D03*
X00303Y01978D03*
X00306Y01923D03*
X00308Y01875D03*
X00754Y01831D03*
X00729Y01931D03*
X0074Y01884D03*
X00725Y01973D03*
X01888Y00966D03*
X01904Y00985D03*
X0192Y00968D03*
X01936Y00993D03*
X00343Y0172D03*
X00309Y01777D03*
Y01829D03*
X00216Y02603D03*
X00226Y02686D03*
X00217Y02638D03*
X002Y02687D03*
X01447Y01767D03*
X01562Y02053D03*
X01555Y01952D03*
X00824Y02064D03*
X02284Y00826D03*
X01154Y0196D03*
X01879Y02257D03*
X01106Y0083D03*
X02162Y00831D03*
X02307Y007D03*
X01621Y00715D03*
X02503Y02617D03*
X01963Y02375D03*
X02331Y00936D03*
X01861Y0077D03*
X01892Y00792D03*
X02056Y00785D03*
X02162Y02759D03*
X02241Y0271D03*
X02249Y02614D03*
X02158Y02628D03*
X02086Y02625D03*
X01969Y02633D03*
X02157Y00883D03*
X01201Y0122D03*
X01193Y00887D03*
X01308Y01032D03*
X01214Y0066D03*
X02225Y00551D03*
X02033Y00615D03*
X02459Y0055D03*
Y0057D03*
Y0053D03*
X02095Y00592D03*
X01388Y00389D03*
X02287Y00782D03*
X02459Y01736D03*
X02409Y01565D03*
X02318Y01751D03*
X01785Y02127D03*
Y01423D03*
X02501Y01049D03*
X02582Y01207D03*
X02026Y00565D03*
X02401Y00874D03*
X02306Y02584D03*
X01934Y02478D03*
X02397Y01274D03*
X01903Y0131D03*
X00746Y0261D03*
X00797Y02632D03*
X00724Y0248D03*
X00705Y02485D03*
X00917Y02617D03*
X0181Y02462D03*
X00894Y02629D03*
X01474Y00588D03*
X00786Y01373D03*
X00497Y01133D03*
X0255Y0015D03*
X02516Y00143D03*
X02532Y00152D03*
X02538Y00133D03*
X022Y00215D03*
X0182Y00474D03*
X01572Y00151D03*
X00857Y00462D03*
X02767Y00171D03*
X00735Y01059D03*
X00994Y00769D03*
X02584Y02077D03*
Y02057D03*
X02648Y02024D03*
X02555Y01919D03*
X02694Y01854D03*
X02807Y01822D03*
X02774Y01853D03*
X02693Y0123D03*
X02619Y012D03*
X02566Y00888D03*
X01946Y00616D03*
X0268Y00922D03*
X02642Y00944D03*
X00738Y00968D03*
X00797Y00996D03*
X01103Y00621D03*
X01064Y00613D03*
X00959Y00608D03*
X00864Y00735D03*
X00862Y00779D03*
X01091Y00457D03*
X00985Y00541D03*
X00651Y01353D03*
X00736Y01313D03*
X00842Y01308D03*
X00804Y01257D03*
Y01217D03*
X00733Y01198D03*
X00873Y01169D03*
X00633Y01021D03*
X00395Y01159D03*
X00401Y01139D03*
X00392Y01179D03*
X00805Y0104D03*
X00612Y01017D03*
X00631Y01279D03*
X00671D03*
X00735Y01177D03*
Y01118D03*
Y01079D03*
X00472Y01098D03*
X02794Y00134D03*
X02175Y0034D03*
X02076Y00326D03*
X02026Y00341D03*
X01978Y00342D03*
X02489Y01896D03*
X02327Y02014D03*
X01435Y0059D03*
X00544Y02133D03*
X00361Y02134D03*
X01848Y02458D03*
X01587Y00666D03*
X01607Y0061D03*
X02596Y0199D03*
X01456Y00651D03*
X0138Y00673D03*
X01785Y02407D03*
X02729Y0017D03*
X02749D03*
X02729Y0015D03*
X02749D03*
X02769D03*
X02579Y0018D03*
X02547Y00171D03*
X02529Y0017D03*
X02634Y00325D03*
X02654Y00305D03*
Y00325D03*
Y00345D03*
X02634D03*
X0135Y00592D03*
X01308D03*
X00883Y02713D03*
X00576Y02356D03*
X01475Y0075D03*
X01813Y00993D03*
X01792Y0097D03*
X01948Y00807D03*
X02242Y00742D03*
X0195Y00848D03*
X01841Y01021D03*
X0195Y00867D03*
X01865Y00993D03*
X0195Y00827D03*
X0182Y00966D03*
X01835Y00982D03*
X02241Y00836D03*
X02559Y0054D03*
Y0056D03*
X02509Y0054D03*
Y0056D03*
X02609Y0053D03*
Y0055D03*
Y0057D03*
Y0059D03*
X02459D03*
X02434Y00478D03*
X02535D03*
X02485D03*
X00988Y01942D03*
X01562Y00616D03*
X01523Y0061D03*
X01263Y00592D03*
X01821Y02525D03*
X00488Y02246D03*
X01003Y01678D03*
X023Y01306D03*
X0243Y01659D03*
X02304Y01661D03*
X02324Y01374D03*
X02188Y01689D03*
X02209Y01735D03*
X02099Y017D03*
X01876Y00332D03*
X01841Y00305D03*
X01403Y02394D03*
X00469Y02611D03*
X00439D03*
X01867Y00801D03*
X02058Y01301D03*
X01626Y02507D03*
X01601Y02523D03*
X01578Y0253D03*
X01394Y02486D03*
X02323Y01662D03*
X02032Y01534D03*
X02067Y01567D03*
X02055Y0166D03*
X02229Y01732D03*
X01865Y01451D03*
Y01471D03*
X01862Y01505D03*
X01926Y01488D03*
X02149Y01553D03*
X02312Y01324D03*
X02363Y01288D03*
X02153Y01299D03*
X02104Y01245D03*
X0204Y02237D03*
X02016Y02238D03*
X02065D03*
X01146Y01406D03*
X01126D03*
X02588Y02096D03*
X0065Y01455D03*
X00712Y01999D03*
X01403Y01018D03*
X02687Y01995D03*
X02707D03*
X01669Y0221D03*
X02709Y02609D03*
X02336Y00564D03*
Y00583D03*
X02277D03*
X02317Y00543D03*
Y00563D03*
X02297Y00543D03*
X02067Y00468D03*
X01403Y01197D03*
X00931Y01004D03*
X02502Y02332D03*
X02588Y02155D03*
X02501Y02216D03*
Y02274D03*
X025Y02451D03*
Y02392D03*
X01973Y02656D03*
X01966Y02606D03*
X01944Y02671D03*
X02085Y02604D03*
X01641Y01224D03*
X02277Y00543D03*
X01496Y01025D03*
X01965Y0103D03*
X01873Y01028D03*
X02587Y01374D03*
Y01436D03*
X02606Y01495D03*
X02587Y01553D03*
Y01613D03*
X02606Y01614D03*
Y01669D03*
X02487Y01329D03*
X01993Y01876D03*
X01543Y01206D03*
X01588Y01261D03*
X01927Y0141D03*
X02593Y01573D03*
Y01593D03*
X00736Y01503D03*
X02032Y01165D03*
X01967Y01198D03*
X0192Y01198D03*
X01493Y01195D03*
X01779Y0102D03*
X02167Y00611D03*
X00244Y02794D03*
X01324Y012D03*
X01893Y01131D03*
X0196Y01118D03*
X01937Y01126D03*
X0243Y01533D03*
X01604Y0094D03*
X0243Y01595D03*
X0135Y00403D03*
X0243Y01513D03*
X01304Y0075D03*
X0243Y01404D03*
X01212Y01239D03*
X01177Y01269D03*
X01645Y00957D03*
X01589Y00882D03*
X0173Y00929D03*
X01986Y01114D03*
X0243Y01639D03*
Y01575D03*
X02012Y01263D03*
X0243Y01384D03*
Y0145D03*
Y01469D03*
X02069Y02468D03*
X01845Y02383D03*
X02513Y01078D03*
X00756Y00215D03*
X01683Y01019D03*
X00201Y02795D03*
X00376Y0255D03*
X01689Y01263D03*
X02215Y01063D03*
X02789Y01209D03*
X02519Y00971D03*
X02218Y00991D03*
X02867Y0117D03*
X02694Y01095D03*
X02251Y01037D03*
X02241Y01056D03*
X02252Y01016D03*
X02241Y00998D03*
X02062Y0095D03*
X02527Y00858D03*
X0188Y01229D03*
X01735Y01237D03*
X01641Y01388D03*
X01593Y01515D03*
Y01577D03*
X01593Y01389D03*
X01593Y01596D03*
Y01495D03*
Y01535D03*
Y01615D03*
X01447Y01204D03*
X01262Y01221D03*
X01864Y02513D03*
X0186Y02399D03*
X01907Y02508D03*
X01839Y02483D03*
X01844Y02513D03*
X01818Y02495D03*
X01798Y02504D03*
X01737Y02513D03*
X01718Y02513D03*
X0182Y02773D03*
X02034Y02406D03*
X01642Y02595D03*
X02048Y02468D03*
X01942Y02327D03*
X01829Y02367D03*
X0197Y02729D03*
X01969Y02766D03*
X01896Y02635D03*
X01894Y02765D03*
X02055Y02406D03*
X02158Y02406D03*
X02523Y02481D03*
X01828Y02347D03*
X02043Y02733D03*
X01675Y02509D03*
X01598Y02587D03*
X0182Y02695D03*
X01696Y02508D03*
X01747Y02774D03*
X01745Y02697D03*
X02503Y01209D03*
X02121Y02388D03*
X0223Y02401D03*
X02224Y02421D03*
X01376Y00786D03*
X0182Y02796D03*
X02122Y01835D03*
X01909Y01622D03*
X01891Y01419D03*
Y01439D03*
X02477Y0135D03*
X02431Y01493D03*
X00346Y0255D03*
X00321D03*
X00311Y0251D03*
X02074Y025D03*
X0203D03*
X02029Y02468D03*
X02052Y025D03*
X02141Y02368D03*
X02122Y02369D03*
X02159Y02368D03*
X02086Y02801D03*
X01791Y002D03*
X01831Y0023D03*
X01811Y00225D03*
X01791D03*
X01841Y00245D03*
Y00265D03*
Y00285D03*
X01821Y00325D03*
X01801D03*
X01781D03*
X02599Y0084D03*
X02619D03*
X0264D03*
X02599Y00859D03*
X02619D03*
X0264D03*
Y00877D03*
X02619D03*
X02599D03*
X02252Y02536D03*
X02078Y02684D03*
X00977Y00198D03*
X01177Y00324D03*
X01686Y00705D03*
Y00725D03*
X02447Y02012D03*
X02411Y0201D03*
X0234Y02188D03*
X02093Y02471D03*
X01891Y00617D03*
X01909Y00708D03*
X00734Y0032D03*
Y00301D03*
X00743Y00203D03*
X02201Y02085D03*
X02212Y0199D03*
X02033Y02386D03*
X01703Y00881D03*
X02388Y02699D03*
X02785Y01349D03*
X01789Y02383D03*
X02277Y00563D03*
X02297D03*
X02317Y00583D03*
X02297D03*
X0262Y00179D03*
X02656D03*
X01901Y0082D03*
X02172Y01098D03*
Y01078D03*
Y01139D03*
Y01119D03*
X02171Y0118D03*
Y0116D03*
X0217Y0122D03*
X02171Y01201D03*
X0244Y02121D03*
X01894Y01534D03*
Y01514D03*
X02593Y01415D03*
X02582Y01173D03*
X0122Y01295D03*
X01838Y02645D03*
X0224Y02641D03*
X02282Y00718D03*
X02037Y00793D03*
X01342Y01645D03*
X01269Y01406D03*
X0131Y02136D03*
X01142Y01855D03*
X01257Y02378D03*
X0099Y02316D03*
X00992Y02296D03*
X01016D03*
X01336Y01257D03*
X02586Y0202D03*
X0215Y02016D03*
X02672Y01114D03*
X02158Y02388D03*
X0214Y02406D03*
Y02387D03*
X02121Y02406D03*
X02163Y02714D03*
X02474Y01309D03*
X02919Y01233D03*
X02284Y02766D03*
X02286Y02717D03*
X02235Y02802D03*
X02153Y02686D03*
X02018Y02747D03*
X02338Y02216D03*
X02188Y01967D03*
X02828Y01801D03*
X02675Y01835D03*
X02415Y01855D03*
X02232Y01838D03*
X02415Y01829D03*
X02093Y0238D03*
X0189Y02725D03*
X01815Y02647D03*
X01691Y02472D03*
X01942Y01902D03*
X02431Y01429D03*
Y01364D03*
X02224Y01562D03*
X02209Y01546D03*
X02194Y01532D03*
X02211Y01447D03*
X02185Y01446D03*
X02077Y0148D03*
X02056Y01461D03*
X02918Y013D03*
X02474Y01268D03*
X02266Y01325D03*
X02192Y01222D03*
X02193Y01119D03*
Y01139D03*
Y01098D03*
X02192Y0118D03*
Y0116D03*
X02193Y01078D03*
X02192Y01202D03*
X02153Y01191D03*
X02153Y0115D03*
X02151Y01108D03*
X01833Y01234D03*
X01783Y01235D03*
X01688Y01455D03*
X01545Y01383D03*
X01933Y00707D03*
X0102Y02745D03*
Y02765D03*
Y02785D03*
X01147Y02649D03*
X01215Y02359D03*
X0145Y01482D03*
Y01438D03*
Y01387D03*
X00295Y02252D03*
X00331Y02248D03*
X0032Y02226D03*
X00933Y01045D03*
X00932Y01024D03*
X00948Y01004D03*
X00972Y00984D03*
X00967Y01004D03*
X00972Y00964D03*
X02062Y00906D03*
X02044Y00865D03*
X01928Y00777D03*
X02051Y00843D03*
X02287Y0173D03*
X02848Y01363D03*
X01894Y01598D03*
Y01578D03*
X01865Y01566D03*
Y01546D03*
X02918Y0168D03*
X0231Y0173D03*
X02233Y02539D03*
X02441Y0215D03*
X02163Y02802D03*
X02161Y02738D03*
X01894Y02699D03*
X02285Y02787D03*
X02061Y02696D03*
X0216Y02654D03*
X02161Y02606D03*
X02261Y02689D03*
X02385Y0156D03*
X02277Y01306D03*
X02593Y01652D03*
Y01632D03*
Y01533D03*
Y01513D03*
Y01475D03*
Y01455D03*
Y01395D03*
X01865Y01426D03*
X01841Y01443D03*
X01848Y01521D03*
X01869Y01523D03*
X01839Y01539D03*
X0184Y01563D03*
X01868Y0159D03*
X01066Y0127D03*
X01007Y0132D03*
M02*