%FSTAX23Y23*%
%MOIN*%
%SFA1B1*%

%IPPOS*%
%ADD252C,0.000500*%
%LNx98_carrier_v1r2_12082022_mechanical_52-1*%
%LPD*%
G54D252*
X00085Y02687D02*
D01*
X00084Y02688*
X00084Y0269*
X00084Y02691*
X00084Y02692*
X00083Y02694*
X00083Y02695*
X00082Y02697*
X00081Y02698*
X0008Y02699*
X00079Y027*
X00078Y02702*
X00077Y02703*
X00076Y02704*
X00075Y02704*
X00074Y02705*
X00072Y02706*
X00071Y02707*
X0007Y02707*
X00068Y02708*
X00067Y02708*
X00065Y02708*
X00064Y02708*
X00062*
X00061Y02708*
X00059Y02708*
X00058Y02708*
X00056Y02707*
X00055Y02707*
X00053Y02706*
X00052Y02705*
X00051Y02704*
X0005Y02704*
X00048Y02703*
X00047Y02702*
X00046Y027*
X00045Y02699*
X00045Y02698*
X00044Y02697*
X00043Y02695*
X00043Y02694*
X00042Y02692*
X00042Y02691*
X00041Y0269*
X00041Y02688*
X00041Y02687*
X00041Y02685*
X00041Y02683*
X00042Y02682*
X00042Y02681*
X00043Y02679*
X00043Y02678*
X00044Y02676*
X00045Y02675*
X00045Y02674*
X00046Y02673*
X00047Y02671*
X00048Y0267*
X0005Y02669*
X00051Y02669*
X00052Y02668*
X00053Y02667*
X00055Y02666*
X00056Y02666*
X00058Y02665*
X00059Y02665*
X00061Y02665*
X00062Y02665*
X00064*
X00065Y02665*
X00067Y02665*
X00068Y02665*
X0007Y02666*
X00071Y02666*
X00072Y02667*
X00074Y02668*
X00075Y02669*
X00076Y02669*
X00077Y0267*
X00078Y02671*
X00079Y02673*
X0008Y02674*
X00081Y02675*
X00082Y02676*
X00083Y02678*
X00083Y02679*
X00084Y02681*
X00084Y02682*
X00084Y02683*
X00084Y02685*
X00085Y02687*
D01*
X00084Y02688*
X00084Y0269*
X00084Y02691*
X00084Y02692*
X00083Y02694*
X00083Y02695*
X00082Y02697*
X00081Y02698*
X0008Y02699*
X00079Y027*
X00078Y02702*
X00077Y02703*
X00076Y02704*
X00075Y02704*
X00074Y02705*
X00072Y02706*
X00071Y02707*
X0007Y02707*
X00068Y02708*
X00067Y02708*
X00065Y02708*
X00064Y02708*
X00062*
X00061Y02708*
X00059Y02708*
X00058Y02708*
X00056Y02707*
X00055Y02707*
X00053Y02706*
X00052Y02705*
X00051Y02704*
X0005Y02704*
X00048Y02703*
X00047Y02702*
X00046Y027*
X00045Y02699*
X00045Y02698*
X00044Y02697*
X00043Y02695*
X00043Y02694*
X00042Y02692*
X00042Y02691*
X00041Y0269*
X00041Y02688*
X00041Y02687*
X00041Y02685*
X00041Y02683*
X00042Y02682*
X00042Y02681*
X00043Y02679*
X00043Y02678*
X00044Y02676*
X00045Y02675*
X00045Y02674*
X00046Y02673*
X00047Y02671*
X00048Y0267*
X0005Y02669*
X00051Y02669*
X00052Y02668*
X00053Y02667*
X00055Y02666*
X00056Y02666*
X00058Y02665*
X00059Y02665*
X00061Y02665*
X00062Y02665*
X00064*
X00065Y02665*
X00067Y02665*
X00068Y02665*
X0007Y02666*
X00071Y02666*
X00072Y02667*
X00074Y02668*
X00075Y02669*
X00076Y02669*
X00077Y0267*
X00078Y02671*
X00079Y02673*
X0008Y02674*
X00081Y02675*
X00082Y02676*
X00083Y02678*
X00083Y02679*
X00084Y02681*
X00084Y02682*
X00084Y02683*
X00084Y02685*
X00085Y02687*
X00291Y0275D02*
D01*
X00291Y0275*
X00291Y02749*
X00291Y02748*
X00291Y02748*
X00291Y02747*
X00292Y02746*
X00292Y02746*
X00292Y02745*
X00293Y02745*
X00293Y02744*
X00294Y02743*
X00294Y02743*
X00295Y02743*
X00295Y02742*
X00296Y02742*
X00296Y02741*
X00297Y02741*
X00298Y02741*
X00298Y02741*
X00299Y02741*
X003Y0274*
X003Y0274*
X00301*
X00302Y0274*
X00302Y02741*
X00303Y02741*
X00304Y02741*
X00304Y02741*
X00305Y02741*
X00306Y02742*
X00306Y02742*
X00307Y02743*
X00307Y02743*
X00308Y02743*
X00308Y02744*
X00309Y02745*
X00309Y02745*
X00309Y02746*
X0031Y02746*
X0031Y02747*
X0031Y02748*
X0031Y02748*
X0031Y02749*
X00311Y0275*
X00311Y0275*
X0036Y02661D02*
D01*
X0036Y02662*
X0036Y02663*
X00359Y02664*
X00359Y02665*
X00359Y02666*
X00359Y02667*
X00358Y02667*
X00358Y02668*
X00357Y02669*
X00357Y0267*
X00356Y0267*
X00355Y02671*
X00354Y02672*
X00354Y02672*
X00353Y02673*
X00352Y02673*
X00351Y02674*
X0035Y02674*
X00349Y02674*
X00348Y02674*
X00347Y02675*
X00346Y02675*
X00345*
X00345Y02675*
X00344Y02674*
X00343Y02674*
X00342Y02674*
X00341Y02674*
X0034Y02673*
X00339Y02673*
X00338Y02672*
X00337Y02672*
X00337Y02671*
X00336Y0267*
X00335Y0267*
X00335Y02669*
X00334Y02668*
X00334Y02667*
X00333Y02667*
X00333Y02666*
X00333Y02665*
X00332Y02664*
X00332Y02663*
X00332Y02662*
X00332Y02661*
X00332Y0266*
X00332Y02659*
X00332Y02658*
X00333Y02657*
X00333Y02656*
X00333Y02655*
X00334Y02654*
X00334Y02654*
X00335Y02653*
X00335Y02652*
X00336Y02651*
X00337Y02651*
X00337Y0265*
X00338Y02649*
X00339Y02649*
X0034Y02649*
X00341Y02648*
X00342Y02648*
X00343Y02648*
X00344Y02647*
X00345Y02647*
X00345Y02647*
X00346*
X00347Y02647*
X00348Y02647*
X00349Y02648*
X0035Y02648*
X00351Y02648*
X00352Y02649*
X00353Y02649*
X00354Y02649*
X00354Y0265*
X00355Y02651*
X00356Y02651*
X00357Y02652*
X00357Y02653*
X00358Y02654*
X00358Y02654*
X00359Y02655*
X00359Y02656*
X00359Y02657*
X00359Y02658*
X0036Y02659*
X0036Y0266*
X0036Y02661*
X00594Y02782D02*
D01*
X00594Y02782*
X00594Y02783*
X00594Y02784*
X00594Y02784*
X00593Y02785*
X00593Y02786*
X00593Y02786*
X00592Y02787*
X00592Y02788*
X00592Y02788*
X00591Y02789*
X00591Y02789*
X0059Y0279*
X0059Y0279*
X00589Y0279*
X00588Y02791*
X00588Y02791*
X00587Y02791*
X00587Y02791*
X00586Y02791*
X00585Y02792*
X00584Y02792*
X00584*
X00583Y02792*
X00582Y02791*
X00582Y02791*
X00581Y02791*
X0058Y02791*
X0058Y02791*
X00579Y0279*
X00579Y0279*
X00578Y0279*
X00578Y02789*
X00577Y02789*
X00577Y02788*
X00576Y02788*
X00576Y02787*
X00575Y02786*
X00575Y02786*
X00575Y02785*
X00575Y02784*
X00575Y02784*
X00574Y02783*
X00574Y02782*
X00574Y02782*
X02935Y01881D02*
D01*
X02934Y01882*
X02934Y01884*
X02934Y01886*
X02934Y01887*
X02933Y01889*
X02932Y0189*
X02932Y01892*
X02931Y01893*
X0293Y01895*
X02929Y01896*
X02928Y01897*
X02927Y01898*
X02925Y01899*
X02924Y019*
X02923Y01901*
X02921Y01902*
X0292Y01903*
X02918Y01903*
X02917Y01904*
X02915Y01904*
X02913Y01904*
X02912Y01904*
X0291*
X02908Y01904*
X02907Y01904*
X02905Y01904*
X02904Y01903*
X02902Y01903*
X02901Y01902*
X02899Y01901*
X02898Y019*
X02896Y01899*
X02895Y01898*
X02894Y01897*
X02893Y01896*
X02892Y01895*
X02891Y01893*
X0289Y01892*
X02889Y0189*
X02889Y01889*
X02888Y01887*
X02888Y01886*
X02888Y01884*
X02887Y01882*
X02887Y01881*
X02887Y01879*
X02888Y01878*
X02888Y01876*
X02888Y01874*
X02889Y01873*
X02889Y01871*
X0289Y0187*
X02891Y01868*
X02892Y01867*
X02893Y01866*
X02894Y01864*
X02895Y01863*
X02896Y01862*
X02898Y01861*
X02899Y0186*
X02901Y0186*
X02902Y01859*
X02904Y01858*
X02905Y01858*
X02907Y01858*
X02908Y01857*
X0291Y01857*
X02912*
X02913Y01857*
X02915Y01858*
X02917Y01858*
X02918Y01858*
X0292Y01859*
X02921Y0186*
X02923Y0186*
X02924Y01861*
X02925Y01862*
X02927Y01863*
X02928Y01864*
X02929Y01866*
X0293Y01867*
X02931Y01868*
X02932Y0187*
X02932Y01871*
X02933Y01873*
X02934Y01874*
X02934Y01876*
X02934Y01878*
X02934Y01879*
X02935Y01881*
Y02516D02*
D01*
X02934Y02518*
X02934Y0252*
X02934Y02521*
X02934Y02523*
X02933Y02524*
X02932Y02526*
X02932Y02527*
X02931Y02529*
X0293Y0253*
X02929Y02531*
X02928Y02533*
X02927Y02534*
X02925Y02535*
X02924Y02536*
X02923Y02537*
X02921Y02537*
X0292Y02538*
X02918Y02539*
X02917Y02539*
X02915Y02539*
X02913Y0254*
X02912Y0254*
X0291*
X02908Y0254*
X02907Y02539*
X02905Y02539*
X02904Y02539*
X02902Y02538*
X02901Y02537*
X02899Y02537*
X02898Y02536*
X02896Y02535*
X02895Y02534*
X02894Y02533*
X02893Y02531*
X02892Y0253*
X02891Y02529*
X0289Y02527*
X02889Y02526*
X02889Y02524*
X02888Y02523*
X02888Y02521*
X02888Y0252*
X02887Y02518*
X02887Y02516*
X02887Y02515*
X02888Y02513*
X02888Y02511*
X02888Y0251*
X02889Y02508*
X02889Y02507*
X0289Y02505*
X02891Y02504*
X02892Y02502*
X02893Y02501*
X02894Y025*
X02895Y02499*
X02896Y02498*
X02898Y02497*
X02899Y02496*
X02901Y02495*
X02902Y02494*
X02904Y02494*
X02905Y02493*
X02907Y02493*
X02908Y02493*
X0291Y02493*
X02912*
X02913Y02493*
X02915Y02493*
X02917Y02493*
X02918Y02494*
X0292Y02494*
X02921Y02495*
X02923Y02496*
X02924Y02497*
X02925Y02498*
X02927Y02499*
X02928Y025*
X02929Y02501*
X0293Y02502*
X02931Y02504*
X02932Y02505*
X02932Y02507*
X02933Y02508*
X02934Y0251*
X02934Y02511*
X02934Y02513*
X02934Y02515*
X02935Y02516*
X02913Y00083D02*
D01*
X02913Y00084*
X02913Y00085*
X02912Y00086*
X02912Y00088*
X02912Y00089*
X02911Y0009*
X02911Y00091*
X0291Y00092*
X0291Y00092*
X02909Y00093*
X02908Y00094*
X02908Y00095*
X02907Y00096*
X02906Y00096*
X02905Y00097*
X02904Y00097*
X02903Y00098*
X02902Y00098*
X02901Y00098*
X029Y00099*
X02899Y00099*
X02898Y00099*
X02897*
X02895Y00099*
X02894Y00099*
X02893Y00098*
X02892Y00098*
X02891Y00098*
X0289Y00097*
X02889Y00097*
X02888Y00096*
X02887Y00096*
X02887Y00095*
X02886Y00094*
X02885Y00093*
X02884Y00092*
X02884Y00092*
X02883Y00091*
X02883Y0009*
X02882Y00089*
X02882Y00088*
X02882Y00086*
X02881Y00085*
X02881Y00084*
X02881Y00083*
X02881Y00082*
X02881Y00081*
X02882Y0008*
X02882Y00079*
X02882Y00078*
X02883Y00077*
X02883Y00076*
X02884Y00075*
X02884Y00074*
X02885Y00073*
X02886Y00072*
X02887Y00071*
X02887Y00071*
X02888Y0007*
X02889Y0007*
X0289Y00069*
X02891Y00069*
X02892Y00068*
X02893Y00068*
X02894Y00068*
X02895Y00068*
X02897Y00067*
X02898*
X02899Y00068*
X029Y00068*
X02901Y00068*
X02902Y00068*
X02903Y00069*
X02904Y00069*
X02905Y0007*
X02906Y0007*
X02907Y00071*
X02908Y00071*
X02908Y00072*
X02909Y00073*
X0291Y00074*
X0291Y00075*
X02911Y00076*
X02911Y00077*
X02912Y00078*
X02912Y00079*
X02912Y0008*
X02913Y00081*
X02913Y00082*
X02913Y00083*
Y0025D02*
D01*
X02913Y00252*
X02913Y00253*
X02912Y00254*
X02912Y00255*
X02912Y00256*
X02911Y00257*
X02911Y00258*
X0291Y00259*
X0291Y0026*
X02909Y00261*
X02908Y00261*
X02908Y00262*
X02907Y00263*
X02906Y00264*
X02905Y00264*
X02904Y00265*
X02903Y00265*
X02902Y00265*
X02901Y00266*
X029Y00266*
X02899Y00266*
X02898Y00266*
X02897*
X02895Y00266*
X02894Y00266*
X02893Y00266*
X02892Y00265*
X02891Y00265*
X0289Y00265*
X02889Y00264*
X02888Y00264*
X02887Y00263*
X02887Y00262*
X02886Y00261*
X02885Y00261*
X02884Y0026*
X02884Y00259*
X02883Y00258*
X02883Y00257*
X02882Y00256*
X02882Y00255*
X02882Y00254*
X02881Y00253*
X02881Y00252*
X02881Y0025*
X02881Y00249*
X02881Y00248*
X02882Y00247*
X02882Y00246*
X02882Y00245*
X02883Y00244*
X02883Y00243*
X02884Y00242*
X02884Y00241*
X02885Y0024*
X02886Y0024*
X02887Y00239*
X02887Y00238*
X02888Y00237*
X02889Y00237*
X0289Y00236*
X02891Y00236*
X02892Y00236*
X02893Y00235*
X02894Y00235*
X02895Y00235*
X02897Y00235*
X02898*
X02899Y00235*
X029Y00235*
X02901Y00235*
X02902Y00236*
X02903Y00236*
X02904Y00236*
X02905Y00237*
X02906Y00237*
X02907Y00238*
X02908Y00239*
X02908Y0024*
X02909Y0024*
X0291Y00241*
X0291Y00242*
X02911Y00243*
X02911Y00244*
X02912Y00245*
X02912Y00246*
X02912Y00247*
X02913Y00248*
X02913Y00249*
X02913Y0025*
X02486Y00062D02*
D01*
X02486Y00064*
X02486Y00065*
X02486Y00066*
X02485Y00067*
X02485Y00069*
X02485Y0007*
X02484Y00071*
X02483Y00072*
X02483Y00073*
X02482Y00074*
X02481Y00075*
X0248Y00076*
X02479Y00076*
X02478Y00077*
X02477Y00078*
X02476Y00078*
X02475Y00079*
X02474Y00079*
X02473Y0008*
X02471Y0008*
X0247Y0008*
X02469Y0008*
X02468*
X02467Y0008*
X02465Y0008*
X02464Y0008*
X02463Y00079*
X02462Y00079*
X02461Y00078*
X0246Y00078*
X02458Y00077*
X02457Y00076*
X02457Y00076*
X02456Y00075*
X02455Y00074*
X02454Y00073*
X02453Y00072*
X02453Y00071*
X02452Y0007*
X02452Y00069*
X02451Y00067*
X02451Y00066*
X02451Y00065*
X02451Y00064*
X02451Y00062*
X02451Y00061*
X02451Y0006*
X02451Y00059*
X02451Y00058*
X02452Y00056*
X02452Y00055*
X02453Y00054*
X02453Y00053*
X02454Y00052*
X02455Y00051*
X02456Y0005*
X02457Y00049*
X02457Y00049*
X02458Y00048*
X0246Y00047*
X02461Y00047*
X02462Y00046*
X02463Y00046*
X02464Y00045*
X02465Y00045*
X02467Y00045*
X02468Y00045*
X02469*
X0247Y00045*
X02471Y00045*
X02473Y00045*
X02474Y00046*
X02475Y00046*
X02476Y00047*
X02477Y00047*
X02478Y00048*
X02479Y00049*
X0248Y00049*
X02481Y0005*
X02482Y00051*
X02483Y00052*
X02483Y00053*
X02484Y00054*
X02485Y00055*
X02485Y00056*
X02485Y00058*
X02486Y00059*
X02486Y0006*
X02486Y00061*
X02486Y00062*
Y00212D02*
D01*
X02486Y00213*
X02486Y00215*
X02486Y00216*
X02485Y00217*
X02485Y00218*
X02485Y00219*
X02484Y0022*
X02483Y00221*
X02483Y00223*
X02482Y00223*
X02481Y00224*
X0248Y00225*
X02479Y00226*
X02478Y00227*
X02477Y00227*
X02476Y00228*
X02475Y00229*
X02474Y00229*
X02473Y00229*
X02471Y0023*
X0247Y0023*
X02469Y0023*
X02468*
X02467Y0023*
X02465Y0023*
X02464Y00229*
X02463Y00229*
X02462Y00229*
X02461Y00228*
X0246Y00227*
X02458Y00227*
X02457Y00226*
X02457Y00225*
X02456Y00224*
X02455Y00223*
X02454Y00223*
X02453Y00221*
X02453Y0022*
X02452Y00219*
X02452Y00218*
X02451Y00217*
X02451Y00216*
X02451Y00215*
X02451Y00213*
X02451Y00212*
X02451Y00211*
X02451Y0021*
X02451Y00208*
X02451Y00207*
X02452Y00206*
X02452Y00205*
X02453Y00204*
X02453Y00203*
X02454Y00202*
X02455Y00201*
X02456Y002*
X02457Y00199*
X02457Y00198*
X02458Y00197*
X0246Y00197*
X02461Y00196*
X02462Y00196*
X02463Y00195*
X02464Y00195*
X02465Y00195*
X02467Y00194*
X02468Y00194*
X02469*
X0247Y00194*
X02471Y00195*
X02473Y00195*
X02474Y00195*
X02475Y00196*
X02476Y00196*
X02477Y00197*
X02478Y00197*
X02479Y00198*
X0248Y00199*
X02481Y002*
X02482Y00201*
X02483Y00202*
X02483Y00203*
X02484Y00204*
X02485Y00205*
X02485Y00206*
X02485Y00207*
X02486Y00208*
X02486Y0021*
X02486Y00211*
X02486Y00212*
X02826D02*
D01*
X02826Y00213*
X02826Y00215*
X02826Y00216*
X02826Y00217*
X02825Y00218*
X02825Y00219*
X02824Y0022*
X02824Y00221*
X02823Y00223*
X02822Y00223*
X02821Y00224*
X0282Y00225*
X02819Y00226*
X02818Y00227*
X02817Y00227*
X02816Y00228*
X02815Y00229*
X02814Y00229*
X02813Y00229*
X02812Y0023*
X0281Y0023*
X02809Y0023*
X02808*
X02807Y0023*
X02805Y0023*
X02804Y00229*
X02803Y00229*
X02802Y00229*
X02801Y00228*
X028Y00227*
X02799Y00227*
X02798Y00226*
X02797Y00225*
X02796Y00224*
X02795Y00223*
X02794Y00223*
X02794Y00221*
X02793Y0022*
X02792Y00219*
X02792Y00218*
X02792Y00217*
X02791Y00216*
X02791Y00215*
X02791Y00213*
X02791Y00212*
X02791Y00211*
X02791Y0021*
X02791Y00208*
X02792Y00207*
X02792Y00206*
X02792Y00205*
X02793Y00204*
X02794Y00203*
X02794Y00202*
X02795Y00201*
X02796Y002*
X02797Y00199*
X02798Y00198*
X02799Y00197*
X028Y00197*
X02801Y00196*
X02802Y00196*
X02803Y00195*
X02804Y00195*
X02805Y00195*
X02807Y00194*
X02808Y00194*
X02809*
X0281Y00194*
X02812Y00195*
X02813Y00195*
X02814Y00195*
X02815Y00196*
X02816Y00196*
X02817Y00197*
X02818Y00197*
X02819Y00198*
X0282Y00199*
X02821Y002*
X02822Y00201*
X02823Y00202*
X02824Y00203*
X02824Y00204*
X02825Y00205*
X02825Y00206*
X02826Y00207*
X02826Y00208*
X02826Y0021*
X02826Y00211*
X02826Y00212*
Y00062D02*
D01*
X02826Y00064*
X02826Y00065*
X02826Y00066*
X02826Y00067*
X02825Y00069*
X02825Y0007*
X02824Y00071*
X02824Y00072*
X02823Y00073*
X02822Y00074*
X02821Y00075*
X0282Y00076*
X02819Y00076*
X02818Y00077*
X02817Y00078*
X02816Y00078*
X02815Y00079*
X02814Y00079*
X02813Y0008*
X02812Y0008*
X0281Y0008*
X02809Y0008*
X02808*
X02807Y0008*
X02805Y0008*
X02804Y0008*
X02803Y00079*
X02802Y00079*
X02801Y00078*
X028Y00078*
X02799Y00077*
X02798Y00076*
X02797Y00076*
X02796Y00075*
X02795Y00074*
X02794Y00073*
X02794Y00072*
X02793Y00071*
X02792Y0007*
X02792Y00069*
X02792Y00067*
X02791Y00066*
X02791Y00065*
X02791Y00064*
X02791Y00062*
X02791Y00061*
X02791Y0006*
X02791Y00059*
X02792Y00058*
X02792Y00056*
X02792Y00055*
X02793Y00054*
X02794Y00053*
X02794Y00052*
X02795Y00051*
X02796Y0005*
X02797Y00049*
X02798Y00049*
X02799Y00048*
X028Y00047*
X02801Y00047*
X02802Y00046*
X02803Y00046*
X02804Y00045*
X02805Y00045*
X02807Y00045*
X02808Y00045*
X02809*
X0281Y00045*
X02812Y00045*
X02813Y00045*
X02814Y00046*
X02815Y00046*
X02816Y00047*
X02817Y00047*
X02818Y00048*
X02819Y00049*
X0282Y00049*
X02821Y0005*
X02822Y00051*
X02823Y00052*
X02824Y00053*
X02824Y00054*
X02825Y00055*
X02825Y00056*
X02826Y00058*
X02826Y00059*
X02826Y0006*
X02826Y00061*
X02826Y00062*
X01736Y00141D02*
D01*
X01736Y00142*
X01736Y00144*
X01736Y00146*
X01735Y00147*
X01735Y00149*
X01734Y0015*
X01733Y00152*
X01733Y00153*
X01732Y00155*
X01731Y00156*
X0173Y00157*
X01728Y00158*
X01727Y00159*
X01726Y0016*
X01724Y00161*
X01723Y00162*
X01721Y00163*
X0172Y00163*
X01718Y00164*
X01717Y00164*
X01715Y00164*
X01713Y00164*
X01712*
X0171Y00164*
X01708Y00164*
X01707Y00164*
X01705Y00163*
X01704Y00163*
X01702Y00162*
X01701Y00161*
X01699Y0016*
X01698Y00159*
X01697Y00158*
X01696Y00157*
X01694Y00156*
X01693Y00155*
X01693Y00153*
X01692Y00152*
X01691Y0015*
X0169Y00149*
X0169Y00147*
X01689Y00146*
X01689Y00144*
X01689Y00142*
X01689Y00141*
X01689Y00139*
X01689Y00138*
X01689Y00136*
X0169Y00134*
X0169Y00133*
X01691Y00131*
X01692Y0013*
X01693Y00128*
X01693Y00127*
X01694Y00126*
X01696Y00124*
X01697Y00123*
X01698Y00122*
X01699Y00121*
X01701Y0012*
X01702Y0012*
X01704Y00119*
X01705Y00118*
X01707Y00118*
X01708Y00118*
X0171Y00117*
X01712Y00117*
X01713*
X01715Y00117*
X01717Y00118*
X01718Y00118*
X0172Y00118*
X01721Y00119*
X01723Y0012*
X01724Y0012*
X01726Y00121*
X01727Y00122*
X01728Y00123*
X0173Y00124*
X01731Y00126*
X01732Y00127*
X01733Y00128*
X01733Y0013*
X01734Y00131*
X01735Y00133*
X01735Y00134*
X01736Y00136*
X01736Y00138*
X01736Y00139*
X01736Y00141*
X01756Y00375D02*
D01*
X01756Y00379*
X01755Y00382*
X01755Y00384*
X01754Y00387*
X01753Y0039*
X01752Y00393*
X01751Y00396*
X01749Y00398*
X01748Y00401*
X01746Y00403*
X01744Y00406*
X01742Y00408*
X01739Y0041*
X01737Y00411*
X01734Y00413*
X01732Y00414*
X01729Y00416*
X01726Y00417*
X01723Y00418*
X0172Y00418*
X01717Y00419*
X01714Y00419*
X01711*
X01708Y00419*
X01705Y00418*
X01702Y00418*
X01699Y00417*
X01696Y00416*
X01694Y00414*
X01691Y00413*
X01688Y00411*
X01686Y0041*
X01684Y00408*
X01681Y00406*
X01679Y00403*
X01678Y00401*
X01676Y00398*
X01674Y00396*
X01673Y00393*
X01672Y0039*
X01671Y00387*
X0167Y00384*
X0167Y00382*
X01669Y00379*
X01669Y00375*
X01669Y00372*
X0167Y00369*
X0167Y00366*
X01671Y00364*
X01672Y00361*
X01673Y00358*
X01674Y00355*
X01676Y00353*
X01678Y0035*
X01679Y00348*
X01681Y00345*
X01684Y00343*
X01686Y00341*
X01688Y0034*
X01691Y00338*
X01694Y00337*
X01696Y00335*
X01699Y00334*
X01702Y00333*
X01705Y00333*
X01708Y00332*
X01711Y00332*
X01714*
X01717Y00332*
X0172Y00333*
X01723Y00333*
X01726Y00334*
X01729Y00335*
X01732Y00337*
X01734Y00338*
X01737Y0034*
X01739Y00341*
X01742Y00343*
X01744Y00345*
X01746Y00348*
X01748Y0035*
X01749Y00353*
X01751Y00355*
X01752Y00358*
X01753Y00361*
X01754Y00364*
X01755Y00366*
X01755Y00369*
X01756Y00372*
X01756Y00375*
X00553Y02661D02*
D01*
X00553Y02662*
X00553Y02663*
X00552Y02664*
X00552Y02665*
X00552Y02666*
X00551Y02667*
X00551Y02667*
X00551Y02668*
X0055Y02669*
X00549Y0267*
X00549Y0267*
X00548Y02671*
X00547Y02672*
X00547Y02672*
X00546Y02673*
X00545Y02673*
X00544Y02674*
X00543Y02674*
X00542Y02674*
X00541Y02674*
X0054Y02675*
X00539Y02675*
X00538*
X00537Y02675*
X00536Y02674*
X00536Y02674*
X00535Y02674*
X00534Y02674*
X00533Y02673*
X00532Y02673*
X00531Y02672*
X0053Y02672*
X0053Y02671*
X00529Y0267*
X00528Y0267*
X00528Y02669*
X00527Y02668*
X00527Y02667*
X00526Y02667*
X00526Y02666*
X00526Y02665*
X00525Y02664*
X00525Y02663*
X00525Y02662*
X00525Y02661*
X00525Y0266*
X00525Y02659*
X00525Y02658*
X00526Y02657*
X00526Y02656*
X00526Y02655*
X00527Y02654*
X00527Y02654*
X00528Y02653*
X00528Y02652*
X00529Y02651*
X0053Y02651*
X0053Y0265*
X00531Y02649*
X00532Y02649*
X00533Y02649*
X00534Y02648*
X00535Y02648*
X00536Y02648*
X00536Y02647*
X00537Y02647*
X00538Y02647*
X00539*
X0054Y02647*
X00541Y02647*
X00542Y02648*
X00543Y02648*
X00544Y02648*
X00545Y02649*
X00546Y02649*
X00547Y02649*
X00547Y0265*
X00548Y02651*
X00549Y02651*
X00549Y02652*
X0055Y02653*
X00551Y02654*
X00551Y02654*
X00551Y02655*
X00552Y02656*
X00552Y02657*
X00552Y02658*
X00553Y02659*
X00553Y0266*
X00553Y02661*
X02307Y00141D02*
D01*
X02307Y00142*
X02307Y00144*
X02307Y00146*
X02306Y00147*
X02306Y00149*
X02305Y0015*
X02304Y00152*
X02303Y00153*
X02303Y00155*
X02302Y00156*
X023Y00157*
X02299Y00158*
X02298Y00159*
X02297Y0016*
X02295Y00161*
X02294Y00162*
X02292Y00163*
X02291Y00163*
X02289Y00164*
X02288Y00164*
X02286Y00164*
X02284Y00164*
X02283*
X02281Y00164*
X02279Y00164*
X02278Y00164*
X02276Y00163*
X02275Y00163*
X02273Y00162*
X02272Y00161*
X0227Y0016*
X02269Y00159*
X02268Y00158*
X02266Y00157*
X02265Y00156*
X02264Y00155*
X02263Y00153*
X02263Y00152*
X02262Y0015*
X02261Y00149*
X02261Y00147*
X0226Y00146*
X0226Y00144*
X0226Y00142*
X0226Y00141*
X0226Y00139*
X0226Y00138*
X0226Y00136*
X02261Y00134*
X02261Y00133*
X02262Y00131*
X02263Y0013*
X02263Y00128*
X02264Y00127*
X02265Y00126*
X02266Y00124*
X02268Y00123*
X02269Y00122*
X0227Y00121*
X02272Y0012*
X02273Y0012*
X02275Y00119*
X02276Y00118*
X02278Y00118*
X02279Y00118*
X02281Y00117*
X02283Y00117*
X02284*
X02286Y00117*
X02288Y00118*
X02289Y00118*
X02291Y00118*
X02292Y00119*
X02294Y0012*
X02295Y0012*
X02297Y00121*
X02298Y00122*
X02299Y00123*
X023Y00124*
X02302Y00126*
X02303Y00127*
X02303Y00128*
X02304Y0013*
X02305Y00131*
X02306Y00133*
X02306Y00134*
X02307Y00136*
X02307Y00138*
X02307Y00139*
X02307Y00141*
X01566Y00118D02*
D01*
X01566Y00119*
X01566Y0012*
X01566Y00122*
X01566Y00123*
X01565Y00124*
X01565Y00126*
X01564Y00127*
X01563Y00128*
X01563Y00129*
X01562Y0013*
X01561Y00131*
X0156Y00132*
X01559Y00133*
X01558Y00134*
X01557Y00135*
X01555Y00135*
X01554Y00136*
X01553Y00136*
X01552Y00137*
X0155Y00137*
X01549Y00137*
X01547Y00137*
X01546*
X01545Y00137*
X01543Y00137*
X01542Y00137*
X01541Y00136*
X01539Y00136*
X01538Y00135*
X01537Y00135*
X01536Y00134*
X01535Y00133*
X01534Y00132*
X01533Y00131*
X01532Y0013*
X01531Y00129*
X0153Y00128*
X01529Y00127*
X01529Y00126*
X01528Y00124*
X01528Y00123*
X01527Y00122*
X01527Y0012*
X01527Y00119*
X01527Y00118*
X01527Y00116*
X01527Y00115*
X01527Y00114*
X01528Y00112*
X01528Y00111*
X01529Y0011*
X01529Y00108*
X0153Y00107*
X01531Y00106*
X01532Y00105*
X01533Y00104*
X01534Y00103*
X01535Y00102*
X01536Y00101*
X01537Y00101*
X01538Y001*
X01539Y00099*
X01541Y00099*
X01542Y00099*
X01543Y00098*
X01545Y00098*
X01546Y00098*
X01547*
X01549Y00098*
X0155Y00098*
X01552Y00099*
X01553Y00099*
X01554Y00099*
X01555Y001*
X01557Y00101*
X01558Y00101*
X01559Y00102*
X0156Y00103*
X01561Y00104*
X01562Y00105*
X01563Y00106*
X01563Y00107*
X01564Y00108*
X01565Y0011*
X01565Y00111*
X01566Y00112*
X01566Y00114*
X01566Y00115*
X01566Y00116*
X01566Y00118*
X00827Y00692D02*
D01*
X00827Y00695*
X00827Y00697*
X00826Y007*
X00826Y00702*
X00825Y00705*
X00824Y00707*
X00823Y00709*
X00822Y00711*
X0082Y00713*
X00819Y00715*
X00817Y00717*
X00815Y00719*
X00814Y0072*
X00812Y00722*
X00809Y00723*
X00807Y00724*
X00805Y00725*
X00803Y00726*
X008Y00727*
X00798Y00727*
X00795Y00728*
X00793Y00728*
X00791*
X00788Y00728*
X00786Y00727*
X00783Y00727*
X00781Y00726*
X00778Y00725*
X00776Y00724*
X00774Y00723*
X00772Y00722*
X0077Y0072*
X00768Y00719*
X00766Y00717*
X00765Y00715*
X00763Y00713*
X00762Y00711*
X0076Y00709*
X00759Y00707*
X00758Y00705*
X00758Y00702*
X00757Y007*
X00757Y00697*
X00756Y00695*
X00756Y00692*
X00756Y0069*
X00757Y00687*
X00757Y00685*
X00758Y00683*
X00758Y0068*
X00759Y00678*
X0076Y00676*
X00762Y00674*
X00763Y00672*
X00765Y0067*
X00766Y00668*
X00768Y00666*
X0077Y00664*
X00772Y00663*
X00774Y00662*
X00776Y00661*
X00778Y0066*
X00781Y00659*
X00783Y00658*
X00786Y00658*
X00788Y00657*
X00791Y00657*
X00793*
X00795Y00657*
X00798Y00658*
X008Y00658*
X00803Y00659*
X00805Y0066*
X00807Y00661*
X00809Y00662*
X00812Y00663*
X00814Y00664*
X00815Y00666*
X00817Y00668*
X00819Y0067*
X0082Y00672*
X00822Y00674*
X00823Y00676*
X00824Y00678*
X00825Y0068*
X00826Y00683*
X00826Y00685*
X00827Y00687*
X00827Y0069*
X00827Y00692*
X01064D02*
D01*
X01064Y00695*
X01064Y00697*
X01063Y007*
X01063Y00702*
X01062Y00705*
X01061Y00707*
X0106Y00709*
X01059Y00711*
X01057Y00713*
X01056Y00715*
X01054Y00717*
X01052Y00719*
X0105Y0072*
X01048Y00722*
X01046Y00723*
X01044Y00724*
X01042Y00725*
X01039Y00726*
X01037Y00727*
X01035Y00727*
X01032Y00728*
X0103Y00728*
X01027*
X01025Y00728*
X01022Y00727*
X0102Y00727*
X01018Y00726*
X01015Y00725*
X01013Y00724*
X01011Y00723*
X01009Y00722*
X01007Y0072*
X01005Y00719*
X01003Y00717*
X01001Y00715*
X01Y00713*
X00998Y00711*
X00997Y00709*
X00996Y00707*
X00995Y00705*
X00994Y00702*
X00994Y007*
X00993Y00697*
X00993Y00695*
X00993Y00692*
X00993Y0069*
X00993Y00687*
X00994Y00685*
X00994Y00683*
X00995Y0068*
X00996Y00678*
X00997Y00676*
X00998Y00674*
X01Y00672*
X01001Y0067*
X01003Y00668*
X01005Y00666*
X01007Y00664*
X01009Y00663*
X01011Y00662*
X01013Y00661*
X01015Y0066*
X01018Y00659*
X0102Y00658*
X01022Y00658*
X01025Y00657*
X01027Y00657*
X0103*
X01032Y00657*
X01035Y00658*
X01037Y00658*
X01039Y00659*
X01042Y0066*
X01044Y00661*
X01046Y00662*
X01048Y00663*
X0105Y00664*
X01052Y00666*
X01054Y00668*
X01056Y0067*
X01057Y00672*
X01059Y00674*
X0106Y00676*
X01061Y00678*
X01062Y0068*
X01063Y00683*
X01063Y00685*
X01064Y00687*
X01064Y0069*
X01064Y00692*
X00926Y00673D02*
D01*
X00926Y00674*
X00926Y00675*
X00926Y00676*
X00925Y00677*
X00925Y00678*
X00925Y00679*
X00924Y0068*
X00923Y00681*
X00923Y00682*
X00922Y00683*
X00921Y00684*
X00921Y00684*
X0092Y00685*
X00919Y00686*
X00918Y00686*
X00917Y00687*
X00916Y00687*
X00915Y00688*
X00914Y00688*
X00913Y00688*
X00912Y00688*
X00911Y00688*
X0091*
X00908Y00688*
X00907Y00688*
X00906Y00688*
X00905Y00688*
X00904Y00687*
X00903Y00687*
X00902Y00686*
X00901Y00686*
X009Y00685*
X009Y00684*
X00899Y00684*
X00898Y00683*
X00897Y00682*
X00897Y00681*
X00896Y0068*
X00896Y00679*
X00895Y00678*
X00895Y00677*
X00895Y00676*
X00895Y00675*
X00894Y00674*
X00894Y00673*
X00894Y00672*
X00895Y00671*
X00895Y00669*
X00895Y00668*
X00895Y00667*
X00896Y00666*
X00896Y00665*
X00897Y00664*
X00897Y00663*
X00898Y00663*
X00899Y00662*
X009Y00661*
X009Y0066*
X00901Y0066*
X00902Y00659*
X00903Y00659*
X00904Y00658*
X00905Y00658*
X00906Y00657*
X00907Y00657*
X00908Y00657*
X0091Y00657*
X00911*
X00912Y00657*
X00913Y00657*
X00914Y00657*
X00915Y00658*
X00916Y00658*
X00917Y00659*
X00918Y00659*
X00919Y0066*
X0092Y0066*
X00921Y00661*
X00921Y00662*
X00922Y00663*
X00923Y00663*
X00923Y00664*
X00924Y00665*
X00925Y00666*
X00925Y00667*
X00925Y00668*
X00926Y00669*
X00926Y00671*
X00926Y00672*
X00926Y00673*
Y00515D02*
D01*
X00926Y00516*
X00926Y00517*
X00926Y00519*
X00925Y0052*
X00925Y00521*
X00925Y00522*
X00924Y00523*
X00923Y00524*
X00923Y00525*
X00922Y00525*
X00921Y00526*
X00921Y00527*
X0092Y00528*
X00919Y00528*
X00918Y00529*
X00917Y00529*
X00916Y0053*
X00915Y0053*
X00914Y00531*
X00913Y00531*
X00912Y00531*
X00911Y00531*
X0091*
X00908Y00531*
X00907Y00531*
X00906Y00531*
X00905Y0053*
X00904Y0053*
X00903Y00529*
X00902Y00529*
X00901Y00528*
X009Y00528*
X009Y00527*
X00899Y00526*
X00898Y00525*
X00897Y00525*
X00897Y00524*
X00896Y00523*
X00896Y00522*
X00895Y00521*
X00895Y0052*
X00895Y00519*
X00895Y00517*
X00894Y00516*
X00894Y00515*
X00894Y00514*
X00895Y00513*
X00895Y00512*
X00895Y00511*
X00895Y0051*
X00896Y00509*
X00896Y00508*
X00897Y00507*
X00897Y00506*
X00898Y00505*
X00899Y00504*
X009Y00504*
X009Y00503*
X00901Y00502*
X00902Y00502*
X00903Y00501*
X00904Y00501*
X00905Y005*
X00906Y005*
X00907Y005*
X00908Y005*
X0091Y005*
X00911*
X00912Y005*
X00913Y005*
X00914Y005*
X00915Y005*
X00916Y00501*
X00917Y00501*
X00918Y00502*
X00919Y00502*
X0092Y00503*
X00921Y00504*
X00921Y00504*
X00922Y00505*
X00923Y00506*
X00923Y00507*
X00924Y00508*
X00925Y00509*
X00925Y0051*
X00925Y00511*
X00926Y00512*
X00926Y00513*
X00926Y00514*
X00926Y00515*
X00574Y0275D02*
D01*
X00574Y0275*
X00574Y02749*
X00575Y02748*
X00575Y02748*
X00575Y02747*
X00575Y02746*
X00575Y02746*
X00576Y02745*
X00576Y02745*
X00577Y02744*
X00577Y02743*
X00578Y02743*
X00578Y02743*
X00579Y02742*
X00579Y02742*
X0058Y02741*
X0058Y02741*
X00581Y02741*
X00582Y02741*
X00582Y02741*
X00583Y0274*
X00584Y0274*
X00584*
X00585Y0274*
X00586Y02741*
X00587Y02741*
X00587Y02741*
X00588Y02741*
X00588Y02741*
X00589Y02742*
X0059Y02742*
X0059Y02743*
X00591Y02743*
X00591Y02743*
X00592Y02744*
X00592Y02745*
X00592Y02745*
X00593Y02746*
X00593Y02746*
X00593Y02747*
X00594Y02748*
X00594Y02748*
X00594Y02749*
X00594Y0275*
X00594Y0275*
X01064Y00417D02*
D01*
X01064Y00419*
X01064Y00422*
X01063Y00424*
X01063Y00427*
X01062Y00429*
X01061Y00431*
X0106Y00433*
X01059Y00436*
X01057Y00438*
X01056Y0044*
X01054Y00441*
X01052Y00443*
X0105Y00445*
X01048Y00446*
X01046Y00448*
X01044Y00449*
X01042Y0045*
X01039Y00451*
X01037Y00451*
X01035Y00452*
X01032Y00452*
X0103Y00452*
X01027*
X01025Y00452*
X01022Y00452*
X0102Y00451*
X01018Y00451*
X01015Y0045*
X01013Y00449*
X01011Y00448*
X01009Y00446*
X01007Y00445*
X01005Y00443*
X01003Y00441*
X01001Y0044*
X01Y00438*
X00998Y00436*
X00997Y00433*
X00996Y00431*
X00995Y00429*
X00994Y00427*
X00994Y00424*
X00993Y00422*
X00993Y00419*
X00993Y00417*
X00993Y00414*
X00993Y00412*
X00994Y00409*
X00994Y00407*
X00995Y00405*
X00996Y00402*
X00997Y004*
X00998Y00398*
X01Y00396*
X01001Y00394*
X01003Y00392*
X01005Y0039*
X01007Y00389*
X01009Y00387*
X01011Y00386*
X01013Y00385*
X01015Y00384*
X01018Y00383*
X0102Y00382*
X01022Y00382*
X01025Y00382*
X01027Y00381*
X0103*
X01032Y00382*
X01035Y00382*
X01037Y00382*
X01039Y00383*
X01042Y00384*
X01044Y00385*
X01046Y00386*
X01048Y00387*
X0105Y00389*
X01052Y0039*
X01054Y00392*
X01056Y00394*
X01057Y00396*
X01059Y00398*
X0106Y004*
X01061Y00402*
X01062Y00405*
X01063Y00407*
X01063Y00409*
X01064Y00412*
X01064Y00414*
X01064Y00417*
X00827D02*
D01*
X00827Y00419*
X00827Y00422*
X00826Y00424*
X00826Y00427*
X00825Y00429*
X00824Y00431*
X00823Y00433*
X00822Y00436*
X0082Y00438*
X00819Y0044*
X00817Y00441*
X00815Y00443*
X00814Y00445*
X00812Y00446*
X00809Y00448*
X00807Y00449*
X00805Y0045*
X00803Y00451*
X008Y00451*
X00798Y00452*
X00795Y00452*
X00793Y00452*
X00791*
X00788Y00452*
X00786Y00452*
X00783Y00451*
X00781Y00451*
X00778Y0045*
X00776Y00449*
X00774Y00448*
X00772Y00446*
X0077Y00445*
X00768Y00443*
X00766Y00441*
X00765Y0044*
X00763Y00438*
X00762Y00436*
X0076Y00433*
X00759Y00431*
X00758Y00429*
X00758Y00427*
X00757Y00424*
X00757Y00422*
X00756Y00419*
X00756Y00417*
X00756Y00414*
X00757Y00412*
X00757Y00409*
X00758Y00407*
X00758Y00405*
X00759Y00402*
X0076Y004*
X00762Y00398*
X00763Y00396*
X00765Y00394*
X00766Y00392*
X00768Y0039*
X0077Y00389*
X00772Y00387*
X00774Y00386*
X00776Y00385*
X00778Y00384*
X00781Y00383*
X00783Y00382*
X00786Y00382*
X00788Y00382*
X00791Y00381*
X00793*
X00795Y00382*
X00798Y00382*
X008Y00382*
X00803Y00383*
X00805Y00384*
X00807Y00385*
X00809Y00386*
X00812Y00387*
X00814Y00389*
X00815Y0039*
X00817Y00392*
X00819Y00394*
X0082Y00396*
X00822Y00398*
X00823Y004*
X00824Y00402*
X00825Y00405*
X00826Y00407*
X00826Y00409*
X00827Y00412*
X00827Y00414*
X00827Y00417*
X00926Y00437D02*
D01*
X00926Y00438*
X00926Y00439*
X00926Y0044*
X00925Y00441*
X00925Y00442*
X00925Y00443*
X00924Y00444*
X00923Y00445*
X00923Y00446*
X00922Y00447*
X00921Y00447*
X00921Y00448*
X0092Y00449*
X00919Y0045*
X00918Y0045*
X00917Y00451*
X00916Y00451*
X00915Y00451*
X00914Y00452*
X00913Y00452*
X00912Y00452*
X00911Y00452*
X0091*
X00908Y00452*
X00907Y00452*
X00906Y00452*
X00905Y00451*
X00904Y00451*
X00903Y00451*
X00902Y0045*
X00901Y0045*
X009Y00449*
X009Y00448*
X00899Y00447*
X00898Y00447*
X00897Y00446*
X00897Y00445*
X00896Y00444*
X00896Y00443*
X00895Y00442*
X00895Y00441*
X00895Y0044*
X00895Y00439*
X00894Y00438*
X00894Y00437*
X00894Y00435*
X00895Y00434*
X00895Y00433*
X00895Y00432*
X00895Y00431*
X00896Y0043*
X00896Y00429*
X00897Y00428*
X00897Y00427*
X00898Y00426*
X00899Y00426*
X009Y00425*
X009Y00424*
X00901Y00423*
X00902Y00423*
X00903Y00422*
X00904Y00422*
X00905Y00422*
X00906Y00421*
X00907Y00421*
X00908Y00421*
X0091Y00421*
X00911*
X00912Y00421*
X00913Y00421*
X00914Y00421*
X00915Y00422*
X00916Y00422*
X00917Y00422*
X00918Y00423*
X00919Y00423*
X0092Y00424*
X00921Y00425*
X00921Y00426*
X00922Y00426*
X00923Y00427*
X00923Y00428*
X00924Y00429*
X00925Y0043*
X00925Y00431*
X00925Y00432*
X00926Y00433*
X00926Y00434*
X00926Y00435*
X00926Y00437*
X00311Y02782D02*
D01*
X00311Y02782*
X0031Y02783*
X0031Y02784*
X0031Y02784*
X0031Y02785*
X0031Y02786*
X00309Y02786*
X00309Y02787*
X00309Y02788*
X00308Y02788*
X00308Y02789*
X00307Y02789*
X00307Y0279*
X00306Y0279*
X00306Y0279*
X00305Y02791*
X00304Y02791*
X00304Y02791*
X00303Y02791*
X00302Y02791*
X00302Y02792*
X00301Y02792*
X003*
X003Y02792*
X00299Y02791*
X00298Y02791*
X00298Y02791*
X00297Y02791*
X00296Y02791*
X00296Y0279*
X00295Y0279*
X00295Y0279*
X00294Y02789*
X00294Y02789*
X00293Y02788*
X00293Y02788*
X00292Y02787*
X00292Y02786*
X00292Y02786*
X00291Y02785*
X00291Y02784*
X00291Y02784*
X00291Y02783*
X00291Y02782*
X00291Y02782*
X02327Y00375D02*
D01*
X02327Y00379*
X02326Y00382*
X02326Y00384*
X02325Y00387*
X02324Y0039*
X02323Y00393*
X02322Y00396*
X0232Y00398*
X02318Y00401*
X02317Y00403*
X02315Y00406*
X02312Y00408*
X0231Y0041*
X02308Y00411*
X02305Y00413*
X02302Y00414*
X023Y00416*
X02297Y00417*
X02294Y00418*
X02291Y00418*
X02288Y00419*
X02285Y00419*
X02282*
X02279Y00419*
X02276Y00418*
X02273Y00418*
X0227Y00417*
X02267Y00416*
X02264Y00414*
X02262Y00413*
X02259Y00411*
X02257Y0041*
X02254Y00408*
X02252Y00406*
X0225Y00403*
X02248Y00401*
X02247Y00398*
X02245Y00396*
X02244Y00393*
X02243Y0039*
X02242Y00387*
X02241Y00384*
X02241Y00382*
X0224Y00379*
X0224Y00375*
X0224Y00372*
X02241Y00369*
X02241Y00366*
X02242Y00364*
X02243Y00361*
X02244Y00358*
X02245Y00355*
X02247Y00353*
X02248Y0035*
X0225Y00348*
X02252Y00345*
X02254Y00343*
X02257Y00341*
X02259Y0034*
X02262Y00338*
X02264Y00337*
X02267Y00335*
X0227Y00334*
X02273Y00333*
X02276Y00333*
X02279Y00332*
X02282Y00332*
X02285*
X02288Y00332*
X02291Y00333*
X02294Y00333*
X02297Y00334*
X023Y00335*
X02302Y00337*
X02305Y00338*
X02308Y0034*
X0231Y00341*
X02312Y00343*
X02315Y00345*
X02317Y00348*
X02318Y0035*
X0232Y00353*
X02322Y00355*
X02323Y00358*
X02324Y00361*
X02325Y00364*
X02326Y00366*
X02326Y00369*
X02327Y00372*
X02327Y00375*
X02656Y02664D02*
D01*
X02656Y02666*
X02656Y02667*
X02656Y02669*
X02655Y0267*
X02655Y02671*
X02654Y02672*
X02654Y02674*
X02653Y02675*
X02652Y02676*
X02652Y02677*
X02651Y02678*
X0265Y02679*
X02649Y0268*
X02648Y02681*
X02646Y02682*
X02645Y02682*
X02644Y02683*
X02643Y02683*
X02641Y02684*
X0264Y02684*
X02639Y02684*
X02637Y02684*
X02636*
X02634Y02684*
X02633Y02684*
X02632Y02684*
X0263Y02683*
X02629Y02683*
X02628Y02682*
X02627Y02682*
X02626Y02681*
X02624Y0268*
X02623Y02679*
X02622Y02678*
X02621Y02677*
X02621Y02676*
X0262Y02675*
X02619Y02674*
X02619Y02672*
X02618Y02671*
X02618Y0267*
X02617Y02669*
X02617Y02667*
X02617Y02666*
X02617Y02664*
X02617Y02663*
X02617Y02662*
X02617Y0266*
X02618Y02659*
X02618Y02658*
X02619Y02656*
X02619Y02655*
X0262Y02654*
X02621Y02653*
X02621Y02652*
X02622Y02651*
X02623Y0265*
X02624Y02649*
X02626Y02648*
X02627Y02647*
X02628Y02647*
X02629Y02646*
X0263Y02646*
X02632Y02645*
X02633Y02645*
X02634Y02645*
X02636Y02645*
X02637*
X02639Y02645*
X0264Y02645*
X02641Y02645*
X02643Y02646*
X02644Y02646*
X02645Y02647*
X02646Y02647*
X02648Y02648*
X02649Y02649*
X0265Y0265*
X02651Y02651*
X02652Y02652*
X02652Y02653*
X02653Y02654*
X02654Y02655*
X02654Y02656*
X02655Y02658*
X02655Y02659*
X02656Y0266*
X02656Y02662*
X02656Y02663*
X02656Y02664*
X02556Y02764D02*
D01*
X02556Y02766*
X02556Y02767*
X02556Y02769*
X02555Y0277*
X02555Y02771*
X02554Y02772*
X02554Y02774*
X02553Y02775*
X02552Y02776*
X02552Y02777*
X02551Y02778*
X0255Y02779*
X02549Y0278*
X02548Y02781*
X02546Y02782*
X02545Y02782*
X02544Y02783*
X02543Y02783*
X02541Y02784*
X0254Y02784*
X02539Y02784*
X02537Y02784*
X02536*
X02534Y02784*
X02533Y02784*
X02532Y02784*
X0253Y02783*
X02529Y02783*
X02528Y02782*
X02527Y02782*
X02526Y02781*
X02524Y0278*
X02523Y02779*
X02522Y02778*
X02521Y02777*
X02521Y02776*
X0252Y02775*
X02519Y02774*
X02519Y02772*
X02518Y02771*
X02518Y0277*
X02517Y02769*
X02517Y02767*
X02517Y02766*
X02517Y02764*
X02517Y02763*
X02517Y02762*
X02517Y0276*
X02518Y02759*
X02518Y02758*
X02519Y02756*
X02519Y02755*
X0252Y02754*
X02521Y02753*
X02521Y02752*
X02522Y02751*
X02523Y0275*
X02524Y02749*
X02526Y02748*
X02527Y02747*
X02528Y02747*
X02529Y02746*
X0253Y02746*
X02532Y02745*
X02533Y02745*
X02534Y02745*
X02536Y02745*
X02537*
X02539Y02745*
X0254Y02745*
X02541Y02745*
X02543Y02746*
X02544Y02746*
X02545Y02747*
X02546Y02747*
X02548Y02748*
X02549Y02749*
X0255Y0275*
X02551Y02751*
X02552Y02752*
X02552Y02753*
X02553Y02754*
X02554Y02755*
X02554Y02756*
X02555Y02758*
X02555Y02759*
X02556Y0276*
X02556Y02762*
X02556Y02763*
X02556Y02764*
X02656D02*
D01*
X02656Y02766*
X02656Y02767*
X02656Y02769*
X02655Y0277*
X02655Y02771*
X02654Y02772*
X02654Y02774*
X02653Y02775*
X02652Y02776*
X02652Y02777*
X02651Y02778*
X0265Y02779*
X02649Y0278*
X02648Y02781*
X02646Y02782*
X02645Y02782*
X02644Y02783*
X02643Y02783*
X02641Y02784*
X0264Y02784*
X02639Y02784*
X02637Y02784*
X02636*
X02634Y02784*
X02633Y02784*
X02632Y02784*
X0263Y02783*
X02629Y02783*
X02628Y02782*
X02627Y02782*
X02626Y02781*
X02624Y0278*
X02623Y02779*
X02622Y02778*
X02621Y02777*
X02621Y02776*
X0262Y02775*
X02619Y02774*
X02619Y02772*
X02618Y02771*
X02618Y0277*
X02617Y02769*
X02617Y02767*
X02617Y02766*
X02617Y02764*
X02617Y02763*
X02617Y02762*
X02617Y0276*
X02618Y02759*
X02618Y02758*
X02619Y02756*
X02619Y02755*
X0262Y02754*
X02621Y02753*
X02621Y02752*
X02622Y02751*
X02623Y0275*
X02624Y02749*
X02626Y02748*
X02627Y02747*
X02628Y02747*
X02629Y02746*
X0263Y02746*
X02632Y02745*
X02633Y02745*
X02634Y02745*
X02636Y02745*
X02637*
X02639Y02745*
X0264Y02745*
X02641Y02745*
X02643Y02746*
X02644Y02746*
X02645Y02747*
X02646Y02747*
X02648Y02748*
X02649Y02749*
X0265Y0275*
X02651Y02751*
X02652Y02752*
X02652Y02753*
X02653Y02754*
X02654Y02755*
X02654Y02756*
X02655Y02758*
X02655Y02759*
X02656Y0276*
X02656Y02762*
X02656Y02763*
X02656Y02764*
X02852Y01628D02*
D01*
X02852Y01629*
X02852Y0163*
X02851Y01631*
X02851Y01631*
X02851Y01632*
X02851Y01633*
X0285Y01634*
X0285Y01634*
X02849Y01635*
X02849Y01636*
X02848Y01636*
X02848Y01637*
X02847Y01637*
X02846Y01638*
X02846Y01638*
X02845Y01639*
X02844Y01639*
X02843Y01639*
X02843Y0164*
X02842Y0164*
X02841Y0164*
X0284Y0164*
X02839*
X02838Y0164*
X02838Y0164*
X02837Y0164*
X02836Y01639*
X02835Y01639*
X02834Y01639*
X02834Y01638*
X02833Y01638*
X02832Y01637*
X02832Y01637*
X02831Y01636*
X0283Y01636*
X0283Y01635*
X02829Y01634*
X02829Y01634*
X02829Y01633*
X02828Y01632*
X02828Y01631*
X02828Y01631*
X02828Y0163*
X02828Y01629*
X02828Y01628*
X02828Y01627*
X02828Y01626*
X02828Y01626*
X02828Y01625*
X02828Y01624*
X02829Y01623*
X02829Y01622*
X02829Y01622*
X0283Y01621*
X0283Y0162*
X02831Y0162*
X02832Y01619*
X02832Y01619*
X02833Y01618*
X02834Y01618*
X02834Y01617*
X02835Y01617*
X02836Y01617*
X02837Y01616*
X02838Y01616*
X02838Y01616*
X02839Y01616*
X0284*
X02841Y01616*
X02842Y01616*
X02843Y01616*
X02843Y01617*
X02844Y01617*
X02845Y01617*
X02846Y01618*
X02846Y01618*
X02847Y01619*
X02848Y01619*
X02848Y0162*
X02849Y0162*
X02849Y01621*
X0285Y01622*
X0285Y01622*
X02851Y01623*
X02851Y01624*
X02851Y01625*
X02851Y01626*
X02852Y01626*
X02852Y01627*
X02852Y01628*
X00926Y00594D02*
D01*
X00926Y00595*
X00926Y00596*
X00926Y00597*
X00925Y00598*
X00925Y00599*
X00925Y006*
X00924Y00601*
X00923Y00602*
X00923Y00603*
X00922Y00604*
X00921Y00605*
X00921Y00606*
X0092Y00606*
X00919Y00607*
X00918Y00608*
X00917Y00608*
X00916Y00609*
X00915Y00609*
X00914Y00609*
X00913Y00609*
X00912Y0061*
X00911Y0061*
X0091*
X00908Y0061*
X00907Y00609*
X00906Y00609*
X00905Y00609*
X00904Y00609*
X00903Y00608*
X00902Y00608*
X00901Y00607*
X009Y00606*
X009Y00606*
X00899Y00605*
X00898Y00604*
X00897Y00603*
X00897Y00602*
X00896Y00601*
X00896Y006*
X00895Y00599*
X00895Y00598*
X00895Y00597*
X00895Y00596*
X00894Y00595*
X00894Y00594*
X00894Y00593*
X00895Y00592*
X00895Y00591*
X00895Y0059*
X00895Y00589*
X00896Y00588*
X00896Y00587*
X00897Y00586*
X00897Y00585*
X00898Y00584*
X00899Y00583*
X009Y00582*
X009Y00582*
X00901Y00581*
X00902Y0058*
X00903Y0058*
X00904Y00579*
X00905Y00579*
X00906Y00579*
X00907Y00578*
X00908Y00578*
X0091Y00578*
X00911*
X00912Y00578*
X00913Y00578*
X00914Y00579*
X00915Y00579*
X00916Y00579*
X00917Y0058*
X00918Y0058*
X00919Y00581*
X0092Y00582*
X00921Y00582*
X00921Y00583*
X00922Y00584*
X00923Y00585*
X00923Y00586*
X00924Y00587*
X00925Y00588*
X00925Y00589*
X00925Y0059*
X00926Y00591*
X00926Y00592*
X00926Y00593*
X00926Y00594*
X02456Y02764D02*
D01*
X02456Y02766*
X02456Y02767*
X02456Y02769*
X02455Y0277*
X02455Y02771*
X02454Y02772*
X02454Y02774*
X02453Y02775*
X02452Y02776*
X02452Y02777*
X02451Y02778*
X0245Y02779*
X02449Y0278*
X02448Y02781*
X02446Y02782*
X02445Y02782*
X02444Y02783*
X02443Y02783*
X02441Y02784*
X0244Y02784*
X02439Y02784*
X02437Y02784*
X02436*
X02434Y02784*
X02433Y02784*
X02432Y02784*
X0243Y02783*
X02429Y02783*
X02428Y02782*
X02427Y02782*
X02426Y02781*
X02424Y0278*
X02423Y02779*
X02422Y02778*
X02421Y02777*
X02421Y02776*
X0242Y02775*
X02419Y02774*
X02419Y02772*
X02418Y02771*
X02418Y0277*
X02417Y02769*
X02417Y02767*
X02417Y02766*
X02417Y02764*
X02417Y02763*
X02417Y02762*
X02417Y0276*
X02418Y02759*
X02418Y02758*
X02419Y02756*
X02419Y02755*
X0242Y02754*
X02421Y02753*
X02421Y02752*
X02422Y02751*
X02423Y0275*
X02424Y02749*
X02426Y02748*
X02427Y02747*
X02428Y02747*
X02429Y02746*
X0243Y02746*
X02432Y02745*
X02433Y02745*
X02434Y02745*
X02436Y02745*
X02437*
X02439Y02745*
X0244Y02745*
X02441Y02745*
X02443Y02746*
X02444Y02746*
X02445Y02747*
X02446Y02747*
X02448Y02748*
X02449Y02749*
X0245Y0275*
X02451Y02751*
X02452Y02752*
X02452Y02753*
X02453Y02754*
X02454Y02755*
X02454Y02756*
X02455Y02758*
X02455Y02759*
X02456Y0276*
X02456Y02762*
X02456Y02763*
X02456Y02764*
X02902Y01528D02*
D01*
X02902Y01529*
X02902Y0153*
X02901Y01531*
X02901Y01531*
X02901Y01532*
X02901Y01533*
X029Y01534*
X029Y01534*
X02899Y01535*
X02899Y01536*
X02898Y01536*
X02898Y01537*
X02897Y01537*
X02896Y01538*
X02896Y01538*
X02895Y01539*
X02894Y01539*
X02893Y01539*
X02893Y0154*
X02892Y0154*
X02891Y0154*
X0289Y0154*
X02889*
X02888Y0154*
X02888Y0154*
X02887Y0154*
X02886Y01539*
X02885Y01539*
X02884Y01539*
X02884Y01538*
X02883Y01538*
X02882Y01537*
X02882Y01537*
X02881Y01536*
X0288Y01536*
X0288Y01535*
X02879Y01534*
X02879Y01534*
X02879Y01533*
X02878Y01532*
X02878Y01531*
X02878Y01531*
X02878Y0153*
X02878Y01529*
X02878Y01528*
X02878Y01527*
X02878Y01526*
X02878Y01526*
X02878Y01525*
X02878Y01524*
X02879Y01523*
X02879Y01522*
X02879Y01522*
X0288Y01521*
X0288Y0152*
X02881Y0152*
X02882Y01519*
X02882Y01519*
X02883Y01518*
X02884Y01518*
X02884Y01517*
X02885Y01517*
X02886Y01517*
X02887Y01516*
X02888Y01516*
X02888Y01516*
X02889Y01516*
X0289*
X02891Y01516*
X02892Y01516*
X02893Y01516*
X02893Y01517*
X02894Y01517*
X02895Y01517*
X02896Y01518*
X02896Y01518*
X02897Y01519*
X02898Y01519*
X02898Y0152*
X02899Y0152*
X02899Y01521*
X029Y01522*
X029Y01522*
X02901Y01523*
X02901Y01524*
X02901Y01525*
X02901Y01526*
X02902Y01526*
X02902Y01527*
X02902Y01528*
X02456Y02664D02*
D01*
X02456Y02666*
X02456Y02667*
X02456Y02669*
X02455Y0267*
X02455Y02671*
X02454Y02672*
X02454Y02674*
X02453Y02675*
X02452Y02676*
X02452Y02677*
X02451Y02678*
X0245Y02679*
X02449Y0268*
X02448Y02681*
X02446Y02682*
X02445Y02682*
X02444Y02683*
X02443Y02683*
X02441Y02684*
X0244Y02684*
X02439Y02684*
X02437Y02684*
X02436*
X02434Y02684*
X02433Y02684*
X02432Y02684*
X0243Y02683*
X02429Y02683*
X02428Y02682*
X02427Y02682*
X02426Y02681*
X02424Y0268*
X02423Y02679*
X02422Y02678*
X02421Y02677*
X02421Y02676*
X0242Y02675*
X02419Y02674*
X02419Y02672*
X02418Y02671*
X02418Y0267*
X02417Y02669*
X02417Y02667*
X02417Y02666*
X02417Y02664*
X02417Y02663*
X02417Y02662*
X02417Y0266*
X02418Y02659*
X02418Y02658*
X02419Y02656*
X02419Y02655*
X0242Y02654*
X02421Y02653*
X02421Y02652*
X02422Y02651*
X02423Y0265*
X02424Y02649*
X02426Y02648*
X02427Y02647*
X02428Y02647*
X02429Y02646*
X0243Y02646*
X02432Y02645*
X02433Y02645*
X02434Y02645*
X02436Y02645*
X02437*
X02439Y02645*
X0244Y02645*
X02441Y02645*
X02443Y02646*
X02444Y02646*
X02445Y02647*
X02446Y02647*
X02448Y02648*
X02449Y02649*
X0245Y0265*
X02451Y02651*
X02452Y02652*
X02452Y02653*
X02453Y02654*
X02454Y02655*
X02454Y02656*
X02455Y02658*
X02455Y02659*
X02456Y0266*
X02456Y02662*
X02456Y02663*
X02456Y02664*
X02356Y02764D02*
D01*
X02356Y02766*
X02356Y02767*
X02356Y02769*
X02355Y0277*
X02355Y02771*
X02354Y02772*
X02354Y02774*
X02353Y02775*
X02352Y02776*
X02352Y02777*
X02351Y02778*
X0235Y02779*
X02349Y0278*
X02348Y02781*
X02346Y02782*
X02345Y02782*
X02344Y02783*
X02343Y02783*
X02341Y02784*
X0234Y02784*
X02339Y02784*
X02337Y02784*
X02336*
X02334Y02784*
X02333Y02784*
X02332Y02784*
X0233Y02783*
X02329Y02783*
X02328Y02782*
X02327Y02782*
X02326Y02781*
X02324Y0278*
X02323Y02779*
X02322Y02778*
X02321Y02777*
X02321Y02776*
X0232Y02775*
X02319Y02774*
X02319Y02772*
X02318Y02771*
X02318Y0277*
X02317Y02769*
X02317Y02767*
X02317Y02766*
X02317Y02764*
X02317Y02763*
X02317Y02762*
X02317Y0276*
X02318Y02759*
X02318Y02758*
X02319Y02756*
X02319Y02755*
X0232Y02754*
X02321Y02753*
X02321Y02752*
X02322Y02751*
X02323Y0275*
X02324Y02749*
X02326Y02748*
X02327Y02747*
X02328Y02747*
X02329Y02746*
X0233Y02746*
X02332Y02745*
X02333Y02745*
X02334Y02745*
X02336Y02745*
X02337*
X02339Y02745*
X0234Y02745*
X02341Y02745*
X02343Y02746*
X02344Y02746*
X02345Y02747*
X02346Y02747*
X02348Y02748*
X02349Y02749*
X0235Y0275*
X02351Y02751*
X02352Y02752*
X02352Y02753*
X02353Y02754*
X02354Y02755*
X02354Y02756*
X02355Y02758*
X02355Y02759*
X02356Y0276*
X02356Y02762*
X02356Y02763*
X02356Y02764*
Y02664D02*
D01*
X02356Y02666*
X02356Y02667*
X02356Y02669*
X02355Y0267*
X02355Y02671*
X02354Y02672*
X02354Y02674*
X02353Y02675*
X02352Y02676*
X02352Y02677*
X02351Y02678*
X0235Y02679*
X02349Y0268*
X02348Y02681*
X02346Y02682*
X02345Y02682*
X02344Y02683*
X02343Y02683*
X02341Y02684*
X0234Y02684*
X02339Y02684*
X02337Y02684*
X02336*
X02334Y02684*
X02333Y02684*
X02332Y02684*
X0233Y02683*
X02329Y02683*
X02328Y02682*
X02327Y02682*
X02326Y02681*
X02324Y0268*
X02323Y02679*
X02322Y02678*
X02321Y02677*
X02321Y02676*
X0232Y02675*
X02319Y02674*
X02319Y02672*
X02318Y02671*
X02318Y0267*
X02317Y02669*
X02317Y02667*
X02317Y02666*
X02317Y02664*
X02317Y02663*
X02317Y02662*
X02317Y0266*
X02318Y02659*
X02318Y02658*
X02319Y02656*
X02319Y02655*
X0232Y02654*
X02321Y02653*
X02321Y02652*
X02322Y02651*
X02323Y0265*
X02324Y02649*
X02326Y02648*
X02327Y02647*
X02328Y02647*
X02329Y02646*
X0233Y02646*
X02332Y02645*
X02333Y02645*
X02334Y02645*
X02336Y02645*
X02337*
X02339Y02645*
X0234Y02645*
X02341Y02645*
X02343Y02646*
X02344Y02646*
X02345Y02647*
X02346Y02647*
X02348Y02648*
X02349Y02649*
X0235Y0265*
X02351Y02651*
X02352Y02652*
X02352Y02653*
X02353Y02654*
X02354Y02655*
X02354Y02656*
X02355Y02658*
X02355Y02659*
X02356Y0266*
X02356Y02662*
X02356Y02663*
X02356Y02664*
X02902Y01628D02*
D01*
X02902Y01629*
X02902Y0163*
X02901Y01631*
X02901Y01631*
X02901Y01632*
X02901Y01633*
X029Y01634*
X029Y01634*
X02899Y01635*
X02899Y01636*
X02898Y01636*
X02898Y01637*
X02897Y01637*
X02896Y01638*
X02896Y01638*
X02895Y01639*
X02894Y01639*
X02893Y01639*
X02893Y0164*
X02892Y0164*
X02891Y0164*
X0289Y0164*
X02889*
X02888Y0164*
X02888Y0164*
X02887Y0164*
X02886Y01639*
X02885Y01639*
X02884Y01639*
X02884Y01638*
X02883Y01638*
X02882Y01637*
X02882Y01637*
X02881Y01636*
X0288Y01636*
X0288Y01635*
X02879Y01634*
X02879Y01634*
X02879Y01633*
X02878Y01632*
X02878Y01631*
X02878Y01631*
X02878Y0163*
X02878Y01629*
X02878Y01628*
X02878Y01627*
X02878Y01626*
X02878Y01626*
X02878Y01625*
X02878Y01624*
X02879Y01623*
X02879Y01622*
X02879Y01622*
X0288Y01621*
X0288Y0162*
X02881Y0162*
X02882Y01619*
X02882Y01619*
X02883Y01618*
X02884Y01618*
X02884Y01617*
X02885Y01617*
X02886Y01617*
X02887Y01616*
X02888Y01616*
X02888Y01616*
X02889Y01616*
X0289*
X02891Y01616*
X02892Y01616*
X02893Y01616*
X02893Y01617*
X02894Y01617*
X02895Y01617*
X02896Y01618*
X02896Y01618*
X02897Y01619*
X02898Y01619*
X02898Y0162*
X02899Y0162*
X02899Y01621*
X029Y01622*
X029Y01622*
X02901Y01623*
X02901Y01624*
X02901Y01625*
X02901Y01626*
X02902Y01626*
X02902Y01627*
X02902Y01628*
X00964Y02664D02*
D01*
X00964Y02666*
X00964Y02667*
X00964Y02669*
X00963Y0267*
X00963Y02671*
X00962Y02672*
X00962Y02674*
X00961Y02675*
X0096Y02676*
X00959Y02677*
X00959Y02678*
X00958Y02679*
X00957Y0268*
X00955Y02681*
X00954Y02682*
X00953Y02682*
X00952Y02683*
X0095Y02683*
X00949Y02684*
X00948Y02684*
X00946Y02684*
X00945Y02684*
X00944*
X00942Y02684*
X00941Y02684*
X0094Y02684*
X00938Y02683*
X00937Y02683*
X00936Y02682*
X00935Y02682*
X00933Y02681*
X00932Y0268*
X00931Y02679*
X0093Y02678*
X00929Y02677*
X00928Y02676*
X00928Y02675*
X00927Y02674*
X00926Y02672*
X00926Y02671*
X00925Y0267*
X00925Y02669*
X00925Y02667*
X00925Y02666*
X00925Y02664*
X00925Y02663*
X00925Y02662*
X00925Y0266*
X00925Y02659*
X00926Y02658*
X00926Y02656*
X00927Y02655*
X00928Y02654*
X00928Y02653*
X00929Y02652*
X0093Y02651*
X00931Y0265*
X00932Y02649*
X00933Y02648*
X00935Y02647*
X00936Y02647*
X00937Y02646*
X00938Y02646*
X0094Y02645*
X00941Y02645*
X00942Y02645*
X00944Y02645*
X00945*
X00946Y02645*
X00948Y02645*
X00949Y02645*
X0095Y02646*
X00952Y02646*
X00953Y02647*
X00954Y02647*
X00955Y02648*
X00957Y02649*
X00958Y0265*
X00959Y02651*
X00959Y02652*
X0096Y02653*
X00961Y02654*
X00962Y02655*
X00962Y02656*
X00963Y02658*
X00963Y02659*
X00964Y0266*
X00964Y02662*
X00964Y02663*
X00964Y02664*
X00767D02*
D01*
X00767Y02666*
X00767Y02667*
X00767Y02669*
X00766Y0267*
X00766Y02671*
X00766Y02672*
X00765Y02674*
X00764Y02675*
X00763Y02676*
X00763Y02677*
X00762Y02678*
X00761Y02679*
X0076Y0268*
X00759Y02681*
X00757Y02682*
X00756Y02682*
X00755Y02683*
X00754Y02683*
X00752Y02684*
X00751Y02684*
X0075Y02684*
X00748Y02684*
X00747*
X00746Y02684*
X00744Y02684*
X00743Y02684*
X00741Y02683*
X0074Y02683*
X00739Y02682*
X00738Y02682*
X00737Y02681*
X00735Y0268*
X00734Y02679*
X00733Y02678*
X00732Y02677*
X00732Y02676*
X00731Y02675*
X0073Y02674*
X0073Y02672*
X00729Y02671*
X00729Y0267*
X00728Y02669*
X00728Y02667*
X00728Y02666*
X00728Y02664*
X00728Y02663*
X00728Y02662*
X00728Y0266*
X00729Y02659*
X00729Y02658*
X0073Y02656*
X0073Y02655*
X00731Y02654*
X00732Y02653*
X00732Y02652*
X00733Y02651*
X00734Y0265*
X00735Y02649*
X00737Y02648*
X00738Y02647*
X00739Y02647*
X0074Y02646*
X00741Y02646*
X00743Y02645*
X00744Y02645*
X00746Y02645*
X00747Y02645*
X00748*
X0075Y02645*
X00751Y02645*
X00752Y02645*
X00754Y02646*
X00755Y02646*
X00756Y02647*
X00757Y02647*
X00759Y02648*
X0076Y02649*
X00761Y0265*
X00762Y02651*
X00763Y02652*
X00763Y02653*
X00764Y02654*
X00765Y02655*
X00766Y02656*
X00766Y02658*
X00766Y02659*
X00767Y0266*
X00767Y02662*
X00767Y02663*
X00767Y02664*
X00866Y02764D02*
D01*
X00866Y02766*
X00865Y02767*
X00865Y02769*
X00865Y0277*
X00864Y02771*
X00864Y02772*
X00863Y02774*
X00863Y02775*
X00862Y02776*
X00861Y02777*
X0086Y02778*
X00859Y02779*
X00858Y0278*
X00857Y02781*
X00856Y02782*
X00855Y02782*
X00853Y02783*
X00852Y02783*
X00851Y02784*
X00849Y02784*
X00848Y02784*
X00847Y02784*
X00845*
X00844Y02784*
X00843Y02784*
X00841Y02784*
X0084Y02783*
X00839Y02783*
X00837Y02782*
X00836Y02782*
X00835Y02781*
X00834Y0278*
X00833Y02779*
X00832Y02778*
X00831Y02777*
X0083Y02776*
X00829Y02775*
X00829Y02774*
X00828Y02772*
X00827Y02771*
X00827Y0277*
X00827Y02769*
X00826Y02767*
X00826Y02766*
X00826Y02764*
X00826Y02763*
X00826Y02762*
X00827Y0276*
X00827Y02759*
X00827Y02758*
X00828Y02756*
X00829Y02755*
X00829Y02754*
X0083Y02753*
X00831Y02752*
X00832Y02751*
X00833Y0275*
X00834Y02749*
X00835Y02748*
X00836Y02747*
X00837Y02747*
X00839Y02746*
X0084Y02746*
X00841Y02745*
X00843Y02745*
X00844Y02745*
X00845Y02745*
X00847*
X00848Y02745*
X00849Y02745*
X00851Y02745*
X00852Y02746*
X00853Y02746*
X00855Y02747*
X00856Y02747*
X00857Y02748*
X00858Y02749*
X00859Y0275*
X0086Y02751*
X00861Y02752*
X00862Y02753*
X00863Y02754*
X00863Y02755*
X00864Y02756*
X00864Y02758*
X00865Y02759*
X00865Y0276*
X00865Y02762*
X00866Y02763*
X00866Y02764*
Y02664D02*
D01*
X00866Y02666*
X00865Y02667*
X00865Y02669*
X00865Y0267*
X00864Y02671*
X00864Y02672*
X00863Y02674*
X00863Y02675*
X00862Y02676*
X00861Y02677*
X0086Y02678*
X00859Y02679*
X00858Y0268*
X00857Y02681*
X00856Y02682*
X00855Y02682*
X00853Y02683*
X00852Y02683*
X00851Y02684*
X00849Y02684*
X00848Y02684*
X00847Y02684*
X00845*
X00844Y02684*
X00843Y02684*
X00841Y02684*
X0084Y02683*
X00839Y02683*
X00837Y02682*
X00836Y02682*
X00835Y02681*
X00834Y0268*
X00833Y02679*
X00832Y02678*
X00831Y02677*
X0083Y02676*
X00829Y02675*
X00829Y02674*
X00828Y02672*
X00827Y02671*
X00827Y0267*
X00827Y02669*
X00826Y02667*
X00826Y02666*
X00826Y02664*
X00826Y02663*
X00826Y02662*
X00827Y0266*
X00827Y02659*
X00827Y02658*
X00828Y02656*
X00829Y02655*
X00829Y02654*
X0083Y02653*
X00831Y02652*
X00832Y02651*
X00833Y0265*
X00834Y02649*
X00835Y02648*
X00836Y02647*
X00837Y02647*
X00839Y02646*
X0084Y02646*
X00841Y02645*
X00843Y02645*
X00844Y02645*
X00845Y02645*
X00847*
X00848Y02645*
X00849Y02645*
X00851Y02645*
X00852Y02646*
X00853Y02646*
X00855Y02647*
X00856Y02647*
X00857Y02648*
X00858Y02649*
X00859Y0265*
X0086Y02651*
X00861Y02652*
X00862Y02653*
X00863Y02654*
X00863Y02655*
X00864Y02656*
X00864Y02658*
X00865Y02659*
X00865Y0266*
X00865Y02662*
X00866Y02663*
X00866Y02664*
X00964Y02764D02*
D01*
X00964Y02766*
X00964Y02767*
X00964Y02769*
X00963Y0277*
X00963Y02771*
X00962Y02772*
X00962Y02774*
X00961Y02775*
X0096Y02776*
X00959Y02777*
X00959Y02778*
X00958Y02779*
X00957Y0278*
X00955Y02781*
X00954Y02782*
X00953Y02782*
X00952Y02783*
X0095Y02783*
X00949Y02784*
X00948Y02784*
X00946Y02784*
X00945Y02784*
X00944*
X00942Y02784*
X00941Y02784*
X0094Y02784*
X00938Y02783*
X00937Y02783*
X00936Y02782*
X00935Y02782*
X00933Y02781*
X00932Y0278*
X00931Y02779*
X0093Y02778*
X00929Y02777*
X00928Y02776*
X00928Y02775*
X00927Y02774*
X00926Y02772*
X00926Y02771*
X00925Y0277*
X00925Y02769*
X00925Y02767*
X00925Y02766*
X00925Y02764*
X00925Y02763*
X00925Y02762*
X00925Y0276*
X00925Y02759*
X00926Y02758*
X00926Y02756*
X00927Y02755*
X00928Y02754*
X00928Y02753*
X00929Y02752*
X0093Y02751*
X00931Y0275*
X00932Y02749*
X00933Y02748*
X00935Y02747*
X00936Y02747*
X00937Y02746*
X00938Y02746*
X0094Y02745*
X00941Y02745*
X00942Y02745*
X00944Y02745*
X00945*
X00946Y02745*
X00948Y02745*
X00949Y02745*
X0095Y02746*
X00952Y02746*
X00953Y02747*
X00954Y02747*
X00955Y02748*
X00957Y02749*
X00958Y0275*
X00959Y02751*
X00959Y02752*
X0096Y02753*
X00961Y02754*
X00962Y02755*
X00962Y02756*
X00963Y02758*
X00963Y02759*
X00964Y0276*
X00964Y02762*
X00964Y02763*
X00964Y02764*
X02852Y01578D02*
D01*
X02852Y01579*
X02852Y0158*
X02851Y01581*
X02851Y01581*
X02851Y01582*
X02851Y01583*
X0285Y01584*
X0285Y01584*
X02849Y01585*
X02849Y01586*
X02848Y01586*
X02848Y01587*
X02847Y01587*
X02846Y01588*
X02846Y01588*
X02845Y01589*
X02844Y01589*
X02843Y01589*
X02843Y0159*
X02842Y0159*
X02841Y0159*
X0284Y0159*
X02839*
X02838Y0159*
X02838Y0159*
X02837Y0159*
X02836Y01589*
X02835Y01589*
X02834Y01589*
X02834Y01588*
X02833Y01588*
X02832Y01587*
X02832Y01587*
X02831Y01586*
X0283Y01586*
X0283Y01585*
X02829Y01584*
X02829Y01584*
X02829Y01583*
X02828Y01582*
X02828Y01581*
X02828Y01581*
X02828Y0158*
X02828Y01579*
X02828Y01578*
X02828Y01577*
X02828Y01576*
X02828Y01576*
X02828Y01575*
X02828Y01574*
X02829Y01573*
X02829Y01572*
X02829Y01572*
X0283Y01571*
X0283Y0157*
X02831Y0157*
X02832Y01569*
X02832Y01569*
X02833Y01568*
X02834Y01568*
X02834Y01567*
X02835Y01567*
X02836Y01567*
X02837Y01566*
X02838Y01566*
X02838Y01566*
X02839Y01566*
X0284*
X02841Y01566*
X02842Y01566*
X02843Y01566*
X02843Y01567*
X02844Y01567*
X02845Y01567*
X02846Y01568*
X02846Y01568*
X02847Y01569*
X02848Y01569*
X02848Y0157*
X02849Y0157*
X02849Y01571*
X0285Y01572*
X0285Y01572*
X02851Y01573*
X02851Y01574*
X02851Y01575*
X02851Y01576*
X02852Y01576*
X02852Y01577*
X02852Y01578*
X02902D02*
D01*
X02902Y01579*
X02902Y0158*
X02901Y01581*
X02901Y01581*
X02901Y01582*
X02901Y01583*
X029Y01584*
X029Y01584*
X02899Y01585*
X02899Y01586*
X02898Y01586*
X02898Y01587*
X02897Y01587*
X02896Y01588*
X02896Y01588*
X02895Y01589*
X02894Y01589*
X02893Y01589*
X02893Y0159*
X02892Y0159*
X02891Y0159*
X0289Y0159*
X02889*
X02888Y0159*
X02888Y0159*
X02887Y0159*
X02886Y01589*
X02885Y01589*
X02884Y01589*
X02884Y01588*
X02883Y01588*
X02882Y01587*
X02882Y01587*
X02881Y01586*
X0288Y01586*
X0288Y01585*
X02879Y01584*
X02879Y01584*
X02879Y01583*
X02878Y01582*
X02878Y01581*
X02878Y01581*
X02878Y0158*
X02878Y01579*
X02878Y01578*
X02878Y01577*
X02878Y01576*
X02878Y01576*
X02878Y01575*
X02878Y01574*
X02879Y01573*
X02879Y01572*
X02879Y01572*
X0288Y01571*
X0288Y0157*
X02881Y0157*
X02882Y01569*
X02882Y01569*
X02883Y01568*
X02884Y01568*
X02884Y01567*
X02885Y01567*
X02886Y01567*
X02887Y01566*
X02888Y01566*
X02888Y01566*
X02889Y01566*
X0289*
X02891Y01566*
X02892Y01566*
X02893Y01566*
X02893Y01567*
X02894Y01567*
X02895Y01567*
X02896Y01568*
X02896Y01568*
X02897Y01569*
X02898Y01569*
X02898Y0157*
X02899Y0157*
X02899Y01571*
X029Y01572*
X029Y01572*
X02901Y01573*
X02901Y01574*
X02901Y01575*
X02901Y01576*
X02902Y01576*
X02902Y01577*
X02902Y01578*
X02852Y01428D02*
D01*
X02852Y01429*
X02852Y0143*
X02851Y01431*
X02851Y01431*
X02851Y01432*
X02851Y01433*
X0285Y01434*
X0285Y01434*
X02849Y01435*
X02849Y01436*
X02848Y01436*
X02848Y01437*
X02847Y01437*
X02846Y01438*
X02846Y01438*
X02845Y01439*
X02844Y01439*
X02843Y01439*
X02843Y0144*
X02842Y0144*
X02841Y0144*
X0284Y0144*
X02839*
X02838Y0144*
X02838Y0144*
X02837Y0144*
X02836Y01439*
X02835Y01439*
X02834Y01439*
X02834Y01438*
X02833Y01438*
X02832Y01437*
X02832Y01437*
X02831Y01436*
X0283Y01436*
X0283Y01435*
X02829Y01434*
X02829Y01434*
X02829Y01433*
X02828Y01432*
X02828Y01431*
X02828Y01431*
X02828Y0143*
X02828Y01429*
X02828Y01428*
X02828Y01427*
X02828Y01426*
X02828Y01426*
X02828Y01425*
X02828Y01424*
X02829Y01423*
X02829Y01422*
X02829Y01422*
X0283Y01421*
X0283Y0142*
X02831Y0142*
X02832Y01419*
X02832Y01419*
X02833Y01418*
X02834Y01418*
X02834Y01417*
X02835Y01417*
X02836Y01417*
X02837Y01416*
X02838Y01416*
X02838Y01416*
X02839Y01416*
X0284*
X02841Y01416*
X02842Y01416*
X02843Y01416*
X02843Y01417*
X02844Y01417*
X02845Y01417*
X02846Y01418*
X02846Y01418*
X02847Y01419*
X02848Y01419*
X02848Y0142*
X02849Y0142*
X02849Y01421*
X0285Y01422*
X0285Y01422*
X02851Y01423*
X02851Y01424*
X02851Y01425*
X02851Y01426*
X02852Y01426*
X02852Y01427*
X02852Y01428*
X02891Y00887D02*
D01*
X02891Y00888*
X02891Y00889*
X02891Y0089*
X02891Y00891*
X0289Y00892*
X0289Y00893*
X02889Y00894*
X02889Y00895*
X02888Y00896*
X02888Y00897*
X02887Y00897*
X02886Y00898*
X02885Y00899*
X02884Y009*
X02883Y009*
X02882Y00901*
X02881Y00901*
X0288Y00901*
X02879Y00902*
X02878Y00902*
X02877Y00902*
X02876Y00902*
X02875*
X02874Y00902*
X02873Y00902*
X02872Y00902*
X02871Y00901*
X0287Y00901*
X02869Y00901*
X02868Y009*
X02867Y009*
X02866Y00899*
X02865Y00898*
X02864Y00897*
X02863Y00897*
X02863Y00896*
X02862Y00895*
X02862Y00894*
X02861Y00893*
X02861Y00892*
X0286Y00891*
X0286Y0089*
X0286Y00889*
X0286Y00888*
X0286Y00887*
X0286Y00885*
X0286Y00884*
X0286Y00883*
X0286Y00882*
X02861Y00881*
X02861Y0088*
X02862Y00879*
X02862Y00878*
X02863Y00877*
X02863Y00876*
X02864Y00876*
X02865Y00875*
X02866Y00874*
X02867Y00873*
X02868Y00873*
X02869Y00872*
X0287Y00872*
X02871Y00872*
X02872Y00871*
X02873Y00871*
X02874Y00871*
X02875Y00871*
X02876*
X02877Y00871*
X02878Y00871*
X02879Y00871*
X0288Y00872*
X02881Y00872*
X02882Y00872*
X02883Y00873*
X02884Y00873*
X02885Y00874*
X02886Y00875*
X02887Y00876*
X02888Y00876*
X02888Y00877*
X02889Y00878*
X02889Y00879*
X0289Y0088*
X0289Y00881*
X02891Y00882*
X02891Y00883*
X02891Y00884*
X02891Y00885*
X02891Y00887*
Y00965D02*
D01*
X02891Y00966*
X02891Y00967*
X02891Y00969*
X02891Y0097*
X0289Y00971*
X0289Y00972*
X02889Y00973*
X02889Y00974*
X02888Y00975*
X02888Y00975*
X02887Y00976*
X02886Y00977*
X02885Y00978*
X02884Y00978*
X02883Y00979*
X02882Y00979*
X02881Y0098*
X0288Y0098*
X02879Y00981*
X02878Y00981*
X02877Y00981*
X02876Y00981*
X02875*
X02874Y00981*
X02873Y00981*
X02872Y00981*
X02871Y0098*
X0287Y0098*
X02869Y00979*
X02868Y00979*
X02867Y00978*
X02866Y00978*
X02865Y00977*
X02864Y00976*
X02863Y00975*
X02863Y00975*
X02862Y00974*
X02862Y00973*
X02861Y00972*
X02861Y00971*
X0286Y0097*
X0286Y00969*
X0286Y00967*
X0286Y00966*
X0286Y00965*
X0286Y00964*
X0286Y00963*
X0286Y00962*
X0286Y00961*
X02861Y0096*
X02861Y00959*
X02862Y00958*
X02862Y00957*
X02863Y00956*
X02863Y00955*
X02864Y00954*
X02865Y00954*
X02866Y00953*
X02867Y00952*
X02868Y00952*
X02869Y00951*
X0287Y00951*
X02871Y0095*
X02872Y0095*
X02873Y0095*
X02874Y0095*
X02875Y0095*
X02876*
X02877Y0095*
X02878Y0095*
X02879Y0095*
X0288Y0095*
X02881Y00951*
X02882Y00951*
X02883Y00952*
X02884Y00952*
X02885Y00953*
X02886Y00954*
X02887Y00954*
X02888Y00955*
X02888Y00956*
X02889Y00957*
X02889Y00958*
X0289Y00959*
X0289Y0096*
X02891Y00961*
X02891Y00962*
X02891Y00963*
X02891Y00964*
X02891Y00965*
X02857Y0074D02*
D01*
X02857Y00741*
X02857Y00743*
X02857Y00744*
X02856Y00745*
X02856Y00747*
X02855Y00748*
X02855Y00749*
X02854Y0075*
X02853Y00752*
X02852Y00753*
X02852Y00754*
X02851Y00755*
X0285Y00756*
X02848Y00756*
X02847Y00757*
X02846Y00758*
X02845Y00758*
X02843Y00759*
X02842Y00759*
X02841Y00759*
X02839Y0076*
X02838Y0076*
X02837*
X02835Y0076*
X02834Y00759*
X02833Y00759*
X02831Y00759*
X0283Y00758*
X02829Y00758*
X02828Y00757*
X02826Y00756*
X02825Y00756*
X02824Y00755*
X02823Y00754*
X02822Y00753*
X02821Y00752*
X02821Y0075*
X0282Y00749*
X02819Y00748*
X02819Y00747*
X02818Y00745*
X02818Y00744*
X02818Y00743*
X02818Y00741*
X02818Y0074*
X02818Y00739*
X02818Y00737*
X02818Y00736*
X02818Y00735*
X02819Y00733*
X02819Y00732*
X0282Y00731*
X02821Y0073*
X02821Y00728*
X02822Y00727*
X02823Y00726*
X02824Y00725*
X02825Y00725*
X02826Y00724*
X02828Y00723*
X02829Y00722*
X0283Y00722*
X02831Y00721*
X02833Y00721*
X02834Y00721*
X02835Y0072*
X02837Y0072*
X02838*
X02839Y0072*
X02841Y00721*
X02842Y00721*
X02843Y00721*
X02845Y00722*
X02846Y00722*
X02847Y00723*
X02848Y00724*
X0285Y00725*
X02851Y00725*
X02852Y00726*
X02852Y00727*
X02853Y00728*
X02854Y0073*
X02855Y00731*
X02855Y00732*
X02856Y00733*
X02856Y00735*
X02857Y00736*
X02857Y00737*
X02857Y00739*
X02857Y0074*
X02556Y02664D02*
D01*
X02556Y02666*
X02556Y02667*
X02556Y02669*
X02555Y0267*
X02555Y02671*
X02554Y02672*
X02554Y02674*
X02553Y02675*
X02552Y02676*
X02552Y02677*
X02551Y02678*
X0255Y02679*
X02549Y0268*
X02548Y02681*
X02546Y02682*
X02545Y02682*
X02544Y02683*
X02543Y02683*
X02541Y02684*
X0254Y02684*
X02539Y02684*
X02537Y02684*
X02536*
X02534Y02684*
X02533Y02684*
X02532Y02684*
X0253Y02683*
X02529Y02683*
X02528Y02682*
X02527Y02682*
X02526Y02681*
X02524Y0268*
X02523Y02679*
X02522Y02678*
X02521Y02677*
X02521Y02676*
X0252Y02675*
X02519Y02674*
X02519Y02672*
X02518Y02671*
X02518Y0267*
X02517Y02669*
X02517Y02667*
X02517Y02666*
X02517Y02664*
X02517Y02663*
X02517Y02662*
X02517Y0266*
X02518Y02659*
X02518Y02658*
X02519Y02656*
X02519Y02655*
X0252Y02654*
X02521Y02653*
X02521Y02652*
X02522Y02651*
X02523Y0265*
X02524Y02649*
X02526Y02648*
X02527Y02647*
X02528Y02647*
X02529Y02646*
X0253Y02646*
X02532Y02645*
X02533Y02645*
X02534Y02645*
X02536Y02645*
X02537*
X02539Y02645*
X0254Y02645*
X02541Y02645*
X02543Y02646*
X02544Y02646*
X02545Y02647*
X02546Y02647*
X02548Y02648*
X02549Y02649*
X0255Y0265*
X02551Y02651*
X02552Y02652*
X02552Y02653*
X02553Y02654*
X02554Y02655*
X02554Y02656*
X02555Y02658*
X02555Y02659*
X02556Y0266*
X02556Y02662*
X02556Y02663*
X02556Y02664*
X02902Y01478D02*
D01*
X02902Y01479*
X02902Y0148*
X02901Y01481*
X02901Y01481*
X02901Y01482*
X02901Y01483*
X029Y01484*
X029Y01484*
X02899Y01485*
X02899Y01486*
X02898Y01486*
X02898Y01487*
X02897Y01487*
X02896Y01488*
X02896Y01488*
X02895Y01489*
X02894Y01489*
X02893Y01489*
X02893Y0149*
X02892Y0149*
X02891Y0149*
X0289Y0149*
X02889*
X02888Y0149*
X02888Y0149*
X02887Y0149*
X02886Y01489*
X02885Y01489*
X02884Y01489*
X02884Y01488*
X02883Y01488*
X02882Y01487*
X02882Y01487*
X02881Y01486*
X0288Y01486*
X0288Y01485*
X02879Y01484*
X02879Y01484*
X02879Y01483*
X02878Y01482*
X02878Y01481*
X02878Y01481*
X02878Y0148*
X02878Y01479*
X02878Y01478*
X02878Y01477*
X02878Y01476*
X02878Y01476*
X02878Y01475*
X02878Y01474*
X02879Y01473*
X02879Y01472*
X02879Y01472*
X0288Y01471*
X0288Y0147*
X02881Y0147*
X02882Y01469*
X02882Y01469*
X02883Y01468*
X02884Y01468*
X02884Y01467*
X02885Y01467*
X02886Y01467*
X02887Y01466*
X02888Y01466*
X02888Y01466*
X02889Y01466*
X0289*
X02891Y01466*
X02892Y01466*
X02893Y01466*
X02893Y01467*
X02894Y01467*
X02895Y01467*
X02896Y01468*
X02896Y01468*
X02897Y01469*
X02898Y01469*
X02898Y0147*
X02899Y0147*
X02899Y01471*
X029Y01472*
X029Y01472*
X02901Y01473*
X02901Y01474*
X02901Y01475*
X02901Y01476*
X02902Y01476*
X02902Y01477*
X02902Y01478*
X02852D02*
D01*
X02852Y01479*
X02852Y0148*
X02851Y01481*
X02851Y01481*
X02851Y01482*
X02851Y01483*
X0285Y01484*
X0285Y01484*
X02849Y01485*
X02849Y01486*
X02848Y01486*
X02848Y01487*
X02847Y01487*
X02846Y01488*
X02846Y01488*
X02845Y01489*
X02844Y01489*
X02843Y01489*
X02843Y0149*
X02842Y0149*
X02841Y0149*
X0284Y0149*
X02839*
X02838Y0149*
X02838Y0149*
X02837Y0149*
X02836Y01489*
X02835Y01489*
X02834Y01489*
X02834Y01488*
X02833Y01488*
X02832Y01487*
X02832Y01487*
X02831Y01486*
X0283Y01486*
X0283Y01485*
X02829Y01484*
X02829Y01484*
X02829Y01483*
X02828Y01482*
X02828Y01481*
X02828Y01481*
X02828Y0148*
X02828Y01479*
X02828Y01478*
X02828Y01477*
X02828Y01476*
X02828Y01476*
X02828Y01475*
X02828Y01474*
X02829Y01473*
X02829Y01472*
X02829Y01472*
X0283Y01471*
X0283Y0147*
X02831Y0147*
X02832Y01469*
X02832Y01469*
X02833Y01468*
X02834Y01468*
X02834Y01467*
X02835Y01467*
X02836Y01467*
X02837Y01466*
X02838Y01466*
X02838Y01466*
X02839Y01466*
X0284*
X02841Y01466*
X02842Y01466*
X02843Y01466*
X02843Y01467*
X02844Y01467*
X02845Y01467*
X02846Y01468*
X02846Y01468*
X02847Y01469*
X02848Y01469*
X02848Y0147*
X02849Y0147*
X02849Y01471*
X0285Y01472*
X0285Y01472*
X02851Y01473*
X02851Y01474*
X02851Y01475*
X02851Y01476*
X02852Y01476*
X02852Y01477*
X02852Y01478*
X02902Y01428D02*
D01*
X02902Y01429*
X02902Y0143*
X02901Y01431*
X02901Y01431*
X02901Y01432*
X02901Y01433*
X029Y01434*
X029Y01434*
X02899Y01435*
X02899Y01436*
X02898Y01436*
X02898Y01437*
X02897Y01437*
X02896Y01438*
X02896Y01438*
X02895Y01439*
X02894Y01439*
X02893Y01439*
X02893Y0144*
X02892Y0144*
X02891Y0144*
X0289Y0144*
X02889*
X02888Y0144*
X02888Y0144*
X02887Y0144*
X02886Y01439*
X02885Y01439*
X02884Y01439*
X02884Y01438*
X02883Y01438*
X02882Y01437*
X02882Y01437*
X02881Y01436*
X0288Y01436*
X0288Y01435*
X02879Y01434*
X02879Y01434*
X02879Y01433*
X02878Y01432*
X02878Y01431*
X02878Y01431*
X02878Y0143*
X02878Y01429*
X02878Y01428*
X02878Y01427*
X02878Y01426*
X02878Y01426*
X02878Y01425*
X02878Y01424*
X02879Y01423*
X02879Y01422*
X02879Y01422*
X0288Y01421*
X0288Y0142*
X02881Y0142*
X02882Y01419*
X02882Y01419*
X02883Y01418*
X02884Y01418*
X02884Y01417*
X02885Y01417*
X02886Y01417*
X02887Y01416*
X02888Y01416*
X02888Y01416*
X02889Y01416*
X0289*
X02891Y01416*
X02892Y01416*
X02893Y01416*
X02893Y01417*
X02894Y01417*
X02895Y01417*
X02896Y01418*
X02896Y01418*
X02897Y01419*
X02898Y01419*
X02898Y0142*
X02899Y0142*
X02899Y01421*
X029Y01422*
X029Y01422*
X02901Y01423*
X02901Y01424*
X02901Y01425*
X02901Y01426*
X02902Y01426*
X02902Y01427*
X02902Y01428*
X02857Y0064D02*
D01*
X02857Y00641*
X02857Y00643*
X02857Y00644*
X02856Y00645*
X02856Y00647*
X02855Y00648*
X02855Y00649*
X02854Y0065*
X02853Y00652*
X02852Y00653*
X02852Y00654*
X02851Y00655*
X0285Y00656*
X02848Y00656*
X02847Y00657*
X02846Y00658*
X02845Y00658*
X02843Y00659*
X02842Y00659*
X02841Y00659*
X02839Y0066*
X02838Y0066*
X02837*
X02835Y0066*
X02834Y00659*
X02833Y00659*
X02831Y00659*
X0283Y00658*
X02829Y00658*
X02828Y00657*
X02826Y00656*
X02825Y00656*
X02824Y00655*
X02823Y00654*
X02822Y00653*
X02821Y00652*
X02821Y0065*
X0282Y00649*
X02819Y00648*
X02819Y00647*
X02818Y00645*
X02818Y00644*
X02818Y00643*
X02818Y00641*
X02818Y0064*
X02818Y00639*
X02818Y00637*
X02818Y00636*
X02818Y00635*
X02819Y00633*
X02819Y00632*
X0282Y00631*
X02821Y0063*
X02821Y00628*
X02822Y00627*
X02823Y00626*
X02824Y00625*
X02825Y00625*
X02826Y00624*
X02828Y00623*
X02829Y00622*
X0283Y00622*
X02831Y00621*
X02833Y00621*
X02834Y00621*
X02835Y0062*
X02837Y0062*
X02838*
X02839Y0062*
X02841Y00621*
X02842Y00621*
X02843Y00621*
X02845Y00622*
X02846Y00622*
X02847Y00623*
X02848Y00624*
X0285Y00625*
X02851Y00625*
X02852Y00626*
X02852Y00627*
X02853Y00628*
X02854Y0063*
X02855Y00631*
X02855Y00632*
X02856Y00633*
X02856Y00635*
X02857Y00636*
X02857Y00637*
X02857Y00639*
X02857Y0064*
X00767Y02764D02*
D01*
X00767Y02766*
X00767Y02767*
X00767Y02769*
X00766Y0277*
X00766Y02771*
X00766Y02772*
X00765Y02774*
X00764Y02775*
X00763Y02776*
X00763Y02777*
X00762Y02778*
X00761Y02779*
X0076Y0278*
X00759Y02781*
X00757Y02782*
X00756Y02782*
X00755Y02783*
X00754Y02783*
X00752Y02784*
X00751Y02784*
X0075Y02784*
X00748Y02784*
X00747*
X00746Y02784*
X00744Y02784*
X00743Y02784*
X00741Y02783*
X0074Y02783*
X00739Y02782*
X00738Y02782*
X00737Y02781*
X00735Y0278*
X00734Y02779*
X00733Y02778*
X00732Y02777*
X00732Y02776*
X00731Y02775*
X0073Y02774*
X0073Y02772*
X00729Y02771*
X00729Y0277*
X00728Y02769*
X00728Y02767*
X00728Y02766*
X00728Y02764*
X00728Y02763*
X00728Y02762*
X00728Y0276*
X00729Y02759*
X00729Y02758*
X0073Y02756*
X0073Y02755*
X00731Y02754*
X00732Y02753*
X00732Y02752*
X00733Y02751*
X00734Y0275*
X00735Y02749*
X00737Y02748*
X00738Y02747*
X00739Y02747*
X0074Y02746*
X00741Y02746*
X00743Y02745*
X00744Y02745*
X00746Y02745*
X00747Y02745*
X00748*
X0075Y02745*
X00751Y02745*
X00752Y02745*
X00754Y02746*
X00755Y02746*
X00756Y02747*
X00757Y02747*
X00759Y02748*
X0076Y02749*
X00761Y0275*
X00762Y02751*
X00763Y02752*
X00763Y02753*
X00764Y02754*
X00765Y02755*
X00766Y02756*
X00766Y02758*
X00766Y02759*
X00767Y0276*
X00767Y02762*
X00767Y02763*
X00767Y02764*
X02852Y01528D02*
D01*
X02852Y01529*
X02852Y0153*
X02851Y01531*
X02851Y01531*
X02851Y01532*
X02851Y01533*
X0285Y01534*
X0285Y01534*
X02849Y01535*
X02849Y01536*
X02848Y01536*
X02848Y01537*
X02847Y01537*
X02846Y01538*
X02846Y01538*
X02845Y01539*
X02844Y01539*
X02843Y01539*
X02843Y0154*
X02842Y0154*
X02841Y0154*
X0284Y0154*
X02839*
X02838Y0154*
X02838Y0154*
X02837Y0154*
X02836Y01539*
X02835Y01539*
X02834Y01539*
X02834Y01538*
X02833Y01538*
X02832Y01537*
X02832Y01537*
X02831Y01536*
X0283Y01536*
X0283Y01535*
X02829Y01534*
X02829Y01534*
X02829Y01533*
X02828Y01532*
X02828Y01531*
X02828Y01531*
X02828Y0153*
X02828Y01529*
X02828Y01528*
X02828Y01527*
X02828Y01526*
X02828Y01526*
X02828Y01525*
X02828Y01524*
X02829Y01523*
X02829Y01522*
X02829Y01522*
X0283Y01521*
X0283Y0152*
X02831Y0152*
X02832Y01519*
X02832Y01519*
X02833Y01518*
X02834Y01518*
X02834Y01517*
X02835Y01517*
X02836Y01517*
X02837Y01516*
X02838Y01516*
X02838Y01516*
X02839Y01516*
X0284*
X02841Y01516*
X02842Y01516*
X02843Y01516*
X02843Y01517*
X02844Y01517*
X02845Y01517*
X02846Y01518*
X02846Y01518*
X02847Y01519*
X02848Y01519*
X02848Y0152*
X02849Y0152*
X02849Y01521*
X0285Y01522*
X0285Y01522*
X02851Y01523*
X02851Y01524*
X02851Y01525*
X02851Y01526*
X02852Y01526*
X02852Y01527*
X02852Y01528*
X02889Y00423D02*
D01*
X02889Y00427*
X02889Y00431*
X02888Y00436*
X02887Y0044*
X02885Y00444*
X02884Y00448*
X02882Y00452*
X0288Y00456*
X02877Y0046*
X02875Y00463*
X02872Y00466*
X02868Y0047*
X02865Y00472*
X02861Y00475*
X02858Y00477*
X02854Y00479*
X0285Y00481*
X02846Y00483*
X02842Y00484*
X02837Y00485*
X02833Y00485*
X02828Y00486*
X02824*
X0282Y00485*
X02815Y00485*
X02811Y00484*
X02807Y00483*
X02803Y00481*
X02799Y00479*
X02795Y00477*
X02791Y00475*
X02787Y00472*
X02784Y0047*
X02781Y00466*
X02778Y00463*
X02775Y0046*
X02773Y00456*
X02771Y00452*
X02769Y00448*
X02767Y00444*
X02766Y0044*
X02765Y00436*
X02764Y00431*
X02763Y00427*
X02763Y00423*
X02763Y00418*
X02764Y00414*
X02765Y0041*
X02766Y00405*
X02767Y00401*
X02769Y00397*
X02771Y00393*
X02773Y00389*
X02775Y00386*
X02778Y00382*
X02781Y00379*
X02784Y00376*
X02787Y00373*
X02791Y00371*
X02795Y00368*
X02799Y00366*
X02803Y00364*
X02807Y00363*
X02811Y00362*
X02815Y00361*
X0282Y0036*
X02824Y0036*
X02828*
X02833Y0036*
X02837Y00361*
X02842Y00362*
X02846Y00363*
X0285Y00364*
X02854Y00366*
X02858Y00368*
X02861Y00371*
X02865Y00373*
X02868Y00376*
X02872Y00379*
X02875Y00382*
X02877Y00386*
X0288Y00389*
X02882Y00393*
X02884Y00397*
X02885Y00401*
X02887Y00405*
X02888Y0041*
X02889Y00414*
X02889Y00418*
X02889Y00423*
Y02706D02*
D01*
X02889Y02711*
X02889Y02715*
X02888Y02719*
X02887Y02724*
X02885Y02728*
X02884Y02732*
X02882Y02736*
X0288Y0274*
X02877Y02743*
X02875Y02747*
X02872Y0275*
X02868Y02753*
X02865Y02756*
X02861Y02758*
X02858Y02761*
X02854Y02763*
X0285Y02765*
X02846Y02766*
X02842Y02767*
X02837Y02768*
X02833Y02769*
X02828Y02769*
X02824*
X0282Y02769*
X02815Y02768*
X02811Y02767*
X02807Y02766*
X02803Y02765*
X02799Y02763*
X02795Y02761*
X02791Y02758*
X02787Y02756*
X02784Y02753*
X02781Y0275*
X02778Y02747*
X02775Y02743*
X02773Y0274*
X02771Y02736*
X02769Y02732*
X02767Y02728*
X02766Y02724*
X02765Y02719*
X02764Y02715*
X02763Y02711*
X02763Y02706*
X02763Y02702*
X02764Y02697*
X02765Y02693*
X02766Y02689*
X02767Y02685*
X02769Y02681*
X02771Y02677*
X02773Y02673*
X02775Y02669*
X02778Y02666*
X02781Y02662*
X02784Y02659*
X02787Y02657*
X02791Y02654*
X02795Y02652*
X02799Y0265*
X02803Y02648*
X02807Y02646*
X02811Y02645*
X02815Y02644*
X0282Y02644*
X02824Y02643*
X02828*
X02833Y02644*
X02837Y02644*
X02842Y02645*
X02846Y02646*
X0285Y02648*
X02854Y0265*
X02858Y02652*
X02861Y02654*
X02865Y02657*
X02868Y02659*
X02872Y02662*
X02875Y02666*
X02877Y02669*
X0288Y02673*
X02882Y02677*
X02884Y02681*
X02885Y02685*
X02887Y02689*
X02888Y02693*
X02889Y02697*
X02889Y02702*
X02889Y02706*
X00311Y02782D02*
D01*
X00311Y02782*
X0031Y02783*
X0031Y02784*
X0031Y02784*
X0031Y02785*
X0031Y02786*
X00309Y02786*
X00309Y02787*
X00309Y02788*
X00308Y02788*
X00308Y02789*
X00307Y02789*
X00307Y0279*
X00306Y0279*
X00306Y0279*
X00305Y02791*
X00304Y02791*
X00304Y02791*
X00303Y02791*
X00302Y02791*
X00302Y02792*
X00301Y02792*
X003*
X003Y02792*
X00299Y02791*
X00298Y02791*
X00298Y02791*
X00297Y02791*
X00296Y02791*
X00296Y0279*
X00295Y0279*
X00295Y0279*
X00294Y02789*
X00294Y02789*
X00293Y02788*
X00293Y02788*
X00292Y02787*
X00292Y02786*
X00292Y02786*
X00291Y02785*
X00291Y02784*
X00291Y02784*
X00291Y02783*
X00291Y02782*
X00291Y02782*
Y0275D02*
D01*
X00291Y0275*
X00291Y02749*
X00291Y02748*
X00291Y02748*
X00291Y02747*
X00292Y02746*
X00292Y02746*
X00292Y02745*
X00293Y02745*
X00293Y02744*
X00294Y02743*
X00294Y02743*
X00295Y02743*
X00295Y02742*
X00296Y02742*
X00296Y02741*
X00297Y02741*
X00298Y02741*
X00298Y02741*
X00299Y02741*
X003Y0274*
X003Y0274*
X00301*
X00302Y0274*
X00302Y02741*
X00303Y02741*
X00304Y02741*
X00304Y02741*
X00305Y02741*
X00306Y02742*
X00306Y02742*
X00307Y02743*
X00307Y02743*
X00308Y02743*
X00308Y02744*
X00309Y02745*
X00309Y02745*
X00309Y02746*
X0031Y02746*
X0031Y02747*
X0031Y02748*
X0031Y02748*
X0031Y02749*
X00311Y0275*
X00311Y0275*
X00553Y02661D02*
D01*
X00553Y02662*
X00553Y02663*
X00552Y02664*
X00552Y02665*
X00552Y02666*
X00551Y02667*
X00551Y02667*
X00551Y02668*
X0055Y02669*
X00549Y0267*
X00549Y0267*
X00548Y02671*
X00547Y02672*
X00547Y02672*
X00546Y02673*
X00545Y02673*
X00544Y02674*
X00543Y02674*
X00542Y02674*
X00541Y02674*
X0054Y02675*
X00539Y02675*
X00538*
X00537Y02675*
X00536Y02674*
X00536Y02674*
X00535Y02674*
X00534Y02674*
X00533Y02673*
X00532Y02673*
X00531Y02672*
X0053Y02672*
X0053Y02671*
X00529Y0267*
X00528Y0267*
X00528Y02669*
X00527Y02668*
X00527Y02667*
X00526Y02667*
X00526Y02666*
X00526Y02665*
X00525Y02664*
X00525Y02663*
X00525Y02662*
X00525Y02661*
X00525Y0266*
X00525Y02659*
X00525Y02658*
X00526Y02657*
X00526Y02656*
X00526Y02655*
X00527Y02654*
X00527Y02654*
X00528Y02653*
X00528Y02652*
X00529Y02651*
X0053Y02651*
X0053Y0265*
X00531Y02649*
X00532Y02649*
X00533Y02649*
X00534Y02648*
X00535Y02648*
X00536Y02648*
X00536Y02647*
X00537Y02647*
X00538Y02647*
X00539*
X0054Y02647*
X00541Y02647*
X00542Y02648*
X00543Y02648*
X00544Y02648*
X00545Y02649*
X00546Y02649*
X00547Y02649*
X00547Y0265*
X00548Y02651*
X00549Y02651*
X00549Y02652*
X0055Y02653*
X00551Y02654*
X00551Y02654*
X00551Y02655*
X00552Y02656*
X00552Y02657*
X00552Y02658*
X00553Y02659*
X00553Y0266*
X00553Y02661*
X02935Y01881D02*
D01*
X02934Y01882*
X02934Y01884*
X02934Y01886*
X02934Y01887*
X02933Y01889*
X02932Y0189*
X02932Y01892*
X02931Y01893*
X0293Y01895*
X02929Y01896*
X02928Y01897*
X02927Y01898*
X02925Y01899*
X02924Y019*
X02923Y01901*
X02921Y01902*
X0292Y01903*
X02918Y01903*
X02917Y01904*
X02915Y01904*
X02913Y01904*
X02912Y01904*
X0291*
X02908Y01904*
X02907Y01904*
X02905Y01904*
X02904Y01903*
X02902Y01903*
X02901Y01902*
X02899Y01901*
X02898Y019*
X02896Y01899*
X02895Y01898*
X02894Y01897*
X02893Y01896*
X02892Y01895*
X02891Y01893*
X0289Y01892*
X02889Y0189*
X02889Y01889*
X02888Y01887*
X02888Y01886*
X02888Y01884*
X02887Y01882*
X02887Y01881*
X02887Y01879*
X02888Y01878*
X02888Y01876*
X02888Y01874*
X02889Y01873*
X02889Y01871*
X0289Y0187*
X02891Y01868*
X02892Y01867*
X02893Y01866*
X02894Y01864*
X02895Y01863*
X02896Y01862*
X02898Y01861*
X02899Y0186*
X02901Y0186*
X02902Y01859*
X02904Y01858*
X02905Y01858*
X02907Y01858*
X02908Y01857*
X0291Y01857*
X02912*
X02913Y01857*
X02915Y01858*
X02917Y01858*
X02918Y01858*
X0292Y01859*
X02921Y0186*
X02923Y0186*
X02924Y01861*
X02925Y01862*
X02927Y01863*
X02928Y01864*
X02929Y01866*
X0293Y01867*
X02931Y01868*
X02932Y0187*
X02932Y01871*
X02933Y01873*
X02934Y01874*
X02934Y01876*
X02934Y01878*
X02934Y01879*
X02935Y01881*
X00594Y02782D02*
D01*
X00594Y02782*
X00594Y02783*
X00594Y02784*
X00594Y02784*
X00593Y02785*
X00593Y02786*
X00593Y02786*
X00592Y02787*
X00592Y02788*
X00592Y02788*
X00591Y02789*
X00591Y02789*
X0059Y0279*
X0059Y0279*
X00589Y0279*
X00588Y02791*
X00588Y02791*
X00587Y02791*
X00587Y02791*
X00586Y02791*
X00585Y02792*
X00584Y02792*
X00584*
X00583Y02792*
X00582Y02791*
X00582Y02791*
X00581Y02791*
X0058Y02791*
X0058Y02791*
X00579Y0279*
X00579Y0279*
X00578Y0279*
X00578Y02789*
X00577Y02789*
X00577Y02788*
X00576Y02788*
X00576Y02787*
X00575Y02786*
X00575Y02786*
X00575Y02785*
X00575Y02784*
X00575Y02784*
X00574Y02783*
X00574Y02782*
X00574Y02782*
X02913Y0025D02*
D01*
X02913Y00252*
X02913Y00253*
X02912Y00254*
X02912Y00255*
X02912Y00256*
X02911Y00257*
X02911Y00258*
X0291Y00259*
X0291Y0026*
X02909Y00261*
X02908Y00261*
X02908Y00262*
X02907Y00263*
X02906Y00264*
X02905Y00264*
X02904Y00265*
X02903Y00265*
X02902Y00265*
X02901Y00266*
X029Y00266*
X02899Y00266*
X02898Y00266*
X02897*
X02895Y00266*
X02894Y00266*
X02893Y00266*
X02892Y00265*
X02891Y00265*
X0289Y00265*
X02889Y00264*
X02888Y00264*
X02887Y00263*
X02887Y00262*
X02886Y00261*
X02885Y00261*
X02884Y0026*
X02884Y00259*
X02883Y00258*
X02883Y00257*
X02882Y00256*
X02882Y00255*
X02882Y00254*
X02881Y00253*
X02881Y00252*
X02881Y0025*
X02881Y00249*
X02881Y00248*
X02882Y00247*
X02882Y00246*
X02882Y00245*
X02883Y00244*
X02883Y00243*
X02884Y00242*
X02884Y00241*
X02885Y0024*
X02886Y0024*
X02887Y00239*
X02887Y00238*
X02888Y00237*
X02889Y00237*
X0289Y00236*
X02891Y00236*
X02892Y00236*
X02893Y00235*
X02894Y00235*
X02895Y00235*
X02897Y00235*
X02898*
X02899Y00235*
X029Y00235*
X02901Y00235*
X02902Y00236*
X02903Y00236*
X02904Y00236*
X02905Y00237*
X02906Y00237*
X02907Y00238*
X02908Y00239*
X02908Y0024*
X02909Y0024*
X0291Y00241*
X0291Y00242*
X02911Y00243*
X02911Y00244*
X02912Y00245*
X02912Y00246*
X02912Y00247*
X02913Y00248*
X02913Y00249*
X02913Y0025*
X02486Y00062D02*
D01*
X02486Y00064*
X02486Y00065*
X02486Y00066*
X02485Y00067*
X02485Y00069*
X02485Y0007*
X02484Y00071*
X02483Y00072*
X02483Y00073*
X02482Y00074*
X02481Y00075*
X0248Y00076*
X02479Y00076*
X02478Y00077*
X02477Y00078*
X02476Y00078*
X02475Y00079*
X02474Y00079*
X02473Y0008*
X02471Y0008*
X0247Y0008*
X02469Y0008*
X02468*
X02467Y0008*
X02465Y0008*
X02464Y0008*
X02463Y00079*
X02462Y00079*
X02461Y00078*
X0246Y00078*
X02458Y00077*
X02457Y00076*
X02457Y00076*
X02456Y00075*
X02455Y00074*
X02454Y00073*
X02453Y00072*
X02453Y00071*
X02452Y0007*
X02452Y00069*
X02451Y00067*
X02451Y00066*
X02451Y00065*
X02451Y00064*
X02451Y00062*
X02451Y00061*
X02451Y0006*
X02451Y00059*
X02451Y00058*
X02452Y00056*
X02452Y00055*
X02453Y00054*
X02453Y00053*
X02454Y00052*
X02455Y00051*
X02456Y0005*
X02457Y00049*
X02457Y00049*
X02458Y00048*
X0246Y00047*
X02461Y00047*
X02462Y00046*
X02463Y00046*
X02464Y00045*
X02465Y00045*
X02467Y00045*
X02468Y00045*
X02469*
X0247Y00045*
X02471Y00045*
X02473Y00045*
X02474Y00046*
X02475Y00046*
X02476Y00047*
X02477Y00047*
X02478Y00048*
X02479Y00049*
X0248Y00049*
X02481Y0005*
X02482Y00051*
X02483Y00052*
X02483Y00053*
X02484Y00054*
X02485Y00055*
X02485Y00056*
X02485Y00058*
X02486Y00059*
X02486Y0006*
X02486Y00061*
X02486Y00062*
Y00212D02*
D01*
X02486Y00213*
X02486Y00215*
X02486Y00216*
X02485Y00217*
X02485Y00218*
X02485Y00219*
X02484Y0022*
X02483Y00221*
X02483Y00223*
X02482Y00223*
X02481Y00224*
X0248Y00225*
X02479Y00226*
X02478Y00227*
X02477Y00227*
X02476Y00228*
X02475Y00229*
X02474Y00229*
X02473Y00229*
X02471Y0023*
X0247Y0023*
X02469Y0023*
X02468*
X02467Y0023*
X02465Y0023*
X02464Y00229*
X02463Y00229*
X02462Y00229*
X02461Y00228*
X0246Y00227*
X02458Y00227*
X02457Y00226*
X02457Y00225*
X02456Y00224*
X02455Y00223*
X02454Y00223*
X02453Y00221*
X02453Y0022*
X02452Y00219*
X02452Y00218*
X02451Y00217*
X02451Y00216*
X02451Y00215*
X02451Y00213*
X02451Y00212*
X02451Y00211*
X02451Y0021*
X02451Y00208*
X02451Y00207*
X02452Y00206*
X02452Y00205*
X02453Y00204*
X02453Y00203*
X02454Y00202*
X02455Y00201*
X02456Y002*
X02457Y00199*
X02457Y00198*
X02458Y00197*
X0246Y00197*
X02461Y00196*
X02462Y00196*
X02463Y00195*
X02464Y00195*
X02465Y00195*
X02467Y00194*
X02468Y00194*
X02469*
X0247Y00194*
X02471Y00195*
X02473Y00195*
X02474Y00195*
X02475Y00196*
X02476Y00196*
X02477Y00197*
X02478Y00197*
X02479Y00198*
X0248Y00199*
X02481Y002*
X02482Y00201*
X02483Y00202*
X02483Y00203*
X02484Y00204*
X02485Y00205*
X02485Y00206*
X02485Y00207*
X02486Y00208*
X02486Y0021*
X02486Y00211*
X02486Y00212*
X02826D02*
D01*
X02826Y00213*
X02826Y00215*
X02826Y00216*
X02826Y00217*
X02825Y00218*
X02825Y00219*
X02824Y0022*
X02824Y00221*
X02823Y00223*
X02822Y00223*
X02821Y00224*
X0282Y00225*
X02819Y00226*
X02818Y00227*
X02817Y00227*
X02816Y00228*
X02815Y00229*
X02814Y00229*
X02813Y00229*
X02812Y0023*
X0281Y0023*
X02809Y0023*
X02808*
X02807Y0023*
X02805Y0023*
X02804Y00229*
X02803Y00229*
X02802Y00229*
X02801Y00228*
X028Y00227*
X02799Y00227*
X02798Y00226*
X02797Y00225*
X02796Y00224*
X02795Y00223*
X02794Y00223*
X02794Y00221*
X02793Y0022*
X02792Y00219*
X02792Y00218*
X02792Y00217*
X02791Y00216*
X02791Y00215*
X02791Y00213*
X02791Y00212*
X02791Y00211*
X02791Y0021*
X02791Y00208*
X02792Y00207*
X02792Y00206*
X02792Y00205*
X02793Y00204*
X02794Y00203*
X02794Y00202*
X02795Y00201*
X02796Y002*
X02797Y00199*
X02798Y00198*
X02799Y00197*
X028Y00197*
X02801Y00196*
X02802Y00196*
X02803Y00195*
X02804Y00195*
X02805Y00195*
X02807Y00194*
X02808Y00194*
X02809*
X0281Y00194*
X02812Y00195*
X02813Y00195*
X02814Y00195*
X02815Y00196*
X02816Y00196*
X02817Y00197*
X02818Y00197*
X02819Y00198*
X0282Y00199*
X02821Y002*
X02822Y00201*
X02823Y00202*
X02824Y00203*
X02824Y00204*
X02825Y00205*
X02825Y00206*
X02826Y00207*
X02826Y00208*
X02826Y0021*
X02826Y00211*
X02826Y00212*
Y00062D02*
D01*
X02826Y00064*
X02826Y00065*
X02826Y00066*
X02826Y00067*
X02825Y00069*
X02825Y0007*
X02824Y00071*
X02824Y00072*
X02823Y00073*
X02822Y00074*
X02821Y00075*
X0282Y00076*
X02819Y00076*
X02818Y00077*
X02817Y00078*
X02816Y00078*
X02815Y00079*
X02814Y00079*
X02813Y0008*
X02812Y0008*
X0281Y0008*
X02809Y0008*
X02808*
X02807Y0008*
X02805Y0008*
X02804Y0008*
X02803Y00079*
X02802Y00079*
X02801Y00078*
X028Y00078*
X02799Y00077*
X02798Y00076*
X02797Y00076*
X02796Y00075*
X02795Y00074*
X02794Y00073*
X02794Y00072*
X02793Y00071*
X02792Y0007*
X02792Y00069*
X02792Y00067*
X02791Y00066*
X02791Y00065*
X02791Y00064*
X02791Y00062*
X02791Y00061*
X02791Y0006*
X02791Y00059*
X02792Y00058*
X02792Y00056*
X02792Y00055*
X02793Y00054*
X02794Y00053*
X02794Y00052*
X02795Y00051*
X02796Y0005*
X02797Y00049*
X02798Y00049*
X02799Y00048*
X028Y00047*
X02801Y00047*
X02802Y00046*
X02803Y00046*
X02804Y00045*
X02805Y00045*
X02807Y00045*
X02808Y00045*
X02809*
X0281Y00045*
X02812Y00045*
X02813Y00045*
X02814Y00046*
X02815Y00046*
X02816Y00047*
X02817Y00047*
X02818Y00048*
X02819Y00049*
X0282Y00049*
X02821Y0005*
X02822Y00051*
X02823Y00052*
X02824Y00053*
X02824Y00054*
X02825Y00055*
X02825Y00056*
X02826Y00058*
X02826Y00059*
X02826Y0006*
X02826Y00061*
X02826Y00062*
X01736Y00141D02*
D01*
X01736Y00142*
X01736Y00144*
X01736Y00146*
X01735Y00147*
X01735Y00149*
X01734Y0015*
X01733Y00152*
X01733Y00153*
X01732Y00155*
X01731Y00156*
X0173Y00157*
X01728Y00158*
X01727Y00159*
X01726Y0016*
X01724Y00161*
X01723Y00162*
X01721Y00163*
X0172Y00163*
X01718Y00164*
X01717Y00164*
X01715Y00164*
X01713Y00164*
X01712*
X0171Y00164*
X01708Y00164*
X01707Y00164*
X01705Y00163*
X01704Y00163*
X01702Y00162*
X01701Y00161*
X01699Y0016*
X01698Y00159*
X01697Y00158*
X01696Y00157*
X01694Y00156*
X01693Y00155*
X01693Y00153*
X01692Y00152*
X01691Y0015*
X0169Y00149*
X0169Y00147*
X01689Y00146*
X01689Y00144*
X01689Y00142*
X01689Y00141*
X01689Y00139*
X01689Y00138*
X01689Y00136*
X0169Y00134*
X0169Y00133*
X01691Y00131*
X01692Y0013*
X01693Y00128*
X01693Y00127*
X01694Y00126*
X01696Y00124*
X01697Y00123*
X01698Y00122*
X01699Y00121*
X01701Y0012*
X01702Y0012*
X01704Y00119*
X01705Y00118*
X01707Y00118*
X01708Y00118*
X0171Y00117*
X01712Y00117*
X01713*
X01715Y00117*
X01717Y00118*
X01718Y00118*
X0172Y00118*
X01721Y00119*
X01723Y0012*
X01724Y0012*
X01726Y00121*
X01727Y00122*
X01728Y00123*
X0173Y00124*
X01731Y00126*
X01732Y00127*
X01733Y00128*
X01733Y0013*
X01734Y00131*
X01735Y00133*
X01735Y00134*
X01736Y00136*
X01736Y00138*
X01736Y00139*
X01736Y00141*
X01756Y00375D02*
D01*
X01756Y00379*
X01755Y00382*
X01755Y00384*
X01754Y00387*
X01753Y0039*
X01752Y00393*
X01751Y00396*
X01749Y00398*
X01748Y00401*
X01746Y00403*
X01744Y00406*
X01742Y00408*
X01739Y0041*
X01737Y00411*
X01734Y00413*
X01732Y00414*
X01729Y00416*
X01726Y00417*
X01723Y00418*
X0172Y00418*
X01717Y00419*
X01714Y00419*
X01711*
X01708Y00419*
X01705Y00418*
X01702Y00418*
X01699Y00417*
X01696Y00416*
X01694Y00414*
X01691Y00413*
X01688Y00411*
X01686Y0041*
X01684Y00408*
X01681Y00406*
X01679Y00403*
X01678Y00401*
X01676Y00398*
X01674Y00396*
X01673Y00393*
X01672Y0039*
X01671Y00387*
X0167Y00384*
X0167Y00382*
X01669Y00379*
X01669Y00375*
X01669Y00372*
X0167Y00369*
X0167Y00366*
X01671Y00364*
X01672Y00361*
X01673Y00358*
X01674Y00355*
X01676Y00353*
X01678Y0035*
X01679Y00348*
X01681Y00345*
X01684Y00343*
X01686Y00341*
X01688Y0034*
X01691Y00338*
X01694Y00337*
X01696Y00335*
X01699Y00334*
X01702Y00333*
X01705Y00333*
X01708Y00332*
X01711Y00332*
X01714*
X01717Y00332*
X0172Y00333*
X01723Y00333*
X01726Y00334*
X01729Y00335*
X01732Y00337*
X01734Y00338*
X01737Y0034*
X01739Y00341*
X01742Y00343*
X01744Y00345*
X01746Y00348*
X01748Y0035*
X01749Y00353*
X01751Y00355*
X01752Y00358*
X01753Y00361*
X01754Y00364*
X01755Y00366*
X01755Y00369*
X01756Y00372*
X01756Y00375*
X02327D02*
D01*
X02327Y00379*
X02326Y00382*
X02326Y00384*
X02325Y00387*
X02324Y0039*
X02323Y00393*
X02322Y00396*
X0232Y00398*
X02318Y00401*
X02317Y00403*
X02315Y00406*
X02312Y00408*
X0231Y0041*
X02308Y00411*
X02305Y00413*
X02302Y00414*
X023Y00416*
X02297Y00417*
X02294Y00418*
X02291Y00418*
X02288Y00419*
X02285Y00419*
X02282*
X02279Y00419*
X02276Y00418*
X02273Y00418*
X0227Y00417*
X02267Y00416*
X02264Y00414*
X02262Y00413*
X02259Y00411*
X02257Y0041*
X02254Y00408*
X02252Y00406*
X0225Y00403*
X02248Y00401*
X02247Y00398*
X02245Y00396*
X02244Y00393*
X02243Y0039*
X02242Y00387*
X02241Y00384*
X02241Y00382*
X0224Y00379*
X0224Y00375*
X0224Y00372*
X02241Y00369*
X02241Y00366*
X02242Y00364*
X02243Y00361*
X02244Y00358*
X02245Y00355*
X02247Y00353*
X02248Y0035*
X0225Y00348*
X02252Y00345*
X02254Y00343*
X02257Y00341*
X02259Y0034*
X02262Y00338*
X02264Y00337*
X02267Y00335*
X0227Y00334*
X02273Y00333*
X02276Y00333*
X02279Y00332*
X02282Y00332*
X02285*
X02288Y00332*
X02291Y00333*
X02294Y00333*
X02297Y00334*
X023Y00335*
X02302Y00337*
X02305Y00338*
X02308Y0034*
X0231Y00341*
X02312Y00343*
X02315Y00345*
X02317Y00348*
X02318Y0035*
X0232Y00353*
X02322Y00355*
X02323Y00358*
X02324Y00361*
X02325Y00364*
X02326Y00366*
X02326Y00369*
X02327Y00372*
X02327Y00375*
X02307Y00141D02*
D01*
X02307Y00142*
X02307Y00144*
X02307Y00146*
X02306Y00147*
X02306Y00149*
X02305Y0015*
X02304Y00152*
X02303Y00153*
X02303Y00155*
X02302Y00156*
X023Y00157*
X02299Y00158*
X02298Y00159*
X02297Y0016*
X02295Y00161*
X02294Y00162*
X02292Y00163*
X02291Y00163*
X02289Y00164*
X02288Y00164*
X02286Y00164*
X02284Y00164*
X02283*
X02281Y00164*
X02279Y00164*
X02278Y00164*
X02276Y00163*
X02275Y00163*
X02273Y00162*
X02272Y00161*
X0227Y0016*
X02269Y00159*
X02268Y00158*
X02266Y00157*
X02265Y00156*
X02264Y00155*
X02263Y00153*
X02263Y00152*
X02262Y0015*
X02261Y00149*
X02261Y00147*
X0226Y00146*
X0226Y00144*
X0226Y00142*
X0226Y00141*
X0226Y00139*
X0226Y00138*
X0226Y00136*
X02261Y00134*
X02261Y00133*
X02262Y00131*
X02263Y0013*
X02263Y00128*
X02264Y00127*
X02265Y00126*
X02266Y00124*
X02268Y00123*
X02269Y00122*
X0227Y00121*
X02272Y0012*
X02273Y0012*
X02275Y00119*
X02276Y00118*
X02278Y00118*
X02279Y00118*
X02281Y00117*
X02283Y00117*
X02284*
X02286Y00117*
X02288Y00118*
X02289Y00118*
X02291Y00118*
X02292Y00119*
X02294Y0012*
X02295Y0012*
X02297Y00121*
X02298Y00122*
X02299Y00123*
X023Y00124*
X02302Y00126*
X02303Y00127*
X02303Y00128*
X02304Y0013*
X02305Y00131*
X02306Y00133*
X02306Y00134*
X02307Y00136*
X02307Y00138*
X02307Y00139*
X02307Y00141*
X01566Y00118D02*
D01*
X01566Y00119*
X01566Y0012*
X01566Y00122*
X01566Y00123*
X01565Y00124*
X01565Y00126*
X01564Y00127*
X01563Y00128*
X01563Y00129*
X01562Y0013*
X01561Y00131*
X0156Y00132*
X01559Y00133*
X01558Y00134*
X01557Y00135*
X01555Y00135*
X01554Y00136*
X01553Y00136*
X01552Y00137*
X0155Y00137*
X01549Y00137*
X01547Y00137*
X01546*
X01545Y00137*
X01543Y00137*
X01542Y00137*
X01541Y00136*
X01539Y00136*
X01538Y00135*
X01537Y00135*
X01536Y00134*
X01535Y00133*
X01534Y00132*
X01533Y00131*
X01532Y0013*
X01531Y00129*
X0153Y00128*
X01529Y00127*
X01529Y00126*
X01528Y00124*
X01528Y00123*
X01527Y00122*
X01527Y0012*
X01527Y00119*
X01527Y00118*
X01527Y00116*
X01527Y00115*
X01527Y00114*
X01528Y00112*
X01528Y00111*
X01529Y0011*
X01529Y00108*
X0153Y00107*
X01531Y00106*
X01532Y00105*
X01533Y00104*
X01534Y00103*
X01535Y00102*
X01536Y00101*
X01537Y00101*
X01538Y001*
X01539Y00099*
X01541Y00099*
X01542Y00099*
X01543Y00098*
X01545Y00098*
X01546Y00098*
X01547*
X01549Y00098*
X0155Y00098*
X01552Y00099*
X01553Y00099*
X01554Y00099*
X01555Y001*
X01557Y00101*
X01558Y00101*
X01559Y00102*
X0156Y00103*
X01561Y00104*
X01562Y00105*
X01563Y00106*
X01563Y00107*
X01564Y00108*
X01565Y0011*
X01565Y00111*
X01566Y00112*
X01566Y00114*
X01566Y00115*
X01566Y00116*
X01566Y00118*
X02935Y02516D02*
D01*
X02934Y02518*
X02934Y0252*
X02934Y02521*
X02934Y02523*
X02933Y02524*
X02932Y02526*
X02932Y02527*
X02931Y02529*
X0293Y0253*
X02929Y02531*
X02928Y02533*
X02927Y02534*
X02925Y02535*
X02924Y02536*
X02923Y02537*
X02921Y02537*
X0292Y02538*
X02918Y02539*
X02917Y02539*
X02915Y02539*
X02913Y0254*
X02912Y0254*
X0291*
X02908Y0254*
X02907Y02539*
X02905Y02539*
X02904Y02539*
X02902Y02538*
X02901Y02537*
X02899Y02537*
X02898Y02536*
X02896Y02535*
X02895Y02534*
X02894Y02533*
X02893Y02531*
X02892Y0253*
X02891Y02529*
X0289Y02527*
X02889Y02526*
X02889Y02524*
X02888Y02523*
X02888Y02521*
X02888Y0252*
X02887Y02518*
X02887Y02516*
X02887Y02515*
X02888Y02513*
X02888Y02511*
X02888Y0251*
X02889Y02508*
X02889Y02507*
X0289Y02505*
X02891Y02504*
X02892Y02502*
X02893Y02501*
X02894Y025*
X02895Y02499*
X02896Y02498*
X02898Y02497*
X02899Y02496*
X02901Y02495*
X02902Y02494*
X02904Y02494*
X02905Y02493*
X02907Y02493*
X02908Y02493*
X0291Y02493*
X02912*
X02913Y02493*
X02915Y02493*
X02917Y02493*
X02918Y02494*
X0292Y02494*
X02921Y02495*
X02923Y02496*
X02924Y02497*
X02925Y02498*
X02927Y02499*
X02928Y025*
X02929Y02501*
X0293Y02502*
X02931Y02504*
X02932Y02505*
X02932Y02507*
X02933Y02508*
X02934Y0251*
X02934Y02511*
X02934Y02513*
X02934Y02515*
X02935Y02516*
X0036Y02661D02*
D01*
X0036Y02662*
X0036Y02663*
X00359Y02664*
X00359Y02665*
X00359Y02666*
X00359Y02667*
X00358Y02667*
X00358Y02668*
X00357Y02669*
X00357Y0267*
X00356Y0267*
X00355Y02671*
X00354Y02672*
X00354Y02672*
X00353Y02673*
X00352Y02673*
X00351Y02674*
X0035Y02674*
X00349Y02674*
X00348Y02674*
X00347Y02675*
X00346Y02675*
X00345*
X00345Y02675*
X00344Y02674*
X00343Y02674*
X00342Y02674*
X00341Y02674*
X0034Y02673*
X00339Y02673*
X00338Y02672*
X00337Y02672*
X00337Y02671*
X00336Y0267*
X00335Y0267*
X00335Y02669*
X00334Y02668*
X00334Y02667*
X00333Y02667*
X00333Y02666*
X00333Y02665*
X00332Y02664*
X00332Y02663*
X00332Y02662*
X00332Y02661*
X00332Y0266*
X00332Y02659*
X00332Y02658*
X00333Y02657*
X00333Y02656*
X00333Y02655*
X00334Y02654*
X00334Y02654*
X00335Y02653*
X00335Y02652*
X00336Y02651*
X00337Y02651*
X00337Y0265*
X00338Y02649*
X00339Y02649*
X0034Y02649*
X00341Y02648*
X00342Y02648*
X00343Y02648*
X00344Y02647*
X00345Y02647*
X00345Y02647*
X00346*
X00347Y02647*
X00348Y02647*
X00349Y02648*
X0035Y02648*
X00351Y02648*
X00352Y02649*
X00353Y02649*
X00354Y02649*
X00354Y0265*
X00355Y02651*
X00356Y02651*
X00357Y02652*
X00357Y02653*
X00358Y02654*
X00358Y02654*
X00359Y02655*
X00359Y02656*
X00359Y02657*
X00359Y02658*
X0036Y02659*
X0036Y0266*
X0036Y02661*
X00926Y00515D02*
D01*
X00926Y00516*
X00926Y00517*
X00926Y00519*
X00925Y0052*
X00925Y00521*
X00925Y00522*
X00924Y00523*
X00923Y00524*
X00923Y00525*
X00922Y00525*
X00921Y00526*
X00921Y00527*
X0092Y00528*
X00919Y00528*
X00918Y00529*
X00917Y00529*
X00916Y0053*
X00915Y0053*
X00914Y00531*
X00913Y00531*
X00912Y00531*
X00911Y00531*
X0091*
X00908Y00531*
X00907Y00531*
X00906Y00531*
X00905Y0053*
X00904Y0053*
X00903Y00529*
X00902Y00529*
X00901Y00528*
X009Y00528*
X009Y00527*
X00899Y00526*
X00898Y00525*
X00897Y00525*
X00897Y00524*
X00896Y00523*
X00896Y00522*
X00895Y00521*
X00895Y0052*
X00895Y00519*
X00895Y00517*
X00894Y00516*
X00894Y00515*
X00894Y00514*
X00895Y00513*
X00895Y00512*
X00895Y00511*
X00895Y0051*
X00896Y00509*
X00896Y00508*
X00897Y00507*
X00897Y00506*
X00898Y00505*
X00899Y00504*
X009Y00504*
X009Y00503*
X00901Y00502*
X00902Y00502*
X00903Y00501*
X00904Y00501*
X00905Y005*
X00906Y005*
X00907Y005*
X00908Y005*
X0091Y005*
X00911*
X00912Y005*
X00913Y005*
X00914Y005*
X00915Y005*
X00916Y00501*
X00917Y00501*
X00918Y00502*
X00919Y00502*
X0092Y00503*
X00921Y00504*
X00921Y00504*
X00922Y00505*
X00923Y00506*
X00923Y00507*
X00924Y00508*
X00925Y00509*
X00925Y0051*
X00925Y00511*
X00926Y00512*
X00926Y00513*
X00926Y00514*
X00926Y00515*
Y00437D02*
D01*
X00926Y00438*
X00926Y00439*
X00926Y0044*
X00925Y00441*
X00925Y00442*
X00925Y00443*
X00924Y00444*
X00923Y00445*
X00923Y00446*
X00922Y00447*
X00921Y00447*
X00921Y00448*
X0092Y00449*
X00919Y0045*
X00918Y0045*
X00917Y00451*
X00916Y00451*
X00915Y00451*
X00914Y00452*
X00913Y00452*
X00912Y00452*
X00911Y00452*
X0091*
X00908Y00452*
X00907Y00452*
X00906Y00452*
X00905Y00451*
X00904Y00451*
X00903Y00451*
X00902Y0045*
X00901Y0045*
X009Y00449*
X009Y00448*
X00899Y00447*
X00898Y00447*
X00897Y00446*
X00897Y00445*
X00896Y00444*
X00896Y00443*
X00895Y00442*
X00895Y00441*
X00895Y0044*
X00895Y00439*
X00894Y00438*
X00894Y00437*
X00894Y00435*
X00895Y00434*
X00895Y00433*
X00895Y00432*
X00895Y00431*
X00896Y0043*
X00896Y00429*
X00897Y00428*
X00897Y00427*
X00898Y00426*
X00899Y00426*
X009Y00425*
X009Y00424*
X00901Y00423*
X00902Y00423*
X00903Y00422*
X00904Y00422*
X00905Y00422*
X00906Y00421*
X00907Y00421*
X00908Y00421*
X0091Y00421*
X00911*
X00912Y00421*
X00913Y00421*
X00914Y00421*
X00915Y00422*
X00916Y00422*
X00917Y00422*
X00918Y00423*
X00919Y00423*
X0092Y00424*
X00921Y00425*
X00921Y00426*
X00922Y00426*
X00923Y00427*
X00923Y00428*
X00924Y00429*
X00925Y0043*
X00925Y00431*
X00925Y00432*
X00926Y00433*
X00926Y00434*
X00926Y00435*
X00926Y00437*
X01064Y00417D02*
D01*
X01064Y00419*
X01064Y00422*
X01063Y00424*
X01063Y00427*
X01062Y00429*
X01061Y00431*
X0106Y00433*
X01059Y00436*
X01057Y00438*
X01056Y0044*
X01054Y00441*
X01052Y00443*
X0105Y00445*
X01048Y00446*
X01046Y00448*
X01044Y00449*
X01042Y0045*
X01039Y00451*
X01037Y00451*
X01035Y00452*
X01032Y00452*
X0103Y00452*
X01027*
X01025Y00452*
X01022Y00452*
X0102Y00451*
X01018Y00451*
X01015Y0045*
X01013Y00449*
X01011Y00448*
X01009Y00446*
X01007Y00445*
X01005Y00443*
X01003Y00441*
X01001Y0044*
X01Y00438*
X00998Y00436*
X00997Y00433*
X00996Y00431*
X00995Y00429*
X00994Y00427*
X00994Y00424*
X00993Y00422*
X00993Y00419*
X00993Y00417*
X00993Y00414*
X00993Y00412*
X00994Y00409*
X00994Y00407*
X00995Y00405*
X00996Y00402*
X00997Y004*
X00998Y00398*
X01Y00396*
X01001Y00394*
X01003Y00392*
X01005Y0039*
X01007Y00389*
X01009Y00387*
X01011Y00386*
X01013Y00385*
X01015Y00384*
X01018Y00383*
X0102Y00382*
X01022Y00382*
X01025Y00382*
X01027Y00381*
X0103*
X01032Y00382*
X01035Y00382*
X01037Y00382*
X01039Y00383*
X01042Y00384*
X01044Y00385*
X01046Y00386*
X01048Y00387*
X0105Y00389*
X01052Y0039*
X01054Y00392*
X01056Y00394*
X01057Y00396*
X01059Y00398*
X0106Y004*
X01061Y00402*
X01062Y00405*
X01063Y00407*
X01063Y00409*
X01064Y00412*
X01064Y00414*
X01064Y00417*
X00827D02*
D01*
X00827Y00419*
X00827Y00422*
X00826Y00424*
X00826Y00427*
X00825Y00429*
X00824Y00431*
X00823Y00433*
X00822Y00436*
X0082Y00438*
X00819Y0044*
X00817Y00441*
X00815Y00443*
X00814Y00445*
X00812Y00446*
X00809Y00448*
X00807Y00449*
X00805Y0045*
X00803Y00451*
X008Y00451*
X00798Y00452*
X00795Y00452*
X00793Y00452*
X00791*
X00788Y00452*
X00786Y00452*
X00783Y00451*
X00781Y00451*
X00778Y0045*
X00776Y00449*
X00774Y00448*
X00772Y00446*
X0077Y00445*
X00768Y00443*
X00766Y00441*
X00765Y0044*
X00763Y00438*
X00762Y00436*
X0076Y00433*
X00759Y00431*
X00758Y00429*
X00758Y00427*
X00757Y00424*
X00757Y00422*
X00756Y00419*
X00756Y00417*
X00756Y00414*
X00757Y00412*
X00757Y00409*
X00758Y00407*
X00758Y00405*
X00759Y00402*
X0076Y004*
X00762Y00398*
X00763Y00396*
X00765Y00394*
X00766Y00392*
X00768Y0039*
X0077Y00389*
X00772Y00387*
X00774Y00386*
X00776Y00385*
X00778Y00384*
X00781Y00383*
X00783Y00382*
X00786Y00382*
X00788Y00382*
X00791Y00381*
X00793*
X00795Y00382*
X00798Y00382*
X008Y00382*
X00803Y00383*
X00805Y00384*
X00807Y00385*
X00809Y00386*
X00812Y00387*
X00814Y00389*
X00815Y0039*
X00817Y00392*
X00819Y00394*
X0082Y00396*
X00822Y00398*
X00823Y004*
X00824Y00402*
X00825Y00405*
X00826Y00407*
X00826Y00409*
X00827Y00412*
X00827Y00414*
X00827Y00417*
X01064Y00692D02*
D01*
X01064Y00695*
X01064Y00697*
X01063Y007*
X01063Y00702*
X01062Y00705*
X01061Y00707*
X0106Y00709*
X01059Y00711*
X01057Y00713*
X01056Y00715*
X01054Y00717*
X01052Y00719*
X0105Y0072*
X01048Y00722*
X01046Y00723*
X01044Y00724*
X01042Y00725*
X01039Y00726*
X01037Y00727*
X01035Y00727*
X01032Y00728*
X0103Y00728*
X01027*
X01025Y00728*
X01022Y00727*
X0102Y00727*
X01018Y00726*
X01015Y00725*
X01013Y00724*
X01011Y00723*
X01009Y00722*
X01007Y0072*
X01005Y00719*
X01003Y00717*
X01001Y00715*
X01Y00713*
X00998Y00711*
X00997Y00709*
X00996Y00707*
X00995Y00705*
X00994Y00702*
X00994Y007*
X00993Y00697*
X00993Y00695*
X00993Y00692*
X00993Y0069*
X00993Y00687*
X00994Y00685*
X00994Y00683*
X00995Y0068*
X00996Y00678*
X00997Y00676*
X00998Y00674*
X01Y00672*
X01001Y0067*
X01003Y00668*
X01005Y00666*
X01007Y00664*
X01009Y00663*
X01011Y00662*
X01013Y00661*
X01015Y0066*
X01018Y00659*
X0102Y00658*
X01022Y00658*
X01025Y00657*
X01027Y00657*
X0103*
X01032Y00657*
X01035Y00658*
X01037Y00658*
X01039Y00659*
X01042Y0066*
X01044Y00661*
X01046Y00662*
X01048Y00663*
X0105Y00664*
X01052Y00666*
X01054Y00668*
X01056Y0067*
X01057Y00672*
X01059Y00674*
X0106Y00676*
X01061Y00678*
X01062Y0068*
X01063Y00683*
X01063Y00685*
X01064Y00687*
X01064Y0069*
X01064Y00692*
X00926Y00673D02*
D01*
X00926Y00674*
X00926Y00675*
X00926Y00676*
X00925Y00677*
X00925Y00678*
X00925Y00679*
X00924Y0068*
X00923Y00681*
X00923Y00682*
X00922Y00683*
X00921Y00684*
X00921Y00684*
X0092Y00685*
X00919Y00686*
X00918Y00686*
X00917Y00687*
X00916Y00687*
X00915Y00688*
X00914Y00688*
X00913Y00688*
X00912Y00688*
X00911Y00688*
X0091*
X00908Y00688*
X00907Y00688*
X00906Y00688*
X00905Y00688*
X00904Y00687*
X00903Y00687*
X00902Y00686*
X00901Y00686*
X009Y00685*
X009Y00684*
X00899Y00684*
X00898Y00683*
X00897Y00682*
X00897Y00681*
X00896Y0068*
X00896Y00679*
X00895Y00678*
X00895Y00677*
X00895Y00676*
X00895Y00675*
X00894Y00674*
X00894Y00673*
X00894Y00672*
X00895Y00671*
X00895Y00669*
X00895Y00668*
X00895Y00667*
X00896Y00666*
X00896Y00665*
X00897Y00664*
X00897Y00663*
X00898Y00663*
X00899Y00662*
X009Y00661*
X009Y0066*
X00901Y0066*
X00902Y00659*
X00903Y00659*
X00904Y00658*
X00905Y00658*
X00906Y00657*
X00907Y00657*
X00908Y00657*
X0091Y00657*
X00911*
X00912Y00657*
X00913Y00657*
X00914Y00657*
X00915Y00658*
X00916Y00658*
X00917Y00659*
X00918Y00659*
X00919Y0066*
X0092Y0066*
X00921Y00661*
X00921Y00662*
X00922Y00663*
X00923Y00663*
X00923Y00664*
X00924Y00665*
X00925Y00666*
X00925Y00667*
X00925Y00668*
X00926Y00669*
X00926Y00671*
X00926Y00672*
X00926Y00673*
Y00594D02*
D01*
X00926Y00595*
X00926Y00596*
X00926Y00597*
X00925Y00598*
X00925Y00599*
X00925Y006*
X00924Y00601*
X00923Y00602*
X00923Y00603*
X00922Y00604*
X00921Y00605*
X00921Y00606*
X0092Y00606*
X00919Y00607*
X00918Y00608*
X00917Y00608*
X00916Y00609*
X00915Y00609*
X00914Y00609*
X00913Y00609*
X00912Y0061*
X00911Y0061*
X0091*
X00908Y0061*
X00907Y00609*
X00906Y00609*
X00905Y00609*
X00904Y00609*
X00903Y00608*
X00902Y00608*
X00901Y00607*
X009Y00606*
X009Y00606*
X00899Y00605*
X00898Y00604*
X00897Y00603*
X00897Y00602*
X00896Y00601*
X00896Y006*
X00895Y00599*
X00895Y00598*
X00895Y00597*
X00895Y00596*
X00894Y00595*
X00894Y00594*
X00894Y00593*
X00895Y00592*
X00895Y00591*
X00895Y0059*
X00895Y00589*
X00896Y00588*
X00896Y00587*
X00897Y00586*
X00897Y00585*
X00898Y00584*
X00899Y00583*
X009Y00582*
X009Y00582*
X00901Y00581*
X00902Y0058*
X00903Y0058*
X00904Y00579*
X00905Y00579*
X00906Y00579*
X00907Y00578*
X00908Y00578*
X0091Y00578*
X00911*
X00912Y00578*
X00913Y00578*
X00914Y00579*
X00915Y00579*
X00916Y00579*
X00917Y0058*
X00918Y0058*
X00919Y00581*
X0092Y00582*
X00921Y00582*
X00921Y00583*
X00922Y00584*
X00923Y00585*
X00923Y00586*
X00924Y00587*
X00925Y00588*
X00925Y00589*
X00925Y0059*
X00926Y00591*
X00926Y00592*
X00926Y00593*
X00926Y00594*
X02656Y02664D02*
D01*
X02656Y02666*
X02656Y02667*
X02656Y02669*
X02655Y0267*
X02655Y02671*
X02654Y02672*
X02654Y02674*
X02653Y02675*
X02652Y02676*
X02652Y02677*
X02651Y02678*
X0265Y02679*
X02649Y0268*
X02648Y02681*
X02646Y02682*
X02645Y02682*
X02644Y02683*
X02643Y02683*
X02641Y02684*
X0264Y02684*
X02639Y02684*
X02637Y02684*
X02636*
X02634Y02684*
X02633Y02684*
X02632Y02684*
X0263Y02683*
X02629Y02683*
X02628Y02682*
X02627Y02682*
X02626Y02681*
X02624Y0268*
X02623Y02679*
X02622Y02678*
X02621Y02677*
X02621Y02676*
X0262Y02675*
X02619Y02674*
X02619Y02672*
X02618Y02671*
X02618Y0267*
X02617Y02669*
X02617Y02667*
X02617Y02666*
X02617Y02664*
X02617Y02663*
X02617Y02662*
X02617Y0266*
X02618Y02659*
X02618Y02658*
X02619Y02656*
X02619Y02655*
X0262Y02654*
X02621Y02653*
X02621Y02652*
X02622Y02651*
X02623Y0265*
X02624Y02649*
X02626Y02648*
X02627Y02647*
X02628Y02647*
X02629Y02646*
X0263Y02646*
X02632Y02645*
X02633Y02645*
X02634Y02645*
X02636Y02645*
X02637*
X02639Y02645*
X0264Y02645*
X02641Y02645*
X02643Y02646*
X02644Y02646*
X02645Y02647*
X02646Y02647*
X02648Y02648*
X02649Y02649*
X0265Y0265*
X02651Y02651*
X02652Y02652*
X02652Y02653*
X02653Y02654*
X02654Y02655*
X02654Y02656*
X02655Y02658*
X02655Y02659*
X02656Y0266*
X02656Y02662*
X02656Y02663*
X02656Y02664*
X02556Y02764D02*
D01*
X02556Y02766*
X02556Y02767*
X02556Y02769*
X02555Y0277*
X02555Y02771*
X02554Y02772*
X02554Y02774*
X02553Y02775*
X02552Y02776*
X02552Y02777*
X02551Y02778*
X0255Y02779*
X02549Y0278*
X02548Y02781*
X02546Y02782*
X02545Y02782*
X02544Y02783*
X02543Y02783*
X02541Y02784*
X0254Y02784*
X02539Y02784*
X02537Y02784*
X02536*
X02534Y02784*
X02533Y02784*
X02532Y02784*
X0253Y02783*
X02529Y02783*
X02528Y02782*
X02527Y02782*
X02526Y02781*
X02524Y0278*
X02523Y02779*
X02522Y02778*
X02521Y02777*
X02521Y02776*
X0252Y02775*
X02519Y02774*
X02519Y02772*
X02518Y02771*
X02518Y0277*
X02517Y02769*
X02517Y02767*
X02517Y02766*
X02517Y02764*
X02517Y02763*
X02517Y02762*
X02517Y0276*
X02518Y02759*
X02518Y02758*
X02519Y02756*
X02519Y02755*
X0252Y02754*
X02521Y02753*
X02521Y02752*
X02522Y02751*
X02523Y0275*
X02524Y02749*
X02526Y02748*
X02527Y02747*
X02528Y02747*
X02529Y02746*
X0253Y02746*
X02532Y02745*
X02533Y02745*
X02534Y02745*
X02536Y02745*
X02537*
X02539Y02745*
X0254Y02745*
X02541Y02745*
X02543Y02746*
X02544Y02746*
X02545Y02747*
X02546Y02747*
X02548Y02748*
X02549Y02749*
X0255Y0275*
X02551Y02751*
X02552Y02752*
X02552Y02753*
X02553Y02754*
X02554Y02755*
X02554Y02756*
X02555Y02758*
X02555Y02759*
X02556Y0276*
X02556Y02762*
X02556Y02763*
X02556Y02764*
X02913Y00083D02*
D01*
X02913Y00084*
X02913Y00085*
X02912Y00086*
X02912Y00088*
X02912Y00089*
X02911Y0009*
X02911Y00091*
X0291Y00092*
X0291Y00092*
X02909Y00093*
X02908Y00094*
X02908Y00095*
X02907Y00096*
X02906Y00096*
X02905Y00097*
X02904Y00097*
X02903Y00098*
X02902Y00098*
X02901Y00098*
X029Y00099*
X02899Y00099*
X02898Y00099*
X02897*
X02895Y00099*
X02894Y00099*
X02893Y00098*
X02892Y00098*
X02891Y00098*
X0289Y00097*
X02889Y00097*
X02888Y00096*
X02887Y00096*
X02887Y00095*
X02886Y00094*
X02885Y00093*
X02884Y00092*
X02884Y00092*
X02883Y00091*
X02883Y0009*
X02882Y00089*
X02882Y00088*
X02882Y00086*
X02881Y00085*
X02881Y00084*
X02881Y00083*
X02881Y00082*
X02881Y00081*
X02882Y0008*
X02882Y00079*
X02882Y00078*
X02883Y00077*
X02883Y00076*
X02884Y00075*
X02884Y00074*
X02885Y00073*
X02886Y00072*
X02887Y00071*
X02887Y00071*
X02888Y0007*
X02889Y0007*
X0289Y00069*
X02891Y00069*
X02892Y00068*
X02893Y00068*
X02894Y00068*
X02895Y00068*
X02897Y00067*
X02898*
X02899Y00068*
X029Y00068*
X02901Y00068*
X02902Y00068*
X02903Y00069*
X02904Y00069*
X02905Y0007*
X02906Y0007*
X02907Y00071*
X02908Y00071*
X02908Y00072*
X02909Y00073*
X0291Y00074*
X0291Y00075*
X02911Y00076*
X02911Y00077*
X02912Y00078*
X02912Y00079*
X02912Y0008*
X02913Y00081*
X02913Y00082*
X02913Y00083*
X00574Y0275D02*
D01*
X00574Y0275*
X00574Y02749*
X00575Y02748*
X00575Y02748*
X00575Y02747*
X00575Y02746*
X00575Y02746*
X00576Y02745*
X00576Y02745*
X00577Y02744*
X00577Y02743*
X00578Y02743*
X00578Y02743*
X00579Y02742*
X00579Y02742*
X0058Y02741*
X0058Y02741*
X00581Y02741*
X00582Y02741*
X00582Y02741*
X00583Y0274*
X00584Y0274*
X00584*
X00585Y0274*
X00586Y02741*
X00587Y02741*
X00587Y02741*
X00588Y02741*
X00588Y02741*
X00589Y02742*
X0059Y02742*
X0059Y02743*
X00591Y02743*
X00591Y02743*
X00592Y02744*
X00592Y02745*
X00592Y02745*
X00593Y02746*
X00593Y02746*
X00593Y02747*
X00594Y02748*
X00594Y02748*
X00594Y02749*
X00594Y0275*
X00594Y0275*
X02656Y02764D02*
D01*
X02656Y02766*
X02656Y02767*
X02656Y02769*
X02655Y0277*
X02655Y02771*
X02654Y02772*
X02654Y02774*
X02653Y02775*
X02652Y02776*
X02652Y02777*
X02651Y02778*
X0265Y02779*
X02649Y0278*
X02648Y02781*
X02646Y02782*
X02645Y02782*
X02644Y02783*
X02643Y02783*
X02641Y02784*
X0264Y02784*
X02639Y02784*
X02637Y02784*
X02636*
X02634Y02784*
X02633Y02784*
X02632Y02784*
X0263Y02783*
X02629Y02783*
X02628Y02782*
X02627Y02782*
X02626Y02781*
X02624Y0278*
X02623Y02779*
X02622Y02778*
X02621Y02777*
X02621Y02776*
X0262Y02775*
X02619Y02774*
X02619Y02772*
X02618Y02771*
X02618Y0277*
X02617Y02769*
X02617Y02767*
X02617Y02766*
X02617Y02764*
X02617Y02763*
X02617Y02762*
X02617Y0276*
X02618Y02759*
X02618Y02758*
X02619Y02756*
X02619Y02755*
X0262Y02754*
X02621Y02753*
X02621Y02752*
X02622Y02751*
X02623Y0275*
X02624Y02749*
X02626Y02748*
X02627Y02747*
X02628Y02747*
X02629Y02746*
X0263Y02746*
X02632Y02745*
X02633Y02745*
X02634Y02745*
X02636Y02745*
X02637*
X02639Y02745*
X0264Y02745*
X02641Y02745*
X02643Y02746*
X02644Y02746*
X02645Y02747*
X02646Y02747*
X02648Y02748*
X02649Y02749*
X0265Y0275*
X02651Y02751*
X02652Y02752*
X02652Y02753*
X02653Y02754*
X02654Y02755*
X02654Y02756*
X02655Y02758*
X02655Y02759*
X02656Y0276*
X02656Y02762*
X02656Y02763*
X02656Y02764*
X02556Y02664D02*
D01*
X02556Y02666*
X02556Y02667*
X02556Y02669*
X02555Y0267*
X02555Y02671*
X02554Y02672*
X02554Y02674*
X02553Y02675*
X02552Y02676*
X02552Y02677*
X02551Y02678*
X0255Y02679*
X02549Y0268*
X02548Y02681*
X02546Y02682*
X02545Y02682*
X02544Y02683*
X02543Y02683*
X02541Y02684*
X0254Y02684*
X02539Y02684*
X02537Y02684*
X02536*
X02534Y02684*
X02533Y02684*
X02532Y02684*
X0253Y02683*
X02529Y02683*
X02528Y02682*
X02527Y02682*
X02526Y02681*
X02524Y0268*
X02523Y02679*
X02522Y02678*
X02521Y02677*
X02521Y02676*
X0252Y02675*
X02519Y02674*
X02519Y02672*
X02518Y02671*
X02518Y0267*
X02517Y02669*
X02517Y02667*
X02517Y02666*
X02517Y02664*
X02517Y02663*
X02517Y02662*
X02517Y0266*
X02518Y02659*
X02518Y02658*
X02519Y02656*
X02519Y02655*
X0252Y02654*
X02521Y02653*
X02521Y02652*
X02522Y02651*
X02523Y0265*
X02524Y02649*
X02526Y02648*
X02527Y02647*
X02528Y02647*
X02529Y02646*
X0253Y02646*
X02532Y02645*
X02533Y02645*
X02534Y02645*
X02536Y02645*
X02537*
X02539Y02645*
X0254Y02645*
X02541Y02645*
X02543Y02646*
X02544Y02646*
X02545Y02647*
X02546Y02647*
X02548Y02648*
X02549Y02649*
X0255Y0265*
X02551Y02651*
X02552Y02652*
X02552Y02653*
X02553Y02654*
X02554Y02655*
X02554Y02656*
X02555Y02658*
X02555Y02659*
X02556Y0266*
X02556Y02662*
X02556Y02663*
X02556Y02664*
X02456Y02764D02*
D01*
X02456Y02766*
X02456Y02767*
X02456Y02769*
X02455Y0277*
X02455Y02771*
X02454Y02772*
X02454Y02774*
X02453Y02775*
X02452Y02776*
X02452Y02777*
X02451Y02778*
X0245Y02779*
X02449Y0278*
X02448Y02781*
X02446Y02782*
X02445Y02782*
X02444Y02783*
X02443Y02783*
X02441Y02784*
X0244Y02784*
X02439Y02784*
X02437Y02784*
X02436*
X02434Y02784*
X02433Y02784*
X02432Y02784*
X0243Y02783*
X02429Y02783*
X02428Y02782*
X02427Y02782*
X02426Y02781*
X02424Y0278*
X02423Y02779*
X02422Y02778*
X02421Y02777*
X02421Y02776*
X0242Y02775*
X02419Y02774*
X02419Y02772*
X02418Y02771*
X02418Y0277*
X02417Y02769*
X02417Y02767*
X02417Y02766*
X02417Y02764*
X02417Y02763*
X02417Y02762*
X02417Y0276*
X02418Y02759*
X02418Y02758*
X02419Y02756*
X02419Y02755*
X0242Y02754*
X02421Y02753*
X02421Y02752*
X02422Y02751*
X02423Y0275*
X02424Y02749*
X02426Y02748*
X02427Y02747*
X02428Y02747*
X02429Y02746*
X0243Y02746*
X02432Y02745*
X02433Y02745*
X02434Y02745*
X02436Y02745*
X02437*
X02439Y02745*
X0244Y02745*
X02441Y02745*
X02443Y02746*
X02444Y02746*
X02445Y02747*
X02446Y02747*
X02448Y02748*
X02449Y02749*
X0245Y0275*
X02451Y02751*
X02452Y02752*
X02452Y02753*
X02453Y02754*
X02454Y02755*
X02454Y02756*
X02455Y02758*
X02455Y02759*
X02456Y0276*
X02456Y02762*
X02456Y02763*
X02456Y02764*
X02902Y01528D02*
D01*
X02902Y01529*
X02902Y0153*
X02901Y01531*
X02901Y01531*
X02901Y01532*
X02901Y01533*
X029Y01534*
X029Y01534*
X02899Y01535*
X02899Y01536*
X02898Y01536*
X02898Y01537*
X02897Y01537*
X02896Y01538*
X02896Y01538*
X02895Y01539*
X02894Y01539*
X02893Y01539*
X02893Y0154*
X02892Y0154*
X02891Y0154*
X0289Y0154*
X02889*
X02888Y0154*
X02888Y0154*
X02887Y0154*
X02886Y01539*
X02885Y01539*
X02884Y01539*
X02884Y01538*
X02883Y01538*
X02882Y01537*
X02882Y01537*
X02881Y01536*
X0288Y01536*
X0288Y01535*
X02879Y01534*
X02879Y01534*
X02879Y01533*
X02878Y01532*
X02878Y01531*
X02878Y01531*
X02878Y0153*
X02878Y01529*
X02878Y01528*
X02878Y01527*
X02878Y01526*
X02878Y01526*
X02878Y01525*
X02878Y01524*
X02879Y01523*
X02879Y01522*
X02879Y01522*
X0288Y01521*
X0288Y0152*
X02881Y0152*
X02882Y01519*
X02882Y01519*
X02883Y01518*
X02884Y01518*
X02884Y01517*
X02885Y01517*
X02886Y01517*
X02887Y01516*
X02888Y01516*
X02888Y01516*
X02889Y01516*
X0289*
X02891Y01516*
X02892Y01516*
X02893Y01516*
X02893Y01517*
X02894Y01517*
X02895Y01517*
X02896Y01518*
X02896Y01518*
X02897Y01519*
X02898Y01519*
X02898Y0152*
X02899Y0152*
X02899Y01521*
X029Y01522*
X029Y01522*
X02901Y01523*
X02901Y01524*
X02901Y01525*
X02901Y01526*
X02902Y01526*
X02902Y01527*
X02902Y01528*
X02456Y02664D02*
D01*
X02456Y02666*
X02456Y02667*
X02456Y02669*
X02455Y0267*
X02455Y02671*
X02454Y02672*
X02454Y02674*
X02453Y02675*
X02452Y02676*
X02452Y02677*
X02451Y02678*
X0245Y02679*
X02449Y0268*
X02448Y02681*
X02446Y02682*
X02445Y02682*
X02444Y02683*
X02443Y02683*
X02441Y02684*
X0244Y02684*
X02439Y02684*
X02437Y02684*
X02436*
X02434Y02684*
X02433Y02684*
X02432Y02684*
X0243Y02683*
X02429Y02683*
X02428Y02682*
X02427Y02682*
X02426Y02681*
X02424Y0268*
X02423Y02679*
X02422Y02678*
X02421Y02677*
X02421Y02676*
X0242Y02675*
X02419Y02674*
X02419Y02672*
X02418Y02671*
X02418Y0267*
X02417Y02669*
X02417Y02667*
X02417Y02666*
X02417Y02664*
X02417Y02663*
X02417Y02662*
X02417Y0266*
X02418Y02659*
X02418Y02658*
X02419Y02656*
X02419Y02655*
X0242Y02654*
X02421Y02653*
X02421Y02652*
X02422Y02651*
X02423Y0265*
X02424Y02649*
X02426Y02648*
X02427Y02647*
X02428Y02647*
X02429Y02646*
X0243Y02646*
X02432Y02645*
X02433Y02645*
X02434Y02645*
X02436Y02645*
X02437*
X02439Y02645*
X0244Y02645*
X02441Y02645*
X02443Y02646*
X02444Y02646*
X02445Y02647*
X02446Y02647*
X02448Y02648*
X02449Y02649*
X0245Y0265*
X02451Y02651*
X02452Y02652*
X02452Y02653*
X02453Y02654*
X02454Y02655*
X02454Y02656*
X02455Y02658*
X02455Y02659*
X02456Y0266*
X02456Y02662*
X02456Y02663*
X02456Y02664*
X02356Y02764D02*
D01*
X02356Y02766*
X02356Y02767*
X02356Y02769*
X02355Y0277*
X02355Y02771*
X02354Y02772*
X02354Y02774*
X02353Y02775*
X02352Y02776*
X02352Y02777*
X02351Y02778*
X0235Y02779*
X02349Y0278*
X02348Y02781*
X02346Y02782*
X02345Y02782*
X02344Y02783*
X02343Y02783*
X02341Y02784*
X0234Y02784*
X02339Y02784*
X02337Y02784*
X02336*
X02334Y02784*
X02333Y02784*
X02332Y02784*
X0233Y02783*
X02329Y02783*
X02328Y02782*
X02327Y02782*
X02326Y02781*
X02324Y0278*
X02323Y02779*
X02322Y02778*
X02321Y02777*
X02321Y02776*
X0232Y02775*
X02319Y02774*
X02319Y02772*
X02318Y02771*
X02318Y0277*
X02317Y02769*
X02317Y02767*
X02317Y02766*
X02317Y02764*
X02317Y02763*
X02317Y02762*
X02317Y0276*
X02318Y02759*
X02318Y02758*
X02319Y02756*
X02319Y02755*
X0232Y02754*
X02321Y02753*
X02321Y02752*
X02322Y02751*
X02323Y0275*
X02324Y02749*
X02326Y02748*
X02327Y02747*
X02328Y02747*
X02329Y02746*
X0233Y02746*
X02332Y02745*
X02333Y02745*
X02334Y02745*
X02336Y02745*
X02337*
X02339Y02745*
X0234Y02745*
X02341Y02745*
X02343Y02746*
X02344Y02746*
X02345Y02747*
X02346Y02747*
X02348Y02748*
X02349Y02749*
X0235Y0275*
X02351Y02751*
X02352Y02752*
X02352Y02753*
X02353Y02754*
X02354Y02755*
X02354Y02756*
X02355Y02758*
X02355Y02759*
X02356Y0276*
X02356Y02762*
X02356Y02763*
X02356Y02764*
Y02664D02*
D01*
X02356Y02666*
X02356Y02667*
X02356Y02669*
X02355Y0267*
X02355Y02671*
X02354Y02672*
X02354Y02674*
X02353Y02675*
X02352Y02676*
X02352Y02677*
X02351Y02678*
X0235Y02679*
X02349Y0268*
X02348Y02681*
X02346Y02682*
X02345Y02682*
X02344Y02683*
X02343Y02683*
X02341Y02684*
X0234Y02684*
X02339Y02684*
X02337Y02684*
X02336*
X02334Y02684*
X02333Y02684*
X02332Y02684*
X0233Y02683*
X02329Y02683*
X02328Y02682*
X02327Y02682*
X02326Y02681*
X02324Y0268*
X02323Y02679*
X02322Y02678*
X02321Y02677*
X02321Y02676*
X0232Y02675*
X02319Y02674*
X02319Y02672*
X02318Y02671*
X02318Y0267*
X02317Y02669*
X02317Y02667*
X02317Y02666*
X02317Y02664*
X02317Y02663*
X02317Y02662*
X02317Y0266*
X02318Y02659*
X02318Y02658*
X02319Y02656*
X02319Y02655*
X0232Y02654*
X02321Y02653*
X02321Y02652*
X02322Y02651*
X02323Y0265*
X02324Y02649*
X02326Y02648*
X02327Y02647*
X02328Y02647*
X02329Y02646*
X0233Y02646*
X02332Y02645*
X02333Y02645*
X02334Y02645*
X02336Y02645*
X02337*
X02339Y02645*
X0234Y02645*
X02341Y02645*
X02343Y02646*
X02344Y02646*
X02345Y02647*
X02346Y02647*
X02348Y02648*
X02349Y02649*
X0235Y0265*
X02351Y02651*
X02352Y02652*
X02352Y02653*
X02353Y02654*
X02354Y02655*
X02354Y02656*
X02355Y02658*
X02355Y02659*
X02356Y0266*
X02356Y02662*
X02356Y02663*
X02356Y02664*
X02902Y01628D02*
D01*
X02902Y01629*
X02902Y0163*
X02901Y01631*
X02901Y01631*
X02901Y01632*
X02901Y01633*
X029Y01634*
X029Y01634*
X02899Y01635*
X02899Y01636*
X02898Y01636*
X02898Y01637*
X02897Y01637*
X02896Y01638*
X02896Y01638*
X02895Y01639*
X02894Y01639*
X02893Y01639*
X02893Y0164*
X02892Y0164*
X02891Y0164*
X0289Y0164*
X02889*
X02888Y0164*
X02888Y0164*
X02887Y0164*
X02886Y01639*
X02885Y01639*
X02884Y01639*
X02884Y01638*
X02883Y01638*
X02882Y01637*
X02882Y01637*
X02881Y01636*
X0288Y01636*
X0288Y01635*
X02879Y01634*
X02879Y01634*
X02879Y01633*
X02878Y01632*
X02878Y01631*
X02878Y01631*
X02878Y0163*
X02878Y01629*
X02878Y01628*
X02878Y01627*
X02878Y01626*
X02878Y01626*
X02878Y01625*
X02878Y01624*
X02879Y01623*
X02879Y01622*
X02879Y01622*
X0288Y01621*
X0288Y0162*
X02881Y0162*
X02882Y01619*
X02882Y01619*
X02883Y01618*
X02884Y01618*
X02884Y01617*
X02885Y01617*
X02886Y01617*
X02887Y01616*
X02888Y01616*
X02888Y01616*
X02889Y01616*
X0289*
X02891Y01616*
X02892Y01616*
X02893Y01616*
X02893Y01617*
X02894Y01617*
X02895Y01617*
X02896Y01618*
X02896Y01618*
X02897Y01619*
X02898Y01619*
X02898Y0162*
X02899Y0162*
X02899Y01621*
X029Y01622*
X029Y01622*
X02901Y01623*
X02901Y01624*
X02901Y01625*
X02901Y01626*
X02902Y01626*
X02902Y01627*
X02902Y01628*
X00964Y02664D02*
D01*
X00964Y02666*
X00964Y02667*
X00964Y02669*
X00963Y0267*
X00963Y02671*
X00962Y02672*
X00962Y02674*
X00961Y02675*
X0096Y02676*
X00959Y02677*
X00959Y02678*
X00958Y02679*
X00957Y0268*
X00955Y02681*
X00954Y02682*
X00953Y02682*
X00952Y02683*
X0095Y02683*
X00949Y02684*
X00948Y02684*
X00946Y02684*
X00945Y02684*
X00944*
X00942Y02684*
X00941Y02684*
X0094Y02684*
X00938Y02683*
X00937Y02683*
X00936Y02682*
X00935Y02682*
X00933Y02681*
X00932Y0268*
X00931Y02679*
X0093Y02678*
X00929Y02677*
X00928Y02676*
X00928Y02675*
X00927Y02674*
X00926Y02672*
X00926Y02671*
X00925Y0267*
X00925Y02669*
X00925Y02667*
X00925Y02666*
X00925Y02664*
X00925Y02663*
X00925Y02662*
X00925Y0266*
X00925Y02659*
X00926Y02658*
X00926Y02656*
X00927Y02655*
X00928Y02654*
X00928Y02653*
X00929Y02652*
X0093Y02651*
X00931Y0265*
X00932Y02649*
X00933Y02648*
X00935Y02647*
X00936Y02647*
X00937Y02646*
X00938Y02646*
X0094Y02645*
X00941Y02645*
X00942Y02645*
X00944Y02645*
X00945*
X00946Y02645*
X00948Y02645*
X00949Y02645*
X0095Y02646*
X00952Y02646*
X00953Y02647*
X00954Y02647*
X00955Y02648*
X00957Y02649*
X00958Y0265*
X00959Y02651*
X00959Y02652*
X0096Y02653*
X00961Y02654*
X00962Y02655*
X00962Y02656*
X00963Y02658*
X00963Y02659*
X00964Y0266*
X00964Y02662*
X00964Y02663*
X00964Y02664*
X00767D02*
D01*
X00767Y02666*
X00767Y02667*
X00767Y02669*
X00766Y0267*
X00766Y02671*
X00766Y02672*
X00765Y02674*
X00764Y02675*
X00763Y02676*
X00763Y02677*
X00762Y02678*
X00761Y02679*
X0076Y0268*
X00759Y02681*
X00757Y02682*
X00756Y02682*
X00755Y02683*
X00754Y02683*
X00752Y02684*
X00751Y02684*
X0075Y02684*
X00748Y02684*
X00747*
X00746Y02684*
X00744Y02684*
X00743Y02684*
X00741Y02683*
X0074Y02683*
X00739Y02682*
X00738Y02682*
X00737Y02681*
X00735Y0268*
X00734Y02679*
X00733Y02678*
X00732Y02677*
X00732Y02676*
X00731Y02675*
X0073Y02674*
X0073Y02672*
X00729Y02671*
X00729Y0267*
X00728Y02669*
X00728Y02667*
X00728Y02666*
X00728Y02664*
X00728Y02663*
X00728Y02662*
X00728Y0266*
X00729Y02659*
X00729Y02658*
X0073Y02656*
X0073Y02655*
X00731Y02654*
X00732Y02653*
X00732Y02652*
X00733Y02651*
X00734Y0265*
X00735Y02649*
X00737Y02648*
X00738Y02647*
X00739Y02647*
X0074Y02646*
X00741Y02646*
X00743Y02645*
X00744Y02645*
X00746Y02645*
X00747Y02645*
X00748*
X0075Y02645*
X00751Y02645*
X00752Y02645*
X00754Y02646*
X00755Y02646*
X00756Y02647*
X00757Y02647*
X00759Y02648*
X0076Y02649*
X00761Y0265*
X00762Y02651*
X00763Y02652*
X00763Y02653*
X00764Y02654*
X00765Y02655*
X00766Y02656*
X00766Y02658*
X00766Y02659*
X00767Y0266*
X00767Y02662*
X00767Y02663*
X00767Y02664*
X00866D02*
D01*
X00866Y02666*
X00865Y02667*
X00865Y02669*
X00865Y0267*
X00864Y02671*
X00864Y02672*
X00863Y02674*
X00863Y02675*
X00862Y02676*
X00861Y02677*
X0086Y02678*
X00859Y02679*
X00858Y0268*
X00857Y02681*
X00856Y02682*
X00855Y02682*
X00853Y02683*
X00852Y02683*
X00851Y02684*
X00849Y02684*
X00848Y02684*
X00847Y02684*
X00845*
X00844Y02684*
X00843Y02684*
X00841Y02684*
X0084Y02683*
X00839Y02683*
X00837Y02682*
X00836Y02682*
X00835Y02681*
X00834Y0268*
X00833Y02679*
X00832Y02678*
X00831Y02677*
X0083Y02676*
X00829Y02675*
X00829Y02674*
X00828Y02672*
X00827Y02671*
X00827Y0267*
X00827Y02669*
X00826Y02667*
X00826Y02666*
X00826Y02664*
X00826Y02663*
X00826Y02662*
X00827Y0266*
X00827Y02659*
X00827Y02658*
X00828Y02656*
X00829Y02655*
X00829Y02654*
X0083Y02653*
X00831Y02652*
X00832Y02651*
X00833Y0265*
X00834Y02649*
X00835Y02648*
X00836Y02647*
X00837Y02647*
X00839Y02646*
X0084Y02646*
X00841Y02645*
X00843Y02645*
X00844Y02645*
X00845Y02645*
X00847*
X00848Y02645*
X00849Y02645*
X00851Y02645*
X00852Y02646*
X00853Y02646*
X00855Y02647*
X00856Y02647*
X00857Y02648*
X00858Y02649*
X00859Y0265*
X0086Y02651*
X00861Y02652*
X00862Y02653*
X00863Y02654*
X00863Y02655*
X00864Y02656*
X00864Y02658*
X00865Y02659*
X00865Y0266*
X00865Y02662*
X00866Y02663*
X00866Y02664*
X00964Y02764D02*
D01*
X00964Y02766*
X00964Y02767*
X00964Y02769*
X00963Y0277*
X00963Y02771*
X00962Y02772*
X00962Y02774*
X00961Y02775*
X0096Y02776*
X00959Y02777*
X00959Y02778*
X00958Y02779*
X00957Y0278*
X00955Y02781*
X00954Y02782*
X00953Y02782*
X00952Y02783*
X0095Y02783*
X00949Y02784*
X00948Y02784*
X00946Y02784*
X00945Y02784*
X00944*
X00942Y02784*
X00941Y02784*
X0094Y02784*
X00938Y02783*
X00937Y02783*
X00936Y02782*
X00935Y02782*
X00933Y02781*
X00932Y0278*
X00931Y02779*
X0093Y02778*
X00929Y02777*
X00928Y02776*
X00928Y02775*
X00927Y02774*
X00926Y02772*
X00926Y02771*
X00925Y0277*
X00925Y02769*
X00925Y02767*
X00925Y02766*
X00925Y02764*
X00925Y02763*
X00925Y02762*
X00925Y0276*
X00925Y02759*
X00926Y02758*
X00926Y02756*
X00927Y02755*
X00928Y02754*
X00928Y02753*
X00929Y02752*
X0093Y02751*
X00931Y0275*
X00932Y02749*
X00933Y02748*
X00935Y02747*
X00936Y02747*
X00937Y02746*
X00938Y02746*
X0094Y02745*
X00941Y02745*
X00942Y02745*
X00944Y02745*
X00945*
X00946Y02745*
X00948Y02745*
X00949Y02745*
X0095Y02746*
X00952Y02746*
X00953Y02747*
X00954Y02747*
X00955Y02748*
X00957Y02749*
X00958Y0275*
X00959Y02751*
X00959Y02752*
X0096Y02753*
X00961Y02754*
X00962Y02755*
X00962Y02756*
X00963Y02758*
X00963Y02759*
X00964Y0276*
X00964Y02762*
X00964Y02763*
X00964Y02764*
X02852Y01428D02*
D01*
X02852Y01429*
X02852Y0143*
X02851Y01431*
X02851Y01431*
X02851Y01432*
X02851Y01433*
X0285Y01434*
X0285Y01434*
X02849Y01435*
X02849Y01436*
X02848Y01436*
X02848Y01437*
X02847Y01437*
X02846Y01438*
X02846Y01438*
X02845Y01439*
X02844Y01439*
X02843Y01439*
X02843Y0144*
X02842Y0144*
X02841Y0144*
X0284Y0144*
X02839*
X02838Y0144*
X02838Y0144*
X02837Y0144*
X02836Y01439*
X02835Y01439*
X02834Y01439*
X02834Y01438*
X02833Y01438*
X02832Y01437*
X02832Y01437*
X02831Y01436*
X0283Y01436*
X0283Y01435*
X02829Y01434*
X02829Y01434*
X02829Y01433*
X02828Y01432*
X02828Y01431*
X02828Y01431*
X02828Y0143*
X02828Y01429*
X02828Y01428*
X02828Y01427*
X02828Y01426*
X02828Y01426*
X02828Y01425*
X02828Y01424*
X02829Y01423*
X02829Y01422*
X02829Y01422*
X0283Y01421*
X0283Y0142*
X02831Y0142*
X02832Y01419*
X02832Y01419*
X02833Y01418*
X02834Y01418*
X02834Y01417*
X02835Y01417*
X02836Y01417*
X02837Y01416*
X02838Y01416*
X02838Y01416*
X02839Y01416*
X0284*
X02841Y01416*
X02842Y01416*
X02843Y01416*
X02843Y01417*
X02844Y01417*
X02845Y01417*
X02846Y01418*
X02846Y01418*
X02847Y01419*
X02848Y01419*
X02848Y0142*
X02849Y0142*
X02849Y01421*
X0285Y01422*
X0285Y01422*
X02851Y01423*
X02851Y01424*
X02851Y01425*
X02851Y01426*
X02852Y01426*
X02852Y01427*
X02852Y01428*
X02891Y00887D02*
D01*
X02891Y00888*
X02891Y00889*
X02891Y0089*
X02891Y00891*
X0289Y00892*
X0289Y00893*
X02889Y00894*
X02889Y00895*
X02888Y00896*
X02888Y00897*
X02887Y00897*
X02886Y00898*
X02885Y00899*
X02884Y009*
X02883Y009*
X02882Y00901*
X02881Y00901*
X0288Y00901*
X02879Y00902*
X02878Y00902*
X02877Y00902*
X02876Y00902*
X02875*
X02874Y00902*
X02873Y00902*
X02872Y00902*
X02871Y00901*
X0287Y00901*
X02869Y00901*
X02868Y009*
X02867Y009*
X02866Y00899*
X02865Y00898*
X02864Y00897*
X02863Y00897*
X02863Y00896*
X02862Y00895*
X02862Y00894*
X02861Y00893*
X02861Y00892*
X0286Y00891*
X0286Y0089*
X0286Y00889*
X0286Y00888*
X0286Y00887*
X0286Y00885*
X0286Y00884*
X0286Y00883*
X0286Y00882*
X02861Y00881*
X02861Y0088*
X02862Y00879*
X02862Y00878*
X02863Y00877*
X02863Y00876*
X02864Y00876*
X02865Y00875*
X02866Y00874*
X02867Y00873*
X02868Y00873*
X02869Y00872*
X0287Y00872*
X02871Y00872*
X02872Y00871*
X02873Y00871*
X02874Y00871*
X02875Y00871*
X02876*
X02877Y00871*
X02878Y00871*
X02879Y00871*
X0288Y00872*
X02881Y00872*
X02882Y00872*
X02883Y00873*
X02884Y00873*
X02885Y00874*
X02886Y00875*
X02887Y00876*
X02888Y00876*
X02888Y00877*
X02889Y00878*
X02889Y00879*
X0289Y0088*
X0289Y00881*
X02891Y00882*
X02891Y00883*
X02891Y00884*
X02891Y00885*
X02891Y00887*
Y00965D02*
D01*
X02891Y00966*
X02891Y00967*
X02891Y00969*
X02891Y0097*
X0289Y00971*
X0289Y00972*
X02889Y00973*
X02889Y00974*
X02888Y00975*
X02888Y00975*
X02887Y00976*
X02886Y00977*
X02885Y00978*
X02884Y00978*
X02883Y00979*
X02882Y00979*
X02881Y0098*
X0288Y0098*
X02879Y00981*
X02878Y00981*
X02877Y00981*
X02876Y00981*
X02875*
X02874Y00981*
X02873Y00981*
X02872Y00981*
X02871Y0098*
X0287Y0098*
X02869Y00979*
X02868Y00979*
X02867Y00978*
X02866Y00978*
X02865Y00977*
X02864Y00976*
X02863Y00975*
X02863Y00975*
X02862Y00974*
X02862Y00973*
X02861Y00972*
X02861Y00971*
X0286Y0097*
X0286Y00969*
X0286Y00967*
X0286Y00966*
X0286Y00965*
X0286Y00964*
X0286Y00963*
X0286Y00962*
X0286Y00961*
X02861Y0096*
X02861Y00959*
X02862Y00958*
X02862Y00957*
X02863Y00956*
X02863Y00955*
X02864Y00954*
X02865Y00954*
X02866Y00953*
X02867Y00952*
X02868Y00952*
X02869Y00951*
X0287Y00951*
X02871Y0095*
X02872Y0095*
X02873Y0095*
X02874Y0095*
X02875Y0095*
X02876*
X02877Y0095*
X02878Y0095*
X02879Y0095*
X0288Y0095*
X02881Y00951*
X02882Y00951*
X02883Y00952*
X02884Y00952*
X02885Y00953*
X02886Y00954*
X02887Y00954*
X02888Y00955*
X02888Y00956*
X02889Y00957*
X02889Y00958*
X0289Y00959*
X0289Y0096*
X02891Y00961*
X02891Y00962*
X02891Y00963*
X02891Y00964*
X02891Y00965*
X02857Y0074D02*
D01*
X02857Y00741*
X02857Y00743*
X02857Y00744*
X02856Y00745*
X02856Y00747*
X02855Y00748*
X02855Y00749*
X02854Y0075*
X02853Y00752*
X02852Y00753*
X02852Y00754*
X02851Y00755*
X0285Y00756*
X02848Y00756*
X02847Y00757*
X02846Y00758*
X02845Y00758*
X02843Y00759*
X02842Y00759*
X02841Y00759*
X02839Y0076*
X02838Y0076*
X02837*
X02835Y0076*
X02834Y00759*
X02833Y00759*
X02831Y00759*
X0283Y00758*
X02829Y00758*
X02828Y00757*
X02826Y00756*
X02825Y00756*
X02824Y00755*
X02823Y00754*
X02822Y00753*
X02821Y00752*
X02821Y0075*
X0282Y00749*
X02819Y00748*
X02819Y00747*
X02818Y00745*
X02818Y00744*
X02818Y00743*
X02818Y00741*
X02818Y0074*
X02818Y00739*
X02818Y00737*
X02818Y00736*
X02818Y00735*
X02819Y00733*
X02819Y00732*
X0282Y00731*
X02821Y0073*
X02821Y00728*
X02822Y00727*
X02823Y00726*
X02824Y00725*
X02825Y00725*
X02826Y00724*
X02828Y00723*
X02829Y00722*
X0283Y00722*
X02831Y00721*
X02833Y00721*
X02834Y00721*
X02835Y0072*
X02837Y0072*
X02838*
X02839Y0072*
X02841Y00721*
X02842Y00721*
X02843Y00721*
X02845Y00722*
X02846Y00722*
X02847Y00723*
X02848Y00724*
X0285Y00725*
X02851Y00725*
X02852Y00726*
X02852Y00727*
X02853Y00728*
X02854Y0073*
X02855Y00731*
X02855Y00732*
X02856Y00733*
X02856Y00735*
X02857Y00736*
X02857Y00737*
X02857Y00739*
X02857Y0074*
X02852Y01528D02*
D01*
X02852Y01529*
X02852Y0153*
X02851Y01531*
X02851Y01531*
X02851Y01532*
X02851Y01533*
X0285Y01534*
X0285Y01534*
X02849Y01535*
X02849Y01536*
X02848Y01536*
X02848Y01537*
X02847Y01537*
X02846Y01538*
X02846Y01538*
X02845Y01539*
X02844Y01539*
X02843Y01539*
X02843Y0154*
X02842Y0154*
X02841Y0154*
X0284Y0154*
X02839*
X02838Y0154*
X02838Y0154*
X02837Y0154*
X02836Y01539*
X02835Y01539*
X02834Y01539*
X02834Y01538*
X02833Y01538*
X02832Y01537*
X02832Y01537*
X02831Y01536*
X0283Y01536*
X0283Y01535*
X02829Y01534*
X02829Y01534*
X02829Y01533*
X02828Y01532*
X02828Y01531*
X02828Y01531*
X02828Y0153*
X02828Y01529*
X02828Y01528*
X02828Y01527*
X02828Y01526*
X02828Y01526*
X02828Y01525*
X02828Y01524*
X02829Y01523*
X02829Y01522*
X02829Y01522*
X0283Y01521*
X0283Y0152*
X02831Y0152*
X02832Y01519*
X02832Y01519*
X02833Y01518*
X02834Y01518*
X02834Y01517*
X02835Y01517*
X02836Y01517*
X02837Y01516*
X02838Y01516*
X02838Y01516*
X02839Y01516*
X0284*
X02841Y01516*
X02842Y01516*
X02843Y01516*
X02843Y01517*
X02844Y01517*
X02845Y01517*
X02846Y01518*
X02846Y01518*
X02847Y01519*
X02848Y01519*
X02848Y0152*
X02849Y0152*
X02849Y01521*
X0285Y01522*
X0285Y01522*
X02851Y01523*
X02851Y01524*
X02851Y01525*
X02851Y01526*
X02852Y01526*
X02852Y01527*
X02852Y01528*
X02902Y01478D02*
D01*
X02902Y01479*
X02902Y0148*
X02901Y01481*
X02901Y01481*
X02901Y01482*
X02901Y01483*
X029Y01484*
X029Y01484*
X02899Y01485*
X02899Y01486*
X02898Y01486*
X02898Y01487*
X02897Y01487*
X02896Y01488*
X02896Y01488*
X02895Y01489*
X02894Y01489*
X02893Y01489*
X02893Y0149*
X02892Y0149*
X02891Y0149*
X0289Y0149*
X02889*
X02888Y0149*
X02888Y0149*
X02887Y0149*
X02886Y01489*
X02885Y01489*
X02884Y01489*
X02884Y01488*
X02883Y01488*
X02882Y01487*
X02882Y01487*
X02881Y01486*
X0288Y01486*
X0288Y01485*
X02879Y01484*
X02879Y01484*
X02879Y01483*
X02878Y01482*
X02878Y01481*
X02878Y01481*
X02878Y0148*
X02878Y01479*
X02878Y01478*
X02878Y01477*
X02878Y01476*
X02878Y01476*
X02878Y01475*
X02878Y01474*
X02879Y01473*
X02879Y01472*
X02879Y01472*
X0288Y01471*
X0288Y0147*
X02881Y0147*
X02882Y01469*
X02882Y01469*
X02883Y01468*
X02884Y01468*
X02884Y01467*
X02885Y01467*
X02886Y01467*
X02887Y01466*
X02888Y01466*
X02888Y01466*
X02889Y01466*
X0289*
X02891Y01466*
X02892Y01466*
X02893Y01466*
X02893Y01467*
X02894Y01467*
X02895Y01467*
X02896Y01468*
X02896Y01468*
X02897Y01469*
X02898Y01469*
X02898Y0147*
X02899Y0147*
X02899Y01471*
X029Y01472*
X029Y01472*
X02901Y01473*
X02901Y01474*
X02901Y01475*
X02901Y01476*
X02902Y01476*
X02902Y01477*
X02902Y01478*
X02852D02*
D01*
X02852Y01479*
X02852Y0148*
X02851Y01481*
X02851Y01481*
X02851Y01482*
X02851Y01483*
X0285Y01484*
X0285Y01484*
X02849Y01485*
X02849Y01486*
X02848Y01486*
X02848Y01487*
X02847Y01487*
X02846Y01488*
X02846Y01488*
X02845Y01489*
X02844Y01489*
X02843Y01489*
X02843Y0149*
X02842Y0149*
X02841Y0149*
X0284Y0149*
X02839*
X02838Y0149*
X02838Y0149*
X02837Y0149*
X02836Y01489*
X02835Y01489*
X02834Y01489*
X02834Y01488*
X02833Y01488*
X02832Y01487*
X02832Y01487*
X02831Y01486*
X0283Y01486*
X0283Y01485*
X02829Y01484*
X02829Y01484*
X02829Y01483*
X02828Y01482*
X02828Y01481*
X02828Y01481*
X02828Y0148*
X02828Y01479*
X02828Y01478*
X02828Y01477*
X02828Y01476*
X02828Y01476*
X02828Y01475*
X02828Y01474*
X02829Y01473*
X02829Y01472*
X02829Y01472*
X0283Y01471*
X0283Y0147*
X02831Y0147*
X02832Y01469*
X02832Y01469*
X02833Y01468*
X02834Y01468*
X02834Y01467*
X02835Y01467*
X02836Y01467*
X02837Y01466*
X02838Y01466*
X02838Y01466*
X02839Y01466*
X0284*
X02841Y01466*
X02842Y01466*
X02843Y01466*
X02843Y01467*
X02844Y01467*
X02845Y01467*
X02846Y01468*
X02846Y01468*
X02847Y01469*
X02848Y01469*
X02848Y0147*
X02849Y0147*
X02849Y01471*
X0285Y01472*
X0285Y01472*
X02851Y01473*
X02851Y01474*
X02851Y01475*
X02851Y01476*
X02852Y01476*
X02852Y01477*
X02852Y01478*
X02902Y01428D02*
D01*
X02902Y01429*
X02902Y0143*
X02901Y01431*
X02901Y01431*
X02901Y01432*
X02901Y01433*
X029Y01434*
X029Y01434*
X02899Y01435*
X02899Y01436*
X02898Y01436*
X02898Y01437*
X02897Y01437*
X02896Y01438*
X02896Y01438*
X02895Y01439*
X02894Y01439*
X02893Y01439*
X02893Y0144*
X02892Y0144*
X02891Y0144*
X0289Y0144*
X02889*
X02888Y0144*
X02888Y0144*
X02887Y0144*
X02886Y01439*
X02885Y01439*
X02884Y01439*
X02884Y01438*
X02883Y01438*
X02882Y01437*
X02882Y01437*
X02881Y01436*
X0288Y01436*
X0288Y01435*
X02879Y01434*
X02879Y01434*
X02879Y01433*
X02878Y01432*
X02878Y01431*
X02878Y01431*
X02878Y0143*
X02878Y01429*
X02878Y01428*
X02878Y01427*
X02878Y01426*
X02878Y01426*
X02878Y01425*
X02878Y01424*
X02879Y01423*
X02879Y01422*
X02879Y01422*
X0288Y01421*
X0288Y0142*
X02881Y0142*
X02882Y01419*
X02882Y01419*
X02883Y01418*
X02884Y01418*
X02884Y01417*
X02885Y01417*
X02886Y01417*
X02887Y01416*
X02888Y01416*
X02888Y01416*
X02889Y01416*
X0289*
X02891Y01416*
X02892Y01416*
X02893Y01416*
X02893Y01417*
X02894Y01417*
X02895Y01417*
X02896Y01418*
X02896Y01418*
X02897Y01419*
X02898Y01419*
X02898Y0142*
X02899Y0142*
X02899Y01421*
X029Y01422*
X029Y01422*
X02901Y01423*
X02901Y01424*
X02901Y01425*
X02901Y01426*
X02902Y01426*
X02902Y01427*
X02902Y01428*
X02857Y0064D02*
D01*
X02857Y00641*
X02857Y00643*
X02857Y00644*
X02856Y00645*
X02856Y00647*
X02855Y00648*
X02855Y00649*
X02854Y0065*
X02853Y00652*
X02852Y00653*
X02852Y00654*
X02851Y00655*
X0285Y00656*
X02848Y00656*
X02847Y00657*
X02846Y00658*
X02845Y00658*
X02843Y00659*
X02842Y00659*
X02841Y00659*
X02839Y0066*
X02838Y0066*
X02837*
X02835Y0066*
X02834Y00659*
X02833Y00659*
X02831Y00659*
X0283Y00658*
X02829Y00658*
X02828Y00657*
X02826Y00656*
X02825Y00656*
X02824Y00655*
X02823Y00654*
X02822Y00653*
X02821Y00652*
X02821Y0065*
X0282Y00649*
X02819Y00648*
X02819Y00647*
X02818Y00645*
X02818Y00644*
X02818Y00643*
X02818Y00641*
X02818Y0064*
X02818Y00639*
X02818Y00637*
X02818Y00636*
X02818Y00635*
X02819Y00633*
X02819Y00632*
X0282Y00631*
X02821Y0063*
X02821Y00628*
X02822Y00627*
X02823Y00626*
X02824Y00625*
X02825Y00625*
X02826Y00624*
X02828Y00623*
X02829Y00622*
X0283Y00622*
X02831Y00621*
X02833Y00621*
X02834Y00621*
X02835Y0062*
X02837Y0062*
X02838*
X02839Y0062*
X02841Y00621*
X02842Y00621*
X02843Y00621*
X02845Y00622*
X02846Y00622*
X02847Y00623*
X02848Y00624*
X0285Y00625*
X02851Y00625*
X02852Y00626*
X02852Y00627*
X02853Y00628*
X02854Y0063*
X02855Y00631*
X02855Y00632*
X02856Y00633*
X02856Y00635*
X02857Y00636*
X02857Y00637*
X02857Y00639*
X02857Y0064*
X00767Y02764D02*
D01*
X00767Y02766*
X00767Y02767*
X00767Y02769*
X00766Y0277*
X00766Y02771*
X00766Y02772*
X00765Y02774*
X00764Y02775*
X00763Y02776*
X00763Y02777*
X00762Y02778*
X00761Y02779*
X0076Y0278*
X00759Y02781*
X00757Y02782*
X00756Y02782*
X00755Y02783*
X00754Y02783*
X00752Y02784*
X00751Y02784*
X0075Y02784*
X00748Y02784*
X00747*
X00746Y02784*
X00744Y02784*
X00743Y02784*
X00741Y02783*
X0074Y02783*
X00739Y02782*
X00738Y02782*
X00737Y02781*
X00735Y0278*
X00734Y02779*
X00733Y02778*
X00732Y02777*
X00732Y02776*
X00731Y02775*
X0073Y02774*
X0073Y02772*
X00729Y02771*
X00729Y0277*
X00728Y02769*
X00728Y02767*
X00728Y02766*
X00728Y02764*
X00728Y02763*
X00728Y02762*
X00728Y0276*
X00729Y02759*
X00729Y02758*
X0073Y02756*
X0073Y02755*
X00731Y02754*
X00732Y02753*
X00732Y02752*
X00733Y02751*
X00734Y0275*
X00735Y02749*
X00737Y02748*
X00738Y02747*
X00739Y02747*
X0074Y02746*
X00741Y02746*
X00743Y02745*
X00744Y02745*
X00746Y02745*
X00747Y02745*
X00748*
X0075Y02745*
X00751Y02745*
X00752Y02745*
X00754Y02746*
X00755Y02746*
X00756Y02747*
X00757Y02747*
X00759Y02748*
X0076Y02749*
X00761Y0275*
X00762Y02751*
X00763Y02752*
X00763Y02753*
X00764Y02754*
X00765Y02755*
X00766Y02756*
X00766Y02758*
X00766Y02759*
X00767Y0276*
X00767Y02762*
X00767Y02763*
X00767Y02764*
X00866D02*
D01*
X00866Y02766*
X00865Y02767*
X00865Y02769*
X00865Y0277*
X00864Y02771*
X00864Y02772*
X00863Y02774*
X00863Y02775*
X00862Y02776*
X00861Y02777*
X0086Y02778*
X00859Y02779*
X00858Y0278*
X00857Y02781*
X00856Y02782*
X00855Y02782*
X00853Y02783*
X00852Y02783*
X00851Y02784*
X00849Y02784*
X00848Y02784*
X00847Y02784*
X00845*
X00844Y02784*
X00843Y02784*
X00841Y02784*
X0084Y02783*
X00839Y02783*
X00837Y02782*
X00836Y02782*
X00835Y02781*
X00834Y0278*
X00833Y02779*
X00832Y02778*
X00831Y02777*
X0083Y02776*
X00829Y02775*
X00829Y02774*
X00828Y02772*
X00827Y02771*
X00827Y0277*
X00827Y02769*
X00826Y02767*
X00826Y02766*
X00826Y02764*
X00826Y02763*
X00826Y02762*
X00827Y0276*
X00827Y02759*
X00827Y02758*
X00828Y02756*
X00829Y02755*
X00829Y02754*
X0083Y02753*
X00831Y02752*
X00832Y02751*
X00833Y0275*
X00834Y02749*
X00835Y02748*
X00836Y02747*
X00837Y02747*
X00839Y02746*
X0084Y02746*
X00841Y02745*
X00843Y02745*
X00844Y02745*
X00845Y02745*
X00847*
X00848Y02745*
X00849Y02745*
X00851Y02745*
X00852Y02746*
X00853Y02746*
X00855Y02747*
X00856Y02747*
X00857Y02748*
X00858Y02749*
X00859Y0275*
X0086Y02751*
X00861Y02752*
X00862Y02753*
X00863Y02754*
X00863Y02755*
X00864Y02756*
X00864Y02758*
X00865Y02759*
X00865Y0276*
X00865Y02762*
X00866Y02763*
X00866Y02764*
X02902Y01578D02*
D01*
X02902Y01579*
X02902Y0158*
X02901Y01581*
X02901Y01581*
X02901Y01582*
X02901Y01583*
X029Y01584*
X029Y01584*
X02899Y01585*
X02899Y01586*
X02898Y01586*
X02898Y01587*
X02897Y01587*
X02896Y01588*
X02896Y01588*
X02895Y01589*
X02894Y01589*
X02893Y01589*
X02893Y0159*
X02892Y0159*
X02891Y0159*
X0289Y0159*
X02889*
X02888Y0159*
X02888Y0159*
X02887Y0159*
X02886Y01589*
X02885Y01589*
X02884Y01589*
X02884Y01588*
X02883Y01588*
X02882Y01587*
X02882Y01587*
X02881Y01586*
X0288Y01586*
X0288Y01585*
X02879Y01584*
X02879Y01584*
X02879Y01583*
X02878Y01582*
X02878Y01581*
X02878Y01581*
X02878Y0158*
X02878Y01579*
X02878Y01578*
X02878Y01577*
X02878Y01576*
X02878Y01576*
X02878Y01575*
X02878Y01574*
X02879Y01573*
X02879Y01572*
X02879Y01572*
X0288Y01571*
X0288Y0157*
X02881Y0157*
X02882Y01569*
X02882Y01569*
X02883Y01568*
X02884Y01568*
X02884Y01567*
X02885Y01567*
X02886Y01567*
X02887Y01566*
X02888Y01566*
X02888Y01566*
X02889Y01566*
X0289*
X02891Y01566*
X02892Y01566*
X02893Y01566*
X02893Y01567*
X02894Y01567*
X02895Y01567*
X02896Y01568*
X02896Y01568*
X02897Y01569*
X02898Y01569*
X02898Y0157*
X02899Y0157*
X02899Y01571*
X029Y01572*
X029Y01572*
X02901Y01573*
X02901Y01574*
X02901Y01575*
X02901Y01576*
X02902Y01576*
X02902Y01577*
X02902Y01578*
X02852D02*
D01*
X02852Y01579*
X02852Y0158*
X02851Y01581*
X02851Y01581*
X02851Y01582*
X02851Y01583*
X0285Y01584*
X0285Y01584*
X02849Y01585*
X02849Y01586*
X02848Y01586*
X02848Y01587*
X02847Y01587*
X02846Y01588*
X02846Y01588*
X02845Y01589*
X02844Y01589*
X02843Y01589*
X02843Y0159*
X02842Y0159*
X02841Y0159*
X0284Y0159*
X02839*
X02838Y0159*
X02838Y0159*
X02837Y0159*
X02836Y01589*
X02835Y01589*
X02834Y01589*
X02834Y01588*
X02833Y01588*
X02832Y01587*
X02832Y01587*
X02831Y01586*
X0283Y01586*
X0283Y01585*
X02829Y01584*
X02829Y01584*
X02829Y01583*
X02828Y01582*
X02828Y01581*
X02828Y01581*
X02828Y0158*
X02828Y01579*
X02828Y01578*
X02828Y01577*
X02828Y01576*
X02828Y01576*
X02828Y01575*
X02828Y01574*
X02829Y01573*
X02829Y01572*
X02829Y01572*
X0283Y01571*
X0283Y0157*
X02831Y0157*
X02832Y01569*
X02832Y01569*
X02833Y01568*
X02834Y01568*
X02834Y01567*
X02835Y01567*
X02836Y01567*
X02837Y01566*
X02838Y01566*
X02838Y01566*
X02839Y01566*
X0284*
X02841Y01566*
X02842Y01566*
X02843Y01566*
X02843Y01567*
X02844Y01567*
X02845Y01567*
X02846Y01568*
X02846Y01568*
X02847Y01569*
X02848Y01569*
X02848Y0157*
X02849Y0157*
X02849Y01571*
X0285Y01572*
X0285Y01572*
X02851Y01573*
X02851Y01574*
X02851Y01575*
X02851Y01576*
X02852Y01576*
X02852Y01577*
X02852Y01578*
Y01628D02*
D01*
X02852Y01629*
X02852Y0163*
X02851Y01631*
X02851Y01631*
X02851Y01632*
X02851Y01633*
X0285Y01634*
X0285Y01634*
X02849Y01635*
X02849Y01636*
X02848Y01636*
X02848Y01637*
X02847Y01637*
X02846Y01638*
X02846Y01638*
X02845Y01639*
X02844Y01639*
X02843Y01639*
X02843Y0164*
X02842Y0164*
X02841Y0164*
X0284Y0164*
X02839*
X02838Y0164*
X02838Y0164*
X02837Y0164*
X02836Y01639*
X02835Y01639*
X02834Y01639*
X02834Y01638*
X02833Y01638*
X02832Y01637*
X02832Y01637*
X02831Y01636*
X0283Y01636*
X0283Y01635*
X02829Y01634*
X02829Y01634*
X02829Y01633*
X02828Y01632*
X02828Y01631*
X02828Y01631*
X02828Y0163*
X02828Y01629*
X02828Y01628*
X02828Y01627*
X02828Y01626*
X02828Y01626*
X02828Y01625*
X02828Y01624*
X02829Y01623*
X02829Y01622*
X02829Y01622*
X0283Y01621*
X0283Y0162*
X02831Y0162*
X02832Y01619*
X02832Y01619*
X02833Y01618*
X02834Y01618*
X02834Y01617*
X02835Y01617*
X02836Y01617*
X02837Y01616*
X02838Y01616*
X02838Y01616*
X02839Y01616*
X0284*
X02841Y01616*
X02842Y01616*
X02843Y01616*
X02843Y01617*
X02844Y01617*
X02845Y01617*
X02846Y01618*
X02846Y01618*
X02847Y01619*
X02848Y01619*
X02848Y0162*
X02849Y0162*
X02849Y01621*
X0285Y01622*
X0285Y01622*
X02851Y01623*
X02851Y01624*
X02851Y01625*
X02851Y01626*
X02852Y01626*
X02852Y01627*
X02852Y01628*
X02889Y00423D02*
D01*
X02889Y00427*
X02889Y00431*
X02888Y00436*
X02887Y0044*
X02885Y00444*
X02884Y00448*
X02882Y00452*
X0288Y00456*
X02877Y0046*
X02875Y00463*
X02872Y00466*
X02868Y0047*
X02865Y00472*
X02861Y00475*
X02858Y00477*
X02854Y00479*
X0285Y00481*
X02846Y00483*
X02842Y00484*
X02837Y00485*
X02833Y00485*
X02828Y00486*
X02824*
X0282Y00485*
X02815Y00485*
X02811Y00484*
X02807Y00483*
X02803Y00481*
X02799Y00479*
X02795Y00477*
X02791Y00475*
X02787Y00472*
X02784Y0047*
X02781Y00466*
X02778Y00463*
X02775Y0046*
X02773Y00456*
X02771Y00452*
X02769Y00448*
X02767Y00444*
X02766Y0044*
X02765Y00436*
X02764Y00431*
X02763Y00427*
X02763Y00423*
X02763Y00418*
X02764Y00414*
X02765Y0041*
X02766Y00405*
X02767Y00401*
X02769Y00397*
X02771Y00393*
X02773Y00389*
X02775Y00386*
X02778Y00382*
X02781Y00379*
X02784Y00376*
X02787Y00373*
X02791Y00371*
X02795Y00368*
X02799Y00366*
X02803Y00364*
X02807Y00363*
X02811Y00362*
X02815Y00361*
X0282Y0036*
X02824Y0036*
X02828*
X02833Y0036*
X02837Y00361*
X02842Y00362*
X02846Y00363*
X0285Y00364*
X02854Y00366*
X02858Y00368*
X02861Y00371*
X02865Y00373*
X02868Y00376*
X02872Y00379*
X02875Y00382*
X02877Y00386*
X0288Y00389*
X02882Y00393*
X02884Y00397*
X02885Y00401*
X02887Y00405*
X02888Y0041*
X02889Y00414*
X02889Y00418*
X02889Y00423*
Y02706D02*
D01*
X02889Y02711*
X02889Y02715*
X02888Y02719*
X02887Y02724*
X02885Y02728*
X02884Y02732*
X02882Y02736*
X0288Y0274*
X02877Y02743*
X02875Y02747*
X02872Y0275*
X02868Y02753*
X02865Y02756*
X02861Y02758*
X02858Y02761*
X02854Y02763*
X0285Y02765*
X02846Y02766*
X02842Y02767*
X02837Y02768*
X02833Y02769*
X02828Y02769*
X02824*
X0282Y02769*
X02815Y02768*
X02811Y02767*
X02807Y02766*
X02803Y02765*
X02799Y02763*
X02795Y02761*
X02791Y02758*
X02787Y02756*
X02784Y02753*
X02781Y0275*
X02778Y02747*
X02775Y02743*
X02773Y0274*
X02771Y02736*
X02769Y02732*
X02767Y02728*
X02766Y02724*
X02765Y02719*
X02764Y02715*
X02763Y02711*
X02763Y02706*
X02763Y02702*
X02764Y02697*
X02765Y02693*
X02766Y02689*
X02767Y02685*
X02769Y02681*
X02771Y02677*
X02773Y02673*
X02775Y02669*
X02778Y02666*
X02781Y02662*
X02784Y02659*
X02787Y02657*
X02791Y02654*
X02795Y02652*
X02799Y0265*
X02803Y02648*
X02807Y02646*
X02811Y02645*
X02815Y02644*
X0282Y02644*
X02824Y02643*
X02828*
X02833Y02644*
X02837Y02644*
X02842Y02645*
X02846Y02646*
X0285Y02648*
X02854Y0265*
X02858Y02652*
X02861Y02654*
X02865Y02657*
X02868Y02659*
X02872Y02662*
X02875Y02666*
X02877Y02669*
X0288Y02673*
X02882Y02677*
X02884Y02681*
X02885Y02685*
X02887Y02689*
X02888Y02693*
X02889Y02697*
X02889Y02702*
X02889Y02706*
X00827Y00692D02*
D01*
X00827Y00695*
X00827Y00697*
X00826Y007*
X00826Y00702*
X00825Y00705*
X00824Y00707*
X00823Y00709*
X00822Y00711*
X0082Y00713*
X00819Y00715*
X00817Y00717*
X00815Y00719*
X00814Y0072*
X00812Y00722*
X00809Y00723*
X00807Y00724*
X00805Y00725*
X00803Y00726*
X008Y00727*
X00798Y00727*
X00795Y00728*
X00793Y00728*
X00791*
X00788Y00728*
X00786Y00727*
X00783Y00727*
X00781Y00726*
X00778Y00725*
X00776Y00724*
X00774Y00723*
X00772Y00722*
X0077Y0072*
X00768Y00719*
X00766Y00717*
X00765Y00715*
X00763Y00713*
X00762Y00711*
X0076Y00709*
X00759Y00707*
X00758Y00705*
X00758Y00702*
X00757Y007*
X00757Y00697*
X00756Y00695*
X00756Y00692*
X00756Y0069*
X00757Y00687*
X00757Y00685*
X00758Y00683*
X00758Y0068*
X00759Y00678*
X0076Y00676*
X00762Y00674*
X00763Y00672*
X00765Y0067*
X00766Y00668*
X00768Y00666*
X0077Y00664*
X00772Y00663*
X00774Y00662*
X00776Y00661*
X00778Y0066*
X00781Y00659*
X00783Y00658*
X00786Y00658*
X00788Y00657*
X00791Y00657*
X00793*
X00795Y00657*
X00798Y00658*
X008Y00658*
X00803Y00659*
X00805Y0066*
X00807Y00661*
X00809Y00662*
X00812Y00663*
X00814Y00664*
X00815Y00666*
X00817Y00668*
X00819Y0067*
X0082Y00672*
X00822Y00674*
X00823Y00676*
X00824Y00678*
X00825Y0068*
X00826Y00683*
X00826Y00685*
X00827Y00687*
X00827Y0069*
X00827Y00692*
X00594Y0275D02*
Y02782D01*
X00311Y0275D02*
Y02782D01*
X00574Y0275D02*
Y02782D01*
X00291Y0275D02*
Y02782D01*
X02952Y0D02*
Y02834D01*
M02*