%TF.GenerationSoftware,Altium Limited,Altium Designer,23.1.1 (15)*%
G04 Layer_Physical_Order=2*
G04 Layer_Color=36540*
%FSLAX45Y45*%
%MOMM*%
%TF.SameCoordinates,8C37DE4A-61E0-4A85-99FC-D0A1A2E6B02F*%
%TF.FilePolarity,Positive*%
%TF.FileFunction,Copper,L2,Inr,Signal*%
%TF.Part,Single*%
G01*
G75*
%TA.AperFunction,Conductor*%
%ADD10C,0.25400*%
%ADD12C,0.10160*%
%ADD68C,0.50800*%
%ADD69C,0.20320*%
%ADD72C,0.38100*%
%ADD80C,0.76200*%
%ADD81R,3.22580X2.38760*%
%TA.AperFunction,ComponentPad*%
%ADD82O,1.20000X2.40000*%
%ADD83O,1.05000X2.10000*%
%ADD84C,1.50000*%
%ADD85R,1.50000X1.50000*%
%ADD87C,1.30800*%
%ADD88O,2.00000X2.40000*%
%ADD89C,2.00000*%
%ADD90O,1.00000X1.70000*%
%ADD91C,6.00000*%
%ADD92C,5.50000*%
%ADD93O,1.10000X1.90000*%
%ADD94C,1.25000*%
%ADD95C,1.00000*%
%ADD96O,1.40000X3.00000*%
%ADD97O,1.40000X3.10000*%
%ADD98O,1.40000X2.10000*%
%ADD99C,1.80000*%
G04:AMPARAMS|DCode=100|XSize=1.5mm|YSize=2mm|CornerRadius=0.375mm|HoleSize=0mm|Usage=FLASHONLY|Rotation=90.000|XOffset=0mm|YOffset=0mm|HoleType=Round|Shape=RoundedRectangle|*
%AMROUNDEDRECTD100*
21,1,1.50000,1.25000,0,0,90.0*
21,1,0.75000,2.00000,0,0,90.0*
1,1,0.75000,0.62500,0.37500*
1,1,0.75000,0.62500,-0.37500*
1,1,0.75000,-0.62500,-0.37500*
1,1,0.75000,-0.62500,0.37500*
%
%ADD100ROUNDEDRECTD100*%
%ADD101O,2.50000X2.00000*%
%TA.AperFunction,ViaPad*%
%ADD102C,0.40000*%
G36*
X7049529Y7148455D02*
X7017523Y7129976D01*
X6986323Y7106035D01*
X6958516Y7078228D01*
X6934575Y7047028D01*
X6914912Y7012971D01*
X6899863Y6976638D01*
X6889684Y6938652D01*
X6884552Y6899663D01*
Y6860337D01*
X6889684Y6821347D01*
X6899863Y6783361D01*
X6914912Y6747028D01*
X6934575Y6712971D01*
X6958516Y6681771D01*
X6986323Y6653964D01*
X7017523Y6630024D01*
X7051580Y6610360D01*
X7087913Y6595311D01*
X7125899Y6585133D01*
X7164888Y6580000D01*
X7204214D01*
X7243204Y6585133D01*
X7281190Y6595311D01*
X7317523Y6610360D01*
X7351580Y6630024D01*
X7382779Y6653964D01*
X7410587Y6681771D01*
X7434527Y6712971D01*
X7447158Y6734848D01*
X7459858Y6731445D01*
Y1228554D01*
X7447158Y1225151D01*
X7434527Y1247028D01*
X7410587Y1278228D01*
X7382779Y1306035D01*
X7351580Y1329975D01*
X7317523Y1349639D01*
X7281190Y1364688D01*
X7243204Y1374866D01*
X7204214Y1380000D01*
X7164888D01*
X7125899Y1374866D01*
X7087913Y1364688D01*
X7051580Y1349639D01*
X7017523Y1329975D01*
X6986323Y1306035D01*
X6958516Y1278228D01*
X6934575Y1247028D01*
X6914912Y1212971D01*
X6899863Y1176638D01*
X6889684Y1138652D01*
X6884552Y1099663D01*
Y1060336D01*
X6889684Y1021347D01*
X6899863Y983361D01*
X6914912Y947028D01*
X6934575Y912971D01*
X6958516Y881771D01*
X6986323Y853964D01*
X7017523Y830023D01*
X7051580Y810360D01*
X7087913Y795311D01*
X7125899Y785133D01*
X7164888Y780000D01*
X7204214D01*
X7243204Y785133D01*
X7281190Y795311D01*
X7317523Y810360D01*
X7351580Y830023D01*
X7382779Y853964D01*
X7410587Y881771D01*
X7434527Y912971D01*
X7447158Y934848D01*
X7459858Y931445D01*
Y40141D01*
X7209746D01*
X7205664Y52168D01*
X7206891Y53109D01*
X7223048Y74165D01*
X7233205Y98686D01*
X7236669Y125000D01*
Y195000D01*
X7233205Y221314D01*
X7223048Y245835D01*
X7206891Y266891D01*
X7185834Y283048D01*
X7161314Y293205D01*
X7135000Y296669D01*
X7108686Y293205D01*
X7084165Y283048D01*
X7063109Y266891D01*
X7046951Y245835D01*
X7036794Y221314D01*
X7033330Y195000D01*
Y125000D01*
X7036794Y98686D01*
X7046951Y74165D01*
X7063109Y53109D01*
X7064335Y52168D01*
X7060253Y40141D01*
X6346399D01*
X6343706Y48074D01*
X6343070Y52842D01*
X6359048Y73665D01*
X6369205Y98186D01*
X6372669Y124500D01*
Y194500D01*
X6369205Y220814D01*
X6359048Y245335D01*
X6342891Y266391D01*
X6321835Y282548D01*
X6297314Y292705D01*
X6271000Y296169D01*
X6244686Y292705D01*
X6220165Y282548D01*
X6199109Y266391D01*
X6182952Y245335D01*
X6172795Y220814D01*
X6169330Y194500D01*
Y124500D01*
X6172795Y98186D01*
X6182952Y73665D01*
X6198930Y52842D01*
X6198294Y48074D01*
X6195601Y40142D01*
X6093456D01*
X6089713Y52842D01*
X6109609Y68109D01*
X6127267Y91120D01*
X6138366Y117918D01*
X6142153Y146676D01*
X6138366Y175433D01*
X6127267Y202231D01*
X6109609Y225243D01*
X6086597Y242900D01*
X6059800Y254000D01*
X6031042Y257786D01*
X6002284Y254000D01*
X5975487Y242900D01*
X5952475Y225243D01*
X5934817Y202231D01*
X5923718Y175433D01*
X5919932Y146676D01*
X5923718Y117918D01*
X5934817Y91120D01*
X5952475Y68109D01*
X5972371Y52842D01*
X5968628Y40142D01*
X1363561Y40142D01*
X1357298Y52842D01*
X1368163Y67002D01*
X1379328Y93955D01*
X1383136Y122880D01*
Y242880D01*
X1379328Y271805D01*
X1368163Y298758D01*
X1350403Y321904D01*
X1327258Y339664D01*
X1300304Y350828D01*
X1271380Y354636D01*
X1257620Y352825D01*
X1248071Y361198D01*
Y445380D01*
X1244521Y472347D01*
X1234112Y497476D01*
X1217554Y519054D01*
X1195976Y535612D01*
X1170847Y546021D01*
X1143880Y549571D01*
X1116913Y546021D01*
X1091784Y535612D01*
X1070205Y519054D01*
X1053648Y497476D01*
X1043239Y472347D01*
X1039689Y445380D01*
Y340380D01*
X1043239Y313413D01*
X1053648Y288284D01*
X1070205Y266705D01*
X1091784Y250148D01*
X1116913Y239739D01*
X1143880Y236189D01*
X1150076Y237004D01*
X1159624Y228630D01*
Y122880D01*
X1163432Y93955D01*
X1174597Y67002D01*
X1185462Y52842D01*
X1179199Y40142D01*
X663561D01*
X657298Y52842D01*
X668163Y67002D01*
X679328Y93955D01*
X683136Y122880D01*
Y228630D01*
X692684Y237004D01*
X698880Y236189D01*
X725847Y239739D01*
X750976Y250148D01*
X772554Y266705D01*
X789112Y288284D01*
X799521Y313413D01*
X803071Y340380D01*
Y445380D01*
X799521Y472347D01*
X789112Y497476D01*
X772554Y519054D01*
X750976Y535612D01*
X725847Y546021D01*
X698880Y549571D01*
X671913Y546021D01*
X646784Y535612D01*
X625206Y519054D01*
X608648Y497476D01*
X600668Y478211D01*
X596372Y478415D01*
X588126Y481119D01*
X586250Y490553D01*
X579584Y500529D01*
X569608Y507195D01*
X557840Y509536D01*
X546072Y507195D01*
X536096Y500529D01*
X529430Y490553D01*
X527089Y478785D01*
X529430Y467017D01*
X536096Y457041D01*
X546072Y450375D01*
X557840Y448034D01*
X569608Y450375D01*
X579584Y457041D01*
X584354Y464180D01*
X596559Y459586D01*
X594689Y445380D01*
Y361198D01*
X585140Y352825D01*
X571380Y354636D01*
X542455Y350828D01*
X515502Y339664D01*
X492356Y321904D01*
X474596Y298758D01*
X463432Y271805D01*
X459624Y242880D01*
Y122880D01*
X463432Y93955D01*
X474596Y67002D01*
X485461Y52842D01*
X479198Y40142D01*
X38205D01*
Y7161155D01*
X5481523D01*
X5489315Y7151682D01*
X5489315Y7151680D01*
X5489315D01*
X5489633Y7148455D01*
X5489506Y7148429D01*
X5483928Y7147320D01*
X5473952Y7140654D01*
X5467286Y7130678D01*
X5464945Y7118910D01*
X5467286Y7107142D01*
X5473952Y7097166D01*
X5483928Y7090500D01*
X5495696Y7088159D01*
X5507464Y7090500D01*
X5517440Y7097166D01*
X5524106Y7107142D01*
X5526447Y7118910D01*
X5524106Y7130678D01*
X5517440Y7140654D01*
X5507464Y7147320D01*
X5501887Y7148429D01*
X5501759Y7148455D01*
X5502077Y7151680D01*
X5502077D01*
X5502077Y7151682D01*
X5509869Y7161155D01*
X7049160D01*
X7049529Y7148455D01*
D02*
G37*
%LPC*%
G36*
X5936000Y7134110D02*
X5907242Y7130324D01*
X5880445Y7119225D01*
X5857433Y7101567D01*
X5846878Y7087811D01*
X5833299Y7090977D01*
X5832996Y7092498D01*
X5826331Y7102475D01*
X5816354Y7109140D01*
X5804587Y7111481D01*
X5792819Y7109140D01*
X5782842Y7102475D01*
X5776177Y7092498D01*
X5773836Y7080731D01*
X5776177Y7068963D01*
X5782842Y7058986D01*
X5792819Y7052321D01*
X5804587Y7049980D01*
X5816354Y7052321D01*
X5827740Y7044654D01*
X5824889Y7023000D01*
X5828675Y6994242D01*
X5839775Y6967445D01*
X5857433Y6944433D01*
X5880445Y6926775D01*
X5907242Y6915676D01*
X5936000Y6911889D01*
X5964757Y6915676D01*
X5991555Y6926775D01*
X6014567Y6944433D01*
X6032224Y6967445D01*
X6043324Y6994242D01*
X6047110Y7023000D01*
X6043324Y7051758D01*
X6032224Y7078555D01*
X6014567Y7101567D01*
X5991555Y7119225D01*
X5964757Y7130324D01*
X5936000Y7134110D01*
D02*
G37*
G36*
X5298446Y7147153D02*
X5286678Y7144812D01*
X5276702Y7138146D01*
X5270036Y7128170D01*
X5267695Y7116402D01*
X5270036Y7104634D01*
X5276702Y7094658D01*
X5286678Y7087992D01*
X5298446Y7085651D01*
X5310214Y7087992D01*
X5320190Y7094658D01*
X5326856Y7104634D01*
X5329197Y7116402D01*
X5326856Y7128170D01*
X5320190Y7138146D01*
X5310214Y7144812D01*
X5298446Y7147153D01*
D02*
G37*
G36*
X1670680Y7135131D02*
X1658912Y7132790D01*
X1648936Y7126124D01*
X1642270Y7116148D01*
X1639929Y7104380D01*
X1642270Y7092612D01*
X1648936Y7082636D01*
X1658912Y7075970D01*
X1670680Y7073629D01*
X1682448Y7075970D01*
X1692424Y7082636D01*
X1699090Y7092612D01*
X1701431Y7104380D01*
X1699090Y7116148D01*
X1692424Y7126124D01*
X1682448Y7132790D01*
X1670680Y7135131D01*
D02*
G37*
G36*
X511931Y7131893D02*
X500163Y7129552D01*
X490186Y7122886D01*
X483521Y7112910D01*
X481180Y7101142D01*
X483521Y7089374D01*
X490186Y7079398D01*
X500163Y7072732D01*
X511931Y7070391D01*
X523698Y7072732D01*
X533675Y7079398D01*
X540341Y7089374D01*
X542681Y7101142D01*
X540341Y7112910D01*
X533675Y7122886D01*
X523698Y7129552D01*
X511931Y7131893D01*
D02*
G37*
G36*
X621151Y7129673D02*
X609383Y7127332D01*
X599406Y7120666D01*
X592741Y7110690D01*
X590400Y7098922D01*
X592741Y7087154D01*
X599406Y7077178D01*
X609383Y7070512D01*
X621151Y7068171D01*
X632918Y7070512D01*
X642895Y7077178D01*
X649561Y7087154D01*
X651901Y7098922D01*
X649561Y7110690D01*
X642895Y7120666D01*
X632918Y7127332D01*
X621151Y7129673D01*
D02*
G37*
G36*
X4438419Y7079188D02*
X4426651Y7076847D01*
X4416675Y7070181D01*
X4410009Y7060205D01*
X4407668Y7048437D01*
X4410009Y7036669D01*
X4416675Y7026693D01*
X4426651Y7020027D01*
X4438419Y7017686D01*
X4450187Y7020027D01*
X4460163Y7026693D01*
X4466829Y7036669D01*
X4469170Y7048437D01*
X4466829Y7060205D01*
X4460163Y7070181D01*
X4450187Y7076847D01*
X4438419Y7079188D01*
D02*
G37*
G36*
X4622806Y7134453D02*
X4611038Y7132112D01*
X4601062Y7125446D01*
X4594396Y7115470D01*
X4592735Y7107119D01*
X4519702Y7034086D01*
X4514870Y7022422D01*
Y6754145D01*
X4519702Y6742481D01*
X4588923Y6673259D01*
X4600587Y6668428D01*
X4635971D01*
X4829146Y6475253D01*
Y6397334D01*
X4823898Y6393827D01*
X4817232Y6383851D01*
X4814891Y6372083D01*
X4817232Y6360315D01*
X4823898Y6350339D01*
X4833874Y6343673D01*
X4845642Y6341332D01*
X4857410Y6343673D01*
X4867386Y6350339D01*
X4874052Y6360315D01*
X4876393Y6372083D01*
X4874052Y6383851D01*
X4867386Y6393827D01*
X4862138Y6397334D01*
Y6472098D01*
X4865063Y6479161D01*
X4860232Y6490825D01*
X4673519Y6677537D01*
X4677700Y6691317D01*
X4681294Y6692032D01*
X4691270Y6698698D01*
X4697936Y6708674D01*
X4700277Y6720442D01*
X4697936Y6732210D01*
X4691270Y6742186D01*
X4681294Y6748852D01*
X4669526Y6751192D01*
X4657758Y6748852D01*
X4647782Y6742186D01*
X4641116Y6732210D01*
X4638775Y6720442D01*
X4640006Y6714251D01*
X4631140Y6705384D01*
X4629497Y6701419D01*
X4607420D01*
X4547862Y6760978D01*
Y7015589D01*
X4580066Y7047794D01*
X4584631Y7047032D01*
X4593025Y7042791D01*
X4594781Y7033961D01*
X4601447Y7023984D01*
X4611423Y7017318D01*
X4623191Y7014978D01*
X4634959Y7017318D01*
X4644935Y7023984D01*
X4651601Y7033961D01*
X4653942Y7045728D01*
X4651601Y7057496D01*
X4644935Y7067472D01*
X4644550Y7081958D01*
X4651216Y7091934D01*
X4653557Y7103702D01*
X4651216Y7115470D01*
X4644550Y7125446D01*
X4634574Y7132112D01*
X4622806Y7134453D01*
D02*
G37*
G36*
X3281680Y7071631D02*
X3269912Y7069290D01*
X3259936Y7062624D01*
X3253270Y7052648D01*
X3250929Y7040880D01*
X3253270Y7029112D01*
X3259936Y7019136D01*
X3269912Y7012470D01*
X3281680Y7010129D01*
X3293448Y7012470D01*
X3303424Y7019136D01*
X3310090Y7029112D01*
X3312431Y7040880D01*
X3310090Y7052648D01*
X3303424Y7062624D01*
X3293448Y7069290D01*
X3281680Y7071631D01*
D02*
G37*
G36*
X3459480Y7069091D02*
X3447712Y7066750D01*
X3437736Y7060084D01*
X3431070Y7050108D01*
X3428729Y7038340D01*
X3431070Y7026572D01*
X3437736Y7016596D01*
X3447712Y7009930D01*
X3459480Y7007589D01*
X3471248Y7009930D01*
X3481224Y7016596D01*
X3487890Y7026572D01*
X3490231Y7038340D01*
X3487890Y7050108D01*
X3481224Y7060084D01*
X3471248Y7066750D01*
X3459480Y7069091D01*
D02*
G37*
G36*
X3698240Y7064011D02*
X3686472Y7061670D01*
X3676496Y7055004D01*
X3669830Y7045028D01*
X3667489Y7033260D01*
X3669830Y7021492D01*
X3676496Y7011516D01*
X3686472Y7004850D01*
X3698240Y7002509D01*
X3710008Y7004850D01*
X3719984Y7011516D01*
X3726650Y7021492D01*
X3728991Y7033260D01*
X3726650Y7045028D01*
X3719984Y7055004D01*
X3710008Y7061670D01*
X3698240Y7064011D01*
D02*
G37*
G36*
X2974340Y7061471D02*
X2962572Y7059130D01*
X2952596Y7052464D01*
X2945930Y7042488D01*
X2943589Y7030720D01*
X2945930Y7018952D01*
X2952596Y7008976D01*
X2962572Y7002310D01*
X2974340Y6999969D01*
X2986108Y7002310D01*
X2996084Y7008976D01*
X3002750Y7018952D01*
X3005091Y7030720D01*
X3002750Y7042488D01*
X2996084Y7052464D01*
X2986108Y7059130D01*
X2974340Y7061471D01*
D02*
G37*
G36*
X5001953Y7057363D02*
X4990185Y7055022D01*
X4980209Y7048357D01*
X4973543Y7038380D01*
X4971202Y7026613D01*
X4973543Y7014845D01*
X4980209Y7004868D01*
X4990185Y6998203D01*
X5001953Y6995862D01*
X5013721Y6998203D01*
X5023697Y7004868D01*
X5030363Y7014845D01*
X5032704Y7026613D01*
X5030363Y7038380D01*
X5023697Y7048357D01*
X5013721Y7055022D01*
X5001953Y7057363D01*
D02*
G37*
G36*
X4813181Y7054894D02*
X4801413Y7052554D01*
X4791437Y7045888D01*
X4784771Y7035912D01*
X4782430Y7024144D01*
X4784771Y7012376D01*
X4791437Y7002400D01*
X4801413Y6995734D01*
X4813181Y6993393D01*
X4824949Y6995734D01*
X4834925Y7002400D01*
X4841591Y7012376D01*
X4843932Y7024144D01*
X4841591Y7035912D01*
X4834925Y7045888D01*
X4824949Y7052554D01*
X4813181Y7054894D01*
D02*
G37*
G36*
X3172460Y7051311D02*
X3160692Y7048970D01*
X3150716Y7042304D01*
X3144050Y7032328D01*
X3141709Y7020560D01*
X3144050Y7008792D01*
X3150716Y6998816D01*
X3160692Y6992150D01*
X3172460Y6989809D01*
X3184228Y6992150D01*
X3194204Y6998816D01*
X3200870Y7008792D01*
X3203211Y7020560D01*
X3200870Y7032328D01*
X3194204Y7042304D01*
X3184228Y7048970D01*
X3172460Y7051311D01*
D02*
G37*
G36*
X1485002Y7130725D02*
X1467992Y7128486D01*
X1452141Y7121920D01*
X1438529Y7111475D01*
X1428085Y7097864D01*
X1421519Y7082013D01*
X1419280Y7065003D01*
Y6985003D01*
X1421519Y6967993D01*
X1428085Y6952142D01*
X1438529Y6938530D01*
X1452141Y6928086D01*
X1467992Y6921520D01*
X1485002Y6919281D01*
X1502012Y6921520D01*
X1517863Y6928086D01*
X1531474Y6938530D01*
X1541919Y6952142D01*
X1548485Y6967993D01*
X1550724Y6985003D01*
Y7065003D01*
X1548485Y7082013D01*
X1541919Y7097864D01*
X1531474Y7111475D01*
X1517863Y7121920D01*
X1502012Y7128486D01*
X1485002Y7130725D01*
D02*
G37*
G36*
X765002D02*
X747992Y7128486D01*
X732141Y7121920D01*
X718529Y7111475D01*
X708085Y7097864D01*
X701519Y7082013D01*
X699280Y7065003D01*
Y6985003D01*
X701519Y6967993D01*
X708085Y6952142D01*
X718529Y6938530D01*
X732141Y6928086D01*
X747992Y6921520D01*
X765002Y6919281D01*
X782012Y6921520D01*
X797863Y6928086D01*
X811474Y6938530D01*
X821919Y6952142D01*
X828484Y6967993D01*
X830724Y6985003D01*
Y7065003D01*
X828484Y7082013D01*
X821919Y7097864D01*
X811474Y7111475D01*
X797863Y7121920D01*
X782012Y7128486D01*
X765002Y7130725D01*
D02*
G37*
G36*
X5191456Y6973956D02*
X5179688Y6971615D01*
X5169712Y6964950D01*
X5163046Y6954973D01*
X5160705Y6943206D01*
X5163046Y6931438D01*
X5169712Y6921461D01*
X5179688Y6914796D01*
X5191456Y6912455D01*
X5203224Y6914796D01*
X5213200Y6921461D01*
X5219866Y6931438D01*
X5222207Y6943206D01*
X5219866Y6954973D01*
X5213200Y6964950D01*
X5203224Y6971615D01*
X5191456Y6973956D01*
D02*
G37*
G36*
X2400080Y7134111D02*
X2371322Y7130325D01*
X2344524Y7119225D01*
X2321513Y7101567D01*
X2303855Y7078555D01*
X2292755Y7051758D01*
X2288969Y7023000D01*
X2292755Y6994243D01*
X2303855Y6967445D01*
X2321513Y6944433D01*
X2344524Y6926776D01*
X2371322Y6915676D01*
X2400080Y6911890D01*
X2428837Y6915676D01*
X2455635Y6926776D01*
X2478647Y6944433D01*
X2496304Y6967445D01*
X2507404Y6994243D01*
X2511190Y7023000D01*
X2507404Y7051758D01*
X2496304Y7078555D01*
X2478647Y7101567D01*
X2455635Y7119225D01*
X2428837Y7130325D01*
X2400080Y7134111D01*
D02*
G37*
G36*
X2146080D02*
X2117322Y7130325D01*
X2090524Y7119225D01*
X2067513Y7101567D01*
X2049855Y7078555D01*
X2038755Y7051758D01*
X2034969Y7023000D01*
X2038755Y6994243D01*
X2049855Y6967445D01*
X2067513Y6944433D01*
X2090524Y6926776D01*
X2117322Y6915676D01*
X2146080Y6911890D01*
X2174837Y6915676D01*
X2201635Y6926776D01*
X2224647Y6944433D01*
X2242304Y6967445D01*
X2253404Y6994243D01*
X2257190Y7023000D01*
X2253404Y7051758D01*
X2242304Y7078555D01*
X2224647Y7101567D01*
X2201635Y7119225D01*
X2174837Y7130325D01*
X2146080Y7134111D01*
D02*
G37*
G36*
X1892080D02*
X1863322Y7130325D01*
X1836524Y7119225D01*
X1813513Y7101567D01*
X1795855Y7078555D01*
X1784755Y7051758D01*
X1780969Y7023000D01*
X1784755Y6994243D01*
X1795855Y6967445D01*
X1813513Y6944433D01*
X1836524Y6926776D01*
X1863322Y6915676D01*
X1892080Y6911890D01*
X1920837Y6915676D01*
X1947635Y6926776D01*
X1970647Y6944433D01*
X1988304Y6967445D01*
X1999404Y6994243D01*
X2003190Y7023000D01*
X1999404Y7051758D01*
X1988304Y7078555D01*
X1970647Y7101567D01*
X1947635Y7119225D01*
X1920837Y7130325D01*
X1892080Y7134111D01*
D02*
G37*
G36*
X6698000Y7134110D02*
X6669242Y7130324D01*
X6642445Y7119225D01*
X6619433Y7101567D01*
X6601775Y7078555D01*
X6590675Y7051758D01*
X6586889Y7023000D01*
X6590675Y6994242D01*
X6601775Y6967445D01*
X6619433Y6944433D01*
X6642445Y6926775D01*
X6669242Y6915676D01*
X6698000Y6911889D01*
X6726757Y6915676D01*
X6753555Y6926775D01*
X6776567Y6944433D01*
X6794224Y6967445D01*
X6805324Y6994242D01*
X6809110Y7023000D01*
X6805324Y7051758D01*
X6794224Y7078555D01*
X6776567Y7101567D01*
X6753555Y7119225D01*
X6726757Y7130324D01*
X6698000Y7134110D01*
D02*
G37*
G36*
X6444000D02*
X6415242Y7130324D01*
X6388445Y7119225D01*
X6365433Y7101567D01*
X6347775Y7078555D01*
X6336675Y7051758D01*
X6332889Y7023000D01*
X6336675Y6994242D01*
X6347775Y6967445D01*
X6365433Y6944433D01*
X6388445Y6926775D01*
X6415242Y6915676D01*
X6444000Y6911889D01*
X6472757Y6915676D01*
X6499555Y6926775D01*
X6522567Y6944433D01*
X6540224Y6967445D01*
X6551324Y6994242D01*
X6555110Y7023000D01*
X6551324Y7051758D01*
X6540224Y7078555D01*
X6522567Y7101567D01*
X6499555Y7119225D01*
X6472757Y7130324D01*
X6444000Y7134110D01*
D02*
G37*
G36*
X6190000D02*
X6161242Y7130324D01*
X6134445Y7119225D01*
X6111433Y7101567D01*
X6093775Y7078555D01*
X6082675Y7051758D01*
X6078889Y7023000D01*
X6082675Y6994242D01*
X6093775Y6967445D01*
X6111433Y6944433D01*
X6134445Y6926775D01*
X6161242Y6915676D01*
X6190000Y6911889D01*
X6218757Y6915676D01*
X6245555Y6926775D01*
X6268567Y6944433D01*
X6286224Y6967445D01*
X6297324Y6994242D01*
X6301110Y7023000D01*
X6297324Y7051758D01*
X6286224Y7078555D01*
X6268567Y7101567D01*
X6245555Y7119225D01*
X6218757Y7130324D01*
X6190000Y7134110D01*
D02*
G37*
G36*
X5005018Y6962925D02*
X4993250Y6960584D01*
X4983274Y6953918D01*
X4976608Y6943942D01*
X4974267Y6932174D01*
X4976608Y6920406D01*
X4983274Y6910430D01*
X4993250Y6903764D01*
X5005018Y6901423D01*
X5016786Y6903764D01*
X5026762Y6910430D01*
X5033428Y6920406D01*
X5035769Y6932174D01*
X5033428Y6943942D01*
X5026762Y6953918D01*
X5016786Y6960584D01*
X5005018Y6962925D01*
D02*
G37*
G36*
X1560083Y6929043D02*
X1548315Y6926702D01*
X1538339Y6920037D01*
X1531673Y6910060D01*
X1529332Y6898293D01*
X1531673Y6886525D01*
X1538339Y6876548D01*
X1548315Y6869883D01*
X1560083Y6867542D01*
X1571851Y6869883D01*
X1581827Y6876548D01*
X1588493Y6886525D01*
X1590834Y6898293D01*
X1588493Y6910060D01*
X1581827Y6920037D01*
X1571851Y6926702D01*
X1560083Y6929043D01*
D02*
G37*
G36*
X5492854Y7040793D02*
X5481087Y7038452D01*
X5471110Y7031786D01*
X5464444Y7021810D01*
X5462104Y7010042D01*
X5464444Y6998274D01*
X5469183Y6991182D01*
X5471110Y6988297D01*
X5468221Y6976427D01*
X5461555Y6966451D01*
X5459214Y6954684D01*
X5461555Y6942916D01*
X5468221Y6932939D01*
X5471321Y6930868D01*
X5472363Y6916311D01*
X5472258Y6916131D01*
X5465699Y6906315D01*
X5463358Y6894547D01*
X5465699Y6882779D01*
X5472365Y6872803D01*
X5482341Y6866137D01*
X5494109Y6863796D01*
X5505877Y6866137D01*
X5515853Y6872803D01*
X5522519Y6882779D01*
X5524860Y6894547D01*
X5522519Y6906315D01*
X5515853Y6916291D01*
X5512753Y6918362D01*
X5511711Y6932920D01*
X5511816Y6933100D01*
X5518375Y6942916D01*
X5520716Y6954684D01*
X5518375Y6966451D01*
X5513637Y6973543D01*
X5511710Y6976428D01*
X5514599Y6988298D01*
X5521264Y6998274D01*
X5523605Y7010042D01*
X5521264Y7021810D01*
X5514599Y7031786D01*
X5504622Y7038452D01*
X5492854Y7040793D01*
D02*
G37*
G36*
X2245077Y6922059D02*
X2233309Y6919718D01*
X2223333Y6913053D01*
X2216667Y6903076D01*
X2214327Y6891309D01*
X2216667Y6879541D01*
X2223333Y6869564D01*
X2233309Y6862899D01*
X2245077Y6860558D01*
X2256845Y6862899D01*
X2266821Y6869564D01*
X2273487Y6879541D01*
X2275828Y6891309D01*
X2273487Y6903076D01*
X2266821Y6913053D01*
X2256845Y6919718D01*
X2245077Y6922059D01*
D02*
G37*
G36*
X4811180Y6886604D02*
X4799412Y6884264D01*
X4789435Y6877598D01*
X4782770Y6867622D01*
X4780429Y6855854D01*
X4782770Y6844086D01*
X4789435Y6834110D01*
X4799412Y6827444D01*
X4811180Y6825103D01*
X4822947Y6827444D01*
X4832924Y6834110D01*
X4839590Y6844086D01*
X4841930Y6855854D01*
X4839590Y6867622D01*
X4832924Y6877598D01*
X4822947Y6884264D01*
X4811180Y6886604D01*
D02*
G37*
G36*
X4432859Y6882184D02*
X4421091Y6879843D01*
X4411114Y6873178D01*
X4404449Y6863201D01*
X4402108Y6851434D01*
X4404449Y6839666D01*
X4411114Y6829689D01*
X4421091Y6823024D01*
X4432859Y6820683D01*
X4444626Y6823024D01*
X4454603Y6829689D01*
X4461268Y6839666D01*
X4463609Y6851434D01*
X4461268Y6863201D01*
X4454603Y6873178D01*
X4444626Y6879843D01*
X4432859Y6882184D01*
D02*
G37*
G36*
X4625146Y6878233D02*
X4613378Y6875892D01*
X4603402Y6869226D01*
X4596736Y6859250D01*
X4594395Y6847482D01*
X4596736Y6835714D01*
X4603402Y6825738D01*
X4613378Y6819072D01*
X4625146Y6816731D01*
X4636914Y6819072D01*
X4646890Y6825738D01*
X4653556Y6835714D01*
X4655896Y6847482D01*
X4653556Y6859250D01*
X4646890Y6869226D01*
X4636914Y6875892D01*
X4625146Y6878233D01*
D02*
G37*
G36*
X5692146Y6916013D02*
X5680378Y6913672D01*
X5670402Y6907006D01*
X5663736Y6897030D01*
X5661395Y6885262D01*
X5663736Y6873494D01*
X5670402Y6863518D01*
X5675650Y6860011D01*
Y6802755D01*
X5680482Y6791091D01*
X5708948Y6762624D01*
Y6669810D01*
X5702444Y6668516D01*
X5692468Y6661850D01*
X5685802Y6651874D01*
X5683461Y6640106D01*
X5685802Y6628338D01*
X5692468Y6618362D01*
X5702444Y6611696D01*
X5714212Y6609355D01*
X5725980Y6611696D01*
X5735956Y6618362D01*
X5742622Y6628338D01*
X5744963Y6640106D01*
X5742622Y6651874D01*
X5740273Y6655389D01*
X5741939Y6659412D01*
Y6769457D01*
X5737108Y6781121D01*
X5726731Y6791497D01*
X5734142Y6802048D01*
X5742947Y6800296D01*
X5754715Y6802637D01*
X5764692Y6809303D01*
X5771357Y6819279D01*
X5773698Y6831047D01*
X5771357Y6842815D01*
X5764692Y6852791D01*
X5754715Y6859457D01*
X5742947Y6861798D01*
X5731180Y6859457D01*
X5717116Y6865334D01*
X5716629Y6867616D01*
X5720556Y6873494D01*
X5722897Y6885262D01*
X5720556Y6897030D01*
X5713890Y6907006D01*
X5703914Y6913672D01*
X5692146Y6916013D01*
D02*
G37*
G36*
X509900Y6855731D02*
X498132Y6853390D01*
X488156Y6846724D01*
X481490Y6836748D01*
X479149Y6824980D01*
X481490Y6813212D01*
X488156Y6803236D01*
X498132Y6796570D01*
X509900Y6794229D01*
X521668Y6796570D01*
X531644Y6803236D01*
X535047Y6808329D01*
X539236Y6809115D01*
X549254Y6808091D01*
X554196Y6800696D01*
X564172Y6794030D01*
X575940Y6791689D01*
X587708Y6794030D01*
X597684Y6800696D01*
X604350Y6810672D01*
X606691Y6822440D01*
X604350Y6834208D01*
X597684Y6844184D01*
X587708Y6850850D01*
X575940Y6853191D01*
X564172Y6850850D01*
X554196Y6844184D01*
X550793Y6839091D01*
X546604Y6838305D01*
X536585Y6839329D01*
X531644Y6846724D01*
X521668Y6853390D01*
X509900Y6855731D01*
D02*
G37*
G36*
X5235056Y6879741D02*
X5223288Y6877400D01*
X5213311Y6870734D01*
X5206646Y6860758D01*
X5204305Y6848990D01*
X5206646Y6837222D01*
X5213311Y6827246D01*
X5223288Y6820580D01*
X5235056Y6818239D01*
X5236278Y6818482D01*
X5247131Y6819510D01*
X5250075Y6809264D01*
X5250361Y6807827D01*
X5257027Y6797850D01*
X5267003Y6791185D01*
X5278771Y6788844D01*
X5290539Y6791185D01*
X5300515Y6797850D01*
X5307181Y6807827D01*
X5309522Y6819594D01*
X5307181Y6831362D01*
X5300515Y6841339D01*
X5290539Y6848004D01*
X5278771Y6850345D01*
X5277548Y6850102D01*
X5266696Y6849074D01*
X5263751Y6859321D01*
X5263465Y6860758D01*
X5256800Y6870734D01*
X5246823Y6877400D01*
X5235056Y6879741D01*
D02*
G37*
G36*
X1712483Y6776643D02*
X1700715Y6774302D01*
X1690739Y6767637D01*
X1684073Y6757660D01*
X1681732Y6745893D01*
X1684073Y6734125D01*
X1690739Y6724148D01*
X1700715Y6717483D01*
X1712483Y6715142D01*
X1724251Y6717483D01*
X1734227Y6724148D01*
X1740893Y6734125D01*
X1743234Y6745893D01*
X1740893Y6757660D01*
X1734227Y6767637D01*
X1724251Y6774302D01*
X1712483Y6776643D01*
D02*
G37*
G36*
X3776980Y6749051D02*
X3765212Y6746710D01*
X3755236Y6740044D01*
X3748570Y6730068D01*
X3746229Y6718300D01*
X3748570Y6706532D01*
X3755236Y6696556D01*
X3765212Y6689890D01*
X3776980Y6687549D01*
X3788748Y6689890D01*
X3798724Y6696556D01*
X3805390Y6706532D01*
X3807731Y6718300D01*
X3805390Y6730068D01*
X3798724Y6740044D01*
X3788748Y6746710D01*
X3776980Y6749051D01*
D02*
G37*
G36*
X1370002Y6833290D02*
X1351034Y6830793D01*
X1333359Y6823471D01*
X1318180Y6811825D01*
X1306534Y6796646D01*
X1299212Y6778971D01*
X1296715Y6760003D01*
X1299212Y6741035D01*
X1306534Y6723360D01*
X1318180Y6708181D01*
X1333359Y6696535D01*
X1351034Y6689213D01*
X1370002Y6686716D01*
X1388970Y6689213D01*
X1406645Y6696535D01*
X1421823Y6708181D01*
X1433470Y6723360D01*
X1440792Y6741035D01*
X1443289Y6760003D01*
X1440792Y6778971D01*
X1433470Y6796646D01*
X1421823Y6811825D01*
X1406645Y6823471D01*
X1388970Y6830793D01*
X1370002Y6833290D01*
D02*
G37*
G36*
X880002D02*
X861034Y6830793D01*
X843358Y6823471D01*
X828180Y6811825D01*
X816534Y6796646D01*
X809212Y6778971D01*
X806715Y6760003D01*
X809212Y6741035D01*
X816534Y6723360D01*
X828180Y6708181D01*
X843358Y6696535D01*
X861034Y6689213D01*
X880002Y6686716D01*
X898970Y6689213D01*
X916645Y6696535D01*
X931823Y6708181D01*
X943470Y6723360D01*
X950792Y6741035D01*
X953289Y6760003D01*
X950792Y6778971D01*
X943470Y6796646D01*
X931823Y6811825D01*
X916645Y6823471D01*
X898970Y6830793D01*
X880002Y6833290D01*
D02*
G37*
G36*
X553080Y6731271D02*
X541312Y6728930D01*
X531336Y6722264D01*
X524670Y6712288D01*
X522329Y6700520D01*
X524670Y6688752D01*
X531336Y6678776D01*
X541312Y6672110D01*
X553080Y6669769D01*
X564848Y6672110D01*
X574824Y6678776D01*
X581490Y6688752D01*
X583831Y6700520D01*
X581490Y6712288D01*
X574824Y6722264D01*
X564848Y6728930D01*
X553080Y6731271D01*
D02*
G37*
G36*
X4817796Y6724071D02*
X4806028Y6721730D01*
X4796052Y6715064D01*
X4789386Y6705088D01*
X4787045Y6693320D01*
X4789386Y6681552D01*
X4796052Y6671576D01*
X4806028Y6664910D01*
X4817796Y6662569D01*
X4829564Y6664910D01*
X4839540Y6671576D01*
X4846206Y6681552D01*
X4848547Y6693320D01*
X4846206Y6705088D01*
X4839540Y6715064D01*
X4829564Y6721730D01*
X4817796Y6724071D01*
D02*
G37*
G36*
X5013646Y6778180D02*
X5001878Y6775839D01*
X4991902Y6769174D01*
X4985236Y6759197D01*
X4982895Y6747429D01*
X4985236Y6735662D01*
X4988461Y6730834D01*
X4989215Y6721575D01*
X4984952Y6715054D01*
X4979522Y6711426D01*
X4972856Y6701450D01*
X4970515Y6689682D01*
X4972856Y6677914D01*
X4979522Y6667938D01*
X4989498Y6661272D01*
X5001266Y6658931D01*
X5013034Y6661272D01*
X5023010Y6667938D01*
X5029676Y6677914D01*
X5032017Y6689682D01*
X5029676Y6701450D01*
X5026450Y6706277D01*
X5025697Y6715536D01*
X5029959Y6722057D01*
X5035390Y6725685D01*
X5042056Y6735662D01*
X5044397Y6747429D01*
X5042056Y6759197D01*
X5035390Y6769174D01*
X5025414Y6775839D01*
X5013646Y6778180D01*
D02*
G37*
G36*
X6698000Y6880110D02*
X6669242Y6876324D01*
X6642445Y6865225D01*
X6619433Y6847567D01*
X6601775Y6824555D01*
X6590675Y6797758D01*
X6586889Y6769000D01*
X6590675Y6740242D01*
X6601775Y6713445D01*
X6619433Y6690433D01*
X6642445Y6672775D01*
X6669242Y6661676D01*
X6698000Y6657889D01*
X6726757Y6661676D01*
X6753555Y6672775D01*
X6776567Y6690433D01*
X6794224Y6713445D01*
X6805324Y6740242D01*
X6809110Y6769000D01*
X6805324Y6797758D01*
X6794224Y6824555D01*
X6776567Y6847567D01*
X6753555Y6865225D01*
X6726757Y6876324D01*
X6698000Y6880110D01*
D02*
G37*
G36*
X6444000D02*
X6415242Y6876324D01*
X6388445Y6865225D01*
X6365433Y6847567D01*
X6347775Y6824555D01*
X6336675Y6797758D01*
X6332889Y6769000D01*
X6336675Y6740242D01*
X6347775Y6713445D01*
X6364517Y6691626D01*
X6363271Y6687045D01*
X6358576Y6679686D01*
X6347243Y6677432D01*
X6337266Y6670766D01*
X6330601Y6660790D01*
X6328260Y6649022D01*
X6330601Y6637254D01*
X6337266Y6627278D01*
X6347243Y6620612D01*
X6359011Y6618271D01*
X6370778Y6620612D01*
X6380755Y6627278D01*
X6387421Y6637254D01*
X6389761Y6649022D01*
X6387710Y6659333D01*
X6391222Y6664101D01*
X6397075Y6669201D01*
X6415242Y6661676D01*
X6444000Y6657889D01*
X6472757Y6661676D01*
X6499555Y6672775D01*
X6522567Y6690433D01*
X6540224Y6713445D01*
X6551324Y6740242D01*
X6555110Y6769000D01*
X6551324Y6797758D01*
X6540224Y6824555D01*
X6522567Y6847567D01*
X6499555Y6865225D01*
X6472757Y6876324D01*
X6444000Y6880110D01*
D02*
G37*
G36*
X6065609Y6887198D02*
X6053841Y6884857D01*
X6043865Y6878191D01*
X6037199Y6868215D01*
X6034858Y6856447D01*
X6037199Y6844679D01*
X6043865Y6834703D01*
X6053841Y6828037D01*
X6065609Y6825696D01*
X6077377Y6828037D01*
X6079771Y6829637D01*
X6082047Y6828744D01*
X6088893Y6812767D01*
X6082675Y6797758D01*
X6078889Y6769000D01*
X6082675Y6740242D01*
X6093775Y6713445D01*
X6111433Y6690433D01*
X6134445Y6672775D01*
X6161242Y6661676D01*
X6190000Y6657889D01*
X6218757Y6661676D01*
X6245555Y6672775D01*
X6268567Y6690433D01*
X6286224Y6713445D01*
X6297324Y6740242D01*
X6301110Y6769000D01*
X6297324Y6797758D01*
X6286224Y6824555D01*
X6268567Y6847567D01*
X6245555Y6865225D01*
X6218757Y6876324D01*
X6190000Y6880110D01*
X6161242Y6876324D01*
X6134445Y6865225D01*
X6111433Y6847567D01*
X6104850Y6838988D01*
X6094019Y6844679D01*
X6096360Y6856447D01*
X6094019Y6868215D01*
X6087353Y6878191D01*
X6077377Y6884857D01*
X6065609Y6887198D01*
D02*
G37*
G36*
X5936000Y6880110D02*
X5907242Y6876324D01*
X5880445Y6865225D01*
X5857433Y6847567D01*
X5839775Y6824555D01*
X5828675Y6797758D01*
X5824889Y6769000D01*
X5828675Y6740242D01*
X5839775Y6713445D01*
X5857433Y6690433D01*
X5880445Y6672775D01*
X5907242Y6661676D01*
X5936000Y6657889D01*
X5964757Y6661676D01*
X5991555Y6672775D01*
X6014567Y6690433D01*
X6032224Y6713445D01*
X6043324Y6740242D01*
X6047110Y6769000D01*
X6043324Y6797758D01*
X6032224Y6824555D01*
X6014567Y6847567D01*
X5991555Y6865225D01*
X5964757Y6876324D01*
X5936000Y6880110D01*
D02*
G37*
G36*
X5299220Y6700550D02*
X5287452Y6698209D01*
X5277476Y6691543D01*
X5270810Y6681567D01*
X5268469Y6669799D01*
X5270810Y6658031D01*
X5277476Y6648055D01*
X5287452Y6641389D01*
X5299220Y6639048D01*
X5310988Y6641389D01*
X5320964Y6648055D01*
X5327630Y6658031D01*
X5329971Y6669799D01*
X5327630Y6681567D01*
X5320964Y6691543D01*
X5310988Y6698209D01*
X5299220Y6700550D01*
D02*
G37*
G36*
X2400080Y6880111D02*
X2371322Y6876325D01*
X2344524Y6865225D01*
X2321513Y6847567D01*
X2303855Y6824555D01*
X2292755Y6797758D01*
X2288969Y6769000D01*
X2292755Y6740243D01*
X2303855Y6713445D01*
X2321513Y6690433D01*
X2321878Y6690153D01*
X2318712Y6676574D01*
X2317682Y6676369D01*
X2307706Y6669704D01*
X2301040Y6659727D01*
X2298699Y6647960D01*
X2300753Y6637634D01*
X2297615Y6633941D01*
X2290460Y6629237D01*
X2284301Y6633352D01*
X2272533Y6635693D01*
X2260766Y6633352D01*
X2250789Y6626687D01*
X2244621Y6617454D01*
X2243706Y6616614D01*
X2230549Y6613566D01*
X2189933Y6654182D01*
X2189732Y6667845D01*
X2201635Y6672776D01*
X2224647Y6690433D01*
X2242304Y6713445D01*
X2253404Y6740243D01*
X2257190Y6769000D01*
X2253404Y6797758D01*
X2242304Y6824555D01*
X2224647Y6847567D01*
X2201635Y6865225D01*
X2174837Y6876325D01*
X2146080Y6880111D01*
X2117322Y6876325D01*
X2090524Y6865225D01*
X2067513Y6847567D01*
X2049855Y6824555D01*
X2038755Y6797758D01*
X2034969Y6769000D01*
X2038755Y6740243D01*
X2049855Y6713445D01*
X2067513Y6690433D01*
X2082407Y6679004D01*
X2078096Y6666304D01*
X1960063D01*
X1955752Y6679004D01*
X1970647Y6690433D01*
X1988304Y6713445D01*
X1999404Y6740243D01*
X2003190Y6769000D01*
X1999404Y6797758D01*
X1988304Y6824555D01*
X1970647Y6847567D01*
X1947635Y6865225D01*
X1920837Y6876325D01*
X1892080Y6880111D01*
X1863322Y6876325D01*
X1836524Y6865225D01*
X1813513Y6847567D01*
X1795855Y6824555D01*
X1784755Y6797758D01*
X1780969Y6769000D01*
X1784755Y6740243D01*
X1795855Y6713445D01*
X1813513Y6690433D01*
X1836524Y6672776D01*
X1860337Y6662913D01*
X1864819Y6653920D01*
X1865860Y6648532D01*
X1862780Y6643922D01*
X1860020Y6630047D01*
X1862780Y6616172D01*
X1870639Y6604410D01*
X1882402Y6596550D01*
X1896276Y6593790D01*
X2147774D01*
X2178071Y6563494D01*
X2174782Y6548822D01*
X2169184Y6545082D01*
X2162519Y6535105D01*
X2160178Y6523338D01*
X2152765Y6522357D01*
X2151949Y6522519D01*
X2140181Y6520178D01*
X2130205Y6513513D01*
X2123539Y6503536D01*
X2121198Y6491769D01*
X2123539Y6480001D01*
X2130205Y6470024D01*
X2140181Y6463359D01*
X2151949Y6461018D01*
X2163717Y6463359D01*
X2173693Y6470024D01*
X2180359Y6480001D01*
X2182699Y6491768D01*
X2190112Y6492749D01*
X2190929Y6492587D01*
X2202696Y6494928D01*
X2212673Y6501593D01*
X2216413Y6507191D01*
X2231085Y6510480D01*
X2294478Y6447087D01*
X2282994Y6429902D01*
X2253832Y6370765D01*
X2252843Y6367854D01*
X2247947Y6356128D01*
X2247947D01*
X2247947Y6356128D01*
X2236521Y6328543D01*
X2213493Y6290963D01*
X2184869Y6257448D01*
X2151354Y6228824D01*
X2117323Y6207970D01*
X2105869Y6202522D01*
X2099567Y6198997D01*
X2095627Y6195973D01*
X2081527Y6185154D01*
X2067684Y6167114D01*
X2058982Y6146106D01*
X2056051Y6123836D01*
X2056050D01*
X2056079Y6123802D01*
X2056063Y6123722D01*
Y5225912D01*
X2058823Y5212037D01*
X2066682Y5200274D01*
X2078445Y5192415D01*
X2092320Y5189655D01*
X2106195Y5192415D01*
X2117957Y5200274D01*
X2125817Y5212037D01*
X2128577Y5225912D01*
Y5234158D01*
X2132596Y5238178D01*
X3078051D01*
X3082920Y5237209D01*
X3094688Y5239550D01*
X3104664Y5246216D01*
X3111330Y5256192D01*
X3113671Y5267960D01*
X3111330Y5279728D01*
X3104664Y5289704D01*
X3094688Y5296370D01*
X3082920Y5298711D01*
X3078051Y5297742D01*
X2128577D01*
Y6123722D01*
X2128411Y6124556D01*
X2129522Y6127239D01*
X2137113Y6136194D01*
X2146741Y6141096D01*
X2148201Y6141992D01*
X2194035Y6170079D01*
X2236214Y6206103D01*
X2272238Y6248282D01*
X2301221Y6295576D01*
X2310989Y6319159D01*
X2311757Y6320691D01*
X2311754Y6320684D01*
X2310989Y6319159D01*
X2310949Y6319063D01*
X2310950Y6319066D01*
X2310662Y6318369D01*
X2311737Y6320648D01*
X2311853Y6320883D01*
X2316476Y6330102D01*
X2320855Y6343004D01*
X2345821Y6393629D01*
X2371400Y6431912D01*
X2370697Y6432425D01*
X2375444Y6439530D01*
X2378204Y6453405D01*
X2375444Y6467279D01*
X2367585Y6479042D01*
X2360014Y6484101D01*
X2281156Y6562958D01*
X2284205Y6576115D01*
X2285045Y6577030D01*
X2294278Y6583198D01*
X2300943Y6593175D01*
X2303284Y6604942D01*
X2301230Y6615268D01*
X2304369Y6618961D01*
X2311523Y6623665D01*
X2317682Y6619550D01*
X2329450Y6617209D01*
X2341218Y6619550D01*
X2351194Y6626215D01*
X2357860Y6636192D01*
X2360201Y6647960D01*
X2359209Y6652947D01*
X2370340Y6662082D01*
X2371322Y6661676D01*
X2400080Y6657890D01*
X2428837Y6661676D01*
X2455635Y6672776D01*
X2478647Y6690433D01*
X2496304Y6713445D01*
X2507404Y6740243D01*
X2511190Y6769000D01*
X2507404Y6797758D01*
X2496304Y6824555D01*
X2478647Y6847567D01*
X2455635Y6865225D01*
X2428837Y6876325D01*
X2400080Y6880111D01*
D02*
G37*
G36*
X1193335Y6663501D02*
X1181567Y6661160D01*
X1171591Y6654494D01*
X1164925Y6644518D01*
X1162584Y6632750D01*
X1164925Y6620982D01*
X1171591Y6611006D01*
X1181567Y6604340D01*
X1193335Y6601999D01*
X1205103Y6604340D01*
X1215079Y6611006D01*
X1221745Y6620982D01*
X1224086Y6632750D01*
X1221745Y6644518D01*
X1215079Y6654494D01*
X1205103Y6661160D01*
X1193335Y6663501D01*
D02*
G37*
G36*
X1117135D02*
X1105367Y6661160D01*
X1095391Y6654494D01*
X1088725Y6644518D01*
X1086384Y6632750D01*
X1088725Y6620982D01*
X1095391Y6611006D01*
X1105367Y6604340D01*
X1117135Y6601999D01*
X1128903Y6604340D01*
X1138879Y6611006D01*
X1145545Y6620982D01*
X1147886Y6632750D01*
X1145545Y6644518D01*
X1138879Y6654494D01*
X1128903Y6661160D01*
X1117135Y6663501D01*
D02*
G37*
G36*
X6881992Y6659608D02*
X6870224Y6657267D01*
X6860247Y6650601D01*
X6853582Y6640625D01*
X6851241Y6628857D01*
X6853582Y6617089D01*
X6860247Y6607113D01*
X6870224Y6600447D01*
X6881992Y6598106D01*
X6893759Y6600447D01*
X6903736Y6607113D01*
X6910401Y6617089D01*
X6912742Y6628857D01*
X6910401Y6640625D01*
X6903736Y6650601D01*
X6893759Y6657267D01*
X6881992Y6659608D01*
D02*
G37*
G36*
X1816137Y6658523D02*
X1804369Y6656182D01*
X1794393Y6649517D01*
X1787727Y6639540D01*
X1785386Y6627772D01*
X1787727Y6616005D01*
X1794393Y6606028D01*
X1804369Y6599362D01*
X1816137Y6597022D01*
X1827905Y6599362D01*
X1837881Y6606028D01*
X1844547Y6616005D01*
X1846888Y6627772D01*
X1844547Y6639540D01*
X1837881Y6649517D01*
X1827905Y6656182D01*
X1816137Y6658523D01*
D02*
G37*
G36*
X1722120Y6656892D02*
X1710352Y6654552D01*
X1700376Y6647886D01*
X1693710Y6637910D01*
X1691369Y6626142D01*
X1693710Y6614374D01*
X1700376Y6604398D01*
X1710352Y6597732D01*
X1722120Y6595391D01*
X1733888Y6597732D01*
X1743864Y6604398D01*
X1750530Y6614374D01*
X1752871Y6626142D01*
X1750530Y6637910D01*
X1743864Y6647886D01*
X1733888Y6654552D01*
X1722120Y6656892D01*
D02*
G37*
G36*
X5486406Y6773773D02*
X5474638Y6771432D01*
X5464662Y6764766D01*
X5457996Y6754790D01*
X5455655Y6743022D01*
X5457996Y6731254D01*
X5464662Y6721278D01*
X5469172Y6718264D01*
X5469338Y6712741D01*
X5467568Y6704062D01*
X5459582Y6698726D01*
X5452916Y6688750D01*
X5450575Y6676982D01*
X5452916Y6665214D01*
X5459582Y6655238D01*
X5461235Y6654133D01*
X5466869Y6643474D01*
X5464055Y6638137D01*
X5460536Y6632870D01*
X5458195Y6621102D01*
X5460536Y6609334D01*
X5467202Y6599358D01*
X5477178Y6592692D01*
X5488946Y6590351D01*
X5500714Y6592692D01*
X5510690Y6599358D01*
X5517356Y6609334D01*
X5519697Y6621102D01*
X5517356Y6632870D01*
X5510690Y6642846D01*
X5509037Y6643950D01*
X5503402Y6654610D01*
X5506216Y6659947D01*
X5509736Y6665214D01*
X5512077Y6676982D01*
X5509736Y6688750D01*
X5503070Y6698726D01*
X5498559Y6701740D01*
X5498394Y6707263D01*
X5500164Y6715942D01*
X5508150Y6721278D01*
X5514816Y6731254D01*
X5517157Y6743022D01*
X5514816Y6754790D01*
X5508150Y6764766D01*
X5498174Y6771432D01*
X5486406Y6773773D01*
D02*
G37*
G36*
X4171968Y6624458D02*
X4160200Y6622117D01*
X4150223Y6615451D01*
X4143558Y6605475D01*
X4141217Y6593707D01*
X4143558Y6581939D01*
X4150223Y6571963D01*
X4160200Y6565297D01*
X4171968Y6562956D01*
X4183735Y6565297D01*
X4193712Y6571963D01*
X4200377Y6581939D01*
X4202718Y6593707D01*
X4200377Y6605475D01*
X4193712Y6615451D01*
X4183735Y6622117D01*
X4171968Y6624458D01*
D02*
G37*
G36*
X5859140Y6594111D02*
X5847372Y6591770D01*
X5837396Y6585104D01*
X5830730Y6575128D01*
X5828389Y6563360D01*
X5830730Y6551592D01*
X5837396Y6541616D01*
X5847372Y6534950D01*
X5859140Y6532609D01*
X5870908Y6534950D01*
X5880884Y6541616D01*
X5887550Y6551592D01*
X5889891Y6563360D01*
X5887550Y6575128D01*
X5880884Y6585104D01*
X5870908Y6591770D01*
X5859140Y6594111D01*
D02*
G37*
G36*
X5671977Y6481993D02*
X5660209Y6479652D01*
X5650233Y6472986D01*
X5643567Y6463010D01*
X5641226Y6451242D01*
X5643567Y6439474D01*
X5650233Y6429498D01*
X5660209Y6422832D01*
X5671977Y6420491D01*
X5683745Y6422832D01*
X5693269Y6429195D01*
X5699469Y6419915D01*
X5709445Y6413250D01*
X5721213Y6410909D01*
X5732981Y6413250D01*
X5742957Y6419915D01*
X5749623Y6429892D01*
X5751964Y6441659D01*
X5749623Y6453427D01*
X5742957Y6463404D01*
X5732981Y6470069D01*
X5721213Y6472410D01*
X5709445Y6470069D01*
X5699922Y6463706D01*
X5693721Y6472986D01*
X5683745Y6479652D01*
X5671977Y6481993D01*
D02*
G37*
G36*
X4735256Y6415503D02*
X4723488Y6413162D01*
X4713512Y6406496D01*
X4699730Y6408730D01*
X4695568Y6411511D01*
X4683801Y6413852D01*
X4672033Y6411511D01*
X4662056Y6404845D01*
X4655391Y6394869D01*
X4653050Y6383101D01*
X4655391Y6371333D01*
X4662056Y6361357D01*
X4672033Y6354691D01*
X4683801Y6352350D01*
X4695568Y6354691D01*
X4705545Y6361357D01*
X4719326Y6359123D01*
X4723488Y6356342D01*
X4735256Y6354001D01*
X4747024Y6356342D01*
X4757000Y6363008D01*
X4763666Y6372984D01*
X4766007Y6384752D01*
X4763666Y6396520D01*
X4757000Y6406496D01*
X4747024Y6413162D01*
X4735256Y6415503D01*
D02*
G37*
G36*
X4414185Y6414284D02*
X4402417Y6411943D01*
X4398293Y6409188D01*
X4389289Y6406227D01*
X4379726Y6409108D01*
X4375793Y6411735D01*
X4364026Y6414076D01*
X4352258Y6411735D01*
X4342281Y6405070D01*
X4335616Y6395093D01*
X4333275Y6383326D01*
X4335616Y6371558D01*
X4342281Y6361581D01*
X4352258Y6354916D01*
X4364026Y6352575D01*
X4375793Y6354916D01*
X4385770Y6361581D01*
X4385909Y6361789D01*
X4392441D01*
X4402417Y6355124D01*
X4414185Y6352783D01*
X4425953Y6355124D01*
X4435929Y6361789D01*
X4442595Y6371766D01*
X4444936Y6383534D01*
X4442595Y6395301D01*
X4435929Y6405278D01*
X4425953Y6411943D01*
X4414185Y6414284D01*
D02*
G37*
G36*
X3238500Y6449331D02*
X3226732Y6446990D01*
X3216756Y6440324D01*
X3210090Y6430348D01*
X3207749Y6418580D01*
X3210090Y6406812D01*
X3216756Y6396836D01*
X3226732Y6390170D01*
X3238500Y6387829D01*
X3250268Y6390170D01*
X3260244Y6396836D01*
X3266910Y6406812D01*
X3269251Y6418580D01*
X3266910Y6430348D01*
X3260244Y6440324D01*
X3250268Y6446990D01*
X3238500Y6449331D01*
D02*
G37*
G36*
X4009588Y6458885D02*
X3997821Y6456544D01*
X3987844Y6449878D01*
X3981178Y6439902D01*
X3978838Y6428134D01*
X3981178Y6416366D01*
X3987844Y6406390D01*
X3997821Y6399724D01*
X4009588Y6397383D01*
X4021356Y6399724D01*
X4024715Y6401968D01*
X4038312Y6398028D01*
X4038894Y6397331D01*
X4045122Y6388010D01*
X4055098Y6381344D01*
X4066866Y6379003D01*
X4078634Y6381344D01*
X4088610Y6388010D01*
X4095276Y6397986D01*
X4097617Y6409754D01*
X4095276Y6421522D01*
X4088610Y6431498D01*
X4078634Y6438164D01*
X4066866Y6440505D01*
X4055098Y6438164D01*
X4051739Y6435920D01*
X4038142Y6439860D01*
X4037560Y6440557D01*
X4031333Y6449878D01*
X4021356Y6456544D01*
X4009588Y6458885D01*
D02*
G37*
G36*
X4254577Y6405534D02*
X4242809Y6403193D01*
X4232833Y6396527D01*
X4226167Y6386551D01*
X4223826Y6374783D01*
X4226167Y6363015D01*
X4232833Y6353039D01*
X4242809Y6346373D01*
X4254577Y6344033D01*
X4266345Y6346373D01*
X4276321Y6353039D01*
X4282987Y6363015D01*
X4285328Y6374783D01*
X4282987Y6386551D01*
X4276321Y6396527D01*
X4266345Y6403193D01*
X4254577Y6405534D01*
D02*
G37*
G36*
X1840716Y6395963D02*
X1828949Y6393622D01*
X1818972Y6386957D01*
X1812307Y6376980D01*
X1809966Y6365213D01*
X1812307Y6353445D01*
X1816446Y6347249D01*
X1807290Y6338093D01*
X1803626Y6340541D01*
X1791858Y6342881D01*
X1780091Y6340541D01*
X1770114Y6333875D01*
X1763449Y6323898D01*
X1761108Y6312131D01*
X1763449Y6300363D01*
X1770114Y6290386D01*
X1780091Y6283721D01*
X1791858Y6281380D01*
X1803626Y6283721D01*
X1818972Y6279031D01*
X1828949Y6272366D01*
X1840716Y6270025D01*
X1852484Y6272366D01*
X1862461Y6279031D01*
X1869126Y6289008D01*
X1871467Y6300776D01*
X1869126Y6312543D01*
X1862461Y6322520D01*
X1857497Y6325836D01*
Y6340152D01*
X1862461Y6343468D01*
X1869126Y6353445D01*
X1871467Y6365213D01*
X1869126Y6376980D01*
X1862461Y6386957D01*
X1852484Y6393622D01*
X1840716Y6395963D01*
D02*
G37*
G36*
X4130600Y6398951D02*
X4118832Y6396610D01*
X4108856Y6389944D01*
X4102190Y6379968D01*
X4099849Y6368200D01*
X4102190Y6356432D01*
X4108856Y6346456D01*
X4118832Y6339790D01*
X4130600Y6337449D01*
X4142368Y6339790D01*
X4152344Y6346456D01*
X4159010Y6356432D01*
X4161351Y6368200D01*
X4159010Y6379968D01*
X4152344Y6389944D01*
X4142368Y6396610D01*
X4130600Y6398951D01*
D02*
G37*
G36*
X3541691Y6347033D02*
X3529923Y6344692D01*
X3519946Y6338026D01*
X3513281Y6328050D01*
X3510940Y6316282D01*
X3513281Y6304514D01*
X3519946Y6294538D01*
X3529923Y6287872D01*
X3541691Y6285531D01*
X3553458Y6287872D01*
X3563435Y6294538D01*
X3570101Y6304514D01*
X3572441Y6316282D01*
X3570101Y6328050D01*
X3563435Y6338026D01*
X3553458Y6344692D01*
X3541691Y6347033D01*
D02*
G37*
G36*
X4568908Y6392800D02*
X4557140Y6390459D01*
X4547163Y6383793D01*
X4540498Y6373817D01*
X4538157Y6362049D01*
X4540498Y6350281D01*
X4547163Y6340305D01*
X4557140Y6333639D01*
X4568908Y6331298D01*
X4578051Y6333117D01*
X4580675Y6333639D01*
X4588414Y6328962D01*
X4592058Y6325970D01*
X4597838Y6317319D01*
X4607814Y6310653D01*
X4619582Y6308312D01*
X4630189Y6310422D01*
X4632170Y6310172D01*
X4643526Y6303514D01*
X4644801Y6297104D01*
X4651467Y6287128D01*
X4661443Y6280462D01*
X4673211Y6278121D01*
X4684979Y6280462D01*
X4694955Y6287128D01*
X4701621Y6297104D01*
X4703962Y6308872D01*
X4701621Y6320640D01*
X4694955Y6330616D01*
X4684979Y6337282D01*
X4673211Y6339623D01*
X4662604Y6337513D01*
X4660622Y6337763D01*
X4649267Y6344421D01*
X4647992Y6350831D01*
X4641326Y6360807D01*
X4631350Y6367473D01*
X4619582Y6369814D01*
X4610439Y6367995D01*
X4607814Y6367473D01*
X4600075Y6372150D01*
X4596432Y6375142D01*
X4590652Y6383793D01*
X4580675Y6390459D01*
X4568908Y6392800D01*
D02*
G37*
G36*
X6409628Y6333051D02*
X6397860Y6330710D01*
X6387884Y6324044D01*
X6381218Y6314068D01*
X6378877Y6302300D01*
X6381218Y6290532D01*
X6387884Y6280556D01*
X6397860Y6273890D01*
X6409628Y6271549D01*
X6421396Y6273890D01*
X6431372Y6280556D01*
X6438038Y6290532D01*
X6440379Y6302300D01*
X6438038Y6314068D01*
X6431372Y6324044D01*
X6421396Y6330710D01*
X6409628Y6333051D01*
D02*
G37*
G36*
X4914260Y6324871D02*
X4902492Y6322530D01*
X4892516Y6315864D01*
X4885850Y6305888D01*
X4883509Y6294120D01*
X4884741Y6287929D01*
X4826396Y6229584D01*
X4821564Y6217920D01*
Y5419076D01*
X4561051D01*
X4557544Y5424324D01*
X4547568Y5430990D01*
X4535800Y5433331D01*
X4524032Y5430990D01*
X4514056Y5424324D01*
X4507390Y5414348D01*
X4505049Y5402580D01*
X4507390Y5390812D01*
X4514056Y5380836D01*
X4524032Y5374170D01*
X4535800Y5371829D01*
X4547568Y5374170D01*
X4557544Y5380836D01*
X4561051Y5386084D01*
X4821564D01*
Y4507713D01*
X4562236Y4248384D01*
X4557404Y4236720D01*
Y3659353D01*
X4541991Y3643939D01*
X4535800Y3645171D01*
X4524032Y3642830D01*
X4514056Y3636164D01*
X4507390Y3626188D01*
X4505049Y3614420D01*
X4507390Y3602652D01*
X4514056Y3592676D01*
X4524032Y3586010D01*
X4535800Y3583669D01*
X4547568Y3586010D01*
X4557544Y3592676D01*
X4561051Y3597924D01*
X4689982D01*
X4877235Y3410671D01*
X4888899Y3405840D01*
X4941036D01*
X5122580Y3224296D01*
X5134244Y3219464D01*
X6065029D01*
X6068536Y3214216D01*
X6078512Y3207550D01*
X6090280Y3205209D01*
X6102048Y3207550D01*
X6104673Y3209304D01*
X6224078D01*
X6257705Y3175678D01*
X6269369Y3170846D01*
X6281925D01*
X6307585Y3145186D01*
Y3057550D01*
X6312417Y3045886D01*
X6332675Y3025628D01*
Y2686173D01*
X6326030Y2676228D01*
X6323689Y2664460D01*
X6326030Y2652692D01*
X6326404Y2652133D01*
X6088776Y2414504D01*
X6083944Y2402840D01*
Y2245211D01*
X6078696Y2241704D01*
X6072030Y2231728D01*
X6069689Y2219960D01*
X6072030Y2208192D01*
X6078696Y2198216D01*
X6088672Y2191550D01*
X6099626Y2189371D01*
X6104264Y2184733D01*
Y1997696D01*
X5987684D01*
X5974736Y2010644D01*
X5963071Y2015476D01*
X5897363D01*
X5885699Y2010644D01*
X5877831Y2002776D01*
X5836131D01*
X5832624Y2008024D01*
X5822648Y2014690D01*
X5810880Y2017031D01*
X5799112Y2014690D01*
X5789136Y2008024D01*
X5782470Y1998048D01*
X5780129Y1986280D01*
X5780939Y1982208D01*
X5719741Y1921009D01*
X5718638Y1918347D01*
X5707932Y1915099D01*
X5696165Y1917440D01*
X5684397Y1915099D01*
X5674421Y1908434D01*
X5667755Y1898457D01*
X5665414Y1886689D01*
X5667755Y1874922D01*
X5674421Y1864945D01*
X5684397Y1858279D01*
X5696165Y1855939D01*
X5697125Y1856130D01*
X5703382Y1844425D01*
X5659516Y1800559D01*
X5654684Y1788895D01*
Y1507973D01*
X5598307Y1451596D01*
X5173191D01*
X5169684Y1456844D01*
X5159708Y1463510D01*
X5147940Y1465851D01*
X5136172Y1463510D01*
X5126196Y1456844D01*
X5119530Y1446868D01*
X5117189Y1435100D01*
X5119530Y1423332D01*
X5126196Y1413356D01*
X5136172Y1406690D01*
X5147940Y1404349D01*
X5159708Y1406690D01*
X5169684Y1413356D01*
X5173191Y1418604D01*
X5605140D01*
X5616804Y1423436D01*
X5619863Y1426495D01*
X5629728Y1418399D01*
X5624990Y1411308D01*
X5622649Y1399540D01*
X5624990Y1387772D01*
X5631656Y1377796D01*
X5641632Y1371130D01*
X5653400Y1368789D01*
X5665168Y1371130D01*
X5675144Y1377796D01*
X5681810Y1387772D01*
X5684151Y1399540D01*
X5681810Y1411308D01*
X5675144Y1421284D01*
X5665168Y1427950D01*
X5653400Y1430291D01*
X5641632Y1427950D01*
X5634541Y1423212D01*
X5626445Y1433077D01*
X5682844Y1489476D01*
X5687676Y1501140D01*
Y1782062D01*
X5743069Y1837456D01*
X5747901Y1849120D01*
Y1902512D01*
X5802571Y1957182D01*
X5810880Y1955529D01*
X5822648Y1957870D01*
X5832624Y1964536D01*
X5836131Y1969784D01*
X5884663D01*
X5896327Y1974616D01*
X5904196Y1982484D01*
X5956239D01*
X5969187Y1969536D01*
X5980851Y1964704D01*
X6114808D01*
X6126472Y1969536D01*
X6132424Y1975488D01*
X6137256Y1987152D01*
Y2191565D01*
X6132424Y2203230D01*
X6128294Y2207360D01*
X6128850Y2208192D01*
X6131191Y2219960D01*
X6128850Y2231728D01*
X6122184Y2241704D01*
X6116936Y2245211D01*
Y2396007D01*
X6354687Y2633758D01*
X6366208Y2636050D01*
X6376184Y2642716D01*
X6382850Y2652692D01*
X6385191Y2664460D01*
X6382850Y2676228D01*
X6376184Y2686204D01*
X6366208Y2692870D01*
X6365666Y2692978D01*
Y3032461D01*
X6365402Y3033099D01*
X6371089Y3043737D01*
X6381065Y3050403D01*
X6387731Y3060379D01*
X6390072Y3072147D01*
X6387731Y3083915D01*
X6381065Y3093891D01*
X6371089Y3100557D01*
X6359321Y3102898D01*
X6353277Y3101696D01*
X6340577Y3110007D01*
Y3152019D01*
X6335745Y3163683D01*
X6300422Y3199006D01*
X6288758Y3203838D01*
X6276202D01*
X6242575Y3237464D01*
X6230911Y3242296D01*
X6149032D01*
X6142243Y3254996D01*
X6143960Y3257564D01*
X6375547D01*
X6431675Y3201436D01*
X6443340Y3196604D01*
X6887840D01*
X6899504Y3201436D01*
X6993484Y3295416D01*
X6998316Y3307080D01*
Y3409467D01*
X7036342Y3447493D01*
X7046207Y3439397D01*
X7045919Y3438968D01*
X7043578Y3427200D01*
X7045919Y3415432D01*
X7052585Y3405456D01*
X7062561Y3398790D01*
X7074329Y3396449D01*
X7086097Y3398790D01*
X7096073Y3405456D01*
X7102739Y3415432D01*
X7105080Y3427200D01*
X7102739Y3438968D01*
X7096073Y3448944D01*
X7086097Y3455610D01*
X7074329Y3457951D01*
X7062561Y3455610D01*
X7062132Y3455323D01*
X7054036Y3465188D01*
X7064529Y3475681D01*
X7070720Y3474449D01*
X7082488Y3476790D01*
X7092464Y3483456D01*
X7099130Y3493432D01*
X7101471Y3505200D01*
X7099130Y3516968D01*
X7092464Y3526944D01*
X7082488Y3533610D01*
X7070720Y3535951D01*
X7058952Y3533610D01*
X7048976Y3526944D01*
X7042310Y3516968D01*
X7039969Y3505200D01*
X7041201Y3499009D01*
X6970156Y3427964D01*
X6965324Y3416300D01*
Y3313913D01*
X6881007Y3229596D01*
X6450173D01*
X6394044Y3285724D01*
X6382380Y3290556D01*
X6309482D01*
X6305630Y3303256D01*
X6307657Y3304610D01*
X6314323Y3314587D01*
X6316664Y3326355D01*
X6314898Y3335231D01*
X6317292Y3341481D01*
X6323022Y3347963D01*
X6331275Y3349604D01*
X6341251Y3356270D01*
X6347917Y3366246D01*
X6350258Y3378014D01*
X6347917Y3389782D01*
X6341251Y3399758D01*
X6331275Y3406424D01*
X6328138Y3407048D01*
X6321085Y3419219D01*
X6321260Y3420379D01*
X6323384Y3431058D01*
X6321043Y3442826D01*
X6314378Y3452802D01*
X6304401Y3459468D01*
X6292633Y3461809D01*
X6280866Y3459468D01*
X6270889Y3452802D01*
X6264223Y3442826D01*
X6261883Y3431058D01*
X6264223Y3419290D01*
X6270889Y3409314D01*
X6280866Y3402648D01*
X6284003Y3402024D01*
X6291056Y3389853D01*
X6290881Y3388692D01*
X6288757Y3378014D01*
X6290522Y3369137D01*
X6288128Y3362888D01*
X6282398Y3356406D01*
X6274145Y3354764D01*
X6264169Y3348099D01*
X6257503Y3338122D01*
X6255162Y3326355D01*
X6257503Y3314587D01*
X6264169Y3304610D01*
X6266196Y3303256D01*
X6262343Y3290556D01*
X6143606D01*
Y3361000D01*
X6259424Y3476818D01*
X6264256Y3488482D01*
Y4384189D01*
X6269504Y4387696D01*
X6276170Y4397672D01*
X6278511Y4409440D01*
X6276170Y4421208D01*
X6269504Y4431184D01*
X6259528Y4437850D01*
X6247760Y4440191D01*
X6235992Y4437850D01*
X6226016Y4431184D01*
X6219350Y4421208D01*
X6217009Y4409440D01*
X6219350Y4397672D01*
X6226016Y4387696D01*
X6231264Y4384189D01*
Y3495315D01*
X6115446Y3379497D01*
X6110614Y3367832D01*
Y3279623D01*
X6096471Y3265479D01*
X6090280Y3266711D01*
X6078512Y3264370D01*
X6068536Y3257704D01*
X6065029Y3252456D01*
X6041646D01*
X6033807Y3265156D01*
X6035209Y3272206D01*
X6032868Y3283974D01*
X6026202Y3293950D01*
X6016226Y3300616D01*
X6004458Y3302957D01*
X5992690Y3300616D01*
X5982714Y3293950D01*
X5976048Y3283974D01*
X5973707Y3272206D01*
X5975110Y3265156D01*
X5967270Y3252456D01*
X5141077D01*
X4959533Y3433999D01*
X4947869Y3438831D01*
X4895732D01*
X4708479Y3626084D01*
X4696815Y3630916D01*
X4592218D01*
X4586707Y3643616D01*
X4590396Y3652520D01*
Y4229887D01*
X4849724Y4489216D01*
X4854556Y4500880D01*
Y5195535D01*
X4867256Y5196786D01*
X4868070Y5192692D01*
X4874736Y5182716D01*
X4884712Y5176050D01*
X4896480Y5173709D01*
X4908248Y5176050D01*
X4918224Y5182716D01*
X4924890Y5192692D01*
X4938236Y5195416D01*
X4948212Y5188750D01*
X4959980Y5186409D01*
X4971748Y5188750D01*
X4981724Y5195416D01*
X4988390Y5205392D01*
X4990731Y5217160D01*
X4989499Y5223351D01*
X5251619Y5485471D01*
X5254946D01*
X5255032Y5485506D01*
X6164511D01*
X6170499Y5477228D01*
X6172108Y5472806D01*
X6170110Y5462762D01*
X6172451Y5450994D01*
X6179117Y5441018D01*
X6189093Y5434352D01*
X6200861Y5432011D01*
X6212629Y5434352D01*
X6222605Y5441018D01*
X6229271Y5450994D01*
X6231612Y5462762D01*
X6229614Y5472806D01*
X6231223Y5477228D01*
X6237212Y5485506D01*
X6320038D01*
X6331703Y5490338D01*
X6432791Y5591426D01*
X6498908D01*
X6506378Y5583956D01*
X6518042Y5579124D01*
X6580649D01*
X6584156Y5573876D01*
X6594132Y5567210D01*
X6605900Y5564869D01*
X6617668Y5567210D01*
X6627644Y5573876D01*
X6634310Y5583852D01*
X6636651Y5595620D01*
X6634310Y5607388D01*
X6627644Y5617364D01*
X6617668Y5624030D01*
X6605900Y5626371D01*
X6594132Y5624030D01*
X6584156Y5617364D01*
X6580649Y5612116D01*
X6524875D01*
X6517405Y5619586D01*
X6505741Y5624417D01*
X6453639D01*
X6448779Y5636151D01*
X6605504Y5792876D01*
X6610336Y5804540D01*
Y5829449D01*
X6615584Y5832956D01*
X6622250Y5842932D01*
X6624591Y5854700D01*
X6622250Y5866468D01*
X6615584Y5876444D01*
X6605608Y5883110D01*
X6593840Y5885451D01*
X6582072Y5883110D01*
X6572096Y5876444D01*
X6565430Y5866468D01*
X6563089Y5854700D01*
X6565430Y5842932D01*
X6572096Y5832956D01*
X6577344Y5829449D01*
Y5811373D01*
X6304789Y5538817D01*
X5214342D01*
X5202677Y5533986D01*
X4902671Y5233979D01*
X4896480Y5235211D01*
X4884712Y5232870D01*
X4874736Y5226204D01*
X4868070Y5216228D01*
X4867256Y5212134D01*
X4854556Y5213385D01*
Y5402580D01*
Y6211087D01*
X4908069Y6264601D01*
X4914260Y6263369D01*
X4926028Y6265710D01*
X4936004Y6272376D01*
X4942670Y6282352D01*
X4945011Y6294120D01*
X4942670Y6305888D01*
X4936004Y6315864D01*
X4926028Y6322530D01*
X4914260Y6324871D01*
D02*
G37*
G36*
X2648070Y6549941D02*
Y6249782D01*
X2948230D01*
X2945199Y6288292D01*
X2933802Y6335763D01*
X2915120Y6380867D01*
X2889611Y6422493D01*
X2857905Y6459616D01*
X2820782Y6491323D01*
X2779156Y6516831D01*
X2734052Y6535514D01*
X2686580Y6546911D01*
X2648070Y6549941D01*
D02*
G37*
G36*
X2627750D02*
X2589241Y6546911D01*
X2541770Y6535514D01*
X2496666Y6516831D01*
X2455040Y6491323D01*
X2417916Y6459616D01*
X2386210Y6422493D01*
X2360702Y6380867D01*
X2342019Y6335763D01*
X2330622Y6288292D01*
X2327591Y6249782D01*
X2627750D01*
Y6549941D01*
D02*
G37*
G36*
X5437086Y6144094D02*
X5425318Y6141753D01*
X5421996Y6139533D01*
X5412916Y6135932D01*
X5402951Y6139402D01*
X5399945Y6141411D01*
X5388177Y6143751D01*
X5376409Y6141411D01*
X5366433Y6134745D01*
X5359767Y6124769D01*
X5357426Y6113001D01*
X5359767Y6101233D01*
X5366433Y6091257D01*
Y6088841D01*
X5359767Y6078865D01*
X5357426Y6067097D01*
X5359767Y6055329D01*
X5366433Y6045353D01*
X5363633Y6033116D01*
X5361537Y6029979D01*
X5359196Y6018211D01*
X5361537Y6006443D01*
X5368203Y5996467D01*
X5378179Y5989801D01*
X5389947Y5987460D01*
X5401715Y5989801D01*
X5403864Y5991237D01*
X5416156Y5994050D01*
X5422909Y5990396D01*
X5427088Y5987603D01*
X5438856Y5985263D01*
X5450624Y5987603D01*
X5451973Y5988505D01*
X5462767Y5995210D01*
X5472743Y5988545D01*
X5484511Y5986204D01*
X5496279Y5988545D01*
X5506255Y5995210D01*
X5512921Y6005187D01*
X5515262Y6016954D01*
X5512921Y6028722D01*
X5510390Y6032511D01*
X5505591Y6044579D01*
X5512257Y6054555D01*
X5514598Y6066323D01*
X5512257Y6078091D01*
X5505591Y6088067D01*
Y6090483D01*
X5512257Y6100459D01*
X5514598Y6112227D01*
X5512257Y6123995D01*
X5505591Y6133971D01*
X5495615Y6140637D01*
X5483847Y6142978D01*
X5472079Y6140637D01*
X5462103Y6133971D01*
X5451049Y6140287D01*
X5448854Y6141753D01*
X5437086Y6144094D01*
D02*
G37*
G36*
X4535666Y6145426D02*
X4523898Y6143086D01*
X4513922Y6136420D01*
X4507256Y6126443D01*
X4504916Y6114676D01*
X4507256Y6102908D01*
X4513922Y6092931D01*
X4518932Y6089584D01*
X4522146Y6079048D01*
X4520950Y6074124D01*
X4516137Y6066919D01*
X4513796Y6055151D01*
X4516137Y6043384D01*
X4522802Y6033407D01*
X4532779Y6026742D01*
X4544546Y6024401D01*
X4556314Y6026742D01*
X4566291Y6033407D01*
X4572956Y6043384D01*
X4575297Y6055151D01*
X4572956Y6066919D01*
X4566291Y6076896D01*
X4561280Y6080243D01*
X4558067Y6090780D01*
X4559262Y6095703D01*
X4564076Y6102908D01*
X4566417Y6114676D01*
X4564076Y6126443D01*
X4557410Y6136420D01*
X4547434Y6143086D01*
X4535666Y6145426D01*
D02*
G37*
G36*
X4323080Y6070871D02*
X4311312Y6068530D01*
X4301336Y6061864D01*
X4294670Y6051888D01*
X4292329Y6040120D01*
X4294670Y6028352D01*
X4301336Y6018376D01*
X4311312Y6011710D01*
X4323080Y6009369D01*
X4334848Y6011710D01*
X4344824Y6018376D01*
X4351490Y6028352D01*
X4353831Y6040120D01*
X4351490Y6051888D01*
X4344824Y6061864D01*
X4334848Y6068530D01*
X4323080Y6070871D01*
D02*
G37*
G36*
X4986172Y6065033D02*
X4974404Y6062692D01*
X4964428Y6056026D01*
X4957762Y6046050D01*
X4955421Y6034282D01*
X4957762Y6022514D01*
X4964428Y6012538D01*
X4974404Y6005872D01*
X4986172Y6003531D01*
X4997940Y6005872D01*
X5007916Y6012538D01*
X5014582Y6022514D01*
X5016923Y6034282D01*
X5014582Y6046050D01*
X5007916Y6056026D01*
X4997940Y6062692D01*
X4986172Y6065033D01*
D02*
G37*
G36*
X4048760Y6040391D02*
X4036992Y6038050D01*
X4027016Y6031384D01*
X4020350Y6021408D01*
X4018009Y6009640D01*
X4020350Y5997872D01*
X4027016Y5987896D01*
X4036992Y5981230D01*
X4048760Y5978889D01*
X4060528Y5981230D01*
X4070504Y5987896D01*
X4077170Y5997872D01*
X4079511Y6009640D01*
X4077170Y6021408D01*
X4070504Y6031384D01*
X4060528Y6038050D01*
X4048760Y6040391D01*
D02*
G37*
G36*
X1463354Y6016015D02*
X1451586Y6013675D01*
X1441610Y6007009D01*
X1434944Y5997032D01*
X1432603Y5985265D01*
X1434944Y5973497D01*
X1441610Y5963520D01*
X1451586Y5956855D01*
X1463354Y5954514D01*
X1475122Y5956855D01*
X1485098Y5963520D01*
X1491764Y5973497D01*
X1494105Y5985265D01*
X1491764Y5997032D01*
X1485098Y6007009D01*
X1475122Y6013675D01*
X1463354Y6016015D01*
D02*
G37*
G36*
X4412300Y6004187D02*
X4400532Y6001847D01*
X4390556Y5995181D01*
X4383890Y5985204D01*
X4381549Y5973437D01*
X4383890Y5961669D01*
X4390556Y5951692D01*
X4400532Y5945027D01*
X4412300Y5942686D01*
X4424068Y5945027D01*
X4434044Y5951692D01*
X4440710Y5961669D01*
X4443051Y5973437D01*
X4440710Y5985204D01*
X4434044Y5995181D01*
X4424068Y6001847D01*
X4412300Y6004187D01*
D02*
G37*
G36*
X4726728Y6125503D02*
X4714961Y6123162D01*
X4704984Y6116497D01*
X4698319Y6106520D01*
X4695978Y6094753D01*
X4687207Y6083888D01*
X4675439Y6081547D01*
X4665463Y6074881D01*
X4658797Y6064905D01*
X4656812Y6054926D01*
X4654213Y6050491D01*
X4649853Y6046131D01*
X4645418Y6043532D01*
X4635440Y6041547D01*
X4625463Y6034881D01*
X4618797Y6024905D01*
X4616457Y6013137D01*
X4618797Y6001369D01*
X4625463Y5991393D01*
X4620861Y5979193D01*
X4616934Y5973316D01*
X4614593Y5961548D01*
X4616934Y5949780D01*
X4623600Y5939804D01*
X4633576Y5933138D01*
X4645344Y5930797D01*
X4657112Y5933138D01*
X4667088Y5939804D01*
X4673754Y5949780D01*
X4676095Y5961548D01*
X4673754Y5973316D01*
X4667088Y5983292D01*
X4671690Y5995492D01*
X4675617Y6001369D01*
X4677602Y6011348D01*
X4680201Y6015782D01*
X4684562Y6020143D01*
X4688996Y6022742D01*
X4698975Y6024727D01*
X4708951Y6031393D01*
X4715617Y6041369D01*
X4717958Y6053136D01*
X4726729Y6064002D01*
X4738496Y6066342D01*
X4748473Y6073008D01*
X4755138Y6082985D01*
X4757479Y6094752D01*
X4755138Y6106520D01*
X4748473Y6116497D01*
X4738496Y6123162D01*
X4726728Y6125503D01*
D02*
G37*
G36*
X2627750Y6229462D02*
X2327591D01*
X2330622Y6190952D01*
X2342019Y6143481D01*
X2360702Y6098377D01*
X2386210Y6056751D01*
X2417916Y6019628D01*
X2455040Y5987921D01*
X2496666Y5962413D01*
X2541770Y5943730D01*
X2589241Y5932333D01*
X2627750Y5929303D01*
Y6229462D01*
D02*
G37*
G36*
X2948230D02*
X2648070D01*
Y5929303D01*
X2686580Y5932333D01*
X2734052Y5943730D01*
X2779156Y5962413D01*
X2820782Y5987921D01*
X2857905Y6019628D01*
X2889611Y6056751D01*
X2915120Y6098377D01*
X2933802Y6143481D01*
X2945199Y6190952D01*
X2948230Y6229462D01*
D02*
G37*
G36*
X4934599Y5941465D02*
X4922831Y5939124D01*
X4912855Y5932459D01*
X4906189Y5922482D01*
X4903848Y5910714D01*
X4906189Y5898947D01*
X4912855Y5888970D01*
X4922831Y5882304D01*
X4934599Y5879964D01*
X4946367Y5882304D01*
X4956343Y5888970D01*
X4963009Y5898947D01*
X4965350Y5910714D01*
X4963009Y5922482D01*
X4956343Y5932459D01*
X4946367Y5939124D01*
X4934599Y5941465D01*
D02*
G37*
G36*
X550540Y6642371D02*
X538772Y6640030D01*
X528796Y6633364D01*
X522130Y6623388D01*
X519789Y6611620D01*
X522130Y6599852D01*
X528796Y6589876D01*
X538772Y6583210D01*
X550540Y6580869D01*
X556731Y6582101D01*
X671204Y6467627D01*
Y5746736D01*
X585951D01*
X582444Y5751984D01*
X572468Y5758650D01*
X560700Y5760991D01*
X548932Y5758650D01*
X538956Y5751984D01*
X532290Y5742008D01*
X529949Y5730240D01*
X532290Y5718472D01*
X538956Y5708496D01*
X548932Y5701830D01*
X560700Y5699489D01*
X572468Y5701830D01*
X582444Y5708496D01*
X585951Y5713744D01*
X681748D01*
X693412Y5718576D01*
X699364Y5724528D01*
X704196Y5736192D01*
Y6474460D01*
X699364Y6486124D01*
X580059Y6605429D01*
X581291Y6611620D01*
X578950Y6623388D01*
X572284Y6633364D01*
X562308Y6640030D01*
X550540Y6642371D01*
D02*
G37*
G36*
X4774560Y5763531D02*
X4762792Y5761190D01*
X4752816Y5754524D01*
X4746150Y5744548D01*
X4743809Y5732780D01*
X4746150Y5721012D01*
X4752816Y5711036D01*
X4762792Y5704370D01*
X4774560Y5702029D01*
X4786328Y5704370D01*
X4796304Y5711036D01*
X4802970Y5721012D01*
X4805311Y5732780D01*
X4802970Y5744548D01*
X4796304Y5754524D01*
X4786328Y5761190D01*
X4774560Y5763531D01*
D02*
G37*
G36*
X494660Y5649251D02*
X476177Y5646818D01*
X458954Y5639684D01*
X444165Y5628335D01*
X432816Y5613545D01*
X425682Y5596323D01*
X423249Y5577840D01*
X425682Y5559357D01*
X432816Y5542135D01*
X444165Y5527345D01*
X458954Y5515996D01*
X476177Y5508862D01*
X494660Y5506429D01*
X513142Y5508862D01*
X530365Y5515996D01*
X545155Y5527345D01*
X556504Y5542135D01*
X563637Y5559357D01*
X566071Y5577840D01*
X563637Y5596323D01*
X556504Y5613545D01*
X545155Y5628335D01*
X530365Y5639684D01*
X513142Y5646818D01*
X494660Y5649251D01*
D02*
G37*
G36*
X6198295Y5419036D02*
X6186527Y5416695D01*
X6176551Y5410029D01*
X6169885Y5400053D01*
X6167544Y5388285D01*
X6169885Y5376517D01*
X6176551Y5366541D01*
X6186527Y5359875D01*
X6198295Y5357534D01*
X6210063Y5359875D01*
X6220039Y5366541D01*
X6226705Y5376517D01*
X6229045Y5388285D01*
X6226705Y5400053D01*
X6220039Y5410029D01*
X6210063Y5416695D01*
X6198295Y5419036D01*
D02*
G37*
G36*
X6565260Y5306331D02*
X6553492Y5303990D01*
X6543516Y5297324D01*
X6536850Y5287348D01*
X6534509Y5275580D01*
X6536850Y5263812D01*
X6543516Y5253836D01*
Y5246524D01*
X6536850Y5236548D01*
X6534509Y5224780D01*
X6536850Y5213012D01*
X6543516Y5203036D01*
X6553492Y5196370D01*
X6565260Y5194029D01*
X6577028Y5196370D01*
X6587004Y5203036D01*
X6593670Y5213012D01*
X6596011Y5224780D01*
X6593670Y5236548D01*
X6587004Y5246524D01*
Y5253836D01*
X6593670Y5263812D01*
X6596011Y5275580D01*
X6593670Y5287348D01*
X6587004Y5297324D01*
X6577028Y5303990D01*
X6565260Y5306331D01*
D02*
G37*
G36*
X3969380Y5245371D02*
X3957612Y5243030D01*
X3947636Y5236364D01*
X3940970Y5226388D01*
X3938629Y5214620D01*
X3940970Y5202852D01*
X3947636Y5192876D01*
X3957612Y5186210D01*
X3969380Y5183869D01*
X3981148Y5186210D01*
X3991124Y5192876D01*
X3997790Y5202852D01*
X4000131Y5214620D01*
X3997790Y5226388D01*
X3991124Y5236364D01*
X3981148Y5243030D01*
X3969380Y5245371D01*
D02*
G37*
G36*
X781680Y5176791D02*
X769912Y5174450D01*
X759936Y5167784D01*
X753270Y5157808D01*
X750929Y5146040D01*
X753270Y5134272D01*
X759936Y5124296D01*
X769912Y5117630D01*
X781680Y5115289D01*
X793448Y5117630D01*
X803424Y5124296D01*
X810090Y5134272D01*
X812431Y5146040D01*
X810090Y5157808D01*
X803424Y5167784D01*
X793448Y5174450D01*
X781680Y5176791D01*
D02*
G37*
G36*
X6569924Y5163520D02*
X6558156Y5161179D01*
X6548180Y5154513D01*
X6541514Y5144537D01*
X6539173Y5132769D01*
X6541514Y5121001D01*
X6548180Y5111025D01*
X6558156Y5104359D01*
X6569924Y5102018D01*
X6581692Y5104359D01*
X6591668Y5111025D01*
X6598334Y5121001D01*
X6600675Y5132769D01*
X6598334Y5144537D01*
X6591668Y5154513D01*
X6581692Y5161179D01*
X6569924Y5163520D01*
D02*
G37*
G36*
X5461006Y5153253D02*
X5449238Y5150912D01*
X5439262Y5144246D01*
X5432596Y5134270D01*
X5430255Y5122502D01*
X5432596Y5110734D01*
X5439262Y5100758D01*
X5449238Y5094092D01*
X5461006Y5091751D01*
X5472774Y5094092D01*
X5482750Y5100758D01*
X5489416Y5110734D01*
X5491757Y5122502D01*
X5489416Y5134270D01*
X5482750Y5144246D01*
X5472774Y5150912D01*
X5461006Y5153253D01*
D02*
G37*
G36*
X5910954Y5148737D02*
X5899186Y5146397D01*
X5889209Y5139731D01*
X5882544Y5129755D01*
X5880203Y5117987D01*
X5882544Y5106219D01*
X5889209Y5096243D01*
X5899186Y5089577D01*
X5910954Y5087236D01*
X5922721Y5089577D01*
X5932698Y5096243D01*
X5939364Y5106219D01*
X5941704Y5117987D01*
X5939364Y5129755D01*
X5932698Y5139731D01*
X5922721Y5146397D01*
X5910954Y5148737D01*
D02*
G37*
G36*
X6217749Y5143061D02*
X6205981Y5140720D01*
X6196005Y5134055D01*
X6189339Y5124078D01*
X6186998Y5112310D01*
X6189339Y5100543D01*
X6196005Y5090566D01*
X6205981Y5083900D01*
X6217749Y5081560D01*
X6229517Y5083900D01*
X6239493Y5090566D01*
X6246159Y5100543D01*
X6248500Y5112310D01*
X6246159Y5124078D01*
X6239493Y5134055D01*
X6229517Y5140720D01*
X6217749Y5143061D01*
D02*
G37*
G36*
X771520Y5054871D02*
X759752Y5052530D01*
X749776Y5045864D01*
X743110Y5035888D01*
X740769Y5024120D01*
X743110Y5012352D01*
X749776Y5002376D01*
X759752Y4995710D01*
X771520Y4993369D01*
X783288Y4995710D01*
X793264Y5002376D01*
X799930Y5012352D01*
X802271Y5024120D01*
X799930Y5035888D01*
X793264Y5045864D01*
X783288Y5052530D01*
X771520Y5054871D01*
D02*
G37*
G36*
X2933060Y5009151D02*
X2921292Y5006810D01*
X2911316Y5000144D01*
X2904650Y4990168D01*
X2902309Y4978400D01*
X2904650Y4966632D01*
X2911316Y4956656D01*
X2921292Y4949990D01*
X2933060Y4947649D01*
X2944828Y4949990D01*
X2954804Y4956656D01*
X2961470Y4966632D01*
X2963811Y4978400D01*
X2961470Y4990168D01*
X2954804Y5000144D01*
X2944828Y5006810D01*
X2933060Y5009151D01*
D02*
G37*
G36*
X2510239Y4965743D02*
X2498471Y4963402D01*
X2488495Y4956737D01*
X2481829Y4946760D01*
X2479488Y4934992D01*
X2481829Y4923225D01*
X2488495Y4913248D01*
X2498471Y4906583D01*
X2510239Y4904242D01*
X2522007Y4906583D01*
X2531983Y4913248D01*
X2538649Y4923225D01*
X2540990Y4934992D01*
X2538649Y4946760D01*
X2531983Y4956737D01*
X2522007Y4963402D01*
X2510239Y4965743D01*
D02*
G37*
G36*
X779140Y4915171D02*
X767372Y4912830D01*
X757396Y4906164D01*
X750730Y4896188D01*
X748389Y4884420D01*
X750730Y4872652D01*
X757396Y4862676D01*
X767372Y4856010D01*
X779140Y4853669D01*
X790908Y4856010D01*
X800884Y4862676D01*
X807550Y4872652D01*
X809891Y4884420D01*
X807550Y4896188D01*
X800884Y4906164D01*
X790908Y4912830D01*
X779140Y4915171D01*
D02*
G37*
G36*
X6491600Y4905011D02*
X6479832Y4902670D01*
X6469856Y4896004D01*
X6463190Y4886028D01*
X6460849Y4874260D01*
X6463190Y4862492D01*
X6469856Y4852516D01*
X6479832Y4845850D01*
X6491600Y4843509D01*
X6503368Y4845850D01*
X6513344Y4852516D01*
X6520010Y4862492D01*
X6522351Y4874260D01*
X6520010Y4886028D01*
X6513344Y4896004D01*
X6503368Y4902670D01*
X6491600Y4905011D01*
D02*
G37*
G36*
X6322322Y4847187D02*
X6310554Y4844846D01*
X6300578Y4838180D01*
X6293912Y4828204D01*
X6291571Y4816436D01*
X6293912Y4804668D01*
X6300578Y4794692D01*
X6310554Y4788026D01*
X6322322Y4785685D01*
X6334090Y4788026D01*
X6344066Y4794692D01*
X6350732Y4804668D01*
X6353073Y4816436D01*
X6350732Y4828204D01*
X6344066Y4838180D01*
X6334090Y4844846D01*
X6322322Y4847187D01*
D02*
G37*
G36*
X784220Y4793251D02*
X772452Y4790910D01*
X762476Y4784244D01*
X755810Y4774268D01*
X753469Y4762500D01*
X755810Y4750732D01*
X762476Y4740756D01*
X772452Y4734090D01*
X784220Y4731749D01*
X795988Y4734090D01*
X805964Y4740756D01*
X812630Y4750732D01*
X814971Y4762500D01*
X812630Y4774268D01*
X805964Y4784244D01*
X795988Y4790910D01*
X784220Y4793251D01*
D02*
G37*
G36*
X2901686Y4744592D02*
X2889918Y4742252D01*
X2879942Y4735586D01*
X2873276Y4725610D01*
X2870935Y4713842D01*
X2873276Y4702074D01*
X2879942Y4692098D01*
X2889918Y4685432D01*
X2901686Y4683091D01*
X2913454Y4685432D01*
X2923430Y4692098D01*
X2930096Y4702074D01*
X2932437Y4713842D01*
X2930096Y4725610D01*
X2923430Y4735586D01*
X2913454Y4742252D01*
X2901686Y4744592D01*
D02*
G37*
G36*
X6843411Y4742145D02*
X6831643Y4739804D01*
X6821667Y4733139D01*
X6815001Y4723162D01*
X6812660Y4711394D01*
X6815001Y4699627D01*
X6821667Y4689650D01*
X6831643Y4682985D01*
X6843411Y4680644D01*
X6855179Y4682985D01*
X6865155Y4689650D01*
X6871821Y4699627D01*
X6874162Y4711394D01*
X6871821Y4723162D01*
X6865155Y4733139D01*
X6855179Y4739804D01*
X6843411Y4742145D01*
D02*
G37*
G36*
X1843400Y5042171D02*
X1831632Y5039830D01*
X1821656Y5033164D01*
X1814990Y5023188D01*
X1812649Y5011420D01*
X1814990Y4999652D01*
X1821656Y4989676D01*
X1831632Y4983010D01*
X1843400Y4980669D01*
X1849591Y4981901D01*
X1935484Y4896007D01*
Y4688600D01*
X1922784Y4680289D01*
X1916740Y4681491D01*
X1910696Y4680289D01*
X1897996Y4688600D01*
Y4760109D01*
X1903244Y4763616D01*
X1909910Y4773592D01*
X1912251Y4785360D01*
X1909910Y4797128D01*
X1903244Y4807104D01*
X1893268Y4813770D01*
X1881500Y4816111D01*
X1869732Y4813770D01*
X1859756Y4807104D01*
X1847196Y4811166D01*
Y4868766D01*
X1853560Y4873989D01*
X1865328Y4876330D01*
X1875304Y4882996D01*
X1881970Y4892972D01*
X1884311Y4904740D01*
X1881970Y4916508D01*
X1875304Y4926484D01*
X1865328Y4933150D01*
X1853560Y4935491D01*
X1841792Y4933150D01*
X1831816Y4926484D01*
X1825150Y4916508D01*
X1822809Y4904740D01*
X1823327Y4902136D01*
X1819036Y4897844D01*
X1814204Y4886180D01*
Y4131617D01*
X1819036Y4119952D01*
X2613092Y3325896D01*
X2624756Y3321064D01*
X3164987D01*
X3228984Y3257067D01*
Y2895600D01*
X3233816Y2883936D01*
X3393836Y2723916D01*
X3405500Y2719084D01*
X4777887D01*
X4780924Y2716047D01*
Y2535370D01*
X4768224Y2534120D01*
X4768037Y2535059D01*
X4761371Y2545036D01*
X4751395Y2551701D01*
X4739627Y2554042D01*
X4727859Y2551701D01*
X4717883Y2545036D01*
X4711217Y2535059D01*
X4708877Y2523291D01*
X4711217Y2511524D01*
X4717883Y2501547D01*
X4727859Y2494881D01*
X4739627Y2492541D01*
X4751395Y2494881D01*
X4761371Y2501547D01*
X4768037Y2511524D01*
X4768224Y2512463D01*
X4780924Y2511212D01*
Y2478891D01*
X4775676Y2475384D01*
X4769010Y2465408D01*
X4766669Y2453640D01*
X4769010Y2441872D01*
X4775676Y2431896D01*
X4785652Y2425230D01*
X4797420Y2422889D01*
X4809188Y2425230D01*
X4819164Y2431896D01*
X4825830Y2441872D01*
X4828171Y2453640D01*
X4838043Y2462388D01*
X4847949Y2458720D01*
X4850290Y2446952D01*
X4856956Y2436976D01*
X4862080Y2433552D01*
X4865183Y2418695D01*
X4604204Y2157716D01*
X4210531D01*
X4207024Y2162964D01*
X4197048Y2169630D01*
X4185280Y2171971D01*
X4173512Y2169630D01*
X4163536Y2162964D01*
X4156870Y2152988D01*
X4154529Y2141220D01*
X4156300Y2132316D01*
X4149331Y2119616D01*
X4126711D01*
X4123204Y2124864D01*
X4113228Y2131530D01*
X4101460Y2133871D01*
X4089692Y2131530D01*
X4079716Y2124864D01*
X4073050Y2114888D01*
X4070709Y2103120D01*
X4073050Y2091352D01*
X4079716Y2081376D01*
X4089692Y2074710D01*
X4101460Y2072369D01*
X4113228Y2074710D01*
X4123204Y2081376D01*
X4126711Y2086624D01*
X4678040D01*
X4689704Y2091456D01*
X4864649Y2266401D01*
X4869481Y2278065D01*
Y2289012D01*
X5026392Y2445924D01*
X5026952Y2445550D01*
X5038720Y2443209D01*
X5050488Y2445550D01*
X5060464Y2452216D01*
X5067130Y2462192D01*
X5069471Y2473960D01*
X5068223Y2480230D01*
X5076310Y2490802D01*
X5077908Y2491686D01*
X5088588Y2493810D01*
X5098564Y2500476D01*
X5105230Y2510452D01*
X5107571Y2522220D01*
X5105230Y2533988D01*
X5098564Y2543964D01*
X5088588Y2550630D01*
X5076820Y2552971D01*
X5065052Y2550630D01*
X5055076Y2543964D01*
X5051569Y2538716D01*
X4992036D01*
X4980372Y2533884D01*
X4961632Y2515144D01*
X4949928Y2521400D01*
X4950091Y2522220D01*
X4947750Y2533988D01*
X4941084Y2543964D01*
X4935836Y2547471D01*
Y2725420D01*
X4931004Y2737084D01*
X4859884Y2808204D01*
X4848220Y2813036D01*
X3437583D01*
X3322936Y2927683D01*
Y3289150D01*
X3318104Y3300815D01*
X3208735Y3410184D01*
X3197070Y3415016D01*
X2656839D01*
X1968476Y4103380D01*
Y4902840D01*
X1963644Y4914504D01*
X1872919Y5005229D01*
X1874151Y5011420D01*
X1871810Y5023188D01*
X1865144Y5033164D01*
X1855168Y5039830D01*
X1843400Y5042171D01*
D02*
G37*
G36*
X7047860Y4737371D02*
X7036092Y4735030D01*
X7026116Y4728364D01*
X7019450Y4718388D01*
X7017109Y4706620D01*
X7019450Y4694852D01*
X7026116Y4684876D01*
X7036092Y4678210D01*
X7047860Y4675869D01*
X7059628Y4678210D01*
X7069604Y4684876D01*
X7076270Y4694852D01*
X7078611Y4706620D01*
X7076270Y4718388D01*
X7069604Y4728364D01*
X7059628Y4735030D01*
X7047860Y4737371D01*
D02*
G37*
G36*
X786760Y4676411D02*
X774992Y4674070D01*
X765016Y4667404D01*
X758350Y4657428D01*
X756009Y4645660D01*
X758350Y4633892D01*
X765016Y4623916D01*
X774992Y4617250D01*
X786760Y4614909D01*
X798528Y4617250D01*
X808504Y4623916D01*
X815170Y4633892D01*
X817511Y4645660D01*
X815170Y4657428D01*
X808504Y4667404D01*
X798528Y4674070D01*
X786760Y4676411D01*
D02*
G37*
G36*
X7131680Y4658631D02*
X7119912Y4656290D01*
X7109936Y4649624D01*
X7103270Y4639648D01*
X7100929Y4627880D01*
X7103270Y4616112D01*
X7109936Y4606136D01*
X7119912Y4599470D01*
X7131680Y4597129D01*
X7143448Y4599470D01*
X7153424Y4606136D01*
X7160090Y4616112D01*
X7162431Y4627880D01*
X7160090Y4639648D01*
X7153424Y4649624D01*
X7143448Y4656290D01*
X7131680Y4658631D01*
D02*
G37*
G36*
X786760Y4544331D02*
X774992Y4541990D01*
X765016Y4535324D01*
X758350Y4525348D01*
X756009Y4513580D01*
X758350Y4501812D01*
X765016Y4491836D01*
X774992Y4485170D01*
X786760Y4482829D01*
X798528Y4485170D01*
X808504Y4491836D01*
X815170Y4501812D01*
X817511Y4513580D01*
X815170Y4525348D01*
X808504Y4535324D01*
X798528Y4541990D01*
X786760Y4544331D01*
D02*
G37*
G36*
X3677280Y4518931D02*
X3665512Y4516590D01*
X3655536Y4509924D01*
X3648870Y4499948D01*
X3646529Y4488180D01*
X3648870Y4476412D01*
X3655536Y4466436D01*
X3665512Y4459770D01*
X3677280Y4457429D01*
X3689048Y4459770D01*
X3699024Y4466436D01*
X3705690Y4476412D01*
X3708031Y4488180D01*
X3705690Y4499948D01*
X3699024Y4509924D01*
X3689048Y4516590D01*
X3677280Y4518931D01*
D02*
G37*
G36*
X2696900Y4878446D02*
X2652900D01*
X2638034Y4875489D01*
X2625431Y4867068D01*
X2617011Y4854466D01*
X2614053Y4839600D01*
Y4819600D01*
X2616043Y4809600D01*
X2614053Y4799600D01*
Y4779600D01*
X2616043Y4769600D01*
X2614053Y4759600D01*
Y4739600D01*
X2616043Y4729600D01*
X2614053Y4719600D01*
Y4699600D01*
X2616043Y4689600D01*
X2614053Y4679600D01*
Y4659600D01*
X2616043Y4649600D01*
X2614053Y4639600D01*
Y4619600D01*
X2616043Y4609600D01*
X2614053Y4599600D01*
Y4579600D01*
X2616043Y4569600D01*
X2614053Y4559600D01*
Y4539600D01*
X2616043Y4529600D01*
X2614053Y4519600D01*
Y4499600D01*
X2616043Y4489600D01*
X2614053Y4479600D01*
Y4459600D01*
X2617011Y4444734D01*
X2625431Y4432132D01*
X2638034Y4423711D01*
X2652900Y4420754D01*
X2696900D01*
X2711766Y4423711D01*
X2724368Y4432132D01*
X2732789Y4444734D01*
X2735746Y4459600D01*
Y4479600D01*
X2733757Y4489600D01*
X2735746Y4499600D01*
Y4519600D01*
X2733757Y4529600D01*
X2735746Y4539600D01*
Y4559600D01*
X2733757Y4569600D01*
X2735746Y4579600D01*
Y4599600D01*
X2733757Y4609600D01*
X2735746Y4619600D01*
Y4639600D01*
X2733757Y4649600D01*
X2735746Y4659600D01*
Y4679600D01*
X2733757Y4689600D01*
X2735746Y4699600D01*
Y4719600D01*
X2733757Y4729600D01*
X2735746Y4739600D01*
Y4759600D01*
X2733757Y4769600D01*
X2735746Y4779600D01*
Y4799600D01*
X2733757Y4809600D01*
X2735746Y4819600D01*
Y4839600D01*
X2732789Y4854466D01*
X2724368Y4867068D01*
X2711766Y4875489D01*
X2696900Y4878446D01*
D02*
G37*
G36*
X2502900D02*
X2458900D01*
X2444034Y4875489D01*
X2431431Y4867068D01*
X2423010Y4854466D01*
X2420053Y4839600D01*
Y4819600D01*
X2422042Y4809600D01*
X2420053Y4799600D01*
Y4779600D01*
X2422042Y4769600D01*
X2420053Y4759600D01*
Y4739600D01*
X2422042Y4729600D01*
X2420053Y4719600D01*
Y4699600D01*
X2422042Y4689600D01*
X2420053Y4679600D01*
Y4659600D01*
X2422042Y4649600D01*
X2420053Y4639600D01*
Y4619600D01*
X2422042Y4609600D01*
X2420053Y4599600D01*
Y4579600D01*
X2422042Y4569600D01*
X2420053Y4559600D01*
Y4539600D01*
X2422042Y4529600D01*
X2420053Y4519600D01*
Y4499600D01*
X2422042Y4489600D01*
X2420053Y4479600D01*
Y4459600D01*
X2423010Y4444734D01*
X2431431Y4432132D01*
X2444034Y4423711D01*
X2458900Y4420754D01*
X2502900D01*
X2517766Y4423711D01*
X2530368Y4432132D01*
X2538789Y4444734D01*
X2541746Y4459600D01*
Y4479600D01*
X2539757Y4489600D01*
X2541746Y4499600D01*
Y4519600D01*
X2539757Y4529600D01*
X2541746Y4539600D01*
Y4559600D01*
X2539757Y4569600D01*
X2541746Y4579600D01*
Y4599600D01*
X2539757Y4609600D01*
X2541746Y4619600D01*
Y4639600D01*
X2539757Y4649600D01*
X2541746Y4659600D01*
Y4679600D01*
X2539757Y4689600D01*
X2541746Y4699600D01*
Y4719600D01*
X2539757Y4729600D01*
X2541746Y4739600D01*
Y4759600D01*
X2539757Y4769600D01*
X2541746Y4779600D01*
Y4799600D01*
X2539757Y4809600D01*
X2541746Y4819600D01*
Y4839600D01*
X2538789Y4854466D01*
X2530368Y4867068D01*
X2517766Y4875489D01*
X2502900Y4878446D01*
D02*
G37*
G36*
X5869633Y4426382D02*
X5857865Y4424041D01*
X5847889Y4417376D01*
X5846886Y4415874D01*
X5831611D01*
X5831284Y4416364D01*
X5821308Y4423030D01*
X5809540Y4425371D01*
X5797772Y4423030D01*
X5787796Y4416364D01*
X5781130Y4406388D01*
X5778789Y4394620D01*
X5781130Y4382852D01*
X5787796Y4372876D01*
X5797772Y4366210D01*
X5809540Y4363869D01*
X5821308Y4366210D01*
X5831284Y4372876D01*
X5832287Y4374377D01*
X5847562D01*
X5847889Y4373887D01*
X5857865Y4367222D01*
X5869633Y4364881D01*
X5881401Y4367222D01*
X5891377Y4373887D01*
X5898043Y4383864D01*
X5900384Y4395632D01*
X5898043Y4407399D01*
X5891377Y4417376D01*
X5881401Y4424041D01*
X5869633Y4426382D01*
D02*
G37*
G36*
X5611577Y4438508D02*
X5599809Y4436167D01*
X5589833Y4429501D01*
X5583167Y4419525D01*
X5580827Y4407757D01*
X5583167Y4395989D01*
X5589833Y4386013D01*
X5599809Y4379347D01*
X5611577Y4377006D01*
X5623345Y4379347D01*
X5623986Y4379776D01*
X5640476Y4377955D01*
X5650452Y4371290D01*
X5662220Y4368949D01*
X5673988Y4371290D01*
X5683964Y4377956D01*
X5690630Y4387932D01*
X5692971Y4399700D01*
X5690630Y4411468D01*
X5683964Y4421444D01*
X5673988Y4428110D01*
X5662220Y4430451D01*
X5650452Y4428110D01*
X5649811Y4427682D01*
X5633321Y4429502D01*
X5623345Y4436167D01*
X5611577Y4438508D01*
D02*
G37*
G36*
X873120Y4399551D02*
X861352Y4397210D01*
X851376Y4390544D01*
X844710Y4380568D01*
X842369Y4368800D01*
X844710Y4357032D01*
X851376Y4347056D01*
X861352Y4340390D01*
X873120Y4338049D01*
X884888Y4340390D01*
X894864Y4347056D01*
X901530Y4357032D01*
X903871Y4368800D01*
X901530Y4380568D01*
X894864Y4390544D01*
X884888Y4397210D01*
X873120Y4399551D01*
D02*
G37*
G36*
X5332180Y4348862D02*
X5320412Y4346521D01*
X5310436Y4339855D01*
X5303770Y4329879D01*
X5301429Y4318111D01*
X5303770Y4306343D01*
X5310436Y4296367D01*
X5320412Y4289701D01*
X5332180Y4287360D01*
X5343948Y4289701D01*
X5353924Y4296367D01*
X5360590Y4306343D01*
X5362931Y4318111D01*
X5360590Y4329879D01*
X5353924Y4339855D01*
X5343948Y4346521D01*
X5332180Y4348862D01*
D02*
G37*
G36*
X5559522Y4321209D02*
X5547754Y4318868D01*
X5537777Y4312202D01*
X5531112Y4302226D01*
X5528771Y4290458D01*
X5531112Y4278690D01*
X5537777Y4268714D01*
X5547754Y4262048D01*
X5559522Y4259707D01*
X5571289Y4262048D01*
X5581266Y4268714D01*
X5587931Y4278690D01*
X5590272Y4290458D01*
X5587931Y4302226D01*
X5581266Y4312202D01*
X5571289Y4318868D01*
X5559522Y4321209D01*
D02*
G37*
G36*
X5900716Y4252689D02*
X5888949Y4250349D01*
X5886243Y4248541D01*
X5875295Y4242066D01*
X5865318Y4248732D01*
X5853551Y4251073D01*
X5841783Y4248732D01*
X5831806Y4242066D01*
X5825141Y4232090D01*
X5822800Y4220322D01*
X5825141Y4208554D01*
X5831806Y4198578D01*
X5841783Y4191912D01*
X5853551Y4189571D01*
X5865318Y4191912D01*
X5868024Y4193720D01*
X5878972Y4200195D01*
X5888949Y4193529D01*
X5900716Y4191188D01*
X5912484Y4193529D01*
X5922461Y4200195D01*
X5929126Y4210171D01*
X5931467Y4221939D01*
X5929126Y4233707D01*
X5922461Y4243683D01*
X5912484Y4250349D01*
X5900716Y4252689D01*
D02*
G37*
G36*
X7413960Y4298371D02*
X7402192Y4296030D01*
X7392215Y4289364D01*
X7385550Y4279388D01*
X7383209Y4267620D01*
X7385550Y4255852D01*
X7392215Y4245876D01*
X7402192Y4239210D01*
X7413960Y4236869D01*
X7425727Y4239210D01*
X7435704Y4245876D01*
X7442369Y4255852D01*
X7444710Y4267620D01*
X7442369Y4279388D01*
X7435704Y4289364D01*
X7425727Y4296030D01*
X7413960Y4298371D01*
D02*
G37*
G36*
X700400Y4290331D02*
X688632Y4287990D01*
X678656Y4281324D01*
X671990Y4271348D01*
X669649Y4259580D01*
X671990Y4247812D01*
X678656Y4237836D01*
X688632Y4231170D01*
X700400Y4228829D01*
X712168Y4231170D01*
X722144Y4237836D01*
X728810Y4247812D01*
X731151Y4259580D01*
X728810Y4271348D01*
X722144Y4281324D01*
X712168Y4287990D01*
X700400Y4290331D01*
D02*
G37*
G36*
X5221703Y4247445D02*
X5209935Y4245104D01*
X5199959Y4238438D01*
X5193293Y4228462D01*
X5190953Y4216694D01*
X5193293Y4204926D01*
X5199959Y4194950D01*
X5209935Y4188284D01*
X5221703Y4185943D01*
X5233471Y4188284D01*
X5243447Y4194950D01*
X5250113Y4204926D01*
X5252454Y4216694D01*
X5250113Y4228462D01*
X5243447Y4238438D01*
X5233471Y4245104D01*
X5221703Y4247445D01*
D02*
G37*
G36*
X7341000Y4197838D02*
X7317527Y4193169D01*
X7297627Y4179873D01*
X7284330Y4159973D01*
X7283974Y4158183D01*
X7271025D01*
X7270669Y4159973D01*
X7257373Y4179873D01*
X7237473Y4193169D01*
X7214000Y4197838D01*
X7190527Y4193169D01*
X7170627Y4179873D01*
X7157330Y4159973D01*
X7152661Y4136500D01*
X7157330Y4113027D01*
X7170627Y4093127D01*
X7190527Y4079831D01*
X7192317Y4079474D01*
Y4066526D01*
X7190527Y4066169D01*
X7170627Y4052873D01*
X7157330Y4032973D01*
X7152661Y4009500D01*
X7157330Y3986027D01*
X7170627Y3966127D01*
X7190527Y3952831D01*
X7192317Y3952474D01*
Y3939526D01*
X7190527Y3939169D01*
X7170627Y3925873D01*
X7157330Y3905973D01*
X7152661Y3882500D01*
X7157330Y3859027D01*
X7170627Y3839127D01*
X7190527Y3825831D01*
X7192317Y3825474D01*
Y3812526D01*
X7190527Y3812169D01*
X7170627Y3798873D01*
X7157330Y3778973D01*
X7152661Y3755500D01*
X7157330Y3732027D01*
X7170627Y3712127D01*
X7190527Y3698831D01*
X7192317Y3698474D01*
Y3685526D01*
X7190527Y3685169D01*
X7170627Y3671873D01*
X7157330Y3651973D01*
X7152661Y3628500D01*
X7157330Y3605027D01*
X7170627Y3585127D01*
X7190527Y3571831D01*
X7214000Y3567162D01*
X7237473Y3571831D01*
X7257373Y3585127D01*
X7270669Y3605027D01*
X7271025Y3606817D01*
X7283974D01*
X7284330Y3605027D01*
X7297627Y3585127D01*
X7317527Y3571831D01*
X7341000Y3567162D01*
X7364473Y3571831D01*
X7384373Y3585127D01*
X7397669Y3605027D01*
X7402338Y3628500D01*
X7397669Y3651973D01*
X7384373Y3671873D01*
X7364473Y3685169D01*
X7362683Y3685526D01*
Y3698474D01*
X7364473Y3698831D01*
X7384373Y3712127D01*
X7397669Y3732027D01*
X7400317Y3745339D01*
X7341000D01*
Y3765659D01*
X7400317D01*
X7397669Y3778973D01*
X7384373Y3798873D01*
X7364473Y3812169D01*
X7362683Y3812526D01*
Y3825474D01*
X7364473Y3825831D01*
X7384373Y3839127D01*
X7397669Y3859027D01*
X7400317Y3872339D01*
X7341000D01*
Y3892659D01*
X7400317D01*
X7397669Y3905973D01*
X7384373Y3925873D01*
X7364473Y3939169D01*
X7362683Y3939526D01*
Y3952474D01*
X7364473Y3952831D01*
X7384373Y3966127D01*
X7397669Y3986027D01*
X7402338Y4009500D01*
X7397669Y4032973D01*
X7384373Y4052873D01*
X7364473Y4066169D01*
X7362683Y4066526D01*
Y4079474D01*
X7364473Y4079831D01*
X7384373Y4093127D01*
X7397669Y4113027D01*
X7402338Y4136500D01*
X7397669Y4159973D01*
X7384373Y4179873D01*
X7364473Y4193169D01*
X7341000Y4197838D01*
D02*
G37*
G36*
X1064260Y4206511D02*
X1052492Y4204170D01*
X1042516Y4197504D01*
X1035850Y4187528D01*
X1033509Y4175760D01*
X1035850Y4163992D01*
X1042516Y4154016D01*
X1052492Y4147350D01*
X1064260Y4145009D01*
X1076028Y4147350D01*
X1086004Y4154016D01*
X1092670Y4163992D01*
X1095011Y4175760D01*
X1092670Y4187528D01*
X1086004Y4197504D01*
X1076028Y4204170D01*
X1064260Y4206511D01*
D02*
G37*
G36*
X6174084Y4244686D02*
X6162316Y4242345D01*
X6152339Y4235680D01*
X6145674Y4225703D01*
X6143333Y4213935D01*
X6145674Y4202168D01*
X6152339Y4192192D01*
Y4185519D01*
X6145674Y4175543D01*
X6143333Y4163776D01*
X6145674Y4152008D01*
X6152339Y4142031D01*
X6162316Y4135366D01*
X6174084Y4133025D01*
X6185851Y4135366D01*
X6195828Y4142031D01*
X6202494Y4152008D01*
X6204834Y4163776D01*
X6202494Y4175543D01*
X6195828Y4185519D01*
Y4192192D01*
X6202494Y4202168D01*
X6204834Y4213935D01*
X6202494Y4225703D01*
X6195828Y4235680D01*
X6185851Y4242345D01*
X6174084Y4244686D01*
D02*
G37*
G36*
X2458080Y4191271D02*
X2446312Y4188930D01*
X2436336Y4182264D01*
X2429670Y4172288D01*
X2427329Y4160520D01*
X2429670Y4148752D01*
X2436336Y4138776D01*
X2446312Y4132110D01*
X2458080Y4129769D01*
X2469848Y4132110D01*
X2479824Y4138776D01*
X2486490Y4148752D01*
X2488831Y4160520D01*
X2486490Y4172288D01*
X2479824Y4182264D01*
X2469848Y4188930D01*
X2458080Y4191271D01*
D02*
G37*
G36*
X2732400Y4178571D02*
X2720632Y4176230D01*
X2710656Y4169564D01*
X2703990Y4159588D01*
X2701649Y4147820D01*
X2703990Y4136052D01*
X2710656Y4126076D01*
X2720632Y4119410D01*
X2732400Y4117069D01*
X2744168Y4119410D01*
X2754144Y4126076D01*
X2760810Y4136052D01*
X2763151Y4147820D01*
X2760810Y4159588D01*
X2754144Y4169564D01*
X2744168Y4176230D01*
X2732400Y4178571D01*
D02*
G37*
G36*
X6586847Y4228531D02*
X6575080Y4226190D01*
X6565103Y4219524D01*
X6558437Y4209548D01*
X6556097Y4197780D01*
X6558437Y4186012D01*
X6565103Y4176036D01*
Y4169364D01*
X6558437Y4159388D01*
X6556097Y4147620D01*
X6558437Y4135852D01*
X6565103Y4125876D01*
X6575080Y4119210D01*
X6586847Y4116869D01*
X6598615Y4119210D01*
X6608592Y4125876D01*
X6615257Y4135852D01*
X6617598Y4147620D01*
X6615257Y4159388D01*
X6608592Y4169364D01*
Y4176036D01*
X6615257Y4186012D01*
X6617598Y4197780D01*
X6615257Y4209548D01*
X6608592Y4219524D01*
X6598615Y4226190D01*
X6586847Y4228531D01*
D02*
G37*
G36*
X494660Y4170971D02*
X476177Y4168538D01*
X458954Y4161404D01*
X444165Y4150055D01*
X432816Y4135265D01*
X425682Y4118043D01*
X423249Y4099560D01*
X425682Y4081077D01*
X432816Y4063855D01*
X444165Y4049065D01*
X458954Y4037716D01*
X476177Y4030582D01*
X494660Y4028149D01*
X513142Y4030582D01*
X530365Y4037716D01*
X545155Y4049065D01*
X556504Y4063855D01*
X563637Y4081077D01*
X566071Y4099560D01*
X563637Y4118043D01*
X556504Y4135265D01*
X545155Y4150055D01*
X530365Y4161404D01*
X513142Y4168538D01*
X494660Y4170971D01*
D02*
G37*
G36*
X4811388Y4089857D02*
X4799620Y4087516D01*
X4789643Y4080850D01*
X4782978Y4070874D01*
X4780637Y4059106D01*
X4782978Y4047338D01*
X4789643Y4037362D01*
Y4030690D01*
X4782978Y4020714D01*
X4780637Y4008946D01*
X4782978Y3997178D01*
X4789643Y3987202D01*
X4799620Y3980536D01*
X4811388Y3978195D01*
X4823155Y3980536D01*
X4833132Y3987202D01*
X4839798Y3997178D01*
X4842138Y4008946D01*
X4839798Y4020714D01*
X4833132Y4030690D01*
Y4037362D01*
X4839798Y4047338D01*
X4842138Y4059106D01*
X4839798Y4070874D01*
X4833132Y4080850D01*
X4823155Y4087516D01*
X4811388Y4089857D01*
D02*
G37*
G36*
X6174083Y4082749D02*
X6162316Y4080408D01*
X6152339Y4073742D01*
X6145674Y4063766D01*
X6143333Y4051998D01*
X6145674Y4040230D01*
X6152339Y4030254D01*
Y4023582D01*
X6145674Y4013606D01*
X6143333Y4001838D01*
X6145674Y3990070D01*
X6152339Y3980094D01*
X6162316Y3973428D01*
X6174083Y3971087D01*
X6185851Y3973428D01*
X6195828Y3980094D01*
X6202493Y3990070D01*
X6204834Y4001838D01*
X6202493Y4013606D01*
X6195828Y4023582D01*
Y4030254D01*
X6202493Y4040230D01*
X6204834Y4051998D01*
X6202493Y4063766D01*
X6195828Y4073742D01*
X6185851Y4080408D01*
X6174083Y4082749D01*
D02*
G37*
G36*
X6586847Y4078671D02*
X6575080Y4076330D01*
X6565103Y4069664D01*
X6558437Y4059688D01*
X6556097Y4047920D01*
X6558437Y4036152D01*
X6565103Y4026176D01*
Y4019504D01*
X6558437Y4009528D01*
X6556097Y3997760D01*
X6558437Y3985992D01*
X6565103Y3976016D01*
X6575080Y3969350D01*
X6586847Y3967009D01*
X6598615Y3969350D01*
X6608592Y3976016D01*
X6615257Y3985992D01*
X6617598Y3997760D01*
X6615257Y4009528D01*
X6608592Y4019504D01*
Y4026176D01*
X6615257Y4036152D01*
X6617598Y4047920D01*
X6615257Y4059688D01*
X6608592Y4069664D01*
X6598615Y4076330D01*
X6586847Y4078671D01*
D02*
G37*
G36*
X6058194Y3995577D02*
X6046427Y3993236D01*
X6036450Y3986570D01*
X6029784Y3976594D01*
X6027444Y3964826D01*
X6029784Y3953058D01*
X6036450Y3943082D01*
X6046427Y3936416D01*
X6058194Y3934075D01*
X6069962Y3936416D01*
X6079939Y3943082D01*
X6086604Y3953058D01*
X6088945Y3964826D01*
X6086604Y3976594D01*
X6079939Y3986570D01*
X6069962Y3993236D01*
X6058194Y3995577D01*
D02*
G37*
G36*
X4737728Y4008653D02*
X4725960Y4006313D01*
X4715983Y3999647D01*
X4709318Y3989670D01*
X4706977Y3977903D01*
X4709318Y3966135D01*
X4715983Y3956159D01*
Y3949487D01*
X4709318Y3939511D01*
X4706977Y3927743D01*
X4709318Y3915975D01*
X4715983Y3905999D01*
X4725960Y3899333D01*
X4737728Y3896992D01*
X4749495Y3899333D01*
X4759472Y3905999D01*
X4766138Y3915975D01*
X4768478Y3927743D01*
X4766138Y3939511D01*
X4759472Y3949487D01*
Y3956159D01*
X4766138Y3966135D01*
X4768478Y3977903D01*
X4766138Y3989670D01*
X4759472Y3999647D01*
X4749495Y4006313D01*
X4737728Y4008653D01*
D02*
G37*
G36*
X4811388Y3927450D02*
X4799620Y3925109D01*
X4789643Y3918443D01*
X4782978Y3908467D01*
X4780637Y3896699D01*
X4782978Y3884931D01*
X4789643Y3874955D01*
Y3868283D01*
X4782978Y3858307D01*
X4780637Y3846539D01*
X4782978Y3834771D01*
X4789643Y3824795D01*
X4799620Y3818129D01*
X4811388Y3815788D01*
X4823155Y3818129D01*
X4833132Y3824795D01*
X4839798Y3834771D01*
X4842138Y3846539D01*
X4839798Y3858307D01*
X4833132Y3868283D01*
Y3874955D01*
X4839798Y3884931D01*
X4842138Y3896699D01*
X4839798Y3908467D01*
X4833132Y3918443D01*
X4823155Y3925109D01*
X4811388Y3927450D01*
D02*
G37*
G36*
X6586847Y3926271D02*
X6575080Y3923930D01*
X6565103Y3917264D01*
X6558437Y3907288D01*
X6556097Y3895520D01*
X6558437Y3883752D01*
X6561129Y3879723D01*
X6564053Y3870440D01*
X6561129Y3861157D01*
X6558437Y3857128D01*
X6556097Y3845360D01*
X6558437Y3833592D01*
X6565103Y3823616D01*
X6575080Y3816950D01*
X6586847Y3814609D01*
X6598615Y3816950D01*
X6608592Y3823616D01*
X6615257Y3833592D01*
X6617598Y3845360D01*
X6615257Y3857128D01*
X6612565Y3861157D01*
X6609642Y3870440D01*
X6612565Y3879723D01*
X6615257Y3883752D01*
X6617598Y3895520D01*
X6615257Y3907288D01*
X6608592Y3917264D01*
X6598615Y3923930D01*
X6586847Y3926271D01*
D02*
G37*
G36*
X6174083Y3924732D02*
X6162316Y3922391D01*
X6152339Y3915725D01*
X6145674Y3905749D01*
X6143333Y3893981D01*
X6145674Y3882213D01*
X6152339Y3872237D01*
Y3865565D01*
X6145674Y3855589D01*
X6143333Y3843821D01*
X6145674Y3832054D01*
X6152339Y3822077D01*
X6162316Y3815411D01*
X6174083Y3813071D01*
X6185851Y3815411D01*
X6195828Y3822077D01*
X6202493Y3832054D01*
X6204834Y3843821D01*
X6202493Y3855589D01*
X6195828Y3865565D01*
Y3872237D01*
X6202493Y3882213D01*
X6204834Y3893981D01*
X6202493Y3905749D01*
X6195828Y3915725D01*
X6185851Y3922391D01*
X6174083Y3924732D01*
D02*
G37*
G36*
X736600Y3830591D02*
X724832Y3828250D01*
X714856Y3821584D01*
X708190Y3811608D01*
X705849Y3799840D01*
X708190Y3788072D01*
X714856Y3778096D01*
X724832Y3771430D01*
X736600Y3769089D01*
X748368Y3771430D01*
X758344Y3778096D01*
X765010Y3788072D01*
X767351Y3799840D01*
X765010Y3811608D01*
X758344Y3821584D01*
X748368Y3828250D01*
X736600Y3830591D01*
D02*
G37*
G36*
X2889880Y3822971D02*
X2878112Y3820630D01*
X2868136Y3813964D01*
X2861470Y3803988D01*
X2859129Y3792220D01*
X2861470Y3780452D01*
X2868136Y3770476D01*
X2878112Y3763810D01*
X2889880Y3761469D01*
X2901648Y3763810D01*
X2911624Y3770476D01*
X2918290Y3780452D01*
X2920631Y3792220D01*
X2918290Y3803988D01*
X2911624Y3813964D01*
X2901648Y3820630D01*
X2889880Y3822971D01*
D02*
G37*
G36*
X4892824Y3810366D02*
X4881056Y3808025D01*
X4871080Y3801360D01*
X4864414Y3791383D01*
X4862073Y3779616D01*
X4864414Y3767848D01*
X4871080Y3757871D01*
X4881056Y3751206D01*
X4892824Y3748865D01*
X4904592Y3751206D01*
X4914568Y3757871D01*
X4921234Y3767848D01*
X4923575Y3779616D01*
X4921234Y3791383D01*
X4914568Y3801360D01*
X4904592Y3808025D01*
X4892824Y3810366D01*
D02*
G37*
G36*
X2585080Y3772171D02*
X2573312Y3769830D01*
X2563336Y3763164D01*
X2556670Y3753188D01*
X2554329Y3741420D01*
X2556670Y3729652D01*
X2563336Y3719676D01*
X2573312Y3713010D01*
X2585080Y3710669D01*
X2596848Y3713010D01*
X2606824Y3719676D01*
X2613490Y3729652D01*
X2615831Y3741420D01*
X2613490Y3753188D01*
X2606824Y3763164D01*
X2596848Y3769830D01*
X2585080Y3772171D01*
D02*
G37*
G36*
X6586847Y3778951D02*
X6575080Y3776610D01*
X6565103Y3769944D01*
X6558437Y3759968D01*
X6556097Y3748200D01*
X6558437Y3736432D01*
X6565103Y3726456D01*
Y3719784D01*
X6558437Y3709808D01*
X6556097Y3698040D01*
X6558437Y3686272D01*
X6565103Y3676296D01*
X6575080Y3669630D01*
X6586847Y3667289D01*
X6598615Y3669630D01*
X6608592Y3676296D01*
X6615257Y3686272D01*
X6617598Y3698040D01*
X6615257Y3709808D01*
X6608592Y3719784D01*
Y3726456D01*
X6615257Y3736432D01*
X6617598Y3748200D01*
X6615257Y3759968D01*
X6608592Y3769944D01*
X6598615Y3776610D01*
X6586847Y3778951D01*
D02*
G37*
G36*
X1651334Y3726897D02*
X1639566Y3724556D01*
X1629590Y3717891D01*
X1622924Y3707914D01*
X1620584Y3696147D01*
X1622924Y3684379D01*
X1629590Y3674402D01*
X1639566Y3667737D01*
X1651334Y3665396D01*
X1663102Y3667737D01*
X1673078Y3674402D01*
X1679744Y3684379D01*
X1682085Y3696147D01*
X1679744Y3707914D01*
X1673078Y3717891D01*
X1663102Y3724556D01*
X1651334Y3726897D01*
D02*
G37*
G36*
X6174083Y3764176D02*
X6162316Y3761835D01*
X6152339Y3755169D01*
X6145674Y3745193D01*
X6143333Y3733425D01*
X6145674Y3721657D01*
X6152339Y3711681D01*
Y3705009D01*
X6145674Y3695033D01*
X6143333Y3683265D01*
X6145674Y3671497D01*
X6152339Y3661521D01*
X6162316Y3654855D01*
X6174083Y3652514D01*
X6185851Y3654855D01*
X6195828Y3661521D01*
X6202493Y3671497D01*
X6204834Y3683265D01*
X6202493Y3695033D01*
X6199801Y3699062D01*
X6196878Y3708345D01*
X6199801Y3717628D01*
X6202493Y3721657D01*
X6204834Y3733425D01*
X6202493Y3745193D01*
X6195828Y3755169D01*
X6185851Y3761835D01*
X6174083Y3764176D01*
D02*
G37*
G36*
X4047226Y4134992D02*
X4035458Y4132652D01*
X4025482Y4125986D01*
X4018816Y4116010D01*
X4016475Y4104242D01*
X4018816Y4092474D01*
X4025482Y4082498D01*
Y4076466D01*
X4018816Y4066490D01*
X4016475Y4054722D01*
X4018816Y4042954D01*
X4025482Y4032978D01*
Y4028657D01*
X4018816Y4018681D01*
X4016475Y4006913D01*
X4018816Y3995145D01*
X4022885Y3989056D01*
X4017792Y3976927D01*
X4017259Y3976356D01*
X3609751D01*
X3598087Y3971524D01*
X3229748Y3603186D01*
X3223557Y3604417D01*
X3211790Y3602076D01*
X3201813Y3595410D01*
X3195148Y3585434D01*
X3192807Y3573666D01*
X3195148Y3561898D01*
X3201813Y3551922D01*
X3211790Y3545256D01*
X3223557Y3542915D01*
X3235325Y3545256D01*
X3245302Y3551922D01*
X3251967Y3561898D01*
X3254308Y3573666D01*
X3253077Y3579857D01*
X3616584Y3943364D01*
X4032880D01*
X4044544Y3948196D01*
X4056357Y3960009D01*
X4061189Y3971673D01*
Y3979970D01*
X4068970Y3985169D01*
X4075636Y3995145D01*
X4077977Y4006913D01*
X4075636Y4018681D01*
X4068970Y4028657D01*
Y4032978D01*
X4075636Y4042954D01*
X4077977Y4054722D01*
X4075636Y4066490D01*
X4068970Y4076466D01*
Y4082498D01*
X4075636Y4092474D01*
X4077977Y4104242D01*
X4075636Y4116010D01*
X4068970Y4125986D01*
X4058994Y4132652D01*
X4047226Y4134992D01*
D02*
G37*
G36*
X2911685Y3604417D02*
X2899917Y3602076D01*
X2889941Y3595410D01*
X2882629D01*
X2872653Y3602076D01*
X2860885Y3604417D01*
X2849117Y3602076D01*
X2839141Y3595410D01*
X2832475Y3585434D01*
X2830134Y3573666D01*
X2832475Y3561898D01*
X2839141Y3551922D01*
X2849117Y3545256D01*
X2860885Y3542915D01*
X2872653Y3545256D01*
X2882629Y3551922D01*
X2889941D01*
X2899917Y3545256D01*
X2911685Y3542915D01*
X2923453Y3545256D01*
X2933429Y3551922D01*
X2940095Y3561898D01*
X2942436Y3573666D01*
X2940095Y3585434D01*
X2933429Y3595410D01*
X2923453Y3602076D01*
X2911685Y3604417D01*
D02*
G37*
G36*
X4737728Y3767506D02*
X4725960Y3765165D01*
X4715983Y3758500D01*
X4709318Y3748523D01*
X4706977Y3736756D01*
X4709318Y3724988D01*
X4715983Y3715012D01*
Y3708340D01*
X4709318Y3698363D01*
X4706977Y3686596D01*
X4709318Y3674828D01*
X4715983Y3664851D01*
X4725960Y3658186D01*
X4737728Y3655845D01*
X4749495Y3658186D01*
X4759472Y3664851D01*
X4761580Y3668006D01*
X4762293Y3669073D01*
X4774255Y3664118D01*
X4773945Y3662555D01*
X4772780Y3656699D01*
X4775121Y3644931D01*
X4781787Y3634955D01*
Y3628283D01*
X4775121Y3618307D01*
X4772780Y3606539D01*
X4775121Y3594771D01*
X4781787Y3584795D01*
X4791763Y3578129D01*
X4803531Y3575788D01*
X4815299Y3578129D01*
X4825275Y3584795D01*
X4831941Y3594771D01*
X4834282Y3606539D01*
X4831941Y3618307D01*
X4825275Y3628283D01*
Y3634955D01*
X4831941Y3644931D01*
X4834282Y3656699D01*
X4831941Y3668467D01*
X4825275Y3678443D01*
X4815299Y3685109D01*
X4803531Y3687450D01*
X4791763Y3685109D01*
X4781787Y3678443D01*
X4779679Y3675289D01*
X4778966Y3674222D01*
X4767003Y3679177D01*
X4767314Y3680740D01*
X4768478Y3686596D01*
X4766138Y3698363D01*
X4759472Y3708340D01*
Y3715012D01*
X4766138Y3724988D01*
X4768478Y3736756D01*
X4766138Y3748523D01*
X4759472Y3758500D01*
X4749495Y3765165D01*
X4737728Y3767506D01*
D02*
G37*
G36*
X6586847Y3626551D02*
X6575080Y3624210D01*
X6565103Y3617544D01*
X6558437Y3607568D01*
X6556097Y3595800D01*
X6558437Y3584032D01*
X6565103Y3574056D01*
Y3567384D01*
X6558437Y3557408D01*
X6556097Y3545640D01*
X6558437Y3533872D01*
X6565103Y3523896D01*
X6575080Y3517230D01*
X6586847Y3514889D01*
X6598615Y3517230D01*
X6608592Y3523896D01*
X6615257Y3533872D01*
X6617598Y3545640D01*
X6615257Y3557408D01*
X6608592Y3567384D01*
Y3574056D01*
X6615257Y3584032D01*
X6617598Y3595800D01*
X6615257Y3607568D01*
X6608592Y3617544D01*
X6598615Y3624210D01*
X6586847Y3626551D01*
D02*
G37*
G36*
X6174083Y3598042D02*
X6162316Y3595701D01*
X6152339Y3589035D01*
X6145674Y3579059D01*
X6143333Y3567291D01*
X6145674Y3555523D01*
X6152339Y3545547D01*
Y3538875D01*
X6145674Y3528899D01*
X6143333Y3517131D01*
X6145674Y3505363D01*
X6152339Y3495387D01*
X6162316Y3488721D01*
X6174083Y3486380D01*
X6185851Y3488721D01*
X6195828Y3495387D01*
X6202493Y3505363D01*
X6204834Y3517131D01*
X6202493Y3528899D01*
X6195828Y3538875D01*
Y3545547D01*
X6202493Y3555523D01*
X6204834Y3567291D01*
X6202493Y3579059D01*
X6195828Y3589035D01*
X6185851Y3595701D01*
X6174083Y3598042D01*
D02*
G37*
G36*
X1998340Y3518171D02*
X1986572Y3515830D01*
X1976596Y3509164D01*
X1969930Y3499188D01*
X1967589Y3487420D01*
X1969930Y3475652D01*
X1976596Y3465676D01*
X1986572Y3459010D01*
X1998340Y3456669D01*
X2010108Y3459010D01*
X2020084Y3465676D01*
X2026750Y3475652D01*
X2029091Y3487420D01*
X2026750Y3499188D01*
X2020084Y3509164D01*
X2010108Y3515830D01*
X1998340Y3518171D01*
D02*
G37*
G36*
X7234480Y3493191D02*
X7222712Y3490850D01*
X7212736Y3484184D01*
X7206070Y3474208D01*
X7203729Y3462440D01*
X7206070Y3450672D01*
X7212736Y3440696D01*
X7222712Y3434030D01*
X7234480Y3431689D01*
X7246248Y3434030D01*
X7256224Y3440696D01*
X7262890Y3450672D01*
X7265231Y3462440D01*
X7262890Y3474208D01*
X7256224Y3484184D01*
X7246248Y3490850D01*
X7234480Y3493191D01*
D02*
G37*
G36*
X997580Y3416571D02*
X985812Y3414230D01*
X975836Y3407564D01*
X969170Y3397588D01*
X966829Y3385820D01*
X969170Y3374052D01*
X975836Y3364076D01*
X985812Y3357410D01*
X997580Y3355069D01*
X1009348Y3357410D01*
X1019324Y3364076D01*
X1025990Y3374052D01*
X1028331Y3385820D01*
X1025990Y3397588D01*
X1019324Y3407564D01*
X1009348Y3414230D01*
X997580Y3416571D01*
D02*
G37*
G36*
X5875007Y3394698D02*
X5863239Y3392357D01*
X5853263Y3385691D01*
X5846597Y3375715D01*
X5844257Y3363947D01*
X5844684Y3361797D01*
X5842720Y3350723D01*
X5835465Y3348000D01*
X5830717Y3347055D01*
X5820740Y3340389D01*
X5806145Y3341034D01*
X5796168Y3347700D01*
X5784401Y3350041D01*
X5772633Y3347700D01*
X5762656Y3341034D01*
X5755991Y3331058D01*
X5753650Y3319290D01*
X5755991Y3307522D01*
X5762656Y3297546D01*
X5772633Y3290880D01*
X5784401Y3288540D01*
X5796168Y3290880D01*
X5806145Y3297546D01*
X5820740Y3296901D01*
X5830717Y3290235D01*
X5842484Y3287894D01*
X5854252Y3290235D01*
X5864229Y3296901D01*
X5870894Y3306877D01*
X5873235Y3318645D01*
X5872807Y3320795D01*
X5874772Y3331869D01*
X5882026Y3334592D01*
X5886775Y3335537D01*
X5896751Y3342203D01*
X5903417Y3352179D01*
X5905758Y3363947D01*
X5903417Y3375715D01*
X5896751Y3385691D01*
X5886775Y3392357D01*
X5875007Y3394698D01*
D02*
G37*
G36*
X4835337Y3358471D02*
X4823569Y3356130D01*
X4813593Y3349464D01*
X4806927Y3339488D01*
X4804586Y3327720D01*
X4806927Y3315952D01*
X4813593Y3305976D01*
X4823569Y3299310D01*
X4835337Y3296969D01*
X4847105Y3299310D01*
X4857081Y3305976D01*
X4863747Y3315952D01*
X4866088Y3327720D01*
X4863747Y3339488D01*
X4857081Y3349464D01*
X4847105Y3356130D01*
X4835337Y3358471D01*
D02*
G37*
G36*
X2138942Y3355560D02*
X2127175Y3353219D01*
X2117198Y3346553D01*
X2110532Y3336577D01*
X2108192Y3324809D01*
X2110532Y3313041D01*
X2117198Y3303065D01*
X2127175Y3296399D01*
X2138942Y3294058D01*
X2150710Y3296399D01*
X2160687Y3303065D01*
X2167352Y3313041D01*
X2169693Y3324809D01*
X2167352Y3336577D01*
X2160687Y3346553D01*
X2150710Y3353219D01*
X2138942Y3355560D01*
D02*
G37*
G36*
X7352660Y3299731D02*
X7340892Y3297390D01*
X7330916Y3290724D01*
X7324250Y3280748D01*
X7321909Y3268980D01*
X7324250Y3257212D01*
X7330916Y3247236D01*
X7340892Y3240570D01*
X7352660Y3238229D01*
X7364428Y3240570D01*
X7374404Y3247236D01*
X7381070Y3257212D01*
X7383411Y3268980D01*
X7381070Y3280748D01*
X7374404Y3290724D01*
X7364428Y3297390D01*
X7352660Y3299731D01*
D02*
G37*
G36*
X1706240Y3279411D02*
X1694472Y3277070D01*
X1684496Y3270404D01*
X1677830Y3260428D01*
X1675489Y3248660D01*
X1677830Y3236892D01*
X1684496Y3226916D01*
X1694472Y3220250D01*
X1706240Y3217909D01*
X1718008Y3220250D01*
X1727984Y3226916D01*
X1734650Y3236892D01*
X1736991Y3248660D01*
X1734650Y3260428D01*
X1727984Y3270404D01*
X1718008Y3277070D01*
X1706240Y3279411D01*
D02*
G37*
G36*
X1604640D02*
X1592872Y3277070D01*
X1582896Y3270404D01*
X1576230Y3260428D01*
X1573889Y3248660D01*
X1576230Y3236892D01*
X1582896Y3226916D01*
X1592872Y3220250D01*
X1604640Y3217909D01*
X1616408Y3220250D01*
X1626384Y3226916D01*
X1633050Y3236892D01*
X1635391Y3248660D01*
X1633050Y3260428D01*
X1626384Y3270404D01*
X1616408Y3277070D01*
X1604640Y3279411D01*
D02*
G37*
G36*
X2992107Y3254998D02*
X2980339Y3252657D01*
X2970363Y3245991D01*
X2963697Y3236015D01*
X2961357Y3224247D01*
X2963697Y3212479D01*
X2970363Y3202503D01*
X2980339Y3195837D01*
X2992107Y3193496D01*
X3003875Y3195837D01*
X3013851Y3202503D01*
X3020517Y3212479D01*
X3022858Y3224247D01*
X3020517Y3236015D01*
X3013851Y3245991D01*
X3003875Y3252657D01*
X2992107Y3254998D01*
D02*
G37*
G36*
X1256660Y3228611D02*
X1244892Y3226270D01*
X1234916Y3219604D01*
X1228250Y3209628D01*
X1225909Y3197860D01*
X1228250Y3186092D01*
X1234916Y3176116D01*
X1244892Y3169450D01*
X1256660Y3167109D01*
X1268428Y3169450D01*
X1278404Y3176116D01*
X1285070Y3186092D01*
X1287411Y3197860D01*
X1285070Y3209628D01*
X1278404Y3219604D01*
X1268428Y3226270D01*
X1256660Y3228611D01*
D02*
G37*
G36*
X2044060Y3223531D02*
X2032292Y3221190D01*
X2022316Y3214524D01*
X2015650Y3204548D01*
X2013309Y3192780D01*
X2015650Y3181012D01*
X2022316Y3171036D01*
X2032292Y3164370D01*
X2044060Y3162029D01*
X2055828Y3164370D01*
X2065804Y3171036D01*
X2072470Y3181012D01*
X2074811Y3192780D01*
X2072470Y3204548D01*
X2065804Y3214524D01*
X2055828Y3221190D01*
X2044060Y3223531D01*
D02*
G37*
G36*
X5344984Y3194412D02*
X5333216Y3192071D01*
X5323240Y3185406D01*
X5316574Y3175429D01*
X5314233Y3163661D01*
X5316574Y3151894D01*
X5323240Y3141917D01*
X5333216Y3135252D01*
X5344984Y3132911D01*
X5356752Y3135252D01*
X5366728Y3141917D01*
X5373394Y3151894D01*
X5375734Y3163661D01*
X5373394Y3175429D01*
X5366728Y3185406D01*
X5356752Y3192071D01*
X5344984Y3194412D01*
D02*
G37*
G36*
X7414880Y3163262D02*
X7403112Y3160921D01*
X7393135Y3154255D01*
X7386470Y3144279D01*
X7384129Y3132511D01*
X7386470Y3120743D01*
X7393135Y3110767D01*
X7403112Y3104101D01*
X7414880Y3101760D01*
X7426647Y3104101D01*
X7436624Y3110767D01*
X7443289Y3120743D01*
X7445630Y3132511D01*
X7443289Y3144279D01*
X7436624Y3154255D01*
X7426647Y3160921D01*
X7414880Y3163262D01*
D02*
G37*
G36*
X6842120Y3154951D02*
X6830352Y3152610D01*
X6820376Y3145944D01*
X6813710Y3135968D01*
X6811369Y3124200D01*
X6813710Y3112432D01*
X6820376Y3102456D01*
X6830352Y3095790D01*
X6842120Y3093449D01*
X6853888Y3095790D01*
X6863864Y3102456D01*
X6870530Y3112432D01*
X6872871Y3124200D01*
X6870530Y3135968D01*
X6863864Y3145944D01*
X6853888Y3152610D01*
X6842120Y3154951D01*
D02*
G37*
G36*
X3079268Y3178842D02*
X3067500Y3176501D01*
X3057524Y3169836D01*
X3050858Y3159859D01*
X3048517Y3148091D01*
X3049669Y3142300D01*
X3050829Y3136301D01*
X3040767Y3128566D01*
X3040129Y3128439D01*
X3030152Y3121774D01*
X3023487Y3111797D01*
X3021146Y3100029D01*
X3023487Y3088262D01*
X3030152Y3078285D01*
X3040129Y3071619D01*
X3051897Y3069279D01*
X3063664Y3071619D01*
X3073641Y3078285D01*
X3080307Y3088262D01*
X3082647Y3100029D01*
X3081495Y3105821D01*
X3080336Y3111820D01*
X3090397Y3119555D01*
X3091036Y3119682D01*
X3101012Y3126347D01*
X3107678Y3136324D01*
X3110019Y3148091D01*
X3107678Y3159859D01*
X3101012Y3169836D01*
X3091036Y3176501D01*
X3079268Y3178842D01*
D02*
G37*
G36*
X1200780Y3124471D02*
X1189012Y3122130D01*
X1179036Y3115464D01*
X1172370Y3105488D01*
X1170029Y3093720D01*
X1172370Y3081952D01*
X1179036Y3071976D01*
X1189012Y3065310D01*
X1200780Y3062969D01*
X1212548Y3065310D01*
X1222524Y3071976D01*
X1229190Y3081952D01*
X1231531Y3093720D01*
X1229190Y3105488D01*
X1222524Y3115464D01*
X1212548Y3122130D01*
X1200780Y3124471D01*
D02*
G37*
G36*
X2044060Y3123773D02*
X2032292Y3121432D01*
X2022316Y3114766D01*
X2015650Y3104790D01*
X2013309Y3093022D01*
X2015650Y3081254D01*
X2022316Y3071278D01*
X2032292Y3064612D01*
X2044060Y3062271D01*
X2055828Y3064612D01*
X2065804Y3071278D01*
X2072470Y3081254D01*
X2074811Y3093022D01*
X2072470Y3104790D01*
X2065804Y3114766D01*
X2055828Y3121432D01*
X2044060Y3123773D01*
D02*
G37*
G36*
X7084431Y3103266D02*
X7072663Y3100925D01*
X7062686Y3094259D01*
X7056021Y3084283D01*
X7053680Y3072515D01*
X7056021Y3060747D01*
X7062686Y3050771D01*
X7072663Y3044105D01*
X7084431Y3041764D01*
X7096198Y3044105D01*
X7106175Y3050771D01*
X7112840Y3060747D01*
X7115181Y3072515D01*
X7112840Y3084283D01*
X7106175Y3094259D01*
X7096198Y3100925D01*
X7084431Y3103266D01*
D02*
G37*
G36*
X6560180Y3096531D02*
X6548412Y3094190D01*
X6538436Y3087524D01*
X6531770Y3077548D01*
X6529429Y3065780D01*
X6531770Y3054012D01*
X6538436Y3044036D01*
X6548412Y3037370D01*
X6560180Y3035029D01*
X6571948Y3037370D01*
X6581924Y3044036D01*
X6588590Y3054012D01*
X6590931Y3065780D01*
X6588590Y3077548D01*
X6581924Y3087524D01*
X6571948Y3094190D01*
X6560180Y3096531D01*
D02*
G37*
G36*
X6654160Y3078751D02*
X6642392Y3076410D01*
X6632416Y3069744D01*
X6625750Y3059768D01*
X6623409Y3048000D01*
X6625750Y3036232D01*
X6632416Y3026256D01*
X6642392Y3019590D01*
X6654160Y3017249D01*
X6665928Y3019590D01*
X6675904Y3026256D01*
X6682570Y3036232D01*
X6684911Y3048000D01*
X6682570Y3059768D01*
X6675904Y3069744D01*
X6665928Y3076410D01*
X6654160Y3078751D01*
D02*
G37*
G36*
X997580Y3025411D02*
X985812Y3023070D01*
X975836Y3016404D01*
X969170Y3006428D01*
X966829Y2994660D01*
X969170Y2982892D01*
X975836Y2972916D01*
X985812Y2966250D01*
X997580Y2963909D01*
X1009348Y2966250D01*
X1019324Y2972916D01*
X1025990Y2982892D01*
X1028331Y2994660D01*
X1025990Y3006428D01*
X1019324Y3016404D01*
X1009348Y3023070D01*
X997580Y3025411D01*
D02*
G37*
G36*
X1868800Y3022173D02*
X1857032Y3019832D01*
X1847056Y3013166D01*
X1840390Y3003190D01*
X1838049Y2991422D01*
X1840390Y2979654D01*
X1847056Y2969678D01*
X1857032Y2963012D01*
X1868800Y2960671D01*
X1880568Y2963012D01*
X1890544Y2969678D01*
X1897210Y2979654D01*
X1899551Y2991422D01*
X1897210Y3003190D01*
X1890544Y3013166D01*
X1880568Y3019832D01*
X1868800Y3022173D01*
D02*
G37*
G36*
X6560807Y3011158D02*
X6549039Y3008817D01*
X6539063Y3002151D01*
X6532397Y2992175D01*
X6530057Y2980407D01*
X6532397Y2968639D01*
X6539063Y2958663D01*
X6549039Y2951997D01*
X6560807Y2949656D01*
X6572575Y2951997D01*
X6582551Y2958663D01*
X6589217Y2968639D01*
X6591558Y2980407D01*
X6589217Y2992175D01*
X6582551Y3002151D01*
X6572575Y3008817D01*
X6560807Y3011158D01*
D02*
G37*
G36*
X6008030Y3189981D02*
Y2889822D01*
X6308190D01*
X6305159Y2928332D01*
X6293762Y2975803D01*
X6275080Y3020907D01*
X6249571Y3062533D01*
X6217865Y3099656D01*
X6180742Y3131363D01*
X6139116Y3156871D01*
X6094012Y3175554D01*
X6046540Y3186951D01*
X6008030Y3189981D01*
D02*
G37*
G36*
X5987710D02*
X5949201Y3186951D01*
X5901730Y3175554D01*
X5856626Y3156871D01*
X5815000Y3131363D01*
X5777876Y3099656D01*
X5746170Y3062533D01*
X5720662Y3020907D01*
X5701979Y2975803D01*
X5690582Y2928332D01*
X5687551Y2889822D01*
X5987710D01*
Y3189981D01*
D02*
G37*
G36*
X2648071D02*
Y2889822D01*
X2948230D01*
X2945199Y2928332D01*
X2933802Y2975803D01*
X2915120Y3020907D01*
X2889611Y3062533D01*
X2857905Y3099656D01*
X2820782Y3131363D01*
X2779156Y3156871D01*
X2734052Y3175554D01*
X2686580Y3186951D01*
X2648071Y3189981D01*
D02*
G37*
G36*
X2627751D02*
X2589241Y3186951D01*
X2541770Y3175554D01*
X2496666Y3156871D01*
X2455040Y3131363D01*
X2417916Y3099656D01*
X2386210Y3062533D01*
X2360702Y3020907D01*
X2342019Y2975803D01*
X2330622Y2928332D01*
X2327591Y2889822D01*
X2627751D01*
Y3189981D01*
D02*
G37*
G36*
X2637911Y2879662D02*
D01*
D01*
D01*
D02*
G37*
G36*
X1020440Y2923811D02*
X1008672Y2921470D01*
X998696Y2914804D01*
X992030Y2904828D01*
X989689Y2893060D01*
X992030Y2881292D01*
X998696Y2871316D01*
X1008672Y2864650D01*
X1020440Y2862309D01*
X1032208Y2864650D01*
X1042184Y2871316D01*
X1048850Y2881292D01*
X1051191Y2893060D01*
X1048850Y2904828D01*
X1042184Y2914804D01*
X1032208Y2921470D01*
X1020440Y2923811D01*
D02*
G37*
G36*
X1264280Y2908571D02*
X1252512Y2906230D01*
X1242536Y2899564D01*
X1235870Y2889588D01*
X1233529Y2877820D01*
X1235870Y2866052D01*
X1242536Y2856076D01*
X1252512Y2849410D01*
X1264280Y2847069D01*
X1276048Y2849410D01*
X1286024Y2856076D01*
X1292690Y2866052D01*
X1295031Y2877820D01*
X1292690Y2889588D01*
X1286024Y2899564D01*
X1276048Y2906230D01*
X1264280Y2908571D01*
D02*
G37*
G36*
X4810687Y2905381D02*
X4798919Y2903040D01*
X4788943Y2896374D01*
X4782277Y2886398D01*
X4779936Y2874630D01*
X4782277Y2862862D01*
X4788943Y2852886D01*
X4798919Y2846220D01*
X4810687Y2843879D01*
X4822455Y2846220D01*
X4832431Y2852886D01*
X4839097Y2862862D01*
X4841438Y2874630D01*
X4839097Y2886398D01*
X4832431Y2896374D01*
X4822455Y2903040D01*
X4810687Y2905381D01*
D02*
G37*
G36*
X1868800Y2872313D02*
X1857032Y2869972D01*
X1847056Y2863306D01*
X1840390Y2853330D01*
X1838049Y2841562D01*
X1840390Y2829794D01*
X1847056Y2819818D01*
X1857032Y2813152D01*
X1868800Y2810811D01*
X1880568Y2813152D01*
X1890544Y2819818D01*
X1897210Y2829794D01*
X1899551Y2841562D01*
X1897210Y2853330D01*
X1890544Y2863306D01*
X1880568Y2869972D01*
X1868800Y2872313D01*
D02*
G37*
G36*
X6789407Y2861298D02*
X6777639Y2858957D01*
X6767663Y2852291D01*
X6760997Y2842315D01*
X6758657Y2830547D01*
X6760997Y2818779D01*
X6767663Y2808803D01*
X6777639Y2802137D01*
X6789407Y2799796D01*
X6801175Y2802137D01*
X6811151Y2808803D01*
X6817817Y2818779D01*
X6820158Y2830547D01*
X6817817Y2842315D01*
X6811151Y2852291D01*
X6801175Y2858957D01*
X6789407Y2861298D01*
D02*
G37*
G36*
X1200780Y2821513D02*
X1189012Y2819172D01*
X1179036Y2812506D01*
X1172370Y2802530D01*
X1170029Y2790762D01*
X1172370Y2778994D01*
X1179036Y2769018D01*
X1189012Y2762352D01*
X1200780Y2760011D01*
X1212548Y2762352D01*
X1222524Y2769018D01*
X1229190Y2778994D01*
X1231531Y2790762D01*
X1229190Y2802530D01*
X1222524Y2812506D01*
X1212548Y2819172D01*
X1200780Y2821513D01*
D02*
G37*
G36*
X4921842Y2891606D02*
X4910074Y2889265D01*
X4900098Y2882600D01*
X4893432Y2872623D01*
X4891091Y2860855D01*
X4893432Y2849088D01*
X4900098Y2839111D01*
X4910074Y2832445D01*
X4921842Y2830105D01*
X4933610Y2832445D01*
X4937636Y2835136D01*
X4951607Y2829997D01*
X4951852Y2828768D01*
X4958518Y2818791D01*
X4968494Y2812125D01*
X4980262Y2809785D01*
X4992030Y2812125D01*
X5002006Y2818791D01*
X5004856Y2823056D01*
X5018338Y2820374D01*
X5018483Y2819642D01*
X5025149Y2809666D01*
X5029442Y2806798D01*
X5035710Y2795608D01*
X5033369Y2783840D01*
X5035710Y2772072D01*
X5042376Y2762096D01*
X5052352Y2755430D01*
X5064120Y2753089D01*
X5075888Y2755430D01*
X5085864Y2762096D01*
X5092530Y2772072D01*
X5094871Y2783840D01*
X5092530Y2795608D01*
X5085864Y2805584D01*
X5081572Y2808452D01*
X5075303Y2819643D01*
X5077644Y2831410D01*
X5075303Y2843178D01*
X5068638Y2853154D01*
X5058661Y2859820D01*
X5046893Y2862161D01*
X5035126Y2859820D01*
X5025149Y2853154D01*
X5022300Y2848890D01*
X5008817Y2851571D01*
X5008672Y2852303D01*
X5002006Y2862280D01*
X4992030Y2868945D01*
X4980262Y2871286D01*
X4968494Y2868945D01*
X4964467Y2866255D01*
X4950496Y2871394D01*
X4950252Y2872623D01*
X4943586Y2882600D01*
X4933610Y2889265D01*
X4921842Y2891606D01*
D02*
G37*
G36*
X5514327Y3131731D02*
X5502559Y3129390D01*
X5492583Y3122724D01*
X5485917Y3112748D01*
X5483577Y3100980D01*
X5485917Y3089212D01*
X5492583Y3079236D01*
X5493485Y3078633D01*
Y3072572D01*
X5486819Y3062596D01*
X5484478Y3050828D01*
X5486819Y3039060D01*
X5493485Y3029084D01*
X5492305Y3016586D01*
X5488457Y3010828D01*
X5486117Y2999060D01*
X5488457Y2987292D01*
X5495123Y2977316D01*
Y2970004D01*
X5488457Y2960028D01*
X5486117Y2948260D01*
X5488457Y2936492D01*
X5495123Y2926516D01*
X5494362Y2911750D01*
X5490997Y2906715D01*
X5488657Y2894947D01*
X5490997Y2883179D01*
X5494401Y2878085D01*
X5496640Y2869097D01*
X5494401Y2860108D01*
X5490997Y2855015D01*
X5488657Y2843247D01*
X5490997Y2831479D01*
X5497663Y2821503D01*
Y2812524D01*
X5490997Y2802548D01*
X5488657Y2790780D01*
X5490997Y2779012D01*
X5497663Y2769036D01*
Y2761724D01*
X5490997Y2751748D01*
X5488657Y2739980D01*
X5490997Y2728212D01*
X5497663Y2718236D01*
X5507639Y2711570D01*
X5519407Y2709229D01*
X5531175Y2711570D01*
X5541151Y2718236D01*
X5547817Y2728212D01*
X5550158Y2739980D01*
X5547817Y2751748D01*
X5541151Y2761724D01*
Y2769036D01*
X5547817Y2779012D01*
X5550158Y2790780D01*
X5547817Y2802548D01*
X5541151Y2812524D01*
Y2821503D01*
X5547817Y2831479D01*
X5550158Y2843247D01*
X5547817Y2855015D01*
X5544414Y2860108D01*
X5542175Y2869097D01*
X5544414Y2878085D01*
X5547817Y2883179D01*
X5550158Y2894947D01*
X5547817Y2906715D01*
X5541151Y2916691D01*
X5541913Y2931456D01*
X5545277Y2936492D01*
X5547618Y2948260D01*
X5545277Y2960028D01*
X5538611Y2970004D01*
Y2977316D01*
X5545277Y2987292D01*
X5547618Y2999060D01*
X5545277Y3010828D01*
X5538611Y3020804D01*
X5539791Y3033301D01*
X5543639Y3039060D01*
X5545980Y3050828D01*
X5543639Y3062596D01*
X5536973Y3072572D01*
X5536071Y3073174D01*
Y3079236D01*
X5542737Y3089212D01*
X5545078Y3100980D01*
X5542737Y3112748D01*
X5536071Y3122724D01*
X5526095Y3129390D01*
X5514327Y3131731D01*
D02*
G37*
G36*
X1868800Y2773253D02*
X1857032Y2770912D01*
X1847056Y2764246D01*
X1840390Y2754270D01*
X1838049Y2742502D01*
X1840390Y2730734D01*
X1847056Y2720758D01*
Y2711604D01*
X1840390Y2701628D01*
X1838049Y2689860D01*
X1840390Y2678092D01*
X1847056Y2668116D01*
X1857032Y2661450D01*
X1868800Y2659109D01*
X1880568Y2661450D01*
X1890544Y2668116D01*
X1897210Y2678092D01*
X1899551Y2689860D01*
X1897210Y2701628D01*
X1890544Y2711604D01*
Y2720758D01*
X1897210Y2730734D01*
X1899551Y2742502D01*
X1897210Y2754270D01*
X1890544Y2764246D01*
X1880568Y2770912D01*
X1868800Y2773253D01*
D02*
G37*
G36*
X5987710Y2869502D02*
X5687551D01*
X5690582Y2830992D01*
X5701979Y2783521D01*
X5720662Y2738417D01*
X5746170Y2696791D01*
X5777876Y2659668D01*
X5815000Y2627961D01*
X5856626Y2602453D01*
X5901730Y2583770D01*
X5949201Y2572373D01*
X5987710Y2569343D01*
Y2869502D01*
D02*
G37*
G36*
X2948230Y2869502D02*
X2648071D01*
Y2569343D01*
X2686580Y2572373D01*
X2734052Y2583770D01*
X2779156Y2602453D01*
X2820782Y2627961D01*
X2857905Y2659668D01*
X2889611Y2696791D01*
X2915120Y2738417D01*
X2933802Y2783521D01*
X2945199Y2830992D01*
X2948230Y2869502D01*
D02*
G37*
G36*
X2627751D02*
X2327591D01*
X2330622Y2830992D01*
X2342019Y2783521D01*
X2360702Y2738417D01*
X2386210Y2696791D01*
X2417916Y2659668D01*
X2455040Y2627961D01*
X2496666Y2602453D01*
X2541770Y2583770D01*
X2589241Y2572373D01*
X2627751Y2569343D01*
Y2869502D01*
D02*
G37*
G36*
X6308190Y2869502D02*
X6008030D01*
Y2569343D01*
X6046540Y2572373D01*
X6094012Y2583770D01*
X6139116Y2602453D01*
X6180742Y2627961D01*
X6217865Y2659668D01*
X6249571Y2696791D01*
X6275080Y2738417D01*
X6293762Y2783521D01*
X6305159Y2830992D01*
X6308190Y2869502D01*
D02*
G37*
G36*
X4677911Y2624522D02*
X4666143Y2622181D01*
X4656166Y2615515D01*
X4649501Y2605539D01*
X4647160Y2593771D01*
X4649501Y2582003D01*
X4656166Y2572027D01*
X4666143Y2565361D01*
X4677911Y2563021D01*
X4689678Y2565361D01*
X4699655Y2572027D01*
X4706321Y2582003D01*
X4708661Y2593771D01*
X4706321Y2605539D01*
X4699655Y2615515D01*
X4689678Y2622181D01*
X4677911Y2624522D01*
D02*
G37*
G36*
X1556380Y2613931D02*
X1544612Y2611590D01*
X1534636Y2604924D01*
X1527970Y2594948D01*
X1525629Y2583180D01*
X1527970Y2571412D01*
X1534636Y2561436D01*
X1544612Y2554770D01*
X1556380Y2552429D01*
X1568148Y2554770D01*
X1578124Y2561436D01*
X1584790Y2571412D01*
X1587131Y2583180D01*
X1584790Y2594948D01*
X1578124Y2604924D01*
X1568148Y2611590D01*
X1556380Y2613931D01*
D02*
G37*
G36*
X5627962Y2732534D02*
X5616194Y2730193D01*
X5606218Y2723527D01*
X5599552Y2713551D01*
X5597211Y2701783D01*
X5599552Y2690015D01*
X5606218Y2680039D01*
X5616194Y2673373D01*
X5627962Y2671032D01*
X5639730Y2673373D01*
X5649706Y2680039D01*
X5649786Y2680159D01*
X5663269Y2677478D01*
X5664330Y2672141D01*
X5670996Y2662165D01*
X5680972Y2655499D01*
X5682439Y2655207D01*
X5691444Y2645991D01*
X5690652Y2641610D01*
X5689169Y2634156D01*
X5691510Y2622388D01*
X5695562Y2616324D01*
X5697888Y2610214D01*
X5696336Y2598367D01*
X5693532Y2594171D01*
X5691191Y2582403D01*
X5691873Y2578974D01*
X5693421Y2570580D01*
X5682654Y2565176D01*
X5682234Y2565093D01*
X5672258Y2558427D01*
X5665790Y2548748D01*
X5665421Y2548396D01*
X5651760Y2544011D01*
X5647102Y2547123D01*
X5635334Y2549464D01*
X5623566Y2547123D01*
X5613590Y2540457D01*
X5606924Y2530481D01*
X5604583Y2518713D01*
X5606924Y2506945D01*
X5613590Y2496969D01*
X5623566Y2490303D01*
X5635334Y2487962D01*
X5647102Y2490303D01*
X5657078Y2496969D01*
X5663546Y2506648D01*
X5663915Y2507000D01*
X5677576Y2511385D01*
X5682234Y2508273D01*
X5694002Y2505932D01*
X5705770Y2508273D01*
X5715746Y2514939D01*
X5722412Y2524915D01*
X5724753Y2536683D01*
X5724070Y2540112D01*
X5722522Y2548506D01*
X5733289Y2553910D01*
X5733710Y2553993D01*
X5743686Y2560659D01*
X5750352Y2570635D01*
X5752693Y2582403D01*
X5750352Y2594171D01*
X5746300Y2600235D01*
X5743974Y2606345D01*
X5745526Y2618192D01*
X5748330Y2622388D01*
X5750671Y2634156D01*
X5748330Y2645924D01*
X5741664Y2655900D01*
X5731688Y2662566D01*
X5730221Y2662858D01*
X5721216Y2672074D01*
X5722008Y2676454D01*
X5723491Y2683909D01*
X5721150Y2695677D01*
X5714484Y2705653D01*
X5704508Y2712319D01*
X5692740Y2714660D01*
X5680972Y2712319D01*
X5670996Y2705653D01*
X5670916Y2705533D01*
X5657433Y2708214D01*
X5656372Y2713551D01*
X5649706Y2723527D01*
X5639730Y2730193D01*
X5627962Y2732534D01*
D02*
G37*
G36*
X4605136Y2553538D02*
X4593368Y2551197D01*
X4583392Y2544531D01*
X4576726Y2534555D01*
X4574385Y2522787D01*
X4576726Y2511019D01*
X4583392Y2501043D01*
X4593368Y2494377D01*
X4604639Y2492135D01*
X4605654Y2490476D01*
X4609173Y2479890D01*
X4602623Y2475514D01*
X4596691Y2466636D01*
X4590628Y2467051D01*
X4584096Y2468906D01*
X4582297Y2477951D01*
X4575631Y2487927D01*
X4565655Y2494593D01*
X4553887Y2496934D01*
X4542119Y2494593D01*
X4532143Y2487927D01*
X4525477Y2477951D01*
X4523136Y2466183D01*
X4525477Y2454415D01*
X4532143Y2444439D01*
X4542119Y2437773D01*
X4553887Y2435433D01*
X4565655Y2437773D01*
X4575631Y2444439D01*
X4581563Y2453317D01*
X4587627Y2452902D01*
X4594158Y2451047D01*
X4595957Y2442002D01*
X4602623Y2432026D01*
X4612599Y2425360D01*
X4624367Y2423019D01*
X4636135Y2425360D01*
X4646111Y2432026D01*
X4652777Y2442002D01*
X4655118Y2453770D01*
X4661902Y2463912D01*
X4664943Y2464517D01*
X4673669Y2466253D01*
X4683646Y2472919D01*
X4690311Y2482895D01*
X4692652Y2494663D01*
X4690311Y2506431D01*
X4683646Y2516407D01*
X4673669Y2523073D01*
X4661902Y2525414D01*
X4650134Y2523073D01*
X4648067Y2521692D01*
X4646702Y2521815D01*
X4634826Y2528119D01*
X4633546Y2534555D01*
X4626880Y2544531D01*
X4616904Y2551197D01*
X4605136Y2553538D01*
D02*
G37*
G36*
X7367500Y2539094D02*
X7315160D01*
Y2463160D01*
X7416094D01*
Y2490500D01*
X7412395Y2509096D01*
X7401861Y2524861D01*
X7386096Y2535395D01*
X7367500Y2539094D01*
D02*
G37*
G36*
X7294840D02*
X7242500D01*
X7223904Y2535395D01*
X7208139Y2524861D01*
X7197605Y2509096D01*
X7193906Y2490500D01*
Y2463160D01*
X7294840D01*
Y2539094D01*
D02*
G37*
G36*
X2770500Y2532651D02*
X2758732Y2530310D01*
X2748756Y2523644D01*
X2742090Y2513668D01*
X2739749Y2501900D01*
X2742090Y2490132D01*
X2748756Y2480156D01*
X2758732Y2473490D01*
X2770500Y2471149D01*
X2782268Y2473490D01*
X2792244Y2480156D01*
X2794129Y2482976D01*
X2806092Y2478021D01*
X2805789Y2476500D01*
X2808130Y2464732D01*
X2814796Y2454756D01*
X2824772Y2448090D01*
X2836540Y2445749D01*
X2848308Y2448090D01*
X2858284Y2454756D01*
X2864950Y2464732D01*
X2867291Y2476500D01*
X2864950Y2488268D01*
X2858284Y2498244D01*
X2848308Y2504910D01*
X2836540Y2507251D01*
X2824772Y2504910D01*
X2814796Y2498244D01*
X2812911Y2495424D01*
X2800948Y2500379D01*
X2801251Y2501900D01*
X2798910Y2513668D01*
X2792244Y2523644D01*
X2782268Y2530310D01*
X2770500Y2532651D01*
D02*
G37*
G36*
X6400787Y2497436D02*
X6389019Y2495095D01*
X6379043Y2488430D01*
X6372377Y2478453D01*
X6370037Y2466685D01*
X6372377Y2454918D01*
X6379043Y2444941D01*
X6389019Y2438276D01*
X6400787Y2435935D01*
X6412555Y2438276D01*
X6422531Y2444941D01*
X6429197Y2454918D01*
X6431538Y2466685D01*
X6429197Y2478453D01*
X6422531Y2488430D01*
X6412555Y2495095D01*
X6400787Y2497436D01*
D02*
G37*
G36*
X1216020Y2486931D02*
X1204252Y2484590D01*
X1194276Y2477924D01*
X1187610Y2467948D01*
X1185269Y2456180D01*
X1187610Y2444412D01*
X1194276Y2434436D01*
X1204252Y2427770D01*
X1216020Y2425429D01*
X1227788Y2427770D01*
X1237764Y2434436D01*
X1244430Y2444412D01*
X1246771Y2456180D01*
X1244430Y2467948D01*
X1237764Y2477924D01*
X1227788Y2484590D01*
X1216020Y2486931D01*
D02*
G37*
G36*
X4180482Y2463992D02*
X4168714Y2461651D01*
X4158738Y2454985D01*
X4152072Y2445009D01*
X4149731Y2433241D01*
X4152072Y2421473D01*
X4158738Y2411497D01*
X4168714Y2404831D01*
X4180482Y2402490D01*
X4192250Y2404831D01*
X4202226Y2411497D01*
X4208892Y2421473D01*
X4211233Y2433241D01*
X4208892Y2445009D01*
X4202226Y2454985D01*
X4192250Y2461651D01*
X4180482Y2463992D01*
D02*
G37*
G36*
X5239234Y2445572D02*
X5227466Y2443232D01*
X5217490Y2436566D01*
X5210824Y2426590D01*
X5208483Y2414822D01*
X5210824Y2403054D01*
X5217490Y2393078D01*
X5227466Y2386412D01*
X5239234Y2384071D01*
X5251002Y2386412D01*
X5260978Y2393078D01*
X5267644Y2403054D01*
X5269985Y2414822D01*
X5267644Y2426590D01*
X5260978Y2436566D01*
X5251002Y2443232D01*
X5239234Y2445572D01*
D02*
G37*
G36*
X6712580Y2428511D02*
X6700812Y2426170D01*
X6690836Y2419504D01*
X6684170Y2409528D01*
X6681829Y2397760D01*
X6684170Y2385992D01*
X6690836Y2376016D01*
X6700812Y2369350D01*
X6712580Y2367009D01*
X6724348Y2369350D01*
X6734324Y2376016D01*
X6740990Y2385992D01*
X6743331Y2397760D01*
X6740990Y2409528D01*
X6734324Y2419504D01*
X6724348Y2426170D01*
X6712580Y2428511D01*
D02*
G37*
G36*
X7416094Y2442840D02*
X7315160D01*
Y2366907D01*
X7367500D01*
X7386096Y2370606D01*
X7401861Y2381140D01*
X7412395Y2396904D01*
X7416094Y2415500D01*
Y2442840D01*
D02*
G37*
G36*
X7294840D02*
X7193906D01*
Y2415500D01*
X7197605Y2396904D01*
X7208139Y2381140D01*
X7223904Y2370606D01*
X7242500Y2366907D01*
X7294840D01*
Y2442840D01*
D02*
G37*
G36*
X4075645Y2420653D02*
X4063877Y2418312D01*
X4053901Y2411646D01*
X4047235Y2401670D01*
X4044894Y2389902D01*
X4047235Y2378134D01*
X4053901Y2368158D01*
X4063877Y2361492D01*
X4075645Y2359151D01*
X4087413Y2361492D01*
X4097389Y2368158D01*
X4104055Y2378134D01*
X4106396Y2389902D01*
X4104055Y2401670D01*
X4097389Y2411646D01*
X4087413Y2418312D01*
X4075645Y2420653D01*
D02*
G37*
G36*
X4394657Y2392494D02*
X4382889Y2390153D01*
X4372913Y2383487D01*
X4366247Y2373511D01*
X4363906Y2361743D01*
X4366247Y2349975D01*
X4372913Y2339999D01*
X4382889Y2333333D01*
X4394657Y2330992D01*
X4406425Y2333333D01*
X4416401Y2339999D01*
X4423067Y2349975D01*
X4425408Y2361743D01*
X4423067Y2373511D01*
X4416401Y2383487D01*
X4406425Y2390153D01*
X4394657Y2392494D01*
D02*
G37*
G36*
X6809100Y2372631D02*
X6797332Y2370290D01*
X6787356Y2363624D01*
X6780690Y2353648D01*
X6778349Y2341880D01*
X6780690Y2330112D01*
X6787356Y2320136D01*
X6797332Y2313470D01*
X6809100Y2311129D01*
X6820868Y2313470D01*
X6830844Y2320136D01*
X6837510Y2330112D01*
X6839851Y2341880D01*
X6837510Y2353648D01*
X6830844Y2363624D01*
X6820868Y2370290D01*
X6809100Y2372631D01*
D02*
G37*
G36*
X5239492Y2333493D02*
X5227724Y2331152D01*
X5217748Y2324486D01*
X5211082Y2314510D01*
X5208741Y2302742D01*
X5211082Y2290974D01*
X5217748Y2280998D01*
X5227724Y2274332D01*
X5239492Y2271991D01*
X5251260Y2274332D01*
X5261236Y2280998D01*
X5267902Y2290974D01*
X5270243Y2302742D01*
X5267902Y2314510D01*
X5261236Y2324486D01*
X5251260Y2331152D01*
X5239492Y2333493D01*
D02*
G37*
G36*
X6518291Y2288505D02*
X6506523Y2286164D01*
X6496547Y2279499D01*
X6489881Y2269522D01*
X6487540Y2257754D01*
X6489881Y2245987D01*
X6496547Y2236010D01*
X6506523Y2229345D01*
X6518291Y2227004D01*
X6530059Y2229345D01*
X6540035Y2236010D01*
X6546701Y2245987D01*
X6549042Y2257754D01*
X6546701Y2269522D01*
X6540035Y2279499D01*
X6530059Y2286164D01*
X6518291Y2288505D01*
D02*
G37*
G36*
X3032120Y2283731D02*
X3020352Y2281390D01*
X3010376Y2274724D01*
X3003710Y2264748D01*
X3001369Y2252980D01*
X3003710Y2241212D01*
X3010376Y2231236D01*
X3020352Y2224570D01*
X3032120Y2222229D01*
X3043888Y2224570D01*
X3053864Y2231236D01*
X3060530Y2241212D01*
X3062871Y2252980D01*
X3060530Y2264748D01*
X3053864Y2274724D01*
X3043888Y2281390D01*
X3032120Y2283731D01*
D02*
G37*
G36*
X5479610Y2274829D02*
X5467842Y2272488D01*
X5457866Y2265822D01*
X5451200Y2255846D01*
X5448859Y2244078D01*
X5451200Y2232310D01*
X5457866Y2222334D01*
X5467842Y2215668D01*
X5479610Y2213327D01*
X5491378Y2215668D01*
X5501354Y2222334D01*
X5508020Y2232310D01*
X5510361Y2244078D01*
X5508020Y2255846D01*
X5501354Y2265822D01*
X5491378Y2272488D01*
X5479610Y2274829D01*
D02*
G37*
G36*
X4038480Y2273511D02*
X4026712Y2271170D01*
X4016736Y2264504D01*
X4010070Y2254528D01*
X4007729Y2242760D01*
X4010070Y2230992D01*
X4016736Y2221016D01*
X4026712Y2214350D01*
X4038480Y2212009D01*
X4050248Y2214350D01*
X4060224Y2221016D01*
X4066890Y2230992D01*
X4069231Y2242760D01*
X4066890Y2254528D01*
X4060224Y2264504D01*
X4050248Y2271170D01*
X4038480Y2273511D01*
D02*
G37*
G36*
X4325626Y2270353D02*
X4313858Y2268012D01*
X4303882Y2261346D01*
X4297216Y2251370D01*
X4294875Y2239602D01*
X4297216Y2227834D01*
X4303882Y2217858D01*
X4313858Y2211192D01*
X4325626Y2208851D01*
X4337394Y2211192D01*
X4347370Y2217858D01*
X4354036Y2227834D01*
X4356377Y2239602D01*
X4354036Y2251370D01*
X4347370Y2261346D01*
X4337394Y2268012D01*
X4325626Y2270353D01*
D02*
G37*
G36*
X5923267Y2410053D02*
X5911499Y2407712D01*
X5901523Y2401046D01*
X5894857Y2391070D01*
X5893066Y2382063D01*
X5794218Y2283215D01*
X5789166Y2275653D01*
X5787528Y2267422D01*
X5786779Y2266921D01*
X5781726Y2259359D01*
X5779952Y2250440D01*
Y2181375D01*
X5779747Y2168847D01*
X5779454D01*
X5779469Y2168768D01*
X5779746Y2168768D01*
X5779972Y2156069D01*
X5780033Y2117404D01*
X5774962Y2109814D01*
X5772621Y2098046D01*
X5774962Y2086278D01*
X5781628Y2076302D01*
X5791604Y2069636D01*
X5803372Y2067295D01*
X5815139Y2069636D01*
X5825116Y2076302D01*
X5831782Y2086278D01*
X5834122Y2098046D01*
X5831782Y2109814D01*
X5826649Y2117496D01*
X5826587Y2156440D01*
X5827287Y2168844D01*
X5827286Y2168847D01*
X5826568Y2181250D01*
Y2249843D01*
X5827180Y2250253D01*
X5926028Y2349100D01*
X5935035Y2350892D01*
X5945011Y2357558D01*
X5951677Y2367534D01*
X5954018Y2379302D01*
X5951677Y2391070D01*
X5945011Y2401046D01*
X5935035Y2407712D01*
X5923267Y2410053D01*
D02*
G37*
G36*
X7367500Y2339094D02*
X7242500D01*
X7223904Y2335395D01*
X7208139Y2324861D01*
X7197605Y2309096D01*
X7193906Y2290500D01*
Y2215500D01*
X7197605Y2196904D01*
X7208139Y2181139D01*
X7223904Y2170606D01*
X7242500Y2166907D01*
X7367500D01*
X7386096Y2170606D01*
X7401861Y2181139D01*
X7412395Y2196904D01*
X7416094Y2215500D01*
Y2290500D01*
X7412395Y2309096D01*
X7401861Y2324861D01*
X7386096Y2335395D01*
X7367500Y2339094D01*
D02*
G37*
G36*
X6420442Y2211834D02*
X6408674Y2209493D01*
X6398698Y2202827D01*
X6392032Y2192851D01*
X6389691Y2181083D01*
X6392032Y2169315D01*
X6398698Y2159339D01*
X6408674Y2152673D01*
X6420442Y2150332D01*
X6432210Y2152673D01*
X6442186Y2159339D01*
X6448852Y2169315D01*
X6451193Y2181083D01*
X6448852Y2192851D01*
X6442186Y2202827D01*
X6432210Y2209493D01*
X6420442Y2211834D01*
D02*
G37*
G36*
X5192229Y2229319D02*
X5180461Y2226978D01*
X5170485Y2220313D01*
X5163819Y2210336D01*
X5161478Y2198568D01*
X5163819Y2186801D01*
X5170485Y2176824D01*
X5178754Y2171299D01*
X5180479Y2170066D01*
X5183101Y2156684D01*
X5181639Y2154496D01*
X5179298Y2142728D01*
X5181639Y2130960D01*
X5188305Y2120984D01*
X5198281Y2114318D01*
X5210049Y2111977D01*
X5221817Y2114318D01*
X5231793Y2120984D01*
X5238459Y2130960D01*
X5240800Y2142728D01*
X5238459Y2154496D01*
X5231793Y2164472D01*
X5223523Y2169998D01*
X5221799Y2171231D01*
X5219177Y2184612D01*
X5220639Y2186801D01*
X5222980Y2198568D01*
X5220639Y2210336D01*
X5213973Y2220313D01*
X5203997Y2226978D01*
X5192229Y2229319D01*
D02*
G37*
G36*
X5693738Y2154838D02*
X5681970Y2152497D01*
X5671994Y2145831D01*
X5665328Y2135855D01*
X5662987Y2124087D01*
X5665328Y2112319D01*
X5671994Y2102343D01*
X5681970Y2095677D01*
X5693738Y2093336D01*
X5705506Y2095677D01*
X5715482Y2102343D01*
X5722148Y2112319D01*
X5724489Y2124087D01*
X5722148Y2135855D01*
X5715482Y2145831D01*
X5705506Y2152497D01*
X5693738Y2154838D01*
D02*
G37*
G36*
X5493380Y2141491D02*
X5481612Y2139150D01*
X5471636Y2132484D01*
X5464970Y2122508D01*
X5462629Y2110740D01*
X5464970Y2098972D01*
X5471636Y2088996D01*
X5481612Y2082330D01*
X5493380Y2079989D01*
X5505148Y2082330D01*
X5515124Y2088996D01*
X5521790Y2098972D01*
X5524131Y2110740D01*
X5521790Y2122508D01*
X5515124Y2132484D01*
X5505148Y2139150D01*
X5493380Y2141491D01*
D02*
G37*
G36*
X2811140Y2138951D02*
X2799372Y2136610D01*
X2789396Y2129944D01*
X2782730Y2119968D01*
X2780389Y2108200D01*
X2782730Y2096432D01*
X2789396Y2086456D01*
X2799372Y2079790D01*
X2811140Y2077449D01*
X2822908Y2079790D01*
X2832884Y2086456D01*
X2839550Y2096432D01*
X2841891Y2108200D01*
X2839550Y2119968D01*
X2832884Y2129944D01*
X2822908Y2136610D01*
X2811140Y2138951D01*
D02*
G37*
G36*
X4829478Y2115338D02*
X4817710Y2112997D01*
X4807734Y2106331D01*
X4801068Y2096355D01*
X4798727Y2084587D01*
X4801068Y2072819D01*
X4807734Y2062843D01*
X4817710Y2056177D01*
X4829478Y2053836D01*
X4841246Y2056177D01*
X4851222Y2062843D01*
X4857888Y2072819D01*
X4860229Y2084587D01*
X4857888Y2096355D01*
X4851222Y2106331D01*
X4841246Y2112997D01*
X4829478Y2115338D01*
D02*
G37*
G36*
X4955245Y2235110D02*
X4943477Y2232769D01*
X4933501Y2226103D01*
X4926835Y2216127D01*
X4924494Y2204359D01*
X4926835Y2192591D01*
X4929745Y2188237D01*
X4931926Y2175968D01*
X4925260Y2165992D01*
X4922919Y2154224D01*
X4925260Y2142456D01*
X4928676Y2137344D01*
X4931055Y2128800D01*
X4928804Y2119291D01*
X4925596Y2114490D01*
X4923255Y2102722D01*
X4925596Y2090954D01*
X4928019Y2087328D01*
X4928703Y2072511D01*
X4922037Y2062535D01*
X4919697Y2050767D01*
X4922037Y2038999D01*
X4928703Y2029023D01*
X4938679Y2022357D01*
X4950447Y2020016D01*
X4962215Y2022357D01*
X4972191Y2029023D01*
X4978857Y2038999D01*
X4981198Y2050767D01*
X4978857Y2062535D01*
X4976434Y2066161D01*
X4975750Y2080978D01*
X4982416Y2090954D01*
X4984757Y2102722D01*
X4982416Y2114490D01*
X4979000Y2119602D01*
X4976621Y2128146D01*
X4978871Y2137654D01*
X4982080Y2142456D01*
X4984421Y2154224D01*
X4982080Y2165992D01*
X4979170Y2170346D01*
X4976989Y2182615D01*
X4983655Y2192591D01*
X4985996Y2204359D01*
X4983655Y2216127D01*
X4976989Y2226103D01*
X4967013Y2232769D01*
X4955245Y2235110D01*
D02*
G37*
G36*
X4743667Y2066377D02*
X4731899Y2064037D01*
X4721923Y2057371D01*
X4715257Y2047394D01*
X4712916Y2035627D01*
X4715257Y2023859D01*
X4721923Y2013882D01*
X4731899Y2007217D01*
X4743667Y2004876D01*
X4755435Y2007217D01*
X4764810Y2013480D01*
X4766971Y2013293D01*
X4777609Y2009278D01*
X4779323Y2000660D01*
X4785989Y1990684D01*
X4795965Y1984018D01*
X4807733Y1981677D01*
X4819501Y1984018D01*
X4829477Y1990684D01*
X4836143Y2000660D01*
X4838484Y2012428D01*
X4836143Y2024196D01*
X4829477Y2034172D01*
X4819501Y2040838D01*
X4807733Y2043179D01*
X4795965Y2040838D01*
X4786591Y2034574D01*
X4784429Y2034761D01*
X4773791Y2038776D01*
X4772077Y2047394D01*
X4765411Y2057371D01*
X4755435Y2064037D01*
X4743667Y2066377D01*
D02*
G37*
G36*
X5222891Y2026885D02*
X5211123Y2024544D01*
X5201147Y2017879D01*
X5194481Y2007902D01*
X5192140Y1996134D01*
X5194481Y1984367D01*
X5201147Y1974390D01*
X5211123Y1967725D01*
X5222891Y1965384D01*
X5234659Y1967725D01*
X5244635Y1974390D01*
X5251301Y1984367D01*
X5253642Y1996134D01*
X5251301Y2007902D01*
X5244635Y2017879D01*
X5234659Y2024544D01*
X5222891Y2026885D01*
D02*
G37*
G36*
X4897126Y2006193D02*
X4885358Y2003852D01*
X4875382Y1997186D01*
X4868716Y1987210D01*
X4866375Y1975442D01*
X4868716Y1963674D01*
X4875382Y1953698D01*
X4885358Y1947032D01*
X4897126Y1944691D01*
X4908894Y1947032D01*
X4918870Y1953698D01*
X4925536Y1963674D01*
X4927877Y1975442D01*
X4925536Y1987210D01*
X4918870Y1997186D01*
X4908894Y2003852D01*
X4897126Y2006193D01*
D02*
G37*
G36*
X4727591Y1988785D02*
X4715823Y1986444D01*
X4705847Y1979779D01*
X4699181Y1969802D01*
X4696840Y1958034D01*
X4699181Y1946267D01*
X4705847Y1936290D01*
X4715823Y1929625D01*
X4727591Y1927284D01*
X4739359Y1929625D01*
X4749335Y1936290D01*
X4756001Y1946267D01*
X4758342Y1958034D01*
X4756001Y1969802D01*
X4749335Y1979779D01*
X4739359Y1986444D01*
X4727591Y1988785D01*
D02*
G37*
G36*
X3991018Y1949201D02*
X3979251Y1946860D01*
X3969274Y1940194D01*
X3962609Y1930218D01*
X3960268Y1918450D01*
X3962609Y1906682D01*
X3969274Y1896706D01*
X3979251Y1890040D01*
X3991018Y1887700D01*
X4002786Y1890040D01*
X4012763Y1896706D01*
X4019428Y1906682D01*
X4021769Y1918450D01*
X4019428Y1930218D01*
X4012763Y1940194D01*
X4002786Y1946860D01*
X3991018Y1949201D01*
D02*
G37*
G36*
X3314234Y1936598D02*
X3302467Y1934257D01*
X3292490Y1927592D01*
X3285825Y1917615D01*
X3283484Y1905847D01*
X3285825Y1894080D01*
X3292490Y1884103D01*
X3302467Y1877437D01*
X3314234Y1875097D01*
X3326002Y1877437D01*
X3335979Y1884103D01*
X3342644Y1894080D01*
X3344985Y1905847D01*
X3342644Y1917615D01*
X3335979Y1927592D01*
X3326002Y1934257D01*
X3314234Y1936598D01*
D02*
G37*
G36*
X1101720Y1895111D02*
X1089952Y1892770D01*
X1079976Y1886104D01*
X1073310Y1876128D01*
X1070969Y1864360D01*
X1073310Y1852592D01*
X1079976Y1842616D01*
X1089952Y1835950D01*
X1101720Y1833609D01*
X1113488Y1835950D01*
X1123464Y1842616D01*
X1130130Y1852592D01*
X1132471Y1864360D01*
X1130130Y1876128D01*
X1123464Y1886104D01*
X1113488Y1892770D01*
X1101720Y1895111D01*
D02*
G37*
G36*
X5797286Y1856612D02*
X5785518Y1854272D01*
X5775542Y1847606D01*
X5768876Y1837630D01*
X5766535Y1825862D01*
X5768876Y1814094D01*
X5775542Y1804118D01*
X5785518Y1797452D01*
X5797286Y1795111D01*
X5809054Y1797452D01*
X5819030Y1804118D01*
X5825696Y1814094D01*
X5828037Y1825862D01*
X5825696Y1837630D01*
X5819030Y1847606D01*
X5809054Y1854272D01*
X5797286Y1856612D01*
D02*
G37*
G36*
X4119082Y1847520D02*
X4107315Y1845179D01*
X4097338Y1838514D01*
X4090673Y1828537D01*
X4088332Y1816770D01*
X4090673Y1805002D01*
X4097338Y1795025D01*
X4107315Y1788360D01*
X4119082Y1786019D01*
X4130850Y1788360D01*
X4140827Y1795025D01*
X4147492Y1805002D01*
X4149833Y1816770D01*
X4147492Y1828537D01*
X4140827Y1838514D01*
X4130850Y1845179D01*
X4119082Y1847520D01*
D02*
G37*
G36*
X4851280Y1831551D02*
X4839512Y1829210D01*
X4829536Y1822544D01*
X4822870Y1812568D01*
X4820529Y1800800D01*
X4822870Y1789032D01*
X4829536Y1779056D01*
X4839512Y1772390D01*
X4851280Y1770049D01*
X4863048Y1772390D01*
X4873024Y1779056D01*
X4879690Y1789032D01*
X4882031Y1800800D01*
X4879690Y1812568D01*
X4873024Y1822544D01*
X4863048Y1829210D01*
X4851280Y1831551D01*
D02*
G37*
G36*
X7233300Y1992111D02*
X7183300D01*
X7154542Y1988324D01*
X7127745Y1977225D01*
X7104733Y1959567D01*
X7087075Y1936555D01*
X7075975Y1909758D01*
X7072189Y1881000D01*
X7075975Y1852242D01*
X7087075Y1825445D01*
X7104733Y1802433D01*
X7127745Y1784775D01*
X7154542Y1773676D01*
X7183300Y1769890D01*
X7233300D01*
X7262057Y1773676D01*
X7288855Y1784775D01*
X7311867Y1802433D01*
X7329524Y1825445D01*
X7340624Y1852242D01*
X7344410Y1881000D01*
X7340624Y1909758D01*
X7329524Y1936555D01*
X7311867Y1959567D01*
X7288855Y1977225D01*
X7262057Y1988324D01*
X7233300Y1992111D01*
D02*
G37*
G36*
X238120Y1919592D02*
X218395Y1916995D01*
X200014Y1909381D01*
X184230Y1897270D01*
X172119Y1881486D01*
X164505Y1863105D01*
X161908Y1843380D01*
X164505Y1823655D01*
X172119Y1805274D01*
X184230Y1789490D01*
X200014Y1777379D01*
X218395Y1769765D01*
X238120Y1767168D01*
X257845Y1769765D01*
X276226Y1777379D01*
X292010Y1789490D01*
X304121Y1805274D01*
X311735Y1823655D01*
X314332Y1843380D01*
X311735Y1863105D01*
X304121Y1881486D01*
X292010Y1897270D01*
X276226Y1909381D01*
X257845Y1916995D01*
X238120Y1919592D01*
D02*
G37*
G36*
X5860884Y1809987D02*
X5849116Y1807646D01*
X5839140Y1800980D01*
X5832474Y1791004D01*
X5830133Y1779236D01*
X5832474Y1767468D01*
X5839140Y1757492D01*
X5849116Y1750826D01*
X5860884Y1748485D01*
X5872652Y1750826D01*
X5882628Y1757492D01*
X5889294Y1767468D01*
X5891635Y1779236D01*
X5889294Y1791004D01*
X5882628Y1800980D01*
X5872652Y1807646D01*
X5860884Y1809987D01*
D02*
G37*
G36*
X4031772Y1724061D02*
X4020005Y1721720D01*
X4010028Y1715054D01*
X4003363Y1705078D01*
X4001022Y1693310D01*
X4003363Y1681542D01*
X4010028Y1671566D01*
X4020005Y1664900D01*
X4031772Y1662559D01*
X4043540Y1664900D01*
X4053517Y1671566D01*
X4060182Y1681542D01*
X4062523Y1693310D01*
X4060182Y1705078D01*
X4053517Y1715054D01*
X4043540Y1721720D01*
X4031772Y1724061D01*
D02*
G37*
G36*
X7233300Y1738111D02*
X7218460D01*
Y1637160D01*
X7343073D01*
X7340624Y1655758D01*
X7329524Y1682555D01*
X7311867Y1705567D01*
X7288855Y1723225D01*
X7262057Y1734324D01*
X7233300Y1738111D01*
D02*
G37*
G36*
X7198140D02*
X7183300D01*
X7154542Y1734324D01*
X7127745Y1723225D01*
X7104733Y1705567D01*
X7087075Y1682555D01*
X7075975Y1655758D01*
X7073527Y1637160D01*
X7198140D01*
Y1738111D01*
D02*
G37*
G36*
X698500Y1684291D02*
X686732Y1681950D01*
X676756Y1675284D01*
X670090Y1665308D01*
X667749Y1653540D01*
X670090Y1641772D01*
X676756Y1631796D01*
X686732Y1625130D01*
X698500Y1622789D01*
X710268Y1625130D01*
X720244Y1631796D01*
X726910Y1641772D01*
X729251Y1653540D01*
X726910Y1665308D01*
X720244Y1675284D01*
X710268Y1681950D01*
X698500Y1684291D01*
D02*
G37*
G36*
X2603000Y1931530D02*
X2573438Y1928618D01*
X2545012Y1919996D01*
X2518814Y1905993D01*
X2495852Y1887148D01*
X2477007Y1864186D01*
X2463004Y1837988D01*
X2454381Y1809562D01*
X2451470Y1780000D01*
Y1740000D01*
X2454381Y1710438D01*
X2463004Y1682012D01*
X2477007Y1655815D01*
X2495852Y1632852D01*
X2518814Y1614008D01*
X2545012Y1600005D01*
X2573438Y1591382D01*
X2603000Y1588471D01*
X2632562Y1591382D01*
X2660988Y1600005D01*
X2687185Y1614008D01*
X2710147Y1632852D01*
X2728992Y1655815D01*
X2742995Y1682012D01*
X2751618Y1710438D01*
X2754529Y1740000D01*
Y1780000D01*
X2751618Y1809562D01*
X2742995Y1837988D01*
X2728992Y1864186D01*
X2710147Y1887148D01*
X2687185Y1905993D01*
X2660988Y1919996D01*
X2632562Y1928618D01*
X2603000Y1931530D01*
D02*
G37*
G36*
X2023000D02*
X1993437Y1928618D01*
X1965012Y1919996D01*
X1938814Y1905993D01*
X1915852Y1887148D01*
X1897007Y1864186D01*
X1883004Y1837988D01*
X1874381Y1809562D01*
X1871470Y1780000D01*
Y1740000D01*
X1874381Y1710438D01*
X1883004Y1682012D01*
X1897007Y1655815D01*
X1915852Y1632852D01*
X1938814Y1614008D01*
X1965012Y1600005D01*
X1993437Y1591382D01*
X2023000Y1588471D01*
X2052562Y1591382D01*
X2080987Y1600005D01*
X2107185Y1614008D01*
X2130147Y1632852D01*
X2148992Y1655815D01*
X2162995Y1682012D01*
X2171618Y1710438D01*
X2174529Y1740000D01*
Y1780000D01*
X2171618Y1809562D01*
X2162995Y1837988D01*
X2148992Y1864186D01*
X2130147Y1887148D01*
X2107185Y1905993D01*
X2080987Y1919996D01*
X2052562Y1928618D01*
X2023000Y1931530D01*
D02*
G37*
G36*
X238120Y1719592D02*
X218395Y1716995D01*
X200014Y1709381D01*
X184230Y1697270D01*
X172119Y1681486D01*
X164505Y1663105D01*
X161908Y1643380D01*
X164505Y1623655D01*
X172119Y1605274D01*
X184230Y1589490D01*
X200014Y1577379D01*
X218395Y1569765D01*
X238120Y1567168D01*
X257845Y1569765D01*
X276226Y1577379D01*
X292010Y1589490D01*
X304121Y1605274D01*
X311735Y1623655D01*
X314332Y1643380D01*
X311735Y1663105D01*
X304121Y1681486D01*
X292010Y1697270D01*
X276226Y1709381D01*
X257845Y1716995D01*
X238120Y1719592D01*
D02*
G37*
G36*
X3969256Y1597202D02*
X3957488Y1594861D01*
X3947512Y1588195D01*
X3940846Y1578219D01*
X3938505Y1566451D01*
X3940846Y1554683D01*
X3947512Y1544707D01*
X3957488Y1538041D01*
X3969256Y1535701D01*
X3981024Y1538041D01*
X3991000Y1544707D01*
X3997666Y1554683D01*
X4000006Y1566451D01*
X3997666Y1578219D01*
X3991000Y1588195D01*
X3981024Y1594861D01*
X3969256Y1597202D01*
D02*
G37*
G36*
X4945367Y1596378D02*
X4933599Y1594037D01*
X4923623Y1587371D01*
X4916957Y1577395D01*
X4914617Y1565627D01*
X4916957Y1553859D01*
X4923623Y1543883D01*
X4933599Y1537217D01*
X4945367Y1534876D01*
X4957135Y1537217D01*
X4967111Y1543883D01*
X4973777Y1553859D01*
X4976118Y1565627D01*
X4973777Y1577395D01*
X4967111Y1587371D01*
X4957135Y1594037D01*
X4945367Y1596378D01*
D02*
G37*
G36*
X3869139Y1582463D02*
X3857371Y1580122D01*
X3847395Y1573457D01*
X3840729Y1563480D01*
X3838388Y1551712D01*
X3840729Y1539945D01*
X3847395Y1529968D01*
X3857371Y1523303D01*
X3869139Y1520962D01*
X3880907Y1523303D01*
X3890883Y1529968D01*
X3897549Y1539945D01*
X3899890Y1551712D01*
X3897549Y1563480D01*
X3890883Y1573457D01*
X3880907Y1580122D01*
X3869139Y1582463D01*
D02*
G37*
G36*
X4082033Y1581099D02*
X4070265Y1578758D01*
X4060289Y1572093D01*
X4053623Y1562116D01*
X4051282Y1550348D01*
X4053623Y1538581D01*
X4060289Y1528604D01*
X4070265Y1521939D01*
X4082033Y1519598D01*
X4093801Y1521939D01*
X4103777Y1528604D01*
X4110443Y1538581D01*
X4112783Y1550348D01*
X4110443Y1562116D01*
X4103777Y1572093D01*
X4093801Y1578758D01*
X4082033Y1581099D01*
D02*
G37*
G36*
X7343072Y1616840D02*
X7218460D01*
Y1515890D01*
X7233300D01*
X7262057Y1519676D01*
X7288855Y1530775D01*
X7311867Y1548433D01*
X7329524Y1571445D01*
X7340624Y1598242D01*
X7343072Y1616840D01*
D02*
G37*
G36*
X7198140D02*
X7073527D01*
X7075975Y1598242D01*
X7087075Y1571445D01*
X7104733Y1548433D01*
X7127745Y1530775D01*
X7154542Y1519676D01*
X7183300Y1515890D01*
X7198140D01*
Y1616840D01*
D02*
G37*
G36*
X5934096Y1514051D02*
X5922328Y1511710D01*
X5912352Y1505044D01*
X5909344D01*
X5899368Y1511710D01*
X5887600Y1514051D01*
X5875832Y1511710D01*
X5871361Y1508722D01*
X5862200Y1506094D01*
X5853039Y1508722D01*
X5848568Y1511710D01*
X5836800Y1514051D01*
X5825032Y1511710D01*
X5820561Y1508722D01*
X5811400Y1506094D01*
X5802239Y1508722D01*
X5797768Y1511710D01*
X5786000Y1514051D01*
X5774232Y1511710D01*
X5764256Y1505044D01*
X5757590Y1495068D01*
X5755249Y1483300D01*
X5757590Y1471532D01*
X5764256Y1461556D01*
Y1454244D01*
X5757590Y1444268D01*
X5755249Y1432500D01*
X5757590Y1420732D01*
X5764256Y1410756D01*
Y1403444D01*
X5757590Y1393468D01*
X5755249Y1381700D01*
X5757590Y1369932D01*
X5764256Y1359956D01*
X5774232Y1353290D01*
X5786000Y1350949D01*
X5797768Y1353290D01*
X5802239Y1356278D01*
X5811400Y1358907D01*
X5820561Y1356278D01*
X5825032Y1353290D01*
X5836800Y1350949D01*
X5848568Y1353290D01*
X5853039Y1356278D01*
X5862200Y1358907D01*
X5871361Y1356278D01*
X5875832Y1353290D01*
X5887600Y1350949D01*
X5899368Y1353290D01*
X5909344Y1359956D01*
X5916010Y1369932D01*
X5918351Y1381700D01*
X5916010Y1393468D01*
X5915600Y1394081D01*
X5919748Y1400631D01*
X5923997Y1404374D01*
X5934096Y1402365D01*
X5945864Y1404706D01*
X5955840Y1411372D01*
X5962506Y1421348D01*
X5964847Y1433116D01*
X5962506Y1444884D01*
X5959803Y1448930D01*
X5956891Y1458208D01*
X5959803Y1467487D01*
X5962506Y1471532D01*
X5964847Y1483300D01*
X5962506Y1495068D01*
X5955840Y1505044D01*
X5945864Y1511710D01*
X5934096Y1514051D01*
D02*
G37*
G36*
X3429719Y1535143D02*
X3417951Y1532802D01*
X3407975Y1526137D01*
X3401309Y1516160D01*
X3398968Y1504392D01*
X3401309Y1492625D01*
X3407975Y1482648D01*
X3417951Y1475983D01*
X3429719Y1473642D01*
X3441487Y1475983D01*
X3451463Y1482648D01*
X3458129Y1492625D01*
X3460470Y1504392D01*
X3458129Y1516160D01*
X3451463Y1526137D01*
X3441487Y1532802D01*
X3429719Y1535143D01*
D02*
G37*
G36*
X3323039D02*
X3311271Y1532802D01*
X3301295Y1526137D01*
X3294629Y1516160D01*
X3292288Y1504392D01*
X3294629Y1492625D01*
X3301295Y1482648D01*
X3311271Y1475983D01*
X3323039Y1473642D01*
X3334807Y1475983D01*
X3344783Y1482648D01*
X3351449Y1492625D01*
X3353790Y1504392D01*
X3351449Y1516160D01*
X3344783Y1526137D01*
X3334807Y1532802D01*
X3323039Y1535143D01*
D02*
G37*
G36*
X3208739D02*
X3196971Y1532802D01*
X3186995Y1526137D01*
X3180329Y1516160D01*
X3177988Y1504392D01*
X3180329Y1492625D01*
X3186995Y1482648D01*
X3196971Y1475983D01*
X3208739Y1473642D01*
X3220507Y1475983D01*
X3230483Y1482648D01*
X3237149Y1492625D01*
X3239490Y1504392D01*
X3237149Y1516160D01*
X3230483Y1526137D01*
X3220507Y1532802D01*
X3208739Y1535143D01*
D02*
G37*
G36*
X5323200Y1534431D02*
X5311432Y1532090D01*
X5301456Y1525424D01*
X5294790Y1515448D01*
X5292449Y1503680D01*
X5294790Y1491912D01*
X5301456Y1481936D01*
X5311432Y1475270D01*
X5323200Y1472929D01*
X5334968Y1475270D01*
X5344944Y1481936D01*
X5351610Y1491912D01*
X5353951Y1503680D01*
X5351610Y1515448D01*
X5344944Y1525424D01*
X5334968Y1532090D01*
X5323200Y1534431D01*
D02*
G37*
G36*
X3646800Y1529351D02*
X3635032Y1527010D01*
X3625055Y1520344D01*
X3618390Y1510368D01*
X3616049Y1498600D01*
X3618390Y1486832D01*
X3625055Y1476856D01*
X3635032Y1470190D01*
X3646800Y1467849D01*
X3658567Y1470190D01*
X3668544Y1476856D01*
X3675210Y1486832D01*
X3677550Y1498600D01*
X3675210Y1510368D01*
X3668544Y1520344D01*
X3658567Y1527010D01*
X3646800Y1529351D01*
D02*
G37*
G36*
X6500383Y1455343D02*
X6488615Y1453002D01*
X6478639Y1446337D01*
X6471973Y1436360D01*
X6469632Y1424593D01*
X6471973Y1412825D01*
X6478639Y1402849D01*
Y1395536D01*
X6471973Y1385560D01*
X6469632Y1373793D01*
X6471973Y1362025D01*
X6478639Y1352048D01*
X6488615Y1345383D01*
X6500383Y1343042D01*
X6512151Y1345383D01*
X6522127Y1352048D01*
X6528793Y1362025D01*
X6531134Y1373793D01*
X6528793Y1385560D01*
X6522127Y1395536D01*
Y1402849D01*
X6528793Y1412825D01*
X6531134Y1424593D01*
X6528793Y1436360D01*
X6522127Y1446337D01*
X6512151Y1453002D01*
X6500383Y1455343D01*
D02*
G37*
G36*
X6373383D02*
X6361615Y1453002D01*
X6351639Y1446337D01*
X6344973Y1436360D01*
X6342632Y1424593D01*
X6344973Y1412825D01*
X6351639Y1402849D01*
Y1395536D01*
X6344973Y1385560D01*
X6342632Y1373793D01*
X6344973Y1362025D01*
X6351639Y1352048D01*
X6361615Y1345383D01*
X6373383Y1343042D01*
X6385151Y1345383D01*
X6395127Y1352048D01*
X6401793Y1362025D01*
X6404134Y1373793D01*
X6401793Y1385560D01*
X6395127Y1395536D01*
Y1402849D01*
X6401793Y1412825D01*
X6404134Y1424593D01*
X6401793Y1436360D01*
X6395127Y1446337D01*
X6385151Y1453002D01*
X6373383Y1455343D01*
D02*
G37*
G36*
X847720Y1399811D02*
X835952Y1397470D01*
X825976Y1390804D01*
X819310Y1380828D01*
X816969Y1369060D01*
X819310Y1357292D01*
X825976Y1347316D01*
X835952Y1340650D01*
X847720Y1338309D01*
X859488Y1340650D01*
X869464Y1347316D01*
X876130Y1357292D01*
X878471Y1369060D01*
X876130Y1380828D01*
X869464Y1390804D01*
X859488Y1397470D01*
X847720Y1399811D01*
D02*
G37*
G36*
X1282060Y1387111D02*
X1270292Y1384770D01*
X1260316Y1378104D01*
X1253650Y1368128D01*
X1251309Y1356360D01*
X1253650Y1344592D01*
X1260316Y1334616D01*
X1270292Y1327950D01*
X1282060Y1325609D01*
X1293828Y1327950D01*
X1303804Y1334616D01*
X1310470Y1344592D01*
X1312811Y1356360D01*
X1310470Y1368128D01*
X1303804Y1378104D01*
X1293828Y1384770D01*
X1282060Y1387111D01*
D02*
G37*
G36*
X6627383Y1531543D02*
X6615615Y1529202D01*
X6605639Y1522537D01*
X6598973Y1512560D01*
X6596632Y1500793D01*
X6598973Y1489025D01*
X6605639Y1479049D01*
Y1471736D01*
X6598973Y1461760D01*
X6596632Y1449993D01*
X6598973Y1438225D01*
X6605639Y1428249D01*
Y1420936D01*
X6598973Y1410960D01*
X6596632Y1399193D01*
X6598973Y1387425D01*
X6605639Y1377449D01*
Y1370136D01*
X6598973Y1360160D01*
X6596632Y1348393D01*
X6598973Y1336625D01*
X6605639Y1326648D01*
X6615615Y1319983D01*
X6627383Y1317642D01*
X6639151Y1319983D01*
X6649127Y1326648D01*
X6655793Y1336625D01*
X6658134Y1348393D01*
X6655793Y1360160D01*
X6649127Y1370136D01*
Y1377449D01*
X6655793Y1387425D01*
X6658134Y1399193D01*
X6655793Y1410960D01*
X6649127Y1420936D01*
Y1428249D01*
X6655793Y1438225D01*
X6658134Y1449993D01*
X6655793Y1461760D01*
X6649127Y1471736D01*
Y1479049D01*
X6655793Y1489025D01*
X6658134Y1500793D01*
X6655793Y1512560D01*
X6649127Y1522537D01*
X6639151Y1529202D01*
X6627383Y1531543D01*
D02*
G37*
G36*
X6246383D02*
X6234615Y1529202D01*
X6224639Y1522537D01*
X6217973Y1512560D01*
X6215632Y1500793D01*
X6217973Y1489025D01*
X6224639Y1479049D01*
Y1471736D01*
X6217973Y1461760D01*
X6215632Y1449993D01*
X6217973Y1438225D01*
X6224639Y1428249D01*
Y1420936D01*
X6217973Y1410960D01*
X6215632Y1399193D01*
X6217973Y1387425D01*
X6224639Y1377449D01*
Y1370136D01*
X6217973Y1360160D01*
X6215632Y1348393D01*
X6217973Y1336625D01*
X6224639Y1326648D01*
X6234615Y1319983D01*
X6246383Y1317642D01*
X6258151Y1319983D01*
X6268127Y1326648D01*
X6274793Y1336625D01*
X6277134Y1348393D01*
X6274793Y1360160D01*
X6268127Y1370136D01*
Y1377449D01*
X6274793Y1387425D01*
X6277134Y1399193D01*
X6274793Y1410960D01*
X6268127Y1420936D01*
Y1428249D01*
X6274793Y1438225D01*
X6277134Y1449993D01*
X6274793Y1461760D01*
X6268127Y1471736D01*
Y1479049D01*
X6274793Y1489025D01*
X6277134Y1500793D01*
X6274793Y1512560D01*
X6268127Y1522537D01*
X6258151Y1529202D01*
X6246383Y1531543D01*
D02*
G37*
G36*
X250820Y1293414D02*
Y1228700D01*
X315534D01*
X314275Y1238265D01*
X306661Y1256646D01*
X294550Y1272430D01*
X278766Y1284541D01*
X260385Y1292155D01*
X250820Y1293414D01*
D02*
G37*
G36*
X230500D02*
X220935Y1292155D01*
X202554Y1284541D01*
X186770Y1272430D01*
X174659Y1256646D01*
X167045Y1238265D01*
X165786Y1228700D01*
X230500D01*
Y1293414D01*
D02*
G37*
G36*
X1619880Y1249951D02*
X1608112Y1247610D01*
X1598136Y1240944D01*
X1591470Y1230968D01*
X1589129Y1219200D01*
X1591470Y1207432D01*
X1598136Y1197456D01*
X1608112Y1190790D01*
X1619880Y1188449D01*
X1631648Y1190790D01*
X1641624Y1197456D01*
X1648290Y1207432D01*
X1650631Y1219200D01*
X1648290Y1230968D01*
X1641624Y1240944D01*
X1631648Y1247610D01*
X1619880Y1249951D01*
D02*
G37*
G36*
X6439843Y1247321D02*
X6428075Y1244980D01*
X6418098Y1238314D01*
X6411433Y1228338D01*
X6409092Y1216570D01*
X6411433Y1204802D01*
X6418098Y1194826D01*
X6428075Y1188160D01*
X6439843Y1185819D01*
X6451610Y1188160D01*
X6461587Y1194826D01*
X6468252Y1204802D01*
X6470593Y1216570D01*
X6468252Y1228338D01*
X6461587Y1238314D01*
X6451610Y1244980D01*
X6439843Y1247321D01*
D02*
G37*
G36*
X6313735D02*
X6301967Y1244980D01*
X6291990Y1238314D01*
X6285325Y1228338D01*
X6282984Y1216570D01*
X6285325Y1204802D01*
X6291990Y1194826D01*
X6301967Y1188160D01*
X6313735Y1185819D01*
X6325502Y1188160D01*
X6335479Y1194826D01*
X6342145Y1204802D01*
X6344485Y1216570D01*
X6342145Y1228338D01*
X6335479Y1238314D01*
X6325502Y1244980D01*
X6313735Y1247321D01*
D02*
G37*
G36*
X6183187D02*
X6171419Y1244980D01*
X6161443Y1238314D01*
X6154777Y1228338D01*
X6152436Y1216570D01*
X6154777Y1204802D01*
X6161443Y1194826D01*
X6171419Y1188160D01*
X6183187Y1185819D01*
X6194955Y1188160D01*
X6204931Y1194826D01*
X6211597Y1204802D01*
X6213938Y1216570D01*
X6211597Y1228338D01*
X6204931Y1238314D01*
X6194955Y1244980D01*
X6183187Y1247321D01*
D02*
G37*
G36*
X4624700Y1234711D02*
X4612932Y1232370D01*
X4602956Y1225704D01*
X4596290Y1215728D01*
X4593949Y1203960D01*
X4596290Y1192192D01*
X4602956Y1182216D01*
X4612932Y1175550D01*
X4624700Y1173209D01*
X4636468Y1175550D01*
X4646444Y1182216D01*
X4653110Y1192192D01*
X4655451Y1203960D01*
X4653110Y1215728D01*
X4646444Y1225704D01*
X4636468Y1232370D01*
X4624700Y1234711D01*
D02*
G37*
G36*
X5252093Y1220411D02*
X5240325Y1218070D01*
X5230349Y1211404D01*
X5223683Y1201428D01*
X5221342Y1189660D01*
X5223683Y1177892D01*
X5230349Y1167916D01*
X5240325Y1161250D01*
X5252093Y1158909D01*
X5263861Y1161250D01*
X5273837Y1167916D01*
X5280503Y1177892D01*
X5282844Y1189660D01*
X5280503Y1201428D01*
X5273837Y1211404D01*
X5263861Y1218070D01*
X5252093Y1220411D01*
D02*
G37*
G36*
X230500Y1208380D02*
X165786D01*
X167045Y1198815D01*
X174659Y1180434D01*
X186770Y1164650D01*
X202554Y1152539D01*
X220935Y1144925D01*
X230500Y1143666D01*
Y1208380D01*
D02*
G37*
G36*
X315534D02*
X250820D01*
Y1143666D01*
X260385Y1144925D01*
X278766Y1152539D01*
X294550Y1164650D01*
X306661Y1180434D01*
X314275Y1198815D01*
X315534Y1208380D01*
D02*
G37*
G36*
X4351200Y1156842D02*
X4319664Y1152691D01*
X4290278Y1140519D01*
X4265044Y1121156D01*
X4245681Y1095921D01*
X4233509Y1066535D01*
X4233296Y1064918D01*
X3527062D01*
X3507170Y1062299D01*
X3488633Y1054621D01*
X3472715Y1042407D01*
X3470710Y1039793D01*
X3456201Y1041747D01*
X3452606Y1047127D01*
X3442630Y1053793D01*
X3430862Y1056134D01*
X3419094Y1053793D01*
X3409118Y1047127D01*
X3402452Y1037151D01*
X3400111Y1025383D01*
X3402452Y1013615D01*
X3409118Y1003639D01*
X3419094Y996973D01*
X3430862Y994632D01*
X3438459Y996143D01*
X3448606Y989160D01*
X3450361Y986865D01*
X3452823Y968168D01*
X3460501Y949631D01*
X3472715Y933713D01*
X3488633Y921499D01*
X3507170Y913821D01*
X3527062Y911202D01*
X4229357D01*
Y875000D01*
X4233509Y843465D01*
X4245681Y814079D01*
X4265044Y788844D01*
X4290278Y769482D01*
X4319664Y757309D01*
X4351200Y753158D01*
X4382735Y757309D01*
X4412121Y769482D01*
X4437355Y788844D01*
X4456718Y814079D01*
X4468890Y843465D01*
X4473042Y875000D01*
Y1035000D01*
X4468890Y1066535D01*
X4456718Y1095921D01*
X4437355Y1121156D01*
X4412121Y1140519D01*
X4382735Y1152691D01*
X4351200Y1156842D01*
D02*
G37*
G36*
X2313000Y1811025D02*
X2286853Y1807582D01*
X2262487Y1797490D01*
X2241565Y1781435D01*
X2225510Y1760513D01*
X2215418Y1736147D01*
X2211976Y1710000D01*
X2215418Y1683853D01*
X2225510Y1659488D01*
X2241565Y1638565D01*
X2262487Y1622511D01*
X2276097Y1616874D01*
Y1603127D01*
X2262487Y1597490D01*
X2241565Y1581435D01*
X2225510Y1560512D01*
X2215418Y1536147D01*
X2211976Y1510000D01*
X2215418Y1483853D01*
X2225510Y1459488D01*
X2241565Y1438565D01*
X2262487Y1422511D01*
X2276097Y1416873D01*
Y1403127D01*
X2262487Y1397490D01*
X2241565Y1381435D01*
X2225510Y1360512D01*
X2215418Y1336147D01*
X2211976Y1310000D01*
X2215418Y1283853D01*
X2225510Y1259488D01*
X2241565Y1238565D01*
X2262487Y1222511D01*
X2276097Y1216873D01*
Y1203127D01*
X2262487Y1197490D01*
X2241565Y1181435D01*
X2225510Y1160512D01*
X2215418Y1136147D01*
X2211976Y1110000D01*
X2215418Y1083853D01*
X2225510Y1059488D01*
X2241565Y1038565D01*
X2262487Y1022511D01*
X2286853Y1012418D01*
X2313000Y1008976D01*
X2339147Y1012418D01*
X2363512Y1022511D01*
X2384435Y1038565D01*
X2400489Y1059488D01*
X2410582Y1083853D01*
X2414024Y1110000D01*
X2410582Y1136147D01*
X2400489Y1160512D01*
X2384435Y1181435D01*
X2363512Y1197490D01*
X2349902Y1203127D01*
Y1216873D01*
X2363512Y1222511D01*
X2384435Y1238565D01*
X2400489Y1259488D01*
X2410582Y1283853D01*
X2414024Y1310000D01*
X2410582Y1336147D01*
X2400489Y1360512D01*
X2384435Y1381435D01*
X2363512Y1397490D01*
X2349902Y1403127D01*
Y1416873D01*
X2363512Y1422511D01*
X2384435Y1438565D01*
X2400489Y1459488D01*
X2410582Y1483853D01*
X2414024Y1510000D01*
X2410582Y1536147D01*
X2400489Y1560512D01*
X2384435Y1581435D01*
X2363512Y1597490D01*
X2349902Y1603127D01*
Y1616874D01*
X2363512Y1622511D01*
X2384435Y1638565D01*
X2400489Y1659488D01*
X2410582Y1683853D01*
X2414024Y1710000D01*
X2410582Y1736147D01*
X2400489Y1760513D01*
X2384435Y1781435D01*
X2363512Y1797490D01*
X2339147Y1807582D01*
X2313000Y1811025D01*
D02*
G37*
G36*
X240660Y1094752D02*
X220935Y1092155D01*
X202554Y1084541D01*
X186770Y1072430D01*
X174659Y1056646D01*
X167045Y1038265D01*
X164448Y1018540D01*
X167045Y998815D01*
X174659Y980434D01*
X186770Y964650D01*
X202554Y952539D01*
X220935Y944925D01*
X240660Y942328D01*
X260385Y944925D01*
X278766Y952539D01*
X294550Y964650D01*
X306661Y980434D01*
X314275Y998815D01*
X316872Y1018540D01*
X314275Y1038265D01*
X306661Y1056646D01*
X294550Y1072430D01*
X278766Y1084541D01*
X260385Y1092155D01*
X240660Y1094752D01*
D02*
G37*
G36*
X6792483Y909243D02*
X6780715Y906902D01*
X6776244Y903915D01*
X6767083Y901286D01*
X6757922Y903915D01*
X6753451Y906902D01*
X6741683Y909243D01*
X6729915Y906902D01*
X6725444Y903915D01*
X6716283Y901286D01*
X6707122Y903915D01*
X6702651Y906902D01*
X6690883Y909243D01*
X6679115Y906902D01*
X6669139Y900237D01*
X6662473Y890260D01*
X6660132Y878493D01*
X6662473Y866725D01*
X6669139Y856749D01*
Y849436D01*
X6662473Y839460D01*
X6660132Y827693D01*
X6662473Y815925D01*
X6669139Y805948D01*
X6679115Y799283D01*
X6690883Y796942D01*
X6702651Y799283D01*
X6707069Y802234D01*
X6716225Y793078D01*
X6713273Y788660D01*
X6710932Y776893D01*
X6713273Y765125D01*
X6719939Y755148D01*
X6729915Y748483D01*
X6741683Y746142D01*
X6753451Y748483D01*
X6757922Y751470D01*
X6767083Y754099D01*
X6776244Y751470D01*
X6780715Y748483D01*
X6792483Y746142D01*
X6804251Y748483D01*
X6814227Y755148D01*
X6820893Y765125D01*
X6823234Y776893D01*
X6820893Y788660D01*
X6814227Y798636D01*
Y805949D01*
X6820893Y815925D01*
X6823234Y827693D01*
X6820893Y839460D01*
X6814227Y849436D01*
Y856749D01*
X6820893Y866725D01*
X6823234Y878493D01*
X6820893Y890260D01*
X6814227Y900237D01*
X6804251Y906902D01*
X6792483Y909243D01*
D02*
G37*
G36*
X2603000Y1231530D02*
X2573438Y1228618D01*
X2545012Y1219996D01*
X2518814Y1205993D01*
X2495852Y1187148D01*
X2477007Y1164186D01*
X2463004Y1137988D01*
X2454381Y1109562D01*
X2451470Y1080000D01*
Y1040000D01*
X2454381Y1010438D01*
X2463004Y982012D01*
X2477007Y955815D01*
X2495852Y932852D01*
X2518814Y914008D01*
X2545012Y900005D01*
X2573438Y891382D01*
X2603000Y888470D01*
X2632562Y891382D01*
X2660988Y900005D01*
X2687185Y914008D01*
X2710147Y932852D01*
X2728992Y955815D01*
X2742995Y982012D01*
X2751618Y1010438D01*
X2754529Y1040000D01*
Y1080000D01*
X2751618Y1109562D01*
X2742995Y1137988D01*
X2728992Y1164186D01*
X2710147Y1187148D01*
X2687185Y1205993D01*
X2660988Y1219996D01*
X2632562Y1228618D01*
X2603000Y1231530D01*
D02*
G37*
G36*
X2023000D02*
X1993437Y1228618D01*
X1965012Y1219996D01*
X1938814Y1205993D01*
X1915852Y1187148D01*
X1897007Y1164186D01*
X1883004Y1137988D01*
X1874381Y1109562D01*
X1871470Y1080000D01*
Y1040000D01*
X1874381Y1010438D01*
X1883004Y982012D01*
X1897007Y955815D01*
X1915852Y932852D01*
X1938814Y914008D01*
X1965012Y900005D01*
X1993437Y891382D01*
X2023000Y888470D01*
X2052562Y891382D01*
X2080987Y900005D01*
X2107185Y914008D01*
X2130147Y932852D01*
X2148992Y955815D01*
X2162995Y982012D01*
X2171618Y1010438D01*
X2174529Y1040000D01*
Y1080000D01*
X2171618Y1109562D01*
X2162995Y1137988D01*
X2148992Y1164186D01*
X2130147Y1187148D01*
X2107185Y1205993D01*
X2080987Y1219996D01*
X2052562Y1228618D01*
X2023000Y1231530D01*
D02*
G37*
G36*
X557840Y947691D02*
X546072Y945350D01*
X536096Y938684D01*
X529430Y928708D01*
X527089Y916940D01*
X529430Y905172D01*
X536096Y895196D01*
X546072Y888530D01*
X557840Y886189D01*
X569608Y888530D01*
X579584Y895196D01*
X586250Y905172D01*
X588591Y916940D01*
X586250Y928708D01*
X579584Y938684D01*
X569608Y945350D01*
X557840Y947691D01*
D02*
G37*
G36*
X1766000Y1024960D02*
X1595680D01*
Y854640D01*
X1766000D01*
Y1024960D01*
D02*
G37*
G36*
X1426840Y1025695D02*
X1404609Y1022768D01*
X1383893Y1014187D01*
X1366103Y1000537D01*
X1352453Y982747D01*
X1343872Y962031D01*
X1340945Y939800D01*
X1343872Y917569D01*
X1352453Y896853D01*
X1366103Y879063D01*
X1383893Y865413D01*
X1404609Y856832D01*
X1426840Y853905D01*
X1449071Y856832D01*
X1469787Y865413D01*
X1487577Y879063D01*
X1501227Y896853D01*
X1509808Y917569D01*
X1512735Y939800D01*
X1509808Y962031D01*
X1501227Y982747D01*
X1487577Y1000537D01*
X1469787Y1014187D01*
X1449071Y1022768D01*
X1426840Y1025695D01*
D02*
G37*
G36*
X4765094Y874056D02*
X4753326Y871716D01*
X4743350Y865050D01*
X4736684Y855073D01*
X4734343Y843306D01*
X4736684Y831538D01*
X4743350Y821561D01*
X4753326Y814896D01*
X4765094Y812555D01*
X4776862Y814896D01*
X4786838Y821561D01*
X4793504Y831538D01*
X4795845Y843306D01*
X4793504Y855073D01*
X4786838Y865050D01*
X4776862Y871716D01*
X4765094Y874056D01*
D02*
G37*
G36*
X5801199Y1161842D02*
X5769664Y1157691D01*
X5740278Y1145519D01*
X5715044Y1126156D01*
X5695681Y1100921D01*
X5683509Y1071535D01*
X5679357Y1040000D01*
Y870000D01*
X5683509Y838465D01*
X5695681Y809079D01*
X5715044Y783845D01*
X5740278Y764482D01*
X5769664Y752309D01*
X5801199Y748158D01*
X5832735Y752309D01*
X5862121Y764482D01*
X5887355Y783845D01*
X5906718Y809079D01*
X5918890Y838465D01*
X5923042Y870000D01*
Y1040000D01*
X5918890Y1071535D01*
X5906718Y1100921D01*
X5887355Y1126156D01*
X5862121Y1145519D01*
X5832735Y1157691D01*
X5801199Y1161842D01*
D02*
G37*
G36*
X365440Y802911D02*
X353672Y800570D01*
X343696Y793904D01*
X337030Y783928D01*
X334689Y772160D01*
X337030Y760392D01*
X343696Y750416D01*
X353672Y743750D01*
X365440Y741409D01*
X377208Y743750D01*
X387184Y750416D01*
X393850Y760392D01*
X396191Y772160D01*
X393850Y783928D01*
X387184Y793904D01*
X377208Y800570D01*
X365440Y802911D01*
D02*
G37*
G36*
X941700Y764811D02*
X929932Y762470D01*
X919956Y755804D01*
X913290Y745828D01*
X910949Y734060D01*
X913290Y722292D01*
X919956Y712316D01*
X929932Y705650D01*
X941700Y703309D01*
X953468Y705650D01*
X963444Y712316D01*
X970110Y722292D01*
X972451Y734060D01*
X970110Y745828D01*
X963444Y755804D01*
X953468Y762470D01*
X941700Y764811D01*
D02*
G37*
G36*
X6551183Y490143D02*
X6539415Y487802D01*
X6529439Y481137D01*
X6522773Y471160D01*
X6520432Y459393D01*
X6522773Y447625D01*
X6529439Y437648D01*
X6539415Y430983D01*
X6551183Y428642D01*
X6562951Y430983D01*
X6572927Y437648D01*
X6579593Y447625D01*
X6581934Y459393D01*
X6579593Y471160D01*
X6572927Y481137D01*
X6562951Y487802D01*
X6551183Y490143D01*
D02*
G37*
G36*
X6748711Y487408D02*
X6736943Y485067D01*
X6726966Y478402D01*
X6720301Y468425D01*
X6717960Y456657D01*
X6720301Y444890D01*
X6726966Y434913D01*
X6736943Y428248D01*
X6748711Y425907D01*
X6760478Y428248D01*
X6770455Y434913D01*
X6777121Y444890D01*
X6779461Y456657D01*
X6777121Y468425D01*
X6770455Y478402D01*
X6760478Y485067D01*
X6748711Y487408D01*
D02*
G37*
G36*
X6657169D02*
X6645401Y485067D01*
X6635425Y478402D01*
X6628759Y468425D01*
X6626418Y456657D01*
X6628759Y444890D01*
X6635425Y434913D01*
X6645401Y428248D01*
X6657169Y425907D01*
X6668937Y428248D01*
X6678913Y434913D01*
X6685579Y444890D01*
X6687920Y456657D01*
X6685579Y468425D01*
X6678913Y478402D01*
X6668937Y485067D01*
X6657169Y487408D01*
D02*
G37*
G36*
X6041202Y510449D02*
Y410836D01*
X6140815D01*
X6138366Y429433D01*
X6127267Y456231D01*
X6109609Y479243D01*
X6086597Y496900D01*
X6059800Y508000D01*
X6041202Y510449D01*
D02*
G37*
G36*
X7135000Y676669D02*
X7108686Y673205D01*
X7084165Y663048D01*
X7063109Y646891D01*
X7046951Y625835D01*
X7036794Y601314D01*
X7033330Y575000D01*
Y505000D01*
X7036794Y478686D01*
X7046951Y454165D01*
X7063109Y433109D01*
X7084165Y416952D01*
X7108686Y406795D01*
X7135000Y403330D01*
X7161314Y406795D01*
X7185834Y416952D01*
X7206891Y433109D01*
X7223048Y454165D01*
X7233205Y478686D01*
X7236669Y505000D01*
Y575000D01*
X7233205Y601314D01*
X7223048Y625835D01*
X7206891Y646891D01*
X7185834Y663048D01*
X7161314Y673205D01*
X7135000Y676669D01*
D02*
G37*
G36*
X6271000D02*
X6244686Y673205D01*
X6220165Y663048D01*
X6199109Y646891D01*
X6182952Y625835D01*
X6172795Y601314D01*
X6169330Y575000D01*
Y505000D01*
X6172795Y478686D01*
X6182952Y454165D01*
X6199109Y433109D01*
X6220165Y416952D01*
X6244686Y406795D01*
X6271000Y403330D01*
X6297314Y406795D01*
X6321835Y416952D01*
X6342891Y433109D01*
X6359048Y454165D01*
X6369205Y478686D01*
X6372669Y505000D01*
Y575000D01*
X6369205Y601314D01*
X6359048Y625835D01*
X6342891Y646891D01*
X6321835Y663048D01*
X6297314Y673205D01*
X6271000Y676669D01*
D02*
G37*
G36*
X7098660Y371111D02*
X7086892Y368770D01*
X7076916Y362104D01*
X7070250Y352128D01*
X7067909Y340360D01*
X7070250Y328592D01*
X7076916Y318616D01*
X7086892Y311950D01*
X7098660Y309609D01*
X7110428Y311950D01*
X7120404Y318616D01*
X7127070Y328592D01*
X7129411Y340360D01*
X7127070Y352128D01*
X7120404Y362104D01*
X7110428Y368770D01*
X7098660Y371111D01*
D02*
G37*
G36*
X5801199Y511843D02*
X5769664Y507691D01*
X5740278Y495519D01*
X5715044Y476156D01*
X5695681Y450921D01*
X5683509Y421535D01*
X5679357Y390000D01*
Y320000D01*
X5683509Y288465D01*
X5695681Y259079D01*
X5715044Y233844D01*
X5740278Y214481D01*
X5769664Y202309D01*
X5801199Y198158D01*
X5832735Y202309D01*
X5862121Y214481D01*
X5887355Y233844D01*
X5906718Y259079D01*
X5918890Y288465D01*
X5923042Y320000D01*
Y340363D01*
X5931693Y343858D01*
X5935742Y343916D01*
X5952475Y322109D01*
X5975487Y304451D01*
X6002284Y293351D01*
X6020882Y290903D01*
Y400676D01*
Y510449D01*
X6002284Y508000D01*
X5975487Y496900D01*
X5952475Y479243D01*
X5934817Y456231D01*
X5926541Y436250D01*
X5912795D01*
X5906718Y450921D01*
X5887355Y476156D01*
X5862121Y495519D01*
X5832735Y507691D01*
X5801199Y511843D01*
D02*
G37*
G36*
X6140815Y390516D02*
X6041202D01*
Y290903D01*
X6059800Y293351D01*
X6086597Y304451D01*
X6109609Y322109D01*
X6127267Y345120D01*
X6138366Y371918D01*
X6140815Y390516D01*
D02*
G37*
G36*
X3930000Y356241D02*
X3908477Y351959D01*
X3890231Y339768D01*
X3878040Y321522D01*
X3873759Y300000D01*
X3878040Y278477D01*
X3890231Y260232D01*
X3908477Y248040D01*
X3930000Y243759D01*
X3951522Y248040D01*
X3969768Y260232D01*
X3981959Y278477D01*
X3986240Y300000D01*
X3981959Y321522D01*
X3969768Y339768D01*
X3951522Y351959D01*
X3930000Y356241D01*
D02*
G37*
G36*
X3130000D02*
X3108477Y351959D01*
X3090232Y339768D01*
X3078040Y321522D01*
X3073759Y300000D01*
X3078040Y278477D01*
X3090232Y260232D01*
X3108477Y248040D01*
X3130000Y243759D01*
X3151522Y248040D01*
X3169768Y260232D01*
X3181959Y278477D01*
X3186241Y300000D01*
X3181959Y321522D01*
X3169768Y339768D01*
X3151522Y351959D01*
X3130000Y356241D01*
D02*
G37*
G36*
X4351200Y511843D02*
X4319664Y507691D01*
X4290278Y495519D01*
X4265044Y476156D01*
X4245681Y450921D01*
X4233509Y421535D01*
X4229357Y390000D01*
Y320000D01*
X4233509Y288465D01*
X4245681Y259079D01*
X4265044Y233844D01*
X4290278Y214481D01*
X4319664Y202309D01*
X4351200Y198158D01*
X4382735Y202309D01*
X4412121Y214481D01*
X4437355Y233844D01*
X4456718Y259079D01*
X4468890Y288465D01*
X4473042Y320000D01*
Y390000D01*
X4468890Y421535D01*
X4456718Y450921D01*
X4437355Y476156D01*
X4412121Y495519D01*
X4382735Y507691D01*
X4351200Y511843D01*
D02*
G37*
%LPD*%
D10*
X5803260Y2168846D02*
G03*
X5803260Y2168806I25401J0D01*
G01*
X5803372Y2098046D01*
X5803260Y2168846D02*
Y2250440D01*
X5810699Y2266734D02*
X5923267Y2379302D01*
D12*
X4959980Y5217160D02*
X5244786Y5501966D01*
X5254946D02*
X5254982Y5502002D01*
X5244786Y5501966D02*
X5254946D01*
X5254982Y5502002D02*
X6320038D01*
X6311622Y5522322D02*
X6593840Y5804540D01*
Y5854700D01*
X6320038Y5502002D02*
X6425958Y5607921D01*
X6505741D01*
X5214342Y5522322D02*
X6311622D01*
X6981820Y3416300D02*
X7070720Y3505200D01*
X6518042Y5595620D02*
X6605900D01*
X6505741Y5607921D02*
X6518042Y5595620D01*
X550540Y6611620D02*
X687700Y6474460D01*
X548000Y6614160D02*
X550540Y6611620D01*
X687700Y5736192D02*
Y6474460D01*
X681748Y5730240D02*
X687700Y5736192D01*
X560700Y5730240D02*
X681748D01*
X1951980Y4096547D02*
X2650007Y3398520D01*
X1916740Y4103050D02*
Y4650740D01*
X1881500Y4109553D02*
Y4785360D01*
X1951980Y4096547D02*
Y4902840D01*
X1843400Y5011420D02*
X1951980Y4902840D01*
X1916740Y4103050D02*
X2641590Y3378200D01*
X1881500Y4109553D02*
X2633173Y3357880D01*
X4044693Y3999613D02*
X4050660Y4005580D01*
X4044693Y3971673D02*
Y3999613D01*
X4032880Y3959860D02*
X4044693Y3971673D01*
X3609751Y3959860D02*
X4032880D01*
X3223557Y3573666D02*
X3609751Y3959860D01*
X4992036Y2522220D02*
X5076820D01*
X5031100Y2473960D02*
X5038720D01*
X4852985Y2295845D02*
X5031100Y2473960D01*
X4852985Y2278065D02*
Y2295845D01*
X4678040Y2103120D02*
X4852985Y2278065D01*
X4611036Y2141220D02*
X4992036Y2522220D01*
X4185280Y2141220D02*
X4611036D01*
X4101460Y2103120D02*
X4678040D01*
X4838060Y4500880D02*
Y5402580D01*
X4538340D02*
X4838060D01*
X4573900Y4236720D02*
X4838060Y4500880D01*
Y5402580D02*
Y6217920D01*
X4914260Y6294120D01*
X4896480Y5204460D02*
X5214342Y5522322D01*
X4535800Y3614420D02*
X4696815D01*
X4888899Y3422335D01*
X4947869D01*
X5134244Y3235960D02*
X6090280D01*
X4947869Y3422335D02*
X5134244Y3235960D01*
X4573900Y3652520D02*
Y4236720D01*
X4535800Y3614420D02*
X4573900Y3652520D01*
X1830700Y4131617D02*
Y4886180D01*
Y4131617D02*
X2624756Y3337560D01*
X1849260Y4904740D02*
X1853560D01*
X1830700Y4886180D02*
X1849260Y4904740D01*
X2650007Y3398520D02*
X3197070D01*
X3422334Y2776220D02*
X4820280D01*
X4876160Y2720340D01*
Y2461260D02*
Y2720340D01*
X4811863Y2755900D02*
X4838060Y2729703D01*
Y2501900D02*
Y2729703D01*
X3413917Y2755900D02*
X4811863D01*
X3430750Y2796540D02*
X4848220D01*
X4919340Y2725420D01*
X3197070Y3398520D02*
X3306440Y3289150D01*
X3188654Y3378200D02*
X3286120Y3280734D01*
Y2912434D02*
Y3280734D01*
X3265800Y2904017D02*
Y3272317D01*
X3180237Y3357880D02*
X3265800Y3272317D01*
X3171820Y3337560D02*
X3245480Y3263900D01*
Y2895600D02*
Y3263900D01*
X2624756Y3337560D02*
X3171820D01*
X2633173Y3357880D02*
X3180237D01*
X2641590Y3378200D02*
X3188654D01*
X3306440Y2920850D02*
Y3289150D01*
Y2920850D02*
X3430750Y2796540D01*
X3286120Y2912434D02*
X3422334Y2776220D01*
X4784720Y2735580D02*
X4797420Y2722880D01*
X3405500Y2735580D02*
X4784720D01*
X4797420Y2453640D02*
Y2722880D01*
X3265800Y2904017D02*
X3413917Y2755900D01*
X3245480Y2895600D02*
X3405500Y2735580D01*
X4876160Y2461260D02*
X4878700Y2458720D01*
X4919340Y2522220D02*
Y2725420D01*
X5725444Y6659412D02*
Y6769457D01*
X5692146Y6802755D02*
X5725444Y6769457D01*
X5692146Y6802755D02*
Y6885262D01*
X5605140Y1435100D02*
X5671180Y1501140D01*
Y1788895D01*
X5147940Y1435100D02*
X5605140D01*
X5671180Y1788895D02*
X5731405Y1849120D01*
X5897363Y1998980D02*
X5963071D01*
X5731405Y1909345D02*
X5808340Y1986280D01*
X5884663D01*
X5897363Y1998980D01*
X5731405Y1849120D02*
Y1909345D01*
X5963071Y1998980D02*
X5980851Y1981200D01*
X6247760Y3488482D02*
Y4409440D01*
X6127110Y3275330D02*
Y3367832D01*
X6247760Y3488482D01*
X6091550Y3237230D02*
X6128380Y3274060D01*
X6087740Y3225800D02*
X6230911D01*
X6324081Y3057550D02*
X6349171Y3032461D01*
Y2669729D02*
X6354440Y2664460D01*
X6349171Y2669729D02*
Y3032461D01*
X6100440Y2402840D02*
X6354440Y2656840D01*
Y2664460D01*
X6324081Y3057550D02*
Y3152019D01*
X6230911Y3225800D02*
X6269369Y3187342D01*
X6288758D01*
X6324081Y3152019D01*
X6100440Y2219960D02*
Y2402840D01*
X5980851Y1981200D02*
X6114808D01*
X6120760Y1987152D01*
X6100440Y2211885D02*
X6120760Y2191565D01*
X6100440Y2211885D02*
Y2219960D01*
X6120760Y1987152D02*
Y2191565D01*
X6128380Y3274060D02*
X6382380D01*
X6443340Y3213100D01*
X6887840D01*
X6981820Y3307080D01*
Y3416300D01*
X4642804Y6684924D02*
X4848567Y6479161D01*
X4845642Y6372083D02*
Y6476235D01*
X4848567Y6479161D01*
X4612646Y7103702D02*
X4615186D01*
X4642804Y6693720D02*
X4669526Y6720442D01*
X4642804Y6684924D02*
Y6693720D01*
X4531366Y7022422D02*
X4612646Y7103702D01*
X4531366Y6754145D02*
X4600587Y6684924D01*
X4642804D01*
X4531366Y6754145D02*
Y7022422D01*
D68*
X2340890Y6451950D02*
G03*
X2282253Y6343029I378647J-274086D01*
G01*
X2341947Y6453405D02*
G03*
X2340890Y6451950I377590J-275541D01*
G01*
X2121445Y6169505D02*
G03*
X2282252Y6343029I-135185J286552D01*
G01*
X2121305Y6169439D02*
G03*
X2092320Y6123722I21815J-45878D01*
G01*
X2121305Y6169439D02*
X2121445Y6169505D01*
X1896276Y6630047D02*
X2162792D01*
X2340890Y6451950D01*
X2092320Y5225912D02*
Y6123722D01*
X1485002Y7025003D02*
Y7044013D01*
X1512349Y7071360D01*
X3527062Y988060D02*
X4318140D01*
X4351200Y955000D01*
D69*
X3273420Y5217160D02*
X3278500D01*
D72*
X2120260Y5267960D02*
X3082920D01*
X2094860Y5242560D02*
X2120260Y5267960D01*
D80*
X2559880Y6239622D02*
G03*
X2555627Y6239503I1J-76201D01*
G01*
X2636081Y6239623D02*
X2655238Y6477360D01*
X2301500Y6225593D02*
X2555627Y6239503D01*
X2559880Y6239622D02*
X2604517Y6239622D01*
X2604518Y6239622D02*
X2637911D01*
X5988878Y2527420D02*
Y2883020D01*
X5637191Y2884742D02*
X5992790D01*
X5741343Y3136189D02*
X5992790Y2884742D01*
Y2874582D02*
X6244237Y3126029D01*
X5997871Y2879662D02*
X6249318Y2628215D01*
X2386464Y3131109D02*
X2637911Y2879662D01*
X2889358Y3131109D01*
X2637911Y2879662D02*
X2889358Y2628215D01*
X2637263Y6238440D02*
X2888710Y6489887D01*
X2636081Y6239622D02*
X2887528Y5988175D01*
X2636081Y6238440D02*
X2991681D01*
X2636081Y5881997D02*
Y6237597D01*
D81*
X7207969Y1627912D02*
D03*
D82*
X571380Y182880D02*
D03*
X1271380D02*
D03*
D83*
X698880Y392880D02*
D03*
X1143880D02*
D03*
D84*
X1426840Y939800D02*
D03*
D85*
X1680840D02*
D03*
D87*
X240660Y1218540D02*
D03*
Y1018540D02*
D03*
X238120Y1643380D02*
D03*
Y1843380D02*
D03*
D88*
X2023000Y1060000D02*
D03*
X2603000D02*
D03*
Y1760000D02*
D03*
X2023000D02*
D03*
D89*
X6031042Y400676D02*
D03*
Y146676D02*
D03*
X6698000Y7023000D02*
D03*
X6444000D02*
D03*
X6190000D02*
D03*
X5936000D02*
D03*
Y6769000D02*
D03*
X6190000D02*
D03*
X6444000D02*
D03*
X6698000D02*
D03*
X2400080Y7023000D02*
D03*
X2146080D02*
D03*
X1892080D02*
D03*
Y6769000D02*
D03*
X2146080D02*
D03*
X2400080D02*
D03*
D90*
X6271000Y159500D02*
D03*
X7135000Y160000D02*
D03*
Y540000D02*
D03*
X6271000D02*
D03*
D91*
X2637911Y2879662D02*
D03*
Y6239622D02*
D03*
X5997871Y2879662D02*
D03*
D92*
X7184552Y6880000D02*
D03*
Y1080000D02*
D03*
D93*
X1485002Y7025003D02*
D03*
X765002D02*
D03*
D94*
X880002Y6760003D02*
D03*
X1370002D02*
D03*
D95*
X7341000Y3882500D02*
D03*
Y3755500D02*
D03*
X7214000D02*
D03*
Y3628500D02*
D03*
Y3882500D02*
D03*
Y4009500D02*
D03*
X7341000Y3628500D02*
D03*
Y4009500D02*
D03*
X7214000Y4136500D02*
D03*
X7341000D02*
D03*
D96*
X4351200Y955000D02*
D03*
D97*
X5801199D02*
D03*
D98*
Y355000D02*
D03*
X4351200D02*
D03*
D99*
X2313000Y1110000D02*
D03*
Y1310000D02*
D03*
Y1510000D02*
D03*
Y1710000D02*
D03*
D100*
X7305000Y2253000D02*
D03*
Y2453000D02*
D03*
D101*
X7208300Y1627000D02*
D03*
Y1881000D02*
D03*
D102*
X1722120Y6626142D02*
D03*
X1816137Y6627772D02*
D03*
X3776980Y6718300D02*
D03*
X3238500Y6418580D02*
D03*
X4412300Y5973437D02*
D03*
X4323080Y6040120D02*
D03*
X4048760Y6009640D02*
D03*
X3459480Y7038340D02*
D03*
X3698240Y7033260D02*
D03*
X3604260Y6390640D02*
D03*
X3172460Y7020560D02*
D03*
X2974340Y7030720D02*
D03*
X3281680Y7040880D02*
D03*
X997580Y3385820D02*
D03*
X736600Y3799840D02*
D03*
X365440Y772160D02*
D03*
X557840Y916940D02*
D03*
Y478785D02*
D03*
X97579Y773718D02*
D03*
X6593840Y5854700D02*
D03*
X1064260Y4175760D02*
D03*
X698500Y1653540D02*
D03*
X1359959Y2176460D02*
D03*
X2151949Y6491769D02*
D03*
X2190929Y6523337D02*
D03*
X2272533Y6604942D02*
D03*
X1679783Y6367433D02*
D03*
X1840716Y6365213D02*
D03*
X1593103Y6639213D02*
D03*
X1638823D02*
D03*
X1560083Y6898293D02*
D03*
X1712483Y6745893D02*
D03*
X1670680Y7104380D02*
D03*
X494660Y4099560D02*
D03*
X3082920Y5267960D02*
D03*
X1200780Y3093720D02*
D03*
X1256660Y3197860D02*
D03*
X700400Y4259580D02*
D03*
X7033783Y662593D02*
D03*
X6932183Y713393D02*
D03*
X6982983D02*
D03*
X6792483Y878493D02*
D03*
X7033783Y713393D02*
D03*
X7070720Y3505200D02*
D03*
X7352660Y3268980D02*
D03*
X6982983Y662593D02*
D03*
X6935836Y662150D02*
D03*
X6792483Y776893D02*
D03*
Y827693D02*
D03*
X590860Y2346960D02*
D03*
X494660Y5577840D02*
D03*
X948479Y1807498D02*
D03*
X951019Y1253778D02*
D03*
X1144059Y623858D02*
D03*
X905299Y654338D02*
D03*
X1101720Y1864360D02*
D03*
X1282060Y1356360D02*
D03*
X1619880Y1219200D02*
D03*
X847720Y1369060D02*
D03*
X941700Y734060D02*
D03*
X1855259Y298738D02*
D03*
X1906059D02*
D03*
X1216020Y2456180D02*
D03*
X3843026Y6588082D02*
D03*
X6605900Y5595620D02*
D03*
X560700Y5730240D02*
D03*
X2770500Y2501900D02*
D03*
X2585080Y3741420D02*
D03*
X2889880Y3792220D02*
D03*
X2836540Y2476500D02*
D03*
X2458080Y4160520D02*
D03*
X2732400Y4147820D02*
D03*
X5076820Y2522220D02*
D03*
X5038720Y2473960D02*
D03*
X4185280Y2141220D02*
D03*
X3991018Y1918450D02*
D03*
X4959980Y5217160D02*
D03*
X4101460Y2103120D02*
D03*
X4896480Y5204460D02*
D03*
X5064120Y2783840D02*
D03*
X4030986Y6278202D02*
D03*
X781680Y5146040D02*
D03*
X771520Y5024120D02*
D03*
X779140Y4884420D02*
D03*
X784220Y4762500D02*
D03*
X1916740Y4650740D02*
D03*
X1853560Y4904740D02*
D03*
X1881500Y4785360D02*
D03*
X1843400Y5011420D02*
D03*
X4797420Y2453640D02*
D03*
X4838060Y2501900D02*
D03*
X4878700Y2458720D02*
D03*
X4919340Y2522220D02*
D03*
X873120Y4368800D02*
D03*
X786760Y4513580D02*
D03*
Y4645660D02*
D03*
X550540Y6611620D02*
D03*
X575940Y6822440D02*
D03*
X553080Y6700520D02*
D03*
X509900Y6824980D02*
D03*
X3677280Y4488180D02*
D03*
X3969380Y5214620D02*
D03*
X3951600Y4958080D02*
D03*
X2094860Y5242560D02*
D03*
X5803372Y2098046D02*
D03*
X2933060Y4978400D02*
D03*
X4774560Y5732780D02*
D03*
X2811140Y2108200D02*
D03*
X5493380Y2110740D02*
D03*
X5860884Y1779236D02*
D03*
X4119082Y1816770D02*
D03*
X6359011Y6649022D02*
D03*
X4986172Y6034282D02*
D03*
X5923267Y2379302D02*
D03*
X4727591Y1958034D02*
D03*
X4807733Y2012428D02*
D03*
X5222891Y1996134D02*
D03*
X5492854Y7010042D02*
D03*
X5692146Y6885262D02*
D03*
X5714212Y6640106D02*
D03*
X5481326Y6676982D02*
D03*
X5299220Y6669799D02*
D03*
X5001266Y6689682D02*
D03*
X5479610Y2244078D02*
D03*
X3051897Y3100029D02*
D03*
X3032120Y2252980D02*
D03*
X3324220Y2621280D02*
D03*
X3084279Y1676492D02*
D03*
X5653400Y1399540D02*
D03*
X5165187Y1564542D02*
D03*
X6246383Y1399193D02*
D03*
Y1449993D02*
D03*
Y1348393D02*
D03*
X5323200Y1503680D02*
D03*
X3527062Y988060D02*
D03*
X5810880Y1986280D02*
D03*
X6247760Y4409440D02*
D03*
X6121318Y3975536D02*
D03*
X5888606Y4449737D02*
D03*
X4535800Y5402580D02*
D03*
Y3614420D02*
D03*
X6354440Y2664460D02*
D03*
X6560180Y3065780D02*
D03*
X5147940Y1435100D02*
D03*
X6100440Y2219960D02*
D03*
X5859140Y6563360D02*
D03*
X4914260Y6294120D02*
D03*
X6090280Y3235960D02*
D03*
X4835337Y3327720D02*
D03*
X1896276Y6630047D02*
D03*
X2025195Y6687488D02*
D03*
X1840716Y6300776D02*
D03*
X1791858Y6312131D02*
D03*
X2329450Y6647960D02*
D03*
X4598791Y6254862D02*
D03*
X2272660Y6677660D02*
D03*
X3745860Y1493520D02*
D03*
X1998340Y3487420D02*
D03*
X1264280Y2877820D02*
D03*
X6478900Y381000D02*
D03*
X6392540Y363220D02*
D03*
X6433180Y386080D02*
D03*
X6448420Y337820D02*
D03*
X5589900Y546100D02*
D03*
X4624700Y1203960D02*
D03*
X3993531Y385774D02*
D03*
X2178680Y1173480D02*
D03*
X7030130Y434435D02*
D03*
X1868800Y2689860D02*
D03*
X2526660Y1953260D02*
D03*
X6565260Y5275580D02*
D03*
Y5224780D02*
D03*
X6726858Y5140981D02*
D03*
X6491600Y4874260D02*
D03*
X6843411Y4711394D02*
D03*
X7131680Y4627880D02*
D03*
X7047860Y4706620D02*
D03*
X6842120Y3124200D02*
D03*
X6654160Y3048000D02*
D03*
X6518291Y2257754D02*
D03*
X4945367Y1565627D02*
D03*
X6809100Y2341880D02*
D03*
X6712580Y2397760D02*
D03*
X1876420Y2458720D02*
D03*
X2026280Y2529840D02*
D03*
X2803520Y1577340D02*
D03*
X2704460Y1557020D02*
D03*
X2437760Y1544320D02*
D03*
X2196460Y1866900D02*
D03*
X2191380Y1978660D02*
D03*
X2773040Y1160780D02*
D03*
X2503800Y1374140D02*
D03*
X1655440Y3436620D02*
D03*
X1871340Y3335020D02*
D03*
X2138942Y3324809D02*
D03*
X2044060Y3192780D02*
D03*
Y3093022D02*
D03*
X1863720Y3042920D02*
D03*
X2219320Y2969260D02*
D03*
X1609720Y2593340D02*
D03*
X1005200Y2943860D02*
D03*
X1020440Y2893060D02*
D03*
X997580Y2994660D02*
D03*
X2046600Y2641600D02*
D03*
X1556380Y2583180D02*
D03*
X1604640Y3248660D02*
D03*
X1706240D02*
D03*
X1868800Y2991422D02*
D03*
Y2841562D02*
D03*
Y2742502D02*
D03*
X1200780Y2790762D02*
D03*
X7098660Y340360D02*
D03*
X5525308Y864490D02*
D03*
X5274940Y828040D02*
D03*
X5147940Y866140D02*
D03*
X5026020Y868680D02*
D03*
X6322322Y4816436D02*
D03*
X5910954Y5117987D02*
D03*
X3646800Y1498600D02*
D03*
X1383660Y5417820D02*
D03*
X919344Y5420636D02*
D03*
X4695250Y6244847D02*
D03*
X4031772Y1693310D02*
D03*
X4082033Y1550348D02*
D03*
X6595213Y5055638D02*
D03*
X3700146Y1653595D02*
D03*
X3506255Y1710981D02*
D03*
X4535666Y6114676D02*
D03*
X6932183Y433993D02*
D03*
X6982983D02*
D03*
X6932183Y383193D02*
D03*
X6982983D02*
D03*
X7033783D02*
D03*
X6551183Y459393D02*
D03*
X6471330Y434435D02*
D03*
X6424183Y433993D02*
D03*
X6690883Y827693D02*
D03*
X6741683Y776893D02*
D03*
Y827693D02*
D03*
Y878493D02*
D03*
X6690883D02*
D03*
X3429719Y1504392D02*
D03*
X3323039D02*
D03*
X2245077Y6891309D02*
D03*
X1463354Y5985265D02*
D03*
X3748597Y1905998D02*
D03*
X4605136Y2522787D02*
D03*
X4553887Y2466183D02*
D03*
X4950447Y2050767D02*
D03*
X5696165Y1886689D02*
D03*
X4953670Y2154224D02*
D03*
X4677911Y2593771D02*
D03*
X4955245Y2204359D02*
D03*
X4739627Y2523291D02*
D03*
X4954006Y2102722D02*
D03*
X4624367Y2453770D02*
D03*
X4661902Y2494663D02*
D03*
X5693738Y2124087D02*
D03*
X6500383Y1373793D02*
D03*
Y1424593D02*
D03*
X6373383Y1373793D02*
D03*
Y1424593D02*
D03*
X6627383Y1348393D02*
D03*
Y1399193D02*
D03*
Y1449993D02*
D03*
Y1500793D02*
D03*
X6246383D02*
D03*
X6183187Y1216570D02*
D03*
X6439843D02*
D03*
X6313735D02*
D03*
X2510239Y4934992D02*
D03*
X3969256Y1566451D02*
D03*
X3869139Y1551712D02*
D03*
X3208739Y1504392D02*
D03*
X4626731Y6414882D02*
D03*
X1240911Y5706222D02*
D03*
X2549520Y4262120D02*
D03*
X5842484Y3318645D02*
D03*
X6174084Y4213935D02*
D03*
X5853551Y4220322D02*
D03*
X5903763Y3490617D02*
D03*
X5559522Y4290458D02*
D03*
X5611577Y4407757D02*
D03*
X5332180Y4318111D02*
D03*
X4765094Y843306D02*
D03*
X4676791Y776934D02*
D03*
X3565896Y6081900D02*
D03*
X1193335Y6632750D02*
D03*
X1117135D02*
D03*
X4743667Y2035627D02*
D03*
X5228714Y3306097D02*
D03*
X4130600Y6368200D02*
D03*
X4066866Y6409754D02*
D03*
X4009588Y6428134D02*
D03*
X3541691Y6316282D02*
D03*
X5900716Y4221939D02*
D03*
X5161286Y3898222D02*
D03*
X5250186Y3982042D02*
D03*
X5221703Y4216694D02*
D03*
X5662220Y4399700D02*
D03*
X4737728Y3686596D02*
D03*
Y3736756D02*
D03*
X4732007Y3824560D02*
D03*
X4892824Y3779616D02*
D03*
X5459572Y3946482D02*
D03*
X5875007Y3363947D02*
D03*
X6004458Y3272206D02*
D03*
X5470357Y3299790D02*
D03*
X5344984Y3163661D02*
D03*
X5182991Y5683362D02*
D03*
X5122031Y5685902D02*
D03*
X5246491D02*
D03*
X2911685Y3573666D02*
D03*
X2860885D02*
D03*
X6574893Y5324878D02*
D03*
X1651334Y3696147D02*
D03*
X1809958Y5077534D02*
D03*
X3564503Y2587562D02*
D03*
X6825528Y5068292D02*
D03*
X6876328D02*
D03*
X4239808Y5613900D02*
D03*
X6881992Y6628857D02*
D03*
X5934096Y1433116D02*
D03*
Y1483300D02*
D03*
X5786000D02*
D03*
X5887600Y1381700D02*
D03*
Y1432500D02*
D03*
X5836800Y1381700D02*
D03*
X5252093Y1189660D02*
D03*
X3565011Y3041132D02*
D03*
X2365016Y2551147D02*
D03*
X6355971Y5924662D02*
D03*
X6574411Y5475082D02*
D03*
X6353431Y5630022D02*
D03*
Y5777342D02*
D03*
X6350891Y6226922D02*
D03*
Y6077062D02*
D03*
X5013646Y6747429D02*
D03*
X4993970Y6619997D02*
D03*
X4939388Y6784758D02*
D03*
X5296111Y6614326D02*
D03*
X4170097Y3109661D02*
D03*
X5786000Y1381700D02*
D03*
X3801231Y2604882D02*
D03*
X4993151Y2618482D02*
D03*
X4758811Y2612502D02*
D03*
X6572371Y3491342D02*
D03*
Y3648822D02*
D03*
X6620631Y3798682D02*
D03*
X6572371Y3946002D02*
D03*
Y4098158D02*
D03*
X6621349Y4100942D02*
D03*
Y4240251D02*
D03*
X6319507Y3378014D02*
D03*
X5062226Y4766902D02*
D03*
X3920611Y3064622D02*
D03*
X4033846Y3204494D02*
D03*
X4897107Y3583260D02*
D03*
X6586847Y3997760D02*
D03*
Y4047920D02*
D03*
X1871340Y3817620D02*
D03*
X5162671Y2960942D02*
D03*
X4997740Y3043040D02*
D03*
X4877235Y3043779D02*
D03*
X3793611Y3036748D02*
D03*
X4519354Y2592060D02*
D03*
X5505386Y1554445D02*
D03*
X621151Y7098922D02*
D03*
X3363088Y3048822D02*
D03*
X4810687Y2874630D02*
D03*
X4980262Y2840535D02*
D03*
X4921842Y2860855D02*
D03*
X6174083Y3893981D02*
D03*
X4075645Y2389902D02*
D03*
X6174083Y4051998D02*
D03*
X3430862Y1025383D02*
D03*
X6174083Y3843821D02*
D03*
X3314234Y1905847D02*
D03*
X6174083Y3567291D02*
D03*
X3079268Y3148091D02*
D03*
X2992107Y3224247D02*
D03*
X4180482Y2433241D02*
D03*
X4038480Y2242760D02*
D03*
X4394657Y2361743D02*
D03*
X5046893Y2831410D02*
D03*
X6174084Y4163776D02*
D03*
X6174083Y4001838D02*
D03*
X5110486Y3209882D02*
D03*
X6174083Y3517131D02*
D03*
Y3683265D02*
D03*
Y3733425D02*
D03*
X5255574Y6269682D02*
D03*
X4687207Y6053137D02*
D03*
X6384411Y2739962D02*
D03*
X1921763Y548075D02*
D03*
X4276720Y2588260D02*
D03*
X511931Y7101142D02*
D03*
X956317Y6477942D02*
D03*
X4290066Y3209882D02*
D03*
X5627962Y2701783D02*
D03*
X7084431Y3072515D02*
D03*
X6400787Y2466685D02*
D03*
X5635334Y2518713D02*
D03*
X7283773Y2973542D02*
D03*
X6842766Y2783162D02*
D03*
X5719920Y2634156D02*
D03*
X5692740Y2683909D02*
D03*
X5721942Y2582403D02*
D03*
X5694002Y2536683D02*
D03*
X5239234Y2414822D02*
D03*
X6420442Y2181083D02*
D03*
X4777056Y3122555D02*
D03*
X4406906Y3143842D02*
D03*
X4170097Y3527536D02*
D03*
X4047226Y3850242D02*
D03*
Y4006913D02*
D03*
X4046226Y3529922D02*
D03*
X4047226Y4054722D02*
D03*
Y3799442D02*
D03*
Y3901042D02*
D03*
Y4104242D02*
D03*
X3677280Y3058160D02*
D03*
X3207377Y3103753D02*
D03*
X4735256Y6384752D02*
D03*
X4726728Y6094752D02*
D03*
X4845642Y6372083D02*
D03*
X4673211Y6308872D02*
D03*
X4683801Y6383101D02*
D03*
X4619582Y6339063D02*
D03*
X4568908Y6362049D02*
D03*
X4414185Y6383534D02*
D03*
X4364026Y6383326D02*
D03*
X4623191Y7045728D02*
D03*
X5166366Y6113102D02*
D03*
X4171968Y6593707D02*
D03*
X5201926Y6269682D02*
D03*
X4934599Y5910714D02*
D03*
X4647207Y6013137D02*
D03*
X5005018Y6932174D02*
D03*
X5001953Y7026613D02*
D03*
X4817796Y6693320D02*
D03*
X4813181Y7024144D02*
D03*
X5219733Y6113102D02*
D03*
X5483847Y6112227D02*
D03*
X6409628Y6302300D02*
D03*
X4645344Y5961548D02*
D03*
X5191456Y6943206D02*
D03*
X4254577Y6374783D02*
D03*
X4058926Y6572842D02*
D03*
X4625146Y6847482D02*
D03*
X4307846Y6371862D02*
D03*
X4438419Y7048437D02*
D03*
X4432859Y6851434D02*
D03*
X6359321Y3072147D02*
D03*
X5388177Y6067097D02*
D03*
X5666446Y6099179D02*
D03*
X5649448Y6151814D02*
D03*
X3496413Y1997478D02*
D03*
X4622806Y7103702D02*
D03*
X5392047Y4663141D02*
D03*
X4849778Y4120872D02*
D03*
X4803531Y3606539D02*
D03*
Y3656699D02*
D03*
X6292633Y3431058D02*
D03*
X6175145Y3792394D02*
D03*
X880213Y6478038D02*
D03*
X816713D02*
D03*
X791313Y6376438D02*
D03*
X5269880Y6350322D02*
D03*
X5158120D02*
D03*
X5154718Y6269682D02*
D03*
X5214000Y6350322D02*
D03*
X5438856Y6016013D02*
D03*
X5389947Y6018211D02*
D03*
X5484511Y6016954D02*
D03*
X5298446Y7116402D02*
D03*
X4549791Y510234D02*
D03*
X4651391Y586434D02*
D03*
X4600591Y573734D02*
D03*
X4549791D02*
D03*
X4676791Y624534D02*
D03*
Y675334D02*
D03*
Y726134D02*
D03*
X4625991Y827734D02*
D03*
X4575191D02*
D03*
X4524391D02*
D03*
X6602111Y2135834D02*
D03*
X6652911D02*
D03*
X6706251D02*
D03*
X6602111Y2184094D02*
D03*
X6652911D02*
D03*
X6706251D02*
D03*
Y2229814D02*
D03*
X6652911D02*
D03*
X6602111D02*
D03*
X5721213Y6441659D02*
D03*
X5278771Y6819594D02*
D03*
X2483480Y502920D02*
D03*
X2991480Y822960D02*
D03*
X4283091Y1792934D02*
D03*
Y1843734D02*
D03*
X6217749Y5112310D02*
D03*
X6124591Y5107634D02*
D03*
X5945885Y5557562D02*
D03*
X5316226Y6278663D02*
D03*
X4804214Y1568354D02*
D03*
X4851280Y1800800D02*
D03*
X1865011Y815034D02*
D03*
Y766774D02*
D03*
X1889120Y515620D02*
D03*
X5590546Y5297762D02*
D03*
X5618486Y5056638D02*
D03*
X5163826Y6062302D02*
D03*
X4325626Y2239602D02*
D03*
X6065609Y6856447D02*
D03*
X7074329Y3427200D02*
D03*
X4544546Y6055151D02*
D03*
X5786000Y1432500D02*
D03*
X5836800D02*
D03*
X5887600Y1483300D02*
D03*
X5836800D02*
D03*
X6657169Y456657D02*
D03*
X6748711D02*
D03*
X4829478Y2084587D02*
D03*
X5519407Y2790780D02*
D03*
Y2739980D02*
D03*
Y2894947D02*
D03*
Y2843247D02*
D03*
X5516867Y2999060D02*
D03*
Y2948260D02*
D03*
X5514327Y3100980D02*
D03*
X5515229Y3050828D02*
D03*
X6198295Y5388285D02*
D03*
X4811388Y3896699D02*
D03*
Y3846539D02*
D03*
X6586847Y3595800D02*
D03*
X6560807Y2980407D02*
D03*
X3099806Y3291442D02*
D03*
X4669526Y6720442D02*
D03*
X5690204Y6709621D02*
D03*
X5797286Y1825862D02*
D03*
X5175936Y2016082D02*
D03*
X3410580Y4178300D02*
D03*
X3223557Y3573666D02*
D03*
X3329300Y5425440D02*
D03*
X2901686Y4713842D02*
D03*
X3193786Y6042262D02*
D03*
X2514606Y5884502D02*
D03*
X2520956Y5833702D02*
D03*
X2580646D02*
D03*
X3393822Y3194642D02*
D03*
X6569924Y5132769D02*
D03*
X5461006Y5122502D02*
D03*
X6789407Y2830547D02*
D03*
X5483847Y6066323D02*
D03*
X5437086Y6113343D02*
D03*
Y6064899D02*
D03*
X5388177Y6113001D02*
D03*
X5494109Y6894547D02*
D03*
X6285913Y3326355D02*
D03*
X7414880Y3132511D02*
D03*
X5801366Y7027502D02*
D03*
X5808543Y6901207D02*
D03*
X5679229Y7119004D02*
D03*
X5470375Y6823698D02*
D03*
X5128071Y6979008D02*
D03*
X5939170Y5628742D02*
D03*
X5557526Y4998042D02*
D03*
X7183126Y4576402D02*
D03*
X6794506Y4662762D02*
D03*
X6134106Y4713562D02*
D03*
X5671072Y4668595D02*
D03*
X6134106Y4647522D02*
D03*
X5317226Y6047342D02*
D03*
X4800606Y6923362D02*
D03*
X4610106Y6725242D02*
D03*
X4295146Y6280742D02*
D03*
X4932686Y4832942D02*
D03*
X6175145Y3631838D02*
D03*
Y3465704D02*
D03*
X5649966Y3969622D02*
D03*
X5611866Y3928982D02*
D03*
X5573766Y3893422D02*
D03*
X5616946Y3677522D02*
D03*
X5550906Y3674982D02*
D03*
X5275586Y3761062D02*
D03*
X5222246Y3712802D02*
D03*
X7411726Y3303862D02*
D03*
X6283966Y3222582D02*
D03*
X5755646Y3367362D02*
D03*
X5567725Y3106067D02*
D03*
X5571989Y2843247D02*
D03*
Y2893723D02*
D03*
Y2790456D02*
D03*
X5569449Y2998736D02*
D03*
Y2948260D02*
D03*
X5571989Y2739980D02*
D03*
X5567725Y3055591D02*
D03*
X5470280Y3026558D02*
D03*
X5468626Y2922862D02*
D03*
X5463546Y2816182D02*
D03*
X4655826Y3136222D02*
D03*
X4528826Y3138762D02*
D03*
X4287526Y3697562D02*
D03*
X3924306Y3514682D02*
D03*
X4909826Y1797642D02*
D03*
X2590806Y6974162D02*
D03*
Y7024962D02*
D03*
Y7075762D02*
D03*
X2913380Y6728460D02*
D03*
X3087106Y5994002D02*
D03*
X3683006Y3766142D02*
D03*
Y3654382D02*
D03*
Y3524842D02*
D03*
X749306Y5721942D02*
D03*
X840746Y5711782D02*
D03*
X812806Y5655902D02*
D03*
X2369854Y2655692D02*
D03*
X2369807Y2601947D02*
D03*
X2410447Y2551147D02*
D03*
X2471407Y2500347D02*
D03*
X2458707Y2551147D02*
D03*
X2471407Y2449547D02*
D03*
X5239492Y2302742D02*
D03*
X5192229Y2198568D02*
D03*
X4897126Y1975442D02*
D03*
X5210049Y2142728D02*
D03*
X5809540Y4394620D02*
D03*
X7234480Y3462440D02*
D03*
X4811388Y4059106D02*
D03*
Y4008946D02*
D03*
X4737728Y3977903D02*
D03*
Y3927743D02*
D03*
X7413960Y4267620D02*
D03*
X5869633Y4395632D02*
D03*
X5671977Y6451242D02*
D03*
X6200861Y5462762D02*
D03*
X5495696Y7118910D02*
D03*
X5489965Y6954684D02*
D03*
X4811180Y6855854D02*
D03*
X5804587Y7080731D02*
D03*
X5235056Y6848990D02*
D03*
X5486406Y6743022D02*
D03*
X5488946Y6621102D02*
D03*
X5742947Y6831047D02*
D03*
X6058194Y3964826D02*
D03*
X5784401Y3319290D02*
D03*
X6586847Y4197780D02*
D03*
Y4147620D02*
D03*
Y3895520D02*
D03*
Y3845360D02*
D03*
Y3748200D02*
D03*
Y3698040D02*
D03*
Y3545640D02*
D03*
X4738532Y3622540D02*
D03*
X4677572Y3665720D02*
D03*
X4696447Y3865200D02*
D03*
X4748692Y3868920D02*
D03*
X4672492Y3909560D02*
D03*
X4675032Y3970520D02*
D03*
X4746152Y4039100D02*
D03*
X2708606Y3226802D02*
D03*
X2559680Y3352800D02*
D03*
%TF.MD5,02e679c39fb21fb22ef4601e1358d2f3*%
M02*
