%TF.GenerationSoftware,Altium Limited,Altium Designer,23.1.1 (15)*%
G04 Layer_Color=8388736*
%FSLAX45Y45*%
%MOMM*%
%TF.SameCoordinates,8C37DE4A-61E0-4A85-99FC-D0A1A2E6B02F*%
%TF.FilePolarity,Positive*%
%TF.FileFunction,Other,Top_Assembly*%
%TF.Part,Single*%
G01*
G75*
%TA.AperFunction,NonConductor*%
%ADD140C,0.20000*%
G36*
X588198Y809948D02*
X588031D01*
X587698D01*
X587198D01*
X586448Y810031D01*
X585615Y810115D01*
X584699Y810281D01*
X583782Y810531D01*
X582783Y810865D01*
X582699D01*
X582616Y810948D01*
X582366Y811031D01*
X582033Y811198D01*
X581200Y811531D01*
X580117Y812114D01*
X578784Y812864D01*
X577367Y813697D01*
X575868Y814780D01*
X574285Y816030D01*
X574202Y816113D01*
X574118Y816196D01*
X573868Y816446D01*
X573535Y816696D01*
X572619Y817529D01*
X571452Y818696D01*
X570036Y820112D01*
X568370Y821862D01*
X566537Y823945D01*
X564537Y826361D01*
X564454Y826444D01*
X564121Y826777D01*
X563704Y827360D01*
X563121Y828027D01*
X562371Y828860D01*
X561538Y829860D01*
X560622Y830943D01*
X559622Y832026D01*
X557456Y834359D01*
X555206Y836691D01*
X554040Y837774D01*
X552957Y838774D01*
X551957Y839690D01*
X550957Y840440D01*
X550874Y840524D01*
X550708Y840607D01*
X550458Y840774D01*
X550124Y841023D01*
X549625Y841273D01*
X549125Y841607D01*
X547875Y842356D01*
X546459Y843023D01*
X544876Y843606D01*
X543126Y844023D01*
X542293Y844189D01*
X541460D01*
X541377D01*
X541210D01*
X541043D01*
X540710Y844106D01*
X539794Y844023D01*
X538711Y843773D01*
X537461Y843356D01*
X536211Y842773D01*
X534878Y841940D01*
X533629Y840774D01*
X533462Y840607D01*
X533129Y840190D01*
X532629Y839441D01*
X531962Y838441D01*
X531379Y837191D01*
X530879Y835691D01*
X530546Y833942D01*
X530379Y832026D01*
Y831443D01*
X530463Y831109D01*
Y830609D01*
X530546Y830026D01*
X530796Y828777D01*
X531213Y827360D01*
X531796Y825777D01*
X532629Y824278D01*
X533795Y822945D01*
X533962Y822778D01*
X534378Y822445D01*
X535212Y821862D01*
X536211Y821279D01*
X537628Y820612D01*
X539211Y820029D01*
X541043Y819696D01*
X543209Y819529D01*
X542376Y811448D01*
X542293D01*
X541960Y811531D01*
X541543D01*
X540877Y811614D01*
X540127Y811781D01*
X539294Y811948D01*
X538294Y812198D01*
X537294Y812531D01*
X535045Y813281D01*
X533879Y813780D01*
X532795Y814364D01*
X531629Y815030D01*
X530546Y815780D01*
X529546Y816613D01*
X528630Y817613D01*
X528547Y817696D01*
X528463Y817863D01*
X528213Y818196D01*
X527880Y818613D01*
X527547Y819196D01*
X527130Y819862D01*
X526714Y820612D01*
X526214Y821528D01*
X525797Y822528D01*
X525381Y823611D01*
X524964Y824778D01*
X524631Y826111D01*
X524298Y827444D01*
X524048Y828943D01*
X523964Y830526D01*
X523881Y832192D01*
Y833109D01*
X523964Y833692D01*
X524048Y834525D01*
X524131Y835442D01*
X524298Y836441D01*
X524548Y837524D01*
X525131Y839857D01*
X525547Y841023D01*
X526047Y842273D01*
X526630Y843523D01*
X527380Y844689D01*
X528130Y845772D01*
X529046Y846855D01*
X529130Y846939D01*
X529296Y847105D01*
X529546Y847355D01*
X529963Y847688D01*
X530463Y848105D01*
X531046Y848605D01*
X531712Y849021D01*
X532546Y849605D01*
X533379Y850104D01*
X534378Y850521D01*
X536545Y851437D01*
X537711Y851771D01*
X538961Y852021D01*
X540294Y852187D01*
X541710Y852271D01*
X541876D01*
X542376D01*
X543126Y852187D01*
X544126Y852104D01*
X545209Y851854D01*
X546542Y851604D01*
X547875Y851188D01*
X549291Y850688D01*
X549458Y850604D01*
X549958Y850354D01*
X550708Y850021D01*
X551624Y849438D01*
X552790Y848688D01*
X554123Y847772D01*
X555623Y846689D01*
X557123Y845439D01*
X557206D01*
X557289Y845272D01*
X557539Y845022D01*
X557872Y844773D01*
X558289Y844356D01*
X558789Y843856D01*
X559372Y843273D01*
X560039Y842523D01*
X560788Y841773D01*
X561621Y840857D01*
X562621Y839857D01*
X563621Y838774D01*
X564704Y837524D01*
X565787Y836275D01*
X567037Y834775D01*
X568370Y833275D01*
X568453Y833192D01*
X568620Y832942D01*
X568953Y832609D01*
X569286Y832109D01*
X569786Y831609D01*
X570369Y830943D01*
X571619Y829526D01*
X572952Y827943D01*
X574285Y826444D01*
X574868Y825777D01*
X575451Y825194D01*
X576034Y824611D01*
X576451Y824194D01*
X576534Y824111D01*
X576784Y823861D01*
X577201Y823528D01*
X577784Y823028D01*
X578367Y822528D01*
X579117Y821945D01*
X580617Y820862D01*
Y852354D01*
X588198D01*
Y809948D01*
D02*
G37*
G36*
X559455Y803033D02*
X560538D01*
X561788Y802950D01*
X563121Y802867D01*
X566037Y802533D01*
X569120Y802117D01*
X572119Y801534D01*
X573535Y801200D01*
X574868Y800784D01*
X574951D01*
X575201Y800700D01*
X575535Y800534D01*
X576034Y800367D01*
X576618Y800117D01*
X577284Y799784D01*
X578784Y799034D01*
X580533Y798034D01*
X582283Y796868D01*
X584032Y795452D01*
X585532Y793786D01*
Y793702D01*
X585699Y793619D01*
X585865Y793286D01*
X586115Y792952D01*
X586365Y792536D01*
X586698Y791953D01*
X587032Y791370D01*
X587365Y790620D01*
X588115Y788953D01*
X588698Y786954D01*
X589114Y784705D01*
X589198Y783455D01*
X589281Y782205D01*
Y781789D01*
X589198Y781289D01*
Y780706D01*
X589114Y779872D01*
X588948Y779039D01*
X588698Y778040D01*
X588448Y776957D01*
X588115Y775790D01*
X587698Y774624D01*
X587115Y773374D01*
X586532Y772124D01*
X585782Y770958D01*
X584865Y769792D01*
X583866Y768709D01*
X582699Y767626D01*
X582616Y767542D01*
X582283Y767376D01*
X581866Y767042D01*
X581200Y766626D01*
X580283Y766209D01*
X579200Y765626D01*
X577951Y765126D01*
X576451Y764543D01*
X574701Y763960D01*
X572785Y763377D01*
X570702Y762793D01*
X568286Y762377D01*
X565704Y761960D01*
X562954Y761627D01*
X559872Y761461D01*
X556623Y761377D01*
X556456D01*
X556123D01*
X555540D01*
X554707D01*
X553790Y761461D01*
X552707Y761544D01*
X551457D01*
X550124Y761710D01*
X547208Y761960D01*
X544126Y762377D01*
X541127Y762960D01*
X539710Y763293D01*
X538377Y763710D01*
X538294D01*
X538044Y763793D01*
X537711Y763960D01*
X537211Y764126D01*
X536628Y764376D01*
X535961Y764710D01*
X534378Y765459D01*
X532712Y766459D01*
X530879Y767626D01*
X529130Y769042D01*
X527630Y770625D01*
X527547Y770708D01*
X527464Y770875D01*
X527297Y771125D01*
X527047Y771458D01*
X526797Y771875D01*
X526464Y772458D01*
X526131Y773041D01*
X525714Y773791D01*
X525047Y775457D01*
X524464Y777456D01*
X524048Y779706D01*
X523881Y780956D01*
Y783038D01*
X523964Y783538D01*
Y784038D01*
X524131Y785288D01*
X524381Y786704D01*
X524798Y788204D01*
X525297Y789787D01*
X525964Y791286D01*
Y791370D01*
X526047Y791453D01*
X526380Y791953D01*
X526797Y792619D01*
X527464Y793536D01*
X528380Y794535D01*
X529380Y795618D01*
X530546Y796701D01*
X531962Y797701D01*
X532046D01*
X532129Y797785D01*
X532379Y797951D01*
X532629Y798118D01*
X533462Y798534D01*
X534628Y799118D01*
X536045Y799784D01*
X537628Y800451D01*
X539544Y801034D01*
X541543Y801617D01*
X541627D01*
X541793Y801700D01*
X542126Y801784D01*
X542543Y801867D01*
X543126Y801950D01*
X543793Y802117D01*
X544626Y802200D01*
X545542Y802367D01*
X546542Y802533D01*
X547708Y802617D01*
X548875Y802783D01*
X550291Y802867D01*
X551707Y802950D01*
X553207Y803033D01*
X554873Y803117D01*
X556623D01*
X556789D01*
X557123D01*
X557706D01*
X558539D01*
X559455Y803033D01*
D02*
G37*
G36*
X571286Y753629D02*
X572035Y753546D01*
X572869Y753379D01*
X573702Y753213D01*
X574701Y752963D01*
X575784Y752713D01*
X576868Y752296D01*
X578034Y751796D01*
X579200Y751296D01*
X580367Y750547D01*
X581533Y749797D01*
X582616Y748880D01*
X583699Y747881D01*
X583782Y747797D01*
X583949Y747631D01*
X584199Y747297D01*
X584532Y746798D01*
X585032Y746214D01*
X585449Y745548D01*
X585949Y744715D01*
X586448Y743798D01*
X587032Y742715D01*
X587531Y741632D01*
X587948Y740383D01*
X588365Y738966D01*
X588781Y737550D01*
X589031Y735967D01*
X589198Y734384D01*
X589281Y732635D01*
Y731718D01*
X589198Y731052D01*
X589114Y730219D01*
X588948Y729302D01*
X588781Y728302D01*
X588615Y727136D01*
X587948Y724720D01*
X587448Y723470D01*
X586948Y722137D01*
X586282Y720888D01*
X585532Y719638D01*
X584699Y718472D01*
X583699Y717305D01*
X583616Y717222D01*
X583449Y717055D01*
X583116Y716805D01*
X582699Y716389D01*
X582116Y715972D01*
X581450Y715472D01*
X580700Y714972D01*
X579867Y714473D01*
X578867Y713889D01*
X577867Y713389D01*
X576701Y712890D01*
X575451Y712473D01*
X574118Y712056D01*
X572702Y711807D01*
X571202Y711640D01*
X569703Y711557D01*
X569619D01*
X569453D01*
X569120D01*
X568620Y711640D01*
X568120D01*
X567537Y711723D01*
X566037Y711973D01*
X564371Y712306D01*
X562704Y712890D01*
X560955Y713639D01*
X559289Y714722D01*
X559205D01*
X559122Y714889D01*
X558622Y715306D01*
X557872Y716055D01*
X556956Y717055D01*
X556040Y718305D01*
X555040Y719888D01*
X554207Y721637D01*
X553540Y723720D01*
Y723637D01*
X553457Y723470D01*
X553374Y723220D01*
X553207Y722887D01*
X552790Y722054D01*
X552207Y720971D01*
X551457Y719805D01*
X550624Y718555D01*
X549541Y717472D01*
X548375Y716472D01*
X548208Y716389D01*
X547792Y716139D01*
X547042Y715722D01*
X546125Y715306D01*
X544959Y714889D01*
X543626Y714473D01*
X542126Y714223D01*
X540460Y714139D01*
X540377D01*
X540127D01*
X539794D01*
X539294Y714223D01*
X538711Y714306D01*
X537961Y714389D01*
X536378Y714806D01*
X534545Y715389D01*
X533545Y715806D01*
X532546Y716222D01*
X531546Y716805D01*
X530546Y717472D01*
X529630Y718222D01*
X528713Y719138D01*
X528630Y719221D01*
X528463Y719388D01*
X528297Y719638D01*
X527963Y720054D01*
X527630Y720554D01*
X527214Y721137D01*
X526714Y721887D01*
X526297Y722720D01*
X525881Y723554D01*
X525381Y724553D01*
X524964Y725720D01*
X524631Y726886D01*
X524298Y728136D01*
X524048Y729469D01*
X523964Y730968D01*
X523881Y732468D01*
Y733301D01*
X523964Y733884D01*
X524048Y734551D01*
X524131Y735384D01*
X524298Y736300D01*
X524464Y737300D01*
X525047Y739466D01*
X525464Y740549D01*
X525964Y741716D01*
X526547Y742799D01*
X527130Y743965D01*
X527963Y744965D01*
X528797Y745964D01*
X528880Y746048D01*
X529046Y746214D01*
X529296Y746464D01*
X529630Y746798D01*
X530129Y747131D01*
X530713Y747631D01*
X531379Y748047D01*
X532046Y748547D01*
X533795Y749464D01*
X535795Y750297D01*
X536961Y750630D01*
X538127Y750880D01*
X539377Y751047D01*
X540627Y751130D01*
X540710D01*
X540793D01*
X541043D01*
X541377D01*
X542210Y751047D01*
X543293Y750797D01*
X544542Y750547D01*
X545792Y750130D01*
X547125Y749547D01*
X548458Y748714D01*
X548625Y748630D01*
X548958Y748297D01*
X549541Y747714D01*
X550291Y746964D01*
X551124Y745964D01*
X551957Y744715D01*
X552790Y743298D01*
X553540Y741632D01*
Y741716D01*
X553623Y741882D01*
X553707Y742215D01*
X553873Y742632D01*
X554123Y743132D01*
X554373Y743632D01*
X555040Y744965D01*
X555873Y746464D01*
X556956Y747964D01*
X558206Y749380D01*
X559705Y750630D01*
X559789D01*
X559872Y750797D01*
X560122Y750880D01*
X560455Y751130D01*
X560872Y751380D01*
X561371Y751630D01*
X562538Y752213D01*
X564037Y752713D01*
X565787Y753213D01*
X567787Y753546D01*
X569953Y753712D01*
X570036D01*
X570286D01*
X570702D01*
X571286Y753629D01*
D02*
G37*
G36*
X588198Y695977D02*
X574951Y687563D01*
X574868D01*
X574701Y687396D01*
X574368Y687230D01*
X574035Y686980D01*
X573535Y686646D01*
X572952Y686230D01*
X571702Y685397D01*
X570286Y684397D01*
X568870Y683397D01*
X567453Y682397D01*
X566204Y681398D01*
X566037Y681314D01*
X565704Y680981D01*
X565121Y680565D01*
X564537Y679981D01*
X563788Y679315D01*
X563038Y678565D01*
X562455Y677815D01*
X561871Y677065D01*
X561788Y676982D01*
X561705Y676732D01*
X561455Y676399D01*
X561205Y675899D01*
X560872Y675316D01*
X560622Y674649D01*
X560122Y673233D01*
Y673150D01*
X560039Y672983D01*
Y672650D01*
X559955Y672150D01*
X559872Y671484D01*
Y670650D01*
X559789Y669734D01*
Y658737D01*
X588198D01*
Y650239D01*
X524131D01*
Y680065D01*
X524214Y680814D01*
Y681564D01*
X524298Y682481D01*
X524381Y683480D01*
X524548Y685563D01*
X524881Y687729D01*
X525297Y689812D01*
X525547Y690812D01*
X525881Y691645D01*
Y691728D01*
X525964Y691812D01*
X526047Y692062D01*
X526214Y692395D01*
X526630Y693228D01*
X527297Y694228D01*
X528130Y695394D01*
X529213Y696560D01*
X530546Y697727D01*
X532046Y698810D01*
X532129D01*
X532212Y698893D01*
X532462Y699060D01*
X532795Y699226D01*
X533712Y699643D01*
X534878Y700143D01*
X536295Y700643D01*
X537961Y701059D01*
X539794Y701393D01*
X541710Y701476D01*
X541793D01*
X542043D01*
X542376D01*
X542876Y701393D01*
X543459Y701309D01*
X544126Y701226D01*
X545709Y700893D01*
X547542Y700393D01*
X549458Y699643D01*
X550374Y699143D01*
X551374Y698560D01*
X552290Y697810D01*
X553207Y697060D01*
X553290Y696977D01*
X553374Y696894D01*
X553623Y696560D01*
X553957Y696227D01*
X554290Y695727D01*
X554707Y695144D01*
X555206Y694478D01*
X555706Y693728D01*
X556206Y692811D01*
X556706Y691812D01*
X557206Y690645D01*
X557706Y689396D01*
X558122Y688063D01*
X558539Y686646D01*
X558872Y685063D01*
X559122Y683397D01*
X559205Y683564D01*
X559372Y683980D01*
X559705Y684564D01*
X560122Y685313D01*
X561205Y686980D01*
X561788Y687729D01*
X562371Y688479D01*
Y688563D01*
X562538Y688646D01*
X562954Y689146D01*
X563704Y689812D01*
X564704Y690812D01*
X565870Y691895D01*
X567370Y693061D01*
X569036Y694311D01*
X570869Y695561D01*
X588198Y706641D01*
Y695977D01*
D02*
G37*
G36*
X2719333Y4227182D02*
X2720083Y4227099D01*
X2720999Y4227016D01*
X2721999Y4226849D01*
X2722999Y4226599D01*
X2725415Y4226016D01*
X2726665Y4225599D01*
X2727914Y4225100D01*
X2729164Y4224516D01*
X2730414Y4223850D01*
X2731663Y4223100D01*
X2732913Y4222184D01*
X2732996Y4222100D01*
X2733246Y4221934D01*
X2733663Y4221517D01*
X2734079Y4221017D01*
X2734746Y4220434D01*
X2735329Y4219684D01*
X2736079Y4218768D01*
X2736745Y4217768D01*
X2737495Y4216602D01*
X2738245Y4215352D01*
X2738828Y4214019D01*
X2739411Y4212519D01*
X2739911Y4210853D01*
X2740328Y4209104D01*
X2740578Y4207271D01*
X2740661Y4205355D01*
Y4204521D01*
X2740578Y4203938D01*
X2740494Y4203188D01*
X2740411Y4202272D01*
X2740244Y4201356D01*
X2740078Y4200273D01*
X2739495Y4198023D01*
X2739078Y4196857D01*
X2738578Y4195690D01*
X2738078Y4194441D01*
X2737412Y4193274D01*
X2736662Y4192191D01*
X2735829Y4191108D01*
X2735746Y4191025D01*
X2735579Y4190858D01*
X2735329Y4190608D01*
X2734912Y4190275D01*
X2734413Y4189775D01*
X2733829Y4189359D01*
X2733163Y4188775D01*
X2732330Y4188276D01*
X2731497Y4187692D01*
X2730497Y4187193D01*
X2729414Y4186609D01*
X2728248Y4186193D01*
X2726998Y4185693D01*
X2725748Y4185360D01*
X2724332Y4185026D01*
X2722832Y4184860D01*
X2722249Y4193108D01*
X2722332D01*
X2722499Y4193191D01*
X2722832D01*
X2723249Y4193274D01*
X2723749Y4193441D01*
X2724332Y4193608D01*
X2725582Y4193941D01*
X2727081Y4194524D01*
X2728581Y4195274D01*
X2729997Y4196190D01*
X2731247Y4197273D01*
X2731330Y4197440D01*
X2731663Y4197856D01*
X2732163Y4198606D01*
X2732663Y4199523D01*
X2733246Y4200689D01*
X2733663Y4202105D01*
X2733996Y4203605D01*
X2734163Y4205355D01*
Y4205938D01*
X2734079Y4206354D01*
X2733996Y4206771D01*
X2733913Y4207354D01*
X2733663Y4208687D01*
X2733163Y4210270D01*
X2732330Y4211853D01*
X2731913Y4212686D01*
X2731330Y4213519D01*
X2730664Y4214269D01*
X2729914Y4215019D01*
X2729830Y4215102D01*
X2729747Y4215185D01*
X2729497Y4215352D01*
X2729164Y4215602D01*
X2728747Y4215935D01*
X2728164Y4216268D01*
X2727581Y4216602D01*
X2726915Y4217018D01*
X2725248Y4217685D01*
X2723332Y4218351D01*
X2721083Y4218768D01*
X2719916Y4218934D01*
X2718583D01*
X2718500D01*
X2718250D01*
X2717917D01*
X2717500Y4218851D01*
X2716917D01*
X2716251Y4218768D01*
X2714751Y4218435D01*
X2713001Y4218018D01*
X2711252Y4217351D01*
X2709502Y4216435D01*
X2708669Y4215852D01*
X2707919Y4215185D01*
X2707836D01*
X2707753Y4215019D01*
X2707586Y4214769D01*
X2707336Y4214519D01*
X2706670Y4213686D01*
X2705920Y4212519D01*
X2705253Y4211103D01*
X2704587Y4209437D01*
X2704170Y4207437D01*
X2704004Y4206438D01*
Y4204605D01*
X2704087Y4203938D01*
X2704254Y4202939D01*
X2704420Y4201939D01*
X2704754Y4200772D01*
X2705253Y4199523D01*
X2705837Y4198356D01*
X2705920Y4198190D01*
X2706170Y4197856D01*
X2706503Y4197357D01*
X2707086Y4196690D01*
X2707669Y4195940D01*
X2708503Y4195107D01*
X2709336Y4194357D01*
X2710335Y4193691D01*
X2709252Y4186276D01*
X2676344Y4192441D01*
Y4224266D01*
X2683842D01*
Y4198690D01*
X2701171Y4195274D01*
X2701088Y4195357D01*
X2701005Y4195524D01*
X2700755Y4195857D01*
X2700505Y4196274D01*
X2700255Y4196773D01*
X2699838Y4197440D01*
X2699505Y4198106D01*
X2699088Y4198940D01*
X2698339Y4200772D01*
X2697755Y4202772D01*
X2697255Y4205021D01*
X2697172Y4206188D01*
X2697089Y4207354D01*
Y4208187D01*
X2697172Y4208770D01*
X2697255Y4209437D01*
X2697422Y4210270D01*
X2697589Y4211186D01*
X2697839Y4212269D01*
X2698089Y4213353D01*
X2698505Y4214436D01*
X2699005Y4215602D01*
X2699505Y4216852D01*
X2700255Y4218018D01*
X2701005Y4219184D01*
X2701921Y4220351D01*
X2702921Y4221434D01*
X2703004Y4221517D01*
X2703171Y4221684D01*
X2703504Y4221934D01*
X2704004Y4222350D01*
X2704587Y4222767D01*
X2705253Y4223267D01*
X2706087Y4223850D01*
X2707003Y4224350D01*
X2708003Y4224933D01*
X2709169Y4225433D01*
X2710335Y4225933D01*
X2711668Y4226349D01*
X2713168Y4226766D01*
X2714668Y4227016D01*
X2716251Y4227182D01*
X2717917Y4227266D01*
X2718000D01*
X2718333D01*
X2718750D01*
X2719333Y4227182D01*
D02*
G37*
G36*
X2739578Y4156867D02*
X2689507D01*
X2689591Y4156700D01*
X2689924Y4156367D01*
X2690507Y4155701D01*
X2691174Y4154867D01*
X2692007Y4153784D01*
X2692923Y4152451D01*
X2693923Y4151035D01*
X2694923Y4149369D01*
Y4149286D01*
X2695006Y4149202D01*
X2695173Y4148952D01*
X2695339Y4148619D01*
X2695839Y4147703D01*
X2696422Y4146620D01*
X2697089Y4145370D01*
X2697755Y4143954D01*
X2698422Y4142537D01*
X2699005Y4141121D01*
X2691340D01*
Y4141204D01*
X2691174Y4141454D01*
X2691007Y4141788D01*
X2690757Y4142204D01*
X2690507Y4142787D01*
X2690091Y4143454D01*
X2689258Y4145037D01*
X2688174Y4146786D01*
X2686841Y4148786D01*
X2685425Y4150702D01*
X2683842Y4152618D01*
X2683759Y4152701D01*
X2683676Y4152868D01*
X2683426Y4153118D01*
X2683092Y4153451D01*
X2682259Y4154284D01*
X2681093Y4155367D01*
X2679843Y4156450D01*
X2678344Y4157617D01*
X2676844Y4158700D01*
X2675261Y4159616D01*
Y4164698D01*
X2739578D01*
Y4156867D01*
D02*
G37*
G36*
Y4107130D02*
X2689507D01*
X2689591Y4106963D01*
X2689924Y4106630D01*
X2690507Y4105963D01*
X2691174Y4105130D01*
X2692007Y4104047D01*
X2692923Y4102714D01*
X2693923Y4101298D01*
X2694923Y4099632D01*
Y4099548D01*
X2695006Y4099465D01*
X2695173Y4099215D01*
X2695339Y4098882D01*
X2695839Y4097965D01*
X2696422Y4096882D01*
X2697089Y4095633D01*
X2697755Y4094216D01*
X2698422Y4092800D01*
X2699005Y4091384D01*
X2691340D01*
Y4091467D01*
X2691174Y4091717D01*
X2691007Y4092050D01*
X2690757Y4092467D01*
X2690507Y4093050D01*
X2690091Y4093716D01*
X2689258Y4095299D01*
X2688174Y4097049D01*
X2686841Y4099048D01*
X2685425Y4100965D01*
X2683842Y4102881D01*
X2683759Y4102964D01*
X2683676Y4103131D01*
X2683426Y4103381D01*
X2683092Y4103714D01*
X2682259Y4104547D01*
X2681093Y4105630D01*
X2679843Y4106713D01*
X2678344Y4107880D01*
X2676844Y4108963D01*
X2675261Y4109879D01*
Y4114961D01*
X2739578D01*
Y4107130D01*
D02*
G37*
G36*
Y4057392D02*
X2689507D01*
X2689591Y4057226D01*
X2689924Y4056893D01*
X2690507Y4056226D01*
X2691174Y4055393D01*
X2692007Y4054310D01*
X2692923Y4052977D01*
X2693923Y4051561D01*
X2694923Y4049894D01*
Y4049811D01*
X2695006Y4049728D01*
X2695173Y4049478D01*
X2695339Y4049145D01*
X2695839Y4048228D01*
X2696422Y4047145D01*
X2697089Y4045895D01*
X2697755Y4044479D01*
X2698422Y4043063D01*
X2699005Y4041646D01*
X2691340D01*
Y4041730D01*
X2691174Y4041980D01*
X2691007Y4042313D01*
X2690757Y4042730D01*
X2690507Y4043313D01*
X2690091Y4043979D01*
X2689258Y4045562D01*
X2688174Y4047312D01*
X2686841Y4049311D01*
X2685425Y4051227D01*
X2683842Y4053144D01*
X2683759Y4053227D01*
X2683676Y4053393D01*
X2683426Y4053643D01*
X2683092Y4053977D01*
X2682259Y4054810D01*
X2681093Y4055893D01*
X2679843Y4056976D01*
X2678344Y4058142D01*
X2676844Y4059225D01*
X2675261Y4060142D01*
Y4065224D01*
X2739578D01*
Y4057392D01*
D02*
G37*
G36*
Y4019985D02*
X2726331Y4011571D01*
X2726248D01*
X2726081Y4011404D01*
X2725748Y4011238D01*
X2725415Y4010988D01*
X2724915Y4010654D01*
X2724332Y4010238D01*
X2723082Y4009405D01*
X2721666Y4008405D01*
X2720250Y4007405D01*
X2718833Y4006405D01*
X2717584Y4005406D01*
X2717417Y4005322D01*
X2717084Y4004989D01*
X2716501Y4004573D01*
X2715917Y4003989D01*
X2715168Y4003323D01*
X2714418Y4002573D01*
X2713835Y4001823D01*
X2713251Y4001074D01*
X2713168Y4000990D01*
X2713085Y4000740D01*
X2712835Y4000407D01*
X2712585Y3999907D01*
X2712252Y3999324D01*
X2712002Y3998657D01*
X2711502Y3997241D01*
Y3997158D01*
X2711419Y3996991D01*
Y3996658D01*
X2711335Y3996158D01*
X2711252Y3995492D01*
Y3994659D01*
X2711169Y3993742D01*
Y3982745D01*
X2739578D01*
Y3974247D01*
X2675511D01*
Y4004073D01*
X2675594Y4004823D01*
Y4005572D01*
X2675678Y4006489D01*
X2675761Y4007489D01*
X2675928Y4009571D01*
X2676261Y4011737D01*
X2676677Y4013820D01*
X2676927Y4014820D01*
X2677261Y4015653D01*
Y4015736D01*
X2677344Y4015820D01*
X2677427Y4016070D01*
X2677594Y4016403D01*
X2678010Y4017236D01*
X2678677Y4018236D01*
X2679510Y4019402D01*
X2680593Y4020569D01*
X2681926Y4021735D01*
X2683426Y4022818D01*
X2683509D01*
X2683592Y4022901D01*
X2683842Y4023068D01*
X2684175Y4023235D01*
X2685092Y4023651D01*
X2686258Y4024151D01*
X2687675Y4024651D01*
X2689341Y4025067D01*
X2691174Y4025401D01*
X2693090Y4025484D01*
X2693173D01*
X2693423D01*
X2693756D01*
X2694256Y4025401D01*
X2694839Y4025317D01*
X2695506Y4025234D01*
X2697089Y4024901D01*
X2698922Y4024401D01*
X2700838Y4023651D01*
X2701754Y4023151D01*
X2702754Y4022568D01*
X2703670Y4021818D01*
X2704587Y4021068D01*
X2704670Y4020985D01*
X2704754Y4020902D01*
X2705003Y4020569D01*
X2705337Y4020235D01*
X2705670Y4019735D01*
X2706087Y4019152D01*
X2706586Y4018486D01*
X2707086Y4017736D01*
X2707586Y4016820D01*
X2708086Y4015820D01*
X2708586Y4014653D01*
X2709086Y4013404D01*
X2709502Y4012071D01*
X2709919Y4010654D01*
X2710252Y4009071D01*
X2710502Y4007405D01*
X2710585Y4007572D01*
X2710752Y4007988D01*
X2711085Y4008572D01*
X2711502Y4009321D01*
X2712585Y4010988D01*
X2713168Y4011737D01*
X2713751Y4012487D01*
Y4012571D01*
X2713918Y4012654D01*
X2714334Y4013154D01*
X2715084Y4013820D01*
X2716084Y4014820D01*
X2717250Y4015903D01*
X2718750Y4017069D01*
X2720416Y4018319D01*
X2722249Y4019569D01*
X2739578Y4030649D01*
Y4019985D01*
D02*
G37*
G36*
X2473872Y4229715D02*
X2489201D01*
Y4221884D01*
X2473872D01*
Y4194058D01*
X2466623D01*
X2425134Y4223300D01*
Y4229715D01*
X2466623D01*
Y4238380D01*
X2473872D01*
Y4229715D01*
D02*
G37*
G36*
X2489201Y4168731D02*
X2439131D01*
X2439214Y4168564D01*
X2439547Y4168231D01*
X2440130Y4167564D01*
X2440797Y4166731D01*
X2441630Y4165648D01*
X2442546Y4164315D01*
X2443546Y4162899D01*
X2444546Y4161233D01*
Y4161149D01*
X2444629Y4161066D01*
X2444796Y4160816D01*
X2444962Y4160483D01*
X2445462Y4159566D01*
X2446045Y4158483D01*
X2446712Y4157234D01*
X2447378Y4155817D01*
X2448045Y4154401D01*
X2448628Y4152985D01*
X2440963D01*
Y4153068D01*
X2440797Y4153318D01*
X2440630Y4153651D01*
X2440380Y4154068D01*
X2440130Y4154651D01*
X2439714Y4155318D01*
X2438881Y4156900D01*
X2437798Y4158650D01*
X2436465Y4160650D01*
X2435048Y4162566D01*
X2433465Y4164482D01*
X2433382Y4164565D01*
X2433299Y4164732D01*
X2433049Y4164982D01*
X2432715Y4165315D01*
X2431882Y4166148D01*
X2430716Y4167231D01*
X2429466Y4168314D01*
X2427967Y4169481D01*
X2426467Y4170564D01*
X2424884Y4171480D01*
Y4176562D01*
X2489201D01*
Y4168731D01*
D02*
G37*
G36*
Y4118994D02*
X2439131D01*
X2439214Y4118827D01*
X2439547Y4118494D01*
X2440130Y4117827D01*
X2440797Y4116994D01*
X2441630Y4115911D01*
X2442546Y4114578D01*
X2443546Y4113162D01*
X2444546Y4111495D01*
Y4111412D01*
X2444629Y4111329D01*
X2444796Y4111079D01*
X2444962Y4110746D01*
X2445462Y4109829D01*
X2446045Y4108746D01*
X2446712Y4107496D01*
X2447378Y4106080D01*
X2448045Y4104664D01*
X2448628Y4103248D01*
X2440963D01*
Y4103331D01*
X2440797Y4103581D01*
X2440630Y4103914D01*
X2440380Y4104331D01*
X2440130Y4104914D01*
X2439714Y4105580D01*
X2438881Y4107163D01*
X2437798Y4108913D01*
X2436465Y4110912D01*
X2435048Y4112828D01*
X2433465Y4114745D01*
X2433382Y4114828D01*
X2433299Y4114995D01*
X2433049Y4115245D01*
X2432715Y4115578D01*
X2431882Y4116411D01*
X2430716Y4117494D01*
X2429466Y4118577D01*
X2427967Y4119743D01*
X2426467Y4120826D01*
X2424884Y4121743D01*
Y4126825D01*
X2489201D01*
Y4118994D01*
D02*
G37*
G36*
Y4069256D02*
X2439131D01*
X2439214Y4069090D01*
X2439547Y4068756D01*
X2440130Y4068090D01*
X2440797Y4067257D01*
X2441630Y4066174D01*
X2442546Y4064841D01*
X2443546Y4063424D01*
X2444546Y4061758D01*
Y4061675D01*
X2444629Y4061592D01*
X2444796Y4061342D01*
X2444962Y4061008D01*
X2445462Y4060092D01*
X2446045Y4059009D01*
X2446712Y4057759D01*
X2447378Y4056343D01*
X2448045Y4054927D01*
X2448628Y4053510D01*
X2440963D01*
Y4053594D01*
X2440797Y4053844D01*
X2440630Y4054177D01*
X2440380Y4054593D01*
X2440130Y4055177D01*
X2439714Y4055843D01*
X2438881Y4057426D01*
X2437798Y4059176D01*
X2436465Y4061175D01*
X2435048Y4063091D01*
X2433465Y4065007D01*
X2433382Y4065091D01*
X2433299Y4065257D01*
X2433049Y4065507D01*
X2432715Y4065840D01*
X2431882Y4066674D01*
X2430716Y4067757D01*
X2429466Y4068840D01*
X2427967Y4070006D01*
X2426467Y4071089D01*
X2424884Y4072006D01*
Y4077088D01*
X2489201D01*
Y4069256D01*
D02*
G37*
G36*
Y4031849D02*
X2475954Y4023435D01*
X2475871D01*
X2475704Y4023268D01*
X2475371Y4023101D01*
X2475038Y4022851D01*
X2474538Y4022518D01*
X2473955Y4022102D01*
X2472705Y4021269D01*
X2471289Y4020269D01*
X2469873Y4019269D01*
X2468456Y4018269D01*
X2467207Y4017270D01*
X2467040Y4017186D01*
X2466707Y4016853D01*
X2466124Y4016436D01*
X2465540Y4015853D01*
X2464791Y4015187D01*
X2464041Y4014437D01*
X2463458Y4013687D01*
X2462874Y4012937D01*
X2462791Y4012854D01*
X2462708Y4012604D01*
X2462458Y4012271D01*
X2462208Y4011771D01*
X2461875Y4011188D01*
X2461625Y4010521D01*
X2461125Y4009105D01*
Y4009022D01*
X2461042Y4008855D01*
Y4008522D01*
X2460958Y4008022D01*
X2460875Y4007355D01*
Y4006522D01*
X2460792Y4005606D01*
Y3994609D01*
X2489201D01*
Y3986111D01*
X2425134D01*
Y4015937D01*
X2425217Y4016686D01*
Y4017436D01*
X2425301Y4018353D01*
X2425384Y4019352D01*
X2425551Y4021435D01*
X2425884Y4023601D01*
X2426300Y4025684D01*
X2426550Y4026684D01*
X2426884Y4027517D01*
Y4027600D01*
X2426967Y4027684D01*
X2427050Y4027934D01*
X2427217Y4028267D01*
X2427633Y4029100D01*
X2428300Y4030100D01*
X2429133Y4031266D01*
X2430216Y4032432D01*
X2431549Y4033599D01*
X2433049Y4034682D01*
X2433132D01*
X2433215Y4034765D01*
X2433465Y4034932D01*
X2433799Y4035098D01*
X2434715Y4035515D01*
X2435881Y4036015D01*
X2437298Y4036515D01*
X2438964Y4036931D01*
X2440797Y4037264D01*
X2442713Y4037348D01*
X2442796D01*
X2443046D01*
X2443379D01*
X2443879Y4037264D01*
X2444462Y4037181D01*
X2445129Y4037098D01*
X2446712Y4036765D01*
X2448545Y4036265D01*
X2450461Y4035515D01*
X2451377Y4035015D01*
X2452377Y4034432D01*
X2453294Y4033682D01*
X2454210Y4032932D01*
X2454293Y4032849D01*
X2454377Y4032766D01*
X2454627Y4032432D01*
X2454960Y4032099D01*
X2455293Y4031599D01*
X2455710Y4031016D01*
X2456209Y4030350D01*
X2456709Y4029600D01*
X2457209Y4028683D01*
X2457709Y4027684D01*
X2458209Y4026517D01*
X2458709Y4025268D01*
X2459125Y4023935D01*
X2459542Y4022518D01*
X2459875Y4020935D01*
X2460125Y4019269D01*
X2460208Y4019436D01*
X2460375Y4019852D01*
X2460708Y4020435D01*
X2461125Y4021185D01*
X2462208Y4022851D01*
X2462791Y4023601D01*
X2463374Y4024351D01*
Y4024434D01*
X2463541Y4024518D01*
X2463957Y4025018D01*
X2464707Y4025684D01*
X2465707Y4026684D01*
X2466873Y4027767D01*
X2468373Y4028933D01*
X2470039Y4030183D01*
X2471872Y4031433D01*
X2489201Y4042513D01*
Y4031849D01*
D02*
G37*
G36*
X886475Y1213450D02*
X887558D01*
X888808Y1213367D01*
X890141Y1213284D01*
X893057Y1212951D01*
X896139Y1212534D01*
X899139Y1211951D01*
X900555Y1211618D01*
X901888Y1211201D01*
X901971D01*
X902221Y1211118D01*
X902554Y1210951D01*
X903054Y1210784D01*
X903638Y1210535D01*
X904304Y1210201D01*
X905804Y1209451D01*
X907553Y1208452D01*
X909303Y1207285D01*
X911052Y1205869D01*
X912552Y1204203D01*
Y1204120D01*
X912719Y1204036D01*
X912885Y1203703D01*
X913135Y1203370D01*
X913385Y1202953D01*
X913718Y1202370D01*
X914052Y1201787D01*
X914385Y1201037D01*
X915135Y1199371D01*
X915718Y1197371D01*
X916134Y1195122D01*
X916218Y1193872D01*
X916301Y1192622D01*
Y1192206D01*
X916218Y1191706D01*
Y1191123D01*
X916134Y1190290D01*
X915968Y1189457D01*
X915718Y1188457D01*
X915468Y1187374D01*
X915135Y1186207D01*
X914718Y1185041D01*
X914135Y1183791D01*
X913552Y1182542D01*
X912802Y1181375D01*
X911885Y1180209D01*
X910886Y1179126D01*
X909719Y1178043D01*
X909636Y1177960D01*
X909303Y1177793D01*
X908886Y1177460D01*
X908220Y1177043D01*
X907303Y1176627D01*
X906220Y1176043D01*
X904971Y1175543D01*
X903471Y1174960D01*
X901721Y1174377D01*
X899805Y1173794D01*
X897722Y1173211D01*
X895306Y1172794D01*
X892724Y1172378D01*
X889974Y1172044D01*
X886892Y1171878D01*
X883643Y1171794D01*
X883476D01*
X883143D01*
X882560D01*
X881726D01*
X880810Y1171878D01*
X879727Y1171961D01*
X878477D01*
X877144Y1172128D01*
X874228Y1172378D01*
X871146Y1172794D01*
X868147Y1173377D01*
X866730Y1173711D01*
X865397Y1174127D01*
X865314D01*
X865064Y1174211D01*
X864731Y1174377D01*
X864231Y1174544D01*
X863648Y1174794D01*
X862981Y1175127D01*
X861398Y1175877D01*
X859732Y1176876D01*
X857899Y1178043D01*
X856150Y1179459D01*
X854650Y1181042D01*
X854567Y1181125D01*
X854483Y1181292D01*
X854317Y1181542D01*
X854067Y1181875D01*
X853817Y1182292D01*
X853484Y1182875D01*
X853150Y1183458D01*
X852734Y1184208D01*
X852067Y1185874D01*
X851484Y1187874D01*
X851068Y1190123D01*
X850901Y1191373D01*
Y1193456D01*
X850984Y1193955D01*
Y1194455D01*
X851151Y1195705D01*
X851401Y1197121D01*
X851817Y1198621D01*
X852317Y1200204D01*
X852984Y1201703D01*
Y1201787D01*
X853067Y1201870D01*
X853400Y1202370D01*
X853817Y1203036D01*
X854483Y1203953D01*
X855400Y1204953D01*
X856400Y1206036D01*
X857566Y1207119D01*
X858982Y1208118D01*
X859066D01*
X859149Y1208202D01*
X859399Y1208368D01*
X859649Y1208535D01*
X860482Y1208952D01*
X861648Y1209535D01*
X863065Y1210201D01*
X864647Y1210868D01*
X866564Y1211451D01*
X868563Y1212034D01*
X868646D01*
X868813Y1212117D01*
X869146Y1212201D01*
X869563Y1212284D01*
X870146Y1212367D01*
X870813Y1212534D01*
X871646Y1212617D01*
X872562Y1212784D01*
X873562Y1212951D01*
X874728Y1213034D01*
X875895Y1213201D01*
X877311Y1213284D01*
X878727Y1213367D01*
X880227Y1213450D01*
X881893Y1213534D01*
X883643D01*
X883809D01*
X884143D01*
X884726D01*
X885559D01*
X886475Y1213450D01*
D02*
G37*
G36*
Y1163713D02*
X887558D01*
X888808Y1163630D01*
X890141Y1163547D01*
X893057Y1163213D01*
X896139Y1162797D01*
X899139Y1162214D01*
X900555Y1161880D01*
X901888Y1161464D01*
X901971D01*
X902221Y1161380D01*
X902554Y1161214D01*
X903054Y1161047D01*
X903638Y1160797D01*
X904304Y1160464D01*
X905804Y1159714D01*
X907553Y1158714D01*
X909303Y1157548D01*
X911052Y1156132D01*
X912552Y1154466D01*
Y1154382D01*
X912719Y1154299D01*
X912885Y1153966D01*
X913135Y1153632D01*
X913385Y1153216D01*
X913718Y1152633D01*
X914052Y1152050D01*
X914385Y1151300D01*
X915135Y1149633D01*
X915718Y1147634D01*
X916134Y1145385D01*
X916218Y1144135D01*
X916301Y1142885D01*
Y1142469D01*
X916218Y1141969D01*
Y1141386D01*
X916134Y1140552D01*
X915968Y1139719D01*
X915718Y1138720D01*
X915468Y1137637D01*
X915135Y1136470D01*
X914718Y1135304D01*
X914135Y1134054D01*
X913552Y1132804D01*
X912802Y1131638D01*
X911885Y1130472D01*
X910886Y1129389D01*
X909719Y1128306D01*
X909636Y1128222D01*
X909303Y1128056D01*
X908886Y1127722D01*
X908220Y1127306D01*
X907303Y1126889D01*
X906220Y1126306D01*
X904971Y1125806D01*
X903471Y1125223D01*
X901721Y1124640D01*
X899805Y1124057D01*
X897722Y1123473D01*
X895306Y1123057D01*
X892724Y1122640D01*
X889974Y1122307D01*
X886892Y1122141D01*
X883643Y1122057D01*
X883476D01*
X883143D01*
X882560D01*
X881726D01*
X880810Y1122141D01*
X879727Y1122224D01*
X878477D01*
X877144Y1122390D01*
X874228Y1122640D01*
X871146Y1123057D01*
X868147Y1123640D01*
X866730Y1123973D01*
X865397Y1124390D01*
X865314D01*
X865064Y1124473D01*
X864731Y1124640D01*
X864231Y1124806D01*
X863648Y1125056D01*
X862981Y1125390D01*
X861398Y1126139D01*
X859732Y1127139D01*
X857899Y1128306D01*
X856150Y1129722D01*
X854650Y1131305D01*
X854567Y1131388D01*
X854483Y1131555D01*
X854317Y1131805D01*
X854067Y1132138D01*
X853817Y1132555D01*
X853484Y1133138D01*
X853150Y1133721D01*
X852734Y1134471D01*
X852067Y1136137D01*
X851484Y1138136D01*
X851068Y1140386D01*
X850901Y1141636D01*
Y1143718D01*
X850984Y1144218D01*
Y1144718D01*
X851151Y1145968D01*
X851401Y1147384D01*
X851817Y1148884D01*
X852317Y1150467D01*
X852984Y1151966D01*
Y1152050D01*
X853067Y1152133D01*
X853400Y1152633D01*
X853817Y1153299D01*
X854483Y1154216D01*
X855400Y1155215D01*
X856400Y1156298D01*
X857566Y1157381D01*
X858982Y1158381D01*
X859066D01*
X859149Y1158465D01*
X859399Y1158631D01*
X859649Y1158798D01*
X860482Y1159214D01*
X861648Y1159798D01*
X863065Y1160464D01*
X864647Y1161131D01*
X866564Y1161714D01*
X868563Y1162297D01*
X868646D01*
X868813Y1162380D01*
X869146Y1162464D01*
X869563Y1162547D01*
X870146Y1162630D01*
X870813Y1162797D01*
X871646Y1162880D01*
X872562Y1163047D01*
X873562Y1163213D01*
X874728Y1163297D01*
X875895Y1163463D01*
X877311Y1163547D01*
X878727Y1163630D01*
X880227Y1163713D01*
X881893Y1163797D01*
X883643D01*
X883809D01*
X884143D01*
X884726D01*
X885559D01*
X886475Y1163713D01*
D02*
G37*
G36*
X898306Y1114309D02*
X899055Y1114226D01*
X899888Y1114059D01*
X900722Y1113893D01*
X901721Y1113643D01*
X902804Y1113393D01*
X903887Y1112976D01*
X905054Y1112476D01*
X906220Y1111976D01*
X907387Y1111227D01*
X908553Y1110477D01*
X909636Y1109560D01*
X910719Y1108561D01*
X910802Y1108477D01*
X910969Y1108311D01*
X911219Y1107977D01*
X911552Y1107478D01*
X912052Y1106894D01*
X912469Y1106228D01*
X912968Y1105395D01*
X913468Y1104478D01*
X914052Y1103395D01*
X914551Y1102312D01*
X914968Y1101063D01*
X915385Y1099646D01*
X915801Y1098230D01*
X916051Y1096647D01*
X916218Y1095064D01*
X916301Y1093315D01*
Y1092398D01*
X916218Y1091732D01*
X916134Y1090899D01*
X915968Y1089982D01*
X915801Y1088982D01*
X915634Y1087816D01*
X914968Y1085400D01*
X914468Y1084150D01*
X913968Y1082817D01*
X913302Y1081568D01*
X912552Y1080318D01*
X911719Y1079152D01*
X910719Y1077985D01*
X910636Y1077902D01*
X910469Y1077735D01*
X910136Y1077485D01*
X909719Y1077069D01*
X909136Y1076652D01*
X908470Y1076152D01*
X907720Y1075652D01*
X906887Y1075153D01*
X905887Y1074569D01*
X904887Y1074069D01*
X903721Y1073570D01*
X902471Y1073153D01*
X901138Y1072736D01*
X899722Y1072487D01*
X898222Y1072320D01*
X896723Y1072237D01*
X896639D01*
X896473D01*
X896139D01*
X895640Y1072320D01*
X895140D01*
X894557Y1072403D01*
X893057Y1072653D01*
X891391Y1072986D01*
X889724Y1073570D01*
X887975Y1074319D01*
X886309Y1075402D01*
X886225D01*
X886142Y1075569D01*
X885642Y1075986D01*
X884892Y1076735D01*
X883976Y1077735D01*
X883059Y1078985D01*
X882060Y1080568D01*
X881227Y1082317D01*
X880560Y1084400D01*
Y1084317D01*
X880477Y1084150D01*
X880393Y1083900D01*
X880227Y1083567D01*
X879810Y1082734D01*
X879227Y1081651D01*
X878477Y1080485D01*
X877644Y1079235D01*
X876561Y1078152D01*
X875395Y1077152D01*
X875228Y1077069D01*
X874812Y1076819D01*
X874062Y1076402D01*
X873145Y1075986D01*
X871979Y1075569D01*
X870646Y1075153D01*
X869146Y1074903D01*
X867480Y1074819D01*
X867397D01*
X867147D01*
X866814D01*
X866314Y1074903D01*
X865731Y1074986D01*
X864981Y1075069D01*
X863398Y1075486D01*
X861565Y1076069D01*
X860565Y1076486D01*
X859565Y1076902D01*
X858566Y1077485D01*
X857566Y1078152D01*
X856650Y1078902D01*
X855733Y1079818D01*
X855650Y1079901D01*
X855483Y1080068D01*
X855317Y1080318D01*
X854983Y1080734D01*
X854650Y1081234D01*
X854233Y1081817D01*
X853734Y1082567D01*
X853317Y1083400D01*
X852901Y1084234D01*
X852401Y1085233D01*
X851984Y1086400D01*
X851651Y1087566D01*
X851318Y1088816D01*
X851068Y1090149D01*
X850984Y1091648D01*
X850901Y1093148D01*
Y1093981D01*
X850984Y1094564D01*
X851068Y1095231D01*
X851151Y1096064D01*
X851318Y1096980D01*
X851484Y1097980D01*
X852067Y1100146D01*
X852484Y1101229D01*
X852984Y1102396D01*
X853567Y1103479D01*
X854150Y1104645D01*
X854983Y1105645D01*
X855816Y1106644D01*
X855900Y1106728D01*
X856066Y1106894D01*
X856316Y1107144D01*
X856650Y1107478D01*
X857149Y1107811D01*
X857733Y1108311D01*
X858399Y1108727D01*
X859066Y1109227D01*
X860815Y1110144D01*
X862815Y1110977D01*
X863981Y1111310D01*
X865147Y1111560D01*
X866397Y1111727D01*
X867647Y1111810D01*
X867730D01*
X867813D01*
X868063D01*
X868397D01*
X869230Y1111727D01*
X870313Y1111477D01*
X871562Y1111227D01*
X872812Y1110810D01*
X874145Y1110227D01*
X875478Y1109394D01*
X875645Y1109310D01*
X875978Y1108977D01*
X876561Y1108394D01*
X877311Y1107644D01*
X878144Y1106644D01*
X878977Y1105395D01*
X879810Y1103978D01*
X880560Y1102312D01*
Y1102396D01*
X880643Y1102562D01*
X880727Y1102895D01*
X880893Y1103312D01*
X881143Y1103812D01*
X881393Y1104312D01*
X882060Y1105645D01*
X882893Y1107144D01*
X883976Y1108644D01*
X885226Y1110060D01*
X886725Y1111310D01*
X886808D01*
X886892Y1111477D01*
X887142Y1111560D01*
X887475Y1111810D01*
X887892Y1112060D01*
X888391Y1112310D01*
X889558Y1112893D01*
X891057Y1113393D01*
X892807Y1113893D01*
X894806Y1114226D01*
X896973Y1114392D01*
X897056D01*
X897306D01*
X897722D01*
X898306Y1114309D01*
D02*
G37*
G36*
X915218Y1056657D02*
X901971Y1048243D01*
X901888D01*
X901721Y1048076D01*
X901388Y1047910D01*
X901055Y1047660D01*
X900555Y1047326D01*
X899972Y1046910D01*
X898722Y1046077D01*
X897306Y1045077D01*
X895889Y1044077D01*
X894473Y1043077D01*
X893224Y1042078D01*
X893057Y1041994D01*
X892724Y1041661D01*
X892140Y1041245D01*
X891557Y1040661D01*
X890807Y1039995D01*
X890058Y1039245D01*
X889474Y1038495D01*
X888891Y1037745D01*
X888808Y1037662D01*
X888725Y1037412D01*
X888475Y1037079D01*
X888225Y1036579D01*
X887892Y1035996D01*
X887642Y1035329D01*
X887142Y1033913D01*
Y1033830D01*
X887058Y1033663D01*
Y1033330D01*
X886975Y1032830D01*
X886892Y1032164D01*
Y1031330D01*
X886808Y1030414D01*
Y1019417D01*
X915218D01*
Y1010919D01*
X851151D01*
Y1040745D01*
X851234Y1041494D01*
Y1042244D01*
X851318Y1043161D01*
X851401Y1044160D01*
X851568Y1046243D01*
X851901Y1048409D01*
X852317Y1050492D01*
X852567Y1051492D01*
X852901Y1052325D01*
Y1052408D01*
X852984Y1052492D01*
X853067Y1052742D01*
X853234Y1053075D01*
X853650Y1053908D01*
X854317Y1054908D01*
X855150Y1056074D01*
X856233Y1057240D01*
X857566Y1058407D01*
X859066Y1059490D01*
X859149D01*
X859232Y1059573D01*
X859482Y1059740D01*
X859815Y1059906D01*
X860732Y1060323D01*
X861898Y1060823D01*
X863315Y1061323D01*
X864981Y1061739D01*
X866814Y1062073D01*
X868730Y1062156D01*
X868813D01*
X869063D01*
X869396D01*
X869896Y1062073D01*
X870479Y1061989D01*
X871146Y1061906D01*
X872729Y1061573D01*
X874562Y1061073D01*
X876478Y1060323D01*
X877394Y1059823D01*
X878394Y1059240D01*
X879310Y1058490D01*
X880227Y1057740D01*
X880310Y1057657D01*
X880393Y1057574D01*
X880643Y1057240D01*
X880977Y1056907D01*
X881310Y1056407D01*
X881726Y1055824D01*
X882226Y1055158D01*
X882726Y1054408D01*
X883226Y1053491D01*
X883726Y1052492D01*
X884226Y1051325D01*
X884726Y1050076D01*
X885142Y1048743D01*
X885559Y1047326D01*
X885892Y1045743D01*
X886142Y1044077D01*
X886225Y1044244D01*
X886392Y1044660D01*
X886725Y1045244D01*
X887142Y1045993D01*
X888225Y1047660D01*
X888808Y1048409D01*
X889391Y1049159D01*
Y1049243D01*
X889558Y1049326D01*
X889974Y1049826D01*
X890724Y1050492D01*
X891724Y1051492D01*
X892890Y1052575D01*
X894390Y1053741D01*
X896056Y1054991D01*
X897889Y1056241D01*
X915218Y1067321D01*
Y1056657D01*
D02*
G37*
%LPC*%
G36*
X559455Y795035D02*
X556623D01*
X556539D01*
X556456D01*
X555956D01*
X555123D01*
X554040Y794952D01*
X552790D01*
X551374Y794869D01*
X549708Y794702D01*
X548042Y794535D01*
X544542Y794119D01*
X542793Y793786D01*
X541043Y793452D01*
X539460Y793036D01*
X538044Y792536D01*
X536711Y791953D01*
X535628Y791286D01*
X535545D01*
X535378Y791120D01*
X535128Y790953D01*
X534795Y790620D01*
X533962Y789870D01*
X532962Y788787D01*
X532046Y787454D01*
X531213Y785871D01*
X530879Y785038D01*
X530629Y784121D01*
X530463Y783122D01*
X530379Y782122D01*
Y781622D01*
X530463Y781205D01*
X530629Y780206D01*
X530963Y779039D01*
X531546Y777623D01*
X532379Y776207D01*
X532879Y775457D01*
X533462Y774790D01*
X534212Y774124D01*
X535045Y773457D01*
X535128Y773374D01*
X535295Y773291D01*
X535711Y773124D01*
X536211Y772874D01*
X536878Y772541D01*
X537711Y772208D01*
X538711Y771875D01*
X539960Y771458D01*
X541293Y771125D01*
X542876Y770708D01*
X544626Y770375D01*
X546625Y770125D01*
X548791Y769792D01*
X551207Y769625D01*
X553790Y769542D01*
X556623Y769458D01*
X556706D01*
X556789D01*
X557289D01*
X558122D01*
X559205Y769542D01*
X560455D01*
X561871Y769625D01*
X563454Y769792D01*
X565204Y769958D01*
X568703Y770375D01*
X570453Y770625D01*
X572119Y771041D01*
X573785Y771458D01*
X575201Y771958D01*
X576534Y772458D01*
X577617Y773124D01*
X577701Y773207D01*
X577867Y773291D01*
X578117Y773541D01*
X578450Y773791D01*
X579284Y774540D01*
X580200Y775624D01*
X581116Y776957D01*
X581950Y778539D01*
X582283Y779373D01*
X582533Y780289D01*
X582699Y781205D01*
X582783Y782205D01*
Y782705D01*
X582699Y783122D01*
X582616Y783538D01*
X582533Y784121D01*
X582116Y785371D01*
X581533Y786787D01*
X581116Y787537D01*
X580617Y788287D01*
X580033Y789120D01*
X579284Y789870D01*
X578534Y790620D01*
X577617Y791286D01*
X577534Y791370D01*
X577367Y791453D01*
X577034Y791619D01*
X576534Y791869D01*
X575951Y792119D01*
X575118Y792453D01*
X574202Y792786D01*
X573035Y793202D01*
X571702Y793536D01*
X570203Y793869D01*
X568453Y794202D01*
X566537Y794452D01*
X564371Y794702D01*
X562038Y794869D01*
X559455Y795035D01*
D02*
G37*
G36*
X540627Y743049D02*
X540543D01*
X540460D01*
X540210D01*
X539877Y742965D01*
X539127Y742882D01*
X538127Y742715D01*
X536961Y742299D01*
X535711Y741799D01*
X534545Y741049D01*
X533379Y740049D01*
X533212Y739883D01*
X532879Y739549D01*
X532462Y738883D01*
X531879Y737967D01*
X531296Y736883D01*
X530879Y735634D01*
X530546Y734217D01*
X530379Y732635D01*
Y732218D01*
X530463Y731885D01*
X530546Y731052D01*
X530713Y729969D01*
X531129Y728802D01*
X531629Y727553D01*
X532296Y726303D01*
X533295Y725136D01*
X533462Y725053D01*
X533795Y724720D01*
X534462Y724220D01*
X535212Y723720D01*
X536295Y723137D01*
X537461Y722720D01*
X538794Y722387D01*
X540210Y722221D01*
X540294D01*
X540377D01*
X540627D01*
X540960Y722304D01*
X541793Y722387D01*
X542793Y722554D01*
X543959Y722887D01*
X545209Y723387D01*
X546459Y724137D01*
X547625Y725053D01*
X547708Y725220D01*
X548042Y725553D01*
X548541Y726220D01*
X549041Y727136D01*
X549541Y728219D01*
X550041Y729552D01*
X550374Y731052D01*
X550458Y732718D01*
Y733134D01*
X550374Y733468D01*
X550291Y734301D01*
X550124Y735301D01*
X549791Y736467D01*
X549291Y737717D01*
X548541Y738966D01*
X547625Y740133D01*
X547458Y740299D01*
X547125Y740633D01*
X546542Y741049D01*
X545709Y741632D01*
X544709Y742132D01*
X543459Y742632D01*
X542126Y742965D01*
X540627Y743049D01*
D02*
G37*
G36*
X571036Y745631D02*
X570036D01*
X569953D01*
X569786D01*
X569453D01*
X569036Y745548D01*
X568620D01*
X568036Y745465D01*
X566703Y745131D01*
X565204Y744715D01*
X563621Y744048D01*
X562038Y743132D01*
X561288Y742549D01*
X560622Y741882D01*
X560538D01*
X560455Y741716D01*
X560039Y741216D01*
X559455Y740383D01*
X558706Y739300D01*
X558039Y737883D01*
X557456Y736300D01*
X557039Y734467D01*
X556873Y733468D01*
Y731885D01*
X556956Y731468D01*
Y730968D01*
X557039Y730468D01*
X557289Y729135D01*
X557789Y727719D01*
X558456Y726136D01*
X559289Y724637D01*
X559872Y723887D01*
X560538Y723220D01*
X560705Y723054D01*
X561205Y722637D01*
X561955Y722054D01*
X563038Y721471D01*
X564371Y720804D01*
X565954Y720221D01*
X567703Y719805D01*
X568703Y719721D01*
X569703Y719638D01*
X569869D01*
X570286D01*
X570952Y719721D01*
X571785Y719805D01*
X572785Y719971D01*
X573952Y720304D01*
X575118Y720638D01*
X576284Y721137D01*
X576451Y721221D01*
X576784Y721471D01*
X577367Y721804D01*
X578034Y722304D01*
X578784Y722970D01*
X579617Y723803D01*
X580367Y724803D01*
X581116Y725886D01*
X581200Y726053D01*
X581366Y726469D01*
X581616Y727053D01*
X581950Y727886D01*
X582283Y728969D01*
X582533Y730052D01*
X582699Y731302D01*
X582783Y732635D01*
Y733218D01*
X582699Y733551D01*
Y734051D01*
X582616Y734634D01*
X582366Y735967D01*
X581866Y737383D01*
X581283Y738966D01*
X580367Y740549D01*
X579867Y741299D01*
X579200Y741965D01*
X579117Y742049D01*
X579034Y742132D01*
X578534Y742549D01*
X577784Y743132D01*
X576701Y743798D01*
X575368Y744465D01*
X573785Y745048D01*
X572035Y745465D01*
X571036Y745631D01*
D02*
G37*
G36*
X541710Y692728D02*
X541627D01*
X541543D01*
X541293D01*
X540960Y692645D01*
X540127Y692561D01*
X539044Y692312D01*
X537878Y691895D01*
X536628Y691312D01*
X535378Y690479D01*
X534212Y689396D01*
X534045Y689229D01*
X533712Y688729D01*
X533295Y687979D01*
X532712Y686813D01*
X532462Y686146D01*
X532129Y685397D01*
X531879Y684564D01*
X531712Y683564D01*
X531462Y682564D01*
X531379Y681481D01*
X531213Y680231D01*
Y658737D01*
X552457D01*
Y678315D01*
X552374Y678898D01*
X552290Y680231D01*
X552207Y681648D01*
X551957Y683231D01*
X551707Y684647D01*
X551291Y685980D01*
X551207Y686146D01*
X551041Y686563D01*
X550791Y687146D01*
X550374Y687896D01*
X549874Y688646D01*
X549208Y689479D01*
X548375Y690312D01*
X547458Y690979D01*
X547375Y691062D01*
X546959Y691228D01*
X546459Y691562D01*
X545709Y691895D01*
X544876Y692145D01*
X543876Y692478D01*
X542876Y692645D01*
X541710Y692728D01*
D02*
G37*
G36*
X2693090Y4016736D02*
X2693007D01*
X2692923D01*
X2692673D01*
X2692340Y4016653D01*
X2691507Y4016570D01*
X2690424Y4016320D01*
X2689258Y4015903D01*
X2688008Y4015320D01*
X2686758Y4014487D01*
X2685592Y4013404D01*
X2685425Y4013237D01*
X2685092Y4012737D01*
X2684675Y4011987D01*
X2684092Y4010821D01*
X2683842Y4010155D01*
X2683509Y4009405D01*
X2683259Y4008572D01*
X2683092Y4007572D01*
X2682842Y4006572D01*
X2682759Y4005489D01*
X2682593Y4004239D01*
Y3982745D01*
X2703837D01*
Y4002323D01*
X2703754Y4002906D01*
X2703670Y4004239D01*
X2703587Y4005656D01*
X2703337Y4007239D01*
X2703087Y4008655D01*
X2702671Y4009988D01*
X2702587Y4010155D01*
X2702421Y4010571D01*
X2702171Y4011154D01*
X2701754Y4011904D01*
X2701254Y4012654D01*
X2700588Y4013487D01*
X2699755Y4014320D01*
X2698838Y4014987D01*
X2698755Y4015070D01*
X2698339Y4015237D01*
X2697839Y4015570D01*
X2697089Y4015903D01*
X2696256Y4016153D01*
X2695256Y4016486D01*
X2694256Y4016653D01*
X2693090Y4016736D01*
D02*
G37*
G36*
X2466623Y4221884D02*
X2437714D01*
X2466623Y4201722D01*
Y4221884D01*
D02*
G37*
G36*
X2442713Y4028600D02*
X2442630D01*
X2442546D01*
X2442296D01*
X2441963Y4028517D01*
X2441130Y4028433D01*
X2440047Y4028183D01*
X2438881Y4027767D01*
X2437631Y4027184D01*
X2436381Y4026351D01*
X2435215Y4025268D01*
X2435048Y4025101D01*
X2434715Y4024601D01*
X2434298Y4023851D01*
X2433715Y4022685D01*
X2433465Y4022018D01*
X2433132Y4021269D01*
X2432882Y4020435D01*
X2432715Y4019436D01*
X2432466Y4018436D01*
X2432382Y4017353D01*
X2432216Y4016103D01*
Y3994609D01*
X2453460D01*
Y4014187D01*
X2453377Y4014770D01*
X2453294Y4016103D01*
X2453210Y4017520D01*
X2452960Y4019102D01*
X2452710Y4020519D01*
X2452294Y4021852D01*
X2452210Y4022018D01*
X2452044Y4022435D01*
X2451794Y4023018D01*
X2451377Y4023768D01*
X2450877Y4024518D01*
X2450211Y4025351D01*
X2449378Y4026184D01*
X2448461Y4026850D01*
X2448378Y4026934D01*
X2447962Y4027100D01*
X2447462Y4027434D01*
X2446712Y4027767D01*
X2445879Y4028017D01*
X2444879Y4028350D01*
X2443879Y4028517D01*
X2442713Y4028600D01*
D02*
G37*
G36*
X886475Y1205453D02*
X883643D01*
X883559D01*
X883476D01*
X882976D01*
X882143D01*
X881060Y1205369D01*
X879810D01*
X878394Y1205286D01*
X876728Y1205119D01*
X875061Y1204953D01*
X871562Y1204536D01*
X869813Y1204203D01*
X868063Y1203870D01*
X866480Y1203453D01*
X865064Y1202953D01*
X863731Y1202370D01*
X862648Y1201703D01*
X862565D01*
X862398Y1201537D01*
X862148Y1201370D01*
X861815Y1201037D01*
X860982Y1200287D01*
X859982Y1199204D01*
X859066Y1197871D01*
X858232Y1196288D01*
X857899Y1195455D01*
X857649Y1194539D01*
X857483Y1193539D01*
X857399Y1192539D01*
Y1192039D01*
X857483Y1191623D01*
X857649Y1190623D01*
X857983Y1189457D01*
X858566Y1188040D01*
X859399Y1186624D01*
X859899Y1185874D01*
X860482Y1185208D01*
X861232Y1184541D01*
X862065Y1183875D01*
X862148Y1183791D01*
X862315Y1183708D01*
X862731Y1183541D01*
X863231Y1183292D01*
X863898Y1182958D01*
X864731Y1182625D01*
X865731Y1182292D01*
X866980Y1181875D01*
X868313Y1181542D01*
X869896Y1181125D01*
X871646Y1180792D01*
X873645Y1180542D01*
X875811Y1180209D01*
X878227Y1180042D01*
X880810Y1179959D01*
X883643Y1179876D01*
X883726D01*
X883809D01*
X884309D01*
X885142D01*
X886225Y1179959D01*
X887475D01*
X888891Y1180042D01*
X890474Y1180209D01*
X892224Y1180376D01*
X895723Y1180792D01*
X897472Y1181042D01*
X899139Y1181459D01*
X900805Y1181875D01*
X902221Y1182375D01*
X903554Y1182875D01*
X904637Y1183541D01*
X904721Y1183625D01*
X904887Y1183708D01*
X905137Y1183958D01*
X905470Y1184208D01*
X906303Y1184958D01*
X907220Y1186041D01*
X908136Y1187374D01*
X908969Y1188957D01*
X909303Y1189790D01*
X909553Y1190706D01*
X909719Y1191623D01*
X909803Y1192622D01*
Y1193122D01*
X909719Y1193539D01*
X909636Y1193955D01*
X909553Y1194539D01*
X909136Y1195788D01*
X908553Y1197205D01*
X908136Y1197954D01*
X907636Y1198704D01*
X907053Y1199537D01*
X906303Y1200287D01*
X905554Y1201037D01*
X904637Y1201703D01*
X904554Y1201787D01*
X904387Y1201870D01*
X904054Y1202037D01*
X903554Y1202287D01*
X902971Y1202537D01*
X902138Y1202870D01*
X901221Y1203203D01*
X900055Y1203620D01*
X898722Y1203953D01*
X897222Y1204286D01*
X895473Y1204619D01*
X893557Y1204869D01*
X891391Y1205119D01*
X889058Y1205286D01*
X886475Y1205453D01*
D02*
G37*
G36*
Y1155715D02*
X883643D01*
X883559D01*
X883476D01*
X882976D01*
X882143D01*
X881060Y1155632D01*
X879810D01*
X878394Y1155549D01*
X876728Y1155382D01*
X875061Y1155215D01*
X871562Y1154799D01*
X869813Y1154466D01*
X868063Y1154132D01*
X866480Y1153716D01*
X865064Y1153216D01*
X863731Y1152633D01*
X862648Y1151966D01*
X862565D01*
X862398Y1151800D01*
X862148Y1151633D01*
X861815Y1151300D01*
X860982Y1150550D01*
X859982Y1149467D01*
X859066Y1148134D01*
X858232Y1146551D01*
X857899Y1145718D01*
X857649Y1144801D01*
X857483Y1143802D01*
X857399Y1142802D01*
Y1142302D01*
X857483Y1141885D01*
X857649Y1140886D01*
X857983Y1139719D01*
X858566Y1138303D01*
X859399Y1136887D01*
X859899Y1136137D01*
X860482Y1135470D01*
X861232Y1134804D01*
X862065Y1134137D01*
X862148Y1134054D01*
X862315Y1133971D01*
X862731Y1133804D01*
X863231Y1133554D01*
X863898Y1133221D01*
X864731Y1132888D01*
X865731Y1132555D01*
X866980Y1132138D01*
X868313Y1131805D01*
X869896Y1131388D01*
X871646Y1131055D01*
X873645Y1130805D01*
X875811Y1130472D01*
X878227Y1130305D01*
X880810Y1130222D01*
X883643Y1130138D01*
X883726D01*
X883809D01*
X884309D01*
X885142D01*
X886225Y1130222D01*
X887475D01*
X888891Y1130305D01*
X890474Y1130472D01*
X892224Y1130638D01*
X895723Y1131055D01*
X897472Y1131305D01*
X899139Y1131721D01*
X900805Y1132138D01*
X902221Y1132638D01*
X903554Y1133138D01*
X904637Y1133804D01*
X904721Y1133887D01*
X904887Y1133971D01*
X905137Y1134221D01*
X905470Y1134471D01*
X906303Y1135220D01*
X907220Y1136304D01*
X908136Y1137637D01*
X908969Y1139219D01*
X909303Y1140053D01*
X909553Y1140969D01*
X909719Y1141885D01*
X909803Y1142885D01*
Y1143385D01*
X909719Y1143802D01*
X909636Y1144218D01*
X909553Y1144801D01*
X909136Y1146051D01*
X908553Y1147467D01*
X908136Y1148217D01*
X907636Y1148967D01*
X907053Y1149800D01*
X906303Y1150550D01*
X905554Y1151300D01*
X904637Y1151966D01*
X904554Y1152050D01*
X904387Y1152133D01*
X904054Y1152299D01*
X903554Y1152549D01*
X902971Y1152799D01*
X902138Y1153133D01*
X901221Y1153466D01*
X900055Y1153882D01*
X898722Y1154216D01*
X897222Y1154549D01*
X895473Y1154882D01*
X893557Y1155132D01*
X891391Y1155382D01*
X889058Y1155549D01*
X886475Y1155715D01*
D02*
G37*
G36*
X867647Y1103729D02*
X867563D01*
X867480D01*
X867230D01*
X866897Y1103645D01*
X866147Y1103562D01*
X865147Y1103395D01*
X863981Y1102979D01*
X862731Y1102479D01*
X861565Y1101729D01*
X860399Y1100729D01*
X860232Y1100563D01*
X859899Y1100229D01*
X859482Y1099563D01*
X858899Y1098647D01*
X858316Y1097563D01*
X857899Y1096314D01*
X857566Y1094897D01*
X857399Y1093315D01*
Y1092898D01*
X857483Y1092565D01*
X857566Y1091732D01*
X857733Y1090649D01*
X858149Y1089482D01*
X858649Y1088233D01*
X859316Y1086983D01*
X860315Y1085816D01*
X860482Y1085733D01*
X860815Y1085400D01*
X861482Y1084900D01*
X862231Y1084400D01*
X863315Y1083817D01*
X864481Y1083400D01*
X865814Y1083067D01*
X867230Y1082901D01*
X867313D01*
X867397D01*
X867647D01*
X867980Y1082984D01*
X868813Y1083067D01*
X869813Y1083234D01*
X870979Y1083567D01*
X872229Y1084067D01*
X873479Y1084817D01*
X874645Y1085733D01*
X874728Y1085900D01*
X875061Y1086233D01*
X875561Y1086900D01*
X876061Y1087816D01*
X876561Y1088899D01*
X877061Y1090232D01*
X877394Y1091732D01*
X877478Y1093398D01*
Y1093814D01*
X877394Y1094148D01*
X877311Y1094981D01*
X877144Y1095981D01*
X876811Y1097147D01*
X876311Y1098397D01*
X875561Y1099646D01*
X874645Y1100813D01*
X874478Y1100979D01*
X874145Y1101313D01*
X873562Y1101729D01*
X872729Y1102312D01*
X871729Y1102812D01*
X870479Y1103312D01*
X869146Y1103645D01*
X867647Y1103729D01*
D02*
G37*
G36*
X898056Y1106311D02*
X897056D01*
X896973D01*
X896806D01*
X896473D01*
X896056Y1106228D01*
X895640D01*
X895056Y1106145D01*
X893723Y1105811D01*
X892224Y1105395D01*
X890641Y1104728D01*
X889058Y1103812D01*
X888308Y1103229D01*
X887642Y1102562D01*
X887558D01*
X887475Y1102396D01*
X887058Y1101896D01*
X886475Y1101063D01*
X885725Y1099980D01*
X885059Y1098563D01*
X884476Y1096980D01*
X884059Y1095147D01*
X883893Y1094148D01*
Y1092565D01*
X883976Y1092148D01*
Y1091648D01*
X884059Y1091148D01*
X884309Y1089815D01*
X884809Y1088399D01*
X885475Y1086816D01*
X886309Y1085317D01*
X886892Y1084567D01*
X887558Y1083900D01*
X887725Y1083734D01*
X888225Y1083317D01*
X888975Y1082734D01*
X890058Y1082151D01*
X891391Y1081484D01*
X892974Y1080901D01*
X894723Y1080485D01*
X895723Y1080401D01*
X896723Y1080318D01*
X896889D01*
X897306D01*
X897972Y1080401D01*
X898805Y1080485D01*
X899805Y1080651D01*
X900972Y1080984D01*
X902138Y1081318D01*
X903304Y1081817D01*
X903471Y1081901D01*
X903804Y1082151D01*
X904387Y1082484D01*
X905054Y1082984D01*
X905804Y1083650D01*
X906637Y1084483D01*
X907387Y1085483D01*
X908136Y1086566D01*
X908220Y1086733D01*
X908386Y1087149D01*
X908636Y1087733D01*
X908969Y1088566D01*
X909303Y1089649D01*
X909553Y1090732D01*
X909719Y1091982D01*
X909803Y1093315D01*
Y1093898D01*
X909719Y1094231D01*
Y1094731D01*
X909636Y1095314D01*
X909386Y1096647D01*
X908886Y1098063D01*
X908303Y1099646D01*
X907387Y1101229D01*
X906887Y1101979D01*
X906220Y1102645D01*
X906137Y1102729D01*
X906054Y1102812D01*
X905554Y1103229D01*
X904804Y1103812D01*
X903721Y1104478D01*
X902388Y1105145D01*
X900805Y1105728D01*
X899055Y1106145D01*
X898056Y1106311D01*
D02*
G37*
G36*
X868730Y1053408D02*
X868646D01*
X868563D01*
X868313D01*
X867980Y1053325D01*
X867147Y1053241D01*
X866064Y1052992D01*
X864897Y1052575D01*
X863648Y1051992D01*
X862398Y1051159D01*
X861232Y1050076D01*
X861065Y1049909D01*
X860732Y1049409D01*
X860315Y1048659D01*
X859732Y1047493D01*
X859482Y1046826D01*
X859149Y1046077D01*
X858899Y1045244D01*
X858732Y1044244D01*
X858482Y1043244D01*
X858399Y1042161D01*
X858232Y1040911D01*
Y1019417D01*
X879477D01*
Y1038995D01*
X879394Y1039578D01*
X879310Y1040911D01*
X879227Y1042328D01*
X878977Y1043911D01*
X878727Y1045327D01*
X878311Y1046660D01*
X878227Y1046826D01*
X878061Y1047243D01*
X877811Y1047826D01*
X877394Y1048576D01*
X876894Y1049326D01*
X876228Y1050159D01*
X875395Y1050992D01*
X874478Y1051659D01*
X874395Y1051742D01*
X873978Y1051908D01*
X873479Y1052242D01*
X872729Y1052575D01*
X871896Y1052825D01*
X870896Y1053158D01*
X869896Y1053325D01*
X868730Y1053408D01*
D02*
G37*
%LPD*%
D140*
X872569Y3986180D02*
X1093391D01*
X872569D02*
Y4101180D01*
X1093391D01*
Y3986180D02*
Y4101180D01*
X799353Y1931393D02*
Y2132607D01*
Y1931393D02*
X1180567D01*
Y2132607D01*
X799353D02*
X1180567D01*
X1248596Y1578173D02*
X1335844D01*
Y1759387D01*
X1248596D02*
X1335844D01*
X1248596Y1578173D02*
Y1759387D01*
X545656Y559633D02*
X632904D01*
Y740847D01*
X545656D02*
X632904D01*
X545656Y559633D02*
Y740847D01*
X107513Y118936D02*
Y206184D01*
Y118936D02*
X288727D01*
Y206184D01*
X107513D02*
X288727D01*
X2683160Y3863837D02*
X2798160D01*
Y4084659D01*
X2683160D02*
X2798160D01*
X2683160Y3863837D02*
Y4084659D01*
X2431700Y3875701D02*
X2546700D01*
Y4096523D01*
X2431700D02*
X2546700D01*
X2431700Y3875701D02*
Y4096523D01*
X443360Y318740D02*
Y473740D01*
X63360D02*
X443360D01*
X63360Y318740D02*
Y473740D01*
Y318740D02*
X443360D01*
X448440Y570200D02*
Y725200D01*
X68440D02*
X448440D01*
X68440Y570200D02*
Y725200D01*
Y570200D02*
X448440D01*
X845693Y865313D02*
X986907D01*
Y1156527D01*
X845693D02*
X986907D01*
X845693Y865313D02*
Y1156527D01*
%TF.MD5,c80ab2c4d8dc19c613b9dc45e7f2240a*%
M02*
