%TF.GenerationSoftware,Altium Limited,Altium Designer,23.11.1 (41)*%
G04 Layer_Color=16711935*
%FSLAX45Y45*%
%MOMM*%
%TF.SameCoordinates,D78E9C2B-A710-42EA-B38E-4640A2B68151*%
%TF.FilePolarity,Positive*%
%TF.FileFunction,Keep-out,Top*%
%TF.Part,Single*%
G01*
G75*
%TA.AperFunction,NonConductor*%
%ADD247C,0.02540*%
G36*
X2502900Y4619600D02*
X2458900D01*
Y4639600D01*
X2502900D01*
Y4619600D01*
D02*
G37*
G36*
Y4579600D02*
X2458900D01*
Y4599600D01*
X2502900D01*
Y4579600D01*
D02*
G37*
G36*
Y4539600D02*
X2458900D01*
Y4559600D01*
X2502900D01*
Y4539600D01*
D02*
G37*
G36*
Y4499600D02*
X2458900D01*
Y4519600D01*
X2502900D01*
Y4499600D01*
D02*
G37*
G36*
Y4459600D02*
X2458900D01*
Y4479600D01*
X2502900D01*
Y4459600D01*
D02*
G37*
G36*
X2696900Y4619600D02*
X2652900D01*
Y4639600D01*
X2696900D01*
Y4619600D01*
D02*
G37*
G36*
Y4579600D02*
X2652900D01*
Y4599600D01*
X2696900D01*
Y4579600D01*
D02*
G37*
G36*
Y4539600D02*
X2652900D01*
Y4559600D01*
X2696900D01*
Y4539600D01*
D02*
G37*
G36*
Y4499600D02*
X2652900D01*
Y4519600D01*
X2696900D01*
Y4499600D01*
D02*
G37*
G36*
Y4459600D02*
X2652900D01*
Y4479600D01*
X2696900D01*
Y4459600D01*
D02*
G37*
G36*
X2502900Y4819600D02*
X2458900D01*
Y4839600D01*
X2502900D01*
Y4819600D01*
D02*
G37*
G36*
Y4779600D02*
X2458900D01*
Y4799600D01*
X2502900D01*
Y4779600D01*
D02*
G37*
G36*
Y4739600D02*
X2458900D01*
Y4759600D01*
X2502900D01*
Y4739600D01*
D02*
G37*
G36*
Y4699600D02*
X2458900D01*
Y4719600D01*
X2502900D01*
Y4699600D01*
D02*
G37*
G36*
Y4659600D02*
X2458900D01*
Y4679600D01*
X2502900D01*
Y4659600D01*
D02*
G37*
G36*
X2696900Y4819600D02*
X2652900D01*
Y4839600D01*
X2696900D01*
Y4819600D01*
D02*
G37*
G36*
Y4779600D02*
X2652900D01*
Y4799600D01*
X2696900D01*
Y4779600D01*
D02*
G37*
G36*
Y4739600D02*
X2652900D01*
Y4759600D01*
X2696900D01*
Y4739600D01*
D02*
G37*
G36*
Y4699600D02*
X2652900D01*
Y4719600D01*
X2696900D01*
Y4699600D01*
D02*
G37*
G36*
Y4659600D02*
X2652900D01*
Y4679600D01*
X2696900D01*
Y4659600D01*
D02*
G37*
D247*
X0Y1D02*
X7500000Y0D01*
X7499999D02*
Y7200000D01*
%TF.MD5,6268c0ba6835541ca02523dcf686495d*%
M02*
