%TF.GenerationSoftware,Altium Limited,Altium Designer,23.11.1 (41)*%
G04 Layer_Color=32896*
%FSLAX45Y45*%
%MOMM*%
%TF.SameCoordinates,D78E9C2B-A710-42EA-B38E-4640A2B68151*%
%TF.FilePolarity,Positive*%
%TF.FileFunction,Other,Bottom_3D_Body*%
%TF.Part,Single*%
G01*
G75*
%TA.AperFunction,NonConductor*%
%ADD139C,0.20000*%
%ADD248C,0.00100*%
D139*
X3137530Y6805900D02*
Y6960900D01*
X3057530D02*
X3137530D01*
X3057530Y6805900D02*
Y6960900D01*
Y6805900D02*
X3137530D01*
X526420Y1393200D02*
X606420D01*
X526420D02*
Y1553200D01*
X606420D01*
Y1393200D02*
Y1553200D01*
X902940Y4003680D02*
Y4083680D01*
X1057940D01*
Y4003680D02*
Y4083680D01*
X902940Y4003680D02*
X1057940D01*
X3297560Y6960900D02*
X3377560D01*
Y6805900D02*
Y6960900D01*
X3297560Y6805900D02*
X3377560D01*
X3297560D02*
Y6960900D01*
X6729100Y5558760D02*
X6809100D01*
X6729100D02*
Y5713760D01*
X6809100D01*
Y5558760D02*
Y5713760D01*
X6718940Y5993160D02*
X6798940D01*
Y5838160D02*
Y5993160D01*
X6718940Y5838160D02*
X6798940D01*
X6718940D02*
Y5993160D01*
X3777620Y6805900D02*
X3857620D01*
X3777620D02*
Y6960900D01*
X3857620D01*
Y6805900D02*
Y6960900D01*
X3537590Y6805900D02*
X3617590D01*
X3537590D02*
Y6960900D01*
X3617590D01*
Y6805900D02*
Y6960900D01*
X2817500Y6805900D02*
X2897500D01*
X2817500D02*
Y6960900D01*
X2897500D01*
Y6805900D02*
Y6960900D01*
D248*
X5034593Y4129052D02*
X5784791D01*
X5034593Y3378855D02*
Y4129052D01*
Y3378855D02*
X5784791Y3378854D01*
X5784791Y4129052D02*
X5784791Y3378854D01*
%TF.MD5,bf5139d91275cdaf93768165baa90db0*%
M02*
