%TF.GenerationSoftware,Altium Limited,Altium Designer,23.11.1 (41)*%
G04 Layer_Color=128*
%FSLAX45Y45*%
%MOMM*%
%TF.SameCoordinates,D78E9C2B-A710-42EA-B38E-4640A2B68151*%
%TF.FilePolarity,Positive*%
%TF.FileFunction,Drillmap*%
%TF.Part,Single*%
G01*
G75*
%TA.AperFunction,NonConductor*%
%ADD140C,0.12700*%
D140*
X541380Y182880D02*
X601380D01*
X571380Y152880D02*
Y212880D01*
X1241380Y182880D02*
X1301380D01*
X1271380Y152880D02*
Y212880D01*
X666380Y392880D02*
X731380D01*
X698880Y360380D02*
Y425380D01*
X1111380Y392880D02*
X1176380D01*
X1143880Y360380D02*
Y425380D01*
X1381840Y939800D02*
X1471840D01*
X1426840Y894800D02*
Y984800D01*
X1635840Y939800D02*
X1725840D01*
X1680840Y894800D02*
Y984800D01*
X200660Y1218540D02*
X280660D01*
X240660Y1178540D02*
Y1258540D01*
X200660Y1018540D02*
X280660D01*
X240660Y978540D02*
Y1058540D01*
X198120Y1643380D02*
X278120D01*
X238120Y1603380D02*
Y1683380D01*
X198120Y1843380D02*
X278120D01*
X238120Y1803380D02*
Y1883380D01*
X1955500Y1060000D02*
X2090500D01*
X2023000Y992500D02*
Y1127500D01*
X5976042Y400676D02*
X6086042D01*
X6031042Y345676D02*
Y455675D01*
X5976042Y146676D02*
X6086042D01*
X6031042Y91676D02*
Y201675D01*
X6246000Y159500D02*
X6296000D01*
X6271000Y134500D02*
Y184500D01*
X7110000Y160000D02*
X7160000D01*
X7135000Y135000D02*
Y185000D01*
X7110000Y540000D02*
X7160000D01*
X7135000Y515000D02*
Y565000D01*
X6246000Y540000D02*
X6296000D01*
X6271000Y515000D02*
Y565000D01*
X3085000Y300000D02*
X3175000D01*
X3130000Y255000D02*
Y345000D01*
X3885000Y300000D02*
X3975000D01*
X3930000Y255000D02*
Y345000D01*
X2452911Y2879662D02*
X2822911D01*
X2637911Y2694662D02*
Y3064662D01*
X2452911Y6239622D02*
X2822911D01*
X2637911Y6054622D02*
Y6424622D01*
X7024552Y6880000D02*
X7344551D01*
X7184552Y6720000D02*
Y7040000D01*
X1460002Y7025003D02*
X1510002D01*
X1485002Y7000003D02*
Y7050003D01*
X740002Y7025003D02*
X790002D01*
X765002Y7000003D02*
Y7050003D01*
X845002Y6760003D02*
X915002D01*
X880002Y6725003D02*
Y6795003D01*
X1335002Y6760003D02*
X1405002D01*
X1370002Y6725003D02*
Y6795003D01*
X7308500Y3882500D02*
X7373500D01*
X7341000Y3850000D02*
Y3915000D01*
X7308500Y3755500D02*
X7373500D01*
X7341000Y3723000D02*
Y3788000D01*
X7181500Y3755500D02*
X7246500D01*
X7214000Y3723000D02*
Y3788000D01*
X7181500Y3628500D02*
X7246500D01*
X7214000Y3596000D02*
Y3661000D01*
X7181500Y3882500D02*
X7246500D01*
X7214000Y3850000D02*
Y3915000D01*
X7181500Y4009500D02*
X7246500D01*
X7214000Y3977000D02*
Y4042000D01*
X7308500Y3628500D02*
X7373500D01*
X7341000Y3596000D02*
Y3661000D01*
X7308500Y4009500D02*
X7373500D01*
X7341000Y3977000D02*
Y4042000D01*
X7181500Y4136500D02*
X7246500D01*
X7214000Y4104000D02*
Y4169000D01*
X7308500Y4136500D02*
X7373500D01*
X7341000Y4104000D02*
Y4169000D01*
X6643000Y7023000D02*
X6753000D01*
X6698000Y6968000D02*
Y7078000D01*
X6389000Y7023000D02*
X6499000D01*
X6444000Y6968000D02*
Y7078000D01*
X6135000Y7023000D02*
X6245000D01*
X6190000Y6968000D02*
Y7078000D01*
X5881000Y7023000D02*
X5991000D01*
X5936000Y6968000D02*
Y7078000D01*
X5881000Y6769000D02*
X5991000D01*
X5936000Y6714000D02*
Y6824000D01*
X6135000Y6769000D02*
X6245000D01*
X6190000Y6714000D02*
Y6824000D01*
X6389000Y6769000D02*
X6499000D01*
X6444000Y6714000D02*
Y6824000D01*
X6643000Y6769000D02*
X6753000D01*
X6698000Y6714000D02*
Y6824000D01*
X2345080Y7023000D02*
X2455080D01*
X2400080Y6968000D02*
Y7078000D01*
X2091080Y7023000D02*
X2201080D01*
X2146080Y6968000D02*
Y7078000D01*
X1837080Y7023000D02*
X1947080D01*
X1892080Y6968000D02*
Y7078000D01*
X1837080Y6769000D02*
X1947080D01*
X1892080Y6714000D02*
Y6824000D01*
X2091080Y6769000D02*
X2201080D01*
X2146080Y6714000D02*
Y6824000D01*
X2345080Y6769000D02*
X2455080D01*
X2400080Y6714000D02*
Y6824000D01*
X4311200Y955000D02*
X4391199D01*
X4351200Y915000D02*
Y995000D01*
X5761200Y955000D02*
X5841199D01*
X5801199Y915000D02*
Y995000D01*
X5761200Y355000D02*
X5841199D01*
X5801199Y315000D02*
Y395000D01*
X4311200Y355000D02*
X4391199D01*
X4351200Y315000D02*
Y395000D01*
X2535500Y1060000D02*
X2670500D01*
X2603000Y992500D02*
Y1127500D01*
X2535500Y1760000D02*
X2670500D01*
X2603000Y1692500D02*
Y1827500D01*
X1955500Y1760000D02*
X2090500D01*
X2023000Y1692500D02*
Y1827500D01*
X2267000Y1110000D02*
X2359000D01*
X2313000Y1064000D02*
Y1156000D01*
X2267000Y1310000D02*
X2359000D01*
X2313000Y1264000D02*
Y1356000D01*
X2267000Y1510000D02*
X2359000D01*
X2313000Y1464000D02*
Y1556000D01*
X2267000Y1710000D02*
X2359000D01*
X2313000Y1664000D02*
Y1756000D01*
X7265000Y2253000D02*
X7345000D01*
X7305000Y2213000D02*
Y2293000D01*
X7265000Y2453000D02*
X7345000D01*
X7305000Y2413000D02*
Y2493000D01*
X7158300Y1627000D02*
X7258300D01*
X7208300Y1577000D02*
Y1677000D01*
X7158300Y1881000D02*
X7258300D01*
X7208300Y1831000D02*
Y1931000D01*
X7024552Y1080000D02*
X7344551D01*
X7184552Y920000D02*
Y1240000D01*
X5812871Y2879662D02*
X6182871D01*
X5997871Y2694662D02*
Y3064662D01*
X3766980Y6718300D02*
X3786980D01*
X3776980Y6708300D02*
Y6728300D01*
X3228500Y6418580D02*
X3248500D01*
X3238500Y6408580D02*
Y6428580D01*
X4402300Y5973437D02*
X4422300D01*
X4412300Y5963437D02*
Y5983437D01*
X4313080Y6040120D02*
X4333080D01*
X4323080Y6030120D02*
Y6050120D01*
X4038760Y6009640D02*
X4058760D01*
X4048760Y5999640D02*
Y6019640D01*
X3449480Y7038340D02*
X3469480D01*
X3459480Y7028340D02*
Y7048340D01*
X3688240Y7033260D02*
X3708240D01*
X3698240Y7023260D02*
Y7043260D01*
X3594260Y6390640D02*
X3614260D01*
X3604260Y6380640D02*
Y6400640D01*
X3162460Y7020560D02*
X3182460D01*
X3172460Y7010560D02*
Y7030560D01*
X2964340Y7030720D02*
X2984340D01*
X2974340Y7020720D02*
Y7040720D01*
X3271680Y7040880D02*
X3291680D01*
X3281680Y7030880D02*
Y7050880D01*
X987580Y3385820D02*
X1007580D01*
X997580Y3375820D02*
Y3395820D01*
X726600Y3799840D02*
X746600D01*
X736600Y3789840D02*
Y3809840D01*
X355440Y772160D02*
X375440D01*
X365440Y762160D02*
Y782160D01*
X547840Y916940D02*
X567840D01*
X557840Y906940D02*
Y926940D01*
X547840Y478785D02*
X567840D01*
X557840Y468785D02*
Y488785D01*
X87579Y773718D02*
X107579D01*
X97579Y763718D02*
Y783718D01*
X6583840Y5854700D02*
X6603840D01*
X6593840Y5844700D02*
Y5864700D01*
X1054260Y4175760D02*
X1074260D01*
X1064260Y4165760D02*
Y4185760D01*
X688500Y1653540D02*
X708500D01*
X698500Y1643540D02*
Y1663540D01*
X1349959Y2176460D02*
X1369959D01*
X1359959Y2166460D02*
Y2186460D01*
X2141949Y6491769D02*
X2161949D01*
X2151949Y6481769D02*
Y6501769D01*
X2180929Y6523337D02*
X2200929D01*
X2190929Y6513337D02*
Y6533337D01*
X2262533Y6604942D02*
X2282533D01*
X2272533Y6594942D02*
Y6614942D01*
X1669783Y6367433D02*
X1689783D01*
X1679783Y6357433D02*
Y6377433D01*
X1830716Y6365213D02*
X1850716D01*
X1840716Y6355213D02*
Y6375213D01*
X1583103Y6639213D02*
X1603103D01*
X1593103Y6629213D02*
Y6649213D01*
X1628823Y6639213D02*
X1648823D01*
X1638823Y6629213D02*
Y6649213D01*
X1715183Y6656993D02*
X1735183D01*
X1725183Y6646993D02*
Y6666993D01*
X1550083Y6898293D02*
X1570083D01*
X1560083Y6888293D02*
Y6908293D01*
X1702483Y6745893D02*
X1722483D01*
X1712483Y6735893D02*
Y6755893D01*
X1806137Y6627772D02*
X1826137D01*
X1816137Y6617772D02*
Y6637772D01*
X1660680Y7104380D02*
X1680680D01*
X1670680Y7094380D02*
Y7114380D01*
X484660Y4099560D02*
X504660D01*
X494660Y4089560D02*
Y4109560D01*
X3072920Y5267960D02*
X3092920D01*
X3082920Y5257960D02*
Y5277960D01*
X1190780Y3093720D02*
X1210780D01*
X1200780Y3083720D02*
Y3103720D01*
X1246660Y3197860D02*
X1266660D01*
X1256660Y3187860D02*
Y3207860D01*
X690400Y4259580D02*
X710400D01*
X700400Y4249580D02*
Y4269580D01*
X7023783Y662593D02*
X7043783D01*
X7033783Y652593D02*
Y672593D01*
X6922184Y713393D02*
X6942183D01*
X6932183Y703393D02*
Y723393D01*
X6972983Y713393D02*
X6992983D01*
X6982983Y703393D02*
Y723393D01*
X6782483Y878493D02*
X6802483D01*
X6792483Y868493D02*
Y888493D01*
X7023783Y713393D02*
X7043783D01*
X7033783Y703393D02*
Y723393D01*
X7060720Y3505200D02*
X7080720D01*
X7070720Y3495200D02*
Y3515200D01*
X7342660Y3268980D02*
X7362660D01*
X7352660Y3258980D02*
Y3278980D01*
X6972983Y662593D02*
X6992983D01*
X6982983Y652593D02*
Y672593D01*
X6925836Y662150D02*
X6945836D01*
X6935836Y652150D02*
Y672150D01*
X6782483Y776893D02*
X6802483D01*
X6792483Y766893D02*
Y786893D01*
X6782483Y827693D02*
X6802483D01*
X6792483Y817693D02*
Y837693D01*
X580860Y2346960D02*
X600860D01*
X590860Y2336960D02*
Y2356960D01*
X484660Y5577840D02*
X504660D01*
X494660Y5567840D02*
Y5587840D01*
X938479Y1807498D02*
X958479D01*
X948479Y1797498D02*
Y1817498D01*
X941019Y1253778D02*
X961019D01*
X951019Y1243778D02*
Y1263778D01*
X1134059Y623858D02*
X1154059D01*
X1144059Y613858D02*
Y633858D01*
X895299Y654338D02*
X915299D01*
X905299Y644338D02*
Y664338D01*
X1091720Y1864360D02*
X1111720D01*
X1101720Y1854360D02*
Y1874360D01*
X1272060Y1356360D02*
X1292060D01*
X1282060Y1346360D02*
Y1366360D01*
X1609880Y1219200D02*
X1629880D01*
X1619880Y1209200D02*
Y1229200D01*
X837720Y1369060D02*
X857720D01*
X847720Y1359060D02*
Y1379060D01*
X931700Y734060D02*
X951700D01*
X941700Y724060D02*
Y744060D01*
X1845259Y298738D02*
X1865259D01*
X1855259Y288738D02*
Y308738D01*
X1896059Y298738D02*
X1916059D01*
X1906059Y288738D02*
Y308738D01*
X1206020Y2456180D02*
X1226020D01*
X1216020Y2446180D02*
Y2466180D01*
X3833026Y6588082D02*
X3853026D01*
X3843026Y6578082D02*
Y6598082D01*
X6595900Y5595620D02*
X6615900D01*
X6605900Y5585620D02*
Y5605620D01*
X550700Y5730240D02*
X570700D01*
X560700Y5720240D02*
Y5740240D01*
X2760500Y2501900D02*
X2780500D01*
X2770500Y2491900D02*
Y2511900D01*
X2575080Y3741420D02*
X2595080D01*
X2585080Y3731420D02*
Y3751420D01*
X2879880Y3792220D02*
X2899880D01*
X2889880Y3782220D02*
Y3802220D01*
X2826540Y2476500D02*
X2846540D01*
X2836540Y2466500D02*
Y2486500D01*
X2448080Y4160520D02*
X2468080D01*
X2458080Y4150520D02*
Y4170520D01*
X2722400Y4147820D02*
X2742400D01*
X2732400Y4137820D02*
Y4157820D01*
X5066820Y2522220D02*
X5086820D01*
X5076820Y2512220D02*
Y2532220D01*
X5028720Y2473960D02*
X5048720D01*
X5038720Y2463960D02*
Y2483960D01*
X4175280Y2141220D02*
X4195280D01*
X4185280Y2131220D02*
Y2151220D01*
X3981018Y1918450D02*
X4001018D01*
X3991018Y1908450D02*
Y1928450D01*
X4949980Y5217160D02*
X4969980D01*
X4959980Y5207160D02*
Y5227160D01*
X4091460Y2103120D02*
X4111460D01*
X4101460Y2093120D02*
Y2113120D01*
X4886480Y5204460D02*
X4906480D01*
X4896480Y5194460D02*
Y5214460D01*
X5054120Y2783840D02*
X5074120D01*
X5064120Y2773840D02*
Y2793840D01*
X4020986Y6278202D02*
X4040986D01*
X4030986Y6268202D02*
Y6288202D01*
X771680Y5146040D02*
X791680D01*
X781680Y5136040D02*
Y5156040D01*
X761520Y5024120D02*
X781520D01*
X771520Y5014120D02*
Y5034120D01*
X769140Y4884420D02*
X789140D01*
X779140Y4874420D02*
Y4894420D01*
X774220Y4762500D02*
X794220D01*
X784220Y4752500D02*
Y4772500D01*
X1906740Y4650740D02*
X1926740D01*
X1916740Y4640740D02*
Y4660740D01*
X1843560Y4904740D02*
X1863560D01*
X1853560Y4894740D02*
Y4914740D01*
X1871500Y4785360D02*
X1891500D01*
X1881500Y4775360D02*
Y4795360D01*
X1833400Y5011420D02*
X1853400D01*
X1843400Y5001420D02*
Y5021420D01*
X4787420Y2453640D02*
X4807420D01*
X4797420Y2443640D02*
Y2463640D01*
X4828060Y2501900D02*
X4848060D01*
X4838060Y2491900D02*
Y2511900D01*
X4868700Y2458720D02*
X4888700D01*
X4878700Y2448720D02*
Y2468720D01*
X4909340Y2522220D02*
X4929340D01*
X4919340Y2512220D02*
Y2532220D01*
X863120Y4368800D02*
X883120D01*
X873120Y4358800D02*
Y4378800D01*
X776760Y4513580D02*
X796760D01*
X786760Y4503580D02*
Y4523580D01*
X776760Y4645660D02*
X796760D01*
X786760Y4635660D02*
Y4655660D01*
X540540Y6611620D02*
X560540D01*
X550540Y6601620D02*
Y6621620D01*
X565940Y6822440D02*
X585940D01*
X575940Y6812440D02*
Y6832440D01*
X543080Y6700520D02*
X563080D01*
X553080Y6690520D02*
Y6710520D01*
X499900Y6824980D02*
X519900D01*
X509900Y6814980D02*
Y6834980D01*
X3667280Y4488180D02*
X3687280D01*
X3677280Y4478180D02*
Y4498180D01*
X3959380Y5214620D02*
X3979380D01*
X3969380Y5204620D02*
Y5224620D01*
X3941600Y4958080D02*
X3961600D01*
X3951600Y4948080D02*
Y4968080D01*
X2084860Y5242560D02*
X2104860D01*
X2094860Y5232560D02*
Y5252560D01*
X5793372Y2098046D02*
X5813372D01*
X5803372Y2088046D02*
Y2108046D01*
X2923060Y4978400D02*
X2943060D01*
X2933060Y4968400D02*
Y4988400D01*
X4764560Y5732780D02*
X4784560D01*
X4774560Y5722780D02*
Y5742780D01*
X2801140Y2108200D02*
X2821140D01*
X2811140Y2098200D02*
Y2118200D01*
X5483380Y2110740D02*
X5503380D01*
X5493380Y2100740D02*
Y2120740D01*
X5850884Y1779236D02*
X5870884D01*
X5860884Y1769236D02*
Y1789236D01*
X4109082Y1816770D02*
X4129082D01*
X4119082Y1806770D02*
Y1826770D01*
X6349011Y6649022D02*
X6369011D01*
X6359011Y6639022D02*
Y6659022D01*
X4976172Y6034282D02*
X4996172D01*
X4986172Y6024282D02*
Y6044282D01*
X5913267Y2379302D02*
X5933267D01*
X5923267Y2369302D02*
Y2389302D01*
X4717591Y1958034D02*
X4737591D01*
X4727591Y1948034D02*
Y1968034D01*
X4797733Y2012428D02*
X4817733D01*
X4807733Y2002428D02*
Y2022428D01*
X5212891Y1996134D02*
X5232891D01*
X5222891Y1986134D02*
Y2006134D01*
X5482854Y7010042D02*
X5502854D01*
X5492854Y7000042D02*
Y7020042D01*
X5682146Y6885262D02*
X5702146D01*
X5692146Y6875262D02*
Y6895262D01*
X5704212Y6640106D02*
X5724212D01*
X5714212Y6630106D02*
Y6650106D01*
X5471326Y6676982D02*
X5491326D01*
X5481326Y6666982D02*
Y6686982D01*
X5289220Y6669799D02*
X5309220D01*
X5299220Y6659799D02*
Y6679799D01*
X4991266Y6689682D02*
X5011266D01*
X5001266Y6679682D02*
Y6699682D01*
X5469610Y2244078D02*
X5489610D01*
X5479610Y2234078D02*
Y2254078D01*
X3041897Y3100029D02*
X3061897D01*
X3051897Y3090029D02*
Y3110029D01*
X3022120Y2252980D02*
X3042120D01*
X3032120Y2242980D02*
Y2262980D01*
X3314220Y2621280D02*
X3334220D01*
X3324220Y2611280D02*
Y2631280D01*
X3074279Y1676492D02*
X3094279D01*
X3084279Y1666492D02*
Y1686492D01*
X5643400Y1399540D02*
X5663400D01*
X5653400Y1389540D02*
Y1409540D01*
X5155187Y1564542D02*
X5175187D01*
X5165187Y1554542D02*
Y1574542D01*
X6236383Y1399193D02*
X6256383D01*
X6246383Y1389193D02*
Y1409193D01*
X6236383Y1449993D02*
X6256383D01*
X6246383Y1439993D02*
Y1459993D01*
X6236383Y1348393D02*
X6256383D01*
X6246383Y1338393D02*
Y1358393D01*
X5313200Y1503680D02*
X5333200D01*
X5323200Y1493680D02*
Y1513680D01*
X3517062Y988060D02*
X3537062D01*
X3527062Y978060D02*
Y998060D01*
X5800880Y1986280D02*
X5820880D01*
X5810880Y1976280D02*
Y1996280D01*
X6237760Y4409440D02*
X6257760D01*
X6247760Y4399440D02*
Y4419440D01*
X6111318Y3975536D02*
X6131318D01*
X6121318Y3965536D02*
Y3985536D01*
X5878606Y4449737D02*
X5898606D01*
X5888606Y4439737D02*
Y4459737D01*
X4525800Y5402580D02*
X4545800D01*
X4535800Y5392580D02*
Y5412580D01*
X4525800Y3614420D02*
X4545800D01*
X4535800Y3604420D02*
Y3624420D01*
X6344440Y2664460D02*
X6364440D01*
X6354440Y2654460D02*
Y2674460D01*
X6550180Y3065780D02*
X6570180D01*
X6560180Y3055780D02*
Y3075780D01*
X5137940Y1435100D02*
X5157940D01*
X5147940Y1425100D02*
Y1445100D01*
X6090440Y2219960D02*
X6110440D01*
X6100440Y2209960D02*
Y2229960D01*
X5849140Y6563360D02*
X5869140D01*
X5859140Y6553360D02*
Y6573360D01*
X4904260Y6294120D02*
X4924260D01*
X4914260Y6284120D02*
Y6304120D01*
X6080280Y3235960D02*
X6100280D01*
X6090280Y3225960D02*
Y3245960D01*
X4825337Y3327720D02*
X4845337D01*
X4835337Y3317720D02*
Y3337720D01*
X1886276Y6630047D02*
X1906276D01*
X1896276Y6620047D02*
Y6640047D01*
X2015195Y6687488D02*
X2035195D01*
X2025195Y6677488D02*
Y6697488D01*
X1830716Y6300776D02*
X1850716D01*
X1840716Y6290776D02*
Y6310776D01*
X1781859Y6312131D02*
X1801858D01*
X1791858Y6302131D02*
Y6322131D01*
X2319450Y6647960D02*
X2339450D01*
X2329450Y6637960D02*
Y6657960D01*
X4588791Y6254862D02*
X4608791D01*
X4598791Y6244862D02*
Y6264862D01*
X2262660Y6677660D02*
X2282660D01*
X2272660Y6667660D02*
Y6687660D01*
X3735860Y1493520D02*
X3755860D01*
X3745860Y1483520D02*
Y1503520D01*
X1988340Y3487420D02*
X2008340D01*
X1998340Y3477420D02*
Y3497420D01*
X1254280Y2877820D02*
X1274280D01*
X1264280Y2867820D02*
Y2887820D01*
X6468900Y381000D02*
X6488900D01*
X6478900Y371000D02*
Y391000D01*
X6382540Y363220D02*
X6402540D01*
X6392540Y353220D02*
Y373220D01*
X6423180Y386080D02*
X6443180D01*
X6433180Y376080D02*
Y396080D01*
X6438420Y337820D02*
X6458420D01*
X6448420Y327820D02*
Y347820D01*
X5579900Y546100D02*
X5599900D01*
X5589900Y536100D02*
Y556100D01*
X4614700Y1203960D02*
X4634700D01*
X4624700Y1193960D02*
Y1213960D01*
X3983531Y385774D02*
X4003531D01*
X3993531Y375774D02*
Y395774D01*
X2168680Y1173480D02*
X2188680D01*
X2178680Y1163480D02*
Y1183480D01*
X7020130Y434435D02*
X7040130D01*
X7030130Y424435D02*
Y444435D01*
X1858800Y2689860D02*
X1878800D01*
X1868800Y2679860D02*
Y2699860D01*
X2516660Y1953260D02*
X2536660D01*
X2526660Y1943260D02*
Y1963260D01*
X6555260Y5275580D02*
X6575260D01*
X6565260Y5265580D02*
Y5285580D01*
X6555260Y5224780D02*
X6575260D01*
X6565260Y5214780D02*
Y5234780D01*
X6716858Y5140981D02*
X6736858D01*
X6726858Y5130981D02*
Y5150981D01*
X6481600Y4874260D02*
X6501600D01*
X6491600Y4864260D02*
Y4884260D01*
X6833411Y4711394D02*
X6853411D01*
X6843411Y4701394D02*
Y4721394D01*
X7121680Y4627880D02*
X7141680D01*
X7131680Y4617880D02*
Y4637880D01*
X7037860Y4706620D02*
X7057860D01*
X7047860Y4696620D02*
Y4716620D01*
X6832120Y3124200D02*
X6852120D01*
X6842120Y3114200D02*
Y3134200D01*
X6644160Y3048000D02*
X6664160D01*
X6654160Y3038000D02*
Y3058000D01*
X6508291Y2257754D02*
X6528291D01*
X6518291Y2247754D02*
Y2267754D01*
X4935367Y1565627D02*
X4955367D01*
X4945367Y1555627D02*
Y1575627D01*
X6799100Y2341880D02*
X6819100D01*
X6809100Y2331880D02*
Y2351880D01*
X6702580Y2397760D02*
X6722580D01*
X6712580Y2387760D02*
Y2407760D01*
X1866420Y2458720D02*
X1886420D01*
X1876420Y2448720D02*
Y2468720D01*
X2016280Y2529840D02*
X2036280D01*
X2026280Y2519840D02*
Y2539840D01*
X2793520Y1577340D02*
X2813520D01*
X2803520Y1567340D02*
Y1587340D01*
X2694460Y1557020D02*
X2714460D01*
X2704460Y1547020D02*
Y1567020D01*
X2427760Y1544320D02*
X2447760D01*
X2437760Y1534320D02*
Y1554320D01*
X2186460Y1866900D02*
X2206460D01*
X2196460Y1856900D02*
Y1876900D01*
X2181380Y1978660D02*
X2201380D01*
X2191380Y1968660D02*
Y1988660D01*
X2763040Y1160780D02*
X2783040D01*
X2773040Y1150780D02*
Y1170780D01*
X2493800Y1374140D02*
X2513800D01*
X2503800Y1364140D02*
Y1384140D01*
X1645440Y3436620D02*
X1665440D01*
X1655440Y3426620D02*
Y3446620D01*
X1861340Y3335020D02*
X1881340D01*
X1871340Y3325020D02*
Y3345020D01*
X2128942Y3324809D02*
X2148942D01*
X2138942Y3314809D02*
Y3334809D01*
X2034060Y3192780D02*
X2054060D01*
X2044060Y3182780D02*
Y3202780D01*
X2034060Y3093022D02*
X2054060D01*
X2044060Y3083022D02*
Y3103022D01*
X1853720Y3042920D02*
X1873720D01*
X1863720Y3032920D02*
Y3052920D01*
X2209320Y2969260D02*
X2229320D01*
X2219320Y2959260D02*
Y2979260D01*
X1599720Y2593340D02*
X1619720D01*
X1609720Y2583340D02*
Y2603340D01*
X995200Y2943860D02*
X1015200D01*
X1005200Y2933860D02*
Y2953860D01*
X1010440Y2893060D02*
X1030440D01*
X1020440Y2883060D02*
Y2903060D01*
X987580Y2994660D02*
X1007580D01*
X997580Y2984660D02*
Y3004660D01*
X2036600Y2641600D02*
X2056600D01*
X2046600Y2631600D02*
Y2651600D01*
X1546380Y2583180D02*
X1566380D01*
X1556380Y2573180D02*
Y2593180D01*
X1594640Y3248660D02*
X1614640D01*
X1604640Y3238660D02*
Y3258660D01*
X1696240Y3248660D02*
X1716240D01*
X1706240Y3238660D02*
Y3258660D01*
X1858800Y2991422D02*
X1878800D01*
X1868800Y2981422D02*
Y3001422D01*
X1858800Y2841562D02*
X1878800D01*
X1868800Y2831562D02*
Y2851562D01*
X1858800Y2742502D02*
X1878800D01*
X1868800Y2732502D02*
Y2752502D01*
X1190780Y2790762D02*
X1210780D01*
X1200780Y2780762D02*
Y2800762D01*
X7088660Y340360D02*
X7108660D01*
X7098660Y330360D02*
Y350360D01*
X5515309Y864490D02*
X5535308D01*
X5525308Y854490D02*
Y874490D01*
X5264940Y828040D02*
X5284940D01*
X5274940Y818040D02*
Y838040D01*
X5137940Y866140D02*
X5157940D01*
X5147940Y856140D02*
Y876140D01*
X5016020Y868680D02*
X5036020D01*
X5026020Y858680D02*
Y878680D01*
X6312322Y4816436D02*
X6332322D01*
X6322322Y4806436D02*
Y4826436D01*
X5900954Y5117987D02*
X5920954D01*
X5910954Y5107987D02*
Y5127987D01*
X3636800Y1498600D02*
X3656800D01*
X3646800Y1488600D02*
Y1508600D01*
X1373660Y5417820D02*
X1393660D01*
X1383660Y5407820D02*
Y5427820D01*
X909344Y5420636D02*
X929344D01*
X919344Y5410636D02*
Y5430636D01*
X4685250Y6244847D02*
X4705250D01*
X4695250Y6234847D02*
Y6254847D01*
X4021773Y1693310D02*
X4041772D01*
X4031772Y1683310D02*
Y1703310D01*
X4072033Y1550348D02*
X4092033D01*
X4082033Y1540348D02*
Y1560348D01*
X6585213Y5055638D02*
X6605213D01*
X6595213Y5045638D02*
Y5065638D01*
X3690146Y1653595D02*
X3710146D01*
X3700146Y1643595D02*
Y1663595D01*
X3496255Y1710981D02*
X3516255D01*
X3506255Y1700981D02*
Y1720981D01*
X4525666Y6114676D02*
X4545666D01*
X4535666Y6104676D02*
Y6124676D01*
X6922183Y433993D02*
X6942183D01*
X6932183Y423993D02*
Y443993D01*
X6972983Y433993D02*
X6992983D01*
X6982983Y423993D02*
Y443993D01*
X6922183Y383193D02*
X6942183D01*
X6932183Y373193D02*
Y393193D01*
X6972983Y383193D02*
X6992983D01*
X6982983Y373193D02*
Y393193D01*
X7023783Y383193D02*
X7043783D01*
X7033783Y373193D02*
Y393193D01*
X6541183Y459393D02*
X6561183D01*
X6551183Y449393D02*
Y469393D01*
X6461330Y434435D02*
X6481330D01*
X6471330Y424435D02*
Y444435D01*
X6414183Y433993D02*
X6434183D01*
X6424183Y423993D02*
Y443993D01*
X6680883Y827693D02*
X6700883D01*
X6690883Y817693D02*
Y837693D01*
X6731683Y776893D02*
X6751683D01*
X6741683Y766893D02*
Y786893D01*
X6731683Y827693D02*
X6751683D01*
X6741683Y817693D02*
Y837693D01*
X6731683Y878493D02*
X6751683D01*
X6741683Y868493D02*
Y888493D01*
X6680883Y878493D02*
X6700883D01*
X6690883Y868493D02*
Y888493D01*
X3419719Y1504392D02*
X3439719D01*
X3429719Y1494392D02*
Y1514392D01*
X3313039Y1504392D02*
X3333039D01*
X3323039Y1494392D02*
Y1514392D01*
X2235077Y6891309D02*
X2255077D01*
X2245077Y6881309D02*
Y6901309D01*
X1453354Y5985265D02*
X1473354D01*
X1463354Y5975265D02*
Y5995265D01*
X3738597Y1905998D02*
X3758596D01*
X3748597Y1895998D02*
Y1915998D01*
X4595136Y2522787D02*
X4615136D01*
X4605136Y2512787D02*
Y2532787D01*
X4543887Y2466183D02*
X4563887D01*
X4553887Y2456183D02*
Y2476183D01*
X4940447Y2050767D02*
X4960447D01*
X4950447Y2040767D02*
Y2060767D01*
X5686165Y1886689D02*
X5706165D01*
X5696165Y1876689D02*
Y1896689D01*
X4943670Y2154224D02*
X4963670D01*
X4953670Y2144224D02*
Y2164224D01*
X4667911Y2593771D02*
X4687911D01*
X4677911Y2583771D02*
Y2603771D01*
X4945245Y2204359D02*
X4965245D01*
X4955245Y2194359D02*
Y2214359D01*
X4729627Y2523291D02*
X4749627D01*
X4739627Y2513291D02*
Y2533291D01*
X4944006Y2102722D02*
X4964006D01*
X4954006Y2092722D02*
Y2112722D01*
X4614367Y2453770D02*
X4634367D01*
X4624367Y2443770D02*
Y2463770D01*
X4651902Y2494663D02*
X4671902D01*
X4661902Y2484663D02*
Y2504663D01*
X5683738Y2124087D02*
X5703738D01*
X5693738Y2114087D02*
Y2134087D01*
X6490383Y1373793D02*
X6510383D01*
X6500383Y1363793D02*
Y1383793D01*
X6490383Y1424593D02*
X6510383D01*
X6500383Y1414593D02*
Y1434593D01*
X6363383Y1373793D02*
X6383383D01*
X6373383Y1363793D02*
Y1383793D01*
X6363383Y1424593D02*
X6383383D01*
X6373383Y1414593D02*
Y1434593D01*
X6617383Y1348393D02*
X6637383D01*
X6627383Y1338393D02*
Y1358393D01*
X6617383Y1399193D02*
X6637383D01*
X6627383Y1389193D02*
Y1409193D01*
X6617383Y1449993D02*
X6637383D01*
X6627383Y1439993D02*
Y1459993D01*
X6617383Y1500793D02*
X6637383D01*
X6627383Y1490793D02*
Y1510793D01*
X6236383Y1500793D02*
X6256383D01*
X6246383Y1490793D02*
Y1510793D01*
X6173187Y1216570D02*
X6193187D01*
X6183187Y1206570D02*
Y1226570D01*
X6429843Y1216570D02*
X6449843D01*
X6439843Y1206570D02*
Y1226570D01*
X6303735Y1216570D02*
X6323735D01*
X6313735Y1206570D02*
Y1226570D01*
X2500239Y4934992D02*
X2520239D01*
X2510239Y4924992D02*
Y4944992D01*
X3959256Y1566451D02*
X3979256D01*
X3969256Y1556451D02*
Y1576451D01*
X3859139Y1551712D02*
X3879139D01*
X3869139Y1541712D02*
Y1561712D01*
X3198739Y1504392D02*
X3218739D01*
X3208739Y1494392D02*
Y1514392D01*
X4616731Y6414882D02*
X4636731D01*
X4626731Y6404882D02*
Y6424882D01*
X1230911Y5706222D02*
X1250911D01*
X1240911Y5696222D02*
Y5716222D01*
X2539520Y4262120D02*
X2559520D01*
X2549520Y4252120D02*
Y4272120D01*
X5832484Y3318645D02*
X5852484D01*
X5842484Y3308645D02*
Y3328645D01*
X6164084Y4213935D02*
X6184084D01*
X6174084Y4203935D02*
Y4223935D01*
X5843551Y4220322D02*
X5863551D01*
X5853551Y4210322D02*
Y4230322D01*
X5893763Y3490617D02*
X5913763D01*
X5903763Y3480617D02*
Y3500617D01*
X5549522Y4290458D02*
X5569522D01*
X5559522Y4280458D02*
Y4300458D01*
X5601577Y4407757D02*
X5621577D01*
X5611577Y4397757D02*
Y4417757D01*
X5322180Y4318111D02*
X5342180D01*
X5332180Y4308111D02*
Y4328111D01*
X4755094Y843306D02*
X4775094D01*
X4765094Y833306D02*
Y853306D01*
X4666791Y776934D02*
X4686791D01*
X4676791Y766934D02*
Y786934D01*
X3555896Y6081900D02*
X3575896D01*
X3565896Y6071900D02*
Y6091900D01*
X1183335Y6632750D02*
X1203335D01*
X1193335Y6622750D02*
Y6642750D01*
X1107135Y6632750D02*
X1127135D01*
X1117135Y6622750D02*
Y6642750D01*
X4733667Y2035627D02*
X4753667D01*
X4743667Y2025627D02*
Y2045627D01*
X5218714Y3306097D02*
X5238714D01*
X5228714Y3296097D02*
Y3316097D01*
X4120600Y6368200D02*
X4140600D01*
X4130600Y6358200D02*
Y6378200D01*
X4056866Y6409754D02*
X4076866D01*
X4066866Y6399754D02*
Y6419754D01*
X3999588Y6428134D02*
X4019588D01*
X4009588Y6418134D02*
Y6438134D01*
X3531691Y6316282D02*
X3551691D01*
X3541691Y6306282D02*
Y6326282D01*
X5890716Y4221939D02*
X5910716D01*
X5900716Y4211939D02*
Y4231939D01*
X5151286Y3898222D02*
X5171286D01*
X5161286Y3888222D02*
Y3908222D01*
X5240186Y3982042D02*
X5260186D01*
X5250186Y3972042D02*
Y3992042D01*
X5211703Y4216694D02*
X5231703D01*
X5221703Y4206694D02*
Y4226694D01*
X5652220Y4399700D02*
X5672220D01*
X5662220Y4389700D02*
Y4409700D01*
X4727728Y3686596D02*
X4747728D01*
X4737728Y3676596D02*
Y3696596D01*
X4727728Y3736756D02*
X4747728D01*
X4737728Y3726756D02*
Y3746756D01*
X4722007Y3824560D02*
X4742007D01*
X4732007Y3814560D02*
Y3834560D01*
X4882824Y3779616D02*
X4902824D01*
X4892824Y3769616D02*
Y3789615D01*
X5449572Y3946482D02*
X5469571D01*
X5459572Y3936482D02*
Y3956482D01*
X5865007Y3363947D02*
X5885007D01*
X5875007Y3353947D02*
Y3373947D01*
X5994458Y3272206D02*
X6014458D01*
X6004458Y3262206D02*
Y3282206D01*
X5460357Y3299790D02*
X5480357D01*
X5470357Y3289790D02*
Y3309790D01*
X5334984Y3163661D02*
X5354984D01*
X5344984Y3153661D02*
Y3173661D01*
X5172991Y5683362D02*
X5192991D01*
X5182991Y5673362D02*
Y5693362D01*
X5112031Y5685902D02*
X5132031D01*
X5122031Y5675902D02*
Y5695902D01*
X5236491Y5685902D02*
X5256491D01*
X5246491Y5675902D02*
Y5695902D01*
X2901685Y3573666D02*
X2921685D01*
X2911685Y3563666D02*
Y3583666D01*
X2850885Y3573666D02*
X2870885D01*
X2860885Y3563666D02*
Y3583666D01*
X6564893Y5324878D02*
X6584893D01*
X6574893Y5314878D02*
Y5334878D01*
X1641334Y3696147D02*
X1661334D01*
X1651334Y3686147D02*
Y3706147D01*
X1799958Y5077534D02*
X1819958D01*
X1809958Y5067534D02*
Y5087534D01*
X3554503Y2587562D02*
X3574503D01*
X3564503Y2577562D02*
Y2597562D01*
X6815528Y5068292D02*
X6835528D01*
X6825528Y5058292D02*
Y5078292D01*
X6866328Y5068292D02*
X6886328D01*
X6876328Y5058292D02*
Y5078292D01*
X4229808Y5613900D02*
X4249808D01*
X4239808Y5603900D02*
Y5623900D01*
X6871992Y6628857D02*
X6891992D01*
X6881992Y6618857D02*
Y6638857D01*
X5924096Y1433116D02*
X5944096D01*
X5934096Y1423116D02*
Y1443116D01*
X5924096Y1483300D02*
X5944096D01*
X5934096Y1473300D02*
Y1493300D01*
X5776000Y1483300D02*
X5796000D01*
X5786000Y1473300D02*
Y1493300D01*
X5877600Y1381700D02*
X5897600D01*
X5887600Y1371700D02*
Y1391700D01*
X5877600Y1432500D02*
X5897600D01*
X5887600Y1422500D02*
Y1442500D01*
X5826800Y1381700D02*
X5846800D01*
X5836800Y1371700D02*
Y1391700D01*
X5242093Y1189660D02*
X5262093D01*
X5252093Y1179660D02*
Y1199660D01*
X3555011Y3041132D02*
X3575011D01*
X3565011Y3031132D02*
Y3051132D01*
X2355016Y2551147D02*
X2375016D01*
X2365016Y2541147D02*
Y2561147D01*
X6345971Y5924662D02*
X6365971D01*
X6355971Y5914662D02*
Y5934662D01*
X6564411Y5475082D02*
X6584411D01*
X6574411Y5465082D02*
Y5485082D01*
X6343431Y5630022D02*
X6363431D01*
X6353431Y5620022D02*
Y5640022D01*
X6343431Y5777342D02*
X6363431D01*
X6353431Y5767342D02*
Y5787342D01*
X6340891Y6226922D02*
X6360891D01*
X6350891Y6216922D02*
Y6236922D01*
X6340891Y6077062D02*
X6360891D01*
X6350891Y6067062D02*
Y6087062D01*
X5003646Y6747429D02*
X5023646D01*
X5013646Y6737430D02*
Y6757429D01*
X4983970Y6619997D02*
X5003970D01*
X4993970Y6609997D02*
Y6629997D01*
X4929388Y6784758D02*
X4949388D01*
X4939388Y6774758D02*
Y6794758D01*
X5286111Y6614326D02*
X5306111D01*
X5296111Y6604326D02*
Y6624326D01*
X4160097Y3109661D02*
X4180097D01*
X4170097Y3099661D02*
Y3119661D01*
X5776000Y1381700D02*
X5796000D01*
X5786000Y1371700D02*
Y1391700D01*
X3791231Y2604882D02*
X3811231D01*
X3801231Y2594882D02*
Y2614882D01*
X4983151Y2618482D02*
X5003151D01*
X4993151Y2608482D02*
Y2628482D01*
X4748811Y2612502D02*
X4768811D01*
X4758811Y2602502D02*
Y2622502D01*
X6562371Y3491342D02*
X6582371D01*
X6572371Y3481342D02*
Y3501342D01*
X6562371Y3648822D02*
X6582371D01*
X6572371Y3638822D02*
Y3658822D01*
X6610631Y3798682D02*
X6630631D01*
X6620631Y3788682D02*
Y3808682D01*
X6562371Y3946002D02*
X6582371D01*
X6572371Y3936002D02*
Y3956002D01*
X6562371Y4098158D02*
X6582371D01*
X6572371Y4088158D02*
Y4108158D01*
X6611349Y4100942D02*
X6631349D01*
X6621349Y4090942D02*
Y4110942D01*
X6611349Y4240251D02*
X6631349D01*
X6621349Y4230251D02*
Y4250251D01*
X6309507Y3378014D02*
X6329507D01*
X6319507Y3368014D02*
Y3388014D01*
X5052226Y4766902D02*
X5072226D01*
X5062226Y4756902D02*
Y4776902D01*
X3910611Y3064622D02*
X3930611D01*
X3920611Y3054622D02*
Y3074622D01*
X4023846Y3204494D02*
X4043846D01*
X4033846Y3194494D02*
Y3214494D01*
X4887107Y3583260D02*
X4907107D01*
X4897107Y3573260D02*
Y3593260D01*
X6576847Y3997760D02*
X6596847D01*
X6586847Y3987760D02*
Y4007760D01*
X6576847Y4047920D02*
X6596847D01*
X6586847Y4037920D02*
Y4057920D01*
X1861340Y3817620D02*
X1881340D01*
X1871340Y3807620D02*
Y3827620D01*
X5152671Y2960942D02*
X5172671D01*
X5162671Y2950942D02*
Y2970942D01*
X4987740Y3043040D02*
X5007740D01*
X4997740Y3033040D02*
Y3053040D01*
X4867235Y3043779D02*
X4887235D01*
X4877235Y3033779D02*
Y3053779D01*
X3783611Y3036748D02*
X3803611D01*
X3793611Y3026748D02*
Y3046748D01*
X4509354Y2592060D02*
X4529354D01*
X4519354Y2582060D02*
Y2602060D01*
X5495386Y1554445D02*
X5515386D01*
X5505386Y1544445D02*
Y1564445D01*
X611151Y7098922D02*
X631151D01*
X621151Y7088922D02*
Y7108922D01*
X3353088Y3048822D02*
X3373088D01*
X3363088Y3038822D02*
Y3058822D01*
X4800687Y2874630D02*
X4820687D01*
X4810687Y2864630D02*
Y2884630D01*
X4970262Y2840535D02*
X4990262D01*
X4980262Y2830535D02*
Y2850535D01*
X4911842Y2860855D02*
X4931842D01*
X4921842Y2850855D02*
Y2870855D01*
X6164083Y3893981D02*
X6184083D01*
X6174083Y3883981D02*
Y3903981D01*
X4065645Y2389902D02*
X4085645D01*
X4075645Y2379902D02*
Y2399902D01*
X6164083Y4051998D02*
X6184083D01*
X6174083Y4041998D02*
Y4061998D01*
X3420862Y1025383D02*
X3440862D01*
X3430862Y1015383D02*
Y1035383D01*
X6164083Y3843821D02*
X6184083D01*
X6174083Y3833821D02*
Y3853821D01*
X3304234Y1905847D02*
X3324234D01*
X3314234Y1895847D02*
Y1915847D01*
X6164083Y3567291D02*
X6184083D01*
X6174083Y3557291D02*
Y3577291D01*
X3069268Y3148091D02*
X3089268D01*
X3079268Y3138092D02*
Y3158091D01*
X2982107Y3224247D02*
X3002107D01*
X2992107Y3214247D02*
Y3234247D01*
X4170482Y2433241D02*
X4190482D01*
X4180482Y2423241D02*
Y2443241D01*
X4028480Y2242760D02*
X4048480D01*
X4038480Y2232760D02*
Y2252760D01*
X4384657Y2361743D02*
X4404657D01*
X4394657Y2351743D02*
Y2371743D01*
X5036893Y2831410D02*
X5056893D01*
X5046893Y2821410D02*
Y2841410D01*
X6164084Y4163776D02*
X6184084D01*
X6174084Y4153776D02*
Y4173775D01*
X6164083Y4001838D02*
X6184083D01*
X6174083Y3991838D02*
Y4011838D01*
X5100486Y3209882D02*
X5120486D01*
X5110486Y3199882D02*
Y3219882D01*
X6164083Y3517131D02*
X6184083D01*
X6174083Y3507131D02*
Y3527131D01*
X6164083Y3683265D02*
X6184083D01*
X6174083Y3673265D02*
Y3693265D01*
X6164083Y3733425D02*
X6184083D01*
X6174083Y3723425D02*
Y3743425D01*
X5245574Y6269682D02*
X5265574D01*
X5255574Y6259682D02*
Y6279682D01*
X4677207Y6053137D02*
X4697207D01*
X4687207Y6043137D02*
Y6063137D01*
X6374411Y2739962D02*
X6394411D01*
X6384411Y2729962D02*
Y2749962D01*
X1911764Y548075D02*
X1931763D01*
X1921763Y538075D02*
Y558075D01*
X4266720Y2588260D02*
X4286720D01*
X4276720Y2578260D02*
Y2598260D01*
X501931Y7101142D02*
X521931D01*
X511931Y7091142D02*
Y7111142D01*
X946317Y6477942D02*
X966317D01*
X956317Y6467942D02*
Y6487942D01*
X4280066Y3209882D02*
X4300066D01*
X4290066Y3199882D02*
Y3219882D01*
X5617962Y2701783D02*
X5637962D01*
X5627962Y2691783D02*
Y2711783D01*
X7074431Y3072515D02*
X7094431D01*
X7084431Y3062515D02*
Y3082515D01*
X6390787Y2466685D02*
X6410787D01*
X6400787Y2456685D02*
Y2476685D01*
X5625334Y2518713D02*
X5645334D01*
X5635334Y2508713D02*
Y2528713D01*
X7273773Y2973542D02*
X7293773D01*
X7283773Y2963542D02*
Y2983542D01*
X6832766Y2783162D02*
X6852766D01*
X6842766Y2773162D02*
Y2793162D01*
X5709920Y2634156D02*
X5729920D01*
X5719920Y2624156D02*
Y2644156D01*
X5682740Y2683909D02*
X5702740D01*
X5692740Y2673909D02*
Y2693909D01*
X5711942Y2582403D02*
X5731942D01*
X5721942Y2572403D02*
Y2592403D01*
X5684002Y2536683D02*
X5704002D01*
X5694002Y2526683D02*
Y2546683D01*
X5229234Y2414822D02*
X5249234D01*
X5239234Y2404822D02*
Y2424822D01*
X6410442Y2181083D02*
X6430442D01*
X6420442Y2171083D02*
Y2191083D01*
X4767056Y3122555D02*
X4787056D01*
X4777056Y3112555D02*
Y3132555D01*
X4396906Y3143842D02*
X4416906D01*
X4406906Y3133842D02*
Y3153842D01*
X4160097Y3527536D02*
X4180097D01*
X4170097Y3517536D02*
Y3537536D01*
X4037226Y3850242D02*
X4057226D01*
X4047226Y3840242D02*
Y3860242D01*
X4037226Y4006913D02*
X4057226D01*
X4047226Y3996913D02*
Y4016913D01*
X4036226Y3529922D02*
X4056226D01*
X4046226Y3519922D02*
Y3539922D01*
X4037226Y4054722D02*
X4057226D01*
X4047226Y4044722D02*
Y4064722D01*
X4037226Y3799442D02*
X4057226D01*
X4047226Y3789442D02*
Y3809442D01*
X4037226Y3901042D02*
X4057226D01*
X4047226Y3891042D02*
Y3911042D01*
X4037226Y4104242D02*
X4057226D01*
X4047226Y4094242D02*
Y4114242D01*
X3667280Y3058160D02*
X3687280D01*
X3677280Y3048160D02*
Y3068160D01*
X3197377Y3103753D02*
X3217377D01*
X3207377Y3093753D02*
Y3113753D01*
X4725256Y6384752D02*
X4745256D01*
X4735256Y6374752D02*
Y6394752D01*
X4716728Y6094752D02*
X4736728D01*
X4726728Y6084752D02*
Y6104752D01*
X4835642Y6372083D02*
X4855642D01*
X4845642Y6362083D02*
Y6382083D01*
X4663211Y6308872D02*
X4683211D01*
X4673211Y6298872D02*
Y6318872D01*
X4673801Y6383101D02*
X4693801D01*
X4683801Y6373101D02*
Y6393101D01*
X4609582Y6339063D02*
X4629582D01*
X4619582Y6329063D02*
Y6349063D01*
X4558908Y6362049D02*
X4578908D01*
X4568908Y6352049D02*
Y6372049D01*
X4404185Y6383534D02*
X4424185D01*
X4414185Y6373534D02*
Y6393534D01*
X4354026Y6383326D02*
X4374026D01*
X4364026Y6373326D02*
Y6393326D01*
X4613191Y7045728D02*
X4633191D01*
X4623191Y7035728D02*
Y7055728D01*
X5156366Y6113102D02*
X5176366D01*
X5166366Y6103102D02*
Y6123102D01*
X4161968Y6593707D02*
X4181968D01*
X4171968Y6583707D02*
Y6603707D01*
X5191926Y6269682D02*
X5211926D01*
X5201926Y6259682D02*
Y6279682D01*
X4924599Y5910714D02*
X4944599D01*
X4934599Y5900714D02*
Y5920714D01*
X4637207Y6013137D02*
X4657207D01*
X4647207Y6003137D02*
Y6023137D01*
X4995018Y6932174D02*
X5015018D01*
X5005018Y6922174D02*
Y6942174D01*
X4991953Y7026613D02*
X5011953D01*
X5001953Y7016613D02*
Y7036613D01*
X4807796Y6693320D02*
X4827796D01*
X4817796Y6683320D02*
Y6703320D01*
X4803181Y7024144D02*
X4823181D01*
X4813181Y7014144D02*
Y7034144D01*
X5209733Y6113102D02*
X5229733D01*
X5219733Y6103102D02*
Y6123102D01*
X5473847Y6112227D02*
X5493847D01*
X5483847Y6102227D02*
Y6122227D01*
X6399628Y6302300D02*
X6419628D01*
X6409628Y6292300D02*
Y6312300D01*
X4635344Y5961548D02*
X4655344D01*
X4645344Y5951548D02*
Y5971548D01*
X5181456Y6943206D02*
X5201456D01*
X5191456Y6933206D02*
Y6953206D01*
X4244577Y6374783D02*
X4264577D01*
X4254577Y6364783D02*
Y6384783D01*
X4048926Y6572842D02*
X4068926D01*
X4058926Y6562842D02*
Y6582842D01*
X4615146Y6847482D02*
X4635146D01*
X4625146Y6837482D02*
Y6857482D01*
X4297846Y6371862D02*
X4317846D01*
X4307846Y6361862D02*
Y6381862D01*
X4428419Y7048437D02*
X4448419D01*
X4438419Y7038437D02*
Y7058437D01*
X4422859Y6851434D02*
X4442859D01*
X4432859Y6841434D02*
Y6861434D01*
X6349321Y3072147D02*
X6369321D01*
X6359321Y3062147D02*
Y3082147D01*
X5378177Y6067097D02*
X5398177D01*
X5388177Y6057097D02*
Y6077097D01*
X5656446Y6099179D02*
X5676446D01*
X5666446Y6089179D02*
Y6109179D01*
X5639448Y6151814D02*
X5659448D01*
X5649448Y6141814D02*
Y6161814D01*
X3486413Y1997478D02*
X3506413D01*
X3496413Y1987478D02*
Y2007478D01*
X4612806Y7103702D02*
X4632806D01*
X4622806Y7093702D02*
Y7113702D01*
X5382047Y4663141D02*
X5402047D01*
X5392047Y4653141D02*
Y4673141D01*
X4839778Y4120872D02*
X4859778D01*
X4849778Y4110872D02*
Y4130872D01*
X4793531Y3606539D02*
X4813531D01*
X4803531Y3596539D02*
Y3616539D01*
X4793531Y3656699D02*
X4813531D01*
X4803531Y3646699D02*
Y3666699D01*
X6282633Y3431058D02*
X6302633D01*
X6292633Y3421058D02*
Y3441058D01*
X6165145Y3792394D02*
X6185145D01*
X6175145Y3782394D02*
Y3802394D01*
X870213Y6478038D02*
X890213D01*
X880213Y6468038D02*
Y6488038D01*
X806713Y6478038D02*
X826713D01*
X816713Y6468038D02*
Y6488038D01*
X781313Y6376438D02*
X801313D01*
X791313Y6366438D02*
Y6386438D01*
X5259880Y6350322D02*
X5279880D01*
X5269880Y6340322D02*
Y6360322D01*
X5148120Y6350322D02*
X5168120D01*
X5158120Y6340322D02*
Y6360322D01*
X5144718Y6269682D02*
X5164718D01*
X5154718Y6259682D02*
Y6279682D01*
X5204000Y6350322D02*
X5224000D01*
X5214000Y6340322D02*
Y6360322D01*
X5428856Y6016013D02*
X5448856D01*
X5438856Y6006013D02*
Y6026013D01*
X5379947Y6018211D02*
X5399947D01*
X5389947Y6008211D02*
Y6028211D01*
X5474511Y6016954D02*
X5494511D01*
X5484511Y6006954D02*
Y6026954D01*
X5288446Y7116402D02*
X5308446D01*
X5298446Y7106402D02*
Y7126402D01*
X4539791Y510234D02*
X4559791D01*
X4549791Y500234D02*
Y520234D01*
X4641391Y586434D02*
X4661391D01*
X4651391Y576434D02*
Y596434D01*
X4590591Y573734D02*
X4610591D01*
X4600591Y563734D02*
Y583734D01*
X4539791Y573734D02*
X4559791D01*
X4549791Y563734D02*
Y583734D01*
X4666791Y624534D02*
X4686791D01*
X4676791Y614534D02*
Y634534D01*
X4666791Y675334D02*
X4686791D01*
X4676791Y665334D02*
Y685334D01*
X4666791Y726134D02*
X4686791D01*
X4676791Y716134D02*
Y736134D01*
X4615991Y827734D02*
X4635991D01*
X4625991Y817734D02*
Y837734D01*
X4565191Y827734D02*
X4585191D01*
X4575191Y817734D02*
Y837734D01*
X4514391Y827734D02*
X4534391D01*
X4524391Y817734D02*
Y837734D01*
X6592111Y2135834D02*
X6612111D01*
X6602111Y2125834D02*
Y2145834D01*
X6642911Y2135834D02*
X6662911D01*
X6652911Y2125834D02*
Y2145834D01*
X6696251Y2135834D02*
X6716251D01*
X6706251Y2125834D02*
Y2145834D01*
X6592111Y2184094D02*
X6612111D01*
X6602111Y2174094D02*
Y2194094D01*
X6642911Y2184094D02*
X6662911D01*
X6652911Y2174094D02*
Y2194094D01*
X6696251Y2184094D02*
X6716251D01*
X6706251Y2174094D02*
Y2194094D01*
X6696251Y2229814D02*
X6716251D01*
X6706251Y2219814D02*
Y2239814D01*
X6642911Y2229814D02*
X6662911D01*
X6652911Y2219814D02*
Y2239814D01*
X6592111Y2229814D02*
X6612111D01*
X6602111Y2219814D02*
Y2239814D01*
X5711213Y6441659D02*
X5731213D01*
X5721213Y6431659D02*
Y6451659D01*
X5268771Y6819594D02*
X5288771D01*
X5278771Y6809594D02*
Y6829594D01*
X2473480Y502920D02*
X2493480D01*
X2483480Y492920D02*
Y512920D01*
X2981480Y822960D02*
X3001480D01*
X2991480Y812960D02*
Y832960D01*
X4273091Y1792934D02*
X4293091D01*
X4283091Y1782934D02*
Y1802934D01*
X4273091Y1843734D02*
X4293091D01*
X4283091Y1833734D02*
Y1853734D01*
X6207749Y5112310D02*
X6227749D01*
X6217749Y5102310D02*
Y5122310D01*
X6114591Y5107634D02*
X6134591D01*
X6124591Y5097634D02*
Y5117634D01*
X5935885Y5557562D02*
X5955885D01*
X5945885Y5547562D02*
Y5567562D01*
X5306226Y6278663D02*
X5326226D01*
X5316226Y6268663D02*
Y6288663D01*
X4794214Y1568354D02*
X4814214D01*
X4804214Y1558354D02*
Y1578354D01*
X4841280Y1800800D02*
X4861280D01*
X4851280Y1790800D02*
Y1810800D01*
X1855011Y815034D02*
X1875011D01*
X1865011Y805034D02*
Y825034D01*
X1855011Y766774D02*
X1875011D01*
X1865011Y756774D02*
Y776774D01*
X1879120Y515620D02*
X1899120D01*
X1889120Y505620D02*
Y525620D01*
X5580546Y5297762D02*
X5600546D01*
X5590546Y5287762D02*
Y5307762D01*
X5608486Y5056638D02*
X5628486D01*
X5618486Y5046638D02*
Y5066638D01*
X5153826Y6062302D02*
X5173826D01*
X5163826Y6052302D02*
Y6072302D01*
X4315626Y2239602D02*
X4335626D01*
X4325626Y2229602D02*
Y2249602D01*
X6055609Y6856447D02*
X6075609D01*
X6065609Y6846447D02*
Y6866447D01*
X7064329Y3427200D02*
X7084329D01*
X7074329Y3417200D02*
Y3437200D01*
X4534546Y6055151D02*
X4554546D01*
X4544546Y6045151D02*
Y6065151D01*
X5776000Y1432500D02*
X5796000D01*
X5786000Y1422500D02*
Y1442500D01*
X5826800Y1432500D02*
X5846800D01*
X5836800Y1422500D02*
Y1442500D01*
X5877600Y1483300D02*
X5897600D01*
X5887600Y1473300D02*
Y1493300D01*
X5826800Y1483300D02*
X5846800D01*
X5836800Y1473300D02*
Y1493300D01*
X6647169Y456657D02*
X6667169D01*
X6657169Y446657D02*
Y466657D01*
X6738711Y456657D02*
X6758711D01*
X6748711Y446657D02*
Y466657D01*
X4819478Y2084587D02*
X4839478D01*
X4829478Y2074587D02*
Y2094587D01*
X5509407Y2790780D02*
X5529407D01*
X5519407Y2780780D02*
Y2800780D01*
X5509407Y2739980D02*
X5529407D01*
X5519407Y2729980D02*
Y2749980D01*
X5509407Y2894947D02*
X5529407D01*
X5519407Y2884947D02*
Y2904947D01*
X5509407Y2843247D02*
X5529407D01*
X5519407Y2833247D02*
Y2853247D01*
X5506867Y2999060D02*
X5526867D01*
X5516867Y2989060D02*
Y3009060D01*
X5506867Y2948260D02*
X5526867D01*
X5516867Y2938260D02*
Y2958260D01*
X5504327Y3100980D02*
X5524327D01*
X5514327Y3090980D02*
Y3110980D01*
X5505229Y3050828D02*
X5525229D01*
X5515229Y3040828D02*
Y3060828D01*
X6188295Y5388285D02*
X6208295D01*
X6198295Y5378285D02*
Y5398285D01*
X4801388Y3896699D02*
X4821388D01*
X4811388Y3886699D02*
Y3906699D01*
X4801388Y3846539D02*
X4821388D01*
X4811388Y3836539D02*
Y3856539D01*
X6576847Y3595800D02*
X6596847D01*
X6586847Y3585800D02*
Y3605800D01*
X6550807Y2980407D02*
X6570807D01*
X6560807Y2970407D02*
Y2990407D01*
X3089806Y3291442D02*
X3109806D01*
X3099806Y3281442D02*
Y3301442D01*
X4659526Y6720442D02*
X4679526D01*
X4669526Y6710442D02*
Y6730442D01*
X5680204Y6709621D02*
X5700204D01*
X5690204Y6699621D02*
Y6719621D01*
X5787286Y1825862D02*
X5807286D01*
X5797286Y1815862D02*
Y1835862D01*
X5165936Y2016082D02*
X5185936D01*
X5175936Y2006082D02*
Y2026082D01*
X3400580Y4178300D02*
X3420580D01*
X3410580Y4168300D02*
Y4188300D01*
X3213557Y3573666D02*
X3233557D01*
X3223557Y3563666D02*
Y3583666D01*
X3319300Y5425440D02*
X3339300D01*
X3329300Y5415440D02*
Y5435440D01*
X2891686Y4713842D02*
X2911686D01*
X2901686Y4703842D02*
Y4723842D01*
X3183786Y6042262D02*
X3203786D01*
X3193786Y6032262D02*
Y6052262D01*
X2504606Y5884502D02*
X2524606D01*
X2514606Y5874502D02*
Y5894502D01*
X2510956Y5833702D02*
X2530956D01*
X2520956Y5823702D02*
Y5843702D01*
X2570646Y5833702D02*
X2590646D01*
X2580646Y5823702D02*
Y5843702D01*
X3383822Y3194642D02*
X3403822D01*
X3393822Y3184642D02*
Y3204642D01*
X6559924Y5132769D02*
X6579924D01*
X6569924Y5122769D02*
Y5142769D01*
X5451006Y5122502D02*
X5471006D01*
X5461006Y5112502D02*
Y5132502D01*
X6779407Y2830547D02*
X6799407D01*
X6789407Y2820547D02*
Y2840547D01*
X5473847Y6066323D02*
X5493847D01*
X5483847Y6056323D02*
Y6076323D01*
X5427086Y6113343D02*
X5447086D01*
X5437086Y6103343D02*
Y6123343D01*
X5427086Y6064899D02*
X5447086D01*
X5437086Y6054899D02*
Y6074899D01*
X5378177Y6113001D02*
X5398177D01*
X5388177Y6103001D02*
Y6123001D01*
X5484109Y6894547D02*
X5504109D01*
X5494109Y6884547D02*
Y6904547D01*
X6275913Y3326355D02*
X6295913D01*
X6285913Y3316355D02*
Y3336355D01*
X7404880Y3132511D02*
X7424879D01*
X7414880Y3122511D02*
Y3142511D01*
X5791366Y7027502D02*
X5811366D01*
X5801366Y7017502D02*
Y7037502D01*
X5798543Y6901207D02*
X5818543D01*
X5808543Y6891207D02*
Y6911207D01*
X5669229Y7119004D02*
X5689229D01*
X5679229Y7109004D02*
Y7129004D01*
X5460375Y6823698D02*
X5480375D01*
X5470375Y6813698D02*
Y6833698D01*
X5118071Y6979008D02*
X5138071D01*
X5128071Y6969008D02*
Y6989008D01*
X5929170Y5628742D02*
X5949170D01*
X5939170Y5618742D02*
Y5638742D01*
X5547526Y4998042D02*
X5567526D01*
X5557526Y4988042D02*
Y5008042D01*
X7173126Y4576402D02*
X7193126D01*
X7183126Y4566402D02*
Y4586402D01*
X6784506Y4662762D02*
X6804506D01*
X6794506Y4652762D02*
Y4672762D01*
X6124106Y4713562D02*
X6144106D01*
X6134106Y4703562D02*
Y4723562D01*
X5661072Y4668595D02*
X5681072D01*
X5671072Y4658595D02*
Y4678595D01*
X6124106Y4647522D02*
X6144106D01*
X6134106Y4637522D02*
Y4657522D01*
X5307226Y6047342D02*
X5327226D01*
X5317226Y6037342D02*
Y6057342D01*
X4790606Y6923362D02*
X4810606D01*
X4800606Y6913362D02*
Y6933362D01*
X4600106Y6725242D02*
X4620106D01*
X4610106Y6715242D02*
Y6735242D01*
X4285146Y6280742D02*
X4305146D01*
X4295146Y6270742D02*
Y6290742D01*
X4922686Y4832942D02*
X4942686D01*
X4932686Y4822942D02*
Y4842942D01*
X6165145Y3631838D02*
X6185145D01*
X6175145Y3621838D02*
Y3641838D01*
X6165145Y3465704D02*
X6185145D01*
X6175145Y3455704D02*
Y3475704D01*
X5639966Y3969622D02*
X5659966D01*
X5649966Y3959622D02*
Y3979622D01*
X5601866Y3928982D02*
X5621866D01*
X5611866Y3918982D02*
Y3938982D01*
X5563766Y3893422D02*
X5583766D01*
X5573766Y3883422D02*
Y3903422D01*
X5606946Y3677522D02*
X5626946D01*
X5616946Y3667522D02*
Y3687522D01*
X5540906Y3674982D02*
X5560906D01*
X5550906Y3664982D02*
Y3684982D01*
X5265586Y3761062D02*
X5285586D01*
X5275586Y3751062D02*
Y3771062D01*
X5212246Y3712802D02*
X5232246D01*
X5222246Y3702802D02*
Y3722802D01*
X7401726Y3303862D02*
X7421726D01*
X7411726Y3293862D02*
Y3313862D01*
X6273966Y3222582D02*
X6293966D01*
X6283966Y3212582D02*
Y3232582D01*
X5745646Y3367362D02*
X5765646D01*
X5755646Y3357362D02*
Y3377362D01*
X5557725Y3106067D02*
X5577725D01*
X5567725Y3096067D02*
Y3116067D01*
X5561989Y2843247D02*
X5581989D01*
X5571989Y2833247D02*
Y2853247D01*
X5561989Y2893723D02*
X5581989D01*
X5571989Y2883723D02*
Y2903723D01*
X5561989Y2790456D02*
X5581989D01*
X5571989Y2780456D02*
Y2800456D01*
X5559449Y2998736D02*
X5579449D01*
X5569449Y2988736D02*
Y3008736D01*
X5559449Y2948260D02*
X5579449D01*
X5569449Y2938260D02*
Y2958260D01*
X5561989Y2739980D02*
X5581989D01*
X5571989Y2729980D02*
Y2749980D01*
X5557725Y3055591D02*
X5577725D01*
X5567725Y3045591D02*
Y3065591D01*
X5460280Y3026558D02*
X5480280D01*
X5470280Y3016558D02*
Y3036558D01*
X5458626Y2922862D02*
X5478626D01*
X5468626Y2912862D02*
Y2932862D01*
X5453546Y2816182D02*
X5473546D01*
X5463546Y2806182D02*
Y2826182D01*
X4645826Y3136222D02*
X4665826D01*
X4655826Y3126222D02*
Y3146222D01*
X4518826Y3138762D02*
X4538826D01*
X4528826Y3128762D02*
Y3148762D01*
X4277526Y3697562D02*
X4297526D01*
X4287526Y3687562D02*
Y3707562D01*
X3914306Y3514682D02*
X3934306D01*
X3924306Y3504682D02*
Y3524682D01*
X4899826Y1797642D02*
X4919826D01*
X4909826Y1787642D02*
Y1807642D01*
X2580806Y6974162D02*
X2600806D01*
X2590806Y6964162D02*
Y6984162D01*
X2580806Y7024962D02*
X2600806D01*
X2590806Y7014962D02*
Y7034962D01*
X2580806Y7075762D02*
X2600806D01*
X2590806Y7065762D02*
Y7085762D01*
X2903380Y6728460D02*
X2923380D01*
X2913380Y6718460D02*
Y6738460D01*
X3077106Y5994002D02*
X3097106D01*
X3087106Y5984002D02*
Y6004002D01*
X3673006Y3766142D02*
X3693006D01*
X3683006Y3756142D02*
Y3776142D01*
X3673006Y3654382D02*
X3693006D01*
X3683006Y3644382D02*
Y3664382D01*
X3673006Y3524842D02*
X3693006D01*
X3683006Y3514842D02*
Y3534842D01*
X739306Y5721942D02*
X759306D01*
X749306Y5711942D02*
Y5731942D01*
X830746Y5711782D02*
X850746D01*
X840746Y5701782D02*
Y5721782D01*
X802806Y5655902D02*
X822806D01*
X812806Y5645902D02*
Y5665902D01*
X2359854Y2655692D02*
X2379854D01*
X2369854Y2645692D02*
Y2665692D01*
X2359807Y2601947D02*
X2379807D01*
X2369807Y2591947D02*
Y2611947D01*
X2400447Y2551147D02*
X2420447D01*
X2410447Y2541147D02*
Y2561147D01*
X2461407Y2500347D02*
X2481407D01*
X2471407Y2490347D02*
Y2510347D01*
X2448707Y2551147D02*
X2468707D01*
X2458707Y2541147D02*
Y2561147D01*
X2461407Y2449547D02*
X2481407D01*
X2471407Y2439547D02*
Y2459547D01*
X5229492Y2302742D02*
X5249492D01*
X5239492Y2292742D02*
Y2312742D01*
X5182229Y2198568D02*
X5202229D01*
X5192229Y2188568D02*
Y2208568D01*
X4887126Y1975442D02*
X4907126D01*
X4897126Y1965442D02*
Y1985442D01*
X5200049Y2142728D02*
X5220049D01*
X5210049Y2132728D02*
Y2152728D01*
X5799540Y4394620D02*
X5819540D01*
X5809540Y4384620D02*
Y4404620D01*
X7224480Y3462440D02*
X7244480D01*
X7234480Y3452440D02*
Y3472440D01*
X4801388Y4059106D02*
X4821388D01*
X4811388Y4049106D02*
Y4069106D01*
X4801388Y4008946D02*
X4821388D01*
X4811388Y3998946D02*
Y4018946D01*
X4727728Y3977903D02*
X4747728D01*
X4737728Y3967903D02*
Y3987903D01*
X4727728Y3927743D02*
X4747728D01*
X4737728Y3917743D02*
Y3937743D01*
X7403960Y4267620D02*
X7423959D01*
X7413960Y4257620D02*
Y4277620D01*
X5859633Y4395632D02*
X5879633D01*
X5869633Y4385632D02*
Y4405632D01*
X5661977Y6451242D02*
X5681977D01*
X5671977Y6441242D02*
Y6461242D01*
X6190861Y5462762D02*
X6210861D01*
X6200861Y5452762D02*
Y5472762D01*
X5485696Y7118910D02*
X5505696D01*
X5495696Y7108910D02*
Y7128910D01*
X5479965Y6954684D02*
X5499965D01*
X5489965Y6944684D02*
Y6964684D01*
X4801180Y6855854D02*
X4821180D01*
X4811180Y6845854D02*
Y6865854D01*
X5794587Y7080731D02*
X5814587D01*
X5804587Y7070731D02*
Y7090731D01*
X5225056Y6848990D02*
X5245056D01*
X5235056Y6838990D02*
Y6858990D01*
X5476406Y6743022D02*
X5496406D01*
X5486406Y6733022D02*
Y6753022D01*
X5478946Y6621102D02*
X5498946D01*
X5488946Y6611102D02*
Y6631102D01*
X5732947Y6831047D02*
X5752947D01*
X5742947Y6821047D02*
Y6841047D01*
X6048194Y3964826D02*
X6068194D01*
X6058194Y3954826D02*
Y3974826D01*
X5774401Y3319290D02*
X5794401D01*
X5784401Y3309290D02*
Y3329290D01*
X6576847Y4197780D02*
X6596847D01*
X6586847Y4187780D02*
Y4207780D01*
X6576847Y4147620D02*
X6596847D01*
X6586847Y4137620D02*
Y4157620D01*
X6576847Y3895520D02*
X6596847D01*
X6586847Y3885520D02*
Y3905520D01*
X6576847Y3845360D02*
X6596847D01*
X6586847Y3835360D02*
Y3855360D01*
X6576847Y3748200D02*
X6596847D01*
X6586847Y3738200D02*
Y3758200D01*
X6576847Y3698040D02*
X6596847D01*
X6586847Y3688040D02*
Y3708040D01*
X6576847Y3545640D02*
X6596847D01*
X6586847Y3535640D02*
Y3555640D01*
X4728532Y3622540D02*
X4748532D01*
X4738532Y3612540D02*
Y3632540D01*
X4667572Y3665720D02*
X4687572D01*
X4677572Y3655720D02*
Y3675720D01*
X4686447Y3865200D02*
X4706447D01*
X4696447Y3855200D02*
Y3875200D01*
X4738692Y3868920D02*
X4758692D01*
X4748692Y3858920D02*
Y3878920D01*
X4662492Y3909560D02*
X4682492D01*
X4672492Y3899560D02*
Y3919560D01*
X4665032Y3970520D02*
X4685032D01*
X4675032Y3960520D02*
Y3980520D01*
X4736152Y4039100D02*
X4756152D01*
X4746152Y4029100D02*
Y4049100D01*
X2698606Y3226802D02*
X2718606D01*
X2708606Y3216802D02*
Y3236802D01*
X2549680Y3352800D02*
X2569680D01*
X2559680Y3342800D02*
Y3362800D01*
%TF.MD5,d9ebc18eac1f0736e3bec472d04cf5ce*%
M02*
