%TF.GenerationSoftware,Altium Limited,Altium Designer,23.11.1 (41)*%
G04 Layer_Color=8388736*
%FSLAX45Y45*%
%MOMM*%
%TF.SameCoordinates,D78E9C2B-A710-42EA-B38E-4640A2B68151*%
%TF.FilePolarity,Positive*%
%TF.FileFunction,Other,Top_Courtyard*%
%TF.Part,Single*%
G01*
G75*
%TA.AperFunction,NonConductor*%
%ADD139C,0.20000*%
D139*
X872569Y3986180D02*
X1093391D01*
X872569D02*
Y4101180D01*
X1093391D01*
Y3986180D02*
Y4101180D01*
X799353Y1931393D02*
Y2132607D01*
Y1931393D02*
X1180567D01*
Y2132607D01*
X799353D02*
X1180567D01*
X1248596Y1578173D02*
X1335844D01*
Y1759387D01*
X1248596D02*
X1335844D01*
X1248596Y1578173D02*
Y1759387D01*
X545656Y559633D02*
X632904D01*
Y740847D01*
X545656D02*
X632904D01*
X545656Y559633D02*
Y740847D01*
X107513Y118936D02*
Y206184D01*
Y118936D02*
X288727D01*
Y206184D01*
X107513D02*
X288727D01*
X2683160Y3863837D02*
X2798160D01*
Y4084659D01*
X2683160D02*
X2798160D01*
X2683160Y3863837D02*
Y4084659D01*
X2431700Y3875701D02*
X2546700D01*
Y4096523D01*
X2431700D02*
X2546700D01*
X2431700Y3875701D02*
Y4096523D01*
X443360Y318740D02*
Y473740D01*
X63360D02*
X443360D01*
X63360Y318740D02*
Y473740D01*
Y318740D02*
X443360D01*
X448440Y570200D02*
Y725200D01*
X68440D02*
X448440D01*
X68440Y570200D02*
Y725200D01*
Y570200D02*
X448440D01*
X845693Y865313D02*
X986907D01*
Y1156527D01*
X845693D02*
X986907D01*
X845693Y865313D02*
Y1156527D01*
%TF.MD5,64d903d10c6a527dce2b09f8339e8366*%
M02*
