%TF.GenerationSoftware,Altium Limited,Altium Designer,23.11.1 (41)*%
G04 Layer_Color=16711935*
%FSLAX45Y45*%
%MOMM*%
%TF.SameCoordinates,D78E9C2B-A710-42EA-B38E-4640A2B68151*%
%TF.FilePolarity,Positive*%
%TF.FileFunction,Other,Mechanical_13*%
%TF.Part,Single*%
G01*
G75*
%TA.AperFunction,NonConductor*%
%ADD139C,0.20000*%
%ADD140C,0.12700*%
%ADD144C,0.15240*%
%ADD147C,0.10000*%
%ADD149C,0.00000*%
%ADD247C,0.02540*%
%ADD250C,0.16000*%
G36*
X897340Y1542900D02*
Y1492900D01*
X832340D01*
Y1542900D01*
X897340D01*
D02*
G37*
G36*
Y1632900D02*
Y1582900D01*
X832340D01*
Y1632900D01*
X897340D01*
D02*
G37*
G36*
Y1732900D02*
Y1682900D01*
X832340D01*
Y1732900D01*
X897340D01*
D02*
G37*
G36*
X1132340Y1542900D02*
Y1492900D01*
X1067340D01*
Y1542900D01*
X1132340D01*
D02*
G37*
G36*
Y1637900D02*
Y1587900D01*
X1067340D01*
Y1637900D01*
X1132340D01*
D02*
G37*
G36*
Y1732900D02*
Y1682900D01*
X1067340D01*
Y1732900D01*
X1132340D01*
D02*
G37*
D139*
X1377000Y1291900D02*
G03*
X1377000Y1291900I-10000J0D01*
G01*
X1398400Y1252720D02*
G03*
X1398400Y1252720I-10000J0D01*
G01*
X3050300Y6517700D02*
G03*
X3050300Y6517700I-10000J0D01*
G01*
X540220Y3866340D02*
G03*
X540220Y3866340I-10000J0D01*
G01*
X490660Y1218540D02*
G03*
X490660Y1218540I-10000J0D01*
G01*
X488120Y1843380D02*
G03*
X488120Y1843380I-10000J0D01*
G01*
X659860Y5264420D02*
G03*
X659860Y5264420I-10000J0D01*
G01*
X535140Y6248860D02*
G03*
X535140Y6248860I-10000J0D01*
G01*
X2787900Y4899600D02*
G03*
X2787900Y4899600I-10000J0D01*
G01*
D140*
X722500Y786400D02*
Y1296400D01*
X1122500Y786400D02*
Y1296400D01*
X722500Y786400D02*
X1122500D01*
X722500Y1296400D02*
X1122500D01*
X1374400Y1921720D02*
X1677400D01*
X1374400Y1471720D02*
X1677400D01*
Y1921720D01*
X1374400Y1471720D02*
Y1921720D01*
X7518840Y5269000D02*
Y6284000D01*
X6958840D02*
X7518840D01*
X6958840Y5269000D02*
Y6284000D01*
Y5269000D02*
X7518840D01*
X6845840Y5934000D02*
Y5994000D01*
Y5934000D02*
X6895840Y5964000D01*
X6845840Y5994000D02*
X6895840Y5964000D01*
X2815300Y7107700D02*
X3890300D01*
X2815300Y6682700D02*
Y7107700D01*
Y6682700D02*
X3890300D01*
Y7107700D01*
X424940Y3325580D02*
Y4050580D01*
X54940Y3325580D02*
X424940D01*
X54940D02*
Y4050580D01*
X424940D01*
X546380Y-122120D02*
Y377880D01*
X1296380D01*
Y-122120D02*
Y377880D01*
X546380Y-122120D02*
X1296380D01*
X-55740Y5661160D02*
Y6676160D01*
Y5661160D02*
X504260D01*
Y6676160D01*
X-55740D02*
X504260D01*
X617260Y5951160D02*
Y6011160D01*
X567260Y5981160D02*
X617260Y6011160D01*
X567260Y5981160D02*
X617260Y5951160D01*
X567940Y3485880D02*
X617940Y3455880D01*
X567940Y3485880D02*
X617940Y3515880D01*
Y3455880D02*
Y3515880D01*
X-55060Y4055880D02*
X504940D01*
Y3165880D02*
Y4055880D01*
X-55060Y3165880D02*
X504940D01*
X-55060D02*
Y4055880D01*
X-39340Y823540D02*
Y1413540D01*
X410660D01*
Y823540D02*
Y1413540D01*
X-39340Y823540D02*
X410660D01*
X-41880Y1448380D02*
X408120D01*
Y2038380D01*
X-41880D02*
X408120D01*
X-41880Y1448380D02*
Y2038380D01*
X419860Y4214420D02*
Y5564420D01*
X49860Y4214420D02*
X419860D01*
X49860D02*
Y5564420D01*
X419860D01*
X49860Y6433100D02*
X419860D01*
X49860Y5708100D02*
Y6433100D01*
Y5708100D02*
X419860D01*
Y6433100D01*
X2721900Y4319600D02*
Y4979600D01*
X2433900Y4319600D02*
X2721900D01*
X2433900D02*
Y4979600D01*
X2721900D01*
X6256000Y590000D02*
X7150000D01*
Y-100000D02*
Y590000D01*
X6256000Y-100000D02*
X7150000D01*
X6256000D02*
Y590000D01*
D144*
X1063340Y1470700D02*
Y1755100D01*
X901340Y1470700D02*
Y1755100D01*
X1094100Y4203700D02*
Y5194300D01*
Y4203700D02*
X1259200D01*
X1320160D01*
X1485260D01*
Y5194300D01*
X1094100D02*
X1485260D01*
Y4229100D02*
X1589400D01*
Y4279900D01*
X1485260D02*
X1589400D01*
X1485260Y4229100D02*
Y4279900D01*
Y4356100D02*
X1589400D01*
Y4406900D01*
X1485260D02*
X1589400D01*
X1485260Y4356100D02*
Y4406900D01*
Y4483100D02*
X1589400D01*
Y4533900D01*
X1485260D02*
X1589400D01*
X1485260Y4483100D02*
Y4533900D01*
Y4610100D02*
X1589400D01*
Y4660900D01*
X1485260D02*
X1589400D01*
X1485260Y4610100D02*
Y4660900D01*
Y4737100D02*
X1589400D01*
Y4787900D01*
X1485260D02*
X1589400D01*
X1485260Y4737100D02*
Y4787900D01*
Y4864100D02*
X1589400D01*
Y4914900D01*
X1485260D02*
X1589400D01*
X1485260Y4864100D02*
Y4914900D01*
Y4991100D02*
X1589400D01*
Y5041900D01*
X1485260D02*
X1589400D01*
X1485260Y4991100D02*
Y5041900D01*
Y5118100D02*
X1589400D01*
Y5168900D01*
X1485260D02*
X1589400D01*
X1485260Y5118100D02*
Y5168900D01*
X989960D02*
X1094100D01*
X989960Y5118100D02*
Y5168900D01*
Y5118100D02*
X1094100D01*
Y5168900D01*
X989960Y5041900D02*
X1094100D01*
X989960Y4991100D02*
Y5041900D01*
Y4991100D02*
X1094100D01*
Y5041900D01*
X989960Y4914900D02*
X1094100D01*
X989960Y4864100D02*
Y4914900D01*
Y4864100D02*
X1094100D01*
Y4914900D01*
X989960Y4787900D02*
X1094100D01*
X989960Y4737100D02*
Y4787900D01*
Y4737100D02*
X1094100D01*
Y4787900D01*
X989960Y4660900D02*
X1094100D01*
X989960Y4610100D02*
Y4660900D01*
Y4610100D02*
X1094100D01*
Y4660900D01*
X989960Y4533900D02*
X1094100D01*
X989960Y4483100D02*
Y4533900D01*
Y4483100D02*
X1094100D01*
Y4533900D01*
X989960Y4406900D02*
X1094100D01*
X989960Y4356100D02*
Y4406900D01*
Y4356100D02*
X1094100D01*
Y4406900D01*
X989960Y4279900D02*
X1094100D01*
X989960Y4229100D02*
Y4279900D01*
Y4229100D02*
X1094100D01*
Y4279900D01*
D147*
X1758191Y6324942D02*
G03*
X1758191Y6324942I-50000J0D01*
G01*
X848160Y3752140D02*
X1140160D01*
X848160Y3622140D02*
X1140160D01*
X848160D02*
Y3752140D01*
X1140160Y3622140D02*
Y3752140D01*
X848660Y3754680D02*
X1140660D01*
X848660Y3624680D02*
X1140660D01*
Y3754680D01*
X848660Y3624680D02*
Y3754680D01*
X1397200Y1077400D02*
X1502200D01*
X1397200Y1132400D02*
X1502200D01*
X1397200Y1077400D02*
Y1132400D01*
X1502200Y1077400D02*
Y1132400D01*
X1311480Y4039040D02*
Y4094040D01*
X1416480Y4039040D02*
Y4094040D01*
X1311480Y4039040D02*
X1416480D01*
X1311480Y4094040D02*
X1416480D01*
X1618191Y5424942D02*
X2065691Y5424942D01*
X1618191Y6414942D02*
X2065691Y6414942D01*
Y5424942D02*
Y6414942D01*
X1618191Y5424942D02*
Y6414942D01*
D149*
X1320160Y4203700D02*
G03*
X1259200Y4203700I-30480J0D01*
G01*
X6239390Y1813500D02*
G03*
X6239390Y1813500I-7620J0D01*
G01*
D247*
X6180970Y1946215D02*
X6313685Y2078930D01*
X6180970Y1680785D02*
X6313685Y1548070D01*
X6180970D02*
X6711830D01*
Y2078930D01*
X6180970D02*
X6711830D01*
X6180970Y1548070D02*
Y2078930D01*
X4437501Y1341232D02*
Y1684132D01*
X4257161D02*
X4437501D01*
X4257161Y1341232D02*
Y1684132D01*
Y1341232D02*
X4437501D01*
D250*
X799380Y322880D02*
G03*
X799380Y322880I-8000J0D01*
G01*
%TF.MD5,bdf9f2309caf9bf7235dc731840c2bce*%
M02*
