%TF.GenerationSoftware,Altium Limited,Altium Designer,23.1.1 (15)*%
G04 Layer_Color=2752767*
%FSLAX45Y45*%
%MOMM*%
%TF.SameCoordinates,8C37DE4A-61E0-4A85-99FC-D0A1A2E6B02F*%
%TF.FilePolarity,Positive*%
%TF.FileFunction,Drawing*%
%TF.Part,Single*%
G01*
G75*
%TA.AperFunction,NonConductor*%
%ADD141C,0.12700*%
%ADD145C,0.10160*%
%ADD272C,0.16933*%
D141*
X545980Y157480D02*
Y132080D01*
X596780D01*
Y157480D01*
X622180D01*
Y208280D01*
X596780D01*
Y233680D01*
X545980D01*
Y208280D01*
X520580D01*
Y157480D01*
X545980D01*
X1245980D02*
Y132080D01*
X1296780D01*
Y157480D01*
X1322180D01*
Y208280D01*
X1296780D01*
Y233680D01*
X1245980D01*
Y208280D01*
X1220580D01*
Y157480D01*
X1245980D01*
X698880Y519839D02*
Y392880D01*
X783519D01*
X1143880Y519839D02*
Y392880D01*
X1228519D01*
X1426840Y889000D02*
X1452240Y914400D01*
X1477640D01*
X1452240Y939800D01*
X1477640Y965200D01*
X1452240D01*
X1426840Y990600D01*
X1401440Y965200D01*
X1376040D01*
X1401440Y939800D01*
X1376040Y914400D01*
X1401440D01*
X1426840Y889000D01*
X1680840D02*
X1706240Y914400D01*
X1731640D01*
X1706240Y939800D01*
X1731640Y965200D01*
X1706240D01*
X1680840Y990600D01*
X1655440Y965200D01*
X1630040D01*
X1655440Y939800D01*
X1630040Y914400D01*
X1655440D01*
X1680840Y889000D01*
X189860Y1167740D02*
Y1269340D01*
X291460D01*
Y1167740D01*
X189860D01*
X210180Y1188060D02*
Y1249020D01*
X271140D01*
Y1188060D01*
X210180D01*
X189860Y967740D02*
Y1069340D01*
X291460D01*
Y967740D01*
X189860D01*
X210180Y988060D02*
Y1049020D01*
X271140D01*
Y988060D01*
X210180D01*
X187320Y1592580D02*
Y1694180D01*
X288920D01*
Y1592580D01*
X187320D01*
X207640Y1612900D02*
Y1673860D01*
X268600D01*
Y1612900D01*
X207640D01*
X187320Y1792580D02*
Y1894180D01*
X288920D01*
Y1792580D01*
X187320D01*
X207640Y1812900D02*
Y1873860D01*
X268600D01*
Y1812900D01*
X207640D01*
X1972200Y1060000D02*
X2023000Y1110800D01*
X2073800Y1060000D01*
X2023000Y1009200D01*
X1972200Y1060000D01*
X5980242Y349876D02*
Y451476D01*
X6081842D01*
Y349876D01*
X5980242D01*
Y95876D02*
Y197476D01*
X6081842D01*
Y95876D01*
X5980242D01*
X6271000Y108700D02*
X6220200Y210300D01*
X6321800D01*
X6271000Y108700D01*
Y129020D02*
X6240520Y189980D01*
X6301480D01*
X6271000Y129020D01*
X7135000Y109200D02*
X7084200Y210800D01*
X7185800D01*
X7135000Y109200D01*
Y129520D02*
X7104520Y190480D01*
X7165480D01*
X7135000Y129520D01*
Y489200D02*
X7084200Y590800D01*
X7185800D01*
X7135000Y489200D01*
Y509520D02*
X7104520Y570480D01*
X7165480D01*
X7135000Y509520D01*
X6271000Y489200D02*
X6220200Y590800D01*
X6321800D01*
X6271000Y489200D01*
Y509520D02*
X6240520Y570480D01*
X6301480D01*
X6271000Y509520D01*
X3130000Y249200D02*
X3155400Y274600D01*
X3180800D01*
X3155400Y300000D01*
X3180800Y325400D01*
X3155400D01*
X3130000Y350800D01*
X3104600Y325400D01*
X3079200D01*
X3104600Y300000D01*
X3079200Y274600D01*
X3104600D01*
X3130000Y249200D01*
X3930000D02*
X3955400Y274600D01*
X3980800D01*
X3955400Y300000D01*
X3980800Y325400D01*
X3955400D01*
X3930000Y350800D01*
X3904600Y325400D01*
X3879200D01*
X3904600Y300000D01*
X3879200Y274600D01*
X3904600D01*
X3930000Y249200D01*
X2637911Y3006621D02*
Y2879662D01*
Y2921982D01*
X2722550Y3006621D01*
X2659070Y2943141D01*
X2722550Y2879662D01*
X2637911Y6366581D02*
Y6239622D01*
Y6281942D01*
X2722550Y6366581D01*
X2659070Y6303101D01*
X2722550Y6239622D01*
X7184552Y7006959D02*
X7226871D01*
X7205711D01*
Y6880000D01*
X7184552D01*
X7226871D01*
X880002Y6709203D02*
X829202Y6810803D01*
X930802D01*
X880002Y6709203D01*
X1370002D02*
X1319202Y6810803D01*
X1420802D01*
X1370002Y6709203D01*
X7341000Y4009459D02*
Y3882500D01*
X7425639D01*
X7341000Y3882459D02*
Y3755500D01*
X7425639D01*
X7214000Y3882459D02*
Y3755500D01*
X7298639D01*
X7214000Y3755459D02*
Y3628500D01*
X7298639D01*
X7214000Y4009459D02*
Y3882500D01*
X7298639D01*
X7214000Y4136459D02*
Y4009500D01*
X7298639D01*
X7341000Y3755459D02*
Y3628500D01*
X7425639D01*
X7341000Y4136459D02*
Y4009500D01*
X7425639D01*
X7214000Y4263459D02*
Y4136500D01*
X7298639D01*
X7341000Y4263459D02*
Y4136500D01*
X7425639D01*
X6647200Y6972200D02*
Y7073800D01*
X6748800D01*
Y6972200D01*
X6647200D01*
X6393200D02*
Y7073800D01*
X6494800D01*
Y6972200D01*
X6393200D01*
X6139200D02*
Y7073800D01*
X6240800D01*
Y6972200D01*
X6139200D01*
X5885200D02*
Y7073800D01*
X5986800D01*
Y6972200D01*
X5885200D01*
Y6718200D02*
Y6819800D01*
X5986800D01*
Y6718200D01*
X5885200D01*
X6139200D02*
Y6819800D01*
X6240800D01*
Y6718200D01*
X6139200D01*
X6393200D02*
Y6819800D01*
X6494800D01*
Y6718200D01*
X6393200D01*
X6647200D02*
Y6819800D01*
X6748800D01*
Y6718200D01*
X6647200D01*
X2349280Y6972200D02*
Y7073800D01*
X2450880D01*
Y6972200D01*
X2349280D01*
X2095280D02*
Y7073800D01*
X2196880D01*
Y6972200D01*
X2095280D01*
X1841280D02*
Y7073800D01*
X1942880D01*
Y6972200D01*
X1841280D01*
Y6718200D02*
Y6819800D01*
X1942880D01*
Y6718200D01*
X1841280D01*
X2095280D02*
Y6819800D01*
X2196880D01*
Y6718200D01*
X2095280D01*
X2349280D02*
Y6819800D01*
X2450880D01*
Y6718200D01*
X2349280D01*
X4351200Y1081959D02*
Y955000D01*
X4414679D01*
X4435839Y976160D01*
Y1060799D01*
X4414679Y1081959D01*
X4351200D01*
X5801199D02*
Y955000D01*
X5864679D01*
X5885839Y976160D01*
Y1060799D01*
X5864679Y1081959D01*
X5801199D01*
X2552200Y1060000D02*
X2603000Y1110800D01*
X2653800Y1060000D01*
X2603000Y1009200D01*
X2552200Y1060000D01*
Y1760000D02*
X2603000Y1810800D01*
X2653800Y1760000D01*
X2603000Y1709200D01*
X2552200Y1760000D01*
X1972200D02*
X2023000Y1810800D01*
X2073800Y1760000D01*
X2023000Y1709200D01*
X1972200Y1760000D01*
X2262200Y1059200D02*
X2287600Y1110000D01*
X2262200Y1160800D01*
X2313000Y1135400D01*
X2363800Y1160800D01*
X2338400Y1110000D01*
X2363800Y1059200D01*
X2313000Y1084600D01*
X2262200Y1059200D01*
Y1259200D02*
X2287600Y1310000D01*
X2262200Y1360800D01*
X2313000Y1335400D01*
X2363800Y1360800D01*
X2338400Y1310000D01*
X2363800Y1259200D01*
X2313000Y1284600D01*
X2262200Y1259200D01*
Y1459200D02*
X2287600Y1510000D01*
X2262200Y1560800D01*
X2313000Y1535400D01*
X2363800Y1560800D01*
X2338400Y1510000D01*
X2363800Y1459200D01*
X2313000Y1484600D01*
X2262200Y1459200D01*
Y1659200D02*
X2287600Y1710000D01*
X2262200Y1760800D01*
X2313000Y1735400D01*
X2363800Y1760800D01*
X2338400Y1710000D01*
X2363800Y1659200D01*
X2313000Y1684600D01*
X2262200Y1659200D01*
X7254200Y2202200D02*
Y2303800D01*
X7355800D01*
Y2202200D01*
X7254200D01*
X7274520Y2222520D02*
Y2283480D01*
X7335480D01*
Y2222520D01*
X7274520D01*
X7254200Y2402200D02*
Y2503800D01*
X7355800D01*
Y2402200D01*
X7254200D01*
X7274520Y2422520D02*
Y2483480D01*
X7335480D01*
Y2422520D01*
X7274520D01*
X7157500Y1576200D02*
X7182900D01*
X7208300Y1601600D01*
X7233700Y1576200D01*
X7259100D01*
Y1601600D01*
X7233700Y1627000D01*
X7259100Y1652400D01*
Y1677800D01*
X7233700D01*
X7208300Y1652400D01*
X7182900Y1677800D01*
X7157500D01*
Y1652400D01*
X7182900Y1627000D01*
X7157500Y1601600D01*
Y1576200D01*
Y1830200D02*
X7182900D01*
X7208300Y1855600D01*
X7233700Y1830200D01*
X7259100D01*
Y1855600D01*
X7233700Y1881000D01*
X7259100Y1906400D01*
Y1931800D01*
X7233700D01*
X7208300Y1906400D01*
X7182900Y1931800D01*
X7157500D01*
Y1906400D01*
X7182900Y1881000D01*
X7157500Y1855600D01*
Y1830200D01*
X7184552Y1206958D02*
X7226871D01*
X7205711D01*
Y1080000D01*
X7184552D01*
X7226871D01*
X5997871Y3006621D02*
Y2879662D01*
Y2921982D01*
X6082510Y3006621D01*
X6019030Y2943141D01*
X6082510Y2879662D01*
X1806759Y6753101D02*
X1764440D01*
X1785599D01*
Y6647301D01*
X1764440Y6626142D01*
X1743280D01*
X1722120Y6647301D01*
X1900776Y6754731D02*
X1858457D01*
X1879616D01*
Y6648932D01*
X1858457Y6627772D01*
X1837297D01*
X1816137Y6648932D01*
X3861619Y6845259D02*
X3819300D01*
X3840459D01*
Y6739460D01*
X3819300Y6718300D01*
X3798140D01*
X3776980Y6739460D01*
X3323139Y6545539D02*
X3280820D01*
X3301979D01*
Y6439740D01*
X3280820Y6418580D01*
X3259660D01*
X3238500Y6439740D01*
X4496939Y6100395D02*
X4454620D01*
X4475779D01*
Y5994596D01*
X4454620Y5973437D01*
X4433460D01*
X4412300Y5994596D01*
X4407719Y6167079D02*
X4365400D01*
X4386559D01*
Y6061280D01*
X4365400Y6040120D01*
X4344240D01*
X4323080Y6061280D01*
X4133399Y6136599D02*
X4091080D01*
X4112239D01*
Y6030800D01*
X4091080Y6009640D01*
X4069920D01*
X4048760Y6030800D01*
X3544119Y7165299D02*
X3501800D01*
X3522959D01*
Y7059500D01*
X3501800Y7038340D01*
X3480640D01*
X3459480Y7059500D01*
X3782879Y7160219D02*
X3740560D01*
X3761719D01*
Y7054420D01*
X3740560Y7033260D01*
X3719400D01*
X3698240Y7054420D01*
X3688899Y6517599D02*
X3646580D01*
X3667739D01*
Y6411800D01*
X3646580Y6390640D01*
X3625420D01*
X3604260Y6411800D01*
X3257099Y7147519D02*
X3214780D01*
X3235939D01*
Y7041720D01*
X3214780Y7020560D01*
X3193620D01*
X3172460Y7041720D01*
X3058979Y7157679D02*
X3016660D01*
X3037819D01*
Y7051880D01*
X3016660Y7030720D01*
X2995500D01*
X2974340Y7051880D01*
X3366319Y7167839D02*
X3324000D01*
X3345159D01*
Y7062040D01*
X3324000Y7040880D01*
X3302840D01*
X3281680Y7062040D01*
X1082219Y3512779D02*
X1039900D01*
X1061059D01*
Y3406980D01*
X1039900Y3385820D01*
X1018740D01*
X997580Y3406980D01*
X821239Y3926799D02*
X778920D01*
X800079D01*
Y3821000D01*
X778920Y3799840D01*
X757760D01*
X736600Y3821000D01*
X450079Y899119D02*
X407760D01*
X428919D01*
Y793320D01*
X407760Y772160D01*
X386600D01*
X365440Y793320D01*
X642479Y1043899D02*
X600160D01*
X621319D01*
Y938100D01*
X600160Y916940D01*
X579000D01*
X557840Y938100D01*
X642479Y605744D02*
X600160D01*
X621319D01*
Y499945D01*
X600160Y478785D01*
X579000D01*
X557840Y499945D01*
X182219Y900677D02*
X139899D01*
X161059D01*
Y794878D01*
X139899Y773718D01*
X118739D01*
X97579Y794878D01*
X6678479Y5981659D02*
X6636160D01*
X6657319D01*
Y5875860D01*
X6636160Y5854700D01*
X6615000D01*
X6593840Y5875860D01*
X1148899Y4302719D02*
X1106580D01*
X1127739D01*
Y4196920D01*
X1106580Y4175760D01*
X1085420D01*
X1064260Y4196920D01*
X783139Y1780499D02*
X740820D01*
X761979D01*
Y1674700D01*
X740820Y1653540D01*
X719660D01*
X698500Y1674700D01*
X1444599Y2303419D02*
X1402279D01*
X1423439D01*
Y2197620D01*
X1402279Y2176460D01*
X1381119D01*
X1359959Y2197620D01*
X2236588Y6618727D02*
X2194268D01*
X2215428D01*
Y6512928D01*
X2194268Y6491769D01*
X2173108D01*
X2151949Y6512928D01*
X2275568Y6650296D02*
X2233248D01*
X2254408D01*
Y6544497D01*
X2233248Y6523337D01*
X2212088D01*
X2190929Y6544497D01*
X2357173Y6731901D02*
X2314853D01*
X2336013D01*
Y6626102D01*
X2314853Y6604942D01*
X2293693D01*
X2272533Y6626102D01*
X1764423Y6494391D02*
X1722103D01*
X1743263D01*
Y6388592D01*
X1722103Y6367433D01*
X1700943D01*
X1679783Y6388592D01*
X1925356Y6492171D02*
X1883036D01*
X1904196D01*
Y6386372D01*
X1883036Y6365213D01*
X1861876D01*
X1840716Y6386372D01*
X1677743Y6766171D02*
X1635423D01*
X1656583D01*
Y6660372D01*
X1635423Y6639213D01*
X1614263D01*
X1593103Y6660372D01*
X1723463Y6766171D02*
X1681143D01*
X1702303D01*
Y6660372D01*
X1681143Y6639213D01*
X1659983D01*
X1638823Y6660372D01*
X1644723Y7025251D02*
X1602403D01*
X1623563D01*
Y6919452D01*
X1602403Y6898293D01*
X1581243D01*
X1560083Y6919452D01*
X1797123Y6872851D02*
X1754803D01*
X1775963D01*
Y6767052D01*
X1754803Y6745893D01*
X1733643D01*
X1712483Y6767052D01*
X1755319Y7231339D02*
X1713000D01*
X1734159D01*
Y7125540D01*
X1713000Y7104380D01*
X1691840D01*
X1670680Y7125540D01*
X579299Y4226519D02*
X536980D01*
X558139D01*
Y4120720D01*
X536980Y4099560D01*
X515820D01*
X494660Y4120720D01*
X3167559Y5394919D02*
X3125240D01*
X3146399D01*
Y5289120D01*
X3125240Y5267960D01*
X3104080D01*
X3082920Y5289120D01*
X1285419Y3220679D02*
X1243100D01*
X1264259D01*
Y3114880D01*
X1243100Y3093720D01*
X1221940D01*
X1200780Y3114880D01*
X1341299Y3324819D02*
X1298980D01*
X1320139D01*
Y3219020D01*
X1298980Y3197860D01*
X1277820D01*
X1256660Y3219020D01*
X785039Y4386539D02*
X742720D01*
X763879D01*
Y4280740D01*
X742720Y4259580D01*
X721560D01*
X700400Y4280740D01*
X7118423Y789551D02*
X7076103D01*
X7097263D01*
Y683752D01*
X7076103Y662593D01*
X7054943D01*
X7033783Y683752D01*
X7016823Y840351D02*
X6974503D01*
X6995663D01*
Y734552D01*
X6974503Y713393D01*
X6953343D01*
X6932183Y734552D01*
X7067623Y840351D02*
X7025303D01*
X7046463D01*
Y734552D01*
X7025303Y713393D01*
X7004143D01*
X6982983Y734552D01*
X6877123Y1005451D02*
X6834803D01*
X6855963D01*
Y899652D01*
X6834803Y878493D01*
X6813643D01*
X6792483Y899652D01*
X7118422Y840351D02*
X7076103D01*
X7097262D01*
Y734552D01*
X7076103Y713393D01*
X7054943D01*
X7033783Y734552D01*
X7155359Y3632159D02*
X7113040D01*
X7134199D01*
Y3526360D01*
X7113040Y3505200D01*
X7091880D01*
X7070720Y3526360D01*
X7437299Y3395939D02*
X7394980D01*
X7416139D01*
Y3290140D01*
X7394980Y3268980D01*
X7373820D01*
X7352660Y3290140D01*
X7067623Y789551D02*
X7025303D01*
X7046463D01*
Y683752D01*
X7025303Y662593D01*
X7004143D01*
X6982983Y683752D01*
X7020476Y789109D02*
X6978156D01*
X6999316D01*
Y683310D01*
X6978156Y662150D01*
X6956996D01*
X6935836Y683310D01*
X6877123Y903851D02*
X6834803D01*
X6855963D01*
Y798052D01*
X6834803Y776893D01*
X6813643D01*
X6792483Y798052D01*
X6877123Y954651D02*
X6834803D01*
X6855963D01*
Y848852D01*
X6834803Y827693D01*
X6813643D01*
X6792483Y848852D01*
X675499Y2473919D02*
X633180D01*
X654339D01*
Y2368120D01*
X633180Y2346960D01*
X612020D01*
X590860Y2368120D01*
X579299Y5704799D02*
X536980D01*
X558139D01*
Y5599000D01*
X536980Y5577840D01*
X515820D01*
X494660Y5599000D01*
X1033119Y1934457D02*
X990799D01*
X1011959D01*
Y1828658D01*
X990799Y1807498D01*
X969639D01*
X948479Y1828658D01*
X1035659Y1380737D02*
X993339D01*
X1014499D01*
Y1274938D01*
X993339Y1253778D01*
X972179D01*
X951019Y1274938D01*
X1228699Y750817D02*
X1186379D01*
X1207539D01*
Y645018D01*
X1186379Y623858D01*
X1165219D01*
X1144059Y645018D01*
X989939Y781297D02*
X947619D01*
X968779D01*
Y675498D01*
X947619Y654338D01*
X926459D01*
X905299Y675498D01*
X1186359Y1991319D02*
X1144040D01*
X1165199D01*
Y1885520D01*
X1144040Y1864360D01*
X1122880D01*
X1101720Y1885520D01*
X1366699Y1483319D02*
X1324380D01*
X1345539D01*
Y1377520D01*
X1324380Y1356360D01*
X1303220D01*
X1282060Y1377520D01*
X1704519Y1346159D02*
X1662200D01*
X1683359D01*
Y1240360D01*
X1662200Y1219200D01*
X1641040D01*
X1619880Y1240360D01*
X932359Y1496019D02*
X890040D01*
X911199D01*
Y1390220D01*
X890040Y1369060D01*
X868880D01*
X847720Y1390220D01*
X1026339Y861019D02*
X984020D01*
X1005179D01*
Y755220D01*
X984020Y734060D01*
X962860D01*
X941700Y755220D01*
X1939899Y425697D02*
X1897579D01*
X1918739D01*
Y319898D01*
X1897579Y298738D01*
X1876419D01*
X1855259Y319898D01*
X1990699Y425697D02*
X1948379D01*
X1969539D01*
Y319898D01*
X1948379Y298738D01*
X1927219D01*
X1906059Y319898D01*
X1300659Y2583139D02*
X1258340D01*
X1279499D01*
Y2477340D01*
X1258340Y2456180D01*
X1237180D01*
X1216020Y2477340D01*
X3927665Y6715041D02*
X3885346D01*
X3906505D01*
Y6609242D01*
X3885346Y6588082D01*
X3864186D01*
X3843026Y6609242D01*
X6690539Y5722579D02*
X6648220D01*
X6669379D01*
Y5616780D01*
X6648220Y5595620D01*
X6627060D01*
X6605900Y5616780D01*
X645339Y5857199D02*
X603020D01*
X624179D01*
Y5751400D01*
X603020Y5730240D01*
X581860D01*
X560700Y5751400D01*
X2855139Y2628859D02*
X2812820D01*
X2833979D01*
Y2523060D01*
X2812820Y2501900D01*
X2791660D01*
X2770500Y2523060D01*
X2669719Y3868379D02*
X2627400D01*
X2648559D01*
Y3762580D01*
X2627400Y3741420D01*
X2606240D01*
X2585080Y3762580D01*
X2974519Y3919179D02*
X2932200D01*
X2953359D01*
Y3813380D01*
X2932200Y3792220D01*
X2911040D01*
X2889880Y3813380D01*
X2921179Y2603459D02*
X2878860D01*
X2900019D01*
Y2497660D01*
X2878860Y2476500D01*
X2857700D01*
X2836540Y2497660D01*
X2542719Y4287479D02*
X2500400D01*
X2521559D01*
Y4181680D01*
X2500400Y4160520D01*
X2479240D01*
X2458080Y4181680D01*
X2817039Y4274779D02*
X2774720D01*
X2795879D01*
Y4168980D01*
X2774720Y4147820D01*
X2753560D01*
X2732400Y4168980D01*
X5161459Y2649179D02*
X5119140D01*
X5140299D01*
Y2543380D01*
X5119140Y2522220D01*
X5097980D01*
X5076820Y2543380D01*
X5123359Y2600919D02*
X5081040D01*
X5102199D01*
Y2495120D01*
X5081040Y2473960D01*
X5059880D01*
X5038720Y2495120D01*
X4269919Y2268179D02*
X4227600D01*
X4248759D01*
Y2162380D01*
X4227600Y2141220D01*
X4206440D01*
X4185280Y2162380D01*
X4075658Y2045409D02*
X4033338D01*
X4054498D01*
Y1939610D01*
X4033338Y1918450D01*
X4012178D01*
X3991018Y1939610D01*
X5044619Y5344119D02*
X5002300D01*
X5023459D01*
Y5238320D01*
X5002300Y5217160D01*
X4981140D01*
X4959980Y5238320D01*
X4186099Y2230079D02*
X4143780D01*
X4164939D01*
Y2124280D01*
X4143780Y2103120D01*
X4122620D01*
X4101460Y2124280D01*
X4981119Y5331419D02*
X4938800D01*
X4959959D01*
Y5225620D01*
X4938800Y5204460D01*
X4917640D01*
X4896480Y5225620D01*
X5148759Y2910799D02*
X5106440D01*
X5127599D01*
Y2805000D01*
X5106440Y2783840D01*
X5085280D01*
X5064120Y2805000D01*
X4115625Y6405161D02*
X4073306D01*
X4094465D01*
Y6299362D01*
X4073306Y6278202D01*
X4052146D01*
X4030986Y6299362D01*
X866319Y5272999D02*
X824000D01*
X845159D01*
Y5167200D01*
X824000Y5146040D01*
X802840D01*
X781680Y5167200D01*
X856159Y5151079D02*
X813840D01*
X834999D01*
Y5045280D01*
X813840Y5024120D01*
X792680D01*
X771520Y5045280D01*
X863779Y5011379D02*
X821460D01*
X842619D01*
Y4905580D01*
X821460Y4884420D01*
X800300D01*
X779140Y4905580D01*
X868859Y4889459D02*
X826540D01*
X847699D01*
Y4783660D01*
X826540Y4762500D01*
X805380D01*
X784220Y4783660D01*
X2001379Y4777699D02*
X1959060D01*
X1980219D01*
Y4671900D01*
X1959060Y4650740D01*
X1937900D01*
X1916740Y4671900D01*
X1938199Y5031699D02*
X1895880D01*
X1917039D01*
Y4925900D01*
X1895880Y4904740D01*
X1874720D01*
X1853560Y4925900D01*
X1966139Y4912319D02*
X1923820D01*
X1944979D01*
Y4806520D01*
X1923820Y4785360D01*
X1902660D01*
X1881500Y4806520D01*
X1928039Y5138379D02*
X1885720D01*
X1906879D01*
Y5032580D01*
X1885720Y5011420D01*
X1864560D01*
X1843400Y5032580D01*
X4882059Y2580599D02*
X4839740D01*
X4860899D01*
Y2474800D01*
X4839740Y2453640D01*
X4818580D01*
X4797420Y2474800D01*
X4922699Y2628859D02*
X4880380D01*
X4901539D01*
Y2523060D01*
X4880380Y2501900D01*
X4859220D01*
X4838060Y2523060D01*
X4963339Y2585679D02*
X4921020D01*
X4942179D01*
Y2479880D01*
X4921020Y2458720D01*
X4899860D01*
X4878700Y2479880D01*
X5003979Y2649179D02*
X4961660D01*
X4982819D01*
Y2543380D01*
X4961660Y2522220D01*
X4940500D01*
X4919340Y2543380D01*
X957759Y4495759D02*
X915440D01*
X936599D01*
Y4389960D01*
X915440Y4368800D01*
X894280D01*
X873120Y4389960D01*
X871399Y4640539D02*
X829080D01*
X850239D01*
Y4534740D01*
X829080Y4513580D01*
X807920D01*
X786760Y4534740D01*
X871399Y4772619D02*
X829080D01*
X850239D01*
Y4666820D01*
X829080Y4645660D01*
X807920D01*
X786760Y4666820D01*
X635179Y6738579D02*
X592860D01*
X614019D01*
Y6632780D01*
X592860Y6611620D01*
X571700D01*
X550540Y6632780D01*
X660579Y6949399D02*
X618260D01*
X639419D01*
Y6843600D01*
X618260Y6822440D01*
X597100D01*
X575940Y6843600D01*
X637719Y6827479D02*
X595400D01*
X616559D01*
Y6721680D01*
X595400Y6700520D01*
X574240D01*
X553080Y6721680D01*
X594539Y6951939D02*
X552220D01*
X573379D01*
Y6846140D01*
X552220Y6824980D01*
X531060D01*
X509900Y6846140D01*
X3761919Y4615139D02*
X3719600D01*
X3740759D01*
Y4509340D01*
X3719600Y4488180D01*
X3698440D01*
X3677280Y4509340D01*
X4054019Y5341579D02*
X4011700D01*
X4032859D01*
Y5235780D01*
X4011700Y5214620D01*
X3990540D01*
X3969380Y5235780D01*
X4036239Y5085039D02*
X3993920D01*
X4015079D01*
Y4979240D01*
X3993920Y4958080D01*
X3972760D01*
X3951600Y4979240D01*
X2179499Y5369519D02*
X2137180D01*
X2158339D01*
Y5263720D01*
X2137180Y5242560D01*
X2116020D01*
X2094860Y5263720D01*
X5888011Y2225005D02*
X5845691D01*
X5866851D01*
Y2119206D01*
X5845691Y2098046D01*
X5824531D01*
X5803372Y2119206D01*
X3017699Y5105359D02*
X2975380D01*
X2996539D01*
Y4999560D01*
X2975380Y4978400D01*
X2954220D01*
X2933060Y4999560D01*
X4859199Y5859739D02*
X4816880D01*
X4838039D01*
Y5753940D01*
X4816880Y5732780D01*
X4795720D01*
X4774560Y5753940D01*
X2895779Y2235159D02*
X2853460D01*
X2874619D01*
Y2129360D01*
X2853460Y2108200D01*
X2832300D01*
X2811140Y2129360D01*
X5578019Y2237699D02*
X5535700D01*
X5556859D01*
Y2131900D01*
X5535700Y2110740D01*
X5514540D01*
X5493380Y2131900D01*
X5945523Y1906195D02*
X5903204D01*
X5924363D01*
Y1800396D01*
X5903204Y1779236D01*
X5882044D01*
X5860884Y1800396D01*
X4203722Y1943728D02*
X4161402D01*
X4182562D01*
Y1837929D01*
X4161402Y1816770D01*
X4140242D01*
X4119082Y1837929D01*
X6443650Y6775981D02*
X6401330D01*
X6422490D01*
Y6670182D01*
X6401330Y6649022D01*
X6380170D01*
X6359011Y6670182D01*
X5070812Y6161241D02*
X5028492D01*
X5049652D01*
Y6055442D01*
X5028492Y6034282D01*
X5007332D01*
X4986172Y6055442D01*
X6007907Y2506261D02*
X5965587D01*
X5986747D01*
Y2400462D01*
X5965587Y2379302D01*
X5944427D01*
X5923267Y2400462D01*
X4812230Y2084993D02*
X4769911D01*
X4791070D01*
Y1979194D01*
X4769911Y1958034D01*
X4748751D01*
X4727591Y1979194D01*
X4892372Y2139387D02*
X4850053D01*
X4871213D01*
Y2033588D01*
X4850053Y2012428D01*
X4828893D01*
X4807733Y2033588D01*
X5307530Y2123093D02*
X5265211D01*
X5286370D01*
Y2017294D01*
X5265211Y1996134D01*
X5244051D01*
X5222891Y2017294D01*
X5577494Y7137001D02*
X5535174D01*
X5556334D01*
Y7031202D01*
X5535174Y7010042D01*
X5514014D01*
X5492854Y7031202D01*
X5776785Y7012221D02*
X5734466D01*
X5755625D01*
Y6906422D01*
X5734466Y6885262D01*
X5713306D01*
X5692146Y6906422D01*
X5798851Y6767065D02*
X5756532D01*
X5777691D01*
Y6661266D01*
X5756532Y6640106D01*
X5735372D01*
X5714212Y6661266D01*
X5565965Y6803941D02*
X5523646D01*
X5544805D01*
Y6698142D01*
X5523646Y6676982D01*
X5502486D01*
X5481326Y6698142D01*
X5383859Y6796758D02*
X5341540D01*
X5362699D01*
Y6690959D01*
X5341540Y6669799D01*
X5320380D01*
X5299220Y6690959D01*
X5085905Y6816641D02*
X5043586D01*
X5064745D01*
Y6710842D01*
X5043586Y6689682D01*
X5022426D01*
X5001266Y6710842D01*
X5564249Y2371037D02*
X5521930D01*
X5543089D01*
Y2265238D01*
X5521930Y2244078D01*
X5500770D01*
X5479610Y2265238D01*
X3136536Y3226988D02*
X3094216D01*
X3115376D01*
Y3121189D01*
X3094216Y3100029D01*
X3073056D01*
X3051897Y3121189D01*
X3116759Y2379939D02*
X3074440D01*
X3095599D01*
Y2274140D01*
X3074440Y2252980D01*
X3053280D01*
X3032120Y2274140D01*
X3408859Y2748239D02*
X3366540D01*
X3387699D01*
Y2642440D01*
X3366540Y2621280D01*
X3345380D01*
X3324220Y2642440D01*
X3168918Y1803451D02*
X3126599D01*
X3147758D01*
Y1697652D01*
X3126599Y1676492D01*
X3105439D01*
X3084279Y1697652D01*
X5738039Y1526499D02*
X5695720D01*
X5716879D01*
Y1420700D01*
X5695720Y1399540D01*
X5674560D01*
X5653400Y1420700D01*
X5249827Y1691501D02*
X5207507D01*
X5228667D01*
Y1585702D01*
X5207507Y1564542D01*
X5186347D01*
X5165187Y1585702D01*
X6331023Y1526151D02*
X6288703D01*
X6309863D01*
Y1420352D01*
X6288703Y1399193D01*
X6267543D01*
X6246383Y1420352D01*
X6331023Y1576951D02*
X6288703D01*
X6309863D01*
Y1471152D01*
X6288703Y1449993D01*
X6267543D01*
X6246383Y1471152D01*
X6331023Y1475351D02*
X6288703D01*
X6309863D01*
Y1369552D01*
X6288703Y1348393D01*
X6267543D01*
X6246383Y1369552D01*
X5407839Y1630639D02*
X5365520D01*
X5386679D01*
Y1524840D01*
X5365520Y1503680D01*
X5344360D01*
X5323200Y1524840D01*
X3611701Y1115019D02*
X3569381D01*
X3590541D01*
Y1009220D01*
X3569381Y988060D01*
X3548222D01*
X3527062Y1009220D01*
X5895519Y2113239D02*
X5853200D01*
X5874359D01*
Y2007440D01*
X5853200Y1986280D01*
X5832040D01*
X5810880Y2007440D01*
X6332399Y4536399D02*
X6290080D01*
X6311239D01*
Y4430600D01*
X6290080Y4409440D01*
X6268920D01*
X6247760Y4430600D01*
X6205958Y4102495D02*
X6163638D01*
X6184798D01*
Y3996696D01*
X6163638Y3975536D01*
X6142478D01*
X6121318Y3996696D01*
X5973245Y4576696D02*
X5930925D01*
X5952085D01*
Y4470897D01*
X5930925Y4449737D01*
X5909765D01*
X5888606Y4470897D01*
X4620439Y5529539D02*
X4578120D01*
X4599279D01*
Y5423740D01*
X4578120Y5402580D01*
X4556960D01*
X4535800Y5423740D01*
X4620439Y3741379D02*
X4578120D01*
X4599279D01*
Y3635580D01*
X4578120Y3614420D01*
X4556960D01*
X4535800Y3635580D01*
X6439079Y2791419D02*
X6396760D01*
X6417919D01*
Y2685620D01*
X6396760Y2664460D01*
X6375600D01*
X6354440Y2685620D01*
X6644819Y3192739D02*
X6602500D01*
X6623659D01*
Y3086940D01*
X6602500Y3065780D01*
X6581340D01*
X6560180Y3086940D01*
X5232579Y1562059D02*
X5190260D01*
X5211419D01*
Y1456260D01*
X5190260Y1435100D01*
X5169100D01*
X5147940Y1456260D01*
X6185079Y2346919D02*
X6142760D01*
X6163919D01*
Y2241120D01*
X6142760Y2219960D01*
X6121600D01*
X6100440Y2241120D01*
X5943779Y6690319D02*
X5901460D01*
X5922619D01*
Y6584520D01*
X5901460Y6563360D01*
X5880300D01*
X5859140Y6584520D01*
X4998899Y6421079D02*
X4956580D01*
X4977739D01*
Y6315280D01*
X4956580Y6294120D01*
X4935420D01*
X4914260Y6315280D01*
X6174919Y3362919D02*
X6132600D01*
X6153759D01*
Y3257120D01*
X6132600Y3235960D01*
X6111440D01*
X6090280Y3257120D01*
X4919976Y3454679D02*
X4877656D01*
X4898816D01*
Y3348880D01*
X4877656Y3327720D01*
X4856497D01*
X4835337Y3348880D01*
X1980916Y6757006D02*
X1938596D01*
X1959756D01*
Y6651207D01*
X1938596Y6630047D01*
X1917436D01*
X1896276Y6651207D01*
X2109834Y6814447D02*
X2067515D01*
X2088675D01*
Y6708647D01*
X2067515Y6687488D01*
X2046355D01*
X2025195Y6708647D01*
X1925356Y6427734D02*
X1883036D01*
X1904196D01*
Y6321935D01*
X1883036Y6300776D01*
X1861876D01*
X1840716Y6321935D01*
X1876498Y6439089D02*
X1834178D01*
X1855338D01*
Y6333290D01*
X1834178Y6312131D01*
X1813018D01*
X1791858Y6333290D01*
X2414089Y6774918D02*
X2371770D01*
X2392929D01*
Y6669119D01*
X2371770Y6647960D01*
X2350610D01*
X2329450Y6669119D01*
X4683430Y6381821D02*
X4641110D01*
X4662270D01*
Y6276022D01*
X4641110Y6254862D01*
X4619950D01*
X4598791Y6276022D01*
X2357299Y6804619D02*
X2314979D01*
X2336139D01*
Y6698820D01*
X2314979Y6677660D01*
X2293819D01*
X2272660Y6698820D01*
X3830499Y1620479D02*
X3788180D01*
X3809339D01*
Y1514680D01*
X3788180Y1493520D01*
X3767020D01*
X3745860Y1514680D01*
X2082979Y3614379D02*
X2040660D01*
X2061819D01*
Y3508580D01*
X2040660Y3487420D01*
X2019500D01*
X1998340Y3508580D01*
X1348919Y3004779D02*
X1306600D01*
X1327759D01*
Y2898980D01*
X1306600Y2877820D01*
X1285440D01*
X1264280Y2898980D01*
X6563539Y507959D02*
X6521220D01*
X6542379D01*
Y402160D01*
X6521220Y381000D01*
X6500060D01*
X6478900Y402160D01*
X6477179Y490179D02*
X6434860D01*
X6456019D01*
Y384380D01*
X6434860Y363220D01*
X6413700D01*
X6392540Y384380D01*
X6517819Y513039D02*
X6475500D01*
X6496659D01*
Y407240D01*
X6475500Y386080D01*
X6454340D01*
X6433180Y407240D01*
X6533059Y464779D02*
X6490740D01*
X6511899D01*
Y358980D01*
X6490740Y337820D01*
X6469580D01*
X6448420Y358980D01*
X5674539Y673059D02*
X5632220D01*
X5653379D01*
Y567260D01*
X5632220Y546100D01*
X5611060D01*
X5589900Y567260D01*
X4709339Y1330919D02*
X4667020D01*
X4688179D01*
Y1225120D01*
X4667020Y1203960D01*
X4645860D01*
X4624700Y1225120D01*
X4078170Y512733D02*
X4035851D01*
X4057010D01*
Y406934D01*
X4035851Y385774D01*
X4014691D01*
X3993531Y406934D01*
X2263319Y1300439D02*
X2221000D01*
X2242159D01*
Y1194640D01*
X2221000Y1173480D01*
X2199840D01*
X2178680Y1194640D01*
X7114770Y561394D02*
X7072450D01*
X7093610D01*
Y455595D01*
X7072450Y434435D01*
X7051290D01*
X7030130Y455595D01*
X1953439Y2816819D02*
X1911120D01*
X1932279D01*
Y2711020D01*
X1911120Y2689860D01*
X1889960D01*
X1868800Y2711020D01*
X2611299Y2080219D02*
X2568980D01*
X2590139D01*
Y1974420D01*
X2568980Y1953260D01*
X2547820D01*
X2526660Y1974420D01*
X6649899Y5402539D02*
X6607580D01*
X6628739D01*
Y5296740D01*
X6607580Y5275580D01*
X6586420D01*
X6565260Y5296740D01*
X6649899Y5351739D02*
X6607580D01*
X6628739D01*
Y5245940D01*
X6607580Y5224780D01*
X6586420D01*
X6565260Y5245940D01*
X6811497Y5267940D02*
X6769177D01*
X6790337D01*
Y5162141D01*
X6769177Y5140981D01*
X6748017D01*
X6726858Y5162141D01*
X6576239Y5001219D02*
X6533920D01*
X6555079D01*
Y4895420D01*
X6533920Y4874260D01*
X6512760D01*
X6491600Y4895420D01*
X6928050Y4838353D02*
X6885731D01*
X6906890D01*
Y4732554D01*
X6885731Y4711394D01*
X6864571D01*
X6843411Y4732554D01*
X7216319Y4754839D02*
X7174000D01*
X7195159D01*
Y4649040D01*
X7174000Y4627880D01*
X7152840D01*
X7131680Y4649040D01*
X7132499Y4833579D02*
X7090180D01*
X7111339D01*
Y4727780D01*
X7090180Y4706620D01*
X7069020D01*
X7047860Y4727780D01*
X6926759Y3251159D02*
X6884440D01*
X6905599D01*
Y3145360D01*
X6884440Y3124200D01*
X6863280D01*
X6842120Y3145360D01*
X6738799Y3174959D02*
X6696480D01*
X6717639D01*
Y3069160D01*
X6696480Y3048000D01*
X6675320D01*
X6654160Y3069160D01*
X6602930Y2384713D02*
X6560611D01*
X6581770D01*
Y2278914D01*
X6560611Y2257754D01*
X6539451D01*
X6518291Y2278914D01*
X5030007Y1692586D02*
X4987687D01*
X5008847D01*
Y1586787D01*
X4987687Y1565627D01*
X4966527D01*
X4945367Y1586787D01*
X6893739Y2468839D02*
X6851420D01*
X6872579D01*
Y2363040D01*
X6851420Y2341880D01*
X6830260D01*
X6809100Y2363040D01*
X6797219Y2524719D02*
X6754900D01*
X6776059D01*
Y2418920D01*
X6754900Y2397760D01*
X6733740D01*
X6712580Y2418920D01*
X1961059Y2585679D02*
X1918740D01*
X1939899D01*
Y2479880D01*
X1918740Y2458720D01*
X1897580D01*
X1876420Y2479880D01*
X2110919Y2656799D02*
X2068600D01*
X2089759D01*
Y2551000D01*
X2068600Y2529840D01*
X2047440D01*
X2026280Y2551000D01*
X2888159Y1704299D02*
X2845840D01*
X2866999D01*
Y1598500D01*
X2845840Y1577340D01*
X2824680D01*
X2803520Y1598500D01*
X2789099Y1683979D02*
X2746780D01*
X2767939D01*
Y1578180D01*
X2746780Y1557020D01*
X2725620D01*
X2704460Y1578180D01*
X2522399Y1671279D02*
X2480080D01*
X2501239D01*
Y1565480D01*
X2480080Y1544320D01*
X2458920D01*
X2437760Y1565480D01*
X2281099Y1993859D02*
X2238780D01*
X2259939D01*
Y1888060D01*
X2238780Y1866900D01*
X2217620D01*
X2196460Y1888060D01*
X2276019Y2105619D02*
X2233700D01*
X2254859D01*
Y1999820D01*
X2233700Y1978660D01*
X2212540D01*
X2191380Y1999820D01*
X2857679Y1287739D02*
X2815360D01*
X2836519D01*
Y1181940D01*
X2815360Y1160780D01*
X2794200D01*
X2773040Y1181940D01*
X2588439Y1501099D02*
X2546120D01*
X2567279D01*
Y1395300D01*
X2546120Y1374140D01*
X2524960D01*
X2503800Y1395300D01*
X1740079Y3563579D02*
X1697760D01*
X1718919D01*
Y3457780D01*
X1697760Y3436620D01*
X1676600D01*
X1655440Y3457780D01*
X1955979Y3461979D02*
X1913660D01*
X1934819D01*
Y3356180D01*
X1913660Y3335020D01*
X1892500D01*
X1871340Y3356180D01*
X2223582Y3451768D02*
X2181262D01*
X2202422D01*
Y3345969D01*
X2181262Y3324809D01*
X2160102D01*
X2138942Y3345969D01*
X2128699Y3319739D02*
X2086380D01*
X2107539D01*
Y3213940D01*
X2086380Y3192780D01*
X2065220D01*
X2044060Y3213940D01*
X2128699Y3219981D02*
X2086380D01*
X2107539D01*
Y3114182D01*
X2086380Y3093022D01*
X2065220D01*
X2044060Y3114182D01*
X1948359Y3169879D02*
X1906040D01*
X1927199D01*
Y3064080D01*
X1906040Y3042920D01*
X1884880D01*
X1863720Y3064080D01*
X2303959Y3096219D02*
X2261640D01*
X2282799D01*
Y2990420D01*
X2261640Y2969260D01*
X2240480D01*
X2219320Y2990420D01*
X1694359Y2720299D02*
X1652040D01*
X1673199D01*
Y2614500D01*
X1652040Y2593340D01*
X1630880D01*
X1609720Y2614500D01*
X1089839Y3070819D02*
X1047520D01*
X1068679D01*
Y2965020D01*
X1047520Y2943860D01*
X1026360D01*
X1005200Y2965020D01*
X1105079Y3020019D02*
X1062760D01*
X1083919D01*
Y2914220D01*
X1062760Y2893060D01*
X1041600D01*
X1020440Y2914220D01*
X1082219Y3121619D02*
X1039900D01*
X1061059D01*
Y3015820D01*
X1039900Y2994660D01*
X1018740D01*
X997580Y3015820D01*
X2131239Y2768559D02*
X2088920D01*
X2110079D01*
Y2662760D01*
X2088920Y2641600D01*
X2067760D01*
X2046600Y2662760D01*
X1641019Y2710139D02*
X1598700D01*
X1619859D01*
Y2604340D01*
X1598700Y2583180D01*
X1577540D01*
X1556380Y2604340D01*
X1689279Y3375619D02*
X1646960D01*
X1668119D01*
Y3269820D01*
X1646960Y3248660D01*
X1625800D01*
X1604640Y3269820D01*
X1790879Y3375619D02*
X1748560D01*
X1769719D01*
Y3269820D01*
X1748560Y3248660D01*
X1727400D01*
X1706240Y3269820D01*
X1953439Y3118381D02*
X1911120D01*
X1932279D01*
Y3012582D01*
X1911120Y2991422D01*
X1889960D01*
X1868800Y3012582D01*
X1953439Y2968521D02*
X1911120D01*
X1932279D01*
Y2862722D01*
X1911120Y2841562D01*
X1889960D01*
X1868800Y2862722D01*
X1953439Y2869461D02*
X1911120D01*
X1932279D01*
Y2763662D01*
X1911120Y2742502D01*
X1889960D01*
X1868800Y2763662D01*
X1285419Y2917721D02*
X1243100D01*
X1264259D01*
Y2811922D01*
X1243100Y2790762D01*
X1221940D01*
X1200780Y2811922D01*
X7183299Y467319D02*
X7140980D01*
X7162139D01*
Y361520D01*
X7140980Y340360D01*
X7119820D01*
X7098660Y361520D01*
X5609948Y991449D02*
X5567628D01*
X5588788D01*
Y885650D01*
X5567628Y864490D01*
X5546468D01*
X5525308Y885650D01*
X5359579Y954999D02*
X5317259D01*
X5338419D01*
Y849200D01*
X5317259Y828040D01*
X5296099D01*
X5274940Y849200D01*
X5232579Y993099D02*
X5190259D01*
X5211419D01*
Y887300D01*
X5190259Y866140D01*
X5169099D01*
X5147940Y887300D01*
X5110659Y995639D02*
X5068339D01*
X5089499D01*
Y889840D01*
X5068339Y868680D01*
X5047179D01*
X5026020Y889840D01*
X6406961Y4943395D02*
X6364642D01*
X6385801D01*
Y4837596D01*
X6364642Y4816436D01*
X6343482D01*
X6322322Y4837596D01*
X5995593Y5244946D02*
X5953273D01*
X5974433D01*
Y5139146D01*
X5953273Y5117987D01*
X5932113D01*
X5910954Y5139146D01*
X3731439Y1625559D02*
X3689119D01*
X3710279D01*
Y1519760D01*
X3689119Y1498600D01*
X3667959D01*
X3646800Y1519760D01*
X1468299Y5544779D02*
X1425980D01*
X1447139D01*
Y5438980D01*
X1425980Y5417820D01*
X1404820D01*
X1383660Y5438980D01*
X1003984Y5547595D02*
X961664D01*
X982824D01*
Y5441796D01*
X961664Y5420636D01*
X940504D01*
X919344Y5441796D01*
X4779889Y6371806D02*
X4737569D01*
X4758729D01*
Y6266007D01*
X4737569Y6244847D01*
X4716409D01*
X4695250Y6266007D01*
X4116412Y1820269D02*
X4074092D01*
X4095252D01*
Y1714470D01*
X4074092Y1693310D01*
X4052932D01*
X4031772Y1714470D01*
X4166672Y1677307D02*
X4124352D01*
X4145512D01*
Y1571508D01*
X4124352Y1550348D01*
X4103192D01*
X4082033Y1571508D01*
X6679853Y5182597D02*
X6637533D01*
X6658693D01*
Y5076798D01*
X6637533Y5055638D01*
X6616373D01*
X6595213Y5076798D01*
X3784785Y1780554D02*
X3742465D01*
X3763625D01*
Y1674755D01*
X3742465Y1653595D01*
X3721305D01*
X3700146Y1674755D01*
X3590895Y1837940D02*
X3548575D01*
X3569735D01*
Y1732141D01*
X3548575Y1710981D01*
X3527415D01*
X3506255Y1732141D01*
X4620306Y6241634D02*
X4577986D01*
X4599146D01*
Y6135835D01*
X4577986Y6114676D01*
X4556826D01*
X4535666Y6135835D01*
X7016823Y560951D02*
X6974503D01*
X6995663D01*
Y455152D01*
X6974503Y433993D01*
X6953343D01*
X6932183Y455152D01*
X7067623Y560951D02*
X7025303D01*
X7046463D01*
Y455152D01*
X7025303Y433993D01*
X7004143D01*
X6982983Y455152D01*
X7016823Y510151D02*
X6974503D01*
X6995663D01*
Y404352D01*
X6974503Y383193D01*
X6953343D01*
X6932183Y404352D01*
X7067623Y510151D02*
X7025303D01*
X7046463D01*
Y404352D01*
X7025303Y383193D01*
X7004143D01*
X6982983Y404352D01*
X7118423Y510151D02*
X7076103D01*
X7097263D01*
Y404352D01*
X7076103Y383193D01*
X7054943D01*
X7033783Y404352D01*
X6635823Y586351D02*
X6593503D01*
X6614663D01*
Y480552D01*
X6593503Y459393D01*
X6572343D01*
X6551183Y480552D01*
X6555970Y561394D02*
X6513650D01*
X6534810D01*
Y455595D01*
X6513650Y434435D01*
X6492490D01*
X6471330Y455595D01*
X6508823Y560951D02*
X6466503D01*
X6487663D01*
Y455152D01*
X6466503Y433993D01*
X6445343D01*
X6424183Y455152D01*
X6775523Y954651D02*
X6733203D01*
X6754363D01*
Y848852D01*
X6733203Y827693D01*
X6712043D01*
X6690883Y848852D01*
X6826323Y903851D02*
X6784003D01*
X6805163D01*
Y798052D01*
X6784003Y776893D01*
X6762843D01*
X6741683Y798052D01*
X6826323Y954651D02*
X6784003D01*
X6805163D01*
Y848852D01*
X6784003Y827693D01*
X6762843D01*
X6741683Y848852D01*
X6826323Y1005451D02*
X6784003D01*
X6805163D01*
Y899652D01*
X6784003Y878493D01*
X6762843D01*
X6741683Y899652D01*
X6775523Y1005451D02*
X6733203D01*
X6754363D01*
Y899652D01*
X6733203Y878493D01*
X6712043D01*
X6690883Y899652D01*
X3514358Y1631351D02*
X3472039D01*
X3493198D01*
Y1525552D01*
X3472039Y1504392D01*
X3450879D01*
X3429719Y1525552D01*
X3407678Y1631351D02*
X3365359D01*
X3386518D01*
Y1525552D01*
X3365359Y1504392D01*
X3344199D01*
X3323039Y1525552D01*
X2329717Y7018267D02*
X2287397D01*
X2308557D01*
Y6912468D01*
X2287397Y6891309D01*
X2266237D01*
X2245077Y6912468D01*
X1547994Y6112223D02*
X1505674D01*
X1526834D01*
Y6006424D01*
X1505674Y5985265D01*
X1484514D01*
X1463354Y6006424D01*
X3833236Y2032957D02*
X3790916D01*
X3812076D01*
Y1927158D01*
X3790916Y1905998D01*
X3769756D01*
X3748597Y1927158D01*
X4689775Y2649746D02*
X4647456D01*
X4668615D01*
Y2543947D01*
X4647456Y2522787D01*
X4626296D01*
X4605136Y2543947D01*
X4638527Y2593142D02*
X4596207D01*
X4617367D01*
Y2487343D01*
X4596207Y2466183D01*
X4575047D01*
X4553887Y2487343D01*
X5035087Y2177726D02*
X4992767D01*
X5013927D01*
Y2071927D01*
X4992767Y2050767D01*
X4971607D01*
X4950447Y2071927D01*
X5780804Y2013648D02*
X5738485D01*
X5759644D01*
Y1907849D01*
X5738485Y1886689D01*
X5717325D01*
X5696165Y1907849D01*
X5038309Y2281183D02*
X4995989D01*
X5017149D01*
Y2175384D01*
X4995989Y2154224D01*
X4974830D01*
X4953670Y2175384D01*
X4762550Y2720730D02*
X4720230D01*
X4741390D01*
Y2614931D01*
X4720230Y2593771D01*
X4699070D01*
X4677911Y2614931D01*
X5039885Y2331318D02*
X4997565D01*
X5018725D01*
Y2225519D01*
X4997565Y2204359D01*
X4976405D01*
X4955245Y2225519D01*
X4824267Y2650250D02*
X4781947D01*
X4803107D01*
Y2544451D01*
X4781947Y2523291D01*
X4760787D01*
X4739627Y2544451D01*
X5038645Y2229681D02*
X4996326D01*
X5017485D01*
Y2123881D01*
X4996326Y2102722D01*
X4975166D01*
X4954006Y2123881D01*
X4709007Y2580729D02*
X4666687D01*
X4687847D01*
Y2474930D01*
X4666687Y2453770D01*
X4645527D01*
X4624367Y2474930D01*
X4746541Y2621622D02*
X4704221D01*
X4725381D01*
Y2515823D01*
X4704221Y2494663D01*
X4683061D01*
X4661902Y2515823D01*
X5778378Y2251046D02*
X5736058D01*
X5757218D01*
Y2145247D01*
X5736058Y2124087D01*
X5714898D01*
X5693738Y2145247D01*
X6585023Y1500751D02*
X6542703D01*
X6563863D01*
Y1394952D01*
X6542703Y1373793D01*
X6521543D01*
X6500383Y1394952D01*
X6585023Y1551551D02*
X6542703D01*
X6563863D01*
Y1445752D01*
X6542703Y1424593D01*
X6521543D01*
X6500383Y1445752D01*
X6458023Y1500751D02*
X6415703D01*
X6436863D01*
Y1394952D01*
X6415703Y1373793D01*
X6394543D01*
X6373383Y1394952D01*
X6458023Y1551551D02*
X6415703D01*
X6436863D01*
Y1445752D01*
X6415703Y1424593D01*
X6394543D01*
X6373383Y1445752D01*
X6712023Y1475351D02*
X6669703D01*
X6690863D01*
Y1369552D01*
X6669703Y1348393D01*
X6648543D01*
X6627383Y1369552D01*
X6712023Y1526151D02*
X6669703D01*
X6690863D01*
Y1420352D01*
X6669703Y1399193D01*
X6648543D01*
X6627383Y1420352D01*
X6712023Y1576951D02*
X6669703D01*
X6690863D01*
Y1471152D01*
X6669703Y1449993D01*
X6648543D01*
X6627383Y1471152D01*
X6712023Y1627751D02*
X6669703D01*
X6690863D01*
Y1521952D01*
X6669703Y1500793D01*
X6648543D01*
X6627383Y1521952D01*
X6331023Y1627751D02*
X6288703D01*
X6309863D01*
Y1521952D01*
X6288703Y1500793D01*
X6267543D01*
X6246383Y1521952D01*
X6267826Y1343529D02*
X6225506D01*
X6246666D01*
Y1237730D01*
X6225506Y1216570D01*
X6204346D01*
X6183187Y1237730D01*
X6524482Y1343529D02*
X6482162D01*
X6503322D01*
Y1237730D01*
X6482162Y1216570D01*
X6461002D01*
X6439843Y1237730D01*
X6398374Y1343529D02*
X6356054D01*
X6377214D01*
Y1237730D01*
X6356054Y1216570D01*
X6334894D01*
X6313735Y1237730D01*
X2594878Y5061951D02*
X2552559D01*
X2573718D01*
Y4956152D01*
X2552559Y4934992D01*
X2531399D01*
X2510239Y4956152D01*
X4053895Y1693410D02*
X4011575D01*
X4032735D01*
Y1587611D01*
X4011575Y1566451D01*
X3990415D01*
X3969256Y1587611D01*
X3953778Y1678671D02*
X3911459D01*
X3932618D01*
Y1572872D01*
X3911459Y1551712D01*
X3890299D01*
X3869139Y1572872D01*
X3293378Y1631351D02*
X3251059D01*
X3272218D01*
Y1525552D01*
X3251059Y1504392D01*
X3229899D01*
X3208739Y1525552D01*
X4711370Y6541841D02*
X4669050D01*
X4690210D01*
Y6436042D01*
X4669050Y6414882D01*
X4647890D01*
X4626731Y6436042D01*
X1325550Y5833181D02*
X1283230D01*
X1304390D01*
Y5727382D01*
X1283230Y5706222D01*
X1262070D01*
X1240911Y5727382D01*
X2634159Y4389079D02*
X2591840D01*
X2612999D01*
Y4283280D01*
X2591840Y4262120D01*
X2570680D01*
X2549520Y4283280D01*
X5927124Y3445604D02*
X5884804D01*
X5905964D01*
Y3339805D01*
X5884804Y3318645D01*
X5863644D01*
X5842484Y3339805D01*
X6258723Y4340894D02*
X6216403D01*
X6237563D01*
Y4235095D01*
X6216403Y4213935D01*
X6195243D01*
X6174084Y4235095D01*
X5938190Y4347281D02*
X5895870D01*
X5917030D01*
Y4241482D01*
X5895870Y4220322D01*
X5874710D01*
X5853551Y4241482D01*
X5988403Y3617576D02*
X5946083D01*
X5967243D01*
Y3511777D01*
X5946083Y3490617D01*
X5924923D01*
X5903763Y3511777D01*
X5644161Y4417417D02*
X5601841D01*
X5623001D01*
Y4311617D01*
X5601841Y4290458D01*
X5580681D01*
X5559522Y4311617D01*
X5696217Y4534716D02*
X5653897D01*
X5675057D01*
Y4428917D01*
X5653897Y4407757D01*
X5632737D01*
X5611577Y4428917D01*
X5416819Y4445070D02*
X5374500D01*
X5395660D01*
Y4339270D01*
X5374500Y4318111D01*
X5353340D01*
X5332180Y4339270D01*
X4849733Y970265D02*
X4807414D01*
X4828573D01*
Y864465D01*
X4807414Y843306D01*
X4786254D01*
X4765094Y864465D01*
X4761430Y903893D02*
X4719111D01*
X4740270D01*
Y798094D01*
X4719111Y776934D01*
X4697951D01*
X4676791Y798094D01*
X3650535Y6208859D02*
X3608215D01*
X3629375D01*
Y6103060D01*
X3608215Y6081900D01*
X3587055D01*
X3565896Y6103060D01*
X1277975Y6759709D02*
X1235655D01*
X1256815D01*
Y6653910D01*
X1235655Y6632750D01*
X1214495D01*
X1193335Y6653910D01*
X1201775Y6759709D02*
X1159455D01*
X1180615D01*
Y6653910D01*
X1159455Y6632750D01*
X1138295D01*
X1117135Y6653910D01*
X4828307Y2162585D02*
X4785987D01*
X4807147D01*
Y2056786D01*
X4785987Y2035627D01*
X4764827D01*
X4743667Y2056786D01*
X5313354Y3433056D02*
X5271034D01*
X5292194D01*
Y3327256D01*
X5271034Y3306097D01*
X5249874D01*
X5228714Y3327256D01*
X4215239Y6495159D02*
X4172920D01*
X4194079D01*
Y6389360D01*
X4172920Y6368200D01*
X4151760D01*
X4130600Y6389360D01*
X4151505Y6536713D02*
X4109186D01*
X4130345D01*
Y6430913D01*
X4109186Y6409754D01*
X4088026D01*
X4066866Y6430913D01*
X4094228Y6555093D02*
X4051908D01*
X4073068D01*
Y6449294D01*
X4051908Y6428134D01*
X4030748D01*
X4009588Y6449294D01*
X3626330Y6443241D02*
X3584010D01*
X3605170D01*
Y6337442D01*
X3584010Y6316282D01*
X3562850D01*
X3541691Y6337442D01*
X5985356Y4348898D02*
X5943036D01*
X5964196D01*
Y4243098D01*
X5943036Y4221939D01*
X5921876D01*
X5900716Y4243098D01*
X5245925Y4025181D02*
X5203606D01*
X5224765D01*
Y3919382D01*
X5203606Y3898222D01*
X5182446D01*
X5161286Y3919382D01*
X5334825Y4109001D02*
X5292506D01*
X5313665D01*
Y4003202D01*
X5292506Y3982042D01*
X5271346D01*
X5250186Y4003202D01*
X5306343Y4343653D02*
X5264023D01*
X5285183D01*
Y4237854D01*
X5264023Y4216694D01*
X5242863D01*
X5221703Y4237854D01*
X5746859Y4526659D02*
X5704540D01*
X5725699D01*
Y4420860D01*
X5704540Y4399700D01*
X5683380D01*
X5662220Y4420860D01*
X4822367Y3813554D02*
X4780047D01*
X4801207D01*
Y3707755D01*
X4780047Y3686596D01*
X4758887D01*
X4737728Y3707755D01*
X4822367Y3863714D02*
X4780047D01*
X4801207D01*
Y3757915D01*
X4780047Y3736756D01*
X4758887D01*
X4737728Y3757915D01*
X4816647Y3951519D02*
X4774327D01*
X4795487D01*
Y3845720D01*
X4774327Y3824560D01*
X4753167D01*
X4732007Y3845720D01*
X4977464Y3906574D02*
X4935144D01*
X4956304D01*
Y3800775D01*
X4935144Y3779616D01*
X4913984D01*
X4892824Y3800775D01*
X5544211Y4073441D02*
X5501891D01*
X5523051D01*
Y3967642D01*
X5501891Y3946482D01*
X5480731D01*
X5459572Y3967642D01*
X5959647Y3490906D02*
X5917327D01*
X5938487D01*
Y3385107D01*
X5917327Y3363947D01*
X5896167D01*
X5875007Y3385107D01*
X6089098Y3399165D02*
X6046778D01*
X6067938D01*
Y3293366D01*
X6046778Y3272206D01*
X6025618D01*
X6004458Y3293366D01*
X5554997Y3426749D02*
X5512677D01*
X5533837D01*
Y3320949D01*
X5512677Y3299790D01*
X5491517D01*
X5470357Y3320949D01*
X5429623Y3290620D02*
X5387303D01*
X5408463D01*
Y3184821D01*
X5387303Y3163661D01*
X5366143D01*
X5344984Y3184821D01*
X5267630Y5810321D02*
X5225310D01*
X5246470D01*
Y5704522D01*
X5225310Y5683362D01*
X5204150D01*
X5182991Y5704522D01*
X5206670Y5812861D02*
X5164350D01*
X5185510D01*
Y5707062D01*
X5164350Y5685902D01*
X5143190D01*
X5122031Y5707062D01*
X5331130Y5812861D02*
X5288810D01*
X5309970D01*
Y5707062D01*
X5288810Y5685902D01*
X5267650D01*
X5246491Y5707062D01*
X2996324Y3700625D02*
X2954005D01*
X2975164D01*
Y3594826D01*
X2954005Y3573666D01*
X2932845D01*
X2911685Y3594826D01*
X2945524Y3700625D02*
X2903205D01*
X2924364D01*
Y3594826D01*
X2903205Y3573666D01*
X2882045D01*
X2860885Y3594826D01*
X6659533Y5451837D02*
X6617213D01*
X6638373D01*
Y5346038D01*
X6617213Y5324878D01*
X6596053D01*
X6574893Y5346038D01*
X1735974Y3823105D02*
X1693654D01*
X1714814D01*
Y3717306D01*
X1693654Y3696147D01*
X1672494D01*
X1651334Y3717306D01*
X1894597Y5204493D02*
X1852278D01*
X1873437D01*
Y5098694D01*
X1852278Y5077534D01*
X1831118D01*
X1809958Y5098694D01*
X3649142Y2714521D02*
X3606822D01*
X3627982D01*
Y2608722D01*
X3606822Y2587562D01*
X3585662D01*
X3564503Y2608722D01*
X6910168Y5195251D02*
X6867848D01*
X6889008D01*
Y5089452D01*
X6867848Y5068292D01*
X6846688D01*
X6825528Y5089452D01*
X6960968Y5195251D02*
X6918648D01*
X6939808D01*
Y5089452D01*
X6918648Y5068292D01*
X6897488D01*
X6876328Y5089452D01*
X4324448Y5740858D02*
X4282128D01*
X4303288D01*
Y5635059D01*
X4282128Y5613900D01*
X4260968D01*
X4239808Y5635059D01*
X6966631Y6755816D02*
X6924311D01*
X6945471D01*
Y6650017D01*
X6924311Y6628857D01*
X6903151D01*
X6881992Y6650017D01*
X6018735Y1560075D02*
X5976416D01*
X5997575D01*
Y1454276D01*
X5976416Y1433116D01*
X5955256D01*
X5934096Y1454276D01*
X6018735Y1610259D02*
X5976416D01*
X5997575D01*
Y1504460D01*
X5976416Y1483300D01*
X5955256D01*
X5934096Y1504460D01*
X5870639Y1610259D02*
X5828320D01*
X5849479D01*
Y1504460D01*
X5828320Y1483300D01*
X5807160D01*
X5786000Y1504460D01*
X5972239Y1508659D02*
X5929920D01*
X5951079D01*
Y1402860D01*
X5929920Y1381700D01*
X5908760D01*
X5887600Y1402860D01*
X5972239Y1559459D02*
X5929920D01*
X5951079D01*
Y1453660D01*
X5929920Y1432500D01*
X5908760D01*
X5887600Y1453660D01*
X5921439Y1508659D02*
X5879120D01*
X5900279D01*
Y1402860D01*
X5879120Y1381700D01*
X5857960D01*
X5836800Y1402860D01*
X5336732Y1316619D02*
X5294413D01*
X5315572D01*
Y1210820D01*
X5294413Y1189660D01*
X5273253D01*
X5252093Y1210820D01*
X3649650Y3168091D02*
X3607330D01*
X3628490D01*
Y3062292D01*
X3607330Y3041132D01*
X3586170D01*
X3565011Y3062292D01*
X2449655Y2678106D02*
X2407335D01*
X2428495D01*
Y2572307D01*
X2407335Y2551147D01*
X2386175D01*
X2365016Y2572307D01*
X6440610Y6051621D02*
X6398290D01*
X6419450D01*
Y5945822D01*
X6398290Y5924662D01*
X6377131D01*
X6355971Y5945822D01*
X6659050Y5602041D02*
X6616730D01*
X6637890D01*
Y5496242D01*
X6616730Y5475082D01*
X6595571D01*
X6574411Y5496242D01*
X6438070Y5756981D02*
X6395750D01*
X6416910D01*
Y5651182D01*
X6395750Y5630022D01*
X6374591D01*
X6353431Y5651182D01*
X6438070Y5904301D02*
X6395750D01*
X6416910D01*
Y5798502D01*
X6395750Y5777342D01*
X6374591D01*
X6353431Y5798502D01*
X6435530Y6353881D02*
X6393210D01*
X6414370D01*
Y6248082D01*
X6393210Y6226922D01*
X6372051D01*
X6350891Y6248082D01*
X6435530Y6204021D02*
X6393210D01*
X6414370D01*
Y6098222D01*
X6393210Y6077062D01*
X6372051D01*
X6350891Y6098222D01*
X5098285Y6874388D02*
X5055966D01*
X5077125D01*
Y6768589D01*
X5055966Y6747429D01*
X5034806D01*
X5013646Y6768589D01*
X5078609Y6746956D02*
X5036290D01*
X5057449D01*
Y6641157D01*
X5036290Y6619997D01*
X5015130D01*
X4993970Y6641157D01*
X5024028Y6911716D02*
X4981708D01*
X5002868D01*
Y6805917D01*
X4981708Y6784758D01*
X4960548D01*
X4939388Y6805917D01*
X5380750Y6741285D02*
X5338431D01*
X5359590D01*
Y6635486D01*
X5338431Y6614326D01*
X5317271D01*
X5296111Y6635486D01*
X4254737Y3236619D02*
X4212417D01*
X4233577D01*
Y3130820D01*
X4212417Y3109661D01*
X4191257D01*
X4170097Y3130820D01*
X5870639Y1508659D02*
X5828320D01*
X5849479D01*
Y1402860D01*
X5828320Y1381700D01*
X5807160D01*
X5786000Y1402860D01*
X3885870Y2731841D02*
X3843550D01*
X3864710D01*
Y2626042D01*
X3843550Y2604882D01*
X3822390D01*
X3801231Y2626042D01*
X5077790Y2745441D02*
X5035470D01*
X5056630D01*
Y2639642D01*
X5035470Y2618482D01*
X5014310D01*
X4993151Y2639642D01*
X4843450Y2739461D02*
X4801130D01*
X4822290D01*
Y2633662D01*
X4801130Y2612502D01*
X4779970D01*
X4758811Y2633662D01*
X6657010Y3618301D02*
X6614690D01*
X6635850D01*
Y3512502D01*
X6614690Y3491342D01*
X6593530D01*
X6572371Y3512502D01*
X6657010Y3775781D02*
X6614690D01*
X6635850D01*
Y3669982D01*
X6614690Y3648822D01*
X6593530D01*
X6572371Y3669982D01*
X6705270Y3925641D02*
X6662950D01*
X6684110D01*
Y3819842D01*
X6662950Y3798682D01*
X6641790D01*
X6620631Y3819842D01*
X6657010Y4072961D02*
X6614690D01*
X6635850D01*
Y3967162D01*
X6614690Y3946002D01*
X6593530D01*
X6572371Y3967162D01*
X6657010Y4225117D02*
X6614690D01*
X6635850D01*
Y4119318D01*
X6614690Y4098158D01*
X6593530D01*
X6572371Y4119318D01*
X6705988Y4227901D02*
X6663669D01*
X6684828D01*
Y4122102D01*
X6663669Y4100942D01*
X6642509D01*
X6621349Y4122102D01*
X6705988Y4367209D02*
X6663669D01*
X6684828D01*
Y4261410D01*
X6663669Y4240251D01*
X6642509D01*
X6621349Y4261410D01*
X6404147Y3504973D02*
X6361827D01*
X6382987D01*
Y3399174D01*
X6361827Y3378014D01*
X6340667D01*
X6319507Y3399174D01*
X5146865Y4893861D02*
X5104546D01*
X5125705D01*
Y4788062D01*
X5104546Y4766902D01*
X5083386D01*
X5062226Y4788062D01*
X4005250Y3191581D02*
X3962930D01*
X3984090D01*
Y3085782D01*
X3962930Y3064622D01*
X3941770D01*
X3920611Y3085782D01*
X4118485Y3331453D02*
X4076166D01*
X4097325D01*
Y3225654D01*
X4076166Y3204494D01*
X4055006D01*
X4033846Y3225654D01*
X4981747Y3710219D02*
X4939427D01*
X4960587D01*
Y3604420D01*
X4939427Y3583260D01*
X4918267D01*
X4897107Y3604420D01*
X6671487Y4124719D02*
X6629167D01*
X6650327D01*
Y4018920D01*
X6629167Y3997760D01*
X6608007D01*
X6586847Y4018920D01*
X6671487Y4174879D02*
X6629167D01*
X6650327D01*
Y4069079D01*
X6629167Y4047920D01*
X6608007D01*
X6586847Y4069079D01*
X1955979Y3944579D02*
X1913660D01*
X1934819D01*
Y3838780D01*
X1913660Y3817620D01*
X1892500D01*
X1871340Y3838780D01*
X5247310Y3087901D02*
X5204990D01*
X5226150D01*
Y2982102D01*
X5204990Y2960942D01*
X5183830D01*
X5162671Y2982102D01*
X5082380Y3169999D02*
X5040060D01*
X5061220D01*
Y3064200D01*
X5040060Y3043040D01*
X5018900D01*
X4997740Y3064200D01*
X4961874Y3170738D02*
X4919554D01*
X4940714D01*
Y3064939D01*
X4919554Y3043779D01*
X4898394D01*
X4877235Y3064939D01*
X3878250Y3163707D02*
X3835930D01*
X3857090D01*
Y3057908D01*
X3835930Y3036748D01*
X3814770D01*
X3793611Y3057908D01*
X4603994Y2719019D02*
X4561674D01*
X4582834D01*
Y2613220D01*
X4561674Y2592060D01*
X4540514D01*
X4519354Y2613220D01*
X5590025Y1681404D02*
X5547705D01*
X5568865D01*
Y1575604D01*
X5547705Y1554445D01*
X5526545D01*
X5505386Y1575604D01*
X705790Y7225881D02*
X663470D01*
X684630D01*
Y7120082D01*
X663470Y7098922D01*
X642310D01*
X621151Y7120082D01*
X3447728Y3175781D02*
X3405408D01*
X3426568D01*
Y3069982D01*
X3405408Y3048822D01*
X3384248D01*
X3363088Y3069982D01*
X4895326Y3001589D02*
X4853007D01*
X4874166D01*
Y2895790D01*
X4853007Y2874630D01*
X4831847D01*
X4810687Y2895790D01*
X5064901Y2967494D02*
X5022582D01*
X5043741D01*
Y2861695D01*
X5022582Y2840535D01*
X5001422D01*
X4980262Y2861695D01*
X5006481Y2987814D02*
X4964162D01*
X4985321D01*
Y2882015D01*
X4964162Y2860855D01*
X4943002D01*
X4921842Y2882015D01*
X6258723Y4020940D02*
X6216403D01*
X6237563D01*
Y3915141D01*
X6216403Y3893981D01*
X6195243D01*
X6174083Y3915141D01*
X4160285Y2516861D02*
X4117965D01*
X4139125D01*
Y2411061D01*
X4117965Y2389902D01*
X4096805D01*
X4075645Y2411061D01*
X6258723Y4178957D02*
X6216403D01*
X6237563D01*
Y4073157D01*
X6216403Y4051998D01*
X6195243D01*
X6174083Y4073157D01*
X3515501Y1152342D02*
X3473182D01*
X3494341D01*
Y1046543D01*
X3473182Y1025383D01*
X3452022D01*
X3430862Y1046543D01*
X6258723Y3970780D02*
X6216403D01*
X6237563D01*
Y3864981D01*
X6216403Y3843821D01*
X6195243D01*
X6174083Y3864981D01*
X3398874Y2032806D02*
X3356554D01*
X3377714D01*
Y1927007D01*
X3356554Y1905847D01*
X3335394D01*
X3314234Y1927007D01*
X6258723Y3694250D02*
X6216403D01*
X6237563D01*
Y3588451D01*
X6216403Y3567291D01*
X6195243D01*
X6174083Y3588451D01*
X3163908Y3275050D02*
X3121588D01*
X3142748D01*
Y3169251D01*
X3121588Y3148091D01*
X3100428D01*
X3079268Y3169251D01*
X3076747Y3351206D02*
X3034427D01*
X3055587D01*
Y3245407D01*
X3034427Y3224247D01*
X3013267D01*
X2992107Y3245407D01*
X4265121Y2560200D02*
X4222802D01*
X4243961D01*
Y2454401D01*
X4222802Y2433241D01*
X4201642D01*
X4180482Y2454401D01*
X4123119Y2369719D02*
X4080800D01*
X4101959D01*
Y2263920D01*
X4080800Y2242760D01*
X4059640D01*
X4038480Y2263920D01*
X4479296Y2488702D02*
X4436977D01*
X4458136D01*
Y2382903D01*
X4436977Y2361743D01*
X4415817D01*
X4394657Y2382903D01*
X5131533Y2958369D02*
X5089213D01*
X5110373D01*
Y2852570D01*
X5089213Y2831410D01*
X5068053D01*
X5046893Y2852570D01*
X6258723Y4290734D02*
X6216403D01*
X6237563D01*
Y4184935D01*
X6216403Y4163776D01*
X6195243D01*
X6174084Y4184935D01*
X6258723Y4128797D02*
X6216403D01*
X6237563D01*
Y4022998D01*
X6216403Y4001838D01*
X6195243D01*
X6174083Y4022998D01*
X5195125Y3336841D02*
X5152806D01*
X5173965D01*
Y3231042D01*
X5152806Y3209882D01*
X5131646D01*
X5110486Y3231042D01*
X6258723Y3644090D02*
X6216403D01*
X6237563D01*
Y3538291D01*
X6216403Y3517131D01*
X6195243D01*
X6174083Y3538291D01*
X6258723Y3810224D02*
X6216403D01*
X6237563D01*
Y3704425D01*
X6216403Y3683265D01*
X6195243D01*
X6174083Y3704425D01*
X6258723Y3860384D02*
X6216403D01*
X6237563D01*
Y3754585D01*
X6216403Y3733425D01*
X6195243D01*
X6174083Y3754585D01*
X5340214Y6396641D02*
X5297894D01*
X5319054D01*
Y6290842D01*
X5297894Y6269682D01*
X5276734D01*
X5255574Y6290842D01*
X4771847Y6180096D02*
X4729527D01*
X4750687D01*
Y6074296D01*
X4729527Y6053137D01*
X4708367D01*
X4687207Y6074296D01*
X6469050Y2866921D02*
X6426730D01*
X6447890D01*
Y2761122D01*
X6426730Y2739962D01*
X6405570D01*
X6384411Y2761122D01*
X2006403Y675034D02*
X1964083D01*
X1985243D01*
Y569235D01*
X1964083Y548075D01*
X1942923D01*
X1921763Y569235D01*
X4361359Y2715219D02*
X4319040D01*
X4340199D01*
Y2609420D01*
X4319040Y2588260D01*
X4297880D01*
X4276720Y2609420D01*
X596570Y7228101D02*
X554250D01*
X575410D01*
Y7122302D01*
X554250Y7101142D01*
X533090D01*
X511931Y7122302D01*
X1040957Y6604901D02*
X998637D01*
X1019797D01*
Y6499102D01*
X998637Y6477942D01*
X977477D01*
X956317Y6499102D01*
X4374705Y3336841D02*
X4332386D01*
X4353545D01*
Y3231042D01*
X4332386Y3209882D01*
X4311226D01*
X4290066Y3231042D01*
X5712601Y2828742D02*
X5670282D01*
X5691441D01*
Y2722943D01*
X5670282Y2701783D01*
X5649122D01*
X5627962Y2722943D01*
X7169070Y3199474D02*
X7126750D01*
X7147910D01*
Y3093675D01*
X7126750Y3072515D01*
X7105590D01*
X7084431Y3093675D01*
X6485427Y2593644D02*
X6443107D01*
X6464267D01*
Y2487845D01*
X6443107Y2466685D01*
X6421947D01*
X6400787Y2487845D01*
X5719974Y2645672D02*
X5677654D01*
X5698814D01*
Y2539872D01*
X5677654Y2518713D01*
X5656494D01*
X5635334Y2539872D01*
X7368412Y3100501D02*
X7326093D01*
X7347252D01*
Y2994702D01*
X7326093Y2973542D01*
X7304933D01*
X7283773Y2994702D01*
X6927405Y2910121D02*
X6885086D01*
X6906245D01*
Y2804322D01*
X6885086Y2783162D01*
X6863926D01*
X6842766Y2804322D01*
X5804560Y2761115D02*
X5762240D01*
X5783400D01*
Y2655315D01*
X5762240Y2634156D01*
X5741080D01*
X5719920Y2655315D01*
X5777380Y2810868D02*
X5735060D01*
X5756220D01*
Y2705069D01*
X5735060Y2683909D01*
X5713900D01*
X5692740Y2705069D01*
X5806581Y2709362D02*
X5764262D01*
X5785421D01*
Y2603563D01*
X5764262Y2582403D01*
X5743102D01*
X5721942Y2603563D01*
X5778641Y2663642D02*
X5736322D01*
X5757481D01*
Y2557843D01*
X5736322Y2536683D01*
X5715162D01*
X5694002Y2557843D01*
X5323873Y2541781D02*
X5281554D01*
X5302713D01*
Y2435981D01*
X5281554Y2414822D01*
X5260394D01*
X5239234Y2435981D01*
X6505081Y2308042D02*
X6462762D01*
X6483921D01*
Y2202243D01*
X6462762Y2181083D01*
X6441602D01*
X6420442Y2202243D01*
X4861695Y3249514D02*
X4819375D01*
X4840535D01*
Y3143715D01*
X4819375Y3122555D01*
X4798215D01*
X4777056Y3143715D01*
X4491545Y3270801D02*
X4449226D01*
X4470385D01*
Y3165002D01*
X4449226Y3143842D01*
X4428066D01*
X4406906Y3165002D01*
X4254737Y3654495D02*
X4212417D01*
X4233577D01*
Y3548696D01*
X4212417Y3527536D01*
X4191257D01*
X4170097Y3548696D01*
X4131865Y3977201D02*
X4089546D01*
X4110705D01*
Y3871401D01*
X4089546Y3850242D01*
X4068386D01*
X4047226Y3871401D01*
X4131865Y4133872D02*
X4089546D01*
X4110705D01*
Y4028073D01*
X4089546Y4006913D01*
X4068386D01*
X4047226Y4028073D01*
X4130865Y3656881D02*
X4088546D01*
X4109705D01*
Y3551082D01*
X4088546Y3529922D01*
X4067386D01*
X4046226Y3551082D01*
X4131865Y4181681D02*
X4089546D01*
X4110705D01*
Y4075882D01*
X4089546Y4054722D01*
X4068386D01*
X4047226Y4075882D01*
X4131865Y3926401D02*
X4089546D01*
X4110705D01*
Y3820601D01*
X4089546Y3799442D01*
X4068386D01*
X4047226Y3820601D01*
X4131865Y4028001D02*
X4089546D01*
X4110705D01*
Y3922201D01*
X4089546Y3901042D01*
X4068386D01*
X4047226Y3922201D01*
X4131865Y4231201D02*
X4089546D01*
X4110705D01*
Y4125401D01*
X4089546Y4104242D01*
X4068386D01*
X4047226Y4125401D01*
X3761919Y3185119D02*
X3719600D01*
X3740759D01*
Y3079320D01*
X3719600Y3058160D01*
X3698440D01*
X3677280Y3079320D01*
X3292016Y3230712D02*
X3249696D01*
X3270856D01*
Y3124913D01*
X3249696Y3103753D01*
X3228536D01*
X3207377Y3124913D01*
X4819895Y6511711D02*
X4777576D01*
X4798735D01*
Y6405912D01*
X4777576Y6384752D01*
X4756416D01*
X4735256Y6405912D01*
X4811368Y6221711D02*
X4769048D01*
X4790208D01*
Y6115912D01*
X4769048Y6094752D01*
X4747888D01*
X4726728Y6115912D01*
X4930281Y6499042D02*
X4887962D01*
X4909121D01*
Y6393243D01*
X4887962Y6372083D01*
X4866802D01*
X4845642Y6393243D01*
X4757850Y6435831D02*
X4715531D01*
X4736690D01*
Y6330032D01*
X4715531Y6308872D01*
X4694371D01*
X4673211Y6330032D01*
X4768440Y6510060D02*
X4726120D01*
X4747280D01*
Y6404260D01*
X4726120Y6383101D01*
X4704960D01*
X4683801Y6404260D01*
X4704221Y6466022D02*
X4661902D01*
X4683061D01*
Y6360223D01*
X4661902Y6339063D01*
X4640742D01*
X4619582Y6360223D01*
X4653547Y6489008D02*
X4611227D01*
X4632387D01*
Y6383208D01*
X4611227Y6362049D01*
X4590067D01*
X4568908Y6383208D01*
X4498825Y6510492D02*
X4456505D01*
X4477665D01*
Y6404693D01*
X4456505Y6383534D01*
X4435345D01*
X4414185Y6404693D01*
X4448665Y6510284D02*
X4406345D01*
X4427505D01*
Y6404485D01*
X4406345Y6383326D01*
X4385185D01*
X4364026Y6404485D01*
X4707831Y7172687D02*
X4665511D01*
X4686671D01*
Y7066888D01*
X4665511Y7045728D01*
X4644351D01*
X4623191Y7066888D01*
X5251005Y6240061D02*
X5208686D01*
X5229845D01*
Y6134262D01*
X5208686Y6113102D01*
X5187526D01*
X5166366Y6134262D01*
X4256607Y6720666D02*
X4214287D01*
X4235447D01*
Y6614867D01*
X4214287Y6593707D01*
X4193127D01*
X4171968Y6614867D01*
X5286565Y6396641D02*
X5244246D01*
X5265405D01*
Y6290842D01*
X5244246Y6269682D01*
X5223086D01*
X5201926Y6290842D01*
X5019238Y6037673D02*
X4976919D01*
X4998078D01*
Y5931874D01*
X4976919Y5910714D01*
X4955759D01*
X4934599Y5931874D01*
X4731847Y6140096D02*
X4689527D01*
X4710687D01*
Y6034297D01*
X4689527Y6013137D01*
X4668367D01*
X4647207Y6034297D01*
X5089657Y7059133D02*
X5047338D01*
X5068497D01*
Y6953334D01*
X5047338Y6932174D01*
X5026178D01*
X5005018Y6953334D01*
X5086593Y7153571D02*
X5044273D01*
X5065433D01*
Y7047772D01*
X5044273Y7026613D01*
X5023113D01*
X5001953Y7047772D01*
X4902435Y6820279D02*
X4860116D01*
X4881275D01*
Y6714480D01*
X4860116Y6693320D01*
X4838956D01*
X4817796Y6714480D01*
X4897820Y7151103D02*
X4855501D01*
X4876660D01*
Y7045303D01*
X4855501Y7024144D01*
X4834341D01*
X4813181Y7045303D01*
X5304373Y6240061D02*
X5262053D01*
X5283213D01*
Y6134262D01*
X5262053Y6113102D01*
X5240893D01*
X5219733Y6134262D01*
X5568487Y6239186D02*
X5526167D01*
X5547327D01*
Y6133387D01*
X5526167Y6112227D01*
X5505007D01*
X5483847Y6133387D01*
X6494267Y6429259D02*
X6451947D01*
X6473107D01*
Y6323460D01*
X6451947Y6302300D01*
X6430787D01*
X6409628Y6323460D01*
X4729983Y6088507D02*
X4687664D01*
X4708823D01*
Y5982708D01*
X4687664Y5961548D01*
X4666504D01*
X4645344Y5982708D01*
X5276096Y7070164D02*
X5233776D01*
X5254936D01*
Y6964365D01*
X5233776Y6943206D01*
X5212616D01*
X5191456Y6964365D01*
X4339216Y6501742D02*
X4296897D01*
X4318056D01*
Y6395943D01*
X4296897Y6374783D01*
X4275737D01*
X4254577Y6395943D01*
X4143565Y6699801D02*
X4101246D01*
X4122405D01*
Y6594002D01*
X4101246Y6572842D01*
X4080086D01*
X4058926Y6594002D01*
X4709785Y6974441D02*
X4667465D01*
X4688625D01*
Y6868642D01*
X4667465Y6847482D01*
X4646305D01*
X4625146Y6868642D01*
X4392485Y6498821D02*
X4350166D01*
X4371325D01*
Y6393022D01*
X4350166Y6371862D01*
X4329006D01*
X4307846Y6393022D01*
X4523058Y7175396D02*
X4480739D01*
X4501898D01*
Y7069597D01*
X4480739Y7048437D01*
X4459579D01*
X4438419Y7069597D01*
X4517498Y6978392D02*
X4475178D01*
X4496338D01*
Y6872593D01*
X4475178Y6851434D01*
X4454018D01*
X4432859Y6872593D01*
X6443960Y3199106D02*
X6401640D01*
X6422800D01*
Y3093307D01*
X6401640Y3072147D01*
X6380481D01*
X6359321Y3093307D01*
X5472816Y6194056D02*
X5430497D01*
X5451656D01*
Y6088257D01*
X5430497Y6067097D01*
X5409337D01*
X5388177Y6088257D01*
X5751086Y6226138D02*
X5708766D01*
X5729926D01*
Y6120339D01*
X5708766Y6099179D01*
X5687606D01*
X5666446Y6120339D01*
X5734088Y6278773D02*
X5691768D01*
X5712928D01*
Y6172974D01*
X5691768Y6151814D01*
X5670608D01*
X5649448Y6172974D01*
X3581053Y2124437D02*
X3538733D01*
X3559893D01*
Y2018638D01*
X3538733Y1997478D01*
X3517573D01*
X3496413Y2018638D01*
X4707445Y7230661D02*
X4665126D01*
X4686285D01*
Y7124862D01*
X4665126Y7103702D01*
X4643966D01*
X4622806Y7124862D01*
X5476686Y4790100D02*
X5434367D01*
X5455526D01*
Y4684301D01*
X5434367Y4663141D01*
X5413207D01*
X5392047Y4684301D01*
X4934417Y4247830D02*
X4892097D01*
X4913257D01*
Y4142031D01*
X4892097Y4120872D01*
X4870937D01*
X4849778Y4142031D01*
X4888170Y3733498D02*
X4845851D01*
X4867010D01*
Y3627699D01*
X4845851Y3606539D01*
X4824691D01*
X4803531Y3627699D01*
X4888170Y3783658D02*
X4845851D01*
X4867010D01*
Y3677859D01*
X4845851Y3656699D01*
X4824691D01*
X4803531Y3677859D01*
X6377273Y3558017D02*
X6334953D01*
X6356113D01*
Y3452218D01*
X6334953Y3431058D01*
X6313793D01*
X6292633Y3452218D01*
X6259784Y3919353D02*
X6217465D01*
X6238624D01*
Y3813554D01*
X6217465Y3792394D01*
X6196305D01*
X6175145Y3813554D01*
X964853Y6604997D02*
X922533D01*
X943693D01*
Y6499198D01*
X922533Y6478038D01*
X901373D01*
X880213Y6499198D01*
X901353Y6604997D02*
X859033D01*
X880193D01*
Y6499198D01*
X859033Y6478038D01*
X837873D01*
X816713Y6499198D01*
X875953Y6503397D02*
X833633D01*
X854793D01*
Y6397598D01*
X833633Y6376438D01*
X812473D01*
X791313Y6397598D01*
X5354519Y6477281D02*
X5312200D01*
X5333359D01*
Y6371482D01*
X5312200Y6350322D01*
X5291040D01*
X5269880Y6371482D01*
X5242759Y6477281D02*
X5200440D01*
X5221599D01*
Y6371482D01*
X5200440Y6350322D01*
X5179280D01*
X5158120Y6371482D01*
X5239357Y6396641D02*
X5197038D01*
X5218197D01*
Y6290842D01*
X5197038Y6269682D01*
X5175878D01*
X5154718Y6290842D01*
X5298639Y6477281D02*
X5256320D01*
X5277479D01*
Y6371482D01*
X5256320Y6350322D01*
X5235160D01*
X5214000Y6371482D01*
X5523495Y6142972D02*
X5481176D01*
X5502335D01*
Y6037173D01*
X5481176Y6016013D01*
X5460016D01*
X5438856Y6037173D01*
X5474586Y6145170D02*
X5432267D01*
X5453426D01*
Y6039371D01*
X5432267Y6018211D01*
X5411107D01*
X5389947Y6039371D01*
X5569150Y6143913D02*
X5526831D01*
X5547990D01*
Y6038114D01*
X5526831Y6016954D01*
X5505671D01*
X5484511Y6038114D01*
X5383085Y7243361D02*
X5340766D01*
X5361925D01*
Y7137562D01*
X5340766Y7116402D01*
X5319606D01*
X5298446Y7137562D01*
X4634430Y637193D02*
X4592111D01*
X4613270D01*
Y531394D01*
X4592111Y510234D01*
X4570951D01*
X4549791Y531394D01*
X4736030Y713393D02*
X4693711D01*
X4714870D01*
Y607594D01*
X4693711Y586434D01*
X4672551D01*
X4651391Y607594D01*
X4685230Y700693D02*
X4642911D01*
X4664070D01*
Y594894D01*
X4642911Y573734D01*
X4621751D01*
X4600591Y594894D01*
X4634430Y700693D02*
X4592111D01*
X4613270D01*
Y594894D01*
X4592111Y573734D01*
X4570951D01*
X4549791Y594894D01*
X4761430Y751493D02*
X4719111D01*
X4740270D01*
Y645694D01*
X4719111Y624534D01*
X4697951D01*
X4676791Y645694D01*
X4761430Y802293D02*
X4719111D01*
X4740270D01*
Y696494D01*
X4719111Y675334D01*
X4697951D01*
X4676791Y696494D01*
X4761430Y853093D02*
X4719111D01*
X4740270D01*
Y747294D01*
X4719111Y726134D01*
X4697951D01*
X4676791Y747294D01*
X4710630Y954693D02*
X4668311D01*
X4689470D01*
Y848894D01*
X4668311Y827734D01*
X4647151D01*
X4625991Y848894D01*
X4659830Y954693D02*
X4617511D01*
X4638670D01*
Y848894D01*
X4617511Y827734D01*
X4596351D01*
X4575191Y848894D01*
X4609030Y954693D02*
X4566711D01*
X4587870D01*
Y848894D01*
X4566711Y827734D01*
X4545551D01*
X4524391Y848894D01*
X6686750Y2262793D02*
X6644431D01*
X6665590D01*
Y2156994D01*
X6644431Y2135834D01*
X6623271D01*
X6602111Y2156994D01*
X6737550Y2262793D02*
X6695231D01*
X6716390D01*
Y2156994D01*
X6695231Y2135834D01*
X6674071D01*
X6652911Y2156994D01*
X6790890Y2262793D02*
X6748571D01*
X6769730D01*
Y2156994D01*
X6748571Y2135834D01*
X6727411D01*
X6706251Y2156994D01*
X6686750Y2311053D02*
X6644431D01*
X6665590D01*
Y2205254D01*
X6644431Y2184094D01*
X6623271D01*
X6602111Y2205254D01*
X6737550Y2311053D02*
X6695231D01*
X6716390D01*
Y2205254D01*
X6695231Y2184094D01*
X6674071D01*
X6652911Y2205254D01*
X6790890Y2311053D02*
X6748571D01*
X6769730D01*
Y2205254D01*
X6748571Y2184094D01*
X6727411D01*
X6706251Y2205254D01*
X6790890Y2356773D02*
X6748571D01*
X6769730D01*
Y2250974D01*
X6748571Y2229814D01*
X6727411D01*
X6706251Y2250974D01*
X6737550Y2356773D02*
X6695231D01*
X6716390D01*
Y2250974D01*
X6695231Y2229814D01*
X6674071D01*
X6652911Y2250974D01*
X6686750Y2356773D02*
X6644431D01*
X6665590D01*
Y2250974D01*
X6644431Y2229814D01*
X6623271D01*
X6602111Y2250974D01*
X5805852Y6568618D02*
X5763533D01*
X5784693D01*
Y6462819D01*
X5763533Y6441659D01*
X5742373D01*
X5721213Y6462819D01*
X5363410Y6946553D02*
X5321091D01*
X5342250D01*
Y6840754D01*
X5321091Y6819594D01*
X5299931D01*
X5278771Y6840754D01*
X2568119Y629879D02*
X2525800D01*
X2546959D01*
Y524080D01*
X2525800Y502920D01*
X2504640D01*
X2483480Y524080D01*
X3076119Y949919D02*
X3033800D01*
X3054959D01*
Y844120D01*
X3033800Y822960D01*
X3012640D01*
X2991480Y844120D01*
X4367730Y1919893D02*
X4325411D01*
X4346570D01*
Y1814094D01*
X4325411Y1792934D01*
X4304251D01*
X4283091Y1814094D01*
X4367730Y1970693D02*
X4325411D01*
X4346570D01*
Y1864894D01*
X4325411Y1843734D01*
X4304251D01*
X4283091Y1864894D01*
X6302388Y5239269D02*
X6260069D01*
X6281228D01*
Y5133470D01*
X6260069Y5112310D01*
X6238909D01*
X6217749Y5133470D01*
X6209230Y5234593D02*
X6166911D01*
X6188070D01*
Y5128794D01*
X6166911Y5107634D01*
X6145751D01*
X6124591Y5128794D01*
X6030524Y5684521D02*
X5988204D01*
X6009364D01*
Y5578721D01*
X5988204Y5557562D01*
X5967044D01*
X5945885Y5578721D01*
X5400865Y6405622D02*
X5358546D01*
X5379705D01*
Y6299823D01*
X5358546Y6278663D01*
X5337386D01*
X5316226Y6299823D01*
X4888853Y1695313D02*
X4846533D01*
X4867693D01*
Y1589513D01*
X4846533Y1568354D01*
X4825373D01*
X4804214Y1589513D01*
X4935919Y1927759D02*
X4893600D01*
X4914759D01*
Y1821960D01*
X4893600Y1800800D01*
X4872440D01*
X4851280Y1821960D01*
X1949650Y941993D02*
X1907331D01*
X1928490D01*
Y836194D01*
X1907331Y815034D01*
X1886171D01*
X1865011Y836194D01*
X1949650Y893733D02*
X1907331D01*
X1928490D01*
Y787934D01*
X1907331Y766774D01*
X1886171D01*
X1865011Y787934D01*
X1973759Y642579D02*
X1931440D01*
X1952599D01*
Y536780D01*
X1931440Y515620D01*
X1910280D01*
X1889120Y536780D01*
X5675185Y5424721D02*
X5632866D01*
X5654025D01*
Y5318922D01*
X5632866Y5297762D01*
X5611706D01*
X5590546Y5318922D01*
X5703125Y5183597D02*
X5660806D01*
X5681965D01*
Y5077798D01*
X5660806Y5056638D01*
X5639646D01*
X5618486Y5077798D01*
X5248465Y6189261D02*
X5206146D01*
X5227305D01*
Y6083462D01*
X5206146Y6062302D01*
X5184986D01*
X5163826Y6083462D01*
X4410265Y2366561D02*
X4367946D01*
X4389105D01*
Y2260762D01*
X4367946Y2239602D01*
X4346786D01*
X4325626Y2260762D01*
X6150248Y6983406D02*
X6107929D01*
X6129088D01*
Y6877607D01*
X6107929Y6856447D01*
X6086769D01*
X6065609Y6877607D01*
X7158969Y3554159D02*
X7116649D01*
X7137809D01*
Y3448360D01*
X7116649Y3427200D01*
X7095489D01*
X7074329Y3448360D01*
X4629186Y6182110D02*
X4586866D01*
X4608026D01*
Y6076311D01*
X4586866Y6055151D01*
X4565706D01*
X4544546Y6076311D01*
X5870639Y1559459D02*
X5828320D01*
X5849479D01*
Y1453660D01*
X5828320Y1432500D01*
X5807160D01*
X5786000Y1453660D01*
X5921439Y1559459D02*
X5879120D01*
X5900279D01*
Y1453660D01*
X5879120Y1432500D01*
X5857960D01*
X5836800Y1453660D01*
X5972239Y1610259D02*
X5929920D01*
X5951079D01*
Y1504460D01*
X5929920Y1483300D01*
X5908760D01*
X5887600Y1504460D01*
X5921439Y1610259D02*
X5879120D01*
X5900279D01*
Y1504460D01*
X5879120Y1483300D01*
X5857960D01*
X5836800Y1504460D01*
X6741808Y583616D02*
X6699489D01*
X6720648D01*
Y477817D01*
X6699489Y456657D01*
X6678329D01*
X6657169Y477817D01*
X6833350Y583616D02*
X6791030D01*
X6812190D01*
Y477817D01*
X6791030Y456657D01*
X6769870D01*
X6748711Y477817D01*
X4914117Y2211546D02*
X4871798D01*
X4892957D01*
Y2105747D01*
X4871798Y2084587D01*
X4850638D01*
X4829478Y2105747D01*
X5604047Y2917739D02*
X5561727D01*
X5582887D01*
Y2811940D01*
X5561727Y2790780D01*
X5540567D01*
X5519407Y2811940D01*
X5604047Y2866939D02*
X5561727D01*
X5582887D01*
Y2761140D01*
X5561727Y2739980D01*
X5540567D01*
X5519407Y2761140D01*
X5604047Y3021906D02*
X5561727D01*
X5582887D01*
Y2916106D01*
X5561727Y2894947D01*
X5540567D01*
X5519407Y2916106D01*
X5604047Y2970206D02*
X5561727D01*
X5582887D01*
Y2864407D01*
X5561727Y2843247D01*
X5540567D01*
X5519407Y2864407D01*
X5601507Y3126019D02*
X5559187D01*
X5580347D01*
Y3020220D01*
X5559187Y2999060D01*
X5538027D01*
X5516867Y3020220D01*
X5601507Y3075219D02*
X5559187D01*
X5580347D01*
Y2969420D01*
X5559187Y2948260D01*
X5538027D01*
X5516867Y2969420D01*
X5598967Y3227939D02*
X5556647D01*
X5577807D01*
Y3122140D01*
X5556647Y3100980D01*
X5535487D01*
X5514327Y3122140D01*
X5599868Y3177787D02*
X5557549D01*
X5578708D01*
Y3071988D01*
X5557549Y3050828D01*
X5536389D01*
X5515229Y3071988D01*
X6282934Y5515244D02*
X6240614D01*
X6261774D01*
Y5409445D01*
X6240614Y5388285D01*
X6219454D01*
X6198295Y5409445D01*
X4896027Y4023658D02*
X4853707D01*
X4874867D01*
Y3917859D01*
X4853707Y3896699D01*
X4832547D01*
X4811388Y3917859D01*
X4896027Y3973498D02*
X4853707D01*
X4874867D01*
Y3867699D01*
X4853707Y3846539D01*
X4832547D01*
X4811388Y3867699D01*
X6671487Y3722759D02*
X6629167D01*
X6650327D01*
Y3616959D01*
X6629167Y3595800D01*
X6608007D01*
X6586847Y3616959D01*
X6645447Y3107366D02*
X6603127D01*
X6624287D01*
Y3001567D01*
X6603127Y2980407D01*
X6581967D01*
X6560807Y3001567D01*
X3184445Y3418401D02*
X3142126D01*
X3163285D01*
Y3312601D01*
X3142126Y3291442D01*
X3120966D01*
X3099806Y3312601D01*
X4754165Y6847401D02*
X4711846D01*
X4733005D01*
Y6741601D01*
X4711846Y6720442D01*
X4690686D01*
X4669526Y6741601D01*
X5774843Y6836580D02*
X5732523D01*
X5753683D01*
Y6730781D01*
X5732523Y6709621D01*
X5711363D01*
X5690204Y6730781D01*
X5881925Y1952821D02*
X5839606D01*
X5860765D01*
Y1847021D01*
X5839606Y1825862D01*
X5818446D01*
X5797286Y1847021D01*
X5260575Y2143041D02*
X5218256D01*
X5239415D01*
Y2037242D01*
X5218256Y2016082D01*
X5197096D01*
X5175936Y2037242D01*
X3495219Y4305259D02*
X3452900D01*
X3474059D01*
Y4199460D01*
X3452900Y4178300D01*
X3431740D01*
X3410580Y4199460D01*
X3308197Y3700625D02*
X3265877D01*
X3287037D01*
Y3594826D01*
X3265877Y3573666D01*
X3244717D01*
X3223557Y3594826D01*
X3413939Y5552399D02*
X3371620D01*
X3392779D01*
Y5446600D01*
X3371620Y5425440D01*
X3350460D01*
X3329300Y5446600D01*
X2986325Y4840801D02*
X2944006D01*
X2965165D01*
Y4735001D01*
X2944006Y4713842D01*
X2922846D01*
X2901686Y4735001D01*
X3278425Y6169221D02*
X3236106D01*
X3257265D01*
Y6063421D01*
X3236106Y6042262D01*
X3214946D01*
X3193786Y6063421D01*
X2599245Y6011461D02*
X2556926D01*
X2578085D01*
Y5905662D01*
X2556926Y5884502D01*
X2535766D01*
X2514606Y5905662D01*
X2605595Y5960661D02*
X2563276D01*
X2584435D01*
Y5854862D01*
X2563276Y5833702D01*
X2542116D01*
X2520956Y5854862D01*
X2665285Y5960661D02*
X2622966D01*
X2644125D01*
Y5854862D01*
X2622966Y5833702D01*
X2601806D01*
X2580646Y5854862D01*
X3478461Y3321601D02*
X3436141D01*
X3457301D01*
Y3215802D01*
X3436141Y3194642D01*
X3414981D01*
X3393822Y3215802D01*
X6654563Y5259728D02*
X6612244D01*
X6633403D01*
Y5153929D01*
X6612244Y5132769D01*
X6591084D01*
X6569924Y5153929D01*
X5545645Y5249461D02*
X5503326D01*
X5524485D01*
Y5143662D01*
X5503326Y5122502D01*
X5482166D01*
X5461006Y5143662D01*
X6874047Y2957506D02*
X6831727D01*
X6852887D01*
Y2851707D01*
X6831727Y2830547D01*
X6810567D01*
X6789407Y2851707D01*
X5568487Y6193282D02*
X5526167D01*
X5547327D01*
Y6087483D01*
X5526167Y6066323D01*
X5505007D01*
X5483847Y6087483D01*
X5521726Y6240302D02*
X5479406D01*
X5500566D01*
Y6134503D01*
X5479406Y6113343D01*
X5458246D01*
X5437086Y6134503D01*
X5521726Y6191858D02*
X5479406D01*
X5500566D01*
Y6086059D01*
X5479406Y6064899D01*
X5458246D01*
X5437086Y6086059D01*
X5472816Y6239960D02*
X5430497D01*
X5451656D01*
Y6134160D01*
X5430497Y6113001D01*
X5409337D01*
X5388177Y6134160D01*
X5578748Y7021506D02*
X5536429D01*
X5557588D01*
Y6915707D01*
X5536429Y6894547D01*
X5515269D01*
X5494109Y6915707D01*
X6370552Y3453313D02*
X6328232D01*
X6349392D01*
Y3347514D01*
X6328232Y3326355D01*
X6307072D01*
X6285913Y3347514D01*
X7499519Y3259470D02*
X7457199D01*
X7478359D01*
Y3153671D01*
X7457199Y3132511D01*
X7436039D01*
X7414880Y3153671D01*
X5886005Y7154461D02*
X5843686D01*
X5864845D01*
Y7048662D01*
X5843686Y7027502D01*
X5822526D01*
X5801366Y7048662D01*
X5893182Y7028166D02*
X5850863D01*
X5872022D01*
Y6922367D01*
X5850863Y6901207D01*
X5829703D01*
X5808543Y6922367D01*
X5763869Y7245963D02*
X5721549D01*
X5742709D01*
Y7140164D01*
X5721549Y7119004D01*
X5700389D01*
X5679229Y7140164D01*
X5555015Y6950657D02*
X5512695D01*
X5533855D01*
Y6844858D01*
X5512695Y6823698D01*
X5491535D01*
X5470375Y6844858D01*
X5212710Y7105967D02*
X5170390D01*
X5191550D01*
Y7000168D01*
X5170390Y6979008D01*
X5149230D01*
X5128071Y7000168D01*
X6023809Y5755700D02*
X5981490D01*
X6002649D01*
Y5649901D01*
X5981490Y5628742D01*
X5960330D01*
X5939170Y5649901D01*
X5642165Y5125001D02*
X5599846D01*
X5621005D01*
Y5019202D01*
X5599846Y4998042D01*
X5578686D01*
X5557526Y5019202D01*
X7267765Y4703361D02*
X7225446D01*
X7246605D01*
Y4597562D01*
X7225446Y4576402D01*
X7204286D01*
X7183126Y4597562D01*
X6879145Y4789721D02*
X6836826D01*
X6857985D01*
Y4683922D01*
X6836826Y4662762D01*
X6815666D01*
X6794506Y4683922D01*
X6218745Y4840521D02*
X6176426D01*
X6197585D01*
Y4734722D01*
X6176426Y4713562D01*
X6155266D01*
X6134106Y4734722D01*
X5755712Y4795554D02*
X5713392D01*
X5734552D01*
Y4689755D01*
X5713392Y4668595D01*
X5692232D01*
X5671072Y4689755D01*
X6218745Y4774481D02*
X6176426D01*
X6197585D01*
Y4668682D01*
X6176426Y4647522D01*
X6155266D01*
X6134106Y4668682D01*
X5401865Y6174301D02*
X5359546D01*
X5380705D01*
Y6068501D01*
X5359546Y6047342D01*
X5338386D01*
X5317226Y6068501D01*
X4885245Y7050321D02*
X4842926D01*
X4864085D01*
Y6944522D01*
X4842926Y6923362D01*
X4821766D01*
X4800606Y6944522D01*
X4694745Y6852201D02*
X4652426D01*
X4673585D01*
Y6746402D01*
X4652426Y6725242D01*
X4631266D01*
X4610106Y6746402D01*
X4379785Y6407701D02*
X4337466D01*
X4358625D01*
Y6301902D01*
X4337466Y6280742D01*
X4316306D01*
X4295146Y6301902D01*
X5017325Y4959901D02*
X4975006D01*
X4996165D01*
Y4854102D01*
X4975006Y4832942D01*
X4953846D01*
X4932686Y4854102D01*
X6259784Y3758797D02*
X6217465D01*
X6238624D01*
Y3652998D01*
X6217465Y3631838D01*
X6196305D01*
X6175145Y3652998D01*
X6259784Y3592663D02*
X6217465D01*
X6238624D01*
Y3486864D01*
X6217465Y3465704D01*
X6196305D01*
X6175145Y3486864D01*
X5734605Y4096581D02*
X5692286D01*
X5713445D01*
Y3990781D01*
X5692286Y3969622D01*
X5671126D01*
X5649966Y3990781D01*
X5696505Y4055941D02*
X5654186D01*
X5675345D01*
Y3950141D01*
X5654186Y3928982D01*
X5633026D01*
X5611866Y3950141D01*
X5658405Y4020381D02*
X5616086D01*
X5637245D01*
Y3914581D01*
X5616086Y3893422D01*
X5594926D01*
X5573766Y3914581D01*
X5701585Y3804481D02*
X5659266D01*
X5680425D01*
Y3698681D01*
X5659266Y3677522D01*
X5638106D01*
X5616946Y3698681D01*
X5635545Y3801941D02*
X5593226D01*
X5614385D01*
Y3696141D01*
X5593226Y3674982D01*
X5572066D01*
X5550906Y3696141D01*
X5360225Y3888021D02*
X5317906D01*
X5339065D01*
Y3782222D01*
X5317906Y3761062D01*
X5296746D01*
X5275586Y3782222D01*
X5306885Y3839761D02*
X5264566D01*
X5285725D01*
Y3733962D01*
X5264566Y3712802D01*
X5243406D01*
X5222246Y3733962D01*
X7496365Y3430821D02*
X7454046D01*
X7475205D01*
Y3325022D01*
X7454046Y3303862D01*
X7432886D01*
X7411726Y3325022D01*
X6368605Y3349541D02*
X6326286D01*
X6347445D01*
Y3243742D01*
X6326286Y3222582D01*
X6305126D01*
X6283966Y3243742D01*
X5840285Y3494321D02*
X5797966D01*
X5819125D01*
Y3388522D01*
X5797966Y3367362D01*
X5776806D01*
X5755646Y3388522D01*
X5652365Y3233026D02*
X5610045D01*
X5631205D01*
Y3127227D01*
X5610045Y3106067D01*
X5588885D01*
X5567725Y3127227D01*
X5656629Y2970206D02*
X5614309D01*
X5635469D01*
Y2864407D01*
X5614309Y2843247D01*
X5593149D01*
X5571989Y2864407D01*
X5656629Y3020682D02*
X5614309D01*
X5635469D01*
Y2914882D01*
X5614309Y2893723D01*
X5593149D01*
X5571989Y2914882D01*
X5656629Y2917415D02*
X5614309D01*
X5635469D01*
Y2811615D01*
X5614309Y2790456D01*
X5593149D01*
X5571989Y2811615D01*
X5654089Y3125695D02*
X5611769D01*
X5632929D01*
Y3019895D01*
X5611769Y2998736D01*
X5590609D01*
X5569449Y3019895D01*
X5654089Y3075219D02*
X5611769D01*
X5632929D01*
Y2969420D01*
X5611769Y2948260D01*
X5590609D01*
X5569449Y2969420D01*
X5656629Y2866939D02*
X5614309D01*
X5635469D01*
Y2761140D01*
X5614309Y2739980D01*
X5593149D01*
X5571989Y2761140D01*
X5652365Y3182550D02*
X5610045D01*
X5631205D01*
Y3076751D01*
X5610045Y3055591D01*
X5588885D01*
X5567725Y3076751D01*
X5554919Y3153517D02*
X5512600D01*
X5533759D01*
Y3047718D01*
X5512600Y3026558D01*
X5491440D01*
X5470280Y3047718D01*
X5553265Y3049821D02*
X5510946D01*
X5532105D01*
Y2944022D01*
X5510946Y2922862D01*
X5489786D01*
X5468626Y2944022D01*
X5548185Y2943141D02*
X5505866D01*
X5527025D01*
Y2837342D01*
X5505866Y2816182D01*
X5484706D01*
X5463546Y2837342D01*
X4740465Y3263181D02*
X4698146D01*
X4719305D01*
Y3157382D01*
X4698146Y3136222D01*
X4676986D01*
X4655826Y3157382D01*
X4613465Y3265721D02*
X4571146D01*
X4592305D01*
Y3159922D01*
X4571146Y3138762D01*
X4549986D01*
X4528826Y3159922D01*
X4372165Y3824521D02*
X4329846D01*
X4351005D01*
Y3718722D01*
X4329846Y3697562D01*
X4308686D01*
X4287526Y3718722D01*
X4008945Y3641641D02*
X3966626D01*
X3987785D01*
Y3535842D01*
X3966626Y3514682D01*
X3945466D01*
X3924306Y3535842D01*
X4994465Y1924601D02*
X4952146D01*
X4973305D01*
Y1818802D01*
X4952146Y1797642D01*
X4930986D01*
X4909826Y1818802D01*
X2675445Y7101121D02*
X2633126D01*
X2654285D01*
Y6995322D01*
X2633126Y6974162D01*
X2611966D01*
X2590806Y6995322D01*
X2675445Y7151921D02*
X2633126D01*
X2654285D01*
Y7046122D01*
X2633126Y7024962D01*
X2611966D01*
X2590806Y7046122D01*
X2675445Y7202721D02*
X2633126D01*
X2654285D01*
Y7096922D01*
X2633126Y7075762D01*
X2611966D01*
X2590806Y7096922D01*
X2998019Y6855419D02*
X2955700D01*
X2976859D01*
Y6749620D01*
X2955700Y6728460D01*
X2934540D01*
X2913380Y6749620D01*
X3171745Y6120961D02*
X3129426D01*
X3150585D01*
Y6015161D01*
X3129426Y5994002D01*
X3108266D01*
X3087106Y6015161D01*
X3767645Y3893101D02*
X3725326D01*
X3746485D01*
Y3787302D01*
X3725326Y3766142D01*
X3704166D01*
X3683006Y3787302D01*
X3767645Y3781341D02*
X3725326D01*
X3746485D01*
Y3675542D01*
X3725326Y3654382D01*
X3704166D01*
X3683006Y3675542D01*
X3767645Y3651801D02*
X3725326D01*
X3746485D01*
Y3546002D01*
X3725326Y3524842D01*
X3704166D01*
X3683006Y3546002D01*
X833945Y5848901D02*
X791626D01*
X812785D01*
Y5743102D01*
X791626Y5721942D01*
X770466D01*
X749306Y5743102D01*
X925385Y5838741D02*
X883066D01*
X904225D01*
Y5732942D01*
X883066Y5711782D01*
X861906D01*
X840746Y5732942D01*
X897445Y5782861D02*
X855126D01*
X876285D01*
Y5677062D01*
X855126Y5655902D01*
X833966D01*
X812806Y5677062D01*
X2454494Y2782651D02*
X2412174D01*
X2433334D01*
Y2676852D01*
X2412174Y2655692D01*
X2391014D01*
X2369854Y2676852D01*
X2454447Y2728906D02*
X2412127D01*
X2433287D01*
Y2623107D01*
X2412127Y2601947D01*
X2390967D01*
X2369807Y2623107D01*
X2495087Y2678106D02*
X2452767D01*
X2473927D01*
Y2572307D01*
X2452767Y2551147D01*
X2431607D01*
X2410447Y2572307D01*
X2556047Y2627306D02*
X2513727D01*
X2534887D01*
Y2521507D01*
X2513727Y2500347D01*
X2492567D01*
X2471407Y2521507D01*
X2543347Y2678106D02*
X2501027D01*
X2522187D01*
Y2572307D01*
X2501027Y2551147D01*
X2479867D01*
X2458707Y2572307D01*
X2556047Y2576506D02*
X2513727D01*
X2534887D01*
Y2470707D01*
X2513727Y2449547D01*
X2492567D01*
X2471407Y2470707D01*
X5324132Y2429701D02*
X5281812D01*
X5302972D01*
Y2323902D01*
X5281812Y2302742D01*
X5260652D01*
X5239492Y2323902D01*
X5276868Y2325527D02*
X5234549D01*
X5255708D01*
Y2219728D01*
X5234549Y2198568D01*
X5213389D01*
X5192229Y2219728D01*
X4981765Y2102401D02*
X4939446D01*
X4960605D01*
Y1996602D01*
X4939446Y1975442D01*
X4918286D01*
X4897126Y1996602D01*
X5294688Y2269687D02*
X5252368D01*
X5273528D01*
Y2163888D01*
X5252368Y2142728D01*
X5231208D01*
X5210049Y2163888D01*
X5894179Y4521579D02*
X5851860D01*
X5873019D01*
Y4415780D01*
X5851860Y4394620D01*
X5830700D01*
X5809540Y4415780D01*
X7319119Y3589399D02*
X7276800D01*
X7297959D01*
Y3483600D01*
X7276800Y3462440D01*
X7255640D01*
X7234480Y3483600D01*
X4896027Y4186065D02*
X4853707D01*
X4874867D01*
Y4080266D01*
X4853707Y4059106D01*
X4832547D01*
X4811388Y4080266D01*
X4896027Y4135905D02*
X4853707D01*
X4874867D01*
Y4030106D01*
X4853707Y4008946D01*
X4832547D01*
X4811388Y4030106D01*
X4822367Y4104861D02*
X4780047D01*
X4801207D01*
Y3999062D01*
X4780047Y3977903D01*
X4758887D01*
X4737728Y3999062D01*
X4822367Y4054702D02*
X4780047D01*
X4801207D01*
Y3948902D01*
X4780047Y3927743D01*
X4758887D01*
X4737728Y3948902D01*
X7498599Y4394579D02*
X7456279D01*
X7477439D01*
Y4288780D01*
X7456279Y4267620D01*
X7435119D01*
X7413960Y4288780D01*
X5954272Y4522590D02*
X5911953D01*
X5933112D01*
Y4416791D01*
X5911953Y4395632D01*
X5890793D01*
X5869633Y4416791D01*
X5756617Y6578201D02*
X5714297D01*
X5735457D01*
Y6472402D01*
X5714297Y6451242D01*
X5693137D01*
X5671977Y6472402D01*
X6285501Y5589721D02*
X6243181D01*
X6264341D01*
Y5483922D01*
X6243181Y5462762D01*
X6222021D01*
X6200861Y5483922D01*
X5580336Y7245869D02*
X5538016D01*
X5559176D01*
Y7140070D01*
X5538016Y7118910D01*
X5516856D01*
X5495696Y7140070D01*
X5574605Y7081642D02*
X5532285D01*
X5553445D01*
Y6975843D01*
X5532285Y6954684D01*
X5511125D01*
X5489965Y6975843D01*
X4895819Y6982813D02*
X4853499D01*
X4874659D01*
Y6877013D01*
X4853499Y6855854D01*
X4832339D01*
X4811180Y6877013D01*
X5889226Y7207689D02*
X5846906D01*
X5868066D01*
Y7101890D01*
X5846906Y7080731D01*
X5825746D01*
X5804587Y7101890D01*
X5319695Y6975949D02*
X5277375D01*
X5298535D01*
Y6870150D01*
X5277375Y6848990D01*
X5256215D01*
X5235056Y6870150D01*
X5571045Y6869981D02*
X5528726D01*
X5549885D01*
Y6764182D01*
X5528726Y6743022D01*
X5507566D01*
X5486406Y6764182D01*
X5573585Y6748061D02*
X5531266D01*
X5552425D01*
Y6642262D01*
X5531266Y6621102D01*
X5510106D01*
X5488946Y6642262D01*
X5827587Y6958006D02*
X5785267D01*
X5806427D01*
Y6852207D01*
X5785267Y6831047D01*
X5764107D01*
X5742947Y6852207D01*
X6142834Y4091785D02*
X6100514D01*
X6121674D01*
Y3985986D01*
X6100514Y3964826D01*
X6079354D01*
X6058194Y3985986D01*
X5869040Y3446249D02*
X5826720D01*
X5847880D01*
Y3340450D01*
X5826720Y3319290D01*
X5805560D01*
X5784401Y3340450D01*
X6671487Y4324739D02*
X6629167D01*
X6650327D01*
Y4218939D01*
X6629167Y4197780D01*
X6608007D01*
X6586847Y4218939D01*
X6671487Y4274579D02*
X6629167D01*
X6650327D01*
Y4168780D01*
X6629167Y4147620D01*
X6608007D01*
X6586847Y4168780D01*
X6671487Y4022479D02*
X6629167D01*
X6650327D01*
Y3916679D01*
X6629167Y3895520D01*
X6608007D01*
X6586847Y3916679D01*
X6671487Y3972319D02*
X6629167D01*
X6650327D01*
Y3866520D01*
X6629167Y3845360D01*
X6608007D01*
X6586847Y3866520D01*
X6671487Y3875159D02*
X6629167D01*
X6650327D01*
Y3769359D01*
X6629167Y3748200D01*
X6608007D01*
X6586847Y3769359D01*
X6671487Y3824999D02*
X6629167D01*
X6650327D01*
Y3719200D01*
X6629167Y3698040D01*
X6608007D01*
X6586847Y3719200D01*
X6671487Y3672599D02*
X6629167D01*
X6650327D01*
Y3566800D01*
X6629167Y3545640D01*
X6608007D01*
X6586847Y3566800D01*
X4823171Y3749498D02*
X4780851D01*
X4802011D01*
Y3643699D01*
X4780851Y3622540D01*
X4759691D01*
X4738532Y3643699D01*
X4762211Y3792678D02*
X4719891D01*
X4741051D01*
Y3686879D01*
X4719891Y3665720D01*
X4698731D01*
X4677572Y3686879D01*
X4781087Y3992159D02*
X4738767D01*
X4759927D01*
Y3886360D01*
X4738767Y3865200D01*
X4717607D01*
X4696447Y3886360D01*
X4833331Y3995878D02*
X4791011D01*
X4812171D01*
Y3890079D01*
X4791011Y3868920D01*
X4769851D01*
X4748692Y3890079D01*
X4757131Y4036518D02*
X4714811D01*
X4735971D01*
Y3930719D01*
X4714811Y3909560D01*
X4693651D01*
X4672492Y3930719D01*
X4759671Y4097478D02*
X4717351D01*
X4738511D01*
Y3991679D01*
X4717351Y3970520D01*
X4696191D01*
X4675032Y3991679D01*
X4830791Y4166058D02*
X4788471D01*
X4809631D01*
Y4060259D01*
X4788471Y4039100D01*
X4767311D01*
X4746152Y4060259D01*
X2793245Y3353761D02*
X2750926D01*
X2772085D01*
Y3247962D01*
X2750926Y3226802D01*
X2729766D01*
X2708606Y3247962D01*
X2644319Y3479759D02*
X2602000D01*
X2623159D01*
Y3373960D01*
X2602000Y3352800D01*
X2580840D01*
X2559680Y3373960D01*
D145*
X5831679Y355000D02*
G03*
X5831679Y355000I-30480J0D01*
G01*
X4381680D02*
G03*
X4381680Y355000I-30480J0D01*
G01*
D272*
X1535802Y7025003D02*
G03*
X1535802Y7025003I-50800J0D01*
G01*
X815802D02*
G03*
X815802Y7025003I-50800J0D01*
G01*
X5851999Y355000D02*
G03*
X5851999Y355000I-50800J0D01*
G01*
X4402000D02*
G03*
X4402000Y355000I-50800J0D01*
G01*
%TF.MD5,8309fec67f320d98749aa08440e9cff6*%
M02*
