%TF.GenerationSoftware,Altium Limited,Altium Designer,23.11.1 (41)*%
G04 Layer_Color=32768*
%FSLAX45Y45*%
%MOMM*%
%TF.SameCoordinates,D78E9C2B-A710-42EA-B38E-4640A2B68151*%
%TF.FilePolarity,Positive*%
%TF.FileFunction,Other,Bottom_Assembly*%
%TF.Part,Single*%
G01*
G75*
%TA.AperFunction,NonConductor*%
%ADD139C,0.20000*%
G36*
X5411462Y3867951D02*
X5412588D01*
X5413713Y3867881D01*
X5414698Y3867740D01*
X5415683Y3867670D01*
X5416528Y3867600D01*
X5417302Y3867459D01*
X5418005Y3867389D01*
X5418638Y3867248D01*
X5419131Y3867177D01*
X5419553Y3867107D01*
X5419905Y3867037D01*
X5420116Y3866966D01*
X5420257Y3866896D01*
X5420327D01*
X5421875Y3866474D01*
X5423282Y3865981D01*
X5424478Y3865418D01*
X5425533Y3864996D01*
X5426448Y3864504D01*
X5427081Y3864222D01*
X5427433Y3863941D01*
X5427574Y3863871D01*
X5428629Y3863097D01*
X5429544Y3862323D01*
X5430318Y3861478D01*
X5431021Y3860704D01*
X5431514Y3860001D01*
X5431866Y3859438D01*
X5432077Y3859086D01*
X5432147Y3859016D01*
Y3858946D01*
X5432710Y3857820D01*
X5433062Y3856624D01*
X5433343Y3855498D01*
X5433554Y3854443D01*
X5433695Y3853528D01*
X5433765Y3852754D01*
Y3852121D01*
X5433625Y3850221D01*
X5433343Y3848462D01*
X5432851Y3846985D01*
X5432358Y3845718D01*
X5431795Y3844663D01*
X5431584Y3844241D01*
X5431303Y3843889D01*
X5431162Y3843608D01*
X5431021Y3843396D01*
X5430881Y3843326D01*
Y3843256D01*
X5429755Y3841989D01*
X5428418Y3840934D01*
X5427081Y3840019D01*
X5425815Y3839316D01*
X5424619Y3838753D01*
X5424126Y3838471D01*
X5423634Y3838331D01*
X5423282Y3838190D01*
X5423001Y3838049D01*
X5422860Y3837979D01*
X5422790D01*
X5421734Y3837697D01*
X5420679Y3837416D01*
X5418357Y3836994D01*
X5416035Y3836642D01*
X5413854Y3836431D01*
X5412799Y3836361D01*
X5411884Y3836290D01*
X5411040D01*
X5410266Y3836220D01*
X5409703D01*
X5409210D01*
X5408929D01*
X5408859D01*
X5406396Y3836290D01*
X5404074Y3836431D01*
X5401964Y3836642D01*
X5399994Y3836994D01*
X5398164Y3837346D01*
X5396546Y3837768D01*
X5395068Y3838190D01*
X5393802Y3838612D01*
X5392676Y3839034D01*
X5391691Y3839527D01*
X5390847Y3839879D01*
X5390214Y3840230D01*
X5389651Y3840582D01*
X5389299Y3840793D01*
X5389088Y3840934D01*
X5389018Y3841004D01*
X5388173Y3841778D01*
X5387399Y3842622D01*
X5386696Y3843537D01*
X5386133Y3844452D01*
X5385640Y3845366D01*
X5385218Y3846281D01*
X5384937Y3847196D01*
X5384655Y3848040D01*
X5384444Y3848884D01*
X5384304Y3849658D01*
X5384163Y3850362D01*
X5384093Y3850925D01*
X5384022Y3851417D01*
Y3852121D01*
X5384163Y3854020D01*
X5384444Y3855779D01*
X5384937Y3857257D01*
X5385429Y3858523D01*
X5385922Y3859579D01*
X5386203Y3859931D01*
X5386414Y3860282D01*
X5386555Y3860564D01*
X5386696Y3860775D01*
X5386837Y3860845D01*
Y3860916D01*
X5388033Y3862182D01*
X5389299Y3863237D01*
X5390706Y3864152D01*
X5391973Y3864856D01*
X5393169Y3865418D01*
X5393661Y3865700D01*
X5394154Y3865841D01*
X5394506Y3865981D01*
X5394787Y3866122D01*
X5394928Y3866192D01*
X5394998D01*
X5396053Y3866544D01*
X5397109Y3866826D01*
X5399360Y3867248D01*
X5401682Y3867600D01*
X5403934Y3867811D01*
X5404919Y3867881D01*
X5405833Y3867951D01*
X5406678D01*
X5407451Y3868022D01*
X5408014D01*
X5408507D01*
X5408788D01*
X5408859D01*
X5410195D01*
X5411462Y3867951D01*
D02*
G37*
G36*
Y3830099D02*
X5412588D01*
X5413713Y3830028D01*
X5414698Y3829888D01*
X5415683Y3829817D01*
X5416528Y3829747D01*
X5417302Y3829606D01*
X5418005Y3829536D01*
X5418638Y3829395D01*
X5419131Y3829325D01*
X5419553Y3829254D01*
X5419905Y3829184D01*
X5420116Y3829114D01*
X5420257Y3829043D01*
X5420327D01*
X5421875Y3828621D01*
X5423282Y3828129D01*
X5424478Y3827566D01*
X5425533Y3827144D01*
X5426448Y3826651D01*
X5427081Y3826370D01*
X5427433Y3826088D01*
X5427574Y3826018D01*
X5428629Y3825244D01*
X5429544Y3824470D01*
X5430318Y3823626D01*
X5431021Y3822852D01*
X5431514Y3822148D01*
X5431866Y3821585D01*
X5432077Y3821234D01*
X5432147Y3821163D01*
Y3821093D01*
X5432710Y3819967D01*
X5433062Y3818771D01*
X5433343Y3817645D01*
X5433554Y3816590D01*
X5433695Y3815675D01*
X5433765Y3814901D01*
Y3814268D01*
X5433625Y3812369D01*
X5433343Y3810610D01*
X5432851Y3809132D01*
X5432358Y3807866D01*
X5431795Y3806810D01*
X5431584Y3806388D01*
X5431303Y3806036D01*
X5431162Y3805755D01*
X5431021Y3805544D01*
X5430881Y3805473D01*
Y3805403D01*
X5429755Y3804137D01*
X5428418Y3803081D01*
X5427081Y3802167D01*
X5425815Y3801463D01*
X5424619Y3800900D01*
X5424126Y3800619D01*
X5423634Y3800478D01*
X5423282Y3800337D01*
X5423001Y3800197D01*
X5422860Y3800126D01*
X5422790D01*
X5421734Y3799845D01*
X5420679Y3799563D01*
X5418357Y3799141D01*
X5416035Y3798789D01*
X5413854Y3798578D01*
X5412799Y3798508D01*
X5411884Y3798438D01*
X5411040D01*
X5410266Y3798367D01*
X5409703D01*
X5409210D01*
X5408929D01*
X5408859D01*
X5406396Y3798438D01*
X5404074Y3798578D01*
X5401964Y3798789D01*
X5399994Y3799141D01*
X5398164Y3799493D01*
X5396546Y3799915D01*
X5395068Y3800337D01*
X5393802Y3800759D01*
X5392676Y3801182D01*
X5391691Y3801674D01*
X5390847Y3802026D01*
X5390214Y3802378D01*
X5389651Y3802730D01*
X5389299Y3802941D01*
X5389088Y3803081D01*
X5389018Y3803152D01*
X5388173Y3803926D01*
X5387399Y3804770D01*
X5386696Y3805685D01*
X5386133Y3806599D01*
X5385640Y3807514D01*
X5385218Y3808429D01*
X5384937Y3809343D01*
X5384655Y3810187D01*
X5384444Y3811032D01*
X5384304Y3811806D01*
X5384163Y3812509D01*
X5384093Y3813072D01*
X5384022Y3813565D01*
Y3814268D01*
X5384163Y3816168D01*
X5384444Y3817927D01*
X5384937Y3819404D01*
X5385429Y3820671D01*
X5385922Y3821726D01*
X5386203Y3822078D01*
X5386414Y3822430D01*
X5386555Y3822711D01*
X5386696Y3822922D01*
X5386837Y3822993D01*
Y3823063D01*
X5388033Y3824329D01*
X5389299Y3825385D01*
X5390706Y3826299D01*
X5391973Y3827003D01*
X5393169Y3827566D01*
X5393661Y3827847D01*
X5394154Y3827988D01*
X5394506Y3828129D01*
X5394787Y3828269D01*
X5394928Y3828340D01*
X5394998D01*
X5396053Y3828692D01*
X5397109Y3828973D01*
X5399360Y3829395D01*
X5401682Y3829747D01*
X5403934Y3829958D01*
X5404919Y3830028D01*
X5405833Y3830099D01*
X5406678D01*
X5407451Y3830169D01*
X5408014D01*
X5408507D01*
X5408788D01*
X5408859D01*
X5410195D01*
X5411462Y3830099D01*
D02*
G37*
G36*
X5401893Y3792387D02*
X5403089Y3792246D01*
X5404285Y3792035D01*
X5405341Y3791824D01*
X5406326Y3791472D01*
X5407311Y3791120D01*
X5408155Y3790769D01*
X5408929Y3790346D01*
X5409633Y3789924D01*
X5410266Y3789573D01*
X5410758Y3789221D01*
X5411251Y3788869D01*
X5411603Y3788658D01*
X5411814Y3788447D01*
X5411954Y3788306D01*
X5412025Y3788236D01*
X5412799Y3787462D01*
X5413502Y3786618D01*
X5414065Y3785703D01*
X5414558Y3784859D01*
X5415050Y3784014D01*
X5415402Y3783170D01*
X5415894Y3781552D01*
X5416105Y3780848D01*
X5416246Y3780145D01*
X5416317Y3779582D01*
X5416387Y3779019D01*
X5416457Y3778597D01*
Y3778034D01*
X5416387Y3776767D01*
X5416176Y3775571D01*
X5415965Y3774446D01*
X5415683Y3773461D01*
X5415332Y3772616D01*
X5415120Y3771983D01*
X5414909Y3771561D01*
X5414839Y3771491D01*
Y3771420D01*
X5414135Y3770294D01*
X5413362Y3769309D01*
X5412588Y3768395D01*
X5411743Y3767691D01*
X5411040Y3767058D01*
X5410477Y3766565D01*
X5410055Y3766284D01*
X5409984Y3766214D01*
X5411251D01*
X5412517Y3766284D01*
X5413643Y3766354D01*
X5414769Y3766495D01*
X5415754Y3766565D01*
X5416668Y3766706D01*
X5417513Y3766847D01*
X5418287Y3767058D01*
X5418990Y3767199D01*
X5419553Y3767339D01*
X5420046Y3767480D01*
X5420468Y3767551D01*
X5420749Y3767691D01*
X5420960Y3767762D01*
X5421101Y3767832D01*
X5421171D01*
X5422578Y3768536D01*
X5423845Y3769239D01*
X5424830Y3770013D01*
X5425674Y3770717D01*
X5426378Y3771350D01*
X5426870Y3771842D01*
X5427152Y3772194D01*
X5427222Y3772335D01*
X5427785Y3773179D01*
X5428137Y3774023D01*
X5428418Y3774868D01*
X5428629Y3775712D01*
X5428770Y3776345D01*
X5428840Y3776908D01*
Y3777401D01*
X5428700Y3778667D01*
X5428418Y3779863D01*
X5427996Y3780848D01*
X5427574Y3781763D01*
X5427081Y3782466D01*
X5426659Y3782959D01*
X5426378Y3783240D01*
X5426237Y3783381D01*
X5425604Y3783874D01*
X5424830Y3784366D01*
X5423986Y3784788D01*
X5423141Y3785070D01*
X5422367Y3785351D01*
X5421734Y3785562D01*
X5421312Y3785633D01*
X5421242Y3785703D01*
X5421171D01*
X5421664Y3791683D01*
X5423634Y3791261D01*
X5425393Y3790628D01*
X5426941Y3789924D01*
X5428207Y3789150D01*
X5429192Y3788376D01*
X5429614Y3788095D01*
X5429966Y3787743D01*
X5430177Y3787532D01*
X5430388Y3787321D01*
X5430459Y3787251D01*
X5430529Y3787180D01*
X5431092Y3786477D01*
X5431584Y3785703D01*
X5432429Y3784155D01*
X5432991Y3782607D01*
X5433343Y3781130D01*
X5433625Y3779793D01*
X5433695Y3779230D01*
Y3778737D01*
X5433765Y3778315D01*
Y3777752D01*
X5433695Y3776345D01*
X5433554Y3775008D01*
X5433273Y3773742D01*
X5432921Y3772546D01*
X5432429Y3771491D01*
X5432006Y3770435D01*
X5431444Y3769521D01*
X5430951Y3768676D01*
X5430459Y3767973D01*
X5429896Y3767269D01*
X5429474Y3766706D01*
X5429051Y3766284D01*
X5428629Y3765932D01*
X5428348Y3765651D01*
X5428207Y3765510D01*
X5428137Y3765440D01*
X5426870Y3764525D01*
X5425393Y3763751D01*
X5423845Y3763048D01*
X5422227Y3762414D01*
X5420538Y3761922D01*
X5418849Y3761500D01*
X5417091Y3761148D01*
X5415472Y3760866D01*
X5413854Y3760655D01*
X5412377Y3760515D01*
X5411040Y3760374D01*
X5409914Y3760304D01*
X5408929D01*
X5408225Y3760233D01*
X5407944D01*
X5407733D01*
X5407663D01*
X5407592D01*
X5405341Y3760304D01*
X5403230Y3760444D01*
X5401260Y3760655D01*
X5399431Y3761007D01*
X5397812Y3761359D01*
X5396335Y3761711D01*
X5394998Y3762133D01*
X5393802Y3762625D01*
X5392817Y3763048D01*
X5391902Y3763470D01*
X5391199Y3763822D01*
X5390566Y3764244D01*
X5390073Y3764525D01*
X5389792Y3764736D01*
X5389581Y3764877D01*
X5389510Y3764947D01*
X5388525Y3765862D01*
X5387681Y3766847D01*
X5386977Y3767832D01*
X5386344Y3768817D01*
X5385781Y3769872D01*
X5385359Y3770857D01*
X5385007Y3771842D01*
X5384726Y3772827D01*
X5384515Y3773672D01*
X5384304Y3774516D01*
X5384163Y3775220D01*
X5384093Y3775853D01*
Y3776416D01*
X5384022Y3776767D01*
Y3777119D01*
X5384093Y3778737D01*
X5384374Y3780215D01*
X5384655Y3781552D01*
X5385078Y3782748D01*
X5385429Y3783662D01*
X5385781Y3784366D01*
X5385852Y3784647D01*
X5385992Y3784859D01*
X5386063Y3784929D01*
Y3784999D01*
X5386907Y3786195D01*
X5387892Y3787321D01*
X5388877Y3788236D01*
X5389862Y3789010D01*
X5390777Y3789643D01*
X5391480Y3790065D01*
X5391762Y3790206D01*
X5391973Y3790346D01*
X5392043Y3790417D01*
X5392113D01*
X5393591Y3791120D01*
X5395139Y3791613D01*
X5396546Y3791965D01*
X5397883Y3792176D01*
X5399009Y3792387D01*
X5399431D01*
X5399853Y3792457D01*
X5400205D01*
X5400416D01*
X5400556D01*
X5400627D01*
X5401893Y3792387D01*
D02*
G37*
G36*
X5433554Y3745740D02*
X5405411D01*
X5403793D01*
X5402245Y3745599D01*
X5400908Y3745458D01*
X5399642Y3745247D01*
X5398516Y3745036D01*
X5397461Y3744755D01*
X5396546Y3744543D01*
X5395772Y3744262D01*
X5395139Y3743981D01*
X5394506Y3743699D01*
X5394083Y3743418D01*
X5393661Y3743207D01*
X5393380Y3742996D01*
X5393169Y3742855D01*
X5393098Y3742784D01*
X5393028Y3742714D01*
X5392465Y3742081D01*
X5391973Y3741377D01*
X5391199Y3739829D01*
X5390636Y3738211D01*
X5390284Y3736523D01*
X5390003Y3734975D01*
X5389932Y3734342D01*
Y3733708D01*
X5389862Y3733286D01*
Y3732583D01*
X5389932Y3731105D01*
X5390143Y3729768D01*
X5390354Y3728502D01*
X5390706Y3727517D01*
X5390988Y3726673D01*
X5391199Y3726039D01*
X5391410Y3725687D01*
X5391480Y3725547D01*
X5392113Y3724562D01*
X5392887Y3723717D01*
X5393661Y3723014D01*
X5394365Y3722521D01*
X5395068Y3722099D01*
X5395561Y3721747D01*
X5395913Y3721607D01*
X5396053Y3721536D01*
X5396687Y3721325D01*
X5397320Y3721185D01*
X5398797Y3720903D01*
X5400345Y3720692D01*
X5401893Y3720551D01*
X5403230Y3720481D01*
X5403863D01*
X5404356Y3720411D01*
X5404778D01*
X5405130D01*
X5405341D01*
X5405411D01*
X5433554D01*
Y3713938D01*
X5405411D01*
X5404004D01*
X5402667Y3714008D01*
X5401401Y3714078D01*
X5400205Y3714219D01*
X5399149Y3714360D01*
X5398164Y3714501D01*
X5397250Y3714712D01*
X5396405Y3714852D01*
X5395631Y3714993D01*
X5394998Y3715204D01*
X5394435Y3715345D01*
X5394013Y3715486D01*
X5393661Y3715626D01*
X5393380Y3715697D01*
X5393239Y3715767D01*
X5393169D01*
X5391621Y3716541D01*
X5390214Y3717526D01*
X5389088Y3718511D01*
X5388103Y3719566D01*
X5387329Y3720481D01*
X5386766Y3721255D01*
X5386625Y3721536D01*
X5386485Y3721747D01*
X5386344Y3721888D01*
Y3721959D01*
X5385570Y3723717D01*
X5385007Y3725547D01*
X5384585Y3727446D01*
X5384304Y3729205D01*
X5384233Y3729979D01*
X5384163Y3730753D01*
X5384093Y3731457D01*
Y3732020D01*
X5384022Y3732512D01*
Y3733145D01*
X5384163Y3735678D01*
X5384304Y3736804D01*
X5384444Y3737859D01*
X5384655Y3738915D01*
X5384867Y3739829D01*
X5385078Y3740674D01*
X5385359Y3741448D01*
X5385640Y3742151D01*
X5385852Y3742714D01*
X5386063Y3743277D01*
X5386274Y3743699D01*
X5386485Y3744051D01*
X5386555Y3744262D01*
X5386696Y3744403D01*
Y3744473D01*
X5387751Y3746021D01*
X5388947Y3747287D01*
X5390073Y3748272D01*
X5391199Y3749117D01*
X5392184Y3749750D01*
X5392958Y3750172D01*
X5393239Y3750313D01*
X5393450Y3750454D01*
X5393591Y3750524D01*
X5393661D01*
X5394506Y3750805D01*
X5395420Y3751087D01*
X5397320Y3751509D01*
X5399290Y3751790D01*
X5401190Y3752001D01*
X5402034Y3752072D01*
X5402878Y3752142D01*
X5403582D01*
X5404215Y3752212D01*
X5404708D01*
X5405059D01*
X5405341D01*
X5405411D01*
X5433554D01*
Y3745740D01*
D02*
G37*
%LPC*%
G36*
X5409984Y3861901D02*
X5409351D01*
X5408999D01*
X5408929D01*
X5408859D01*
X5406678D01*
X5404708Y3861760D01*
X5402949Y3861619D01*
X5401260Y3861478D01*
X5399853Y3861267D01*
X5398516Y3860986D01*
X5397390Y3860704D01*
X5396335Y3860493D01*
X5395491Y3860212D01*
X5394787Y3859931D01*
X5394154Y3859719D01*
X5393661Y3859438D01*
X5393310Y3859297D01*
X5393098Y3859157D01*
X5392958Y3859016D01*
X5392887D01*
X5392184Y3858453D01*
X5391621Y3857890D01*
X5391058Y3857327D01*
X5390636Y3856764D01*
X5389932Y3855568D01*
X5389440Y3854513D01*
X5389158Y3853528D01*
X5389018Y3852824D01*
X5388947Y3852543D01*
Y3852121D01*
X5389018Y3851347D01*
X5389088Y3850643D01*
X5389581Y3849306D01*
X5390214Y3848110D01*
X5390917Y3847055D01*
X5391621Y3846281D01*
X5392254Y3845648D01*
X5392747Y3845296D01*
X5392817Y3845155D01*
X5392887D01*
X5393732Y3844663D01*
X5394717Y3844241D01*
X5395842Y3843819D01*
X5397038Y3843537D01*
X5398305Y3843256D01*
X5399642Y3843045D01*
X5402386Y3842693D01*
X5403652Y3842552D01*
X5404848Y3842482D01*
X5405974Y3842411D01*
X5406889D01*
X5407733Y3842341D01*
X5408366D01*
X5408718D01*
X5408859D01*
X5411040Y3842411D01*
X5413010Y3842482D01*
X5414839Y3842622D01*
X5416528Y3842834D01*
X5418005Y3843045D01*
X5419342Y3843326D01*
X5420538Y3843608D01*
X5421593Y3843889D01*
X5422508Y3844170D01*
X5423282Y3844381D01*
X5423915Y3844663D01*
X5424478Y3844874D01*
X5424830Y3845085D01*
X5425111Y3845226D01*
X5425252Y3845366D01*
X5425322D01*
X5425956Y3845859D01*
X5426518Y3846351D01*
X5426941Y3846914D01*
X5427363Y3847477D01*
X5427996Y3848603D01*
X5428418Y3849658D01*
X5428629Y3850573D01*
X5428770Y3851347D01*
X5428840Y3851628D01*
Y3852050D01*
X5428770Y3852824D01*
X5428700Y3853598D01*
X5428489Y3854302D01*
X5428207Y3854935D01*
X5427574Y3856131D01*
X5426870Y3857187D01*
X5426096Y3857961D01*
X5425463Y3858594D01*
X5425182Y3858805D01*
X5424971Y3858946D01*
X5424900Y3859086D01*
X5424830D01*
X5423986Y3859579D01*
X5423001Y3860001D01*
X5421875Y3860423D01*
X5420679Y3860704D01*
X5419412Y3860986D01*
X5418076Y3861197D01*
X5415402Y3861549D01*
X5414065Y3861690D01*
X5412869Y3861760D01*
X5411743Y3861830D01*
X5410829D01*
X5409984Y3861901D01*
D02*
G37*
G36*
Y3824048D02*
X5409351D01*
X5408999D01*
X5408929D01*
X5408859D01*
X5406678D01*
X5404708Y3823907D01*
X5402949Y3823767D01*
X5401260Y3823626D01*
X5399853Y3823415D01*
X5398516Y3823133D01*
X5397390Y3822852D01*
X5396335Y3822641D01*
X5395491Y3822359D01*
X5394787Y3822078D01*
X5394154Y3821867D01*
X5393661Y3821585D01*
X5393310Y3821445D01*
X5393098Y3821304D01*
X5392958Y3821163D01*
X5392887D01*
X5392184Y3820600D01*
X5391621Y3820038D01*
X5391058Y3819475D01*
X5390636Y3818912D01*
X5389932Y3817716D01*
X5389440Y3816660D01*
X5389158Y3815675D01*
X5389018Y3814972D01*
X5388947Y3814690D01*
Y3814268D01*
X5389018Y3813494D01*
X5389088Y3812791D01*
X5389581Y3811454D01*
X5390214Y3810258D01*
X5390917Y3809202D01*
X5391621Y3808429D01*
X5392254Y3807795D01*
X5392747Y3807443D01*
X5392817Y3807303D01*
X5392887D01*
X5393732Y3806810D01*
X5394717Y3806388D01*
X5395842Y3805966D01*
X5397038Y3805685D01*
X5398305Y3805403D01*
X5399642Y3805192D01*
X5402386Y3804840D01*
X5403652Y3804700D01*
X5404848Y3804629D01*
X5405974Y3804559D01*
X5406889D01*
X5407733Y3804488D01*
X5408366D01*
X5408718D01*
X5408859D01*
X5411040Y3804559D01*
X5413010Y3804629D01*
X5414839Y3804770D01*
X5416528Y3804981D01*
X5418005Y3805192D01*
X5419342Y3805473D01*
X5420538Y3805755D01*
X5421593Y3806036D01*
X5422508Y3806318D01*
X5423282Y3806529D01*
X5423915Y3806810D01*
X5424478Y3807021D01*
X5424830Y3807232D01*
X5425111Y3807373D01*
X5425252Y3807514D01*
X5425322D01*
X5425956Y3808006D01*
X5426518Y3808499D01*
X5426941Y3809062D01*
X5427363Y3809625D01*
X5427996Y3810750D01*
X5428418Y3811806D01*
X5428629Y3812720D01*
X5428770Y3813494D01*
X5428840Y3813776D01*
Y3814198D01*
X5428770Y3814972D01*
X5428700Y3815746D01*
X5428489Y3816449D01*
X5428207Y3817083D01*
X5427574Y3818279D01*
X5426870Y3819334D01*
X5426096Y3820108D01*
X5425463Y3820741D01*
X5425182Y3820952D01*
X5424971Y3821093D01*
X5424900Y3821234D01*
X5424830D01*
X5423986Y3821726D01*
X5423001Y3822148D01*
X5421875Y3822570D01*
X5420679Y3822852D01*
X5419412Y3823133D01*
X5418076Y3823344D01*
X5415402Y3823696D01*
X5414065Y3823837D01*
X5412869Y3823907D01*
X5411743Y3823978D01*
X5410829D01*
X5409984Y3824048D01*
D02*
G37*
G36*
X5400767Y3786336D02*
X5400486D01*
X5400345D01*
X5400275D01*
X5398375Y3786195D01*
X5396757Y3785914D01*
X5395350Y3785492D01*
X5394154Y3784999D01*
X5393239Y3784436D01*
X5392536Y3784014D01*
X5392113Y3783733D01*
X5392043Y3783592D01*
X5391973D01*
X5391410Y3783100D01*
X5390988Y3782537D01*
X5390214Y3781411D01*
X5389721Y3780285D01*
X5389299Y3779300D01*
X5389088Y3778386D01*
X5389018Y3777682D01*
X5388947Y3777401D01*
Y3777049D01*
X5389018Y3776064D01*
X5389158Y3775149D01*
X5389440Y3774305D01*
X5389721Y3773601D01*
X5389932Y3772968D01*
X5390214Y3772476D01*
X5390354Y3772194D01*
X5390425Y3772053D01*
X5391058Y3771209D01*
X5391691Y3770506D01*
X5392465Y3769872D01*
X5393098Y3769380D01*
X5393732Y3768958D01*
X5394224Y3768676D01*
X5394576Y3768465D01*
X5394717Y3768395D01*
X5395772Y3767973D01*
X5396827Y3767691D01*
X5397812Y3767410D01*
X5398727Y3767269D01*
X5399501Y3767199D01*
X5400134Y3767128D01*
X5400486D01*
X5400627D01*
X5402315Y3767269D01*
X5403793Y3767551D01*
X5405130Y3768043D01*
X5406185Y3768536D01*
X5407100Y3769028D01*
X5407733Y3769521D01*
X5408085Y3769802D01*
X5408225Y3769943D01*
X5409210Y3771068D01*
X5409914Y3772194D01*
X5410477Y3773390D01*
X5410829Y3774446D01*
X5411040Y3775431D01*
X5411110Y3776134D01*
X5411180Y3776416D01*
Y3776838D01*
X5411040Y3778315D01*
X5410688Y3779652D01*
X5410266Y3780778D01*
X5409703Y3781763D01*
X5409140Y3782537D01*
X5408718Y3783100D01*
X5408366Y3783451D01*
X5408225Y3783592D01*
X5407029Y3784507D01*
X5405763Y3785210D01*
X5404426Y3785703D01*
X5403160Y3785984D01*
X5402034Y3786195D01*
X5401541Y3786266D01*
X5401119D01*
X5400767Y3786336D01*
D02*
G37*
%LPD*%
D139*
X3155030Y6772989D02*
Y6993811D01*
X3040030D02*
X3155030D01*
X3040030Y6772989D02*
Y6993811D01*
Y6772989D02*
X3155030D01*
X465813Y1282593D02*
X667027D01*
X465813D02*
Y1663807D01*
X667027D01*
Y1282593D02*
Y1663807D01*
X870029Y3986180D02*
Y4101180D01*
X1090851D01*
Y3986180D02*
Y4101180D01*
X870029Y3986180D02*
X1090851D01*
X3280060Y6993811D02*
X3395060D01*
Y6772989D02*
Y6993811D01*
X3280060Y6772989D02*
X3395060D01*
X3280060D02*
Y6993811D01*
X6711600Y5525849D02*
X6826600D01*
X6711600D02*
Y5746671D01*
X6826600D01*
Y5525849D02*
Y5746671D01*
X6701440Y6026071D02*
X6816440D01*
Y5805249D02*
Y6026071D01*
X6701440Y5805249D02*
X6816440D01*
X6701440D02*
Y6026071D01*
X3760120Y6772989D02*
X3875120D01*
X3760120D02*
Y6993811D01*
X3875120D01*
Y6772989D02*
Y6993811D01*
X3520090Y6772989D02*
X3635090D01*
X3520090D02*
Y6993811D01*
X3635090D01*
Y6772989D02*
Y6993811D01*
X2800000Y6772989D02*
X2915000D01*
X2800000D02*
Y6993811D01*
X2915000D01*
Y6772989D02*
Y6993811D01*
%TF.MD5,bf4c45a738cc495f3e897729d1d40b03*%
M02*
