%TF.GenerationSoftware,Altium Limited,Altium Designer,23.1.1 (15)*%
G04 Layer_Color=32768*
%FSLAX45Y45*%
%MOMM*%
%TF.SameCoordinates,8C37DE4A-61E0-4A85-99FC-D0A1A2E6B02F*%
%TF.FilePolarity,Positive*%
%TF.FileFunction,Other,Top_3D_Body*%
%TF.Part,Single*%
G01*
G75*
%TA.AperFunction,NonConductor*%
%ADD140C,0.20000*%
D140*
X905480Y4003680D02*
X1060480D01*
X905480D02*
Y4083680D01*
X1060480D01*
Y4003680D02*
Y4083680D01*
X909960Y1992000D02*
Y2072000D01*
Y1992000D02*
X1069960D01*
Y2072000D01*
X909960D02*
X1069960D01*
X1267220Y1618780D02*
X1317220D01*
Y1718780D01*
X1267220D02*
X1317220D01*
X1267220Y1618780D02*
Y1718780D01*
X564280Y600240D02*
X614280D01*
Y700240D01*
X564280D02*
X614280D01*
X564280Y600240D02*
Y700240D01*
X148120Y137560D02*
Y187560D01*
Y137560D02*
X248120D01*
Y187560D01*
X148120D02*
X248120D01*
X2700660Y3896748D02*
X2780660D01*
Y4051748D01*
X2700660D02*
X2780660D01*
X2700660Y3896748D02*
Y4051748D01*
X2449200Y3908612D02*
X2529200D01*
Y4063612D01*
X2449200D02*
X2529200D01*
X2449200Y3908612D02*
Y4063612D01*
X358360Y328740D02*
Y463740D01*
X148360D02*
X358360D01*
X148360Y328740D02*
Y463740D01*
Y328740D02*
X358360D01*
X368440Y580200D02*
Y715200D01*
X148440D02*
X368440D01*
X148440Y580200D02*
Y715200D01*
Y580200D02*
X368440D01*
X876300Y930920D02*
X956300D01*
Y1090920D01*
X876300D02*
X956300D01*
X876300Y930920D02*
Y1090920D01*
%TF.MD5,be02803cc412601f5b2bd6b436884866*%
M02*
