%TF.GenerationSoftware,Altium Limited,Altium Designer,23.11.1 (41)*%
G04 Layer_Color=0*
%FSLAX45Y45*%
%MOMM*%
%TF.SameCoordinates,D78E9C2B-A710-42EA-B38E-4640A2B68151*%
%TF.FilePolarity,Positive*%
%TF.FileFunction,Plated,1,4,PTH,Drill*%
%TF.Part,Single*%
G01*
G75*
%TA.AperFunction,ComponentDrill*%
%ADD253O,0.60000X1.40000*%
%ADD254C,0.65000*%
%ADD255C,0.90000*%
%ADD256C,0.80000*%
%ADD257C,1.35000*%
%ADD258C,1.10000*%
%ADD259O,0.50000X1.20000*%
%ADD260C,3.70000*%
%ADD261C,3.20000*%
%ADD262O,0.50000X1.30000*%
%ADD263C,0.70000*%
%ADD264C,1.10000*%
%ADD265O,0.80000X2.50000*%
%ADD266O,0.80000X1.50000*%
%ADD267C,0.92000*%
%ADD268C,1.00000*%
%TA.AperFunction,ViaDrill,NotFilled*%
%ADD269C,0.20000*%
D253*
X571380Y182880D02*
D03*
X1271380D02*
D03*
D254*
X698880Y392880D02*
D03*
X1143880D02*
D03*
X7341000Y3882500D02*
D03*
Y3755500D02*
D03*
X7214000D02*
D03*
Y3628500D02*
D03*
Y3882500D02*
D03*
Y4009500D02*
D03*
X7341000Y3628500D02*
D03*
Y4009500D02*
D03*
X7214000Y4136500D02*
D03*
X7341000D02*
D03*
D255*
X1426840Y939800D02*
D03*
X1680840D02*
D03*
X3130000Y300000D02*
D03*
X3930000D02*
D03*
D256*
X240660Y1218540D02*
D03*
Y1018540D02*
D03*
X238120Y1643380D02*
D03*
Y1843380D02*
D03*
X7305000Y2253000D02*
D03*
Y2453000D02*
D03*
D257*
X2023000Y1060000D02*
D03*
X2603000D02*
D03*
Y1760000D02*
D03*
X2023000D02*
D03*
D258*
X6031042Y400676D02*
D03*
Y146676D02*
D03*
D259*
X6271000Y159500D02*
D03*
X7135000Y160000D02*
D03*
Y540000D02*
D03*
X6271000D02*
D03*
D260*
X2637911Y2879662D02*
D03*
Y6239622D02*
D03*
X5997871Y2879662D02*
D03*
D261*
X7184552Y6880000D02*
D03*
Y1080000D02*
D03*
D262*
X1485002Y7025003D02*
D03*
X765002D02*
D03*
D263*
X880002Y6760003D02*
D03*
X1370002D02*
D03*
D264*
X6698000Y7023000D02*
D03*
X6444000D02*
D03*
X6190000D02*
D03*
X5936000D02*
D03*
Y6769000D02*
D03*
X6190000D02*
D03*
X6444000D02*
D03*
X6698000D02*
D03*
X2400080Y7023000D02*
D03*
X2146080D02*
D03*
X1892080D02*
D03*
Y6769000D02*
D03*
X2146080D02*
D03*
X2400080D02*
D03*
D265*
X4351200Y955000D02*
D03*
X5801199D02*
D03*
D266*
Y355000D02*
D03*
X4351200D02*
D03*
D267*
X2313000Y1110000D02*
D03*
Y1310000D02*
D03*
Y1510000D02*
D03*
Y1710000D02*
D03*
D268*
X7208300Y1627000D02*
D03*
Y1881000D02*
D03*
D269*
X3776980Y6718300D02*
D03*
X3238500Y6418580D02*
D03*
X4412300Y5973437D02*
D03*
X4323080Y6040120D02*
D03*
X4048760Y6009640D02*
D03*
X3459480Y7038340D02*
D03*
X3698240Y7033260D02*
D03*
X3604260Y6390640D02*
D03*
X3172460Y7020560D02*
D03*
X2974340Y7030720D02*
D03*
X3281680Y7040880D02*
D03*
X997580Y3385820D02*
D03*
X736600Y3799840D02*
D03*
X365440Y772160D02*
D03*
X557840Y916940D02*
D03*
Y478785D02*
D03*
X97579Y773718D02*
D03*
X6593840Y5854700D02*
D03*
X1064260Y4175760D02*
D03*
X698500Y1653540D02*
D03*
X1359959Y2176460D02*
D03*
X2151949Y6491769D02*
D03*
X2190929Y6523337D02*
D03*
X2272533Y6604942D02*
D03*
X1679783Y6367433D02*
D03*
X1840716Y6365213D02*
D03*
X1593103Y6639213D02*
D03*
X1638823D02*
D03*
X1725183Y6656993D02*
D03*
X1560083Y6898293D02*
D03*
X1712483Y6745893D02*
D03*
X1816137Y6627772D02*
D03*
X1670680Y7104380D02*
D03*
X494660Y4099560D02*
D03*
X3082920Y5267960D02*
D03*
X1200780Y3093720D02*
D03*
X1256660Y3197860D02*
D03*
X700400Y4259580D02*
D03*
X7033783Y662593D02*
D03*
X6932183Y713393D02*
D03*
X6982983D02*
D03*
X6792483Y878493D02*
D03*
X7033783Y713393D02*
D03*
X7070720Y3505200D02*
D03*
X7352660Y3268980D02*
D03*
X6982983Y662593D02*
D03*
X6935836Y662150D02*
D03*
X6792483Y776893D02*
D03*
Y827693D02*
D03*
X590860Y2346960D02*
D03*
X494660Y5577840D02*
D03*
X948479Y1807498D02*
D03*
X951019Y1253778D02*
D03*
X1144059Y623858D02*
D03*
X905299Y654338D02*
D03*
X1101720Y1864360D02*
D03*
X1282060Y1356360D02*
D03*
X1619880Y1219200D02*
D03*
X847720Y1369060D02*
D03*
X941700Y734060D02*
D03*
X1855259Y298738D02*
D03*
X1906059D02*
D03*
X1216020Y2456180D02*
D03*
X3843026Y6588082D02*
D03*
X6605900Y5595620D02*
D03*
X560700Y5730240D02*
D03*
X2770500Y2501900D02*
D03*
X2585080Y3741420D02*
D03*
X2889880Y3792220D02*
D03*
X2836540Y2476500D02*
D03*
X2458080Y4160520D02*
D03*
X2732400Y4147820D02*
D03*
X5076820Y2522220D02*
D03*
X5038720Y2473960D02*
D03*
X4185280Y2141220D02*
D03*
X3991018Y1918450D02*
D03*
X4959980Y5217160D02*
D03*
X4101460Y2103120D02*
D03*
X4896480Y5204460D02*
D03*
X5064120Y2783840D02*
D03*
X4030986Y6278202D02*
D03*
X781680Y5146040D02*
D03*
X771520Y5024120D02*
D03*
X779140Y4884420D02*
D03*
X784220Y4762500D02*
D03*
X1916740Y4650740D02*
D03*
X1853560Y4904740D02*
D03*
X1881500Y4785360D02*
D03*
X1843400Y5011420D02*
D03*
X4797420Y2453640D02*
D03*
X4838060Y2501900D02*
D03*
X4878700Y2458720D02*
D03*
X4919340Y2522220D02*
D03*
X873120Y4368800D02*
D03*
X786760Y4513580D02*
D03*
Y4645660D02*
D03*
X550540Y6611620D02*
D03*
X575940Y6822440D02*
D03*
X553080Y6700520D02*
D03*
X509900Y6824980D02*
D03*
X3677280Y4488180D02*
D03*
X3969380Y5214620D02*
D03*
X3951600Y4958080D02*
D03*
X2094860Y5242560D02*
D03*
X5803372Y2098046D02*
D03*
X2933060Y4978400D02*
D03*
X4774560Y5732780D02*
D03*
X2811140Y2108200D02*
D03*
X5493380Y2110740D02*
D03*
X5860884Y1779236D02*
D03*
X4119082Y1816770D02*
D03*
X6359011Y6649022D02*
D03*
X4986172Y6034282D02*
D03*
X5923267Y2379302D02*
D03*
X4727591Y1958034D02*
D03*
X4807733Y2012428D02*
D03*
X5222891Y1996134D02*
D03*
X5492854Y7010042D02*
D03*
X5692146Y6885262D02*
D03*
X5714212Y6640106D02*
D03*
X5481326Y6676982D02*
D03*
X5299220Y6669799D02*
D03*
X5001266Y6689682D02*
D03*
X5479610Y2244078D02*
D03*
X3051897Y3100029D02*
D03*
X3032120Y2252980D02*
D03*
X3324220Y2621280D02*
D03*
X3084279Y1676492D02*
D03*
X5653400Y1399540D02*
D03*
X5165187Y1564542D02*
D03*
X6246383Y1399193D02*
D03*
Y1449993D02*
D03*
Y1348393D02*
D03*
X5323200Y1503680D02*
D03*
X3527062Y988060D02*
D03*
X5810880Y1986280D02*
D03*
X6247760Y4409440D02*
D03*
X6121318Y3975536D02*
D03*
X5888606Y4449737D02*
D03*
X4535800Y5402580D02*
D03*
Y3614420D02*
D03*
X6354440Y2664460D02*
D03*
X6560180Y3065780D02*
D03*
X5147940Y1435100D02*
D03*
X6100440Y2219960D02*
D03*
X5859140Y6563360D02*
D03*
X4914260Y6294120D02*
D03*
X6090280Y3235960D02*
D03*
X4835337Y3327720D02*
D03*
X1896276Y6630047D02*
D03*
X2025195Y6687488D02*
D03*
X1840716Y6300776D02*
D03*
X1791858Y6312131D02*
D03*
X2329450Y6647960D02*
D03*
X4598791Y6254862D02*
D03*
X2272660Y6677660D02*
D03*
X3745860Y1493520D02*
D03*
X1998340Y3487420D02*
D03*
X1264280Y2877820D02*
D03*
X6478900Y381000D02*
D03*
X6392540Y363220D02*
D03*
X6433180Y386080D02*
D03*
X6448420Y337820D02*
D03*
X5589900Y546100D02*
D03*
X4624700Y1203960D02*
D03*
X3993531Y385774D02*
D03*
X2178680Y1173480D02*
D03*
X7030130Y434435D02*
D03*
X1868800Y2689860D02*
D03*
X2526660Y1953260D02*
D03*
X6565260Y5275580D02*
D03*
Y5224780D02*
D03*
X6726858Y5140981D02*
D03*
X6491600Y4874260D02*
D03*
X6843411Y4711394D02*
D03*
X7131680Y4627880D02*
D03*
X7047860Y4706620D02*
D03*
X6842120Y3124200D02*
D03*
X6654160Y3048000D02*
D03*
X6518291Y2257754D02*
D03*
X4945367Y1565627D02*
D03*
X6809100Y2341880D02*
D03*
X6712580Y2397760D02*
D03*
X1876420Y2458720D02*
D03*
X2026280Y2529840D02*
D03*
X2803520Y1577340D02*
D03*
X2704460Y1557020D02*
D03*
X2437760Y1544320D02*
D03*
X2196460Y1866900D02*
D03*
X2191380Y1978660D02*
D03*
X2773040Y1160780D02*
D03*
X2503800Y1374140D02*
D03*
X1655440Y3436620D02*
D03*
X1871340Y3335020D02*
D03*
X2138942Y3324809D02*
D03*
X2044060Y3192780D02*
D03*
Y3093022D02*
D03*
X1863720Y3042920D02*
D03*
X2219320Y2969260D02*
D03*
X1609720Y2593340D02*
D03*
X1005200Y2943860D02*
D03*
X1020440Y2893060D02*
D03*
X997580Y2994660D02*
D03*
X2046600Y2641600D02*
D03*
X1556380Y2583180D02*
D03*
X1604640Y3248660D02*
D03*
X1706240D02*
D03*
X1868800Y2991422D02*
D03*
Y2841562D02*
D03*
Y2742502D02*
D03*
X1200780Y2790762D02*
D03*
X7098660Y340360D02*
D03*
X5525308Y864490D02*
D03*
X5274940Y828040D02*
D03*
X5147940Y866140D02*
D03*
X5026020Y868680D02*
D03*
X6322322Y4816436D02*
D03*
X5910954Y5117987D02*
D03*
X3646800Y1498600D02*
D03*
X1383660Y5417820D02*
D03*
X919344Y5420636D02*
D03*
X4695250Y6244847D02*
D03*
X4031772Y1693310D02*
D03*
X4082033Y1550348D02*
D03*
X6595213Y5055638D02*
D03*
X3700146Y1653595D02*
D03*
X3506255Y1710981D02*
D03*
X4535666Y6114676D02*
D03*
X6932183Y433993D02*
D03*
X6982983D02*
D03*
X6932183Y383193D02*
D03*
X6982983D02*
D03*
X7033783D02*
D03*
X6551183Y459393D02*
D03*
X6471330Y434435D02*
D03*
X6424183Y433993D02*
D03*
X6690883Y827693D02*
D03*
X6741683Y776893D02*
D03*
Y827693D02*
D03*
Y878493D02*
D03*
X6690883D02*
D03*
X3429719Y1504392D02*
D03*
X3323039D02*
D03*
X2245077Y6891309D02*
D03*
X1463354Y5985265D02*
D03*
X3748597Y1905998D02*
D03*
X4605136Y2522787D02*
D03*
X4553887Y2466183D02*
D03*
X4950447Y2050767D02*
D03*
X5696165Y1886689D02*
D03*
X4953670Y2154224D02*
D03*
X4677911Y2593771D02*
D03*
X4955245Y2204359D02*
D03*
X4739627Y2523291D02*
D03*
X4954006Y2102722D02*
D03*
X4624367Y2453770D02*
D03*
X4661902Y2494663D02*
D03*
X5693738Y2124087D02*
D03*
X6500383Y1373793D02*
D03*
Y1424593D02*
D03*
X6373383Y1373793D02*
D03*
Y1424593D02*
D03*
X6627383Y1348393D02*
D03*
Y1399193D02*
D03*
Y1449993D02*
D03*
Y1500793D02*
D03*
X6246383D02*
D03*
X6183187Y1216570D02*
D03*
X6439843D02*
D03*
X6313735D02*
D03*
X2510239Y4934992D02*
D03*
X3969256Y1566451D02*
D03*
X3869139Y1551712D02*
D03*
X3208739Y1504392D02*
D03*
X4626731Y6414882D02*
D03*
X1240911Y5706222D02*
D03*
X2549520Y4262120D02*
D03*
X5842484Y3318645D02*
D03*
X6174084Y4213935D02*
D03*
X5853551Y4220322D02*
D03*
X5903763Y3490617D02*
D03*
X5559522Y4290458D02*
D03*
X5611577Y4407757D02*
D03*
X5332180Y4318111D02*
D03*
X4765094Y843306D02*
D03*
X4676791Y776934D02*
D03*
X3565896Y6081900D02*
D03*
X1193335Y6632750D02*
D03*
X1117135D02*
D03*
X4743667Y2035627D02*
D03*
X5228714Y3306097D02*
D03*
X4130600Y6368200D02*
D03*
X4066866Y6409754D02*
D03*
X4009588Y6428134D02*
D03*
X3541691Y6316282D02*
D03*
X5900716Y4221939D02*
D03*
X5161286Y3898222D02*
D03*
X5250186Y3982042D02*
D03*
X5221703Y4216694D02*
D03*
X5662220Y4399700D02*
D03*
X4737728Y3686596D02*
D03*
Y3736756D02*
D03*
X4732007Y3824560D02*
D03*
X4892824Y3779616D02*
D03*
X5459572Y3946482D02*
D03*
X5875007Y3363947D02*
D03*
X6004458Y3272206D02*
D03*
X5470357Y3299790D02*
D03*
X5344984Y3163661D02*
D03*
X5182991Y5683362D02*
D03*
X5122031Y5685902D02*
D03*
X5246491D02*
D03*
X2911685Y3573666D02*
D03*
X2860885D02*
D03*
X6574893Y5324878D02*
D03*
X1651334Y3696147D02*
D03*
X1809958Y5077534D02*
D03*
X3564503Y2587562D02*
D03*
X6825528Y5068292D02*
D03*
X6876328D02*
D03*
X4239808Y5613900D02*
D03*
X6881992Y6628857D02*
D03*
X5934096Y1433116D02*
D03*
Y1483300D02*
D03*
X5786000D02*
D03*
X5887600Y1381700D02*
D03*
Y1432500D02*
D03*
X5836800Y1381700D02*
D03*
X5252093Y1189660D02*
D03*
X3565011Y3041132D02*
D03*
X2365016Y2551147D02*
D03*
X6355971Y5924662D02*
D03*
X6574411Y5475082D02*
D03*
X6353431Y5630022D02*
D03*
Y5777342D02*
D03*
X6350891Y6226922D02*
D03*
Y6077062D02*
D03*
X5013646Y6747429D02*
D03*
X4993970Y6619997D02*
D03*
X4939388Y6784758D02*
D03*
X5296111Y6614326D02*
D03*
X4170097Y3109661D02*
D03*
X5786000Y1381700D02*
D03*
X3801231Y2604882D02*
D03*
X4993151Y2618482D02*
D03*
X4758811Y2612502D02*
D03*
X6572371Y3491342D02*
D03*
Y3648822D02*
D03*
X6620631Y3798682D02*
D03*
X6572371Y3946002D02*
D03*
Y4098158D02*
D03*
X6621349Y4100942D02*
D03*
Y4240251D02*
D03*
X6319507Y3378014D02*
D03*
X5062226Y4766902D02*
D03*
X3920611Y3064622D02*
D03*
X4033846Y3204494D02*
D03*
X4897107Y3583260D02*
D03*
X6586847Y3997760D02*
D03*
Y4047920D02*
D03*
X1871340Y3817620D02*
D03*
X5162671Y2960942D02*
D03*
X4997740Y3043040D02*
D03*
X4877235Y3043779D02*
D03*
X3793611Y3036748D02*
D03*
X4519354Y2592060D02*
D03*
X5505386Y1554445D02*
D03*
X621151Y7098922D02*
D03*
X3363088Y3048822D02*
D03*
X4810687Y2874630D02*
D03*
X4980262Y2840535D02*
D03*
X4921842Y2860855D02*
D03*
X6174083Y3893981D02*
D03*
X4075645Y2389902D02*
D03*
X6174083Y4051998D02*
D03*
X3430862Y1025383D02*
D03*
X6174083Y3843821D02*
D03*
X3314234Y1905847D02*
D03*
X6174083Y3567291D02*
D03*
X3079268Y3148091D02*
D03*
X2992107Y3224247D02*
D03*
X4180482Y2433241D02*
D03*
X4038480Y2242760D02*
D03*
X4394657Y2361743D02*
D03*
X5046893Y2831410D02*
D03*
X6174084Y4163776D02*
D03*
X6174083Y4001838D02*
D03*
X5110486Y3209882D02*
D03*
X6174083Y3517131D02*
D03*
Y3683265D02*
D03*
Y3733425D02*
D03*
X5255574Y6269682D02*
D03*
X4687207Y6053137D02*
D03*
X6384411Y2739962D02*
D03*
X1921763Y548075D02*
D03*
X4276720Y2588260D02*
D03*
X511931Y7101142D02*
D03*
X956317Y6477942D02*
D03*
X4290066Y3209882D02*
D03*
X5627962Y2701783D02*
D03*
X7084431Y3072515D02*
D03*
X6400787Y2466685D02*
D03*
X5635334Y2518713D02*
D03*
X7283773Y2973542D02*
D03*
X6842766Y2783162D02*
D03*
X5719920Y2634156D02*
D03*
X5692740Y2683909D02*
D03*
X5721942Y2582403D02*
D03*
X5694002Y2536683D02*
D03*
X5239234Y2414822D02*
D03*
X6420442Y2181083D02*
D03*
X4777056Y3122555D02*
D03*
X4406906Y3143842D02*
D03*
X4170097Y3527536D02*
D03*
X4047226Y3850242D02*
D03*
Y4006913D02*
D03*
X4046226Y3529922D02*
D03*
X4047226Y4054722D02*
D03*
Y3799442D02*
D03*
Y3901042D02*
D03*
Y4104242D02*
D03*
X3677280Y3058160D02*
D03*
X3207377Y3103753D02*
D03*
X4735256Y6384752D02*
D03*
X4726728Y6094752D02*
D03*
X4845642Y6372083D02*
D03*
X4673211Y6308872D02*
D03*
X4683801Y6383101D02*
D03*
X4619582Y6339063D02*
D03*
X4568908Y6362049D02*
D03*
X4414185Y6383534D02*
D03*
X4364026Y6383326D02*
D03*
X4623191Y7045728D02*
D03*
X5166366Y6113102D02*
D03*
X4171968Y6593707D02*
D03*
X5201926Y6269682D02*
D03*
X4934599Y5910714D02*
D03*
X4647207Y6013137D02*
D03*
X5005018Y6932174D02*
D03*
X5001953Y7026613D02*
D03*
X4817796Y6693320D02*
D03*
X4813181Y7024144D02*
D03*
X5219733Y6113102D02*
D03*
X5483847Y6112227D02*
D03*
X6409628Y6302300D02*
D03*
X4645344Y5961548D02*
D03*
X5191456Y6943206D02*
D03*
X4254577Y6374783D02*
D03*
X4058926Y6572842D02*
D03*
X4625146Y6847482D02*
D03*
X4307846Y6371862D02*
D03*
X4438419Y7048437D02*
D03*
X4432859Y6851434D02*
D03*
X6359321Y3072147D02*
D03*
X5388177Y6067097D02*
D03*
X5666446Y6099179D02*
D03*
X5649448Y6151814D02*
D03*
X3496413Y1997478D02*
D03*
X4622806Y7103702D02*
D03*
X5392047Y4663141D02*
D03*
X4849778Y4120872D02*
D03*
X4803531Y3606539D02*
D03*
Y3656699D02*
D03*
X6292633Y3431058D02*
D03*
X6175145Y3792394D02*
D03*
X880213Y6478038D02*
D03*
X816713D02*
D03*
X791313Y6376438D02*
D03*
X5269880Y6350322D02*
D03*
X5158120D02*
D03*
X5154718Y6269682D02*
D03*
X5214000Y6350322D02*
D03*
X5438856Y6016013D02*
D03*
X5389947Y6018211D02*
D03*
X5484511Y6016954D02*
D03*
X5298446Y7116402D02*
D03*
X4549791Y510234D02*
D03*
X4651391Y586434D02*
D03*
X4600591Y573734D02*
D03*
X4549791D02*
D03*
X4676791Y624534D02*
D03*
Y675334D02*
D03*
Y726134D02*
D03*
X4625991Y827734D02*
D03*
X4575191D02*
D03*
X4524391D02*
D03*
X6602111Y2135834D02*
D03*
X6652911D02*
D03*
X6706251D02*
D03*
X6602111Y2184094D02*
D03*
X6652911D02*
D03*
X6706251D02*
D03*
Y2229814D02*
D03*
X6652911D02*
D03*
X6602111D02*
D03*
X5721213Y6441659D02*
D03*
X5278771Y6819594D02*
D03*
X2483480Y502920D02*
D03*
X2991480Y822960D02*
D03*
X4283091Y1792934D02*
D03*
Y1843734D02*
D03*
X6217749Y5112310D02*
D03*
X6124591Y5107634D02*
D03*
X5945885Y5557562D02*
D03*
X5316226Y6278663D02*
D03*
X4804214Y1568354D02*
D03*
X4851280Y1800800D02*
D03*
X1865011Y815034D02*
D03*
Y766774D02*
D03*
X1889120Y515620D02*
D03*
X5590546Y5297762D02*
D03*
X5618486Y5056638D02*
D03*
X5163826Y6062302D02*
D03*
X4325626Y2239602D02*
D03*
X6065609Y6856447D02*
D03*
X7074329Y3427200D02*
D03*
X4544546Y6055151D02*
D03*
X5786000Y1432500D02*
D03*
X5836800D02*
D03*
X5887600Y1483300D02*
D03*
X5836800D02*
D03*
X6657169Y456657D02*
D03*
X6748711D02*
D03*
X4829478Y2084587D02*
D03*
X5519407Y2790780D02*
D03*
Y2739980D02*
D03*
Y2894947D02*
D03*
Y2843247D02*
D03*
X5516867Y2999060D02*
D03*
Y2948260D02*
D03*
X5514327Y3100980D02*
D03*
X5515229Y3050828D02*
D03*
X6198295Y5388285D02*
D03*
X4811388Y3896699D02*
D03*
Y3846539D02*
D03*
X6586847Y3595800D02*
D03*
X6560807Y2980407D02*
D03*
X3099806Y3291442D02*
D03*
X4669526Y6720442D02*
D03*
X5690204Y6709621D02*
D03*
X5797286Y1825862D02*
D03*
X5175936Y2016082D02*
D03*
X3410580Y4178300D02*
D03*
X3223557Y3573666D02*
D03*
X3329300Y5425440D02*
D03*
X2901686Y4713842D02*
D03*
X3193786Y6042262D02*
D03*
X2514606Y5884502D02*
D03*
X2520956Y5833702D02*
D03*
X2580646D02*
D03*
X3393822Y3194642D02*
D03*
X6569924Y5132769D02*
D03*
X5461006Y5122502D02*
D03*
X6789407Y2830547D02*
D03*
X5483847Y6066323D02*
D03*
X5437086Y6113343D02*
D03*
Y6064899D02*
D03*
X5388177Y6113001D02*
D03*
X5494109Y6894547D02*
D03*
X6285913Y3326355D02*
D03*
X7414880Y3132511D02*
D03*
X5801366Y7027502D02*
D03*
X5808543Y6901207D02*
D03*
X5679229Y7119004D02*
D03*
X5470375Y6823698D02*
D03*
X5128071Y6979008D02*
D03*
X5939170Y5628742D02*
D03*
X5557526Y4998042D02*
D03*
X7183126Y4576402D02*
D03*
X6794506Y4662762D02*
D03*
X6134106Y4713562D02*
D03*
X5671072Y4668595D02*
D03*
X6134106Y4647522D02*
D03*
X5317226Y6047342D02*
D03*
X4800606Y6923362D02*
D03*
X4610106Y6725242D02*
D03*
X4295146Y6280742D02*
D03*
X4932686Y4832942D02*
D03*
X6175145Y3631838D02*
D03*
Y3465704D02*
D03*
X5649966Y3969622D02*
D03*
X5611866Y3928982D02*
D03*
X5573766Y3893422D02*
D03*
X5616946Y3677522D02*
D03*
X5550906Y3674982D02*
D03*
X5275586Y3761062D02*
D03*
X5222246Y3712802D02*
D03*
X7411726Y3303862D02*
D03*
X6283966Y3222582D02*
D03*
X5755646Y3367362D02*
D03*
X5567725Y3106067D02*
D03*
X5571989Y2843247D02*
D03*
Y2893723D02*
D03*
Y2790456D02*
D03*
X5569449Y2998736D02*
D03*
Y2948260D02*
D03*
X5571989Y2739980D02*
D03*
X5567725Y3055591D02*
D03*
X5470280Y3026558D02*
D03*
X5468626Y2922862D02*
D03*
X5463546Y2816182D02*
D03*
X4655826Y3136222D02*
D03*
X4528826Y3138762D02*
D03*
X4287526Y3697562D02*
D03*
X3924306Y3514682D02*
D03*
X4909826Y1797642D02*
D03*
X2590806Y6974162D02*
D03*
Y7024962D02*
D03*
Y7075762D02*
D03*
X2913380Y6728460D02*
D03*
X3087106Y5994002D02*
D03*
X3683006Y3766142D02*
D03*
Y3654382D02*
D03*
Y3524842D02*
D03*
X749306Y5721942D02*
D03*
X840746Y5711782D02*
D03*
X812806Y5655902D02*
D03*
X2369854Y2655692D02*
D03*
X2369807Y2601947D02*
D03*
X2410447Y2551147D02*
D03*
X2471407Y2500347D02*
D03*
X2458707Y2551147D02*
D03*
X2471407Y2449547D02*
D03*
X5239492Y2302742D02*
D03*
X5192229Y2198568D02*
D03*
X4897126Y1975442D02*
D03*
X5210049Y2142728D02*
D03*
X5809540Y4394620D02*
D03*
X7234480Y3462440D02*
D03*
X4811388Y4059106D02*
D03*
Y4008946D02*
D03*
X4737728Y3977903D02*
D03*
Y3927743D02*
D03*
X7413960Y4267620D02*
D03*
X5869633Y4395632D02*
D03*
X5671977Y6451242D02*
D03*
X6200861Y5462762D02*
D03*
X5495696Y7118910D02*
D03*
X5489965Y6954684D02*
D03*
X4811180Y6855854D02*
D03*
X5804587Y7080731D02*
D03*
X5235056Y6848990D02*
D03*
X5486406Y6743022D02*
D03*
X5488946Y6621102D02*
D03*
X5742947Y6831047D02*
D03*
X6058194Y3964826D02*
D03*
X5784401Y3319290D02*
D03*
X6586847Y4197780D02*
D03*
Y4147620D02*
D03*
Y3895520D02*
D03*
Y3845360D02*
D03*
Y3748200D02*
D03*
Y3698040D02*
D03*
Y3545640D02*
D03*
X4738532Y3622540D02*
D03*
X4677572Y3665720D02*
D03*
X4696447Y3865200D02*
D03*
X4748692Y3868920D02*
D03*
X4672492Y3909560D02*
D03*
X4675032Y3970520D02*
D03*
X4746152Y4039100D02*
D03*
X2708606Y3226802D02*
D03*
X2559680Y3352800D02*
D03*
%TF.MD5,6e9e921111cea314f63f2a49464848a0*%
M02*
