%TF.GenerationSoftware,Altium Limited,Altium Designer,23.11.1 (41)*%
G04 Layer_Color=8388736*
%FSLAX45Y45*%
%MOMM*%
%TF.SameCoordinates,D78E9C2B-A710-42EA-B38E-4640A2B68151*%
%TF.FilePolarity,Positive*%
%TF.FileFunction,Other,Top_Assembly*%
%TF.Part,Single*%
G01*
G75*
%TA.AperFunction,NonConductor*%
%ADD139C,0.20000*%
G36*
X588172Y809818D02*
X588079D01*
X587709D01*
X587155D01*
X586415Y809910D01*
X585583Y810003D01*
X584658Y810188D01*
X583734Y810373D01*
X582717Y810743D01*
X582624D01*
X582532Y810835D01*
X581977Y811020D01*
X581145Y811390D01*
X580035Y811945D01*
X578741Y812684D01*
X577262Y813609D01*
X575782Y814626D01*
X574211Y815920D01*
X574118D01*
X574026Y816105D01*
X573471Y816567D01*
X572639Y817399D01*
X571437Y818601D01*
X570050Y819988D01*
X568386Y821745D01*
X566537Y823871D01*
X564595Y826183D01*
X564503Y826275D01*
X564225Y826645D01*
X563763Y827200D01*
X563208Y827847D01*
X562469Y828679D01*
X561637Y829696D01*
X560712Y830713D01*
X559695Y831915D01*
X557476Y834226D01*
X555257Y836538D01*
X554148Y837647D01*
X553038Y838664D01*
X552021Y839589D01*
X551004Y840329D01*
X550912D01*
X550819Y840513D01*
X550542Y840698D01*
X550172Y840883D01*
X549155Y841530D01*
X547953Y842270D01*
X546474Y842917D01*
X544902Y843564D01*
X543145Y843934D01*
X541481Y844119D01*
X541389D01*
X541296D01*
X540742Y844027D01*
X539817Y843934D01*
X538800Y843657D01*
X537506Y843287D01*
X536211Y842640D01*
X534917Y841808D01*
X533623Y840698D01*
X533438Y840513D01*
X533068Y840051D01*
X532605Y839404D01*
X531958Y838387D01*
X531404Y837093D01*
X530849Y835613D01*
X530479Y833857D01*
X530387Y831915D01*
Y831360D01*
X530479Y830990D01*
X530571Y829881D01*
X530849Y828587D01*
X531219Y827200D01*
X531866Y825628D01*
X532698Y824149D01*
X533807Y822762D01*
X533992Y822577D01*
X534455Y822207D01*
X535194Y821652D01*
X536304Y821098D01*
X537598Y820450D01*
X539262Y819896D01*
X541111Y819526D01*
X543238Y819341D01*
X542406Y811297D01*
X542313D01*
X542036Y811390D01*
X541574D01*
X540927Y811482D01*
X540187Y811667D01*
X539355Y811852D01*
X538338Y812129D01*
X537321Y812407D01*
X535102Y813146D01*
X532883Y814256D01*
X531773Y814903D01*
X530664Y815735D01*
X529647Y816567D01*
X528722Y817492D01*
X528630Y817584D01*
X528537Y817769D01*
X528260Y818047D01*
X527983Y818509D01*
X527613Y819064D01*
X527243Y819711D01*
X526781Y820450D01*
X526318Y821375D01*
X525856Y822392D01*
X525394Y823502D01*
X525024Y824703D01*
X524654Y825998D01*
X524377Y827385D01*
X524100Y828864D01*
X524007Y830436D01*
X523915Y832100D01*
Y833024D01*
X524007Y833672D01*
X524100Y834411D01*
X524192Y835336D01*
X524377Y836353D01*
X524562Y837370D01*
X525209Y839774D01*
X526134Y842178D01*
X526688Y843380D01*
X527335Y844581D01*
X528168Y845691D01*
X529092Y846708D01*
X529185Y846800D01*
X529277Y846985D01*
X529647Y847170D01*
X530017Y847540D01*
X530479Y848002D01*
X531126Y848465D01*
X531773Y848927D01*
X532605Y849482D01*
X534362Y850406D01*
X536581Y851331D01*
X537691Y851701D01*
X538985Y851886D01*
X540279Y852070D01*
X541666Y852163D01*
X541851D01*
X542313D01*
X543053Y852070D01*
X544070Y851978D01*
X545180Y851793D01*
X546474Y851423D01*
X547861Y851053D01*
X549248Y850499D01*
X549432Y850406D01*
X549895Y850221D01*
X550634Y849851D01*
X551651Y849297D01*
X552761Y848557D01*
X554148Y847633D01*
X555535Y846523D01*
X557106Y845229D01*
X557291Y845044D01*
X557846Y844581D01*
X558308Y844119D01*
X558771Y843657D01*
X559325Y843102D01*
X560065Y842363D01*
X560805Y841623D01*
X561637Y840698D01*
X562561Y839774D01*
X563578Y838664D01*
X564595Y837462D01*
X565797Y836168D01*
X566999Y834689D01*
X568294Y833209D01*
X568386Y833117D01*
X568571Y832932D01*
X568848Y832562D01*
X569218Y832100D01*
X569773Y831545D01*
X570328Y830898D01*
X571529Y829419D01*
X572916Y827847D01*
X574303Y826368D01*
X575505Y825073D01*
X575967Y824519D01*
X576430Y824056D01*
X576522Y823964D01*
X576799Y823686D01*
X577169Y823317D01*
X577724Y822854D01*
X578371Y822392D01*
X579018Y821837D01*
X580590Y820728D01*
Y852255D01*
X588172D01*
Y809818D01*
D02*
G37*
G36*
X559510Y802884D02*
X560620D01*
X561822Y802791D01*
X563116Y802699D01*
X566075Y802422D01*
X569126Y801959D01*
X572084Y801405D01*
X573471Y801035D01*
X574858Y800572D01*
X574950D01*
X575135Y800480D01*
X575505Y800295D01*
X575967Y800110D01*
X576615Y799925D01*
X577262Y799555D01*
X578833Y798816D01*
X580498Y797891D01*
X582347Y796689D01*
X584011Y795302D01*
X585583Y793638D01*
Y793546D01*
X585768Y793453D01*
X585953Y793176D01*
X586138Y792806D01*
X586415Y792344D01*
X586785Y791882D01*
X587432Y790495D01*
X588079Y788831D01*
X588726Y786889D01*
X589096Y784578D01*
X589281Y782081D01*
Y781157D01*
X589189Y780509D01*
X589096Y779770D01*
X588911Y778845D01*
X588726Y777828D01*
X588449Y776719D01*
X588079Y775609D01*
X587709Y774407D01*
X587155Y773205D01*
X586507Y772004D01*
X585768Y770802D01*
X584843Y769600D01*
X583826Y768490D01*
X582717Y767473D01*
X582624Y767381D01*
X582347Y767196D01*
X581885Y766918D01*
X581145Y766456D01*
X580313Y765994D01*
X579203Y765532D01*
X577909Y764884D01*
X576430Y764330D01*
X574765Y763775D01*
X572824Y763220D01*
X570697Y762665D01*
X568294Y762203D01*
X565705Y761741D01*
X562931Y761464D01*
X559880Y761279D01*
X556644Y761186D01*
X556552D01*
X556182D01*
X555535D01*
X554795D01*
X553778Y761279D01*
X552668D01*
X551467Y761371D01*
X550080Y761464D01*
X547214Y761741D01*
X544162Y762203D01*
X541111Y762758D01*
X539725Y763128D01*
X538338Y763498D01*
X538245D01*
X538060Y763590D01*
X537691Y763775D01*
X537228Y763960D01*
X536581Y764145D01*
X535934Y764515D01*
X534362Y765254D01*
X532698Y766179D01*
X530941Y767381D01*
X529185Y768768D01*
X527705Y770432D01*
Y770524D01*
X527520Y770617D01*
X527335Y770894D01*
X527151Y771264D01*
X526781Y771726D01*
X526503Y772281D01*
X525764Y773668D01*
X525117Y775332D01*
X524469Y777274D01*
X524100Y779585D01*
X523915Y782081D01*
Y782913D01*
X524007Y783930D01*
X524192Y785132D01*
X524469Y786519D01*
X524839Y787998D01*
X525301Y789570D01*
X526041Y791049D01*
Y791142D01*
X526134Y791234D01*
X526411Y791697D01*
X526873Y792436D01*
X527520Y793361D01*
X528445Y794378D01*
X529462Y795487D01*
X530664Y796504D01*
X532051Y797521D01*
X532236Y797614D01*
X532698Y797984D01*
X533530Y798353D01*
X534732Y799001D01*
X536119Y799555D01*
X537691Y800295D01*
X539540Y800942D01*
X541574Y801497D01*
X541666D01*
X541851Y801589D01*
X542128Y801682D01*
X542591Y801774D01*
X543145Y801867D01*
X543793Y801959D01*
X544625Y802144D01*
X545549Y802237D01*
X546566Y802422D01*
X547676Y802514D01*
X548970Y802606D01*
X550265Y802791D01*
X551744Y802884D01*
X553223D01*
X554887Y802976D01*
X556644D01*
X556737D01*
X557106D01*
X557754D01*
X558493D01*
X559510Y802884D01*
D02*
G37*
G36*
X571345Y753420D02*
X571992Y753327D01*
X572824Y753235D01*
X573748Y753050D01*
X574765Y752773D01*
X576892Y752125D01*
X578094Y751663D01*
X579203Y751016D01*
X580405Y750369D01*
X581515Y749629D01*
X582624Y748705D01*
X583734Y747688D01*
X583826Y747595D01*
X584011Y747410D01*
X584288Y747133D01*
X584566Y746671D01*
X585028Y746023D01*
X585490Y745376D01*
X585953Y744544D01*
X586507Y743620D01*
X587062Y742603D01*
X587524Y741401D01*
X587987Y740106D01*
X588449Y738812D01*
X588726Y737333D01*
X589004Y735761D01*
X589189Y734189D01*
X589281Y732432D01*
Y731508D01*
X589189Y730861D01*
X589096Y730029D01*
X589004Y729104D01*
X588819Y728087D01*
X588541Y726977D01*
X587894Y724481D01*
X587432Y723187D01*
X586970Y721985D01*
X586322Y720690D01*
X585583Y719396D01*
X584751Y718194D01*
X583734Y717085D01*
X583641Y716992D01*
X583456Y716807D01*
X583179Y716530D01*
X582717Y716160D01*
X582162Y715790D01*
X581515Y715236D01*
X580775Y714773D01*
X579851Y714219D01*
X578926Y713664D01*
X577816Y713202D01*
X575505Y712277D01*
X574118Y711907D01*
X572731Y711630D01*
X571252Y711445D01*
X569773Y711352D01*
X569680D01*
X569495D01*
X569126D01*
X568756Y711445D01*
X568201D01*
X567554Y711537D01*
X566075Y711722D01*
X564410Y712092D01*
X562746Y712647D01*
X560989Y713479D01*
X559325Y714496D01*
X559233D01*
X559140Y714681D01*
X558678Y715051D01*
X557938Y715790D01*
X557014Y716807D01*
X556089Y718102D01*
X555072Y719673D01*
X554240Y721430D01*
X553593Y723557D01*
Y723464D01*
X553501Y723372D01*
X553408Y723094D01*
X553223Y722724D01*
X552853Y721892D01*
X552299Y720783D01*
X551559Y719581D01*
X550634Y718379D01*
X549617Y717270D01*
X548508Y716253D01*
X548323Y716160D01*
X547953Y715883D01*
X547214Y715513D01*
X546289Y715143D01*
X545087Y714681D01*
X543700Y714311D01*
X542128Y714034D01*
X540464Y713941D01*
X540372D01*
X540187D01*
X539817D01*
X539262Y714034D01*
X538708Y714126D01*
X537968Y714219D01*
X536396Y714588D01*
X534547Y715143D01*
X532605Y716068D01*
X531588Y716622D01*
X530571Y717270D01*
X529647Y718102D01*
X528722Y718934D01*
X528630Y719026D01*
X528537Y719211D01*
X528260Y719489D01*
X527983Y719858D01*
X527613Y720321D01*
X527243Y720968D01*
X526781Y721707D01*
X526318Y722447D01*
X525856Y723372D01*
X525394Y724389D01*
X525024Y725498D01*
X524654Y726700D01*
X524100Y729289D01*
X524007Y730768D01*
X523915Y732247D01*
Y733080D01*
X524007Y733634D01*
X524100Y734374D01*
X524192Y735206D01*
X524284Y736131D01*
X524562Y737055D01*
X525117Y739274D01*
X525949Y741493D01*
X526503Y742603D01*
X527151Y743712D01*
X527983Y744729D01*
X528815Y745746D01*
X528907Y745838D01*
X529000Y745931D01*
X529277Y746208D01*
X529647Y746578D01*
X530202Y746948D01*
X530756Y747410D01*
X532143Y748335D01*
X533900Y749259D01*
X535934Y750091D01*
X538245Y750739D01*
X539447Y750831D01*
X540742Y750924D01*
X540834D01*
X540927D01*
X541481D01*
X542313Y750831D01*
X543330Y750646D01*
X544625Y750369D01*
X545919Y749907D01*
X547214Y749352D01*
X548508Y748520D01*
X548693Y748427D01*
X549063Y748057D01*
X549617Y747503D01*
X550357Y746763D01*
X551189Y745746D01*
X552021Y744544D01*
X552853Y743157D01*
X553593Y741493D01*
Y741586D01*
X553685Y741770D01*
X553778Y742048D01*
X553963Y742418D01*
X554425Y743527D01*
X555072Y744821D01*
X555997Y746208D01*
X557014Y747688D01*
X558308Y749074D01*
X559788Y750369D01*
X559880D01*
X559972Y750461D01*
X560527Y750831D01*
X561452Y751386D01*
X562654Y751941D01*
X564133Y752495D01*
X565890Y753050D01*
X567831Y753420D01*
X569958Y753512D01*
X570050D01*
X570328D01*
X570790D01*
X571345Y753420D01*
D02*
G37*
G36*
X588172Y695912D02*
X574858Y687499D01*
X574765D01*
X574581Y687314D01*
X574303Y687129D01*
X573933Y686852D01*
X572916Y686204D01*
X571622Y685372D01*
X570235Y684355D01*
X568756Y683338D01*
X567369Y682321D01*
X566075Y681397D01*
X565982Y681304D01*
X565612Y681027D01*
X565058Y680565D01*
X564410Y679917D01*
X563024Y678531D01*
X562376Y677791D01*
X561822Y677051D01*
X561729Y676959D01*
X561637Y676774D01*
X561452Y676404D01*
X561174Y675849D01*
X560897Y675295D01*
X560620Y674647D01*
X560157Y673168D01*
Y673076D01*
X560065Y672891D01*
Y672521D01*
X559972Y672059D01*
X559880Y671411D01*
Y670672D01*
X559788Y669655D01*
Y658745D01*
X588172D01*
Y650239D01*
X524192D01*
Y679917D01*
X524284Y680657D01*
Y681489D01*
X524377Y683431D01*
X524654Y685465D01*
X524932Y687684D01*
X525394Y689718D01*
X525671Y690735D01*
X525949Y691567D01*
Y691659D01*
X526041Y691752D01*
X526318Y692306D01*
X526688Y693139D01*
X527335Y694156D01*
X528168Y695265D01*
X529277Y696467D01*
X530571Y697576D01*
X532051Y698686D01*
X532143D01*
X532236Y698778D01*
X532790Y699148D01*
X533715Y699518D01*
X534917Y700073D01*
X536304Y700535D01*
X537968Y700997D01*
X539725Y701275D01*
X541666Y701367D01*
X541759D01*
X541944D01*
X542313D01*
X542776Y701275D01*
X543423D01*
X544070Y701182D01*
X545642Y700812D01*
X547491Y700258D01*
X549432Y699518D01*
X551374Y698409D01*
X552299Y697669D01*
X553223Y696929D01*
X553316Y696837D01*
X553408Y696744D01*
X553685Y696467D01*
X553963Y696097D01*
X554333Y695635D01*
X554702Y695080D01*
X555165Y694340D01*
X555719Y693601D01*
X556182Y692676D01*
X556644Y691659D01*
X557199Y690550D01*
X557661Y689348D01*
X558031Y687961D01*
X558493Y686574D01*
X558771Y685002D01*
X559048Y683338D01*
X559140Y683523D01*
X559325Y683893D01*
X559695Y684448D01*
X560065Y685187D01*
X561082Y686852D01*
X561729Y687684D01*
X562284Y688423D01*
X562469Y688608D01*
X562931Y689071D01*
X563671Y689810D01*
X564595Y690735D01*
X565890Y691752D01*
X567276Y692954D01*
X568941Y694156D01*
X570790Y695450D01*
X588172Y706452D01*
Y695912D01*
D02*
G37*
G36*
X2719396Y4227022D02*
X2720136Y4226929D01*
X2720968Y4226837D01*
X2721985Y4226652D01*
X2723002Y4226467D01*
X2725406Y4225912D01*
X2727902Y4224988D01*
X2729196Y4224433D01*
X2730398Y4223693D01*
X2731693Y4222954D01*
X2732895Y4222029D01*
X2732987Y4221937D01*
X2733265Y4221752D01*
X2733634Y4221382D01*
X2734097Y4220920D01*
X2734651Y4220272D01*
X2735391Y4219533D01*
X2736038Y4218608D01*
X2736778Y4217591D01*
X2737518Y4216482D01*
X2738165Y4215187D01*
X2738812Y4213801D01*
X2739459Y4212321D01*
X2739921Y4210750D01*
X2740291Y4208993D01*
X2740569Y4207144D01*
X2740661Y4205202D01*
Y4204370D01*
X2740569Y4203723D01*
X2740476Y4202983D01*
X2740384Y4202151D01*
X2740291Y4201134D01*
X2740014Y4200117D01*
X2739459Y4197806D01*
X2738627Y4195494D01*
X2738072Y4194292D01*
X2737425Y4193090D01*
X2736685Y4191981D01*
X2735853Y4190871D01*
X2735761Y4190779D01*
X2735668Y4190594D01*
X2735299Y4190409D01*
X2734929Y4190039D01*
X2734466Y4189577D01*
X2733912Y4189115D01*
X2733172Y4188560D01*
X2732340Y4188098D01*
X2731508Y4187543D01*
X2730491Y4186988D01*
X2728272Y4185971D01*
X2725683Y4185139D01*
X2724296Y4184862D01*
X2722817Y4184677D01*
X2722170Y4192906D01*
X2722262D01*
X2722447D01*
X2722725Y4192998D01*
X2723187Y4193090D01*
X2724204Y4193368D01*
X2725591Y4193738D01*
X2726978Y4194292D01*
X2728549Y4195032D01*
X2729936Y4195957D01*
X2731231Y4197066D01*
X2731323Y4197251D01*
X2731693Y4197621D01*
X2732155Y4198360D01*
X2732710Y4199377D01*
X2733265Y4200487D01*
X2733727Y4201874D01*
X2734097Y4203445D01*
X2734189Y4205202D01*
Y4205757D01*
X2734097Y4206127D01*
X2734004Y4207236D01*
X2733634Y4208531D01*
X2733172Y4210102D01*
X2732432Y4211674D01*
X2731323Y4213338D01*
X2730676Y4214078D01*
X2729936Y4214818D01*
X2729844Y4214910D01*
X2729751Y4215002D01*
X2729474Y4215187D01*
X2729196Y4215465D01*
X2728179Y4216112D01*
X2726885Y4216852D01*
X2725313Y4217499D01*
X2723372Y4218146D01*
X2721060Y4218608D01*
X2719858Y4218793D01*
X2718564D01*
X2718472D01*
X2718287D01*
X2717917D01*
X2717455Y4218701D01*
X2716900D01*
X2716253Y4218608D01*
X2714773Y4218331D01*
X2713017Y4217869D01*
X2711260Y4217221D01*
X2709596Y4216297D01*
X2708024Y4215002D01*
X2707932D01*
X2707839Y4214818D01*
X2707377Y4214355D01*
X2706730Y4213523D01*
X2705990Y4212414D01*
X2705343Y4210934D01*
X2704696Y4209270D01*
X2704233Y4207329D01*
X2704048Y4206219D01*
Y4204463D01*
X2704141Y4203723D01*
X2704233Y4202798D01*
X2704511Y4201689D01*
X2704788Y4200579D01*
X2705250Y4199377D01*
X2705805Y4198175D01*
X2705898Y4198083D01*
X2706082Y4197713D01*
X2706545Y4197158D01*
X2707007Y4196419D01*
X2707654Y4195679D01*
X2708486Y4194940D01*
X2709318Y4194107D01*
X2710335Y4193460D01*
X2709318Y4186064D01*
X2676404Y4192258D01*
Y4224063D01*
X2683893D01*
Y4198453D01*
X2701182Y4195032D01*
X2701090Y4195124D01*
X2700997Y4195309D01*
X2700812Y4195587D01*
X2700535Y4196049D01*
X2700258Y4196604D01*
X2699888Y4197251D01*
X2699148Y4198730D01*
X2698409Y4200579D01*
X2697761Y4202613D01*
X2697299Y4204832D01*
X2697114Y4205942D01*
Y4207976D01*
X2697207Y4208531D01*
X2697299Y4209270D01*
X2697392Y4210102D01*
X2697577Y4211027D01*
X2697854Y4212044D01*
X2698501Y4214263D01*
X2698963Y4215465D01*
X2699611Y4216667D01*
X2700258Y4217869D01*
X2700997Y4219071D01*
X2701922Y4220180D01*
X2702939Y4221290D01*
X2703031Y4221382D01*
X2703216Y4221567D01*
X2703494Y4221844D01*
X2703956Y4222214D01*
X2704603Y4222676D01*
X2705250Y4223139D01*
X2706082Y4223693D01*
X2707007Y4224248D01*
X2708024Y4224710D01*
X2709134Y4225265D01*
X2710428Y4225727D01*
X2711722Y4226190D01*
X2713109Y4226559D01*
X2714681Y4226837D01*
X2716253Y4227022D01*
X2717917Y4227114D01*
X2718009D01*
X2718287D01*
X2718749D01*
X2719396Y4227022D01*
D02*
G37*
G36*
X2739552Y4156663D02*
X2689533D01*
X2689625Y4156570D01*
X2689995Y4156108D01*
X2690550Y4155553D01*
X2691197Y4154629D01*
X2692029Y4153612D01*
X2692954Y4152317D01*
X2693971Y4150838D01*
X2694988Y4149174D01*
Y4149081D01*
X2695080Y4148989D01*
X2695450Y4148434D01*
X2695912Y4147510D01*
X2696467Y4146400D01*
X2697114Y4145106D01*
X2697761Y4143719D01*
X2698409Y4142332D01*
X2698963Y4140945D01*
X2691382D01*
Y4141038D01*
X2691197Y4141223D01*
X2691105Y4141592D01*
X2690827Y4142055D01*
X2690550Y4142609D01*
X2690180Y4143257D01*
X2689255Y4144828D01*
X2688238Y4146678D01*
X2686944Y4148527D01*
X2685465Y4150468D01*
X2683893Y4152410D01*
X2683801Y4152502D01*
X2683708Y4152595D01*
X2683431Y4152872D01*
X2683153Y4153242D01*
X2682229Y4154074D01*
X2681119Y4155183D01*
X2679825Y4156293D01*
X2678346Y4157495D01*
X2676866Y4158512D01*
X2675295Y4159436D01*
Y4164522D01*
X2739552D01*
Y4156663D01*
D02*
G37*
G36*
Y4106921D02*
X2689533D01*
X2689625Y4106829D01*
X2689995Y4106367D01*
X2690550Y4105812D01*
X2691197Y4104887D01*
X2692029Y4103870D01*
X2692954Y4102576D01*
X2693971Y4101097D01*
X2694988Y4099432D01*
Y4099340D01*
X2695080Y4099248D01*
X2695450Y4098693D01*
X2695912Y4097768D01*
X2696467Y4096659D01*
X2697114Y4095364D01*
X2697761Y4093978D01*
X2698409Y4092591D01*
X2698963Y4091204D01*
X2691382D01*
Y4091296D01*
X2691197Y4091481D01*
X2691105Y4091851D01*
X2690827Y4092313D01*
X2690550Y4092868D01*
X2690180Y4093515D01*
X2689255Y4095087D01*
X2688238Y4096936D01*
X2686944Y4098785D01*
X2685465Y4100727D01*
X2683893Y4102668D01*
X2683801Y4102761D01*
X2683708Y4102853D01*
X2683431Y4103131D01*
X2683153Y4103501D01*
X2682229Y4104333D01*
X2681119Y4105442D01*
X2679825Y4106552D01*
X2678346Y4107754D01*
X2676866Y4108771D01*
X2675295Y4109695D01*
Y4114780D01*
X2739552D01*
Y4106921D01*
D02*
G37*
G36*
Y4057180D02*
X2689533D01*
X2689625Y4057088D01*
X2689995Y4056625D01*
X2690550Y4056071D01*
X2691197Y4055146D01*
X2692029Y4054129D01*
X2692954Y4052835D01*
X2693971Y4051355D01*
X2694988Y4049691D01*
Y4049599D01*
X2695080Y4049506D01*
X2695450Y4048952D01*
X2695912Y4048027D01*
X2696467Y4046917D01*
X2697114Y4045623D01*
X2697761Y4044236D01*
X2698409Y4042849D01*
X2698963Y4041463D01*
X2691382D01*
Y4041555D01*
X2691197Y4041740D01*
X2691105Y4042110D01*
X2690827Y4042572D01*
X2690550Y4043127D01*
X2690180Y4043774D01*
X2689255Y4045346D01*
X2688238Y4047195D01*
X2686944Y4049044D01*
X2685465Y4050986D01*
X2683893Y4052927D01*
X2683801Y4053020D01*
X2683708Y4053112D01*
X2683431Y4053389D01*
X2683153Y4053759D01*
X2682229Y4054591D01*
X2681119Y4055701D01*
X2679825Y4056810D01*
X2678346Y4058012D01*
X2676866Y4059029D01*
X2675295Y4059954D01*
Y4065039D01*
X2739552D01*
Y4057180D01*
D02*
G37*
G36*
Y4019920D02*
X2726238Y4011507D01*
X2726145D01*
X2725961Y4011322D01*
X2725683Y4011137D01*
X2725313Y4010860D01*
X2724296Y4010212D01*
X2723002Y4009380D01*
X2721615Y4008363D01*
X2720136Y4007346D01*
X2718749Y4006329D01*
X2717455Y4005405D01*
X2717362Y4005312D01*
X2716992Y4005035D01*
X2716438Y4004573D01*
X2715790Y4003925D01*
X2714404Y4002539D01*
X2713756Y4001799D01*
X2713202Y4001059D01*
X2713109Y4000967D01*
X2713017Y4000782D01*
X2712832Y4000412D01*
X2712554Y3999857D01*
X2712277Y3999303D01*
X2712000Y3998655D01*
X2711537Y3997176D01*
Y3997084D01*
X2711445Y3996899D01*
Y3996529D01*
X2711352Y3996067D01*
X2711260Y3995419D01*
Y3994680D01*
X2711168Y3993663D01*
Y3982753D01*
X2739552D01*
Y3974247D01*
X2675572D01*
Y4003925D01*
X2675664Y4004665D01*
Y4005497D01*
X2675757Y4007439D01*
X2676034Y4009473D01*
X2676312Y4011692D01*
X2676774Y4013726D01*
X2677051Y4014743D01*
X2677329Y4015575D01*
Y4015667D01*
X2677421Y4015760D01*
X2677698Y4016315D01*
X2678068Y4017147D01*
X2678715Y4018164D01*
X2679548Y4019273D01*
X2680657Y4020475D01*
X2681951Y4021585D01*
X2683431Y4022694D01*
X2683523D01*
X2683616Y4022786D01*
X2684170Y4023156D01*
X2685095Y4023526D01*
X2686297Y4024081D01*
X2687684Y4024543D01*
X2689348Y4025005D01*
X2691105Y4025283D01*
X2693046Y4025375D01*
X2693139D01*
X2693324D01*
X2693693D01*
X2694156Y4025283D01*
X2694803D01*
X2695450Y4025190D01*
X2697022Y4024820D01*
X2698871Y4024266D01*
X2700812Y4023526D01*
X2702754Y4022417D01*
X2703679Y4021677D01*
X2704603Y4020937D01*
X2704696Y4020845D01*
X2704788Y4020752D01*
X2705065Y4020475D01*
X2705343Y4020105D01*
X2705713Y4019643D01*
X2706082Y4019088D01*
X2706545Y4018349D01*
X2707099Y4017609D01*
X2707562Y4016684D01*
X2708024Y4015667D01*
X2708579Y4014558D01*
X2709041Y4013356D01*
X2709411Y4011969D01*
X2709873Y4010582D01*
X2710151Y4009011D01*
X2710428Y4007346D01*
X2710520Y4007531D01*
X2710705Y4007901D01*
X2711075Y4008456D01*
X2711445Y4009195D01*
X2712462Y4010860D01*
X2713109Y4011692D01*
X2713664Y4012431D01*
X2713849Y4012616D01*
X2714311Y4013079D01*
X2715051Y4013818D01*
X2715975Y4014743D01*
X2717270Y4015760D01*
X2718656Y4016962D01*
X2720321Y4018164D01*
X2722170Y4019458D01*
X2739552Y4030460D01*
Y4019920D01*
D02*
G37*
G36*
X2473853Y4229548D02*
X2489201D01*
Y4221689D01*
X2473853D01*
Y4193860D01*
X2466642D01*
X2425221Y4223168D01*
Y4229548D01*
X2466642D01*
Y4238238D01*
X2473853D01*
Y4229548D01*
D02*
G37*
G36*
X2489201Y4168527D02*
X2439182D01*
X2439275Y4168434D01*
X2439645Y4167972D01*
X2440199Y4167417D01*
X2440847Y4166493D01*
X2441679Y4165476D01*
X2442603Y4164181D01*
X2443620Y4162702D01*
X2444637Y4161038D01*
Y4160945D01*
X2444730Y4160853D01*
X2445100Y4160298D01*
X2445562Y4159373D01*
X2446117Y4158264D01*
X2446764Y4156970D01*
X2447411Y4155583D01*
X2448058Y4154196D01*
X2448613Y4152809D01*
X2441031D01*
Y4152902D01*
X2440847Y4153086D01*
X2440754Y4153456D01*
X2440477Y4153919D01*
X2440199Y4154473D01*
X2439830Y4155120D01*
X2438905Y4156692D01*
X2437888Y4158541D01*
X2436594Y4160390D01*
X2435114Y4162332D01*
X2433543Y4164274D01*
X2433450Y4164366D01*
X2433358Y4164459D01*
X2433080Y4164736D01*
X2432803Y4165106D01*
X2431878Y4165938D01*
X2430769Y4167047D01*
X2429474Y4168157D01*
X2427995Y4169359D01*
X2426516Y4170376D01*
X2424944Y4171300D01*
Y4176385D01*
X2489201D01*
Y4168527D01*
D02*
G37*
G36*
Y4118785D02*
X2439182D01*
X2439275Y4118693D01*
X2439645Y4118231D01*
X2440199Y4117676D01*
X2440847Y4116751D01*
X2441679Y4115734D01*
X2442603Y4114440D01*
X2443620Y4112961D01*
X2444637Y4111296D01*
Y4111204D01*
X2444730Y4111111D01*
X2445100Y4110557D01*
X2445562Y4109632D01*
X2446117Y4108523D01*
X2446764Y4107228D01*
X2447411Y4105841D01*
X2448058Y4104455D01*
X2448613Y4103068D01*
X2441031D01*
Y4103160D01*
X2440847Y4103345D01*
X2440754Y4103715D01*
X2440477Y4104177D01*
X2440199Y4104732D01*
X2439830Y4105379D01*
X2438905Y4106951D01*
X2437888Y4108800D01*
X2436594Y4110649D01*
X2435114Y4112591D01*
X2433543Y4114532D01*
X2433450Y4114625D01*
X2433358Y4114717D01*
X2433080Y4114995D01*
X2432803Y4115364D01*
X2431878Y4116196D01*
X2430769Y4117306D01*
X2429474Y4118415D01*
X2427995Y4119617D01*
X2426516Y4120634D01*
X2424944Y4121559D01*
Y4126644D01*
X2489201D01*
Y4118785D01*
D02*
G37*
G36*
Y4069044D02*
X2439182D01*
X2439275Y4068951D01*
X2439645Y4068489D01*
X2440199Y4067934D01*
X2440847Y4067010D01*
X2441679Y4065993D01*
X2442603Y4064699D01*
X2443620Y4063219D01*
X2444637Y4061555D01*
Y4061463D01*
X2444730Y4061370D01*
X2445100Y4060815D01*
X2445562Y4059891D01*
X2446117Y4058781D01*
X2446764Y4057487D01*
X2447411Y4056100D01*
X2448058Y4054713D01*
X2448613Y4053326D01*
X2441031D01*
Y4053419D01*
X2440847Y4053604D01*
X2440754Y4053974D01*
X2440477Y4054436D01*
X2440199Y4054991D01*
X2439830Y4055638D01*
X2438905Y4057210D01*
X2437888Y4059059D01*
X2436594Y4060908D01*
X2435114Y4062849D01*
X2433543Y4064791D01*
X2433450Y4064883D01*
X2433358Y4064976D01*
X2433080Y4065253D01*
X2432803Y4065623D01*
X2431878Y4066455D01*
X2430769Y4067565D01*
X2429474Y4068674D01*
X2427995Y4069876D01*
X2426516Y4070893D01*
X2424944Y4071818D01*
Y4076903D01*
X2489201D01*
Y4069044D01*
D02*
G37*
G36*
Y4031784D02*
X2475887Y4023371D01*
X2475795D01*
X2475610Y4023186D01*
X2475333Y4023001D01*
X2474963Y4022723D01*
X2473946Y4022076D01*
X2472651Y4021244D01*
X2471265Y4020227D01*
X2469785Y4019210D01*
X2468398Y4018193D01*
X2467104Y4017269D01*
X2467012Y4017176D01*
X2466642Y4016899D01*
X2466087Y4016436D01*
X2465440Y4015789D01*
X2464053Y4014402D01*
X2463406Y4013663D01*
X2462851Y4012923D01*
X2462759Y4012831D01*
X2462666Y4012646D01*
X2462481Y4012276D01*
X2462204Y4011721D01*
X2461926Y4011166D01*
X2461649Y4010519D01*
X2461187Y4009040D01*
Y4008948D01*
X2461094Y4008763D01*
Y4008393D01*
X2461002Y4007931D01*
X2460909Y4007283D01*
Y4006544D01*
X2460817Y4005527D01*
Y3994617D01*
X2489201D01*
Y3986111D01*
X2425221D01*
Y4015789D01*
X2425314Y4016529D01*
Y4017361D01*
X2425406Y4019303D01*
X2425684Y4021337D01*
X2425961Y4023556D01*
X2426423Y4025590D01*
X2426701Y4026607D01*
X2426978Y4027439D01*
Y4027531D01*
X2427071Y4027624D01*
X2427348Y4028178D01*
X2427718Y4029010D01*
X2428365Y4030027D01*
X2429197Y4031137D01*
X2430307Y4032339D01*
X2431601Y4033448D01*
X2433080Y4034558D01*
X2433173D01*
X2433265Y4034650D01*
X2433820Y4035020D01*
X2434744Y4035390D01*
X2435946Y4035945D01*
X2437333Y4036407D01*
X2438997Y4036869D01*
X2440754Y4037147D01*
X2442696Y4037239D01*
X2442788D01*
X2442973D01*
X2443343D01*
X2443805Y4037147D01*
X2444452D01*
X2445100Y4037054D01*
X2446671Y4036684D01*
X2448520Y4036130D01*
X2450462Y4035390D01*
X2452404Y4034280D01*
X2453328Y4033541D01*
X2454253Y4032801D01*
X2454345Y4032709D01*
X2454438Y4032616D01*
X2454715Y4032339D01*
X2454992Y4031969D01*
X2455362Y4031507D01*
X2455732Y4030952D01*
X2456194Y4030212D01*
X2456749Y4029473D01*
X2457211Y4028548D01*
X2457674Y4027531D01*
X2458228Y4026422D01*
X2458691Y4025220D01*
X2459060Y4023833D01*
X2459523Y4022446D01*
X2459800Y4020874D01*
X2460077Y4019210D01*
X2460170Y4019395D01*
X2460355Y4019765D01*
X2460725Y4020320D01*
X2461094Y4021059D01*
X2462111Y4022723D01*
X2462759Y4023556D01*
X2463313Y4024295D01*
X2463498Y4024480D01*
X2463961Y4024942D01*
X2464700Y4025682D01*
X2465625Y4026607D01*
X2466919Y4027624D01*
X2468306Y4028826D01*
X2469970Y4030027D01*
X2471819Y4031322D01*
X2489201Y4042324D01*
Y4031784D01*
D02*
G37*
G36*
X886530Y1213305D02*
X887640D01*
X888842Y1213213D01*
X890136Y1213120D01*
X893094Y1212843D01*
X896146Y1212381D01*
X899104Y1211826D01*
X900491Y1211456D01*
X901878Y1210994D01*
X901970D01*
X902155Y1210901D01*
X902525Y1210716D01*
X902987Y1210531D01*
X903634Y1210347D01*
X904282Y1209977D01*
X905853Y1209237D01*
X907518Y1208313D01*
X909367Y1207111D01*
X911031Y1205724D01*
X912603Y1204060D01*
Y1203967D01*
X912788Y1203875D01*
X912973Y1203597D01*
X913157Y1203227D01*
X913435Y1202765D01*
X913805Y1202303D01*
X914452Y1200916D01*
X915099Y1199252D01*
X915746Y1197310D01*
X916116Y1194999D01*
X916301Y1192503D01*
Y1191578D01*
X916208Y1190931D01*
X916116Y1190191D01*
X915931Y1189267D01*
X915746Y1188250D01*
X915469Y1187140D01*
X915099Y1186031D01*
X914729Y1184829D01*
X914174Y1183627D01*
X913527Y1182425D01*
X912788Y1181223D01*
X911863Y1180021D01*
X910846Y1178912D01*
X909737Y1177895D01*
X909644Y1177802D01*
X909367Y1177617D01*
X908904Y1177340D01*
X908165Y1176878D01*
X907333Y1176415D01*
X906223Y1175953D01*
X904929Y1175306D01*
X903450Y1174751D01*
X901785Y1174196D01*
X899844Y1173642D01*
X897717Y1173087D01*
X895313Y1172625D01*
X892725Y1172162D01*
X889951Y1171885D01*
X886900Y1171700D01*
X883664Y1171608D01*
X883572D01*
X883202D01*
X882554D01*
X881815D01*
X880798Y1171700D01*
X879688D01*
X878486Y1171792D01*
X877100Y1171885D01*
X874233Y1172162D01*
X871182Y1172625D01*
X868131Y1173179D01*
X866745Y1173549D01*
X865358Y1173919D01*
X865265D01*
X865080Y1174011D01*
X864710Y1174196D01*
X864248Y1174381D01*
X863601Y1174566D01*
X862954Y1174936D01*
X861382Y1175676D01*
X859718Y1176600D01*
X857961Y1177802D01*
X856205Y1179189D01*
X854725Y1180853D01*
Y1180946D01*
X854540Y1181038D01*
X854355Y1181315D01*
X854171Y1181685D01*
X853801Y1182147D01*
X853523Y1182702D01*
X852784Y1184089D01*
X852136Y1185753D01*
X851489Y1187695D01*
X851119Y1190006D01*
X850935Y1192503D01*
Y1193335D01*
X851027Y1194352D01*
X851212Y1195554D01*
X851489Y1196940D01*
X851859Y1198420D01*
X852321Y1199992D01*
X853061Y1201471D01*
Y1201563D01*
X853153Y1201656D01*
X853431Y1202118D01*
X853893Y1202858D01*
X854540Y1203782D01*
X855465Y1204799D01*
X856482Y1205909D01*
X857684Y1206926D01*
X859071Y1207943D01*
X859256Y1208035D01*
X859718Y1208405D01*
X860550Y1208775D01*
X861752Y1209422D01*
X863139Y1209977D01*
X864710Y1210716D01*
X866560Y1211364D01*
X868594Y1211918D01*
X868686D01*
X868871Y1212011D01*
X869148Y1212103D01*
X869611Y1212196D01*
X870165Y1212288D01*
X870813Y1212381D01*
X871645Y1212566D01*
X872569Y1212658D01*
X873586Y1212843D01*
X874696Y1212935D01*
X875990Y1213028D01*
X877285Y1213213D01*
X878764Y1213305D01*
X880243D01*
X881907Y1213398D01*
X883664D01*
X883756D01*
X884126D01*
X884773D01*
X885513D01*
X886530Y1213305D01*
D02*
G37*
G36*
Y1163564D02*
X887640D01*
X888842Y1163471D01*
X890136Y1163379D01*
X893094Y1163102D01*
X896146Y1162639D01*
X899104Y1162085D01*
X900491Y1161715D01*
X901878Y1161252D01*
X901970D01*
X902155Y1161160D01*
X902525Y1160975D01*
X902987Y1160790D01*
X903634Y1160605D01*
X904282Y1160235D01*
X905853Y1159496D01*
X907518Y1158571D01*
X909367Y1157369D01*
X911031Y1155982D01*
X912603Y1154318D01*
Y1154226D01*
X912788Y1154133D01*
X912973Y1153856D01*
X913157Y1153486D01*
X913435Y1153024D01*
X913805Y1152562D01*
X914452Y1151175D01*
X915099Y1149511D01*
X915746Y1147569D01*
X916116Y1145258D01*
X916301Y1142761D01*
Y1141837D01*
X916208Y1141189D01*
X916116Y1140450D01*
X915931Y1139525D01*
X915746Y1138508D01*
X915469Y1137399D01*
X915099Y1136289D01*
X914729Y1135087D01*
X914174Y1133885D01*
X913527Y1132684D01*
X912788Y1131482D01*
X911863Y1130280D01*
X910846Y1129170D01*
X909737Y1128153D01*
X909644Y1128061D01*
X909367Y1127876D01*
X908904Y1127598D01*
X908165Y1127136D01*
X907333Y1126674D01*
X906223Y1126212D01*
X904929Y1125564D01*
X903450Y1125010D01*
X901785Y1124455D01*
X899844Y1123900D01*
X897717Y1123345D01*
X895313Y1122883D01*
X892725Y1122421D01*
X889951Y1122144D01*
X886900Y1121959D01*
X883664Y1121866D01*
X883572D01*
X883202D01*
X882554D01*
X881815D01*
X880798Y1121959D01*
X879688D01*
X878486Y1122051D01*
X877100Y1122144D01*
X874233Y1122421D01*
X871182Y1122883D01*
X868131Y1123438D01*
X866745Y1123808D01*
X865358Y1124178D01*
X865265D01*
X865080Y1124270D01*
X864710Y1124455D01*
X864248Y1124640D01*
X863601Y1124825D01*
X862954Y1125195D01*
X861382Y1125934D01*
X859718Y1126859D01*
X857961Y1128061D01*
X856205Y1129448D01*
X854725Y1131112D01*
Y1131204D01*
X854540Y1131297D01*
X854355Y1131574D01*
X854171Y1131944D01*
X853801Y1132406D01*
X853523Y1132961D01*
X852784Y1134348D01*
X852136Y1136012D01*
X851489Y1137954D01*
X851119Y1140265D01*
X850935Y1142761D01*
Y1143593D01*
X851027Y1144610D01*
X851212Y1145812D01*
X851489Y1147199D01*
X851859Y1148678D01*
X852321Y1150250D01*
X853061Y1151729D01*
Y1151822D01*
X853153Y1151914D01*
X853431Y1152377D01*
X853893Y1153116D01*
X854540Y1154041D01*
X855465Y1155058D01*
X856482Y1156167D01*
X857684Y1157184D01*
X859071Y1158201D01*
X859256Y1158294D01*
X859718Y1158664D01*
X860550Y1159033D01*
X861752Y1159681D01*
X863139Y1160235D01*
X864710Y1160975D01*
X866560Y1161622D01*
X868594Y1162177D01*
X868686D01*
X868871Y1162269D01*
X869148Y1162362D01*
X869611Y1162454D01*
X870165Y1162547D01*
X870813Y1162639D01*
X871645Y1162824D01*
X872569Y1162917D01*
X873586Y1163102D01*
X874696Y1163194D01*
X875990Y1163286D01*
X877285Y1163471D01*
X878764Y1163564D01*
X880243D01*
X881907Y1163656D01*
X883664D01*
X883756D01*
X884126D01*
X884773D01*
X885513D01*
X886530Y1163564D01*
D02*
G37*
G36*
X898364Y1114100D02*
X899012Y1114007D01*
X899844Y1113915D01*
X900768Y1113730D01*
X901785Y1113453D01*
X903912Y1112805D01*
X905114Y1112343D01*
X906223Y1111696D01*
X907425Y1111049D01*
X908535Y1110309D01*
X909644Y1109385D01*
X910754Y1108368D01*
X910846Y1108275D01*
X911031Y1108090D01*
X911308Y1107813D01*
X911586Y1107351D01*
X912048Y1106703D01*
X912510Y1106056D01*
X912973Y1105224D01*
X913527Y1104300D01*
X914082Y1103283D01*
X914544Y1102081D01*
X915007Y1100786D01*
X915469Y1099492D01*
X915746Y1098013D01*
X916024Y1096441D01*
X916208Y1094869D01*
X916301Y1093112D01*
Y1092188D01*
X916208Y1091541D01*
X916116Y1090709D01*
X916024Y1089784D01*
X915839Y1088767D01*
X915561Y1087657D01*
X914914Y1085161D01*
X914452Y1083867D01*
X913990Y1082665D01*
X913342Y1081370D01*
X912603Y1080076D01*
X911771Y1078874D01*
X910754Y1077765D01*
X910661Y1077672D01*
X910476Y1077487D01*
X910199Y1077210D01*
X909737Y1076840D01*
X909182Y1076470D01*
X908535Y1075916D01*
X907795Y1075453D01*
X906870Y1074899D01*
X905946Y1074344D01*
X904836Y1073882D01*
X902525Y1072957D01*
X901138Y1072587D01*
X899751Y1072310D01*
X898272Y1072125D01*
X896793Y1072032D01*
X896700D01*
X896515D01*
X896146D01*
X895776Y1072125D01*
X895221D01*
X894574Y1072217D01*
X893094Y1072402D01*
X891430Y1072772D01*
X889766Y1073327D01*
X888009Y1074159D01*
X886345Y1075176D01*
X886253D01*
X886160Y1075361D01*
X885698Y1075731D01*
X884958Y1076470D01*
X884034Y1077487D01*
X883109Y1078782D01*
X882092Y1080353D01*
X881260Y1082110D01*
X880613Y1084237D01*
Y1084144D01*
X880520Y1084052D01*
X880428Y1083774D01*
X880243Y1083404D01*
X879873Y1082572D01*
X879319Y1081463D01*
X878579Y1080261D01*
X877654Y1079059D01*
X876637Y1077950D01*
X875528Y1076933D01*
X875343Y1076840D01*
X874973Y1076563D01*
X874233Y1076193D01*
X873309Y1075823D01*
X872107Y1075361D01*
X870720Y1074991D01*
X869148Y1074714D01*
X867484Y1074621D01*
X867392D01*
X867207D01*
X866837D01*
X866282Y1074714D01*
X865728Y1074806D01*
X864988Y1074899D01*
X863416Y1075268D01*
X861567Y1075823D01*
X859625Y1076748D01*
X858608Y1077302D01*
X857591Y1077950D01*
X856667Y1078782D01*
X855742Y1079614D01*
X855650Y1079706D01*
X855557Y1079891D01*
X855280Y1080169D01*
X855003Y1080538D01*
X854633Y1081001D01*
X854263Y1081648D01*
X853801Y1082387D01*
X853338Y1083127D01*
X852876Y1084052D01*
X852414Y1085069D01*
X852044Y1086178D01*
X851674Y1087380D01*
X851119Y1089969D01*
X851027Y1091448D01*
X850935Y1092927D01*
Y1093760D01*
X851027Y1094314D01*
X851119Y1095054D01*
X851212Y1095886D01*
X851304Y1096811D01*
X851582Y1097735D01*
X852136Y1099954D01*
X852969Y1102173D01*
X853523Y1103283D01*
X854171Y1104392D01*
X855003Y1105409D01*
X855835Y1106426D01*
X855927Y1106518D01*
X856020Y1106611D01*
X856297Y1106888D01*
X856667Y1107258D01*
X857222Y1107628D01*
X857776Y1108090D01*
X859163Y1109015D01*
X860920Y1109939D01*
X862954Y1110771D01*
X865265Y1111419D01*
X866467Y1111511D01*
X867762Y1111604D01*
X867854D01*
X867946D01*
X868501D01*
X869333Y1111511D01*
X870350Y1111326D01*
X871645Y1111049D01*
X872939Y1110587D01*
X874233Y1110032D01*
X875528Y1109200D01*
X875713Y1109107D01*
X876083Y1108737D01*
X876637Y1108183D01*
X877377Y1107443D01*
X878209Y1106426D01*
X879041Y1105224D01*
X879873Y1103837D01*
X880613Y1102173D01*
Y1102266D01*
X880705Y1102450D01*
X880798Y1102728D01*
X880983Y1103098D01*
X881445Y1104207D01*
X882092Y1105501D01*
X883017Y1106888D01*
X884034Y1108368D01*
X885328Y1109754D01*
X886807Y1111049D01*
X886900D01*
X886992Y1111141D01*
X887547Y1111511D01*
X888472Y1112066D01*
X889674Y1112621D01*
X891153Y1113175D01*
X892910Y1113730D01*
X894851Y1114100D01*
X896978Y1114192D01*
X897070D01*
X897347D01*
X897810D01*
X898364Y1114100D01*
D02*
G37*
G36*
X915191Y1056592D02*
X901878Y1048179D01*
X901785D01*
X901600Y1047994D01*
X901323Y1047809D01*
X900953Y1047532D01*
X899936Y1046884D01*
X898642Y1046052D01*
X897255Y1045035D01*
X895776Y1044018D01*
X894389Y1043001D01*
X893094Y1042077D01*
X893002Y1041984D01*
X892632Y1041707D01*
X892077Y1041245D01*
X891430Y1040597D01*
X890043Y1039211D01*
X889396Y1038471D01*
X888842Y1037731D01*
X888749Y1037639D01*
X888657Y1037454D01*
X888472Y1037084D01*
X888194Y1036529D01*
X887917Y1035975D01*
X887640Y1035327D01*
X887177Y1033848D01*
Y1033756D01*
X887085Y1033571D01*
Y1033201D01*
X886992Y1032739D01*
X886900Y1032091D01*
Y1031352D01*
X886807Y1030335D01*
Y1019425D01*
X915191D01*
Y1010919D01*
X851212D01*
Y1040597D01*
X851304Y1041337D01*
Y1042169D01*
X851397Y1044111D01*
X851674Y1046145D01*
X851952Y1048364D01*
X852414Y1050398D01*
X852691Y1051415D01*
X852969Y1052247D01*
Y1052339D01*
X853061Y1052432D01*
X853338Y1052986D01*
X853708Y1053819D01*
X854355Y1054836D01*
X855188Y1055945D01*
X856297Y1057147D01*
X857591Y1058256D01*
X859071Y1059366D01*
X859163D01*
X859256Y1059458D01*
X859810Y1059828D01*
X860735Y1060198D01*
X861937Y1060753D01*
X863324Y1061215D01*
X864988Y1061677D01*
X866745Y1061955D01*
X868686Y1062047D01*
X868779D01*
X868963D01*
X869333D01*
X869796Y1061955D01*
X870443D01*
X871090Y1061862D01*
X872662Y1061492D01*
X874511Y1060938D01*
X876452Y1060198D01*
X878394Y1059089D01*
X879319Y1058349D01*
X880243Y1057609D01*
X880336Y1057517D01*
X880428Y1057424D01*
X880705Y1057147D01*
X880983Y1056777D01*
X881353Y1056315D01*
X881722Y1055760D01*
X882185Y1055020D01*
X882739Y1054281D01*
X883202Y1053356D01*
X883664Y1052339D01*
X884219Y1051230D01*
X884681Y1050028D01*
X885051Y1048641D01*
X885513Y1047254D01*
X885790Y1045682D01*
X886068Y1044018D01*
X886160Y1044203D01*
X886345Y1044573D01*
X886715Y1045128D01*
X887085Y1045867D01*
X888102Y1047532D01*
X888749Y1048364D01*
X889304Y1049103D01*
X889489Y1049288D01*
X889951Y1049751D01*
X890691Y1050490D01*
X891615Y1051415D01*
X892910Y1052432D01*
X894296Y1053634D01*
X895961Y1054836D01*
X897810Y1056130D01*
X915191Y1067132D01*
Y1056592D01*
D02*
G37*
%LPC*%
G36*
X559510Y794933D02*
X556644D01*
X556552D01*
X556459D01*
X555997D01*
X555165D01*
X554055Y794840D01*
X552853D01*
X551374Y794748D01*
X549802Y794655D01*
X548046Y794470D01*
X544532Y794008D01*
X542776Y793731D01*
X541111Y793361D01*
X539540Y792991D01*
X538060Y792436D01*
X536766Y791882D01*
X535657Y791234D01*
X535564D01*
X535472Y791049D01*
X535194Y790865D01*
X534824Y790587D01*
X533992Y789755D01*
X532975Y788738D01*
X532051Y787351D01*
X531219Y785779D01*
X530849Y784947D01*
X530571Y784023D01*
X530479Y783006D01*
X530387Y781989D01*
Y781434D01*
X530479Y781064D01*
X530664Y780047D01*
X530941Y778845D01*
X531496Y777458D01*
X532328Y775979D01*
X532883Y775239D01*
X533438Y774500D01*
X534177Y773853D01*
X535009Y773205D01*
X535102D01*
X535287Y773021D01*
X535657Y772836D01*
X536119Y772558D01*
X536858Y772281D01*
X537691Y771911D01*
X538708Y771634D01*
X539910Y771264D01*
X541296Y770894D01*
X542868Y770524D01*
X544625Y770154D01*
X546566Y769877D01*
X548785Y769600D01*
X551189Y769415D01*
X553778Y769322D01*
X556644Y769230D01*
X556829D01*
X557291D01*
X558123D01*
X559233Y769322D01*
X560435D01*
X561914Y769415D01*
X563486Y769507D01*
X565150Y769692D01*
X568756Y770154D01*
X570512Y770432D01*
X572177Y770802D01*
X573748Y771171D01*
X575228Y771726D01*
X576522Y772281D01*
X577632Y772928D01*
X577724D01*
X577816Y773113D01*
X578464Y773575D01*
X579296Y774407D01*
X580220Y775424D01*
X581145Y776811D01*
X581977Y778383D01*
X582624Y780140D01*
X582717Y781064D01*
X582809Y782081D01*
Y782636D01*
X582717Y783006D01*
X582532Y783930D01*
X582162Y785225D01*
X581515Y786612D01*
X580590Y788183D01*
X580035Y788923D01*
X579296Y789663D01*
X578556Y790402D01*
X577632Y791142D01*
X577539D01*
X577354Y791327D01*
X577077Y791512D01*
X576615Y791697D01*
X575967Y792066D01*
X575135Y792344D01*
X574211Y792714D01*
X573101Y793084D01*
X571714Y793361D01*
X570235Y793731D01*
X568478Y794101D01*
X566629Y794378D01*
X564410Y794563D01*
X562099Y794748D01*
X559510Y794933D01*
D02*
G37*
G36*
X540649Y742880D02*
X540557D01*
X540464D01*
X539910D01*
X539077Y742695D01*
X538060Y742510D01*
X536951Y742140D01*
X535749Y741586D01*
X534547Y740846D01*
X533345Y739829D01*
X533253Y739736D01*
X532883Y739274D01*
X532421Y738627D01*
X531866Y737795D01*
X531311Y736685D01*
X530849Y735483D01*
X530479Y734004D01*
X530387Y732432D01*
Y731693D01*
X530571Y730861D01*
X530756Y729751D01*
X531126Y728549D01*
X531588Y727255D01*
X532328Y726053D01*
X533345Y724851D01*
X533438Y724759D01*
X533807Y724389D01*
X534455Y723926D01*
X535287Y723464D01*
X536304Y722909D01*
X537506Y722447D01*
X538800Y722077D01*
X540279Y721985D01*
X540372D01*
X540464D01*
X541019Y722077D01*
X541851Y722170D01*
X542868Y722355D01*
X544070Y722724D01*
X545272Y723187D01*
X546566Y723926D01*
X547676Y724851D01*
X547768Y724943D01*
X548138Y725406D01*
X548600Y726053D01*
X549063Y726885D01*
X549617Y727994D01*
X550080Y729289D01*
X550449Y730768D01*
X550542Y732432D01*
Y732617D01*
X550449Y733172D01*
X550357Y734004D01*
X550172Y735114D01*
X549802Y736316D01*
X549340Y737517D01*
X548600Y738812D01*
X547676Y739921D01*
X547583Y740014D01*
X547121Y740384D01*
X546566Y740846D01*
X545734Y741401D01*
X544717Y741955D01*
X543515Y742418D01*
X542128Y742787D01*
X540649Y742880D01*
D02*
G37*
G36*
X570050Y745469D02*
X569958D01*
X569773D01*
X569495D01*
X569126Y745376D01*
X568109Y745284D01*
X566722Y745006D01*
X565335Y744544D01*
X563763Y743897D01*
X562191Y742972D01*
X560712Y741678D01*
X560527Y741493D01*
X560157Y741031D01*
X559510Y740199D01*
X558771Y739089D01*
X558123Y737702D01*
X557476Y736038D01*
X557106Y734189D01*
X556921Y732155D01*
Y731600D01*
X557014Y731230D01*
X557106Y730213D01*
X557384Y728919D01*
X557846Y727440D01*
X558493Y725960D01*
X559418Y724389D01*
X560620Y723002D01*
X560805Y722817D01*
X561267Y722447D01*
X562099Y721892D01*
X563116Y721245D01*
X564503Y720506D01*
X566075Y719951D01*
X567831Y719581D01*
X569773Y719396D01*
X569958D01*
X570328D01*
X570975Y719489D01*
X571807Y719581D01*
X572824Y719766D01*
X573933Y720043D01*
X575043Y720413D01*
X576245Y720875D01*
X576337Y720968D01*
X576799Y721153D01*
X577354Y721523D01*
X578001Y722077D01*
X578833Y722724D01*
X579666Y723557D01*
X580405Y724481D01*
X581145Y725591D01*
X581237Y725776D01*
X581422Y726145D01*
X581700Y726793D01*
X581977Y727625D01*
X582254Y728642D01*
X582532Y729844D01*
X582717Y731138D01*
X582809Y732432D01*
Y732987D01*
X582717Y733357D01*
X582624Y734466D01*
X582347Y735761D01*
X581885Y737240D01*
X581330Y738812D01*
X580405Y740291D01*
X579203Y741770D01*
X579018Y741955D01*
X578556Y742325D01*
X577724Y742972D01*
X576707Y743620D01*
X575413Y744267D01*
X573841Y744914D01*
X571992Y745284D01*
X570050Y745469D01*
D02*
G37*
G36*
X541759Y692676D02*
X541666D01*
X541574D01*
X541019Y692584D01*
X540187Y692491D01*
X539077Y692306D01*
X537968Y691844D01*
X536674Y691289D01*
X535472Y690457D01*
X534270Y689348D01*
X534177Y689163D01*
X533807Y688701D01*
X533345Y687961D01*
X532790Y686759D01*
X532236Y685372D01*
X531773Y683523D01*
X531404Y681397D01*
X531311Y678900D01*
Y658745D01*
X552484D01*
Y677791D01*
X552391Y678900D01*
X552299Y680195D01*
X552206Y681674D01*
X552021Y683153D01*
X551744Y684633D01*
X551374Y685927D01*
X551282Y686112D01*
X551097Y686482D01*
X550819Y687036D01*
X550449Y687776D01*
X549895Y688608D01*
X549248Y689440D01*
X548415Y690272D01*
X547491Y690920D01*
X547398Y691012D01*
X547029Y691197D01*
X546474Y691474D01*
X545734Y691844D01*
X544902Y692122D01*
X543978Y692399D01*
X542868Y692584D01*
X541759Y692676D01*
D02*
G37*
G36*
X2693139Y4016684D02*
X2693046D01*
X2692954D01*
X2692399Y4016592D01*
X2691567Y4016499D01*
X2690457Y4016315D01*
X2689348Y4015852D01*
X2688054Y4015298D01*
X2686852Y4014465D01*
X2685650Y4013356D01*
X2685557Y4013171D01*
X2685187Y4012709D01*
X2684725Y4011969D01*
X2684170Y4010767D01*
X2683616Y4009380D01*
X2683153Y4007531D01*
X2682784Y4005405D01*
X2682691Y4002908D01*
Y3982753D01*
X2703864D01*
Y4001799D01*
X2703771Y4002908D01*
X2703679Y4004203D01*
X2703586Y4005682D01*
X2703401Y4007161D01*
X2703124Y4008641D01*
X2702754Y4009935D01*
X2702662Y4010120D01*
X2702477Y4010490D01*
X2702199Y4011045D01*
X2701829Y4011784D01*
X2701275Y4012616D01*
X2700628Y4013448D01*
X2699795Y4014281D01*
X2698871Y4014928D01*
X2698778Y4015020D01*
X2698409Y4015205D01*
X2697854Y4015482D01*
X2697114Y4015852D01*
X2696282Y4016130D01*
X2695358Y4016407D01*
X2694248Y4016592D01*
X2693139Y4016684D01*
D02*
G37*
G36*
X2466642Y4221689D02*
X2437980D01*
X2466642Y4201533D01*
Y4221689D01*
D02*
G37*
G36*
X2442788Y4028548D02*
X2442696D01*
X2442603D01*
X2442048Y4028456D01*
X2441216Y4028363D01*
X2440107Y4028178D01*
X2438997Y4027716D01*
X2437703Y4027161D01*
X2436501Y4026329D01*
X2435299Y4025220D01*
X2435207Y4025035D01*
X2434837Y4024573D01*
X2434375Y4023833D01*
X2433820Y4022631D01*
X2433265Y4021244D01*
X2432803Y4019395D01*
X2432433Y4017269D01*
X2432341Y4014772D01*
Y3994617D01*
X2453513D01*
Y4013663D01*
X2453421Y4014772D01*
X2453328Y4016067D01*
X2453236Y4017546D01*
X2453051Y4019025D01*
X2452773Y4020505D01*
X2452404Y4021799D01*
X2452311Y4021984D01*
X2452126Y4022354D01*
X2451849Y4022908D01*
X2451479Y4023648D01*
X2450924Y4024480D01*
X2450277Y4025312D01*
X2449445Y4026144D01*
X2448520Y4026792D01*
X2448428Y4026884D01*
X2448058Y4027069D01*
X2447503Y4027346D01*
X2446764Y4027716D01*
X2445932Y4027993D01*
X2445007Y4028271D01*
X2443898Y4028456D01*
X2442788Y4028548D01*
D02*
G37*
G36*
X886530Y1205354D02*
X883664D01*
X883572D01*
X883479D01*
X883017D01*
X882185D01*
X881075Y1205261D01*
X879873D01*
X878394Y1205169D01*
X876822Y1205077D01*
X875066Y1204892D01*
X871552Y1204429D01*
X869796Y1204152D01*
X868131Y1203782D01*
X866560Y1203412D01*
X865080Y1202858D01*
X863786Y1202303D01*
X862676Y1201656D01*
X862584D01*
X862492Y1201471D01*
X862214Y1201286D01*
X861844Y1201009D01*
X861012Y1200176D01*
X859995Y1199159D01*
X859071Y1197773D01*
X858239Y1196201D01*
X857869Y1195369D01*
X857591Y1194444D01*
X857499Y1193427D01*
X857406Y1192410D01*
Y1191855D01*
X857499Y1191486D01*
X857684Y1190469D01*
X857961Y1189267D01*
X858516Y1187880D01*
X859348Y1186400D01*
X859903Y1185661D01*
X860458Y1184921D01*
X861197Y1184274D01*
X862029Y1183627D01*
X862122D01*
X862307Y1183442D01*
X862676Y1183257D01*
X863139Y1182980D01*
X863878Y1182702D01*
X864710Y1182332D01*
X865728Y1182055D01*
X866929Y1181685D01*
X868316Y1181315D01*
X869888Y1180946D01*
X871645Y1180576D01*
X873586Y1180298D01*
X875805Y1180021D01*
X878209Y1179836D01*
X880798Y1179744D01*
X883664Y1179651D01*
X883849D01*
X884311D01*
X885143D01*
X886253Y1179744D01*
X887455D01*
X888934Y1179836D01*
X890506Y1179929D01*
X892170Y1180113D01*
X895776Y1180576D01*
X897532Y1180853D01*
X899197Y1181223D01*
X900768Y1181593D01*
X902248Y1182147D01*
X903542Y1182702D01*
X904651Y1183349D01*
X904744D01*
X904836Y1183534D01*
X905484Y1183997D01*
X906316Y1184829D01*
X907240Y1185846D01*
X908165Y1187233D01*
X908997Y1188804D01*
X909644Y1190561D01*
X909737Y1191486D01*
X909829Y1192503D01*
Y1193057D01*
X909737Y1193427D01*
X909552Y1194352D01*
X909182Y1195646D01*
X908535Y1197033D01*
X907610Y1198605D01*
X907055Y1199344D01*
X906316Y1200084D01*
X905576Y1200824D01*
X904651Y1201563D01*
X904559D01*
X904374Y1201748D01*
X904097Y1201933D01*
X903634Y1202118D01*
X902987Y1202488D01*
X902155Y1202765D01*
X901231Y1203135D01*
X900121Y1203505D01*
X898734Y1203782D01*
X897255Y1204152D01*
X895498Y1204522D01*
X893649Y1204799D01*
X891430Y1204984D01*
X889119Y1205169D01*
X886530Y1205354D01*
D02*
G37*
G36*
Y1155613D02*
X883664D01*
X883572D01*
X883479D01*
X883017D01*
X882185D01*
X881075Y1155520D01*
X879873D01*
X878394Y1155428D01*
X876822Y1155335D01*
X875066Y1155150D01*
X871552Y1154688D01*
X869796Y1154411D01*
X868131Y1154041D01*
X866560Y1153671D01*
X865080Y1153116D01*
X863786Y1152562D01*
X862676Y1151914D01*
X862584D01*
X862492Y1151729D01*
X862214Y1151545D01*
X861844Y1151267D01*
X861012Y1150435D01*
X859995Y1149418D01*
X859071Y1148031D01*
X858239Y1146459D01*
X857869Y1145627D01*
X857591Y1144703D01*
X857499Y1143686D01*
X857406Y1142669D01*
Y1142114D01*
X857499Y1141744D01*
X857684Y1140727D01*
X857961Y1139525D01*
X858516Y1138138D01*
X859348Y1136659D01*
X859903Y1135919D01*
X860458Y1135180D01*
X861197Y1134533D01*
X862029Y1133885D01*
X862122D01*
X862307Y1133701D01*
X862676Y1133516D01*
X863139Y1133238D01*
X863878Y1132961D01*
X864710Y1132591D01*
X865728Y1132314D01*
X866929Y1131944D01*
X868316Y1131574D01*
X869888Y1131204D01*
X871645Y1130834D01*
X873586Y1130557D01*
X875805Y1130280D01*
X878209Y1130095D01*
X880798Y1130002D01*
X883664Y1129910D01*
X883849D01*
X884311D01*
X885143D01*
X886253Y1130002D01*
X887455D01*
X888934Y1130095D01*
X890506Y1130187D01*
X892170Y1130372D01*
X895776Y1130834D01*
X897532Y1131112D01*
X899197Y1131482D01*
X900768Y1131851D01*
X902248Y1132406D01*
X903542Y1132961D01*
X904651Y1133608D01*
X904744D01*
X904836Y1133793D01*
X905484Y1134255D01*
X906316Y1135087D01*
X907240Y1136104D01*
X908165Y1137491D01*
X908997Y1139063D01*
X909644Y1140820D01*
X909737Y1141744D01*
X909829Y1142761D01*
Y1143316D01*
X909737Y1143686D01*
X909552Y1144610D01*
X909182Y1145905D01*
X908535Y1147292D01*
X907610Y1148863D01*
X907055Y1149603D01*
X906316Y1150343D01*
X905576Y1151082D01*
X904651Y1151822D01*
X904559D01*
X904374Y1152007D01*
X904097Y1152192D01*
X903634Y1152377D01*
X902987Y1152746D01*
X902155Y1153024D01*
X901231Y1153394D01*
X900121Y1153764D01*
X898734Y1154041D01*
X897255Y1154411D01*
X895498Y1154781D01*
X893649Y1155058D01*
X891430Y1155243D01*
X889119Y1155428D01*
X886530Y1155613D01*
D02*
G37*
G36*
X867669Y1103560D02*
X867577D01*
X867484D01*
X866929D01*
X866097Y1103375D01*
X865080Y1103190D01*
X863971Y1102820D01*
X862769Y1102266D01*
X861567Y1101526D01*
X860365Y1100509D01*
X860273Y1100416D01*
X859903Y1099954D01*
X859440Y1099307D01*
X858886Y1098475D01*
X858331Y1097365D01*
X857869Y1096163D01*
X857499Y1094684D01*
X857406Y1093112D01*
Y1092373D01*
X857591Y1091541D01*
X857776Y1090431D01*
X858146Y1089229D01*
X858608Y1087935D01*
X859348Y1086733D01*
X860365Y1085531D01*
X860458Y1085439D01*
X860827Y1085069D01*
X861475Y1084606D01*
X862307Y1084144D01*
X863324Y1083589D01*
X864526Y1083127D01*
X865820Y1082757D01*
X867299Y1082665D01*
X867392D01*
X867484D01*
X868039Y1082757D01*
X868871Y1082850D01*
X869888Y1083035D01*
X871090Y1083404D01*
X872292Y1083867D01*
X873586Y1084606D01*
X874696Y1085531D01*
X874788Y1085623D01*
X875158Y1086086D01*
X875620Y1086733D01*
X876083Y1087565D01*
X876637Y1088674D01*
X877100Y1089969D01*
X877469Y1091448D01*
X877562Y1093112D01*
Y1093297D01*
X877469Y1093852D01*
X877377Y1094684D01*
X877192Y1095794D01*
X876822Y1096996D01*
X876360Y1098197D01*
X875620Y1099492D01*
X874696Y1100601D01*
X874603Y1100694D01*
X874141Y1101064D01*
X873586Y1101526D01*
X872754Y1102081D01*
X871737Y1102635D01*
X870535Y1103098D01*
X869148Y1103467D01*
X867669Y1103560D01*
D02*
G37*
G36*
X897070Y1106149D02*
X896978D01*
X896793D01*
X896515D01*
X896146Y1106056D01*
X895129Y1105964D01*
X893742Y1105686D01*
X892355Y1105224D01*
X890783Y1104577D01*
X889211Y1103652D01*
X887732Y1102358D01*
X887547Y1102173D01*
X887177Y1101711D01*
X886530Y1100879D01*
X885790Y1099769D01*
X885143Y1098382D01*
X884496Y1096718D01*
X884126Y1094869D01*
X883941Y1092835D01*
Y1092280D01*
X884034Y1091910D01*
X884126Y1090893D01*
X884404Y1089599D01*
X884866Y1088120D01*
X885513Y1086640D01*
X886438Y1085069D01*
X887640Y1083682D01*
X887824Y1083497D01*
X888287Y1083127D01*
X889119Y1082572D01*
X890136Y1081925D01*
X891523Y1081186D01*
X893094Y1080631D01*
X894851Y1080261D01*
X896793Y1080076D01*
X896978D01*
X897347D01*
X897995Y1080169D01*
X898827Y1080261D01*
X899844Y1080446D01*
X900953Y1080723D01*
X902063Y1081093D01*
X903265Y1081555D01*
X903357Y1081648D01*
X903819Y1081833D01*
X904374Y1082203D01*
X905021Y1082757D01*
X905853Y1083404D01*
X906686Y1084237D01*
X907425Y1085161D01*
X908165Y1086271D01*
X908257Y1086456D01*
X908442Y1086825D01*
X908720Y1087473D01*
X908997Y1088305D01*
X909274Y1089322D01*
X909552Y1090524D01*
X909737Y1091818D01*
X909829Y1093112D01*
Y1093667D01*
X909737Y1094037D01*
X909644Y1095146D01*
X909367Y1096441D01*
X908904Y1097920D01*
X908350Y1099492D01*
X907425Y1100971D01*
X906223Y1102450D01*
X906038Y1102635D01*
X905576Y1103005D01*
X904744Y1103652D01*
X903727Y1104300D01*
X902433Y1104947D01*
X900861Y1105594D01*
X899012Y1105964D01*
X897070Y1106149D01*
D02*
G37*
G36*
X868779Y1053356D02*
X868686D01*
X868594D01*
X868039Y1053264D01*
X867207Y1053171D01*
X866097Y1052986D01*
X864988Y1052524D01*
X863693Y1051969D01*
X862492Y1051137D01*
X861290Y1050028D01*
X861197Y1049843D01*
X860827Y1049381D01*
X860365Y1048641D01*
X859810Y1047439D01*
X859256Y1046052D01*
X858793Y1044203D01*
X858423Y1042077D01*
X858331Y1039580D01*
Y1019425D01*
X879503D01*
Y1038471D01*
X879411Y1039580D01*
X879319Y1040875D01*
X879226Y1042354D01*
X879041Y1043833D01*
X878764Y1045313D01*
X878394Y1046607D01*
X878302Y1046792D01*
X878117Y1047162D01*
X877839Y1047716D01*
X877469Y1048456D01*
X876915Y1049288D01*
X876267Y1050120D01*
X875435Y1050952D01*
X874511Y1051600D01*
X874418Y1051692D01*
X874049Y1051877D01*
X873494Y1052154D01*
X872754Y1052524D01*
X871922Y1052802D01*
X870997Y1053079D01*
X869888Y1053264D01*
X868779Y1053356D01*
D02*
G37*
%LPD*%
D139*
X872569Y3986180D02*
X1093391D01*
X872569D02*
Y4101180D01*
X1093391D01*
Y3986180D02*
Y4101180D01*
X799353Y1931393D02*
Y2132607D01*
Y1931393D02*
X1180567D01*
Y2132607D01*
X799353D02*
X1180567D01*
X1248596Y1578173D02*
X1335844D01*
Y1759387D01*
X1248596D02*
X1335844D01*
X1248596Y1578173D02*
Y1759387D01*
X545656Y559633D02*
X632904D01*
Y740847D01*
X545656D02*
X632904D01*
X545656Y559633D02*
Y740847D01*
X107513Y118936D02*
Y206184D01*
Y118936D02*
X288727D01*
Y206184D01*
X107513D02*
X288727D01*
X2683160Y3863837D02*
X2798160D01*
Y4084659D01*
X2683160D02*
X2798160D01*
X2683160Y3863837D02*
Y4084659D01*
X2431700Y3875701D02*
X2546700D01*
Y4096523D01*
X2431700D02*
X2546700D01*
X2431700Y3875701D02*
Y4096523D01*
X443360Y318740D02*
Y473740D01*
X63360D02*
X443360D01*
X63360Y318740D02*
Y473740D01*
Y318740D02*
X443360D01*
X448440Y570200D02*
Y725200D01*
X68440D02*
X448440D01*
X68440Y570200D02*
Y725200D01*
Y570200D02*
X448440D01*
X845693Y865313D02*
X986907D01*
Y1156527D01*
X845693D02*
X986907D01*
X845693Y865313D02*
Y1156527D01*
%TF.MD5,dcb84c50d268828a4a52323035d74b42*%
M02*
