%TF.GenerationSoftware,Altium Limited,Altium Designer,23.11.1 (41)*%
G04 Layer_Color=8421504*
%FSLAX45Y45*%
%MOMM*%
%TF.SameCoordinates,D78E9C2B-A710-42EA-B38E-4640A2B68151*%
%TF.FilePolarity,Positive*%
%TF.FileFunction,Paste,Top*%
%TF.Part,Single*%
G01*
G75*
%TA.AperFunction,SMDPad,CuDef*%
%ADD13R,0.80606X0.85822*%
%ADD14R,0.80000X0.90000*%
G04:AMPARAMS|DCode=15|XSize=1.56mm|YSize=0.4mm|CornerRadius=0.05mm|HoleSize=0mm|Usage=FLASHONLY|Rotation=90.000|XOffset=0mm|YOffset=0mm|HoleType=Round|Shape=RoundedRectangle|*
%AMROUNDEDRECTD15*
21,1,1.56000,0.30000,0,0,90.0*
21,1,1.46000,0.40000,0,0,90.0*
1,1,0.10000,0.15000,0.73000*
1,1,0.10000,0.15000,-0.73000*
1,1,0.10000,-0.15000,-0.73000*
1,1,0.10000,-0.15000,0.73000*
%
%ADD15ROUNDEDRECTD15*%
%ADD16R,1.15814X1.01213*%
%ADD17R,0.57247X0.68106*%
%ADD18R,0.68106X0.57247*%
%ADD19R,1.00000X2.80000*%
%ADD20R,0.60000X1.70000*%
%ADD21R,0.85822X0.80606*%
%ADD22R,0.81280X0.93980*%
%ADD23R,3.00000X2.10000*%
%ADD24R,1.60000X0.80000*%
%ADD25R,1.20000X0.55000*%
%ADD26R,0.40000X1.20000*%
%ADD27R,3.00000X0.90000*%
%ADD28R,1.25000X1.10000*%
%ADD29R,0.93980X0.81280*%
%ADD30R,0.91213X0.85872*%
%ADD31R,0.20000X0.70000*%
%TA.AperFunction,TestPad*%
%ADD33C,0.88900*%
%TA.AperFunction,SMDPad,CuDef*%
%ADD34R,0.55880X0.60960*%
%ADD35R,0.40000X0.85000*%
%ADD36R,0.60960X0.55880*%
%ADD37R,1.15000X1.40000*%
%ADD38R,1.20000X0.30000*%
%ADD39R,0.30000X1.20000*%
%ADD40R,1.30000X0.90000*%
%ADD41R,1.80000X0.55000*%
%ADD42R,0.90000X1.15000*%
%ADD43R,0.80000X1.15000*%
%ADD44R,0.70000X1.15000*%
%ADD45R,0.60960X2.03200*%
%ADD46R,1.45000X1.15000*%
%ADD47R,2.41140X1.11280*%
%TA.AperFunction,TestPad*%
%ADD48O,0.50800X0.25400*%
%ADD49O,0.88900X0.25400*%
%ADD50C,0.80000*%
%ADD51C,0.40000*%
%TA.AperFunction,ConnectorPad*%
%ADD52R,0.60000X1.35000*%
%ADD53R,0.40000X1.25000*%
%TA.AperFunction,SMDPad,CuDef*%
%ADD54R,0.30000X0.55000*%
%ADD55O,0.28000X2.60000*%
%ADD56R,1.80000X0.60000*%
%ADD57R,1.20000X1.00000*%
%ADD58R,1.40000X0.30000*%
%ADD59R,4.10000X2.65000*%
%ADD60R,1.90500X0.99060*%
%ADD61R,0.60000X0.40000*%
G04:AMPARAMS|DCode=62|XSize=0.8mm|YSize=0.55mm|CornerRadius=0mm|HoleSize=0mm|Usage=FLASHONLY|Rotation=90.000|XOffset=0mm|YOffset=0mm|HoleType=Round|Shape=RoundedRectangle|*
%AMROUNDEDRECTD62*
21,1,0.80000,0.55000,0,0,90.0*
21,1,0.80000,0.55000,0,0,90.0*
1,1,0.00000,0.27500,0.40000*
1,1,0.00000,0.27500,-0.40000*
1,1,0.00000,-0.27500,-0.40000*
1,1,0.00000,-0.27500,0.40000*
%
%ADD62ROUNDEDRECTD62*%
%ADD63R,0.52000X0.83000*%
%TA.AperFunction,TestPad*%
%ADD64O,0.25400X0.76200*%
%TA.AperFunction,SMDPad,CuDef*%
%ADD65R,0.40000X0.60000*%
%ADD67R,0.83000X0.63000*%
%TA.AperFunction,NonConductor*%
%ADD244C,1.00000*%
%ADD245C,0.93980*%
G36*
X1515216Y7108322D02*
X1530221Y7093318D01*
X1538342Y7073713D01*
Y7063103D01*
Y6984363D01*
Y6973753D01*
X1530221Y6954148D01*
X1515216Y6939143D01*
X1495612Y6931023D01*
X1474392D01*
X1454787Y6939143D01*
X1439782Y6954148D01*
X1431662Y6973753D01*
Y6984363D01*
Y7063103D01*
Y7073713D01*
X1439782Y7093318D01*
X1454787Y7108322D01*
X1474392Y7116443D01*
X1495612D01*
X1515216Y7108322D01*
D02*
G37*
G36*
X795216D02*
X810221Y7093318D01*
X818342Y7073713D01*
Y7063103D01*
Y6984363D01*
Y6973753D01*
X810221Y6954148D01*
X795216Y6939143D01*
X775612Y6931023D01*
X754392D01*
X734787Y6939143D01*
X719782Y6954148D01*
X711662Y6973753D01*
Y6984363D01*
Y7063103D01*
Y7073713D01*
X719782Y7093318D01*
X734787Y7108322D01*
X754392Y7116443D01*
X775612D01*
X795216Y7108322D01*
D02*
G37*
G36*
X2759900Y4821600D02*
X2703900D01*
Y4837600D01*
X2759900D01*
Y4821600D01*
D02*
G37*
G36*
X2451900D02*
X2395900D01*
Y4837600D01*
X2451900D01*
Y4821600D01*
D02*
G37*
G36*
X2759900Y4781600D02*
X2703900D01*
Y4797600D01*
X2759900D01*
Y4781600D01*
D02*
G37*
G36*
X2451900D02*
X2395900D01*
Y4797600D01*
X2451900D01*
Y4781600D01*
D02*
G37*
G36*
X2759900Y4741600D02*
X2703900D01*
Y4757600D01*
X2759900D01*
Y4741600D01*
D02*
G37*
G36*
X2451900D02*
X2395900D01*
Y4757600D01*
X2451900D01*
Y4741600D01*
D02*
G37*
G36*
X2759900Y4701600D02*
X2703900D01*
Y4717600D01*
X2759900D01*
Y4701600D01*
D02*
G37*
G36*
X2451900D02*
X2395900D01*
Y4717600D01*
X2451900D01*
Y4701600D01*
D02*
G37*
G36*
X2759900Y4661600D02*
X2703900D01*
Y4677600D01*
X2759900D01*
Y4661600D01*
D02*
G37*
G36*
X2451900D02*
X2395900D01*
Y4677600D01*
X2451900D01*
Y4661600D01*
D02*
G37*
G36*
X2759900Y4621600D02*
X2703900D01*
Y4637600D01*
X2759900D01*
Y4621600D01*
D02*
G37*
G36*
X2451900D02*
X2395900D01*
Y4637600D01*
X2451900D01*
Y4621600D01*
D02*
G37*
G36*
X2759900Y4581600D02*
X2703900D01*
Y4597600D01*
X2759900D01*
Y4581600D01*
D02*
G37*
G36*
X2451900D02*
X2395900D01*
Y4597600D01*
X2451900D01*
Y4581600D01*
D02*
G37*
G36*
X2759900Y4541600D02*
X2703900D01*
Y4557600D01*
X2759900D01*
Y4541600D01*
D02*
G37*
G36*
X2451900D02*
X2395900D01*
Y4557600D01*
X2451900D01*
Y4541600D01*
D02*
G37*
G36*
X2759900Y4501600D02*
X2703900D01*
Y4517600D01*
X2759900D01*
Y4501600D01*
D02*
G37*
G36*
X2451900D02*
X2395900D01*
Y4517600D01*
X2451900D01*
Y4501600D01*
D02*
G37*
G36*
X2759900Y4461600D02*
X2703900D01*
Y4477600D01*
X2759900D01*
Y4461600D01*
D02*
G37*
G36*
X2451900D02*
X2395900D01*
Y4477600D01*
X2451900D01*
Y4461600D01*
D02*
G37*
D13*
X1043088Y4043680D02*
D03*
X922872D02*
D03*
D14*
X1089660Y3789680D02*
D03*
X899660D02*
D03*
X994660Y3589680D02*
D03*
D15*
X1428400Y1984720D02*
D03*
X1493400D02*
D03*
X1558400D02*
D03*
X1623400D02*
D03*
Y1408720D02*
D03*
X1558400D02*
D03*
X1493400D02*
D03*
X1428400D02*
D03*
D16*
X1072659Y2032000D02*
D03*
X907261D02*
D03*
D17*
X1292220Y1710334D02*
D03*
Y1627226D02*
D03*
X589280Y691794D02*
D03*
Y608686D02*
D03*
D18*
X239674Y162560D02*
D03*
X156566D02*
D03*
D19*
X2855300Y6997700D02*
D03*
X3850300D02*
D03*
D20*
X3040300Y6662700D02*
D03*
X3165300D02*
D03*
X3665300D02*
D03*
X3540300D02*
D03*
X3290300D02*
D03*
X3415300D02*
D03*
D21*
X2740660Y4034356D02*
D03*
Y3914140D02*
D03*
X2489200Y4046220D02*
D03*
Y3926004D02*
D03*
D22*
X614934Y1811274D02*
D03*
X744931D02*
D03*
X6573094Y4684463D02*
D03*
X6703091D02*
D03*
X6269015Y4904087D02*
D03*
X6399012Y4904088D02*
D03*
X1603929Y3604006D02*
D03*
X1733926D02*
D03*
X852669Y6608266D02*
D03*
X982666D02*
D03*
D23*
X194940Y4005580D02*
D03*
Y3370580D02*
D03*
X189860Y4259420D02*
D03*
Y5519420D02*
D03*
Y5753100D02*
D03*
Y6388100D02*
D03*
D24*
X484940Y3750580D02*
D03*
Y3625580D02*
D03*
X479860Y4514420D02*
D03*
Y4639420D02*
D03*
Y4764420D02*
D03*
Y4889420D02*
D03*
Y5014420D02*
D03*
Y5264420D02*
D03*
Y5139420D02*
D03*
Y6008100D02*
D03*
Y6133100D02*
D03*
D25*
X1112340Y1517900D02*
D03*
Y1612900D02*
D03*
Y1707900D02*
D03*
X852340D02*
D03*
Y1517900D02*
D03*
Y1612900D02*
D03*
D26*
X921380Y337880D02*
D03*
X856380D02*
D03*
X791380D02*
D03*
X986380D02*
D03*
X1051380D02*
D03*
D27*
X921380Y182880D02*
D03*
D28*
X135860Y396240D02*
D03*
X370860D02*
D03*
X140940Y647700D02*
D03*
X375940D02*
D03*
D29*
X791586Y722071D02*
D03*
X791586Y592074D02*
D03*
X5992129Y2006253D02*
D03*
Y1876255D02*
D03*
Y2238104D02*
D03*
X5992129Y2108107D02*
D03*
X619807Y6892797D02*
D03*
Y7022794D02*
D03*
X506500Y6892797D02*
D03*
X506500Y7022794D02*
D03*
X7384340Y3375623D02*
D03*
Y3505620D02*
D03*
X6692633Y2836754D02*
D03*
Y2966751D02*
D03*
D30*
X916300Y1088591D02*
D03*
Y933249D02*
D03*
D31*
X4167911Y6175662D02*
D03*
X5037910Y2675661D02*
D03*
X5077911D02*
D03*
X5487911Y6175662D02*
D03*
X5447911D02*
D03*
X5407910D02*
D03*
X5367911D02*
D03*
X5327911D02*
D03*
X5287910D02*
D03*
X5247911D02*
D03*
X4967911D02*
D03*
X5007910D02*
D03*
X5047911D02*
D03*
X5087911D02*
D03*
X5127910D02*
D03*
X5167910D02*
D03*
X5207911D02*
D03*
X4687911D02*
D03*
X4727911D02*
D03*
X4767910D02*
D03*
X4807911D02*
D03*
X4847911D02*
D03*
X4887910D02*
D03*
X4927911D02*
D03*
X4647910D02*
D03*
X4607911D02*
D03*
X4567911D02*
D03*
X4527910D02*
D03*
X4487911D02*
D03*
X4447911D02*
D03*
X4407910D02*
D03*
X3927911D02*
D03*
X3967911D02*
D03*
X4007910D02*
D03*
X4047911D02*
D03*
X4087911D02*
D03*
X4127910D02*
D03*
X4367910D02*
D03*
X4327911D02*
D03*
X4287911D02*
D03*
X4247910D02*
D03*
X4207911D02*
D03*
Y6483662D02*
D03*
X4247910D02*
D03*
X4287911D02*
D03*
X4327911D02*
D03*
X4367910D02*
D03*
X4167911D02*
D03*
X4127910D02*
D03*
X4087911D02*
D03*
X4047911D02*
D03*
X4007910D02*
D03*
X3967911D02*
D03*
X3927911D02*
D03*
X4407910D02*
D03*
X4447911D02*
D03*
X4487911D02*
D03*
X4527910D02*
D03*
X4567911D02*
D03*
X4607911D02*
D03*
X4647910D02*
D03*
X4927911D02*
D03*
X4887910D02*
D03*
X4847911D02*
D03*
X4807911D02*
D03*
X4767910D02*
D03*
X4727911D02*
D03*
X4687911D02*
D03*
X5207911D02*
D03*
X5167910D02*
D03*
X5127910D02*
D03*
X5087911D02*
D03*
X5047911D02*
D03*
X5007910D02*
D03*
X4967911D02*
D03*
X5247911D02*
D03*
X5287910D02*
D03*
X5327911D02*
D03*
X5367911D02*
D03*
X5407910D02*
D03*
X5447911D02*
D03*
X5487911D02*
D03*
X3527911D02*
D03*
X3567911D02*
D03*
X3607910D02*
D03*
X3647911D02*
D03*
X3687911D02*
D03*
X3727911D02*
D03*
X3767911D02*
D03*
X3887911D02*
D03*
X3847911D02*
D03*
X3807911D02*
D03*
Y6175662D02*
D03*
X3847911D02*
D03*
X3887911D02*
D03*
X3767911D02*
D03*
X3727911D02*
D03*
X3687911D02*
D03*
X3647911D02*
D03*
X3607910D02*
D03*
X3567911D02*
D03*
X3527911D02*
D03*
X3157911Y2675662D02*
D03*
X3197911D02*
D03*
X3237910D02*
D03*
X3277911D02*
D03*
X3317911D02*
D03*
X3357910D02*
D03*
X3397911D02*
D03*
X3517911D02*
D03*
X3477910D02*
D03*
X3437911D02*
D03*
Y2983662D02*
D03*
X3477910D02*
D03*
X3517911D02*
D03*
X3397911D02*
D03*
X3357910D02*
D03*
X3317911D02*
D03*
X3277911D02*
D03*
X3237910D02*
D03*
X3197911D02*
D03*
X3157911D02*
D03*
X5117911D02*
D03*
X5077911D02*
D03*
X5037910D02*
D03*
X4997911D02*
D03*
X4957911D02*
D03*
X4917910D02*
D03*
X4877910D02*
D03*
X4597911D02*
D03*
X4637910D02*
D03*
X4677911D02*
D03*
X4717911D02*
D03*
X4757910D02*
D03*
X4797910D02*
D03*
X4837911D02*
D03*
X4317911D02*
D03*
X4357911D02*
D03*
X4397910D02*
D03*
X4437911D02*
D03*
X4477911D02*
D03*
X4517910D02*
D03*
X4557911D02*
D03*
X4277910D02*
D03*
X4237910D02*
D03*
X4197911D02*
D03*
X4157910D02*
D03*
X4117910D02*
D03*
X4077911D02*
D03*
X4037910D02*
D03*
X3557911D02*
D03*
X3597911D02*
D03*
X3637910D02*
D03*
X3677911D02*
D03*
X3717911D02*
D03*
X3757910D02*
D03*
X3797911D02*
D03*
X3997910D02*
D03*
X3957911D02*
D03*
X3917911D02*
D03*
X3877910D02*
D03*
X3837911D02*
D03*
Y2675662D02*
D03*
X3877910D02*
D03*
X3917911D02*
D03*
X3957911D02*
D03*
X3997910D02*
D03*
X3797911D02*
D03*
X3757910D02*
D03*
X3717911D02*
D03*
X3677911D02*
D03*
X3637910D02*
D03*
X3597911D02*
D03*
X3557911D02*
D03*
X4037910D02*
D03*
X4077911D02*
D03*
X4117910D02*
D03*
X4157910D02*
D03*
X4197911D02*
D03*
X4237910D02*
D03*
X4277910D02*
D03*
X4557911D02*
D03*
X4517910D02*
D03*
X4477911D02*
D03*
X4437911D02*
D03*
X4397910D02*
D03*
X4357911D02*
D03*
X4317911D02*
D03*
X4837911D02*
D03*
X4797910D02*
D03*
X4757910D02*
D03*
X4717911D02*
D03*
X4677911D02*
D03*
X4637910D02*
D03*
X4597911D02*
D03*
X4877910D02*
D03*
X4917910D02*
D03*
X4957911D02*
D03*
X4997911D02*
D03*
X5117911D02*
D03*
D33*
X5789183Y1627793D02*
D03*
Y1475393D02*
D03*
X4891644Y1358856D02*
D03*
X4889487Y1512287D02*
D03*
X1043300Y2453640D02*
D03*
X3131180Y2166620D02*
D03*
X2935600Y2171700D02*
D03*
X4194980Y2305447D02*
D03*
X3537070Y1621902D02*
D03*
X6856466Y2943462D02*
D03*
X6619763Y2211993D02*
D03*
X5803906Y2366602D02*
D03*
X6936100Y2194560D02*
D03*
D34*
X728940Y2976880D02*
D03*
X803940D02*
D03*
X689640Y6553200D02*
D03*
X614640D02*
D03*
X724428Y2817343D02*
D03*
X799409D02*
D03*
X757652Y2277897D02*
D03*
X682671D02*
D03*
X6340531Y5006306D02*
D03*
X6265551D02*
D03*
X1671848Y3495523D02*
D03*
X1746829D02*
D03*
X6340531Y5097582D02*
D03*
X6265551D02*
D03*
X6334697Y5468422D02*
D03*
X6259716D02*
D03*
X6340531Y5387306D02*
D03*
X6265551D02*
D03*
X1341648Y3482823D02*
D03*
X1416629D02*
D03*
X886988Y2847823D02*
D03*
X961969D02*
D03*
X6371011Y6591266D02*
D03*
X6296031D02*
D03*
X6208451D02*
D03*
X6133471D02*
D03*
X6015411D02*
D03*
X5940431D02*
D03*
X5326940Y7002053D02*
D03*
X5401921D02*
D03*
X5553337Y7039296D02*
D03*
X5628318D02*
D03*
X5551679Y6716180D02*
D03*
X5626660D02*
D03*
X5553000Y6958445D02*
D03*
X5627981D02*
D03*
X5326940Y6921920D02*
D03*
X5401921D02*
D03*
X5553337Y7120576D02*
D03*
X5628318D02*
D03*
X5551679Y6797099D02*
D03*
X5626660D02*
D03*
X5553157Y6878740D02*
D03*
X5628138D02*
D03*
X5326940Y6752084D02*
D03*
X5401921D02*
D03*
X5551628Y6635382D02*
D03*
X5626609D02*
D03*
X5326940Y6831662D02*
D03*
X5401921D02*
D03*
X7145631Y4378897D02*
D03*
X7220612D02*
D03*
X6755571Y4220713D02*
D03*
X6680590D02*
D03*
X6755571Y4141475D02*
D03*
X6680590D02*
D03*
X6755571Y4062237D02*
D03*
X6680590D02*
D03*
X6755571Y3982999D02*
D03*
X6680590D02*
D03*
X6755571Y3903762D02*
D03*
X6680590D02*
D03*
X6755571Y3824524D02*
D03*
X6680590D02*
D03*
X6755571Y3745286D02*
D03*
X6680590D02*
D03*
X6755571Y3666048D02*
D03*
X6680590D02*
D03*
Y3586810D02*
D03*
X6755571D02*
D03*
Y3507572D02*
D03*
X6680590D02*
D03*
X7220612Y4289997D02*
D03*
X7145631D02*
D03*
X7315544Y1450988D02*
D03*
X7390525D02*
D03*
X7186207Y6509703D02*
D03*
X7111227D02*
D03*
D35*
X2397120Y2106930D02*
D03*
X2473320D02*
D03*
Y2272030D02*
D03*
X2397120D02*
D03*
X1111371Y6535992D02*
D03*
X1187571D02*
D03*
Y6370892D02*
D03*
X1111371D02*
D03*
D36*
X2218837Y3149549D02*
D03*
Y3074568D02*
D03*
Y3324809D02*
D03*
Y3249828D02*
D03*
X2077080Y2777541D02*
D03*
Y2702560D02*
D03*
X1812420Y6493061D02*
D03*
Y6568042D02*
D03*
X1730746Y6493061D02*
D03*
Y6568042D02*
D03*
X1547383Y6466493D02*
D03*
Y6541473D02*
D03*
X1466586Y6541524D02*
D03*
Y6466543D02*
D03*
X5892841Y1870261D02*
D03*
Y1945242D02*
D03*
X4021393Y1569379D02*
D03*
Y1644360D02*
D03*
X1975767Y6493061D02*
D03*
Y6568042D02*
D03*
X2057441Y6493061D02*
D03*
Y6568042D02*
D03*
X894707Y5514719D02*
D03*
Y5589700D02*
D03*
X1320806Y5406982D02*
D03*
Y5332001D02*
D03*
X1894093Y6493061D02*
D03*
Y6568042D02*
D03*
X5892841Y2173842D02*
D03*
Y2098861D02*
D03*
X7002285Y3157708D02*
D03*
Y3232689D02*
D03*
X7083565Y3155168D02*
D03*
Y3230149D02*
D03*
X7285280Y3311259D02*
D03*
Y3386240D02*
D03*
X7295923Y3144991D02*
D03*
Y3219971D02*
D03*
X7401637Y4339908D02*
D03*
Y4414889D02*
D03*
X3760510Y2053835D02*
D03*
Y2128816D02*
D03*
X3840011Y2053835D02*
D03*
Y2128816D02*
D03*
X3681009Y2053835D02*
D03*
Y2128816D02*
D03*
X3601508Y2053835D02*
D03*
Y2128816D02*
D03*
X3522007Y2056375D02*
D03*
Y2131356D02*
D03*
X3442506Y2128816D02*
D03*
Y2053835D02*
D03*
X3363005Y2128816D02*
D03*
Y2053835D02*
D03*
X7414730Y3179451D02*
D03*
Y3254431D02*
D03*
X4778210Y1415767D02*
D03*
Y1340786D02*
D03*
X4698987Y1415767D02*
D03*
Y1340786D02*
D03*
X5754582Y6973448D02*
D03*
Y6898467D02*
D03*
Y6774892D02*
D03*
Y6699911D02*
D03*
X7300037Y4376789D02*
D03*
Y4301808D02*
D03*
X6514168Y2906747D02*
D03*
Y2831766D02*
D03*
X6433807Y2906747D02*
D03*
Y2831766D02*
D03*
X6594528Y2906747D02*
D03*
Y2831766D02*
D03*
D37*
X699130Y2437613D02*
D03*
X859150Y2657627D02*
D03*
X699130D02*
D03*
X859150Y2437613D02*
D03*
X1190617Y5365392D02*
D03*
X1030597Y5585407D02*
D03*
Y5365392D02*
D03*
X1190617Y5585407D02*
D03*
D38*
X1105471Y3042302D02*
D03*
Y3092302D02*
D03*
Y3142302D02*
D03*
Y3192302D02*
D03*
X1955471D02*
D03*
Y3142302D02*
D03*
Y3092302D02*
D03*
Y3042302D02*
D03*
Y2992302D02*
D03*
Y2942302D02*
D03*
Y2892302D02*
D03*
Y2842302D02*
D03*
Y2792302D02*
D03*
Y2742302D02*
D03*
Y2692302D02*
D03*
Y2642302D02*
D03*
X1105471D02*
D03*
Y2692302D02*
D03*
Y2742302D02*
D03*
Y2792302D02*
D03*
Y2842302D02*
D03*
Y2892302D02*
D03*
Y2942302D02*
D03*
Y2992302D02*
D03*
D39*
X1255471Y3342302D02*
D03*
X1305471D02*
D03*
X1355471D02*
D03*
X1405471D02*
D03*
X1455471D02*
D03*
X1505471D02*
D03*
X1555471D02*
D03*
X1605471D02*
D03*
X1655471D02*
D03*
X1705471D02*
D03*
X1755471D02*
D03*
X1805471D02*
D03*
Y2492302D02*
D03*
X1755471D02*
D03*
X1705471D02*
D03*
X1655471D02*
D03*
X1605471D02*
D03*
X1555471D02*
D03*
X1505471D02*
D03*
X1455471D02*
D03*
X1405471D02*
D03*
X1355471D02*
D03*
X1305471D02*
D03*
X1255471D02*
D03*
D40*
X1871340Y3676480D02*
D03*
Y3496480D02*
D03*
D41*
X7355200Y464800D02*
D03*
Y144800D02*
D03*
D42*
X6978000Y540000D02*
D03*
X6428000D02*
D03*
D43*
X6855000D02*
D03*
X6551000D02*
D03*
D44*
X6653000D02*
D03*
X6753000D02*
D03*
D45*
X6436883Y1348393D02*
D03*
X6309883Y1348392D02*
D03*
X6182883Y1348393D02*
D03*
Y789593D02*
D03*
X6309883Y789593D02*
D03*
X6436883Y789593D02*
D03*
X6563884D02*
D03*
Y1348393D02*
D03*
D46*
X6009000Y1106740D02*
D03*
Y1336740D02*
D03*
X6754383Y979393D02*
D03*
Y1209393D02*
D03*
D47*
X6242330Y1813500D02*
D03*
X6650470D02*
D03*
D48*
X6626339Y3997760D02*
D03*
X6626560Y4047920D02*
D03*
D49*
X6331043Y5983503D02*
D03*
Y6169539D02*
D03*
Y6130335D02*
D03*
Y6023082D02*
D03*
D50*
X979800Y3096260D02*
D03*
D51*
X1115991Y6633782D02*
D03*
X1194731D02*
D03*
D52*
X1205002Y7027503D02*
D03*
X1045002D02*
D03*
D53*
X995002Y6762503D02*
D03*
X1060002D02*
D03*
X1255002D02*
D03*
X1190002D02*
D03*
X1125002D02*
D03*
D54*
X3704000Y1939300D02*
D03*
X3754000D02*
D03*
X3804000D02*
D03*
Y1789300D02*
D03*
X3704000D02*
D03*
X3499200Y1926600D02*
D03*
X3449200D02*
D03*
X3399200D02*
D03*
Y1776600D02*
D03*
X3499200D02*
D03*
D55*
X5526191Y1030934D02*
D03*
X5476191D02*
D03*
X5426191D02*
D03*
X5376191D02*
D03*
X5326191D02*
D03*
X5276191D02*
D03*
X5226191D02*
D03*
X5176191D02*
D03*
X5126191D02*
D03*
X5076191D02*
D03*
X5026191D02*
D03*
X4976191D02*
D03*
X4926191D02*
D03*
X4876191D02*
D03*
X4826191D02*
D03*
X4776191D02*
D03*
X4726191D02*
D03*
X4676191D02*
D03*
X4626191D02*
D03*
D56*
X1573191Y6364442D02*
D03*
X2123191Y6364442D02*
D03*
X1573191Y5983442D02*
D03*
X1573190Y5602442D02*
D03*
X1573191Y5475442D02*
D03*
Y6110442D02*
D03*
X1573190Y6237442D02*
D03*
X1573191Y5729442D02*
D03*
Y5856442D02*
D03*
X2123191Y5475442D02*
D03*
Y5602442D02*
D03*
X2123190Y5729442D02*
D03*
X2123191Y5856442D02*
D03*
Y5983442D02*
D03*
X2123190Y6110442D02*
D03*
X2123191Y6237442D02*
D03*
D57*
X5389380Y6652260D02*
D03*
X4529380D02*
D03*
Y7102260D02*
D03*
X5389380D02*
D03*
D58*
X6460908Y5375660D02*
D03*
Y5175660D02*
D03*
Y5125660D02*
D03*
Y5425660D02*
D03*
Y5525660D02*
D03*
Y5575660D02*
D03*
Y5675660D02*
D03*
Y5725660D02*
D03*
Y5825660D02*
D03*
Y5875660D02*
D03*
Y6125660D02*
D03*
Y6175660D02*
D03*
Y5975660D02*
D03*
Y6025660D02*
D03*
Y5225660D02*
D03*
Y5275660D02*
D03*
Y5325660D02*
D03*
Y5625660D02*
D03*
Y5475660D02*
D03*
Y5775660D02*
D03*
Y5925660D02*
D03*
Y6075660D02*
D03*
Y6225660D02*
D03*
Y5075660D02*
D03*
D59*
X6730888Y6403820D02*
D03*
Y4884723D02*
D03*
D60*
X4347331Y1362822D02*
D03*
Y1662542D02*
D03*
D61*
X7386880Y4522740D02*
D03*
Y4662740D02*
D03*
D62*
X4806811Y1869282D02*
D03*
Y1632282D02*
D03*
X4711811D02*
D03*
X4901811Y1869282D02*
D03*
X4711811D02*
D03*
X4901811Y1632282D02*
D03*
X5142091Y1869282D02*
D03*
Y1632282D02*
D03*
X5047091D02*
D03*
Y1869282D02*
D03*
X5237091D02*
D03*
Y1632282D02*
D03*
X5507727Y1877160D02*
D03*
Y1640160D02*
D03*
X5412727D02*
D03*
Y1877160D02*
D03*
X5602727D02*
D03*
Y1640160D02*
D03*
D63*
X7414247Y3054940D02*
D03*
X7348207Y2907620D02*
D03*
X7284707Y3054940D02*
D03*
D64*
X2417440Y1986280D02*
D03*
X2453000D02*
D03*
D65*
X7253680Y4503840D02*
D03*
X7113680D02*
D03*
D67*
X4542911Y1398642D02*
D03*
Y1621642D02*
D03*
D244*
X2861547Y2966763D02*
G03*
X2721909Y3104482I-223637J-87101D01*
G01*
X2724407Y2655790D02*
G03*
X2861914Y2793507I-86496J223872D01*
G01*
X2549304Y3102707D02*
G03*
X2414332Y2966912I88607J-223045D01*
G01*
X2414902Y2790965D02*
G03*
X2553938Y2654832I223009J88697D01*
G01*
X2414902Y6150925D02*
G03*
X2553938Y6014792I223009J88697D01*
G01*
X2549304Y6462667D02*
G03*
X2414332Y6326872I88607J-223045D01*
G01*
X2724407Y6015750D02*
G03*
X2861914Y6153467I-86496J223872D01*
G01*
X2861547Y6326723D02*
G03*
X2721909Y6464442I-223637J-87101D01*
G01*
X5774862Y2790965D02*
G03*
X5913898Y2654832I223009J88697D01*
G01*
X5909264Y3102707D02*
G03*
X5774292Y2966912I88607J-223045D01*
G01*
X6084367Y2655790D02*
G03*
X6221874Y2793507I-86496J223872D01*
G01*
X6221507Y2966763D02*
G03*
X6081869Y3104482I-223637J-87101D01*
G01*
D245*
X1382702Y6760003D02*
G03*
X1382702Y6760003I-12700J0D01*
G01*
X892702D02*
G03*
X892702Y6760003I-12700J0D01*
G01*
%TF.MD5,ad7c0c6d528c1b377c7b1579931e4566*%
M02*
