%FSTAX23Y23*%
%MOIN*%
%SFA1B1*%

%IPPOS*%
%AMD100*
4,1,8,-0.039400,0.014800,-0.039400,-0.014800,-0.024600,-0.029500,0.024600,-0.029500,0.039400,-0.014800,0.039400,0.014800,0.024600,0.029500,-0.024600,0.029500,-0.039400,0.014800,0.0*
1,1,0.029528,-0.024600,0.014800*
1,1,0.029528,-0.024600,-0.014800*
1,1,0.029528,0.024600,-0.014800*
1,1,0.029528,0.024600,0.014800*
%
%ADD10C,0.010000*%
%ADD12C,0.004000*%
%ADD68C,0.008000*%
%ADD69C,0.005000*%
%ADD71C,0.015000*%
%ADD72C,0.020000*%
%ADD73C,0.006000*%
%ADD82O,0.047244X0.094488*%
%ADD83O,0.041339X0.082677*%
%ADD84C,0.059055*%
%ADD85R,0.059055X0.059055*%
%ADD87C,0.051496*%
%ADD88O,0.078740X0.094488*%
%ADD89C,0.078740*%
%ADD90O,0.039370X0.066929*%
%ADD91C,0.236220*%
%ADD92C,0.216535*%
%ADD93O,0.043307X0.074803*%
%ADD94C,0.049212*%
%ADD95C,0.039370*%
%ADD96O,0.055118X0.118110*%
%ADD97O,0.055118X0.122047*%
%ADD98O,0.055118X0.082677*%
%ADD99C,0.070866*%
G04~CAMADD=100~8~0.0~0.0~590.6~787.4~147.6~0.0~15~0.0~0.0~0.0~0.0~0~0.0~0.0~0.0~0.0~0~0.0~0.0~0.0~90.0~788.0~591.0*
%ADD100D100*%
%ADD101O,0.098425X0.078740*%
%ADD102C,0.015748*%
%ADD103C,0.019685*%
%ADD104C,0.157480*%
%LNx98_carrier_v1r2_12082022_copper_signal_2-1*%
%LPD*%
G36*
X02321Y02805D02*
X02315Y02802D01*
X02306Y02795*
X02301Y0279*
X02296Y02791*
X02296Y02792*
X02293Y02796*
X02289Y02798*
X02285Y02799*
X0228Y02798*
X02276Y02796*
X02274Y02792*
X02273Y02788*
X02172*
X0217Y02793*
X02172Y02794*
X02174Y02798*
X02175Y02802*
X02175Y02805*
X02178Y0281*
X0232*
X02321Y02805*
G37*
G36*
X02085Y02814D02*
X02084Y02813D01*
X02081Y02812*
X02077Y0281*
X02074Y02806*
X02073Y02801*
X02074Y02797*
X02077Y02793*
X02081Y0279*
X02082Y0279*
Y0278*
X02077Y02775*
X0201*
X02005Y02773*
X01984Y02752*
X0198Y02754*
X01979Y02758*
X01979Y0276*
X01979Y0276*
X0198Y02761*
X01981Y02766*
X0198Y02771*
X01977Y02774*
X01973Y02777*
X01969Y02778*
X01964Y02777*
X0196Y02774*
X01958Y02771*
X01957Y02766*
X01958Y02761*
X01958Y0276*
X01956Y02755*
X01908*
X01906Y0276*
X01906Y0276*
X01907Y02765*
X01906Y0277*
X01903Y02773*
X01899Y02776*
X01894Y02777*
X0189Y02776*
X01886Y02773*
X01883Y0277*
X01882Y02765*
X01883Y0276*
X01883Y0276*
X01881Y02755*
X01855*
X01466*
X01465Y02759*
X01464Y0276*
X01467Y02764*
X01468Y02769*
X01467Y02773*
X01464Y02777*
X0146Y0278*
X01456Y02781*
X01451Y0278*
X01447Y02777*
X01444Y02773*
X01443Y02769*
X01444Y02764*
X01447Y0276*
X01446Y02759*
X01445Y02755*
X01369*
X01367Y0276*
X0137Y02762*
X01373Y02766*
X01374Y02771*
X01373Y02775*
X0137Y02779*
X01366Y02782*
X01362Y02783*
X01357Y02782*
X01353Y02779*
X0135Y02775*
X01349Y02771*
X0135Y02766*
X01353Y02762*
X01356Y0276*
X01354Y02755*
X01296*
X01296Y0276*
X01296Y0276*
X013Y02763*
X01303Y02767*
X01304Y02772*
X01303Y02776*
X013Y0278*
X01296Y02783*
X01292Y02784*
X01287Y02783*
X01283Y0278*
X0128Y02776*
X01279Y02772*
X0128Y02767*
X01283Y02763*
X01287Y0276*
X01287Y0276*
X01287Y02755*
X01263*
X0126Y0276*
X01261Y02764*
X0126Y02768*
X01257Y02772*
X01253Y02775*
X01249Y02776*
X01244Y02775*
X0124Y02772*
X01237Y02768*
X01236Y02764*
X01237Y0276*
X01234Y02755*
X01182*
X01182Y02756*
X0118Y0276*
X01182Y02763*
X01183Y02768*
X01182Y02772*
X01179Y02776*
X01175Y02779*
X01171Y0278*
X01166Y02779*
X01162Y02776*
X01159Y02772*
X01158Y02768*
X01159Y02763*
X01161Y0276*
X01159Y02756*
X01159Y02755*
X01036*
X01035Y02755*
X01035Y02755*
X01034Y02755*
X01032Y02754*
X01032Y02754*
X01032Y02754*
X01028Y02749*
X01028Y02748*
X01028Y02748*
X01028Y02747*
X01027Y02745*
X01027Y02745*
X01027Y02742*
X01025Y0274*
X01022Y02738*
X0102Y02738*
X01017Y02738*
X01014Y0274*
X01012Y02742*
X01012Y02745*
X01012Y02745*
X01011Y02747*
X01011Y02748*
X01011Y02748*
X01011Y02749*
X01007Y02754*
X01007Y02754*
X01007Y02754*
X01005Y02755*
X01004Y02755*
X01004Y02755*
X01003Y02755*
X00995*
X00992Y02754*
X00987Y02756*
X00988Y02764*
X00987Y02776*
X00982Y02786*
X00975Y02795*
X00966Y02802*
X00956Y02807*
X00944Y02808*
X00933Y02807*
X00923Y02802*
X00913Y02795*
X00907Y02786*
X00902Y02776*
X00901Y02764*
X00902Y02753*
X00907Y02743*
X00913Y02734*
X00923Y02727*
X00933Y02722*
X00944Y02721*
X00956Y02722*
X00966Y02727*
X00975Y02734*
X00982Y02743*
X00985Y0275*
X0099Y02749*
Y0268*
X00985Y02679*
X00982Y02686*
X00975Y02695*
X00966Y02702*
X00956Y02707*
X00944Y02708*
X00933Y02707*
X00923Y02702*
X00913Y02695*
X00907Y02686*
X00902Y02676*
X00901Y02664*
X00902Y02653*
X00907Y02643*
X00913Y02634*
X00914Y02633*
X00912Y02628*
X00912Y02628*
X00908Y02625*
X00905Y02621*
X00904Y02617*
X00905Y02613*
X00904Y02611*
X00901Y02609*
X00899Y02611*
X00897Y02611*
X00897Y02612*
Y02617*
X00896Y02618*
X00896Y02619*
X00896Y02619*
X00896Y0262*
X00894Y0262*
X00893Y02621*
X00891Y02621*
X00889Y02623*
X00887Y02626*
X00886Y02629*
X00886Y0263*
X00885Y02631*
X00885Y02631*
X00885Y02632*
X00883Y02632*
X00882Y02632*
X00881*
X00878Y02637*
X00882Y02643*
X00887Y02653*
X00888Y02664*
X00887Y02676*
X00882Y02686*
X00875Y02695*
X00866Y02702*
X00856Y02707*
X00844Y02708*
X00833Y02707*
X00823Y02702*
X00805Y0272*
X00802Y02722*
X00798Y02723*
X00769*
X00768Y02728*
X00775Y02734*
X00782Y02743*
X00787Y02753*
X00788Y02764*
X00787Y02776*
X00782Y02786*
X00775Y02795*
X00766Y02802*
X00756Y02807*
X00744Y02808*
X00733Y02807*
X00723Y02802*
X00713Y02795*
X00707Y02786*
X00702Y02776*
X00701Y02764*
X00702Y02753*
X00707Y02743*
X00713Y02734*
X00721Y02728*
X00719Y02723*
X00623*
X00622Y02724*
X00618Y02727*
X00614Y02727*
X00609Y02727*
X00607Y02725*
X00603Y02726*
X00602Y02731*
X00602Y02731*
X00607Y02737*
X00609Y02743*
X0061Y0275*
Y02781*
X00609Y02788*
X00607Y02794*
X00602Y02799*
X00597Y02803*
X00591Y02806*
X00584Y02807*
X00577Y02806*
X00571Y02803*
X00566Y02799*
X00562Y02794*
X00559Y02788*
X00558Y02781*
Y0275*
X00559Y02743*
X00562Y02737*
X00566Y02731*
X00568Y0273*
X00566Y02725*
X00319*
X00317Y0273*
X00319Y02731*
X00323Y02737*
X00326Y02743*
X00327Y0275*
Y02781*
X00326Y02788*
X00323Y02794*
X00319Y02799*
X00314Y02803*
X00307Y02806*
X00301Y02807*
X00294Y02806*
X00288Y02803*
X00282Y02799*
X00278Y02794*
X00276Y02789*
X00271Y02786*
X00258Y028*
X00255Y02802*
X00253Y02802*
X00253Y02803*
X00249Y02806*
X00244Y02806*
X00239Y02806*
X00235Y02803*
X00233Y02799*
X00232Y02794*
X00233Y0279*
X00235Y02786*
X00239Y02783*
X00244Y02782*
X00248Y02783*
X00261Y02771*
Y02717*
X00262Y02714*
X00264Y02711*
X00266Y02709*
X00269Y02707*
X00272Y02706*
X00606*
X00609Y02704*
X00614Y02703*
X00618Y02704*
X00619Y02704*
X00717*
X00719Y02699*
X00713Y02695*
X00707Y02686*
X00702Y02676*
X00701Y02664*
X00702Y02653*
X00707Y02643*
X00713Y02634*
X00723Y02627*
X00733Y02622*
X00734Y02622*
X00735Y02622*
X00736Y02617*
X00735Y02614*
X00734Y0261*
X00734Y02608*
X0073Y02605*
X00727Y02608*
X00727Y02609*
X00726Y02613*
X00723Y02617*
X00719Y0262*
X00715Y02621*
X0071Y0262*
X00706Y02617*
X00703Y02613*
X00702Y02609*
X00703Y02604*
X00706Y026*
X0071Y02598*
X00715Y02597*
X00715Y02597*
X00786Y02526*
X00789Y02524*
X00792Y02523*
X00854*
Y01363*
X00849Y01362*
X00848Y01364*
X00847Y01366*
X00835Y01378*
X00833Y01379*
X0083Y0138*
X00796*
X00795Y01381*
X00791Y01384*
X00786Y01385*
X00782Y01384*
X00778Y01381*
X00775Y01377*
X00774Y01373*
X00775Y01368*
X00778Y01364*
X00782Y01361*
X00786Y0136*
X00791Y01361*
X00795Y01364*
X00796Y01365*
X00827*
X00834Y01358*
Y01318*
X00833Y01317*
X0083Y01313*
X00829Y01308*
X0083Y01304*
X00833Y013*
X00837Y01297*
X00842Y01296*
X00846Y01297*
X00849Y01299*
X00853Y01297*
X00854Y01297*
Y01258*
X00818*
X00816Y01259*
X00815Y01261*
X00813Y01265*
X00809Y01268*
X00804Y01269*
X008Y01268*
X00796Y01265*
X00793Y01261*
X00792Y01257*
X00793Y01252*
X00796Y01248*
X008Y01245*
X00804Y01244*
X00809Y01245*
X00809Y01245*
X00814Y01243*
Y01231*
X00809Y01228*
X00809Y01228*
X00804Y01229*
X008Y01228*
X00796Y01226*
X00793Y01222*
X00792Y01217*
X00793Y01213*
X00796Y01209*
X008Y01206*
X00804Y01205*
X00809Y01206*
X00809Y01206*
X00814Y01203*
Y0095*
X0048*
X0048Y00955*
X00483Y00955*
X00487Y00958*
X00489Y00962*
X0049Y00967*
X00489Y00971*
X00487Y00975*
X00483Y00978*
X00478Y00979*
X00474Y00978*
X0047Y00975*
X00467Y00971*
X00466Y00967*
X00467Y00962*
X0047Y00958*
X00474Y00955*
X00477Y00955*
X00476Y0095*
X00283*
X0028Y00948*
X00279Y00945*
Y00817*
X00279Y00816*
X00279Y00816*
X00279*
X0028Y00815*
X0028Y00814*
X0028Y00813*
X00281Y00813*
X00282Y00812*
X00282Y00812*
X00283Y00812*
X00283Y00812*
X01044*
Y0076*
X0104Y00757*
X01036Y00759*
X01024Y0076*
X01013Y00759*
X01001Y00755*
X00991Y0075*
X00982Y00742*
X00975Y00733*
X00969Y00723*
X00966Y00712*
X00965Y007*
Y00685*
X00966Y00673*
X00969Y00662*
X00975Y00651*
X00982Y00642*
X00991Y00635*
X00994Y00633*
Y00541*
Y00476*
X00991Y00474*
X00982Y00467*
X00975Y00458*
X00969Y00448*
X00966Y00436*
X00965Y00425*
Y00409*
X00965Y00401*
X00959Y00395*
X00925*
X00924Y004*
X0093Y00402*
X00938Y00408*
X00945Y00417*
X00949Y00426*
X0095Y00437*
X00949Y00447*
X00945Y00456*
X00938Y00465*
X0093Y00471*
X00925Y00473*
Y00479*
X0093Y00481*
X00938Y00487*
X00945Y00495*
X00949Y00505*
X0095Y00515*
X00949Y00526*
X00945Y00535*
X00938Y00543*
X0093Y0055*
X00925Y00552*
Y00557*
X0093Y0056*
X00938Y00566*
X00945Y00574*
X00949Y00584*
X0095Y00594*
X00949Y00604*
X00945Y00614*
X00938Y00622*
X0093Y00628*
X00925Y00631*
Y00636*
X0093Y00638*
X00938Y00645*
X00945Y00653*
X00949Y00662*
X0095Y00673*
X00949Y00683*
X00945Y00693*
X00938Y00701*
X0093Y00707*
X0092Y00711*
X0091Y00713*
X009Y00711*
X0089Y00707*
X00882Y00701*
X00876Y00693*
X00872Y00683*
X0087Y00673*
X00872Y00662*
X00876Y00653*
X00882Y00645*
X0089Y00638*
X00896Y00636*
Y00631*
X0089Y00628*
X00882Y00622*
X00876Y00614*
X00872Y00604*
X0087Y00594*
X00872Y00584*
X00876Y00574*
X00882Y00566*
X0089Y0056*
X00896Y00557*
Y00552*
X0089Y0055*
X00882Y00543*
X00876Y00535*
X00872Y00526*
X0087Y00515*
X00872Y00505*
X00876Y00495*
X00882Y00487*
X0089Y00481*
X00896Y00479*
Y00473*
X0089Y00471*
X00882Y00465*
X00876Y00456*
X00872Y00447*
X0087Y00437*
X00872Y00426*
X00876Y00417*
X00882Y00408*
X0089Y00402*
X00896Y004*
X00895Y00395*
X00862*
X00855Y00402*
X00856Y00409*
Y00425*
X00854Y00436*
X00851Y00448*
X00846Y00458*
X00838Y00467*
X00829Y00474*
X00826Y00476*
Y00633*
X00829Y00635*
X00838Y00642*
X00846Y00651*
X00851Y00662*
X00854Y00673*
X00856Y00685*
Y007*
X00854Y00712*
X00851Y00723*
X00846Y00733*
X00838Y00742*
X00829Y0075*
X00819Y00755*
X00808Y00759*
X00796Y0076*
X00784Y00759*
X00773Y00755*
X00763Y0075*
X00754Y00742*
X00746Y00733*
X00741Y00723*
X00737Y00712*
X00736Y007*
Y00685*
X00737Y00673*
X00741Y00662*
X00746Y00651*
X00754Y00642*
X00763Y00635*
X00766Y00633*
Y00476*
X00763Y00474*
X00754Y00467*
X00746Y00458*
X00741Y00448*
X00737Y00436*
X00736Y00425*
Y00409*
X00737Y00397*
X00741Y00386*
X00746Y00376*
X00754Y00367*
X00763Y00359*
X00766Y00358*
Y00323*
X00737Y00294*
X00717*
X00717*
X00709Y00293*
X00702Y0029*
X00696Y00285*
X00541Y0013*
X0053*
Y00145*
X00529Y00153*
X00526Y0016*
X00521Y00166*
X00509Y00179*
X00502Y00184*
X00495Y00187*
X00489Y00188*
X00485Y00195*
X00479Y00204*
X0047Y0021*
X0046Y00214*
X0045Y00216*
X00439Y00214*
X00429Y0021*
X00421Y00204*
X00414Y00195*
X0041Y00185*
X00409Y00175*
Y00134*
X0041Y00123*
X00414Y00113*
X00421Y00105*
X00429Y00098*
X00439Y00094*
X0045Y00092*
X00452Y00093*
X00456Y0009*
Y00048*
X00458Y00036*
X00462Y00026*
X00466Y0002*
X00464Y00015*
X00261*
X00258Y0002*
X00263Y00026*
X00267Y00036*
X00268Y00048*
Y0009*
X00272Y00093*
X00275Y00092*
X00285Y00094*
X00295Y00098*
X00304Y00105*
X0031Y00113*
X00314Y00123*
X00316Y00134*
Y00175*
X00314Y00185*
X0031Y00195*
X00304Y00204*
X00295Y0021*
X00285Y00214*
X00275Y00216*
X00264Y00214*
X00254Y0021*
X00246Y00204*
X00239Y00195*
X00236Y00188*
X00234Y00188*
X00231Y00189*
X0023Y00193*
X00228Y00197*
X00224Y00199*
X00219Y002*
X00217Y002*
X00212Y00203*
Y00346*
X00217Y00349*
X00219Y00348*
X00224Y00349*
X00228Y00352*
X0023Y00356*
X00231Y00361*
X0023Y00365*
X00228Y00369*
X00224Y00372*
X00219Y00373*
X00217Y00372*
X00212Y00375*
Y01588*
X00216Y01592*
X0022Y01598*
X00223Y01606*
X00225Y01614*
Y01715*
X00331*
X00331Y01715*
X00332Y01715*
X00335Y01711*
X00339Y01708*
X00343Y01707*
X00348Y01708*
X00352Y01711*
X00354Y01715*
X00355Y01715*
X00355Y01715*
X00555*
X00558Y01716*
X0056Y0172*
Y0183*
X00558Y01833*
X00555Y01834*
X00322*
X00322Y01834*
X00322Y01834*
X0032Y01833*
X00318Y01837*
X00314Y0184*
X00309Y01841*
X00305Y0184*
X00301Y01837*
X00298Y01833*
X00297Y01834*
X00297Y01834*
X00296Y01834*
X00225*
Y02196*
X00223Y02203*
X0022Y02211*
X00216Y02217*
X00209Y02222*
X00202Y02225*
X00194Y02226*
X00186Y02225*
X00179Y02222*
X00173Y02217*
X00168Y02211*
X00165Y02203*
X00164Y02196*
Y01834*
X00015*
Y02819*
X02083*
X02085Y02814*
G37*
G36*
X02143Y0277D02*
X02142Y02769D01*
X02141Y02765*
Y02729*
X02142Y02725*
X02151Y02716*
X0215Y02714*
X02151Y02709*
X02154Y02705*
X02158Y02703*
X02163Y02702*
X02165Y02702*
X0217Y02699*
Y02667*
X02165Y02665*
X02164Y02665*
X0216Y02666*
X02155Y02665*
X02151Y02663*
X02148Y02659*
X02147Y02654*
X02148Y0265*
X0215Y02648*
X02147Y02643*
X02105*
X02103Y02647*
X02102Y02648*
Y02649*
X02102Y02649*
X02101Y0265*
X02083Y02669*
X02084Y02674*
X02086Y02676*
X02089Y0268*
X0209Y02684*
X02089Y02689*
X02086Y02693*
X02082Y02696*
X02078Y02696*
X02077Y02696*
X02073Y02696*
X02072Y027*
X02072Y02701*
X02069Y02705*
X02065Y02707*
X02061Y02708*
X02056Y02707*
X02052Y02705*
X02048Y02704*
X02001Y02751*
X02012Y02762*
X02079*
X02081Y02762*
X02083Y02758*
X02062Y02737*
X02055*
X02055Y02738*
X02052Y02742*
X02048Y02744*
X02043Y02745*
X02039Y02744*
X02035Y02742*
X02032Y02738*
X02031Y02733*
X02032Y02728*
X02035Y02724*
X02039Y02722*
X02043Y02721*
X02048Y02722*
X0205Y02724*
X02065*
X02069Y02725*
X02119Y02775*
X02141*
X02143Y0277*
G37*
G36*
X01978Y02746D02*
X01972Y0274D01*
X0197Y02741*
X01965Y0274*
X01961Y02737*
X01959Y02733*
X01958Y02729*
X01959Y02724*
X01961Y0272*
X01965Y02718*
X0197Y02717*
X01975Y02718*
X01979Y0272*
X01981Y02724*
X01982Y02729*
X01982Y02731*
X01998Y02748*
X02049Y02697*
X02048Y02696*
X02049Y02691*
X02052Y02687*
X02056Y02685*
X02061Y02684*
X02062Y02684*
X02068Y02677*
X02069Y02676*
X02071Y02675*
X02098Y02647*
X02097Y02643*
X02089*
X02083Y02641*
X02079Y02638*
X02076Y02635*
X02073Y02631*
X02072Y02625*
X02073Y0262*
X02076Y02615*
X02075Y0261*
X02073Y02608*
X02072Y02604*
X02073Y02599*
X02076Y02595*
X0208Y02592*
X02085Y02591*
X02089Y02592*
X02093Y02595*
X02096Y02599*
X02097Y02604*
X02096Y02608*
X02095Y02609*
X02095Y02609*
X02098Y02614*
X02132*
X02142Y02604*
X02149*
X02149Y02602*
X02152Y02598*
X02156Y02595*
X02161Y02594*
X02165Y02595*
X02169Y02598*
X02172Y02602*
X02172Y02604*
X02242*
X02245Y02603*
X02249Y02602*
X02254Y02603*
X02256Y02604*
X02698*
X027Y02601*
X02704Y02598*
X02709Y02597*
X02714Y02598*
X02718Y02601*
X0272Y02604*
X02772*
X02776Y02602*
X0279Y02596*
X02805Y02592*
X0282Y0259*
X02836*
X02851Y02592*
X02866Y02596*
X0288Y02602*
X02884Y02604*
X02936*
Y00526*
X02889*
X0288Y00531*
X02866Y00537*
X02851Y00541*
X02836Y00543*
X0282*
X02805Y00541*
X0279Y00537*
X02776Y00531*
X02767Y00526*
X02624*
X02621Y0053*
X02621Y0053*
X0262Y00535*
X02617Y00539*
Y00542*
X0262Y00546*
X02621Y0055*
X0262Y00555*
X02617Y00559*
Y00562*
X0262Y00566*
X02621Y0057*
X0262Y00575*
X02617Y00579*
Y00582*
X0262Y00586*
X02621Y0059*
X0262Y00595*
X02617Y00599*
X02613Y00602*
X02609Y00602*
X02604Y00602*
X026Y00599*
X02598Y00595*
X02597Y0059*
X02598Y00586*
X026Y00582*
Y00579*
X02598Y00575*
X02597Y0057*
X02598Y00566*
X026Y00562*
Y00559*
X02598Y00555*
X02597Y0055*
X02598Y00546*
X026Y00542*
Y00539*
X02598Y00535*
X02597Y0053*
X02597Y0053*
X02594Y00526*
X02568*
X02566Y00531*
X02567Y00532*
X0257Y00536*
X02571Y0054*
X0257Y00545*
X02567Y00549*
Y00552*
X0257Y00556*
X02571Y0056*
X0257Y00565*
X02567Y00569*
X02563Y00572*
X02559Y00572*
X02554Y00572*
X0255Y00569*
X02548Y00565*
X02547Y0056*
X02548Y00556*
X0255Y00552*
Y00549*
X02548Y00545*
X02547Y0054*
X02548Y00536*
X0255Y00532*
X02551Y00531*
X0255Y00526*
X02518*
X02516Y00531*
X02517Y00532*
X0252Y00536*
X02521Y0054*
X0252Y00545*
X02517Y00549*
Y00552*
X0252Y00556*
X02521Y0056*
X0252Y00565*
X02517Y00569*
X02513Y00572*
X02509Y00572*
X02504Y00572*
X025Y00569*
X02498Y00565*
X02497Y0056*
X02498Y00556*
X025Y00552*
Y00549*
X02498Y00545*
X02497Y0054*
X02498Y00536*
X025Y00532*
X02501Y00531*
X025Y00526*
X02474*
X02471Y0053*
X02471Y0053*
X0247Y00535*
X02467Y00539*
Y00542*
X0247Y00546*
X02471Y0055*
X0247Y00555*
X02467Y00559*
Y00562*
X0247Y00566*
X02471Y0057*
X0247Y00575*
X02467Y00579*
Y00582*
X0247Y00586*
X02471Y0059*
X0247Y00595*
X02467Y00599*
X02463Y00602*
X02459Y00602*
X02454Y00602*
X0245Y00599*
X02448Y00595*
X02447Y0059*
X02448Y00586*
X0245Y00582*
Y00579*
X02448Y00575*
X02447Y0057*
X02448Y00566*
X0245Y00562*
Y00559*
X02448Y00555*
X02447Y0055*
X02448Y00546*
X0245Y00542*
Y00539*
X02448Y00535*
X02447Y0053*
X02447Y0053*
X02444Y00526*
X02248*
Y00732*
X02251Y00734*
X02253Y00738*
X02254Y00742*
X02253Y00747*
X02251Y00751*
X02248Y00753*
Y0078*
X02229*
Y0085*
X02269*
Y00806*
X02718*
Y01139*
X02725Y01147*
X02725Y01147*
X02728Y01151*
X0273Y01157*
Y01749*
Y0175*
X02728Y01755*
X02725Y0176*
X02718Y01767*
Y01991*
X02719Y01995*
X02718Y01999*
Y02356*
X02106Y02354*
X02103Y02357*
Y02374*
X02104Y02376*
X02105Y0238*
X02104Y02385*
X02103Y02387*
Y02465*
X02104Y02467*
X02105Y02471*
X02104Y02475*
X02106Y02479*
X02107Y0248*
X02224*
X02228Y02482*
X02278Y02531*
X0228Y02536*
Y02548*
X02304Y02572*
X02306Y02571*
X02311Y02572*
X02315Y02575*
X02317Y02579*
X02318Y02584*
X02317Y02588*
X02315Y02592*
X02311Y02595*
X02306Y02596*
X02302Y02595*
X02298Y02592*
X02295Y02588*
X02294Y02584*
X02295Y02581*
X02269Y02555*
X02267Y02551*
Y02544*
X02262Y02542*
X02261Y02544*
X02257Y02547*
X02252Y02548*
X02247Y02547*
X02244Y02544*
X02241Y02548*
X02237Y02551*
X02233Y02551*
X02228Y02551*
X02224Y02548*
X02221Y02544*
X0222Y02539*
X02221Y02535*
X02224Y02531*
X02228Y02528*
X02233Y02527*
X02237Y02528*
X02241Y02531*
X02243Y02527*
X02246Y02525*
X02248Y0252*
X02221Y02493*
X02103*
Y02531*
X02015*
Y02628*
X01987*
X0198Y02634*
X0198Y02638*
X01978Y0264*
X01978Y02643*
X0198Y02646*
X01982Y02647*
X01985Y02651*
X01985Y02656*
X01985Y02661*
X01982Y02665*
X01978Y02667*
X01973Y02668*
X01969Y02667*
X01965Y02665*
X01962Y02661*
X01961Y02656*
X01962Y02651*
X01963Y02649*
X01964Y02646*
X01962Y02643*
X0196Y02642*
X01957Y02638*
X01956Y02633*
X01956Y02633*
X01952Y02628*
X01912*
X01912Y02628*
X01908Y02633*
X01908Y02633*
X01908Y02635*
X01907Y02639*
X01905Y02643*
X01901Y02646*
X01896Y02647*
X01892Y02646*
X01888Y02643*
X01885Y02639*
X01884Y02635*
X01884Y02633*
X01881Y02628*
X0149Y02628*
X0149Y02633*
X01491Y02633*
X01495Y02636*
X01498Y0264*
X01499Y02645*
X01498Y02649*
X01495Y02653*
X01491Y02656*
X01487Y02657*
X01482Y02656*
X01478Y02653*
X01475Y02649*
X01474Y02645*
X01475Y0264*
X01478Y02636*
X01482Y02633*
X01483Y02633*
X01483Y02628*
X00995*
Y02751*
X01003*
X01008Y02746*
X01007Y02745*
X01008Y02741*
X01011Y02737*
X01015Y02734*
X0102Y02733*
X01024Y02734*
X01028Y02737*
X01031Y02741*
X01032Y02745*
X01031Y02746*
X01036Y02751*
X01855*
X01976*
X01978Y02746*
G37*
G36*
X02534Y02725D02*
X02527Y02726D01*
X0251Y02726*
X02506Y02725*
X02502Y02725*
X02499Y02724*
X02496Y02723*
X02493Y02722*
X02492Y0272*
X02489Y02723*
X0249Y02725*
X02491Y02727*
X02492Y0273*
X02493Y02733*
X02494Y02737*
X02496Y02747*
X02497Y02759*
X02497Y02767*
X02534Y02725*
G37*
G36*
X02434D02*
X02427Y02726D01*
X0241Y02726*
X02406Y02725*
X02402Y02725*
X02399Y02724*
X02396Y02723*
X02393Y02722*
X02392Y0272*
X02389Y02723*
X0239Y02725*
X02391Y02727*
X02392Y0273*
X02393Y02733*
X02394Y02737*
X02396Y02747*
X02397Y02759*
X02397Y02767*
X02434Y02725*
G37*
G36*
X0228Y02776D02*
X02285Y02775D01*
X02289Y02776*
X02294Y02773*
X02293Y02764*
X02294Y02753*
X02299Y02743*
X02306Y02734*
X02313Y02728*
X02313Y02727*
X02312Y02723*
X02308Y02721*
X02282Y02695*
X0227*
X02269Y02697*
X02265Y027*
X02261Y02701*
X02256Y027*
X02252Y02697*
X02249Y02694*
X02248Y02689*
X02249Y02684*
X02252Y0268*
X02256Y02678*
X02261Y02677*
X02265Y02678*
X02269Y0268*
X0227Y02682*
X02285*
X0229Y02684*
X02295Y02689*
X02299Y02686*
X02294Y02676*
X02293Y02664*
X02294Y02653*
X02299Y02643*
X02306Y02634*
X02315Y02627*
X02316Y02626*
X02315Y02621*
X02297*
X02196Y02722*
Y02752*
X02194Y02756*
X02181Y0277*
X02183Y02775*
X02277*
X0228Y02776*
X0228Y02776*
G37*
G36*
X01984Y02625D02*
X01987Y02624D01*
X0201*
Y02531*
X02012Y02528*
X02015Y02526*
X02018*
Y02489*
X02014Y02485*
X01944*
X01943Y02486*
X01939Y02489*
X01934Y0249*
X0193Y02489*
X01926Y02486*
X01923Y02482*
X01922Y02478*
X01923Y02473*
X01926Y02469*
X0193Y02466*
X01934Y02465*
X01939Y02466*
X01943Y02469*
X01945Y02472*
X02014*
X02017Y02468*
X02017Y02468*
X02018Y02463*
X02018Y02463*
Y0234*
X01953*
Y02415*
X01794*
X01794Y02415*
X0179Y02418*
X01785Y02419*
X01781Y02418*
X01777Y02415*
X01777Y02415*
X01115Y02415*
X01112Y0242*
X01115Y02424*
X0112Y0244*
X01121Y02456*
X0112Y02472*
X01115Y02488*
X01107Y02502*
X01097Y02515*
X01084Y02525*
X0107Y02533*
X01054Y02538*
X01038Y02539*
X01022Y02538*
X01006Y02533*
X00992Y02525*
X00979Y02515*
X00969Y02502*
X00961Y02488*
X00957Y02472*
X00955Y02456*
X00957Y0244*
X00961Y02424*
X00969Y0241*
X00979Y02397*
X00992Y02387*
X00998Y02384*
Y0233*
X00993Y02328*
X0099Y02328*
X00985Y02327*
X00981Y02325*
X00978Y02321*
X00977Y02316*
X00978Y02312*
X00981Y02308*
X00981Y02301*
X00981Y02301*
X0098Y02296*
X00981Y02292*
X00983Y02288*
X00987Y02285*
X00992Y02284*
X00993Y02284*
X00998Y0228*
Y02024*
X00995Y02023*
X00994Y0202*
Y0196*
X00989Y01956*
X00988Y01957*
X00982Y01955*
X00978Y01952*
X00975Y01948*
X00974Y01942*
X00975Y01937*
X00978Y01932*
X00985Y01925*
X00983Y0192*
X00968*
X00962Y01919*
X00957Y01916*
X00953Y01911*
X00952Y01905*
Y01897*
X00953Y01893*
X00952Y01889*
Y01881*
X00953Y01877*
X00952Y01873*
Y01865*
X00953Y01862*
X00952Y01858*
Y0185*
X00953Y01846*
X00952Y01842*
Y01834*
X00953Y0183*
X00952Y01826*
Y01818*
X00953Y01814*
X00952Y0181*
Y01802*
X00953Y01799*
X00952Y01795*
Y01787*
X00953Y01783*
X00952Y01779*
Y01771*
X00953Y01767*
X00952Y01763*
Y01755*
X00953Y01749*
X00957Y01744*
X00962Y01741*
X00968Y0174*
X00985*
X00989Y01741*
X00994Y01737*
Y01694*
X00994Y01693*
X00994Y01693*
X00994Y01692*
X00995Y01691*
X00995Y01686*
X00992Y01682*
X00991Y01678*
X00992Y01673*
X00995Y01669*
X00995Y01669*
X00994Y01666*
Y01256*
X00995Y01253*
X00995Y01253*
Y01248*
X00982Y01242*
X00966Y01232*
X00951Y0122*
X00939Y01205*
X00929Y01189*
X00922Y01171*
X00917Y01152*
X00916Y01133*
X00917Y01114*
X00922Y01095*
X00929Y01078*
X00939Y01061*
X0094Y0106*
X00938Y01058*
X00937Y01056*
X00933Y01057*
X00928Y01056*
X00924Y01054*
X00921Y0105*
X0092Y01045*
X00921Y0104*
X00924Y01036*
Y01032*
X00924Y01032*
X00921Y01029*
X0092Y01024*
X00921Y01019*
X00922Y01018*
X00922Y01012*
X00919Y01009*
X00919Y01004*
X00919Y00999*
X00922Y00995*
X00926Y00993*
X00931Y00992*
X00935Y00993*
X00939Y00995*
X0094*
X00944Y00993*
X00948Y00992*
X00953Y00993*
X00954Y00993*
X00958Y00995*
X00962Y00993*
X00963Y00993*
X00961Y00989*
X0096Y00984*
X00961Y00979*
X00964Y00975*
Y00972*
X00961Y00969*
X0096Y00964*
X00961Y00959*
X00964Y00955*
X00968Y00953*
X00972Y00952*
X00977Y00953*
X00981Y00955*
X00984Y00959*
X00985Y00964*
X00984Y00969*
X00981Y00972*
Y00975*
X00984Y00979*
X00985Y00984*
X00984Y00989*
X00981Y00992*
X00977Y00995*
X00979Y00999*
X0098Y01004*
X00979Y01009*
X00976Y01012*
X00972Y01015*
X00967Y01016*
X00963Y01015*
X00962Y01014*
X00958Y01013*
X00954Y01014*
X00953Y01015*
X00948Y01016*
X00947Y01016*
X00946Y01017*
X00944Y0102*
X00945Y01024*
X00944Y01029*
X00941Y01032*
Y01036*
X00941Y01036*
X00944Y0104*
X00945Y01045*
X00944Y01047*
X00949Y0105*
X00951Y01047*
X00966Y01034*
X00982Y01024*
X01Y01017*
X01019Y01012*
X01038Y01011*
X01057Y01012*
X01076Y01017*
X01094Y01024*
X0111Y01034*
X01125Y01047*
X01137Y01061*
X01147Y01078*
X01155Y01095*
X01159Y01114*
X01161Y01133*
X01159Y01152*
X01155Y01171*
X01147Y01189*
X01137Y01205*
X01125Y0122*
X0111Y01232*
X01094Y01242*
X01083Y01247*
X01084Y01252*
X01088*
X01091Y01253*
X01092Y01256*
Y01366*
X0132*
X01323Y01367*
X01324Y0137*
Y0137*
X01506*
Y01206*
X01504Y01205*
X01501Y01204*
X01498Y01206*
X01493Y01207*
X01488Y01206*
X01484Y01204*
X01482Y012*
X01481Y01195*
X01482Y0119*
X01484Y01187*
X01488Y01184*
X01493Y01183*
X01498Y01184*
X01501Y01186*
X01504Y01185*
X01506Y01184*
Y01039*
X01501Y01036*
X01501Y01036*
X01496Y01037*
X01491Y01036*
X01487Y01034*
X01485Y0103*
X01484Y01025*
X01485Y0102*
X01487Y01016*
X01491Y01014*
X01496Y01013*
X01501Y01014*
X01501Y01014*
X01506Y01011*
Y00918*
X01508Y00913*
X01568Y00853*
Y00766*
X01566Y00766*
X01562Y00763*
X0156Y00759*
X01559Y00755*
X0156Y0075*
X01562Y00746*
X01566Y00744*
X01568Y00743*
Y00705*
X01083Y00705*
X01083Y00712*
X01079Y00723*
X01074Y00733*
X01066Y00742*
X01057Y0075*
X01049Y00755*
Y00816*
X00283*
X00283Y00817*
Y00945*
X00818*
Y01253*
X00858*
Y02551*
X00858Y02551*
X00859Y02555*
X00862Y02556*
X00862Y02556*
X00867Y02557*
X00871Y02559*
X00873Y02563*
X00874Y02568*
X00873Y02572*
X00871Y02576*
X00867Y02579*
X00862Y0258*
X00862Y0258*
X00858Y02583*
Y02623*
X00866Y02627*
X00868Y02628*
X00882*
X00883Y02624*
X00886Y0262*
X0089Y02617*
X00893Y02617*
Y02612*
X0089Y02611*
X00886Y02608*
X00883Y02605*
X00882Y026*
X00883Y02595*
X00886Y02591*
X0089Y02589*
X00894Y02588*
X00899Y02589*
X00903Y02591*
X00905Y02595*
X00906Y026*
X00905Y02604*
X00907Y02605*
X0091Y02607*
X00912Y02606*
X00917Y02605*
X00921Y02606*
X00925Y02608*
X00928Y02612*
X00929Y02617*
X00928Y02619*
X00933Y02622*
X00933Y02622*
X00944Y02621*
X00956Y02622*
X00966Y02627*
X00968Y02628*
X0099*
X00992Y02625*
X00995Y02624*
X01483*
X01486Y02625*
X01487*
X0149Y02624*
X01881*
X01881Y02624*
X01882Y02624*
X01883Y02624*
X01884Y02625*
X01889Y02625*
X01892Y02623*
X01896Y02623*
X01901Y02623*
X01904Y02626*
X01908Y02625*
X0191Y02624*
X0191Y02624*
X0191Y02624*
X01911Y02624*
X01911Y02624*
X01911Y02624*
X01912Y02624*
X01952*
X01953Y02624*
X01953Y02624*
X01954Y02624*
X01955Y02625*
X01955Y02625*
X01956Y02625*
X01958Y02628*
X01981*
X01984Y02625*
G37*
G36*
X02287Y02613D02*
X02285Y02608D01*
X02265*
X02261Y02613*
X02261Y02614*
X0226Y02618*
X02258Y02622*
X02254Y02625*
X02249Y02626*
X02245Y02625*
X02242Y02623*
X02233Y02633*
X02231Y02634*
X02228Y02635*
X022*
X02199Y02635*
X02177*
X02175Y0264*
X02182Y02647*
X02183Y02649*
X02184Y02651*
Y02709*
X02189Y02711*
X02287Y02613*
G37*
G36*
X00809Y0269D02*
X00807Y02686D01*
X00802Y02676*
X00801Y02664*
X00802Y02653*
X00807Y02643*
X00813Y02634*
X00823Y02627*
X00833Y02622*
X00844Y02621*
X0085Y02621*
X00854Y02618*
Y02583*
X00854Y02583*
X00854Y02583*
X00854Y02581*
X00855Y0258*
X00853Y02575*
X00851Y02572*
X0085Y02568*
X00847Y02567*
X00847Y02567*
X00842Y02566*
X00838Y02564*
X00836Y0256*
X00835Y02555*
X00836Y02551*
X00838Y02547*
X00841Y02545*
X00841Y02541*
X0084Y0254*
X00795*
X00741Y02593*
X00744Y02598*
X00746Y02598*
X00751Y02599*
X00755Y02601*
X00757Y02605*
X00758Y0261*
X00757Y02614*
X00755Y02617*
X00756Y02619*
X00756Y02621*
X00757Y02623*
X00766Y02627*
X00775Y02634*
X00782Y02643*
X00787Y02653*
X00788Y02664*
X00787Y02676*
X00782Y02686*
X00775Y02695*
X0077Y02699*
X00772Y02704*
X00795*
X00809Y0269*
G37*
G36*
X02086Y02611D02*
X02086Y02611D01*
X02087Y02611*
X02089Y0261*
X02091Y02608*
X02091Y02608*
X02092Y02607*
X02092Y02607*
X02092Y02604*
X02092Y02601*
X0209Y02598*
X02088Y02596*
X02085Y02596*
X02082Y02596*
X02079Y02598*
X02077Y02601*
X02077Y02604*
X02077Y02607*
X02078Y02608*
X02078Y02608*
X02078Y02608*
X02081Y02612*
X02086Y02611*
G37*
G36*
X02098Y02493D02*
X02086D01*
X02082Y02491*
X0208Y02489*
X02027*
X02023*
X02022Y02494*
Y02526*
X02098*
Y02493*
G37*
G36*
X01849Y02411D02*
X01851Y02406D01*
X01849Y02404*
X01848Y02399*
X01845Y02395*
X0184Y02394*
X01836Y02391*
X01834Y02387*
X01833Y02383*
X01832Y02382*
X0183Y0238*
X01828Y02379*
X01824Y02378*
X01821Y02375*
X01818Y02372*
X01817Y02367*
X01818Y02362*
X01821Y02358*
X01819Y02354*
X01817Y02351*
X01816Y02347*
X01817Y02342*
X0182Y02338*
X0182Y02338*
X01819Y02333*
X01378*
X01352Y0236*
X01352Y0236*
X01352Y0236*
X01351Y0236*
Y02408*
Y02409*
X01353Y02411*
X0177*
X01773Y02407*
X01773Y02407*
X01774Y02402*
X01777Y02398*
X01779Y02397*
X0178Y02393*
X01779Y02391*
X01778Y02388*
X01777Y02383*
X01778Y02379*
X0178Y02375*
X01784Y02372*
X01789Y02371*
X01793Y02372*
X01797Y02375*
X018Y02379*
X01801Y02383*
X018Y02388*
X01797Y02392*
X01795Y02393*
X01794Y02397*
X01794Y02399*
X01796Y02402*
X01797Y02407*
X01797Y02407*
X018Y02411*
X01849*
X01849Y02411*
G37*
G36*
X02099Y02476D02*
X021Y02475D01*
X021Y02474*
X021Y02471*
X021Y02468*
X02099Y02468*
X02099Y02466*
X02098Y02465*
Y02387*
X02099Y02386*
X02099Y02385*
X021Y02383*
X02101Y0238*
X021Y02377*
X02099Y02376*
X02099Y02375*
X02098Y02374*
Y02368*
X02005Y02274*
X01913*
X01898Y02288*
X01894Y02292*
X01888Y02293*
X01888*
X0187*
X01865Y02292*
X0186Y02288*
X0186*
X01847Y02276*
X01844Y02271*
X01843Y02266*
X01843Y02265*
X01843Y02264*
Y02173*
X01818Y02149*
X01801Y02132*
X01795Y02133*
X01794Y02135*
X0179Y02138*
X01785Y02139*
X01781Y02138*
X01777Y02135*
X01774Y02131*
X01773Y02127*
X01774Y02122*
X01777Y02118*
X01779Y02116*
X0178Y02111*
X01736Y02067*
X01568*
X01555Y0208*
X01555Y0208*
X01548Y02085*
X0154Y02089*
X01531Y0209*
Y0209*
X01215*
X0121Y02089*
X01205Y02086*
X01203Y02084*
X012Y02079*
X01199Y02074*
X012Y02068*
X01203Y02063*
X01208Y0206*
X01213Y02059*
X01219Y0206*
X0122Y02061*
X01531*
X01531Y02061*
X01535Y0206*
X01535Y0206*
X01552Y02042*
X01557Y02039*
X01562Y02038*
X01742*
X01742*
X01748Y02039*
X01752Y02042*
X01862Y02152*
X01863Y02152*
X01867Y02156*
X0187Y0216*
X01872Y02166*
Y02167*
X01872Y02168*
X01872Y02168*
Y02242*
X01877Y02245*
X01879Y02244*
X01884Y02245*
X01888Y02248*
X01889Y0225*
X01895Y02251*
X01897Y0225*
X01901Y02247*
X01907Y02246*
X02011*
X02011*
X02016Y02247*
X02021Y0225*
X0212Y02349*
X0271Y02352*
X02714Y02348*
Y01999*
X02714Y01998*
X02714Y01998*
X02714Y01995*
X02714Y01992*
X02714Y01991*
X02714Y01991*
Y01778*
X02709Y01776*
X02579Y01906*
X02577Y01907*
X02579Y01912*
X02627*
X02682Y01857*
X02682Y01854*
X02683Y0185*
X02685Y01846*
X02689Y01843*
X02694Y01842*
X02698Y01843*
X02702Y01846*
X02705Y0185*
X02706Y01854*
X02705Y01859*
X02702Y01863*
X02698Y01866*
X02694Y01866*
X02691Y01866*
X02634Y01923*
X0263Y01925*
X02565*
X02564Y01927*
X0256Y0193*
X02555Y01931*
X02551Y0193*
X02547Y01927*
X02544Y01923*
X02543Y01919*
X02544Y01915*
X02541Y0191*
X02489*
X02483Y01909*
X02479Y01906*
X02475Y01901*
X02474Y01896*
X02475Y0189*
X02479Y01886*
X02483Y01883*
X02489Y01881*
X02563*
X02701Y01744*
Y01244*
X02696Y01241*
X02693Y01242*
X02689Y01241*
X02685Y01238*
X02682Y01234*
X02681Y0123*
X02682Y01225*
X02685Y01221*
X02689Y01218*
X02693Y01217*
X02696Y01218*
X02701Y01215*
Y01163*
X02662Y01124*
X02659Y01119*
X02658Y01114*
X02659Y01108*
X02662Y01104*
X02667Y01101*
X02672Y011*
X02678Y01101*
X02683Y01104*
X02709Y0113*
X02714Y01128*
Y0081*
X02506*
Y00961*
X02511Y00963*
X02511Y00962*
X02515Y00959*
X02519Y00959*
X02524Y00959*
X02528Y00962*
X02531Y00966*
X02532Y00971*
X02531Y00975*
X02528Y00979*
X02524Y00982*
X02519Y00983*
X02516Y00982*
X02513Y00985*
X02513Y00986*
X02593Y01066*
X02596Y0107*
X02597Y01076*
Y01173*
X02596Y01178*
X02593Y01183*
X02588Y01186*
X02582Y01187*
X02577Y01186*
X02572Y01183*
X02569Y01178*
X02568Y01173*
Y01082*
X02481Y00995*
X02478Y0099*
X02477Y00985*
Y0081*
X02292*
X02291Y00815*
X02293Y00817*
X02295Y00821*
X02296Y00826*
X02295Y0083*
X02293Y00834*
X02289Y00837*
X02284Y00838*
X0228Y00837*
X02278Y00836*
X02273Y00838*
Y0085*
X02272Y00853*
X02269Y00855*
X02229*
X02226Y00853*
X02224Y0085*
Y0078*
X02226Y00777*
X02229Y00776*
X02244*
Y00756*
X02242Y00754*
X02237Y00753*
X02234Y00751*
X02231Y00747*
X0223Y00742*
X02231Y00738*
X02234Y00734*
X02237Y00731*
X02242Y0073*
X02244Y00729*
Y00526*
X02245Y00523*
X02248Y00522*
X02444*
X02444Y00522*
X02444Y00522*
X02445Y00522*
X02447Y00523*
X02451Y00521*
X02454Y00519*
X02459Y00518*
X02463Y00519*
X02466Y00521*
X02471Y00523*
X02472Y00522*
X02473Y00522*
X02474Y00522*
X02474Y00522*
X025*
X02501Y00522*
X02502Y00522*
X02502Y00523*
X02503Y00523*
X02503Y00524*
X02504Y00525*
X02505Y00529*
X02509Y00528*
X02512Y00529*
X02514Y00525*
X02514Y00524*
X02515Y00523*
X02515Y00523*
X02516Y00522*
X02517Y00522*
X02518Y00522*
X0255*
X02551Y00522*
X02552Y00522*
X02552Y00523*
X02553Y00523*
X02553Y00524*
X02554Y00525*
X02555Y00529*
X02559Y00528*
X02562Y00529*
X02564Y00525*
X02564Y00524*
X02565Y00523*
X02565Y00523*
X02566Y00522*
X02567Y00522*
X02568Y00522*
X02594*
X02594Y00522*
X02594Y00522*
X02595Y00522*
X02597Y00523*
X02601Y00521*
X02604Y00519*
X02609Y00518*
X02613Y00519*
X02616Y00521*
X02621Y00523*
X02622Y00522*
X02623Y00522*
X02624Y00522*
X02624Y00522*
X02753*
X02754Y00517*
X0275Y00514*
X02739Y00503*
X0273Y0049*
X02722Y00477*
X02716Y00463*
X02712Y00448*
X0271Y00432*
Y00417*
X02712Y00402*
X02716Y00387*
X02722Y00372*
X0273Y00359*
X02739Y00347*
X0275Y00336*
X02762Y00326*
X02776Y00319*
X0279Y00313*
X02805Y00309*
X0282Y00307*
X02836*
X02851Y00309*
X02866Y00313*
X0288Y00319*
X02894Y00326*
X02906Y00336*
X02917Y00347*
X02926Y00359*
X02931Y00368*
X02936Y00366*
Y00015*
X02838*
X02836Y0002*
X02837Y0002*
X02843Y00029*
X02847Y00038*
X02849Y00049*
Y00075*
X02861Y00087*
Y00087*
X02865Y00093*
X02868Y001*
X0287Y00108*
Y00108*
Y00166*
X02868Y00174*
X02865Y00182*
X02861Y00188*
X02849Y002*
Y00226*
X02847Y00236*
X02843Y00246*
X02837Y00254*
X02829Y00261*
X02819Y00265*
X02809Y00266*
X02798Y00265*
X02789Y00261*
X0278Y00254*
X02774Y00246*
X0277Y00236*
X02769Y00226*
Y00198*
X0277Y00188*
X02774Y00178*
X0278Y0017*
X02789Y00164*
X02798Y0016*
X02804Y00159*
X02809Y00154*
Y00142*
X02804Y0014*
X02803Y00142*
X02799Y00145*
X02794Y00146*
X0279Y00145*
X02786Y00142*
X02784Y0014*
X02719*
X0271Y00149*
Y00221*
X02708Y00225*
X02468Y00465*
X02464Y00467*
X02446*
X02444Y00472*
X02445Y00474*
X02446Y00478*
X02445Y00483*
X02442Y00487*
X02438Y0049*
X02434Y00491*
X02429Y0049*
X02425Y00487*
X02423Y00483*
X02422Y00478*
X02423Y00474*
X02424Y00472*
X02422Y00467*
X0211*
X02104Y00472*
X021Y00474*
X02077*
X02076Y00476*
X02074Y00478*
Y00496*
X02072Y00501*
X02025Y00548*
X02026Y00549*
X02027Y00553*
X02031Y00553*
X02035Y00556*
X02037Y0056*
X02038Y00565*
X02037Y00569*
X02035Y00573*
X02031Y00576*
X02026Y00577*
X02022Y00576*
X02018Y00573*
X02015Y00569*
X02014Y00566*
X02011Y00564*
X02009Y00564*
X01958Y00615*
X01959Y00616*
X01958Y00621*
X01955Y00624*
X01951Y00627*
X01946Y00628*
X01942Y00627*
X01938Y00624*
X01935Y00621*
X01934Y00616*
X01935Y00611*
X01938Y00607*
X01942Y00605*
X01946Y00604*
X0195Y00604*
X02061Y00494*
Y00478*
X02059Y00476*
X02056Y00473*
X02055Y00468*
X02056Y00463*
X02059Y00459*
X02063Y00457*
X02067Y00456*
X02072Y00457*
X02076Y00459*
X02077Y00461*
X02097*
X02103Y00456*
X02107Y00454*
X02256*
X02257Y00449*
X0225Y00443*
X02242Y00433*
X02237Y00421*
X02235Y00409*
Y00342*
X02237Y0033*
X02242Y00318*
X0225Y00308*
X02253Y00305*
Y00229*
Y0019*
X0225Y00187*
X02242Y00177*
X02239Y0017*
X02122*
X02103Y00189*
X02096Y00194*
X02089Y00197*
X02081Y00198*
X01941*
X01933Y00197*
X01926Y00194*
X0192Y00189*
X019Y0017*
X01757*
X01754Y00177*
X01747Y00186*
X01751Y00192*
X01753Y002*
Y0031*
X01751Y00316*
X01754Y0032*
X01759Y00332*
X01761Y00344*
Y00407*
X01759Y00419*
X01754Y00431*
X01746Y00441*
X01737Y00449*
X01725Y00453*
X01713Y00455*
X017Y00453*
X01689Y00449*
X01679Y00441*
X01671Y00431*
X01666Y00419*
X01665Y00407*
Y00344*
X01666Y00335*
X01662Y0033*
X01652*
X01644Y00328*
X01638Y00324*
X01633Y00317*
X01632Y0031*
Y002*
X01633Y00192*
X01638Y00185*
X01644Y00181*
X01652Y00179*
X01667*
X0167Y00174*
X01666Y00165*
X01665Y00153*
Y00125*
X01666Y00113*
X01671Y00101*
X01679Y00092*
X01689Y00084*
X017Y00079*
X01713Y00078*
X01725Y00079*
X01737Y00084*
X01746Y00092*
X01754Y00101*
X01757Y00109*
X01913*
X01921Y0011*
X01928Y00113*
X01934Y00118*
X01954Y00137*
X02069*
X02088Y00118*
X02094Y00113*
X02102Y0011*
X02109Y00109*
X02239*
X02242Y00101*
X0225Y00092*
X02259Y00084*
X02271Y00079*
X02283Y00078*
X02296Y00079*
X02307Y00084*
X02317Y00092*
X02325Y00101*
X0233Y00113*
X02331Y00125*
Y00134*
X02335Y00135*
X02336Y00135*
X02343Y00126*
X02352Y00119*
X02363Y00115*
X0237Y00114*
Y00157*
X02374*
Y00161*
X02417*
X02416Y00169*
X02412Y00179*
X02405Y00188*
X02398Y00193*
X024Y00198*
X02428*
X0243Y00188*
X02434Y00178*
X02438Y00173*
Y00102*
X02434Y00096*
X0243Y00086*
X02428Y00076*
Y00049*
X0243Y00038*
X02434Y00029*
X0244Y0002*
X0244Y00018*
X02439Y00015*
X02398*
X02397Y0002*
X02405Y00026*
X02412Y00035*
X02416Y00046*
X02418Y00057*
X02416Y00069*
X02412Y00079*
X02405Y00088*
X02396Y00095*
X02385Y001*
X02374Y00101*
X02363Y001*
X02352Y00095*
X02343Y00088*
X02336Y00079*
X02332Y00069*
X0233Y00057*
X02332Y00046*
X02336Y00035*
X02343Y00026*
X02351Y0002*
X02349Y00015*
X00536*
X00534Y0002*
X00538Y00026*
X00543Y00036*
X00544Y00048*
Y0007*
X00554*
X00561Y00071*
X00569Y00074*
X00575Y00079*
X0073Y00233*
X00749*
X00757Y00234*
X00765Y00237*
X00771Y00242*
X00817Y00289*
X00822Y00295*
X00825Y00302*
X00826Y0031*
Y00338*
X00829Y0034*
X00831Y00341*
X00834Y00338*
X00841Y00335*
X00849Y00334*
X00972*
X0098Y00335*
X00987Y00338*
X00993Y00343*
X01003Y00353*
X01013Y0035*
X01024Y00349*
X01036Y0035*
X01047Y00354*
X01057Y00359*
X01066Y00367*
X01074Y00376*
X01079Y00386*
X01083Y00397*
X01084Y00409*
Y00425*
X01083Y00436*
X01079Y00448*
X01074Y00458*
X01066Y00467*
X01057Y00474*
X01055Y00476*
Y0051*
X01346*
X01359Y00497*
Y00476*
X01356Y00471*
X01353Y00464*
X01352Y00456*
Y00425*
X01352Y0042*
X01351Y00416*
X01348Y00415*
X01346Y00414*
X01342Y00412*
X01339Y00408*
X01338Y00403*
X01339Y00399*
X01342Y00395*
X01346Y00392*
X0135Y00391*
X01353Y00392*
X01357Y00389*
X01358Y00388*
X01359Y00381*
X01362Y00373*
X01367Y00367*
X01373Y00362*
X0138Y00359*
X01388Y00358*
X01396Y00359*
X01403Y00362*
X0141Y00367*
X01414Y00373*
X01417Y00381*
X01418Y00389*
Y00419*
X01418*
X01418Y00423*
X01417Y00427*
X01414Y00434*
X01412Y00437*
Y00444*
X01415Y00448*
X01418Y00456*
X0142Y00464*
Y0051*
X01418Y00517*
X01415Y00525*
X01411Y00531*
X0138Y00562*
X01373Y00567*
X01366Y0057*
X01358Y00571*
X01055*
Y00633*
X01057Y00635*
X01066Y00642*
X01074Y00651*
X01079Y00662*
X01083Y00673*
X01084Y00685*
Y00696*
X01089Y00701*
X01568*
X01571Y00702*
X01572Y00705*
Y00743*
X01575Y00744*
X01579Y00746*
X01582Y0075*
X01582Y00751*
X01588Y00753*
X01612Y00729*
Y00722*
X0161Y00719*
X01609Y00715*
X0161Y0071*
X01613Y00706*
X01617Y00704*
X01621Y00703*
X01626Y00704*
X0163Y00706*
X01632Y0071*
X01633Y00715*
X01632Y00719*
X0163Y00722*
Y00733*
X0163Y00736*
X01628Y00739*
X01572Y00794*
Y00842*
X01577Y00844*
X01599Y00822*
X01604Y0082*
X01605*
X01606Y00819*
X0161Y00816*
X01614Y00815*
X01619Y00816*
X01623Y00819*
X01625Y00823*
X01626Y00828*
X01626Y00831*
X01628Y00836*
X01637*
X01639Y00834*
X01643Y00831*
X01647Y0083*
X01652Y00831*
X01656Y00834*
X01658Y00838*
X01659Y00843*
X01658Y00847*
X01656Y00851*
X01652Y00854*
X01647Y00855*
X01643Y00854*
X01639Y00851*
X01637Y00849*
X01612*
X01595Y00867*
X01596Y00873*
X01598Y00874*
X01601Y00878*
X01602Y00882*
X01601Y00887*
X01598Y00891*
X01594Y00894*
X01589Y00895*
X01585Y00894*
X01581Y00891*
X0158Y00889*
X01574Y00888*
X01569Y00893*
X01571Y00898*
X01571Y00898*
X01572Y00899*
X01572Y009*
X01572Y00901*
X01572Y0137*
X01571Y01373*
X01568Y01375*
X01536*
Y01561*
X01618*
X01621Y01562*
X01622Y01565*
Y01604*
X01759*
X01763Y01605*
X01767Y01607*
X0202Y0186*
X02023Y01864*
X02024Y01868*
Y01874*
X02037Y01888*
X02105Y01956*
X02155Y02006*
X02158Y02008*
X02161Y02012*
X02162Y02016*
X02161Y02021*
X02158Y02025*
X02154Y02027*
X0215Y02028*
X02145Y02027*
X02141Y02025*
X02141Y02024*
X0214Y02024*
X02068Y01951*
X02004Y01887*
X02001Y01884*
X02Y01879*
Y01873*
X01896Y01769*
X01754Y01627*
X01622*
Y01645*
X01621Y01648*
X01618Y0165*
X01564*
X01562Y01654*
X01766Y01858*
X01864Y01956*
X0195Y02042*
X01952Y02041*
X01957Y02042*
X01961Y02045*
X01963Y02049*
X01964Y02054*
X01963Y02058*
X01961Y02062*
X01957Y02065*
X01952Y02066*
X01948Y02065*
X01944Y02062*
X01941Y02058*
X01936Y02057*
X01932Y0206*
X01927Y02061*
X01923Y0206*
X01919Y02057*
X01916Y02053*
X01915Y02049*
X01916Y02046*
X01517Y01648*
X01514Y01648*
X01511Y01648*
X01511Y01649*
X0151Y01649*
X01509*
X01508Y0165*
X01355*
X01355Y0165*
X01355Y0165*
X01355Y0165*
X01353Y01649*
X01352Y01648*
X01352Y01648*
X01352Y01648*
X01351Y01647*
X01351Y01647*
X01351Y01646*
X0135Y01645*
X01349Y01642*
X01348Y01639*
X01345Y01637*
X01342Y01637*
X01339Y01637*
X01337Y01639*
X01335Y01642*
X01334Y01645*
X01334Y01646*
X01333Y01647*
X01333Y01648*
X01333Y01648*
X01333Y01648*
X01331Y01649*
X0133Y0165*
X0133Y0165*
X01329Y0165*
X01309*
Y01985*
Y01988*
X01308Y01991*
X01305Y01993*
X0129*
X01286Y01996*
X01286Y02016*
X01286Y02016*
X01286Y02016*
X01286Y02017*
X01285Y02019*
X01285Y02019*
X01285Y02019*
X01282Y02023*
X01282Y02023*
X01282Y02023*
X0128Y02023*
X01279Y02024*
X01279Y02024*
X01279Y02024*
X01002*
Y0228*
X01002Y02281*
X01002Y02281*
X01002Y02282*
X01001Y02283*
X01001Y02283*
X01001Y02284*
X00996Y02288*
X00995Y02288*
X00995Y02288*
X00994Y02288*
X00992Y02289*
X00992Y02289*
X00992Y02289*
X00992Y02289*
X00989Y02289*
X00987Y02291*
X00985Y02293*
X00984Y02296*
X00985Y023*
X00985Y023*
X00985Y023*
X00986Y02302*
X00985Y02308*
X00985Y02309*
X00985Y0231*
X00982Y02313*
X00982Y02316*
X00982Y02319*
X00984Y02322*
X00987Y02323*
X0099Y02324*
X00992Y02323*
X00994Y02324*
X00995Y02324*
X01Y02327*
X01Y02327*
X01001Y02327*
X01001Y02328*
X01002Y02329*
X01002Y0233*
X01002Y0233*
Y02377*
X01007Y02379*
X01022Y02375*
X01034Y02373*
Y02456*
X01042*
Y02373*
X01054Y02375*
X0107Y02379*
X01084Y02387*
X01097Y02397*
X01107Y0241*
X01107Y0241*
X0111Y02412*
X01114Y02411*
X01114Y02411*
X01114Y02411*
X01115Y02411*
X01329*
X01335Y02405*
Y0236*
X01335*
X01336Y02354*
X0134Y02348*
X0134Y02348*
X01369Y02319*
X01372Y02317*
X01375Y02317*
X01375*
X01837*
X01837*
X01841Y02317*
X01843Y02319*
X01873Y02348*
X01944*
X01944*
X01946Y02346*
Y02342*
X01942Y02339*
X01938Y02338*
X01934Y02335*
X01931Y02331*
X0193Y02327*
X01931Y02322*
X01934Y02318*
X01938Y02315*
X01942Y02314*
X01947Y02315*
X01951Y02318*
X01953Y02322*
X01954Y02327*
X01953Y02331*
X01956Y02336*
X02018*
X02021Y02337*
X02022Y0234*
Y02463*
X02022Y02464*
X02022Y02464*
X02021Y02469*
X02022Y02473*
X02024Y02474*
X02025Y02476*
X02083*
X02087Y02478*
X02089Y0248*
X02096*
X02099Y02476*
G37*
G36*
X00555Y0172D02*
X00355D01*
X00354Y01724*
X00352Y01728*
X00348Y01731*
X00343Y01732*
X00339Y01731*
X00335Y01728*
X00332Y01724*
X00331Y0172*
X00225*
Y0183*
X00296*
X00297Y01829*
X00298Y01824*
X00301Y0182*
X00305Y01817*
X00309Y01816*
X00314Y01817*
X00318Y0182*
X0032Y01824*
X00321Y01829*
X00322Y0183*
X00555*
Y0172*
G37*
G36*
X00164D02*
X00015D01*
Y0183*
X00164*
Y0172*
G37*
G36*
X01004Y01685D02*
X01006Y01685D01*
X01009Y01683*
X0101Y0168*
X01011Y01678*
X01011Y01676*
X01011Y01676*
X01011Y01676*
X01011Y01675*
X01011Y01673*
X01011Y01673*
X01011Y01673*
X01015Y01668*
X01015Y01668*
X01015Y01667*
X01016Y01667*
X01018Y01666*
X01018Y01666*
X01018Y01666*
X01248*
Y01606*
X01092*
X01089Y01605*
X01088Y01602*
Y01593*
Y0137*
X01089Y01368*
X01088Y01366*
Y01256*
X01084*
X01083Y01256*
X01082Y01255*
X01081Y01255*
X01081Y01255*
X01081Y01254*
X0108Y01253*
X0108Y01253*
X01074Y0125*
X01057Y01254*
X01042Y01255*
Y01133*
X01034*
Y01255*
X01019Y01254*
X01004Y01251*
X01001Y01252*
X00999Y01255*
Y01255*
X00999Y01255*
X00998Y01256*
X00998*
Y01257*
Y01262*
Y01263*
Y0127*
Y01271*
Y01292*
Y01297*
Y01298*
Y01307*
Y01308*
Y01309*
Y01313*
Y01362*
Y01363*
Y01365*
Y01366*
Y01367*
Y01368*
Y01473*
Y01477*
Y015*
Y01501*
Y01606*
Y01606*
Y01638*
Y01638*
Y01665*
Y01666*
X00998*
X00999Y01667*
Y01668*
X00999Y01668*
X00999Y01668*
X00999Y0167*
X00999Y0167*
Y0167*
X00998Y01671*
X00998Y01671*
X00996Y01675*
X00996Y01678*
X00996Y0168*
X00997Y01682*
X00998Y01682*
X00998Y01683*
X00999Y01684*
X01003Y01685*
X01004Y01685*
G37*
G36*
X01282Y02016D02*
X01282Y01988D01*
X01305*
Y01645*
X01329*
X0133Y01645*
X01331Y0164*
X01334Y01636*
X01338Y01633*
X01342Y01632*
X01347Y01633*
X01351Y01636*
X01353Y0164*
X01354Y01645*
X01355Y01645*
X01508*
X0151Y01641*
X01508Y01638*
X01506Y01634*
Y01565*
X0132Y01565*
Y0137*
X01092*
Y01602*
X01248*
X01251Y01603*
X01252Y01606*
X01252Y01666*
X01251Y01669*
X01248Y0167*
X01018*
X01015Y01675*
X01015Y01678*
X01014Y01682*
X01012Y01686*
X01008Y01689*
X01003Y0169*
X01003Y0169*
X00998Y01694*
Y01748*
X00999Y01749*
X01Y01755*
Y01763*
X00999Y01767*
X01Y01771*
Y01779*
X00999Y01783*
X01Y01787*
Y01795*
X00999Y01799*
X01Y01802*
Y0181*
X00999Y01814*
X01Y01818*
Y01826*
X00999Y0183*
X01Y01834*
Y01842*
X00999Y01846*
X01Y0185*
Y01858*
X00999Y01862*
X01Y01865*
Y01873*
X00999Y01877*
X01Y01881*
Y01889*
X00999Y01893*
X01Y01897*
Y01905*
X00999Y01911*
X00998Y01912*
Y0202*
X01279*
X01282Y02016*
G37*
G36*
X01618Y01565D02*
X01536D01*
Y01628*
X01553Y01645*
X01618*
Y01565*
G37*
G36*
X01506Y01375D02*
X01324D01*
Y01561*
X01506*
Y01375*
G37*
G36*
X01546Y01213D02*
X01548Y01211D01*
X0155Y01209*
X01551Y01206*
X0155Y01203*
X01548Y01201*
X01546Y01199*
X01543Y01198*
X01542Y01199*
X01541Y01198*
X01539Y01199*
X01536Y01202*
Y0121*
X01539Y01213*
X01541Y01214*
X01542Y01213*
X01543Y01214*
X01546Y01213*
G37*
G36*
X01568Y00901D02*
X01563Y00899D01*
X01536Y00926*
Y01191*
X01541Y01194*
X01543Y01194*
X01548Y01195*
X01552Y01197*
X01554Y01201*
X01555Y01206*
X01554Y01211*
X01552Y01215*
X01548Y01217*
X01543Y01218*
X01541Y01218*
X01536Y01221*
Y0137*
X01568*
Y00901*
G37*
G36*
X01496Y01202D02*
X01498Y01201D01*
X01499Y01201*
X01499Y012*
X015Y012*
X01502Y012*
X01503Y01199*
X01506Y01196*
Y01194*
X01503Y01191*
X01502Y0119*
X015Y0119*
X01499Y0119*
X01499Y0119*
X01498Y0119*
X01496Y01188*
X01493Y01187*
X0149Y01188*
X01488Y0119*
X01486Y01192*
X01485Y01195*
X01486Y01198*
X01488Y01201*
X0149Y01202*
X01493Y01203*
X01496Y01202*
G37*
G36*
X01499Y01032D02*
X01499Y01032D01*
X015Y01032*
X015Y01032*
X01501Y01032*
X01502Y01032*
X01504Y0103*
X01506Y01029*
Y01021*
X01504Y0102*
X01502Y01018*
X01501Y01018*
X015Y01018*
X015Y01018*
X01499Y01018*
X01499Y01018*
X01496Y01017*
X01493Y01018*
X01491Y0102*
X01489Y01022*
X01488Y01025*
X01489Y01028*
X01491Y0103*
X01493Y01032*
X01496Y01033*
X01499Y01032*
G37*
G36*
X00936Y01052D02*
X00936Y01052D01*
X00936Y01052*
X0094Y01049*
X0094Y01048*
X0094Y01048*
X0094Y01047*
X0094Y01045*
X0094Y01042*
X00937Y01039*
X00937Y01038*
X00937Y01037*
X00937Y01037*
X00937Y01036*
Y01032*
X00937Y01031*
X00937Y0103*
X0094Y01027*
X0094Y01024*
X0094Y01021*
X0094Y01019*
X0094Y01018*
X00942Y01015*
X00943Y01015*
X00943Y01014*
X00944Y01013*
X00945Y01012*
X00945Y01012*
X00946Y01012*
X00947Y01011*
X00948Y01012*
X00948Y01012*
X00948Y01012*
X00951Y01011*
X00952Y01011*
X00952Y01011*
X00953Y0101*
X00956Y01009*
X00958Y01009*
X0096Y01009*
X00963Y0101*
X00964Y01011*
X00964Y01011*
X00965Y01011*
X00967Y01012*
X0097Y01011*
X00973Y01009*
X00975Y01007*
X00975Y01004*
X00975Y01*
X00973Y00997*
X00973Y00995*
X00973Y00994*
X00973Y00994*
X00973Y00993*
X00974Y00992*
X00975Y00991*
X00978Y00989*
X0098Y00987*
X0098Y00984*
X0098Y00981*
X00977Y00978*
X00977Y00976*
X00977Y00975*
Y00972*
X00977Y00971*
X00977Y0097*
X0098Y00967*
X0098Y00964*
X0098Y00961*
X00978Y00958*
X00975Y00957*
X00972Y00956*
X0097Y00957*
X00967Y00958*
X00965Y00961*
X00965Y00964*
X00965Y00967*
X00968Y0097*
X00968Y00971*
X00968Y00972*
Y00975*
X00968Y00976*
X00968Y00978*
X00965Y00981*
X00965Y00984*
X00965Y00987*
X00967Y00991*
X00967Y00992*
X00967Y00994*
X00967Y00994*
X00967Y00994*
X00967Y00995*
X00966Y00995*
X00965Y00996*
X00964Y00997*
X00964Y00997*
X00964Y00997*
X00963Y00997*
X0096Y00999*
X00958Y00999*
X00956Y00999*
X00953Y00997*
X00952Y00997*
X00952Y00997*
X00951Y00997*
X00948Y00996*
X00946Y00997*
X00942Y00999*
X00941Y00999*
X0094Y01*
X00939*
X00938Y00999*
X00937Y00999*
X00934Y00997*
X00931Y00996*
X00928Y00997*
X00925Y00998*
X00924Y01001*
X00923Y01004*
X00924Y01007*
X00926Y0101*
X00926Y01011*
X00926Y01013*
X00926Y01018*
X00926Y0102*
X00926Y01021*
X00925Y01021*
X00925Y01024*
X00925Y01027*
X00928Y0103*
X00928Y01031*
X00928Y01032*
X00928Y01032*
X00928Y01032*
Y01036*
X00928Y01038*
X00928Y01039*
X00925Y01042*
X00925Y01045*
X00925Y01048*
X00927Y0105*
X0093Y01052*
X00933Y01053*
X00936Y01052*
G37*
G36*
X00164Y01626D02*
X0016Y01622D01*
X00155Y01616*
X00152Y01608*
X00151Y01601*
Y00318*
X00146Y00315*
X00143Y00316*
X00139Y00315*
X00135Y00312*
X00132Y00308*
X00131Y00304*
X00132Y00299*
X00135Y00295*
X00139Y00292*
X00143Y00291*
X00146Y00292*
X00151Y00289*
Y00146*
X00152Y00138*
X00155Y00131*
X0016Y00124*
X00181Y00103*
X0018Y00095*
Y00048*
X00182Y00036*
X00186Y00026*
X00191Y0002*
X00188Y00015*
X00015*
Y01715*
X00164*
Y01626*
G37*
G36*
X01732Y002D02*
X01652D01*
Y0031*
X01732*
Y002*
G37*
G36*
X02697Y00218D02*
Y00147D01*
X02699Y00142*
X02712Y00129*
X02716Y00127*
X02784*
X02786Y00125*
X0279Y00122*
X02794Y00121*
X02799Y00122*
X02803Y00125*
X02804Y00126*
X02808Y00125*
X02809Y00121*
X02804Y00116*
X02798Y00115*
X02789Y00111*
X0278Y00105*
X02774Y00096*
X02772Y00093*
X02504*
X02503Y00096*
X02499Y00102*
Y00173*
X02503Y00178*
X02507Y00188*
X02508Y00198*
Y00226*
X02507Y00236*
X02503Y00246*
X02497Y00254*
X02488Y00261*
X02479Y00265*
X02468Y00266*
X02458Y00265*
X02448Y00261*
X02446Y00259*
X02314*
Y00305*
X02317Y00308*
X02325Y00318*
X0233Y0033*
X02331Y00342*
Y00409*
X0233Y00421*
X02325Y00433*
X02317Y00443*
X0231Y00449*
X02311Y00454*
X02461*
X02697Y00218*
G37*
%LNx98_carrier_v1r2_12082022_copper_signal_2-2*%
%LPC*%
G36*
X00657Y02809D02*
X00653Y02808D01*
X00649Y02805*
X00646Y02801*
X00645Y02797*
X00646Y02792*
X00649Y02788*
X00653Y02785*
X00657Y02784*
X00662Y02785*
X00666Y02788*
X00668Y02792*
X00669Y02797*
X00668Y02801*
X00666Y02805*
X00662Y02808*
X00657Y02809*
G37*
G36*
X00201Y02807D02*
X00196Y02806D01*
X00192Y02804*
X0019Y028*
X00189Y02795*
X0019Y02791*
X00192Y02787*
X00196Y02784*
X00201Y02783*
X00206Y02784*
X0021Y02787*
X00212Y02791*
X00213Y02795*
X00212Y028*
X0021Y02804*
X00206Y02806*
X00201Y02807*
G37*
G36*
X01747Y02787D02*
X01742Y02786D01*
X01738Y02783*
X01736Y02779*
X01735Y02774*
X01736Y0277*
X01738Y02766*
X01742Y02763*
X01747Y02762*
X01752Y02763*
X01755Y02766*
X01758Y0277*
X01759Y02774*
X01758Y02779*
X01755Y02783*
X01752Y02786*
X01747Y02787*
G37*
G36*
X0182Y02808D02*
X01815Y02807D01*
X01811Y02805*
X01808Y02801*
X01807Y02796*
X01808Y02792*
X01811Y02788*
X01811Y02782*
X01808Y02778*
X01808Y02773*
X01808Y02769*
X01811Y02765*
X01815Y02762*
X0182Y02761*
X01824Y02762*
X01828Y02765*
X01831Y02769*
X01832Y02773*
X01831Y02778*
X01828Y02782*
X01828Y02788*
X01831Y02792*
X01832Y02796*
X01831Y02801*
X01828Y02805*
X01824Y02807*
X0182Y02808*
G37*
G36*
X00844Y02808D02*
X00833Y02807D01*
X00823Y02802*
X00813Y02795*
X00807Y02786*
X00802Y02776*
X00801Y02764*
X00802Y02753*
X00807Y02743*
X00813Y02734*
X00823Y02727*
X00833Y02722*
X00844Y02721*
X00856Y02722*
X00866Y02727*
X00875Y02734*
X00882Y02743*
X00887Y02753*
X00888Y02764*
X00887Y02776*
X00882Y02786*
X00875Y02795*
X00866Y02802*
X00856Y02807*
X00844Y02808*
G37*
G36*
X00883Y02725D02*
X00879Y02724D01*
X00875Y02721*
X00872Y02717*
X00871Y02713*
X00872Y02708*
X00875Y02704*
X00879Y02701*
X00883Y02701*
X00888Y02701*
X00892Y02704*
X00895Y02708*
X00895Y02713*
X00895Y02717*
X00892Y02721*
X00888Y02724*
X00883Y02725*
G37*
G36*
X002Y02699D02*
X00196Y02698D01*
X00192Y02695*
X00189Y02691*
X00188Y02687*
X00189Y02682*
X00192Y02678*
X00196Y02675*
X002Y02674*
X00205Y02675*
X00209Y02678*
X0021Y0268*
X00212Y0268*
X00216Y0268*
X00218Y02677*
X00222Y02674*
X00226Y02673*
X00231Y02674*
X00235Y02677*
X00237Y02681*
X00238Y02686*
X00237Y0269*
X00235Y02694*
X00231Y02697*
X00226Y02698*
X00222Y02697*
X00218Y02694*
X00216Y02692*
X00215Y02692*
X00211Y02692*
X00209Y02695*
X00205Y02698*
X002Y02699*
G37*
G36*
X00539Y0269D02*
X00531Y02689D01*
X00524Y02686*
X00518Y02681*
X00514Y02675*
X00511Y02668*
X0051Y02661*
X00511Y02653*
X00514Y02646*
X00518Y02641*
X00524Y02636*
X00531Y02633*
X00539Y02632*
X00546Y02633*
X00553Y02636*
X00559Y02641*
X00564Y02646*
X00567Y02653*
X00568Y02661*
X00567Y02668*
X00564Y02675*
X00559Y02681*
X00553Y02686*
X00546Y02689*
X00539Y0269*
G37*
G36*
X00346D02*
X00338Y02689D01*
X00332Y02686*
X00326Y02681*
X00321Y02675*
X00318Y02668*
X00317Y02661*
X00318Y02653*
X00321Y02646*
X00326Y02641*
X00332Y02636*
X00338Y02633*
X00346Y02632*
X00353Y02633*
X0036Y02636*
X00366Y02641*
X00371Y02646*
X00374Y02653*
X00375Y02661*
X00374Y02668*
X00371Y02675*
X00366Y02681*
X0036Y02686*
X00353Y02689*
X00346Y0269*
G37*
G36*
X00469Y02623D02*
X00465Y02622D01*
X00461Y02619*
X00458Y02615*
X00457Y02611*
X00458Y02606*
X00461Y02602*
X00465Y026*
X00469Y02599*
X00474Y026*
X00478Y02602*
X00481Y02606*
X00481Y02611*
X00481Y02615*
X00478Y02619*
X00474Y02622*
X00469Y02623*
G37*
G36*
X00439D02*
X00435Y02622D01*
X00431Y02619*
X00428Y02615*
X00427Y02611*
X00428Y02606*
X00431Y02602*
X00435Y026*
X00439Y02599*
X00444Y026*
X00448Y02602*
X00451Y02606*
X00451Y02611*
X00451Y02615*
X00448Y02619*
X00444Y02622*
X00439Y02623*
G37*
G36*
X00674Y02667D02*
X00669Y02667D01*
X00665Y02664*
X00663Y0266*
X00662Y02655*
X00662Y02651*
X0066Y02649*
X00658Y02645*
Y02554*
X0066Y0255*
X00707Y02503*
X00711Y02502*
X00711Y025*
X00709Y02497*
X00707Y02496*
X00705Y02497*
X007Y02496*
X00697Y02494*
X00366*
X003Y0256*
Y02564*
X00299Y02568*
X00297Y02571*
X00229Y02639*
X00228Y02642*
X00226Y02646*
X00222Y02649*
X00217Y0265*
X00213Y02649*
X00209Y02646*
X00206Y02642*
X00205Y02638*
X00206Y02633*
X00209Y02629*
X00213Y02626*
X00216Y02626*
X00224Y02617*
X00221Y02613*
X00221Y02614*
X00216Y02615*
X00212Y02614*
X00208Y02611*
X00205Y02607*
X00204Y02603*
X00205Y02598*
X00208Y02594*
X00212Y02591*
X00216Y0259*
X00221Y02591*
X00225Y02594*
X00227Y02598*
X00228Y02603*
X00227Y02607*
X00227Y02608*
X00231Y02611*
X00281Y02561*
Y02557*
X00282Y02553*
X00284Y0255*
X00356Y02478*
X00359Y02476*
X00362Y02475*
X00697*
X007Y02473*
X00705Y02472*
X0071Y02473*
X00716Y02472*
X0072Y02469*
X00724Y02468*
X00729Y02469*
X00733Y02472*
X00734Y02474*
X00751*
X00756Y02476*
X00758Y02478*
X0076Y02482*
Y02517*
X00758Y02522*
X00756Y02524*
X00751Y02526*
X00717*
X00685Y02558*
Y0261*
X00687Y02612*
X0069Y02616*
X00691Y0262*
X0069Y02625*
X00687Y02629*
X00683Y02632*
X00679Y02632*
X00676Y02632*
X00671Y02635*
Y02639*
X00674Y02643*
X00678Y02644*
X00682Y02647*
X00685Y02651*
X00686Y02655*
X00685Y0266*
X00682Y02664*
X00678Y02667*
X00674Y02667*
G37*
G36*
X00576Y02368D02*
X00571Y02367D01*
X00567Y02364*
X00564Y02361*
X00564Y02356*
X00564Y02351*
X00567Y02347*
X00571Y02345*
X00576Y02344*
X0058Y02345*
X00584Y02347*
X00587Y02351*
X00588Y02356*
X00587Y02361*
X00584Y02364*
X0058Y02367*
X00576Y02368*
G37*
G36*
X0022Y02268D02*
X00216Y02267D01*
X00212Y02264*
X00209Y0226*
X00208Y02256*
X00209Y02251*
X00212Y02247*
X00216Y02244*
X0022Y02243*
X00225Y02244*
X00229Y02247*
X00231Y02251*
X00232Y02256*
X00231Y0226*
X00229Y02264*
X00225Y02267*
X0022Y02268*
G37*
G36*
X00307Y02038D02*
X00303Y02037D01*
X00299Y02034*
X00296Y0203*
X00295Y02026*
X00296Y02021*
X00299Y02017*
X00303Y02014*
X00307Y02013*
X00312Y02014*
X00316Y02017*
X00318Y02021*
X00319Y02026*
X00318Y0203*
X00316Y02034*
X00312Y02037*
X00307Y02038*
G37*
G36*
X00303Y0199D02*
X00299Y01989D01*
X00295Y01986*
X00292Y01982*
X00291Y01978*
X00292Y01973*
X00295Y01969*
X00299Y01966*
X00303Y01965*
X00308Y01966*
X00312Y01969*
X00314Y01973*
X00315Y01978*
X00314Y01982*
X00312Y01986*
X00308Y01989*
X00303Y0199*
G37*
G36*
X00725Y01985D02*
X00721Y01984D01*
X00717Y01981*
X00714Y01977*
X00713Y01973*
X00714Y01968*
X00717Y01964*
X00721Y01961*
X00725Y0196*
X0073Y01961*
X00734Y01964*
X00736Y01968*
X00737Y01973*
X00736Y01977*
X00734Y01981*
X0073Y01984*
X00725Y01985*
G37*
G36*
X00729Y01943D02*
X00725Y01942D01*
X00721Y01939*
X00718Y01935*
X00717Y01931*
X00718Y01926*
X00721Y01922*
X00725Y01919*
X00729Y01918*
X00734Y01919*
X00738Y01922*
X0074Y01926*
X00741Y01931*
X0074Y01935*
X00738Y01939*
X00734Y01942*
X00729Y01943*
G37*
G36*
X00306Y01935D02*
X00302Y01934D01*
X00298Y01931*
X00295Y01927*
X00294Y01923*
X00295Y01918*
X00298Y01914*
X00302Y01911*
X00306Y0191*
X00311Y01911*
X00315Y01914*
X00317Y01918*
X00318Y01923*
X00317Y01927*
X00315Y01931*
X00311Y01934*
X00306Y01935*
G37*
G36*
X00824Y02076D02*
X0082Y02075D01*
X00816Y02072*
X00813Y02068*
X00812Y02064*
X00813Y02062*
Y01945*
X00756Y01889*
X0075Y0189*
X00749Y01892*
X00745Y01895*
X0074Y01896*
X00736Y01895*
X00732Y01892*
X00729Y01888*
X00728Y01884*
X00729Y01879*
X00732Y01875*
X00734Y01873*
X00735Y01868*
X00712Y01844*
X00709Y0184*
X00708Y01836*
Y01835*
X00659Y01786*
X00656Y01782*
X00656Y01778*
Y01477*
X00643Y01464*
X00641Y01463*
X00638Y01459*
X00638Y01455*
X00638Y01453*
Y01417*
X00534Y01313*
X00531Y01309*
X00531Y01305*
Y01229*
X00514Y01212*
X00509Y01214*
Y01221*
X00508Y01225*
X00506Y01229*
X00493Y01242*
X00494Y01244*
X00495Y01247*
X00499Y01247*
X00503Y0125*
X00505Y01254*
X00506Y01259*
X00505Y01263*
X00503Y01267*
X00499Y0127*
X00494Y01271*
X0049Y0127*
X00486Y01267*
X00483Y01263*
X00482Y0126*
X00479Y01258*
X00477Y01258*
X00404Y01331*
X00404Y01333*
X00403Y01337*
X00401Y01341*
X00397Y01344*
X00392Y01345*
X00388Y01344*
X00384Y01341*
X00381Y01337*
X00381Y01337*
X0038Y01336*
X0038Y01332*
Y01327*
X0038Y01323*
X00383Y01319*
X00468Y01234*
X00467Y01228*
X00464Y01226*
X00461Y01222*
X0046Y01218*
X00461Y01213*
X00463Y0121*
Y01106*
X00461Y01103*
X0046Y01098*
X00461Y01094*
X00464Y0109*
X00468Y01087*
X00472Y01086*
X00477Y01087*
X0048Y01089*
X00577*
X00614Y01052*
X00617Y0105*
X0062Y01049*
X00728*
X00731Y01047*
X00735Y01046*
X0074Y01047*
X00744Y0105*
X00744Y0105*
X00753*
X00757Y01051*
X0076Y01053*
X00769Y01062*
X00771Y01065*
X00771Y01069*
Y01112*
X00771Y01116*
X00769Y01119*
X00763Y01125*
X0076Y01127*
X00756Y01127*
X00743*
X0074Y01129*
X00735Y0113*
X00731Y01129*
X00727Y01127*
X00724Y01123*
X00723Y01118*
X00724Y01114*
X00727Y0111*
X00731Y01107*
X00735Y01106*
X0074Y01107*
X00743Y01109*
X00753*
X00753Y01109*
Y01077*
X00749Y01074*
X00747Y01078*
X00747Y01079*
X00746Y01084*
X00744Y01088*
X0074Y0109*
X00735Y01091*
X00731Y0109*
X00727Y01088*
X00724Y01084*
X00723Y01079*
X00724Y01075*
X00725Y01073*
X00723Y01068*
X00624*
X00587Y01105*
X00584Y01107*
X00581Y01107*
X00481*
Y01124*
X00482Y01124*
X00489Y01124*
X00493Y01121*
X00497Y0112*
X00502Y01121*
X00506Y01124*
X00508Y01128*
X00509Y01133*
X00509Y01134*
Y01175*
X00551Y01216*
X00553Y0122*
X00554Y01225*
Y013*
X00658Y01404*
X0066Y01407*
X00661Y01412*
Y0145*
X00676Y01464*
X00678Y01468*
X00679Y01472*
Y01773*
X00728Y01822*
X00731Y01826*
X00732Y0183*
Y01831*
X00739Y01838*
X00743Y01835*
X00743Y01835*
X00742Y01831*
X00743Y01826*
X00746Y01822*
X00749Y01819*
X00754Y01818*
X00759Y01819*
X00763Y01822*
X00765Y01826*
X00766Y01831*
X00765Y01835*
X00763Y01839*
X00759Y01842*
X00754Y01843*
X00749Y01842*
X00749Y01842*
X00746Y01846*
X00833Y01932*
X00835Y01936*
X00836Y0194*
Y02062*
X00836Y02064*
X00835Y02068*
X00833Y02072*
X00829Y02075*
X00824Y02076*
G37*
G36*
X00308Y01887D02*
X00304Y01886D01*
X003Y01883*
X00297Y01879*
X00296Y01875*
X00297Y0187*
X003Y01866*
X00304Y01863*
X00308Y01862*
X00313Y01863*
X00317Y01866*
X00319Y0187*
X0032Y01875*
X00319Y01879*
X00317Y01883*
X00313Y01886*
X00308Y01887*
G37*
G36*
X00275Y01689D02*
X00271Y01688D01*
X00267Y01685*
X00264Y01681*
X00263Y01677*
X00264Y01672*
X00267Y01668*
X00271Y01665*
X00275Y01664*
X0028Y01665*
X00284Y01668*
X00286Y01672*
X00287Y01677*
X00286Y01681*
X00284Y01685*
X0028Y01688*
X00275Y01689*
G37*
G36*
X00419Y01656D02*
X00414Y01655D01*
X0041Y01652*
X00407Y01648*
X00406Y01644*
X00407Y01639*
X0041Y01635*
X00414Y01632*
X00419Y01631*
X00423Y01632*
X00427Y01635*
X0043Y01639*
X00431Y01644*
X0043Y01648*
X00427Y01652*
X00423Y01655*
X00419Y01656*
G37*
G36*
X0029Y01508D02*
X00285Y01507D01*
X00281Y01504*
X00278Y015*
X00277Y01496*
X00278Y01491*
X00281Y01487*
X00285Y01484*
X0029Y01483*
X00294Y01484*
X00298Y01487*
X00301Y01491*
X00302Y01496*
X00301Y015*
X00298Y01504*
X00294Y01507*
X0029Y01508*
G37*
G36*
X00671Y01291D02*
X00667Y0129D01*
X00663Y01287*
X0066Y01283*
X00659Y01279*
X0066Y01274*
X00663Y0127*
X00667Y01267*
X00671Y01266*
X00676Y01267*
X0068Y0127*
X00682Y01274*
X00683Y01279*
X00682Y01283*
X0068Y01287*
X00676Y0129*
X00671Y01291*
G37*
G36*
X00631D02*
X00627Y0129D01*
X00623Y01287*
X0062Y01283*
X00619Y01279*
X0062Y01274*
X00623Y0127*
X00627Y01267*
X00631Y01266*
X00636Y01267*
X0064Y0127*
X00642Y01274*
X00643Y01279*
X00642Y01283*
X0064Y01287*
X00636Y0129*
X00631Y01291*
G37*
G36*
X00392Y01191D02*
X00388Y0119D01*
X00384Y01187*
X00381Y01183*
X0038Y01179*
X00381Y01174*
X00384Y0117*
X00388Y01167*
X00392Y01166*
X00397Y01167*
X00401Y0117*
X00403Y01174*
X00404Y01179*
X00403Y01183*
X00401Y01187*
X00397Y0119*
X00392Y01191*
G37*
G36*
X00735Y01189D02*
X00731Y01188D01*
X00727Y01186*
X00724Y01182*
X00723Y01177*
X00724Y01173*
X00727Y01169*
X00731Y01166*
X00735Y01165*
X0074Y01166*
X00744Y01169*
X00746Y01173*
X00747Y01177*
X00746Y01182*
X00744Y01186*
X0074Y01188*
X00735Y01189*
G37*
G36*
X00401Y01151D02*
X00397Y0115D01*
X00393Y01147*
X0039Y01143*
X00389Y01139*
X0039Y01134*
X00393Y0113*
X00397Y01127*
X00401Y01126*
X00406Y01127*
X0041Y0113*
X00412Y01134*
X00413Y01139*
X00412Y01143*
X0041Y01147*
X00406Y0115*
X00401Y01151*
G37*
G36*
X00612Y01029D02*
X00608Y01028D01*
X00604Y01025*
X00601Y01021*
X006Y01017*
X00601Y01012*
X00604Y01008*
X00608Y01005*
X00612Y01004*
X00617Y01005*
X00621Y01008*
X00623Y01012*
X00624Y01017*
X00623Y01021*
X00621Y01025*
X00617Y01028*
X00612Y01029*
G37*
G36*
X00433Y00746D02*
X00429Y00745D01*
X00425Y00742*
X00422Y00738*
X00421Y00734*
X00422Y00729*
X00425Y00725*
X00429Y00722*
X00433Y00721*
X00438Y00722*
X00442Y00725*
X00444Y00729*
X00445Y00734*
X00444Y00738*
X00442Y00742*
X00438Y00745*
X00433Y00746*
G37*
G36*
X00275Y00663D02*
X0027Y00662D01*
X00266Y00659*
X00263Y00655*
X00262Y00651*
X00263Y00646*
X00266Y00642*
X0027Y00639*
X00275Y00638*
X00279Y00639*
X00283Y00642*
X00286Y00646*
X00287Y00651*
X00286Y00655*
X00283Y00659*
X00279Y00662*
X00275Y00663*
G37*
G36*
X00333Y00551D02*
X00329Y0055D01*
X00325Y00547*
X00322Y00543*
X00321Y00539*
X00322Y00534*
X00325Y0053*
X00329Y00527*
X00333Y00526*
X00338Y00527*
X00342Y0053*
X00344Y00534*
X00345Y00539*
X00344Y00543*
X00342Y00547*
X00338Y0055*
X00333Y00551*
G37*
G36*
X00504Y00546D02*
X005Y00545D01*
X00496Y00542*
X00493Y00538*
X00492Y00534*
X00493Y00529*
X00496Y00525*
X005Y00522*
X00504Y00521*
X00509Y00522*
X00513Y00525*
X00515Y00529*
X00516Y00534*
X00515Y00538*
X00513Y00542*
X00509Y00545*
X00504Y00546*
G37*
G36*
X00637Y00492D02*
X00633Y00491D01*
X00629Y00488*
X00626Y00484*
X00625Y0048*
X00626Y00475*
X00629Y00471*
X00633Y00468*
X00637Y00467*
X00642Y00468*
X00646Y00471*
X00648Y00475*
X00649Y0048*
X00648Y00484*
X00646Y00488*
X00642Y00491*
X00637Y00492*
G37*
G36*
X00695Y00403D02*
X00628D01*
Y00336*
X00695*
Y00403*
G37*
G36*
X00561Y00403D02*
X00552Y00402D01*
X00544Y00399*
X00537Y00393*
X00532Y00386*
X00529Y00378*
X00527Y0037*
X00529Y00361*
X00532Y00353*
X00537Y00346*
X00544Y0034*
X00552Y00337*
X00561Y00336*
X0057Y00337*
X00578Y0034*
X00585Y00346*
X00591Y00353*
X00594Y00361*
X00595Y0037*
X00594Y00378*
X00591Y00386*
X00585Y00393*
X00578Y00399*
X0057Y00402*
X00561Y00403*
G37*
G36*
X0037Y00301D02*
X00366Y003D01*
X00362Y00297*
X00359Y00293*
X00358Y00289*
X00359Y00284*
X00362Y0028*
X00366Y00277*
X0037Y00276*
X00375Y00277*
X00379Y0028*
X00381Y00284*
X00382Y00289*
X00381Y00293*
X00379Y00297*
X00375Y003*
X0037Y00301*
G37*
G36*
X0189Y02737D02*
X01885Y02736D01*
X01881Y02734*
X01878Y0273*
X01877Y02725*
X01878Y02721*
X01881Y02717*
X01885Y02714*
X01886Y02714*
X01887Y02709*
X01885Y02707*
X01882Y02703*
X01882Y02699*
X01882Y02694*
X01885Y0269*
X01889Y02687*
X01894Y02687*
X01898Y02687*
X01902Y0269*
X01905Y02694*
X01906Y02699*
X01905Y02703*
X01902Y02707*
X01898Y0271*
X01897Y0271*
X01896Y02715*
X01898Y02717*
X01901Y02721*
X01902Y02725*
X01901Y0273*
X01898Y02734*
X01894Y02736*
X0189Y02737*
G37*
G36*
X01745Y02709D02*
X0174Y02708D01*
X01736Y02705*
X01734Y02702*
X01733Y02697*
X01734Y02692*
X01736Y02688*
X0174Y02686*
X01745Y02685*
X01749Y02686*
X01753Y02688*
X01756Y02692*
X01757Y02697*
X01756Y02702*
X01753Y02705*
X01749Y02708*
X01745Y02709*
G37*
G36*
X0182Y02707D02*
X01816Y02707D01*
X01812Y02704*
X01809Y027*
X01808Y02695*
X01809Y02691*
X01812Y02687*
X01816Y02684*
X0182Y02683*
X01825Y02684*
X01829Y02687*
X01832Y02691*
X01833Y02695*
X01832Y027*
X01829Y02704*
X01825Y02707*
X0182Y02707*
G37*
G36*
X01944Y02683D02*
X0194Y02682D01*
X01936Y02679*
X01933Y02675*
X01932Y02671*
X01933Y02666*
X01936Y02662*
X0194Y02659*
X01944Y02659*
X01949Y02659*
X01953Y02662*
X01955Y02666*
X01956Y02671*
X01955Y02675*
X01953Y02679*
X01949Y02682*
X01944Y02683*
G37*
G36*
X01147Y02661D02*
X01142Y0266D01*
X01138Y02657*
X01135Y02653*
X01134Y02649*
X01135Y02644*
X01138Y0264*
X01142Y02637*
X01147Y02636*
X01151Y02637*
X01155Y0264*
X01158Y02644*
X01159Y02649*
X01158Y02653*
X01155Y02657*
X01151Y0266*
X01147Y02661*
G37*
G36*
X01815Y02659D02*
X0181Y02658D01*
X01806Y02656*
X01803Y02652*
X01802Y02647*
X01803Y02643*
X01806Y02639*
X0181Y02636*
X01815Y02635*
X01819Y02636*
X01823Y02638*
X01823Y02639*
X01829Y02638*
X01829Y02637*
X01833Y02634*
X01838Y02633*
X01843Y02634*
X01846Y02637*
X01849Y02641*
X0185Y02645*
X01849Y0265*
X01846Y02654*
X01843Y02657*
X01838Y02657*
X01833Y02657*
X0183Y02654*
X01829Y02654*
X01824Y02655*
X01823Y02656*
X01819Y02658*
X01815Y02659*
G37*
G36*
X02523Y02493D02*
X02518Y02492D01*
X02514Y02489*
X02512Y02485*
X02511Y02481*
X02512Y02476*
X02514Y02472*
X02518Y0247*
X02523Y02469*
X02528Y0247*
X02532Y02472*
X02534Y02476*
X02535Y02481*
X02534Y02485*
X02532Y02489*
X02528Y02492*
X02523Y02493*
G37*
G36*
X025Y02463D02*
X02495Y02462D01*
X02491Y0246*
X02489Y02456*
X02488Y02451*
X02489Y02446*
X02491Y02442*
X02495Y0244*
X025Y02439*
X02504Y0244*
X02508Y02442*
X02511Y02446*
X02512Y02451*
X02511Y02456*
X02508Y0246*
X02504Y02462*
X025Y02463*
G37*
G36*
X02224Y02434D02*
X02219Y02433D01*
X02215Y0243*
X02213Y02426*
X02212Y02421*
X02213Y02417*
X02215Y02413*
X02219Y0241*
X02219Y02405*
X02218Y02401*
X02219Y02396*
X02222Y02392*
X02226Y0239*
X0223Y02389*
X02235Y0239*
X02239Y02392*
X02242Y02396*
X02242Y02401*
X02242Y02405*
X02239Y02409*
X02235Y02412*
X02235Y02417*
X02236Y02421*
X02235Y02426*
X02232Y0243*
X02228Y02433*
X02224Y02434*
G37*
G36*
X025Y02404D02*
X02495Y02403D01*
X02491Y02401*
X02489Y02397*
X02488Y02392*
X02489Y02387*
X02491Y02383*
X02495Y02381*
X025Y0238*
X02504Y02381*
X02508Y02383*
X02511Y02387*
X02512Y02392*
X02511Y02397*
X02508Y02401*
X02504Y02403*
X025Y02404*
G37*
G36*
X02774Y01865D02*
X0277Y01864D01*
X02766Y01861*
X02763Y01857*
X02762Y01853*
X02763Y01848*
X02766Y01844*
X0277Y01841*
X02774Y0184*
X02779Y01841*
X02783Y01844*
X02785Y01848*
X02786Y01853*
X02785Y01857*
X02783Y01861*
X02779Y01864*
X02774Y01865*
G37*
G36*
X02807Y01834D02*
X02803Y01833D01*
X02799Y0183*
X02796Y01826*
X02795Y01822*
X02796Y01817*
X02799Y01813*
X02803Y0181*
X02807Y01809*
X02812Y0181*
X02814Y01812*
X02818Y01808*
X02816Y01806*
X02815Y01801*
X02816Y01797*
X02819Y01793*
X02823Y0179*
X02828Y01789*
X02832Y0179*
X02836Y01793*
X02839Y01797*
X0284Y01801*
X02839Y01806*
X02836Y0181*
X02832Y01812*
X02828Y01813*
X02823Y01812*
X0282Y01811*
X02817Y01814*
X02818Y01817*
X02819Y01822*
X02818Y01826*
X02816Y0183*
X02812Y01833*
X02807Y01834*
G37*
G36*
X02918Y01692D02*
X02914Y01691D01*
X0291Y01688*
X02907Y01684*
X02906Y0168*
X02907Y01675*
X0291Y01671*
X02914Y01668*
X02918Y01668*
X02923Y01668*
X02927Y01671*
X0293Y01675*
X0293Y0168*
X0293Y01684*
X02927Y01688*
X02923Y01691*
X02918Y01692*
G37*
G36*
X0289Y01652D02*
X0288Y0165D01*
X02873Y01645*
X02867Y01637*
X02867Y01637*
X02862*
X02862Y01637*
X02857Y01645*
X02849Y0165*
X0284Y01652*
X0283Y0165*
X02823Y01645*
X02817Y01637*
X02816Y01628*
X02817Y01619*
X02823Y01611*
X0283Y01606*
X02831Y01606*
Y016*
X0283Y016*
X02823Y01595*
X02817Y01587*
X02816Y01578*
X02817Y01569*
X02823Y01561*
X0283Y01556*
X02831Y01556*
Y0155*
X0283Y0155*
X02823Y01545*
X02817Y01537*
X02816Y01528*
X02817Y01519*
X02823Y01511*
X0283Y01506*
X02831Y01506*
Y015*
X0283Y015*
X02823Y01495*
X02817Y01487*
X02816Y01478*
X02817Y01469*
X02823Y01461*
X0283Y01456*
X02831Y01456*
Y0145*
X0283Y0145*
X02823Y01445*
X02817Y01437*
X02816Y01428*
X02817Y01419*
X02823Y01411*
X0283Y01406*
X0284Y01404*
X02849Y01406*
X02857Y01411*
X02862Y01419*
X02862Y0142*
X02867*
X02867Y01419*
X02873Y01411*
X0288Y01406*
X0289Y01404*
X02899Y01406*
X02907Y01411*
X02912Y01419*
X02914Y01428*
X02912Y01437*
X02907Y01445*
X02899Y0145*
X02898Y0145*
Y01456*
X02899Y01456*
X02907Y01461*
X02912Y01469*
X02914Y01478*
X02912Y01487*
X02907Y01495*
X02899Y015*
X02898Y015*
Y01506*
X02899Y01506*
X02907Y01511*
X02912Y01519*
X02914Y01528*
X02912Y01537*
X02907Y01545*
X02899Y0155*
X02898Y0155*
Y01556*
X02899Y01556*
X02907Y01561*
X02912Y01569*
X02914Y01578*
X02912Y01587*
X02907Y01595*
X02899Y016*
X02898Y016*
Y01606*
X02899Y01606*
X02907Y01611*
X02912Y01619*
X02914Y01628*
X02912Y01637*
X02907Y01645*
X02899Y0165*
X0289Y01652*
G37*
G36*
X02783Y01392D02*
X02779Y01391D01*
X02775Y01388*
X02772Y01384*
X02771Y0138*
X02772Y01375*
X02775Y01371*
X02779Y01368*
X02783Y01367*
X02788Y01368*
X02792Y01371*
X02794Y01375*
X02795Y0138*
X02794Y01384*
X02792Y01388*
X02788Y01391*
X02783Y01392*
G37*
G36*
X02848Y01375D02*
X02843Y01374D01*
X02839Y01371*
X02837Y01367*
X02836Y01363*
X02837Y01358*
X02839Y01354*
X02843Y01351*
X02848Y01351*
X02852Y01351*
X02856Y01354*
X02859Y01358*
X0286Y01363*
X02859Y01367*
X02856Y01371*
X02852Y01374*
X02848Y01375*
G37*
G36*
X02785Y01361D02*
X0278Y0136D01*
X02776Y01357*
X02773Y01353*
X02773Y01349*
X02773Y01344*
X02776Y0134*
X0278Y01338*
X02785Y01337*
X02789Y01338*
X02793Y0134*
X02796Y01344*
X02797Y01349*
X02796Y01353*
X02793Y01357*
X02789Y0136*
X02785Y01361*
G37*
G36*
X02918Y01312D02*
X02913Y01311D01*
X02909Y01309*
X02906Y01305*
X02905Y013*
X02906Y01299*
X02901Y01296*
X02899Y01298*
X02894Y01299*
X0289Y01298*
X02886Y01295*
X02883Y01291*
X02882Y01287*
X02883Y01282*
X02886Y01278*
X0289Y01275*
X02894Y01274*
X02899Y01275*
X02903Y01278*
X02905Y01282*
X02906Y01287*
X02906Y01288*
X02911Y01291*
X02913Y01289*
X02918Y01288*
X02922Y01289*
X02926Y01292*
X02929Y01296*
X0293Y013*
X02929Y01305*
X02926Y01309*
X02922Y01311*
X02918Y01312*
G37*
G36*
X02919Y01245D02*
X02914Y01244D01*
X0291Y01241*
X02908Y01237*
X02907Y01233*
X02908Y01228*
X0291Y01224*
X02914Y01222*
X02919Y01221*
X02923Y01222*
X02927Y01224*
X0293Y01228*
X02931Y01233*
X0293Y01237*
X02927Y01241*
X02923Y01244*
X02919Y01245*
G37*
G36*
X02789Y01221D02*
X02784Y0122D01*
X0278Y01218*
X02777Y01214*
X02777Y01209*
X02777Y01205*
X0278Y01201*
X02784Y01198*
X02789Y01197*
X02793Y01198*
X02797Y01201*
X028Y01205*
X02801Y01209*
X028Y01214*
X02797Y01218*
X02793Y0122*
X02789Y01221*
G37*
G36*
X02867Y01182D02*
X02862Y01181D01*
X02859Y01179*
X02856Y01175*
X02855Y0117*
X02856Y01166*
X02859Y01162*
X02862Y01159*
X02867Y01158*
X02872Y01159*
X02876Y01162*
X02878Y01166*
X02879Y0117*
X02878Y01175*
X02876Y01179*
X02872Y01181*
X02867Y01182*
G37*
G36*
X029Y00999D02*
X02851D01*
X02844Y00998*
X02837Y00994*
X02833Y00987*
X02832Y0098*
Y0095*
X02833Y00943*
X02837Y00937*
X02844Y00933*
X02851Y00931*
X029*
X02907Y00933*
X02914Y00937*
X02918Y00943*
X02919Y0095*
Y0098*
X02918Y00987*
X02914Y00994*
X02907Y00998*
X029Y00999*
G37*
G36*
Y0092D02*
X02851D01*
X02844Y00919*
X02837Y00915*
X02833Y00909*
X02832Y00901*
Y00872*
X02833Y00864*
X02837Y00858*
X02844Y00854*
X02851Y00853*
X029*
X02907Y00854*
X02914Y00858*
X02918Y00864*
X02919Y00872*
Y00901*
X02918Y00909*
X02914Y00915*
X02907Y00919*
X029Y0092*
G37*
G36*
X02287Y00794D02*
X02283Y00793D01*
X02279Y0079*
X02276Y00786*
X02275Y00782*
X02276Y00777*
X02279Y00773*
X02283Y0077*
X02287Y00769*
X02292Y0077*
X02296Y00773*
X02298Y00777*
X02299Y00782*
X02298Y00786*
X02296Y0079*
X02292Y00793*
X02287Y00794*
G37*
G36*
X02847Y00784D02*
X02828D01*
X02816Y00782*
X02806Y00778*
X02797Y00771*
X0279Y00762*
X02785Y00751*
X02784Y0074*
X02785Y00729*
X0279Y00718*
X02797Y00709*
X02806Y00702*
X02816Y00698*
X02828Y00696*
X02847*
X02859Y00698*
X02869Y00702*
X02878Y00709*
X02885Y00718*
X0289Y00729*
X02891Y0074*
X0289Y00751*
X02885Y00762*
X02878Y00771*
X02869Y00778*
X02859Y00782*
X02847Y00784*
G37*
G36*
X02307Y00712D02*
X02302Y00711D01*
X02298Y00709*
X02296Y00705*
X02295Y007*
X02296Y00695*
X02298Y00691*
X02302Y00689*
X02307Y00688*
X02312Y00689*
X02315Y00691*
X02318Y00695*
X02319Y007*
X02318Y00705*
X02315Y00709*
X02312Y00711*
X02307Y00712*
G37*
G36*
X02847Y00684D02*
X02828D01*
X02816Y00682*
X02806Y00678*
X02797Y00671*
X0279Y00662*
X02785Y00651*
X02784Y0064*
X02785Y00629*
X0279Y00618*
X02797Y00609*
X02806Y00602*
X02816Y00598*
X02828Y00596*
X02847*
X02859Y00598*
X02869Y00602*
X02878Y00609*
X02885Y00618*
X0289Y00629*
X02891Y0064*
X0289Y00651*
X02885Y00662*
X02878Y00671*
X02869Y00678*
X02859Y00682*
X02847Y00684*
G37*
%LNx98_carrier_v1r2_12082022_copper_signal_2-3*%
%LPD*%
G36*
X01892Y02732D02*
X01895Y02731D01*
X01897Y02728*
X01897Y02725*
X01897Y02722*
X01895Y0272*
X01894Y02719*
X01894Y02719*
X01893Y02718*
X01888Y02717*
X01888Y02718*
X01887Y02718*
X01887Y02718*
X01887Y02718*
X01884Y0272*
X01882Y02722*
X01882Y02725*
X01882Y02728*
X01884Y02731*
X01887Y02732*
X0189Y02733*
X01892Y02732*
G37*
G36*
X01947Y02678D02*
X0195Y02676D01*
X01951Y02674*
X01952Y02671*
X01951Y02668*
X0195Y02665*
X01947Y02664*
X01944Y02663*
X01941Y02664*
X01939Y02665*
X01937Y02668*
X01936Y02671*
X01937Y02674*
X01939Y02676*
X01941Y02678*
X01944Y02678*
X01947Y02678*
G37*
G36*
X01149Y02656D02*
X01152Y02654D01*
X01154Y02651*
X01154Y02649*
X01154Y02646*
X01152Y02643*
X01149Y02641*
X01147Y02641*
X01144Y02641*
X01141Y02643*
X01139Y02646*
X01139Y02649*
X01139Y02651*
X01141Y02654*
X01144Y02656*
X01147Y02656*
X01149Y02656*
G37*
G36*
X01817Y02654D02*
X0182Y02653D01*
X0182Y02652*
X0182Y02652*
X0182Y02652*
X01822Y02651*
X01823Y0265*
X01824Y0265*
X01824Y02647*
X01822Y02643*
X01821Y02642*
X01821Y02642*
X01821Y02642*
X0182Y02642*
X0182Y02642*
X01817Y0264*
X01815Y0264*
X01812Y0264*
X01809Y02642*
X01807Y02644*
X01807Y02647*
X01807Y0265*
X01809Y02653*
X01812Y02654*
X01815Y02655*
X01817Y02654*
G37*
G36*
X02503Y02458D02*
X02505Y02456D01*
X02507Y02454*
X02508Y02451*
X02507Y02448*
X02505Y02446*
X02503Y02444*
X025Y02443*
X02497Y02444*
X02494Y02446*
X02493Y02448*
X02492Y02451*
X02493Y02454*
X02494Y02456*
X02497Y02458*
X025Y02459*
X02503Y02458*
G37*
G36*
X02227Y02429D02*
X02229Y02427D01*
X02231Y02424*
X02231Y02421*
X02231Y02418*
X02231Y02417*
X02231Y02417*
X02231Y02412*
X02231Y02411*
X02231Y02411*
X02232Y0241*
X02232Y02409*
X02232Y02409*
X02233Y02408*
X02236Y02406*
X02237Y02404*
X02238Y02401*
X02237Y02398*
X02236Y02395*
X02233Y02394*
X0223Y02393*
X02227Y02394*
X02225Y02395*
X02223Y02398*
X02223Y02401*
X02223Y02405*
X02223Y02405*
X02224Y02406*
X02223Y0241*
X02223Y02411*
X02223Y02411*
X02223Y02412*
X02222Y02413*
X02222Y02414*
X02221Y02414*
X02218Y02416*
X02217Y02419*
X02216Y02421*
X02217Y02424*
X02218Y02427*
X02221Y02429*
X02224Y02429*
X02227Y02429*
G37*
G36*
X02503Y02399D02*
X02505Y02397D01*
X02507Y02395*
X02508Y02392*
X02507Y02389*
X02505Y02387*
X02503Y02385*
X025Y02384*
X02497Y02385*
X02494Y02387*
X02493Y02389*
X02492Y02392*
X02493Y02395*
X02494Y02397*
X02497Y02399*
X025Y024*
X02503Y02399*
G37*
G36*
X0283Y01808D02*
X02833Y01807D01*
X02835Y01804*
X02835Y01801*
X02835Y01798*
X02833Y01796*
X0283Y01794*
X02828Y01794*
X02825Y01794*
X02822Y01796*
X0282Y01798*
X0282Y01801*
X0282Y01804*
X02822Y01806*
X02822Y01807*
X02823Y01807*
X02825Y01808*
X02828Y01809*
X0283Y01808*
G37*
G36*
X0292Y01307D02*
X02923Y01306D01*
X02925Y01303*
X02925Y013*
X02925Y01297*
X02923Y01295*
X0292Y01293*
X02918Y01293*
X02915Y01293*
X02913Y01294*
X02913Y01294*
X02912Y01295*
X0291Y01298*
X0291Y01299*
X0291Y01299*
X0291Y013*
X0291Y013*
X0291Y01303*
X02912Y01306*
X02915Y01307*
X02918Y01308*
X0292Y01307*
G37*
G36*
X0287Y01177D02*
X02873Y01176D01*
X02874Y01173*
X02875Y0117*
X02874Y01167*
X02873Y01165*
X0287Y01163*
X02867Y01162*
X02864Y01163*
X02862Y01165*
X0286Y01167*
X02859Y0117*
X0286Y01173*
X02862Y01176*
X02864Y01177*
X02867Y01178*
X0287Y01177*
G37*
%LNx98_carrier_v1r2_12082022_copper_signal_2-4*%
%LPC*%
G36*
X02241Y02722D02*
X02236Y02721D01*
X02232Y02719*
X02229Y02715*
X02228Y0271*
X02229Y02706*
X02232Y02702*
X02236Y02699*
X02241Y02698*
X02245Y02699*
X02249Y02702*
X02252Y02706*
X02253Y0271*
X02252Y02715*
X02249Y02719*
X02245Y02721*
X02241Y02722*
G37*
G36*
X01966Y02618D02*
X01961Y02617D01*
X01957Y02614*
X01954Y0261*
X01954Y02606*
X01954Y02601*
X01957Y02597*
X01961Y02595*
X01966Y02594*
X0197Y02595*
X01974Y02597*
X01977Y02601*
X01978Y02606*
X01977Y0261*
X01974Y02614*
X0197Y02617*
X01966Y02618*
G37*
G36*
X01642Y02608D02*
X01637Y02607D01*
X01633Y02604*
X01631Y026*
X0163Y02595*
X01631Y02591*
X01633Y02587*
X01637Y02584*
X01642Y02583*
X01647Y02584*
X01651Y02587*
X01653Y02591*
X01654Y02595*
X01653Y026*
X01651Y02604*
X01647Y02607*
X01642Y02608*
G37*
G36*
X01513Y02605D02*
X01508Y02604D01*
X01504Y02602*
X01501Y02598*
X015Y02593*
X01501Y02589*
X01504Y02585*
X01508Y02582*
X01513Y02581*
X01517Y02582*
X01521Y02585*
X01524Y02589*
X01525Y02593*
X01524Y02598*
X01521Y02602*
X01517Y02604*
X01513Y02605*
G37*
G36*
X01598Y02599D02*
X01593Y02598D01*
X01589Y02596*
X01586Y02592*
X01585Y02587*
X01586Y02583*
X01589Y02579*
X01593Y02576*
X01598Y02575*
X01602Y02576*
X01606Y02579*
X01609Y02583*
X0161Y02587*
X01609Y02592*
X01606Y02596*
X01602Y02598*
X01598Y02599*
G37*
G36*
X01737Y02525D02*
X01733Y02524D01*
X01731Y02523*
X01728Y02522*
X01724Y02523*
X01722Y02524*
X01718Y02525*
X01713Y02524*
X01709Y02521*
X01708Y0252*
X01705Y02518*
X01702Y02518*
X017Y02519*
X01696Y0252*
X01691Y02519*
X01687Y02517*
X01682Y02518*
X01679Y0252*
X01675Y02521*
X0167Y0252*
X01666Y02518*
X01663Y02514*
X01662Y02509*
X01663Y02505*
X01666Y02501*
X0167Y02498*
X01675Y02497*
X01679Y02498*
X01683Y02501*
X01688Y02499*
X01691Y02497*
X01696Y02496*
X017Y02497*
X01704Y025*
X01705Y02501*
X01708Y02503*
X01712Y02502*
X01713Y02501*
X01718Y02501*
X01722Y02501*
X01724Y02503*
X01727Y02504*
X01731Y02503*
X01733Y02502*
X01737Y02501*
X01742Y02502*
X01746Y02504*
X01749Y02508*
X01749Y02513*
X01749Y02517*
X01746Y02521*
X01742Y02524*
X01737Y02525*
G37*
G36*
X01578Y02542D02*
X01573Y02541D01*
X0157Y02539*
X01567Y02535*
X01566Y0253*
X01567Y02526*
X0157Y02522*
X01573Y02519*
X01578Y02518*
X01583Y02519*
X01584Y0252*
X01589Y02518*
X0159Y02518*
X01592Y02514*
X01596Y02512*
X01601Y02511*
X01605Y02512*
X01609Y02514*
X01612Y02518*
X01613Y02523*
X01612Y02528*
X01609Y02532*
X01605Y02534*
X01601Y02535*
X01596Y02534*
X01595Y02533*
X01589Y02535*
X01589Y02535*
X01587Y02539*
X01583Y02541*
X01578Y02542*
G37*
G36*
X01419Y02528D02*
X01414Y02527D01*
X0141Y02524*
X01407Y0252*
X01406Y02516*
X01407Y02511*
X0141Y02507*
X01414Y02504*
X01419Y02503*
X01423Y02504*
X01427Y02507*
X0143Y02511*
X01431Y02516*
X0143Y0252*
X01427Y02524*
X01423Y02527*
X01419Y02528*
G37*
G36*
X01821Y02537D02*
X01816Y02536D01*
X01812Y02534*
X0181Y0253*
X01809Y02525*
X0181Y0252*
X01812Y02516*
X01816Y02514*
X01821Y02513*
X01826Y02514*
X01827Y02515*
X01829Y02514*
X01832Y02512*
X01832Y02508*
X01835Y02504*
X01839Y02501*
X01844Y025*
X01848Y02501*
X01852Y02504*
X01858Y02503*
X01859Y02502*
X01864Y02501*
X01868Y02502*
X01872Y02505*
X01875Y02509*
X01876Y02513*
X01875Y02518*
X01872Y02522*
X01868Y02524*
X01864Y02525*
X01859Y02524*
X01855Y02522*
X0185Y02523*
X01848Y02524*
X01844Y02525*
X01839Y02524*
X01838Y02523*
X01836Y02524*
X01833Y02526*
X01832Y0253*
X0183Y02534*
X01826Y02536*
X01821Y02537*
G37*
G36*
X01907Y0252D02*
X01903Y02519D01*
X01899Y02517*
X01896Y02513*
X01895Y02508*
X01896Y02504*
X01899Y025*
X01903Y02497*
X01907Y02496*
X01912Y02497*
X01916Y025*
X01918Y02504*
X01919Y02508*
X01918Y02513*
X01916Y02517*
X01912Y02519*
X01907Y0252*
G37*
G36*
X01626Y02519D02*
X01621Y02518D01*
X01617Y02515*
X01615Y02511*
X01614Y02507*
X01615Y02502*
X01617Y02498*
X01621Y02495*
X01626Y02495*
X0163Y02495*
X01634Y02498*
X01637Y02502*
X01638Y02507*
X01637Y02511*
X01634Y02515*
X0163Y02518*
X01626Y02519*
G37*
G36*
X01394Y02498D02*
X01389Y02497D01*
X01385Y02495*
X01383Y02491*
X01382Y02486*
X01383Y02482*
X01385Y02478*
X01389Y02475*
X01394Y02474*
X01398Y02475*
X01402Y02478*
X01405Y02482*
X01406Y02486*
X01405Y02491*
X01402Y02495*
X01398Y02497*
X01394Y02498*
G37*
G36*
X01691Y02484D02*
X01686Y02483D01*
X01682Y02481*
X01679Y02477*
X01678Y02472*
X01679Y02468*
X01682Y02464*
X01686Y02461*
X01691Y0246*
X01695Y02461*
X01699Y02464*
X01702Y02468*
X01703Y02472*
X01702Y02477*
X01699Y02481*
X01695Y02483*
X01691Y02484*
G37*
G36*
X01587Y02483D02*
X01582Y02482D01*
X01578Y0248*
X01575Y02476*
X01574Y02471*
X01575Y02467*
X01578Y02463*
X01582Y0246*
X01587Y02459*
X01591Y0246*
X01595Y02463*
X01598Y02467*
X01599Y02471*
X01598Y02476*
X01595Y0248*
X01591Y02482*
X01587Y02483*
G37*
G36*
X0181Y02474D02*
X01805Y02473D01*
X01801Y02471*
X01799Y02467*
X01798Y02462*
X01799Y02457*
X01801Y02453*
X01805Y02451*
X0181Y0245*
X01815Y02451*
X01819Y02453*
X01821Y02457*
X01822Y02462*
X01821Y02467*
X01819Y02471*
X01815Y02473*
X0181Y02474*
G37*
G36*
X01798Y02516D02*
X01794Y02515D01*
X0179Y02513*
X01787Y02509*
X01786Y02504*
X01787Y025*
X0179Y02496*
X01794Y02493*
X01798Y02492*
X01802Y02493*
X01803Y02493*
X01806Y02491*
X01807Y0249*
X0181Y02487*
X01814Y02484*
X01818Y02483*
X01822Y02484*
X01823Y02484*
X01828Y02481*
X01828Y02479*
X01831Y02475*
X01835Y02472*
X01838Y02472*
X01839Y02468*
X01839Y02466*
Y02466*
X01837Y02463*
X01836Y02458*
X01837Y02453*
X01839Y0245*
X01843Y02447*
X01848Y02446*
X01853Y02447*
X01857Y0245*
X01859Y02453*
X0186Y02458*
X01859Y02463*
X01857Y02467*
X01853Y02469*
X0185Y0247*
X01848Y02474*
X01848Y02475*
Y02475*
X01851Y02479*
X01851Y02483*
X01851Y02488*
X01848Y02492*
X01844Y02494*
X01839Y02495*
X01835Y02495*
X01834Y02495*
X0183Y02497*
X01829Y025*
X01827Y02504*
X01823Y02506*
X01818Y02507*
X01815Y02507*
X01814Y02506*
X01811Y02508*
X01809Y02509*
X01807Y02513*
X01803Y02515*
X01798Y02516*
G37*
G36*
X00967Y0165D02*
X00963Y01649D01*
X00959Y01646*
X00956Y01642*
X00955Y01638*
X00956Y01633*
X00959Y01629*
X00963Y01626*
X00967Y01625*
X00972Y01626*
X00976Y01629*
X00978Y01633*
X00979Y01638*
X00978Y01642*
X00976Y01646*
X00972Y01649*
X00967Y0165*
G37*
G36*
X0122Y01307D02*
X01215Y01307D01*
X01211Y01304*
X01209Y013*
X01208Y01295*
X01209Y01291*
X01211Y01287*
X01215Y01284*
X0122Y01283*
X01225Y01284*
X01228Y01287*
X01231Y01291*
X01232Y01295*
X01231Y013*
X01228Y01304*
X01225Y01307*
X0122Y01307*
G37*
G36*
X01177Y01281D02*
X01173Y0128D01*
X01169Y01277*
X01166Y01274*
X01165Y01269*
X01166Y01264*
X01169Y0126*
X01173Y01258*
X01177Y01257*
X01182Y01258*
X01186Y0126*
X01189Y01264*
X0119Y01269*
X01189Y01274*
X01186Y01277*
X01182Y0128*
X01177Y01281*
G37*
G36*
X01336Y01269D02*
X01331Y01268D01*
X01327Y01266*
X01324Y01262*
X01324Y01257*
X01324Y01253*
X01327Y01249*
X01331Y01246*
X01336Y01245*
X0134Y01246*
X01344Y01249*
X01347Y01253*
X01348Y01257*
X01347Y01262*
X01344Y01266*
X0134Y01268*
X01336Y01269*
G37*
G36*
X01212Y01251D02*
X01207Y0125D01*
X01203Y01247*
X01201Y01244*
X012Y01239*
X01201Y01234*
X01203Y0123*
X01207Y01228*
X01212Y01227*
X01216Y01228*
X0122Y0123*
X01223Y01234*
X01224Y01239*
X01223Y01244*
X0122Y01247*
X01216Y0125*
X01212Y01251*
G37*
G36*
X01262Y01234D02*
X01258Y01233D01*
X01254Y0123*
X01251Y01226*
X0125Y01221*
X01251Y01217*
X01254Y01213*
X01258Y0121*
X01262Y01209*
X01267Y0121*
X01271Y01213*
X01273Y01217*
X01274Y01221*
X01273Y01226*
X01271Y0123*
X01267Y01233*
X01262Y01234*
G37*
G36*
X01447Y01216D02*
X01443Y01215D01*
X01439Y01212*
X01436Y01208*
X01435Y01204*
X01436Y01199*
X01439Y01195*
X01443Y01192*
X01447Y01191*
X01452Y01192*
X01456Y01195*
X01458Y01199*
X01459Y01204*
X01458Y01208*
X01456Y01212*
X01452Y01215*
X01447Y01216*
G37*
G36*
X01324Y01212D02*
X01319Y01211D01*
X01315Y01208*
X01312Y01204*
X01311Y012*
X01312Y01195*
X01315Y01191*
X01319Y01189*
X01324Y01188*
X01328Y01189*
X01332Y01191*
X01335Y01195*
X01336Y012*
X01335Y01204*
X01332Y01208*
X01328Y01211*
X01324Y01212*
G37*
G36*
X01403Y01209D02*
X01398Y01208D01*
X01394Y01205*
X01392Y01201*
X01391Y01197*
X01392Y01192*
X01394Y01188*
X01398Y01186*
X01403Y01185*
X01408Y01186*
X01412Y01188*
X01414Y01192*
X01415Y01197*
X01414Y01201*
X01412Y01205*
X01408Y01208*
X01403Y01209*
G37*
G36*
X00873Y01181D02*
X00869Y0118D01*
X00865Y01177*
X00862Y01173*
X00861Y01169*
X00862Y01164*
X00865Y0116*
X00869Y01157*
X00873Y01156*
X00878Y01157*
X00882Y0116*
X00884Y01164*
X00885Y01169*
X00884Y01173*
X00882Y01177*
X00878Y0118*
X00873Y01181*
G37*
G36*
X01308Y01044D02*
X01304Y01043D01*
X013Y0104*
X01297Y01036*
X01296Y01032*
X01297Y01027*
X013Y01023*
X01304Y0102*
X01308Y01019*
X01313Y0102*
X01317Y01023*
X01319Y01027*
X0132Y01032*
X01319Y01036*
X01317Y0104*
X01313Y01043*
X01308Y01044*
G37*
G36*
X01403Y0103D02*
X01398Y01029D01*
X01394Y01027*
X01392Y01023*
X01391Y01018*
X01392Y01014*
X01394Y0101*
X01398Y01007*
X01403Y01006*
X01407Y01007*
X01411Y0101*
X01414Y01014*
X01415Y01018*
X01414Y01023*
X01411Y01027*
X01407Y01029*
X01403Y0103*
G37*
G36*
X0109Y00997D02*
X01086Y00996D01*
X01082Y00993*
X01079Y00989*
X01078Y00985*
X01079Y0098*
X01082Y00976*
X01086Y00973*
X0109Y00972*
X01095Y00973*
X01099Y00976*
X01101Y0098*
X01102Y00985*
X01101Y00989*
X01099Y00993*
X01095Y00996*
X0109Y00997*
G37*
G36*
X01193Y00899D02*
X01189Y00898D01*
X01185Y00895*
X01182Y00891*
X01181Y00887*
X01182Y00882*
X01185Y00878*
X01189Y00875*
X01193Y00874*
X01198Y00875*
X01202Y00878*
X01204Y00882*
X01205Y00887*
X01204Y00891*
X01202Y00895*
X01198Y00898*
X01193Y00899*
G37*
G36*
X00535Y00868D02*
X0053Y00868D01*
X00526Y00865*
X00524Y00861*
X00523Y00856*
X00524Y00852*
X00526Y00848*
X0053Y00845*
X00535Y00844*
X0054Y00845*
X00543Y00848*
X00546Y00852*
X00547Y00856*
X00546Y00861*
X00543Y00865*
X0054Y00868*
X00535Y00868*
G37*
G36*
X01106Y00842D02*
X01102Y00841D01*
X01098Y00838*
X01095Y00834*
X01094Y0083*
X01095Y00825*
X01098Y00821*
X01102Y00818*
X01106Y00817*
X01111Y00818*
X01115Y00821*
X01117Y00825*
X01118Y0083*
X01117Y00834*
X01115Y00838*
X01111Y00841*
X01106Y00842*
G37*
G36*
X01376Y00798D02*
X01371Y00797D01*
X01367Y00794*
X01365Y00791*
X01364Y00786*
X01365Y00781*
X01367Y00777*
X01371Y00775*
X01376Y00774*
X01381Y00775*
X01385Y00777*
X01387Y00781*
X01388Y00786*
X01387Y00791*
X01385Y00794*
X01381Y00797*
X01376Y00798*
G37*
G36*
X01475Y00762D02*
X01471Y00761D01*
X01467Y00758*
X01464Y00755*
X01463Y0075*
X01464Y00745*
X01467Y00741*
X01471Y00739*
X01475Y00738*
X0148Y00739*
X01484Y00741*
X01487Y00745*
X01487Y0075*
X01487Y00755*
X01484Y00758*
X0148Y00761*
X01475Y00762*
G37*
G36*
X01304Y00762D02*
X013Y00761D01*
X01296Y00758*
X01293Y00754*
X01292Y0075*
X01293Y00745*
X01296Y00741*
X013Y00739*
X01304Y00738*
X01309Y00739*
X01313Y00741*
X01316Y00745*
X01316Y0075*
X01316Y00754*
X01313Y00758*
X01309Y00761*
X01304Y00762*
G37*
%LNx98_carrier_v1r2_12082022_copper_signal_2-5*%
%LPD*%
G36*
X01969Y02613D02*
X01971Y02611D01*
X01973Y02609*
X01973Y02606*
X01973Y02603*
X01971Y026*
X01969Y02599*
X01966Y02598*
X01963Y02599*
X0196Y026*
X01959Y02603*
X01958Y02606*
X01959Y02609*
X0196Y02611*
X01963Y02613*
X01966Y02613*
X01969Y02613*
G37*
G36*
X01515Y026D02*
X01518Y02599D01*
X0152Y02596*
X0152Y02593*
X0152Y0259*
X01518Y02588*
X01515Y02586*
X01513Y02586*
X0151Y02586*
X01507Y02588*
X01505Y0259*
X01505Y02593*
X01505Y02596*
X01507Y02599*
X0151Y026*
X01513Y02601*
X01515Y026*
G37*
G36*
X016Y02594D02*
X01603Y02593D01*
X01605Y0259*
X01605Y02587*
X01605Y02584*
X01603Y02582*
X016Y0258*
X01598Y0258*
X01595Y0258*
X01592Y02582*
X0159Y02584*
X0159Y02587*
X0159Y0259*
X01592Y02593*
X01595Y02594*
X01598Y02595*
X016Y02594*
G37*
G36*
X01698Y02515D02*
X01699Y02515D01*
X017Y02515*
X01701Y02514*
X01704Y02513*
X01705Y02513*
X01706Y0251*
X01706Y02507*
X01705Y02507*
X01703Y02505*
X01702Y02504*
X01702Y02504*
X01701Y02503*
X01698Y02501*
X01696Y025*
X01693Y02501*
X0169Y02503*
X0169Y02503*
X0169Y02503*
X01689Y02503*
X01689Y02503*
X01686Y02505*
X01687Y02509*
X01689Y02513*
X01693Y02515*
X01696Y02516*
X01698Y02515*
G37*
G36*
X01421Y02523D02*
X01424Y02521D01*
X01426Y02518*
X01426Y02516*
X01426Y02513*
X01424Y0251*
X01421Y02508*
X01419Y02508*
X01416Y02508*
X01413Y0251*
X01411Y02513*
X01411Y02516*
X01411Y02518*
X01413Y02521*
X01416Y02523*
X01419Y02523*
X01421Y02523*
G37*
G36*
X01824Y02532D02*
X01826Y0253D01*
X01828Y02528*
X01829Y02525*
X0183Y02524*
X0183Y02523*
X0183Y02523*
X01828Y02519*
X01827Y02519*
X01826Y02519*
X01825Y02519*
X01825Y02518*
X01824Y02518*
X01824Y02518*
X01821Y02517*
X01818Y02518*
X01816Y0252*
X01814Y02522*
X01813Y02525*
X01814Y02528*
X01816Y0253*
X01818Y02532*
X01821Y02533*
X01824Y02532*
G37*
G36*
X01693Y02479D02*
X01696Y02478D01*
X01698Y02475*
X01698Y02472*
X01698Y02469*
X01696Y02467*
X01693Y02465*
X01691Y02465*
X01688Y02465*
X01685Y02467*
X01683Y02469*
X01683Y02472*
X01683Y02475*
X01685Y02478*
X01688Y02479*
X01691Y0248*
X01693Y02479*
G37*
G36*
X01589Y02478D02*
X01592Y02477D01*
X01594Y02474*
X01594Y02471*
X01594Y02468*
X01592Y02466*
X01589Y02464*
X01587Y02464*
X01584Y02464*
X01581Y02466*
X01579Y02468*
X01579Y02471*
X01579Y02474*
X01581Y02477*
X01584Y02478*
X01587Y02479*
X01589Y02478*
G37*
G36*
X01813Y02469D02*
X01815Y02467D01*
X01817Y02465*
X01818Y02462*
X01817Y02459*
X01815Y02457*
X01813Y02455*
X0181Y02454*
X01807Y02455*
X01805Y02457*
X01803Y02459*
X01802Y02462*
X01803Y02465*
X01805Y02467*
X01807Y02469*
X0181Y0247*
X01813Y02469*
G37*
G36*
X01848Y02466D02*
X01849Y02466D01*
X01851Y02465*
X01853Y02464*
X01855Y02461*
X01856Y02458*
X01855Y02455*
X01853Y02453*
X01851Y02451*
X01848Y0245*
X01845Y02451*
X01843Y02453*
X01841Y02455*
X0184Y02458*
X01841Y02461*
X01843Y02464*
X01843Y02464*
X01843Y02464*
X01848Y02466*
X01848Y02466*
G37*
G36*
X01223Y01302D02*
X01225Y01301D01*
X01227Y01298*
X01228Y01295*
X01227Y01292*
X01225Y0129*
X01223Y01288*
X0122Y01288*
X01217Y01288*
X01214Y0129*
X01213Y01292*
X01212Y01295*
X01213Y01298*
X01214Y01301*
X01217Y01302*
X0122Y01303*
X01223Y01302*
G37*
G36*
X01339Y01264D02*
X01341Y01263D01*
X01343Y0126*
X01343Y01257*
X01343Y01254*
X01341Y01252*
X01339Y0125*
X01336Y0125*
X01333Y0125*
X0133Y01252*
X01329Y01254*
X01328Y01257*
X01329Y0126*
X0133Y01263*
X01333Y01264*
X01336Y01265*
X01339Y01264*
G37*
G36*
X01265Y01229D02*
X01268Y01227D01*
X01269Y01224*
X0127Y01221*
X01269Y01219*
X01268Y01216*
X01265Y01214*
X01262Y01214*
X01259Y01214*
X01257Y01216*
X01255Y01219*
X01255Y01221*
X01255Y01224*
X01257Y01227*
X01259Y01229*
X01262Y01229*
X01265Y01229*
G37*
G36*
X0145Y01211D02*
X01453Y01209D01*
X01454Y01206*
X01455Y01204*
X01454Y01201*
X01453Y01198*
X0145Y01196*
X01447Y01196*
X01444Y01196*
X01442Y01198*
X0144Y01201*
X0144Y01204*
X0144Y01206*
X01442Y01209*
X01444Y01211*
X01447Y01211*
X0145Y01211*
G37*
G36*
X01326Y01207D02*
X01329Y01205D01*
X01331Y01203*
X01331Y012*
X01331Y01197*
X01329Y01194*
X01326Y01193*
X01324Y01192*
X01321Y01193*
X01318Y01194*
X01316Y01197*
X01316Y012*
X01316Y01203*
X01318Y01205*
X01321Y01207*
X01324Y01208*
X01326Y01207*
G37*
G36*
X01406Y01204D02*
X01408Y01202D01*
X0141Y012*
X01411Y01197*
X0141Y01194*
X01408Y01191*
X01406Y0119*
X01403Y01189*
X014Y0119*
X01398Y01191*
X01396Y01194*
X01395Y01197*
X01396Y012*
X01398Y01202*
X014Y01204*
X01403Y01204*
X01406Y01204*
G37*
G36*
X00876Y01176D02*
X00879Y01174D01*
X0088Y01171*
X00881Y01169*
X0088Y01166*
X00879Y01163*
X00876Y01161*
X00873Y01161*
X0087Y01161*
X00868Y01163*
X00866Y01166*
X00866Y01169*
X00866Y01171*
X00868Y01174*
X0087Y01176*
X00873Y01176*
X00876Y01176*
G37*
G36*
X01311Y01039D02*
X01314Y01037D01*
X01315Y01034*
X01316Y01032*
X01315Y01029*
X01314Y01026*
X01311Y01024*
X01308Y01024*
X01305Y01024*
X01303Y01026*
X01301Y01029*
X01301Y01032*
X01301Y01034*
X01303Y01037*
X01305Y01039*
X01308Y01039*
X01311Y01039*
G37*
G36*
X01406Y01025D02*
X01408Y01024D01*
X0141Y01021*
X01411Y01018*
X0141Y01015*
X01408Y01013*
X01406Y01011*
X01403Y01011*
X014Y01011*
X01397Y01013*
X01396Y01015*
X01395Y01018*
X01396Y01021*
X01397Y01024*
X014Y01025*
X01403Y01026*
X01406Y01025*
G37*
G36*
X00538Y00863D02*
X0054Y00862D01*
X00542Y00859*
X00543Y00856*
X00542Y00853*
X0054Y00851*
X00538Y00849*
X00535Y00849*
X00532Y00849*
X00529Y00851*
X00528Y00853*
X00527Y00856*
X00528Y00859*
X00529Y00862*
X00532Y00863*
X00535Y00864*
X00538Y00863*
G37*
G36*
X01379Y00793D02*
X01381Y00791D01*
X01383Y00789*
X01384Y00786*
X01383Y00783*
X01381Y0078*
X01379Y00779*
X01376Y00778*
X01373Y00779*
X01371Y0078*
X01369Y00783*
X01368Y00786*
X01369Y00789*
X01371Y00791*
X01373Y00793*
X01376Y00794*
X01379Y00793*
G37*
G36*
X01478Y00757D02*
X01481Y00755D01*
X01482Y00753*
X01483Y0075*
X01482Y00747*
X01481Y00744*
X01478Y00743*
X01475Y00742*
X01472Y00743*
X0147Y00744*
X01468Y00747*
X01468Y0075*
X01468Y00753*
X0147Y00755*
X01472Y00757*
X01475Y00758*
X01478Y00757*
G37*
%LNx98_carrier_v1r2_12082022_copper_signal_2-6*%
%LPC*%
G36*
X01702Y0239D02*
X01697Y02389D01*
X01693Y02386*
X0169Y02382*
X01689Y02378*
X0169Y02373*
X01693Y02369*
X01697Y02366*
X01702Y02365*
X01706Y02366*
X0171Y02369*
X01713Y02373*
X01714Y02378*
X01713Y02382*
X0171Y02386*
X01706Y02389*
X01702Y0239*
G37*
G36*
X01594Y02378D02*
X01589Y02377D01*
X01585Y02374*
X01582Y0237*
X01581Y02366*
X01582Y02361*
X01585Y02357*
X01589Y02354*
X01594Y02353*
X01598Y02354*
X01602Y02357*
X01605Y02361*
X01606Y02366*
X01605Y0237*
X01602Y02374*
X01598Y02377*
X01594Y02378*
G37*
G36*
X01737Y02363D02*
X01732Y02362D01*
X01728Y0236*
X01725Y02356*
X01725Y02351*
X01725Y02347*
X01728Y02343*
X01732Y0234*
X01737Y02339*
X01741Y0234*
X01745Y02343*
X01748Y02347*
X01749Y02351*
X01748Y02356*
X01745Y0236*
X01741Y02362*
X01737Y02363*
G37*
G36*
X02596Y02317D02*
X02591Y02316D01*
X02587Y02313*
X02584Y02309*
X02583Y02305*
X02584Y023*
X02587Y02296*
X02591Y02293*
X02596Y02292*
X026Y02293*
X02604Y02296*
X02607Y023*
X02608Y02305*
X02607Y02309*
X02604Y02313*
X026Y02316*
X02596Y02317*
G37*
G36*
X026Y02215D02*
X02596Y02214D01*
X02592Y02211*
X02589Y02207*
X02588Y02203*
X02589Y02198*
X02592Y02194*
X02596Y02191*
X026Y0219*
X02605Y02191*
X02609Y02194*
X02611Y02198*
X02612Y02203*
X02611Y02207*
X02609Y02211*
X02605Y02214*
X026Y02215*
G37*
G36*
X02441Y02162D02*
X02436Y02161D01*
X02432Y02159*
X0243Y02155*
X02429Y0215*
X0243Y02146*
X02432Y02142*
X02436Y02139*
X02441Y02138*
X02445Y02139*
X02449Y02142*
X02452Y02146*
X02453Y0215*
X02452Y02155*
X02449Y02159*
X02445Y02161*
X02441Y02162*
G37*
G36*
X0244Y02133D02*
X02435Y02132D01*
X02431Y02129*
X02429Y02126*
X02428Y02121*
X02429Y02116*
X02431Y02112*
X02435Y0211*
X0244Y02109*
X02444Y0211*
X02448Y02112*
X02451Y02116*
X02452Y02121*
X02451Y02126*
X02448Y02129*
X02444Y02132*
X0244Y02133*
G37*
G36*
X02584Y02089D02*
X0258Y02088D01*
X02576Y02085*
X02573Y02081*
X02572Y02077*
X02573Y02072*
X02576Y02068*
Y02065*
X02573Y02061*
X02572Y02057*
X02573Y02052*
X02576Y02048*
X0258Y02045*
X02584Y02044*
X02589Y02045*
X02593Y02048*
X02595Y02052*
X02596Y02057*
X02595Y02061*
X02593Y02065*
Y02068*
X02595Y02072*
X02596Y02077*
X02595Y02081*
X02593Y02085*
X02589Y02088*
X02584Y02089*
G37*
G36*
X02586Y02032D02*
X02581Y02031D01*
X02578Y02029*
X02575Y02025*
X02574Y0202*
X02575Y02016*
X02578Y02012*
X02581Y02009*
X02586Y02008*
X02591Y02009*
X02595Y02012*
X02597Y02016*
X02598Y0202*
X02597Y02025*
X02595Y02029*
X02591Y02031*
X02586Y02032*
G37*
G36*
X02327Y02027D02*
X02322Y02026D01*
X02318Y02023*
X02315Y02019*
X02315Y02014*
X02315Y0201*
X02318Y02006*
X02322Y02003*
X02327Y02002*
X02331Y02003*
X02335Y02006*
X02338Y0201*
X02339Y02014*
X02338Y02019*
X02335Y02023*
X02331Y02026*
X02327Y02027*
G37*
G36*
X02447Y02024D02*
X02443Y02023D01*
X02439Y02021*
X02436Y02017*
X02435Y02012*
X02436Y02008*
X02439Y02004*
X02443Y02001*
X02447Y02*
X02452Y02001*
X02456Y02004*
X02459Y02008*
X0246Y02012*
X02459Y02017*
X02456Y02021*
X02452Y02023*
X02447Y02024*
G37*
G36*
X01447Y01779D02*
X01443Y01778D01*
X01439Y01775*
X01436Y01771*
X01435Y01767*
X01436Y01762*
X01439Y01758*
X01443Y01755*
X01447Y01754*
X01452Y01755*
X01456Y01758*
X01458Y01762*
X01459Y01767*
X01458Y01771*
X01456Y01775*
X01452Y01778*
X01447Y01779*
G37*
G36*
X0231Y01742D02*
X02306Y01741D01*
X02302Y01739*
X02301Y01738*
X02295*
X02295Y01738*
X02291Y01741*
X02287Y01742*
X02282Y01741*
X02278Y01738*
X02276Y01734*
X02275Y0173*
X02276Y01725*
X02278Y01721*
X02282Y01718*
X02287Y01718*
X02291Y01718*
X02295Y01721*
X02296Y01722*
X02302*
X02302Y01722*
X02306Y01719*
X0231Y01718*
X02315Y01719*
X02319Y01722*
X02322Y01725*
X02322Y0173*
X02322Y01735*
X02319Y01739*
X02315Y01741*
X0231Y01742*
G37*
G36*
X02209Y01747D02*
X02204Y01746D01*
X022Y01743*
X02198Y01739*
X02197Y01738*
X02197Y01737*
X02192Y01736*
X02189Y01737*
X02184Y01738*
X02184*
X02074*
X02074*
X02069Y01737*
X02064Y01734*
X02064*
X02045Y01715*
X02042Y01711*
X02041Y01705*
Y01705*
Y01666*
X01983Y01608*
X01981Y01605*
X01978Y01601*
X01977Y01595*
Y01506*
X01972Y01502*
X01926*
X0192Y01501*
X01916Y01498*
X01913Y01493*
X01912Y01488*
X01913Y01482*
X01916Y01477*
X0192Y01474*
X01926Y01473*
X01978*
X01979Y01473*
X01984Y01474*
X01988Y01477*
X02001Y0149*
X02004Y01495*
X02005Y015*
X02005*
Y01589*
X02065Y0165*
X02065*
X02068Y01654*
X02069Y01655*
X02074Y01655*
Y0157*
X02074Y0157*
X02074Y01569*
X02074Y01567*
X02074Y01565*
X02074Y01565*
X02074Y01564*
Y01492*
X02074Y01491*
X02074Y0149*
X02075Y01489*
X02075Y01489*
X02076Y01488*
X02077Y01488*
X02079Y01487*
X02082Y01486*
X02084Y01483*
X02084Y0148*
X02084Y01477*
X02082Y01475*
X02079Y01473*
X02077Y01473*
X02076Y01472*
X02075Y01471*
X02075Y01471*
X02074Y01471*
X02074Y0147*
X02074Y01468*
Y0139*
X01985*
X01984Y0139*
X01983*
Y0139*
X01888*
X01885Y01388*
X01884Y01385*
Y01302*
X01885Y01299*
X01888Y01298*
X01901*
X01903Y01298*
X01905Y01298*
X01918*
X01921Y01299*
X01922Y01302*
Y01352*
X02183Y01353*
X02184Y0135*
X02187Y01349*
X02196*
Y01348*
Y01268*
X02197Y01265*
X022Y01263*
X02229*
X02319*
X02323Y01265*
X02324Y01268*
Y01309*
X02324Y01309*
X02324Y0131*
X02323Y01311*
X02323Y01312*
X02322Y01317*
X02324Y01319*
X02324Y01322*
X02329Y01324*
X02349Y01304*
Y01288*
X0235Y01282*
X02353Y01278*
X02358Y01275*
X02363Y01273*
X02369Y01275*
X02374Y01278*
X02377Y01282*
X02378Y01288*
Y0131*
Y0131*
X02377Y01315*
X02374Y0132*
X02346Y01347*
X02346*
X02338Y01356*
X02333Y01359*
X02327Y0136*
Y0136*
X0232*
X02278Y01402*
X02274Y01405*
X02268Y01406*
X0216*
X02138Y01429*
Y01594*
X02191Y01648*
X02276*
X02277Y01647*
X02304*
X0231Y01648*
X02314Y01652*
X02315Y01653*
X02318Y0165*
X02323Y0165*
X02327Y0165*
X02331Y01653*
X02334Y01657*
X02335Y01662*
X02334Y01666*
X02331Y0167*
X02327Y01673*
X02323Y01674*
X02318Y01673*
X02315Y01671*
X02314Y01672*
X0231Y01675*
X02304Y01676*
X02279*
X02277Y01676*
X02277*
X02227*
Y01695*
X02227*
X02226Y017*
X02223Y01705*
X0221Y01718*
X02212Y01723*
X02213Y01724*
X02214Y01724*
X0222Y01723*
X02224Y0172*
X02229Y0172*
X02233Y0172*
X02237Y01723*
X0224Y01727*
X02241Y01732*
X0224Y01736*
X02237Y0174*
X02233Y01743*
X02229Y01744*
X02224Y01743*
X02224Y01743*
X02217Y01743*
X02213Y01746*
X02209Y01747*
G37*
G36*
X02459Y01748D02*
X02455Y01747D01*
X02451Y01744*
X02448Y0174*
X02447Y01736*
X02448Y01731*
X02451Y01727*
X02455Y01724*
X02459Y01723*
X02464Y01724*
X02468Y01727*
X0247Y01731*
X02471Y01736*
X0247Y0174*
X02468Y01744*
X02464Y01747*
X02459Y01748*
G37*
G36*
X0243Y01671D02*
X02426Y0167D01*
X02422Y01667*
X02419Y01663*
X02418Y01659*
X02419Y01654*
X02422Y0165*
Y01647*
X02419Y01643*
X02418Y01639*
X02419Y01634*
X02422Y0163*
X02426Y01628*
X0243Y01627*
X02435Y01628*
X02439Y0163*
X02441Y01634*
X02442Y01639*
X02441Y01643*
X02439Y01647*
Y0165*
X02441Y01654*
X02442Y01659*
X02441Y01663*
X02439Y01667*
X02435Y0167*
X0243Y01671*
G37*
G36*
X02593Y01664D02*
X02588Y01663D01*
X02584Y01661*
X02582Y01657*
X02581Y01652*
X02582Y01648*
X02584Y01644*
Y01641*
X02582Y01637*
X02581Y01632*
X02582Y01628*
X02584Y01624*
X02588Y01621*
X02593Y0162*
X02597Y01621*
X02601Y01624*
X02604Y01628*
X02605Y01632*
X02604Y01637*
X02601Y01641*
Y01644*
X02604Y01648*
X02605Y01652*
X02604Y01657*
X02601Y01661*
X02597Y01663*
X02593Y01664*
G37*
G36*
X01894Y0161D02*
X01889Y01609D01*
X01885Y01606*
X01883Y01602*
X01882Y01598*
X01883Y01593*
X01885Y01589*
Y01586*
X01883Y01582*
X01882Y01578*
X01883Y01573*
X01885Y01569*
X01889Y01567*
X01894Y01566*
X01898Y01567*
X01902Y01569*
X01905Y01573*
X01906Y01578*
X01905Y01582*
X01902Y01586*
Y01589*
X01905Y01593*
X01906Y01598*
X01905Y01602*
X01902Y01606*
X01898Y01609*
X01894Y0161*
G37*
G36*
X0243Y01607D02*
X02426Y01606D01*
X02422Y01603*
X02419Y01599*
X02418Y01595*
X02419Y0159*
X02422Y01586*
Y01584*
X02419Y0158*
X02418Y01575*
X02419Y0157*
X02422Y01566*
X02426Y01564*
X0243Y01563*
X02435Y01564*
X02439Y01566*
X02441Y0157*
X02442Y01575*
X02441Y0158*
X02439Y01584*
Y01586*
X02441Y0159*
X02442Y01595*
X02441Y01599*
X02439Y01603*
X02435Y01606*
X0243Y01607*
G37*
G36*
X02593Y01605D02*
X02588Y01604D01*
X02584Y01602*
X02582Y01598*
X02581Y01593*
X02582Y01589*
X02584Y01585*
Y01582*
X02582Y01578*
X02581Y01573*
X02582Y01569*
X02584Y01565*
X02588Y01562*
X02593Y01561*
X02597Y01562*
X02601Y01565*
X02604Y01569*
X02605Y01573*
X02604Y01578*
X02601Y01582*
Y01585*
X02604Y01589*
X02605Y01593*
X02604Y01598*
X02601Y01602*
X02597Y01604*
X02593Y01605*
G37*
G36*
X02385Y01573D02*
X0238Y01572D01*
X02376Y01569*
X02373Y01565*
X02373Y0156*
X02373Y01556*
X02376Y01552*
X0238Y01549*
X02385Y01548*
X02389Y01549*
X02393Y01552*
X02396Y01556*
X02397Y0156*
X02396Y01565*
X02393Y01569*
X02389Y01572*
X02385Y01573*
G37*
G36*
X01865Y01578D02*
X0186Y01577D01*
X01856Y01574*
X01854Y0157*
X01853Y01566*
X01854Y01561*
X01856Y01557*
Y01554*
X01854Y0155*
X01853Y01546*
X01854Y01541*
X01856Y01537*
X0186Y01535*
X01865Y01534*
X01869Y01535*
X01873Y01537*
X01876Y01541*
X01877Y01546*
X01876Y0155*
X01873Y01554*
Y01557*
X01876Y01561*
X01877Y01566*
X01876Y0157*
X01873Y01574*
X01869Y01577*
X01865Y01578*
G37*
G36*
X01894Y01546D02*
X01889Y01545D01*
X01885Y01542*
X01883Y01538*
X01882Y01534*
X01883Y01529*
X01885Y01525*
Y01522*
X01883Y01519*
X01882Y01514*
X01883Y01509*
X01885Y01505*
X01889Y01503*
X01894Y01502*
X01898Y01503*
X01902Y01505*
X01905Y01509*
X01906Y01514*
X01905Y01519*
X01902Y01522*
Y01525*
X01905Y01529*
X01906Y01534*
X01905Y01538*
X01902Y01542*
X01898Y01545*
X01894Y01546*
G37*
G36*
X02593Y01545D02*
X02588Y01544D01*
X02584Y01542*
X02582Y01538*
X02581Y01533*
X02582Y01529*
X02584Y01525*
Y01522*
X02582Y01518*
X02581Y01513*
X02582Y01509*
X02584Y01505*
X02588Y01502*
X02593Y01501*
X02597Y01502*
X02601Y01505*
X02604Y01509*
X02605Y01513*
X02604Y01518*
X02603Y0152*
X02601Y01522*
Y01525*
X02604Y01529*
X02605Y01533*
X02604Y01538*
X02601Y01542*
X02597Y01544*
X02593Y01545*
G37*
G36*
X0243Y01545D02*
X02426Y01544D01*
X02422Y01541*
X02419Y01537*
X02418Y01533*
X02419Y01528*
X02422Y01524*
Y01521*
X02419Y01517*
X02418Y01513*
X02419Y01508*
X02422Y01504*
X02426Y01502*
X0243Y01501*
X02435Y01502*
X02439Y01504*
X02441Y01508*
X02442Y01513*
X02441Y01517*
X02441Y01519*
X02439Y01521*
Y01524*
X02441Y01528*
X02442Y01533*
X02441Y01537*
X02439Y01541*
X02435Y01544*
X0243Y01545*
G37*
G36*
X02593Y01487D02*
X02588Y01486D01*
X02584Y01484*
X02582Y0148*
X02581Y01475*
X02582Y01471*
X02584Y01467*
Y01464*
X02582Y0146*
X02581Y01455*
X02582Y01451*
X02584Y01447*
X02588Y01444*
X02593Y01443*
X02597Y01444*
X02601Y01447*
X02604Y01451*
X02605Y01455*
X02604Y0146*
X02601Y01464*
Y01467*
X02604Y01471*
X02605Y01475*
X02604Y0148*
X02601Y01484*
X02597Y01486*
X02593Y01487*
G37*
G36*
X0243Y01481D02*
X02426Y01481D01*
X02422Y01478*
X02419Y01474*
X02418Y01469*
X02419Y01465*
X02422Y01461*
Y01458*
X02419Y01454*
X02418Y0145*
X02419Y01445*
X02422Y01441*
X02426Y01438*
X0243Y01437*
X02435Y01438*
X02439Y01441*
X02441Y01445*
X02442Y0145*
X02441Y01454*
X02439Y01458*
Y01461*
X02441Y01465*
X02442Y01469*
X02441Y01474*
X02439Y01478*
X02435Y01481*
X0243Y01481*
G37*
G36*
X01785Y01435D02*
X01781Y01434D01*
X01777Y01431*
X01774Y01427*
X01773Y01423*
X01774Y01418*
X01777Y01414*
X01781Y01411*
X01785Y0141*
X0179Y01411*
X01794Y01414*
X01796Y01418*
X01797Y01423*
X01796Y01427*
X01794Y01431*
X0179Y01434*
X01785Y01435*
G37*
G36*
X01865Y01483D02*
X0186Y01482D01*
X01856Y01479*
X01854Y01475*
X01853Y01471*
X01854Y01466*
X01856Y01462*
Y01459*
X01854Y01456*
X01853Y01451*
X01854Y01446*
X01856Y01442*
X0186Y0144*
X01865Y01439*
X01869Y0144*
X01873Y01442*
X01874Y01444*
X01874Y01444*
X01879Y01442*
X01879Y01441*
X01879Y01439*
X01879Y01435*
X01882Y01431*
Y01428*
X01879Y01424*
X01879Y01419*
X01879Y01415*
X01882Y01411*
X01886Y01408*
X01891Y01407*
X01895Y01408*
X01899Y01411*
X01902Y01415*
X01903Y01419*
X01902Y01424*
X01899Y01428*
Y01431*
X01902Y01435*
X01903Y01439*
X01902Y01444*
X01899Y01448*
X01895Y0145*
X01891Y01451*
X01886Y0145*
X01882Y01448*
X01881Y01446*
X01881Y01446*
X01876Y01448*
X01876Y01449*
X01877Y01451*
X01876Y01456*
X01873Y01459*
Y01462*
X01876Y01466*
X01877Y01471*
X01876Y01475*
X01873Y01479*
X01869Y01482*
X01865Y01483*
G37*
G36*
X02593Y01427D02*
X02588Y01426D01*
X02584Y01424*
X02582Y0142*
X02581Y01415*
X02582Y01411*
X02584Y01407*
Y01404*
X02582Y014*
X02581Y01395*
X02582Y01391*
X02584Y01387*
X02588Y01384*
X02593Y01383*
X02597Y01384*
X02601Y01387*
X02604Y01391*
X02605Y01395*
X02604Y014*
X02601Y01404*
Y01407*
X02604Y01411*
X02605Y01415*
X02604Y0142*
X02601Y01424*
X02597Y01426*
X02593Y01427*
G37*
G36*
X0243Y01416D02*
X02426Y01415D01*
X02422Y01413*
X02419Y01409*
X02418Y01404*
X02419Y01399*
X02422Y01395*
Y01393*
X02419Y01389*
X02418Y01384*
X02419Y0138*
X02422Y01376*
X02426Y01373*
X0243Y01372*
X02435Y01373*
X02439Y01376*
X02441Y0138*
X02442Y01384*
X02441Y01389*
X02439Y01393*
Y01395*
X02441Y01399*
X02442Y01404*
X02441Y01409*
X02439Y01413*
X02435Y01415*
X0243Y01416*
G37*
G36*
X02477Y01362D02*
X02472Y01361D01*
X02468Y01359*
X02466Y01355*
X02466Y01355*
X02465Y0135*
X02466Y01346*
X02468Y01342*
X02472Y01339*
X02474Y01339*
X02476Y01334*
X02476Y01334*
X02475Y01329*
X02476Y01326*
X02475Y01323*
X02473Y01321*
X0247Y0132*
X02466Y01318*
X02463Y01314*
X02462Y01309*
X02463Y01304*
X02466Y01301*
X0247Y01298*
X02474Y01297*
X02479Y01298*
X02483Y01301*
X02485Y01304*
X02486Y01309*
X02486Y01313*
X02487Y01315*
X02489Y01318*
X02492Y01318*
X02496Y01321*
X02499Y01325*
X025Y01329*
X02499Y01334*
X02496Y01338*
X02492Y01341*
X02491Y01341*
X02488Y01346*
X02488Y01346*
X02489Y0135*
X02488Y01355*
X02488Y01355*
X02485Y01359*
X02482Y01361*
X02477Y01362*
G37*
G36*
X02397Y01286D02*
X02393Y01285D01*
X02389Y01282*
X02386Y01278*
X02385Y01274*
X02386Y01269*
X02389Y01265*
X02393Y01262*
X02397Y01261*
X02402Y01262*
X02406Y01265*
X02408Y01269*
X02409Y01274*
X02408Y01278*
X02406Y01282*
X02402Y01285*
X02397Y01286*
G37*
G36*
X02104Y01257D02*
X02099Y01256D01*
X02095Y01254*
X02093Y0125*
X02092Y01245*
X02093Y0124*
X02095Y01236*
X02099Y01234*
X02104Y01233*
X02108Y01234*
X02112Y01236*
X02115Y0124*
X02116Y01245*
X02115Y0125*
X02112Y01254*
X02108Y01256*
X02104Y01257*
G37*
G36*
X02503Y01221D02*
X02499Y0122D01*
X02495Y01218*
X02492Y01214*
X02491Y01209*
X02492Y01204*
X02495Y012*
X02499Y01198*
X02503Y01197*
X02508Y01198*
X02512Y012*
X02514Y01204*
X02515Y01209*
X02514Y01214*
X02512Y01218*
X02508Y0122*
X02503Y01221*
G37*
G36*
X02582Y01219D02*
X02578Y01218D01*
X02574Y01215*
X02571Y01211*
X0257Y01207*
X02571Y01202*
X02574Y01198*
X02578Y01195*
X02582Y01194*
X02587Y01195*
X02591Y01198*
X02593Y01202*
X02594Y01207*
X02593Y01211*
X02591Y01215*
X02587Y01218*
X02582Y01219*
G37*
G36*
X02619Y01212D02*
X02615Y01211D01*
X02611Y01208*
X02608Y01204*
X02607Y012*
X02608Y01195*
X02611Y01191*
X02615Y01188*
X02619Y01187*
X02624Y01188*
X02628Y01191*
X0263Y01195*
X02631Y012*
X0263Y01204*
X02628Y01208*
X02624Y01211*
X02619Y01212*
G37*
G36*
X02365Y01255D02*
Y01137D01*
X02483*
X02482Y01152*
X02477Y01171*
X0247Y01189*
X0246Y01205*
X02447Y0122*
X02433Y01232*
X02416Y01242*
X02399Y0125*
X0238Y01254*
X02365Y01255*
G37*
G36*
X02357D02*
X02342Y01254D01*
X02323Y0125*
X02305Y01242*
X02289Y01232*
X02274Y0122*
X02262Y01205*
X02252Y01189*
X02244Y01171*
X0224Y01152*
X02239Y01137*
X02357*
Y01255*
G37*
G36*
X01893Y01143D02*
X01889Y01142D01*
X01885Y0114*
X01882Y01136*
X01881Y01131*
X01882Y01127*
X01885Y01123*
X01889Y0112*
X01893Y01119*
X01898Y0112*
X01902Y01123*
X01905Y01127*
X01906Y01131*
X01905Y01136*
X01902Y0114*
X01898Y01142*
X01893Y01143*
G37*
G36*
X01937Y01138D02*
X01933Y01137D01*
X01929Y01134*
X01926Y0113*
X01925Y01126*
X01926Y01121*
X01929Y01117*
X01933Y01115*
X01937Y01114*
X01942Y01115*
X01943Y01116*
X01949Y01114*
X01949Y01113*
X01952Y01109*
X01956Y01107*
X0196Y01106*
X01965Y01107*
X01969Y01109*
X0197Y01111*
X01975Y0111*
X01975Y0111*
X01978Y01106*
X0198Y01105*
X01982Y011*
X01981Y01096*
X01982Y01091*
X01985Y01087*
X01989Y01084*
X01993Y01083*
X01998Y01084*
X02002Y01087*
X02004Y01091*
X02005Y01096*
X02004Y011*
X02002Y01104*
X02001Y01105*
X01998Y01109*
X01998Y01112*
X01999Y01114*
X01998Y01119*
X01995Y01123*
X01991Y01125*
X01986Y01126*
X01982Y01125*
X01978Y01123*
X01977Y01121*
X01971Y01122*
X01971Y01122*
X01969Y01126*
X01965Y01129*
X0196Y0113*
X01956Y01129*
X01954Y01128*
X01949Y0113*
X01948Y0113*
X01946Y01134*
X01942Y01137*
X01937Y01138*
G37*
G36*
X0217Y01232D02*
X02166Y01232D01*
X02162Y01229*
X02159Y01225*
X02158Y0122*
X02159Y01216*
X02162Y01212*
X02162Y01212*
Y01209*
X0216Y01205*
X02159Y01201*
X0216Y01196*
X02162Y01192*
X02162Y01187*
X0216Y01185*
X02159Y0118*
X0216Y01176*
X02163Y01172*
Y01169*
X0216Y01165*
X02159Y0116*
X0216Y01156*
X02163Y01152*
X02163Y01146*
X02161Y01144*
X0216Y01139*
X02161Y01135*
X02163Y01133*
X02163Y01129*
X02164Y01129*
X02163Y01126*
X02161Y01124*
X0216Y01119*
X02161Y01114*
X02164Y0111*
Y01107*
X02161Y01103*
X0216Y01098*
X02161Y01094*
X02164Y0109*
Y01087*
X02161Y01083*
X0216Y01078*
X02161Y01074*
X02164Y0107*
X02168Y01067*
X02172Y01066*
X02177Y01067*
X02181Y0107*
X02184Y01074*
X02185Y01078*
X02184Y01083*
X02181Y01087*
Y0109*
X02184Y01094*
X02185Y01098*
X02184Y01103*
X02181Y01107*
Y0111*
X02184Y01114*
X02185Y01119*
X02184Y01124*
X02182Y01126*
X02181Y01129*
X02182Y01133*
X02184Y01135*
X02185Y01139*
X02184Y01144*
X02181Y01148*
X02181Y01154*
X02183Y01156*
X02184Y0116*
X02183Y01165*
X0218Y01169*
Y01172*
X02183Y01176*
X02184Y0118*
X02183Y01185*
X0218Y01189*
X02181Y01194*
X02182Y01196*
X02183Y01201*
X02182Y01205*
X02179Y01209*
X02179Y01209*
Y01212*
X02182Y01216*
X02183Y0122*
X02182Y01225*
X02179Y01229*
X02175Y01232*
X0217Y01232*
G37*
G36*
X02501Y01061D02*
X02497Y0106D01*
X02493Y01057*
X0249Y01053*
X02489Y01049*
X0249Y01044*
X02493Y0104*
X02497Y01037*
X02501Y01036*
X02506Y01037*
X0251Y0104*
X02512Y01044*
X02513Y01049*
X02512Y01053*
X0251Y01057*
X02506Y0106*
X02501Y01061*
G37*
G36*
X02357Y01129D02*
X02239D01*
X0224Y01114*
X02244Y01095*
X02252Y01078*
X02262Y01061*
X02274Y01047*
X02289Y01034*
X02305Y01024*
X02323Y01017*
X02342Y01012*
X02357Y01011*
Y01129*
G37*
G36*
X02483D02*
X02365D01*
Y01011*
X0238Y01012*
X02399Y01017*
X02416Y01024*
X02433Y01034*
X02447Y01047*
X0246Y01061*
X0247Y01078*
X02477Y01095*
X02482Y01114*
X02483Y01129*
G37*
G36*
X01841Y01033D02*
X01837Y01032D01*
X01833Y01029*
X0183Y01025*
X01829Y01021*
X0183Y01016*
X01833Y01012*
X01837Y01009*
X01841Y01009*
X01846Y01009*
X0185Y01012*
X01852Y01016*
X01853Y01021*
X01852Y01025*
X0185Y01029*
X01846Y01032*
X01841Y01033*
G37*
G36*
X02215Y01075D02*
X02211Y01074D01*
X02207Y01072*
X02204Y01068*
X02203Y01063*
X02204Y01059*
X02207Y01055*
X02211Y01052*
X02215Y01051*
X0222Y01052*
X02224Y01055*
X02224Y01055*
X02229Y01054*
X0223Y01052*
X02232Y01048*
X02236Y01045*
X02237Y01045*
X0224Y01041*
X0224Y0104*
X02239Y01037*
X0224Y01032*
X02242Y0103*
X02243Y01027*
X02242Y01022*
X02241Y01021*
X0224Y01016*
X0224Y01015*
X02241Y01012*
X02237Y01009*
X02237Y01009*
X02233Y01007*
X0223Y01003*
X0223Y01003*
X02225Y01001*
X02223Y01002*
X02218Y01003*
X02214Y01002*
X0221Y01*
X02207Y00996*
X02206Y00991*
X02207Y00986*
X0221Y00983*
X02214Y0098*
X02218Y00979*
X02223Y0098*
X02227Y00983*
X02229Y00986*
X02229Y00987*
X02235Y00988*
X02237Y00987*
X02241Y00986*
X02246Y00987*
X0225Y0099*
X02252Y00994*
X02253Y00998*
X02253Y01*
X02252Y01003*
X02257Y01005*
X02257Y01005*
X02261Y01008*
X02263Y01012*
X02264Y01016*
X02263Y01021*
X02262Y01023*
X02261Y01026*
X02262Y0103*
X02263Y01032*
X02264Y01037*
X02263Y01041*
X0226Y01045*
X02256Y01048*
X02255Y01048*
X02252Y01051*
X02252Y01053*
X02253Y01056*
X02252Y01061*
X02249Y01065*
X02245Y01067*
X02241Y01068*
X02236Y01067*
X02232Y01065*
X02232Y01065*
X02227Y01066*
X02226Y01068*
X02224Y01072*
X0222Y01074*
X02215Y01075*
G37*
G36*
X01865Y01005D02*
X01861Y01004D01*
X01857Y01001*
X01855Y00998*
X01854Y00998*
X01849Y00996*
X01845Y01*
X01841Y01002*
X0182*
X01817Y01004*
X01813Y01005*
X01808Y01004*
X01804Y01001*
X01801Y00997*
X018Y00993*
X01801Y00988*
X01804Y00984*
X01808Y00982*
X01812Y00981*
X01813Y0098*
X01814Y00976*
X01812Y00974*
X01809Y00971*
X01807Y00971*
X01804Y00972*
X01804Y00975*
X01801Y00979*
X01797Y00982*
X01792Y00983*
X01788Y00982*
X01784Y00979*
X01781Y00975*
X0178Y0097*
X01781Y00966*
X01784Y00962*
X01788Y00959*
X01792Y00958*
X01797Y00959*
X01801Y00962*
X01803Y00965*
X01806Y00965*
X01808Y00964*
X01809Y00961*
X01812Y00957*
X01815Y00954*
X0182Y00953*
X01824Y00954*
X01829Y00951*
Y00938*
X01828Y00937*
Y00777*
X0183Y00772*
X0185Y00752*
X01855Y0075*
X0187*
X01875Y00752*
X01877Y00754*
X01906Y00725*
X01905Y0072*
X01905Y00719*
X01901Y00717*
X01898Y00713*
X01897Y00708*
X01898Y00704*
X01901Y007*
X01905Y00697*
X01909Y00696*
X01914Y00697*
X01918Y007*
X01921Y00704*
X01922Y00708*
X01921Y0071*
X01925Y00715*
X01936*
X0194Y0071*
Y00683*
X01942Y00678*
X02073Y00547*
X02077Y00545*
X02215*
X02217Y00542*
X02221Y00539*
X02225Y00538*
X0223Y00539*
X02234Y00542*
X02236Y00546*
X02237Y00551*
X02236Y00555*
X02234Y00559*
X0223Y00562*
X02225Y00563*
X02221Y00562*
X02217Y00559*
X02216Y00558*
X0208*
X01953Y00685*
Y00696*
X01957Y00698*
X02031Y00625*
X02035Y00623*
X02036*
X0204Y00619*
Y00618*
X02042Y00613*
X0207Y00586*
X02074Y00584*
X02086*
X02087Y00583*
X02091Y0058*
X02095Y00579*
X021Y0058*
X02104Y00583*
X02106Y00587*
X02107Y00592*
X02106Y00596*
X02104Y006*
X021Y00603*
X02095Y00604*
X02091Y00603*
X02087Y006*
X02085Y00597*
X02077*
X02053Y00621*
Y00621*
X02052Y00626*
X02043Y00634*
X02039Y00636*
X02038*
X01961Y00713*
Y00716*
X01959Y00721*
X019Y00779*
X01901Y00783*
X01903Y00786*
X01908Y00787*
X01916Y0078*
X01915Y00777*
X01916Y00773*
X01919Y00769*
X01923Y00766*
X01928Y00765*
X01932Y00766*
X01936Y00769*
X01939Y00773*
X0194Y00777*
X01939Y00782*
X01936Y00786*
X01932Y00788*
X01928Y00789*
X01925Y00789*
X01909Y00805*
X01909Y00812*
X01909Y00812*
X01912Y00816*
X01913Y0082*
X01912Y00825*
X01909Y00829*
X01907Y0083*
Y00836*
X01934Y00863*
X0194Y00862*
X0194Y00861*
X01941Y00856*
X01939Y00852*
X01938Y00848*
X01939Y00843*
X01941Y00839*
X0194Y00834*
X01939Y00832*
X01938Y00827*
X01939Y00823*
X0194Y00821*
X0194Y00815*
X01937Y00812*
X01936Y00807*
X01937Y00802*
X0194Y00798*
X01944Y00796*
X01948Y00795*
X01953Y00796*
X01957Y00798*
X0196Y00802*
X01961Y00807*
X0196Y00812*
X01959Y00813*
X01958Y00819*
X01961Y00823*
X01962Y00827*
X01961Y00832*
X01958Y00836*
X01959Y00841*
X01961Y00843*
X01962Y00848*
X01961Y00852*
X0196Y00854*
X01959Y00859*
X01962Y00863*
X01962Y00867*
X01962Y00871*
X01962Y00873*
X01965Y00876*
X02002*
X02037Y00841*
X02039Y0084*
X0204Y00838*
X02042Y00835*
X02046Y00832*
X02051Y00831*
X02055Y00832*
X02059Y00835*
X02062Y00838*
X02063Y00843*
X02062Y00848*
X02059Y00852*
X02056Y00854*
X02055Y00854*
X02054Y0086*
X02055Y0086*
X02056Y00865*
X02055Y0087*
X02052Y00874*
X02048Y00876*
X02044Y00877*
X02041Y00877*
X02022Y00895*
X02018Y00897*
X01941*
X01937Y00895*
X01882Y00841*
X0188Y00836*
Y00815*
X01882Y0081*
X01883Y0081*
X01882Y00805*
X01878Y00806*
X01876Y00809*
X01872Y00812*
X01867Y00813*
X01863Y00812*
X01862Y00812*
X01858Y00815*
Y00966*
X01856Y0097*
X01855Y00971*
Y00979*
X0186Y00982*
X01861Y00982*
X01865Y00981*
X0187Y00982*
X01874Y00984*
X01877Y00988*
X01878Y00993*
X01877Y00998*
X01874Y01001*
X0187Y01004*
X01865Y01005*
G37*
G36*
X01936Y01005D02*
X01932Y01004D01*
X01928Y01001*
X01925Y00997*
X01924Y00993*
X01925Y00988*
X01928Y00984*
X01932Y00981*
X01936Y0098*
X01941Y00981*
X01945Y00984*
X01947Y00988*
X01948Y00993*
X01947Y00997*
X01945Y01001*
X01941Y01004*
X01936Y01005*
G37*
G36*
X01904Y00997D02*
X019Y00996D01*
X01896Y00993*
X01893Y00989*
X01892Y00985*
X01893Y00982*
X01889Y00978*
X01889Y00977*
X01888Y00978*
X01884Y00977*
X0188Y00974*
X01877Y0097*
X01876Y00966*
X01877Y00961*
X0188Y00957*
X01884Y00954*
X01888Y00953*
X01893Y00954*
X01897Y00957*
X01899Y00961*
X019Y00966*
X01904Y00969*
X01908Y00968*
X01909Y00963*
X01912Y00959*
X01916Y00956*
X0192Y00955*
X01925Y00956*
X01929Y00959*
X01931Y00963*
X01932Y00968*
X01931Y00972*
X01929Y00976*
X01925Y00979*
X0192Y0098*
X01916Y00984*
X01916Y00985*
X01915Y00989*
X01913Y00993*
X01909Y00996*
X01904Y00997*
G37*
G36*
X01998Y01005D02*
X01994Y01004D01*
X0199Y01001*
X01987Y00997*
X01986Y00993*
X01987Y0099*
X01983Y00986*
X01983Y00986*
X01979Y00985*
X01975Y00982*
X01972Y00978*
X01971Y00974*
X01972Y00969*
X01975Y00965*
X01979Y00962*
X01983Y00961*
X01988Y00962*
X01992Y00965*
X01994Y00969*
X01995Y00974*
X01995Y00976*
X01998Y0098*
X01999Y0098*
X02003Y00981*
X02007Y00984*
X02009Y00988*
X0201Y00993*
X02009Y00997*
X02007Y01001*
X02003Y01004*
X01998Y01005*
G37*
G36*
X01645Y0097D02*
X01641Y00969D01*
X01637Y00966*
X01634Y00962*
X01633Y00957*
X01634Y00953*
X01637Y00949*
X01641Y00946*
X01645Y00945*
X0165Y00946*
X01654Y00949*
X01657Y00953*
X01657Y00957*
X01657Y00962*
X01654Y00966*
X0165Y00969*
X01645Y0097*
G37*
G36*
X02062Y00962D02*
X02058Y00961D01*
X02054Y00959*
X02051Y00955*
X0205Y0095*
X02051Y00946*
X02054Y00942*
X02058Y00939*
X02062Y00938*
X02067Y00939*
X02071Y00942*
X02073Y00946*
X02074Y0095*
X02073Y00955*
X02071Y00959*
X02067Y00961*
X02062Y00962*
G37*
G36*
X01604Y00953D02*
X01599Y00952D01*
X01596Y00949*
X01593Y00945*
X01592Y0094*
X01593Y00936*
X01596Y00932*
X01599Y00929*
X01604Y00928*
X01609Y00929*
X01613Y00932*
X01615Y00936*
X01616Y0094*
X01615Y00945*
X01613Y00949*
X01609Y00952*
X01604Y00953*
G37*
G36*
X0173Y00941D02*
X01725Y00941D01*
X01721Y00938*
X01718Y00934*
X01718Y00929*
X01718Y00925*
X01721Y00921*
X01725Y00918*
X0173Y00917*
X01734Y00918*
X01738Y00921*
X01741Y00925*
X01742Y00929*
X01741Y00934*
X01738Y00938*
X01734Y00941*
X0173Y00941*
G37*
G36*
X02642Y00956D02*
X02638Y00955D01*
X02634Y00952*
X02631Y00948*
X0263Y00944*
X02631Y00939*
X02634Y00935*
X02638Y00932*
X02642Y00931*
X02645Y00932*
X0266Y00917*
X02664Y00915*
X0267*
X02672Y00913*
X02676Y0091*
X0268Y00909*
X02685Y0091*
X02689Y00913*
X02691Y00917*
X02692Y00922*
X02691Y00926*
X02689Y0093*
X02685Y00933*
X0268Y00934*
X02676Y00933*
X02672Y0093*
X02671Y0093*
X02666Y00929*
X02654Y00941*
X02654Y00944*
X02653Y00948*
X02651Y00952*
X02647Y00955*
X02642Y00956*
G37*
G36*
X02062Y00918D02*
X02058Y00917D01*
X02054Y00915*
X02051Y00911*
X0205Y00906*
X02051Y00901*
X02054Y00898*
X02058Y00895*
X02062Y00894*
X02067Y00895*
X02071Y00898*
X02073Y00901*
X02074Y00906*
X02073Y00911*
X02071Y00915*
X02067Y00917*
X02062Y00918*
G37*
G36*
X02566Y009D02*
X02561Y009D01*
X02557Y00897*
X02555Y00893*
X02554Y00888*
X02555Y00884*
X02557Y0088*
X02561Y00877*
X02566Y00876*
X0257Y00877*
X02574Y0088*
X02577Y00884*
X02578Y00888*
X02577Y00893*
X02574Y00897*
X0257Y009*
X02566Y009*
G37*
G36*
X01703Y00893D02*
X01698Y00892D01*
X01694Y0089*
X01691Y00886*
X0169Y00881*
X01691Y00877*
X01694Y00873*
X01698Y0087*
X01703Y00869*
X01707Y0087*
X01711Y00873*
X01714Y00877*
X01715Y00881*
X01714Y00886*
X01711Y0089*
X01707Y00892*
X01703Y00893*
G37*
G36*
X02401Y00886D02*
X02397Y00885D01*
X02393Y00882*
X0239Y00878*
X02389Y00874*
X0239Y00869*
X02393Y00865*
X02397Y00862*
X02401Y00861*
X02406Y00862*
X0241Y00865*
X02412Y00869*
X02413Y00874*
X02412Y00878*
X0241Y00882*
X02406Y00885*
X02401Y00886*
G37*
G36*
X02527Y0087D02*
X02523Y00869D01*
X02519Y00867*
X02516Y00863*
X02515Y00858*
X02516Y00854*
X02519Y0085*
X02523Y00847*
X02527Y00846*
X02532Y00847*
X02536Y0085*
X02538Y00854*
X02539Y00858*
X02538Y00863*
X02536Y00867*
X02532Y00869*
X02527Y0087*
G37*
G36*
X02331Y00948D02*
X02327Y00947D01*
X02323Y00945*
X0232Y00941*
X02319Y00936*
X0232Y00932*
X02322Y00929*
Y0092*
X02185*
X02181Y00919*
X02178Y00917*
X02156Y00895*
X02152Y00894*
X02148Y00892*
X02146Y00888*
X02145Y00883*
X02146Y00878*
X02147Y00876*
Y00838*
X02148Y00835*
X0215Y00832*
X02149Y00827*
X02114Y00792*
X02066*
X02064Y00794*
X0206Y00797*
X02056Y00797*
X02051Y00797*
X02047Y00794*
X02045Y0079*
X02044Y00785*
X02045Y00781*
X02047Y00777*
X02051Y00774*
X02056Y00773*
X0206Y00774*
X02064Y00777*
X02066Y00779*
X02117*
X0212Y00779*
X02122Y00781*
X0216Y00819*
X02162Y00818*
X02167Y00819*
X02171Y00822*
X02173Y00826*
X02174Y00831*
X02173Y00835*
X02171Y00839*
X02167Y00842*
X02165Y00842*
Y00874*
X02168Y00878*
X02169Y00882*
X02189Y00902*
X02331*
X02335Y00902*
X02338Y00904*
X0234Y00907*
X02341Y00911*
Y00929*
X02343Y00932*
X02344Y00936*
X02343Y00941*
X0234Y00945*
X02336Y00947*
X02331Y00948*
G37*
G36*
X01587Y00678D02*
X01582Y00677D01*
X01578Y00675*
X01576Y00671*
X01575Y00666*
X01576Y00662*
X01578Y00658*
X01582Y00655*
X01587Y00654*
X01591Y00655*
X01595Y00658*
X01598Y00662*
X01599Y00666*
X01598Y00671*
X01595Y00675*
X01591Y00677*
X01587Y00678*
G37*
G36*
X01562Y00628D02*
X01558Y00627D01*
X01554Y00625*
X01551Y00621*
X0155Y00616*
X01551Y00612*
X01554Y00608*
X01558Y00605*
X01562Y00604*
X01567Y00605*
X01571Y00608*
X01573Y00612*
X01574Y00616*
X01573Y00621*
X01571Y00625*
X01567Y00627*
X01562Y00628*
G37*
G36*
X01523Y00623D02*
X01518Y00622D01*
X01514Y00619*
X01512Y00615*
X01511Y0061*
X01512Y00606*
X01514Y00602*
X01518Y00599*
X01523Y00598*
X01527Y00599*
X01531Y00602*
X01534Y00606*
X01535Y0061*
X01534Y00615*
X01531Y00619*
X01527Y00622*
X01523Y00623*
G37*
G36*
X01607Y00622D02*
X01602Y00621D01*
X01598Y00618*
X01595Y00615*
X01594Y0061*
X01595Y00605*
X01598Y00601*
X01602Y00599*
X01607Y00598*
X01611Y00599*
X01615Y00601*
X01618Y00605*
X01619Y0061*
X01618Y00615*
X01615Y00618*
X01611Y00621*
X01607Y00622*
G37*
G36*
X0135Y00604D02*
X01345Y00603D01*
X01341Y006*
X01339Y00596*
X01338Y00592*
X01339Y00587*
X01341Y00583*
X01345Y00581*
X0135Y0058*
X01354Y00581*
X01358Y00583*
X01361Y00587*
X01362Y00592*
X01361Y00596*
X01358Y006*
X01354Y00603*
X0135Y00604*
G37*
G36*
X01308D02*
X01303Y00603D01*
X01299Y006*
X01297Y00596*
X01296Y00592*
X01297Y00587*
X01299Y00583*
X01303Y00581*
X01308Y0058*
X01312Y00581*
X01316Y00583*
X01319Y00587*
X0132Y00592*
X01319Y00596*
X01316Y006*
X01312Y00603*
X01308Y00604*
G37*
G36*
X01263D02*
X01258Y00603D01*
X01254Y006*
X01252Y00596*
X01251Y00592*
X01252Y00587*
X01254Y00583*
X01258Y00581*
X01263Y0058*
X01267Y00581*
X01271Y00583*
X01274Y00587*
X01275Y00592*
X01274Y00596*
X01271Y006*
X01267Y00603*
X01263Y00604*
G37*
G36*
X01435Y00602D02*
X01431Y00601D01*
X01427Y00598*
X01424Y00594*
X01423Y0059*
X01424Y00585*
X01427Y00581*
X01431Y00578*
X01435Y00577*
X0144Y00578*
X01444Y00581*
X01446Y00585*
X01447Y0059*
X01446Y00594*
X01444Y00598*
X0144Y00601*
X01435Y00602*
G37*
G36*
X02535Y00491D02*
X0253Y0049D01*
X02526Y00487*
X02524Y00483*
X02523Y00478*
X02524Y00474*
X02526Y0047*
X0253Y00467*
X02535Y00466*
X0254Y00467*
X02543Y0047*
X02546Y00474*
X02547Y00478*
X02546Y00483*
X02543Y00487*
X0254Y0049*
X02535Y00491*
G37*
G36*
X02485D02*
X02481Y0049D01*
X02477Y00487*
X02474Y00483*
X02473Y00478*
X02474Y00474*
X02477Y0047*
X02481Y00467*
X02485Y00466*
X0249Y00467*
X02494Y0047*
X02496Y00474*
X02497Y00478*
X02496Y00483*
X02494Y00487*
X0249Y0049*
X02485Y00491*
G37*
G36*
X0182Y00486D02*
X01816Y00485D01*
X01812Y00482*
X01809Y00478*
X01808Y00474*
X01809Y00469*
X01812Y00465*
X01816Y00462*
X0182Y00461*
X01825Y00462*
X01829Y00465*
X01831Y00469*
X01832Y00474*
X01831Y00478*
X01829Y00482*
X01825Y00485*
X0182Y00486*
G37*
G36*
X02674Y00357D02*
X02669Y00357D01*
X02667Y00355*
X02664Y00354*
X0266Y00355*
X02658Y00357*
X02654Y00357*
X02649Y00357*
X02647Y00355*
X02644Y00354*
X0264Y00355*
X02638Y00357*
X02634Y00357*
X02629Y00357*
X02625Y00354*
X02623Y0035*
X02622Y00345*
X02623Y00341*
X02625Y00337*
Y00334*
X02623Y0033*
X02622Y00325*
X02623Y00321*
X02625Y00317*
X02629Y00314*
X02634Y00313*
X02638Y00314*
X0264Y00315*
X02644Y00312*
X02643Y0031*
X02642Y00305*
X02643Y00301*
X02645Y00297*
X02649Y00294*
X02654Y00293*
X02658Y00294*
X0266Y00295*
X02664Y00296*
X02667Y00295*
X02669Y00294*
X02674Y00293*
X02678Y00294*
X02682Y00297*
X02685Y00301*
X02686Y00305*
X02685Y0031*
X02682Y00314*
Y00317*
X02685Y00321*
X02686Y00325*
X02685Y0033*
X02682Y00334*
Y00337*
X02685Y00341*
X02686Y00345*
X02685Y0035*
X02682Y00354*
X02678Y00357*
X02674Y00357*
G37*
G36*
X01876Y00344D02*
X01871Y00343D01*
X01867Y0034*
X01864Y00336*
X01863Y00332*
X01864Y00327*
X01867Y00323*
X01871Y0032*
X01876Y00319*
X0188Y0032*
X01884Y00323*
X01887Y00327*
X01888Y00332*
X01887Y00336*
X01884Y0034*
X0188Y00343*
X01876Y00344*
G37*
G36*
X02417Y00153D02*
X02378D01*
Y00114*
X02385Y00115*
X02396Y00119*
X02405Y00126*
X02412Y00135*
X02416Y00146*
X02417Y00153*
G37*
G36*
X01547Y0014D02*
X01538Y00138D01*
X01531Y00133*
X01526Y00126*
X01525Y00118*
X01526Y00109*
X01531Y00102*
X01538Y00097*
X01547Y00095*
X01555Y00097*
X01562Y00102*
X01567Y00109*
X01569Y00118*
X01567Y00126*
X01562Y00133*
X01555Y00138*
X01547Y0014*
G37*
G36*
X01232D02*
X01223Y00138D01*
X01216Y00133*
X01211Y00126*
X0121Y00118*
X01211Y00109*
X01216Y00102*
X01223Y00097*
X01232Y00095*
X0124Y00097*
X01247Y00102*
X01252Y00109*
X01254Y00118*
X01252Y00126*
X01247Y00133*
X0124Y00138*
X01232Y0014*
G37*
%LNx98_carrier_v1r2_12082022_copper_signal_2-7*%
%LPD*%
G36*
X02303Y01338D02*
X02304Y01333D01*
X02303Y01331*
X02301Y01329*
X023Y01324*
X02298Y01321*
X02274Y01322*
X02274Y01321*
X02274Y01321*
X02273Y01321*
X02271Y0132*
X02271Y0132*
X02268Y01318*
X02266Y01318*
X02263Y01318*
X0226Y0132*
X0226Y0132*
X02258Y01321*
X02257Y01322*
X02257Y01321*
X02257Y01322*
X02243Y01322*
Y01378*
X02262*
X02303Y01338*
G37*
G36*
X02138Y01635D02*
X02114Y0161D01*
X02111Y01606*
X0211Y016*
Y016*
Y01423*
X02111Y01417*
X02114Y01413*
X02138Y01388*
Y01386*
X0214*
X02144Y01382*
X02149Y01379*
X02155Y01378*
X02155*
X02238*
Y01317*
X02257Y01317*
X02257Y01317*
X02261Y01314*
X02266Y01313*
X0227Y01314*
X02274Y01317*
X02274Y01317*
X02303Y01317*
X02304Y01315*
X02308Y01313*
X02312Y01312*
X02314Y01312*
X02319Y01309*
X02319Y01268*
X02229Y01268*
X022*
Y01349*
X02199Y01352*
X02196Y01354*
X02187*
Y01357*
X01918Y01356*
Y01302*
X01888*
Y01385*
X01983*
X01985Y01386*
X02018*
X02078*
Y01468*
X02081Y01469*
X02085Y01472*
X02088Y01476*
X02089Y0148*
X02088Y01485*
X02085Y01489*
X02081Y01491*
X02078Y01492*
Y01564*
X02079Y01567*
X02078Y0157*
Y01706*
X02138*
Y01635*
G37*
%LNx98_carrier_v1r2_12082022_copper_signal_2-8*%
%LPC*%
G36*
X00309Y01789D02*
X00305Y01788D01*
X00301Y01785*
X00298Y01781*
X00297Y01777*
X00298Y01772*
X00301Y01768*
X00305Y01765*
X00309Y01764*
X00314Y01765*
X00318Y01768*
X0032Y01772*
X00321Y01777*
X0032Y01781*
X00318Y01785*
X00314Y01788*
X00309Y01789*
G37*
G36*
X01075Y01645D02*
X01071Y01644D01*
X01067Y01641*
X01064Y01637*
X01063Y01633*
X01064Y01628*
X01067Y01624*
X01071Y01621*
X01075Y0162*
X0108Y01621*
X01084Y01624*
X01086Y01628*
X01087Y01633*
X01086Y01637*
X01084Y01641*
X0108Y01644*
X01075Y01645*
G37*
G36*
X01017Y01485D02*
X01013Y01484D01*
X01009Y01481*
X01006Y01477*
X01005Y01473*
X01006Y01468*
X01009Y01464*
X01013Y01461*
X01017Y0146*
X01022Y01461*
X01026Y01464*
X01028Y01468*
X01029Y01473*
X01028Y01477*
X01026Y01481*
X01022Y01484*
X01017Y01485*
G37*
G36*
X01061Y0192D02*
X01044D01*
X01038Y01919*
X01033Y01916*
X0103Y01911*
X01029Y01905*
Y01897*
X01029Y01893*
X01029Y01889*
Y01881*
X01029Y01877*
X01029Y01873*
Y01865*
X01029Y01862*
X01029Y01858*
Y0185*
X01029Y01846*
X01029Y01842*
Y01834*
X01029Y0183*
X01029Y01826*
Y01818*
X01029Y01814*
X01029Y0181*
Y01802*
X01029Y01799*
X01029Y01795*
Y01787*
X01029Y01783*
X01029Y01779*
Y01771*
X01029Y01767*
X01029Y01763*
Y01755*
X0103Y01749*
X01033Y01744*
X01038Y01741*
X01044Y0174*
X01061*
X01067Y01741*
X01072Y01744*
X01075Y01749*
X01077Y01755*
Y01763*
X01076Y01767*
X01077Y01771*
Y01779*
X01076Y01783*
X01077Y01787*
Y01795*
X01076Y01799*
X01077Y01802*
Y0181*
X01076Y01814*
X01077Y01818*
Y01826*
X01076Y0183*
X01077Y01834*
Y01842*
X01076Y01846*
X01077Y0185*
Y01858*
X01076Y01862*
X01077Y01865*
Y01873*
X01076Y01877*
X01077Y01881*
Y01889*
X01076Y01893*
X01077Y01897*
Y01905*
X01075Y01911*
X01072Y01916*
X01067Y01919*
X01061Y0192*
G37*
G36*
X01137Y01505D02*
X01133Y01504D01*
X01129Y01501*
X01126Y01497*
X01125Y01493*
X01126Y01488*
X01129Y01484*
X01133Y01481*
X01137Y0148*
X01142Y01481*
X01146Y01484*
X01148Y01488*
X01149Y01493*
X01148Y01497*
X01146Y01501*
X01142Y01504*
X01137Y01505*
G37*
G36*
X00093Y00755D02*
X00085Y00754D01*
X00078Y00751*
X00072Y00746*
X00067Y0074*
X00064Y00733*
X00063Y00725*
X00064Y00717*
X00067Y0071*
X00072Y00704*
X00078Y00699*
X00085Y00696*
X00093Y00695*
X00101Y00696*
X00108Y00699*
X00114Y00704*
X00119Y0071*
X00122Y00717*
X00123Y00725*
X00122Y00733*
X00119Y0074*
X00114Y00746*
X00108Y00751*
X00101Y00754*
X00093Y00755*
G37*
G36*
Y00677D02*
X00085Y00675D01*
X00078Y00672*
X00072Y00668*
X00067Y00662*
X00064Y00654*
X00063Y00647*
X00064Y00639*
X00067Y00631*
X00072Y00625*
X00078Y00621*
X00085Y00618*
X00093Y00616*
X00101Y00618*
X00108Y00621*
X00114Y00625*
X00119Y00631*
X00122Y00639*
X00123Y00647*
X00122Y00654*
X00119Y00662*
X00114Y00668*
X00108Y00672*
X00101Y00675*
X00093Y00677*
G37*
G36*
X00098Y00509D02*
Y00483D01*
X00124*
X00123Y00487*
X0012Y00494*
X00115Y005*
X00109Y00505*
X00102Y00508*
X00098Y00509*
G37*
G36*
X0009D02*
X00086Y00508D01*
X00079Y00505*
X00073Y005*
X00068Y00494*
X00065Y00487*
X00065Y00483*
X0009*
Y00509*
G37*
G36*
Y00475D02*
X00065D01*
X00065Y00471*
X00068Y00464*
X00073Y00458*
X00079Y00453*
X00086Y0045*
X0009Y0045*
Y00475*
G37*
G36*
X00124D02*
X00098D01*
Y0045*
X00102Y0045*
X00109Y00453*
X00115Y00458*
X0012Y00464*
X00123Y00471*
X00124Y00475*
G37*
G36*
X00094Y00431D02*
X00086Y00429D01*
X00079Y00426*
X00073Y00422*
X00068Y00416*
X00065Y00408*
X00064Y00401*
X00065Y00393*
X00068Y00385*
X00073Y00379*
X00079Y00375*
X00086Y00372*
X00094Y0037*
X00102Y00372*
X00109Y00375*
X00115Y00379*
X0012Y00385*
X00123Y00393*
X00124Y00401*
X00123Y00408*
X0012Y00416*
X00115Y00422*
X00109Y00426*
X00102Y00429*
X00094Y00431*
G37*
G36*
X02579Y00192D02*
X02574Y00192D01*
X0257Y00189*
X02568Y00185*
X02567Y0018*
X02568Y00176*
X0257Y00172*
X02574Y00169*
X02579Y00168*
X02583Y00169*
X02587Y00172*
X0259Y00176*
X02591Y0018*
X0259Y00185*
X02587Y00189*
X02583Y00192*
X02579Y00192*
G37*
G36*
X02656Y00191D02*
X02652Y0019D01*
X02648Y00188*
X02645Y00184*
X02644Y00179*
X02645Y00175*
X02648Y00171*
X02652Y00168*
X02656Y00167*
X02661Y00168*
X02665Y00171*
X02668Y00175*
X02669Y00179*
X02668Y00184*
X02665Y00188*
X02661Y0019*
X02656Y00191*
G37*
G36*
X0262D02*
X02616Y0019D01*
X02612Y00188*
X02609Y00184*
X02608Y00179*
X02609Y00175*
X02612Y00171*
X02616Y00168*
X0262Y00167*
X02625Y00168*
X02629Y00171*
X02632Y00175*
X02633Y00179*
X02632Y00184*
X02629Y00188*
X02625Y0019*
X0262Y00191*
G37*
%LNx98_carrier_v1r2_12082022_copper_signal_2-9*%
%LPD*%
G54D10*
X00362Y02485D02*
X00705D01*
X0029Y02557D02*
X00362Y02485D01*
X00614Y02713D02*
X00798D01*
X00472Y01098D02*
Y01218D01*
X01116Y00975D02*
X01126Y00985D01*
X01201Y01213D02*
Y0122D01*
X01199Y01081D02*
Y0122D01*
X01126Y00985D02*
X01208D01*
X00217Y02638D02*
X0029Y02564D01*
Y02557D02*
Y02564D01*
X00243Y02794D02*
X00251D01*
X0027Y02775*
Y02717D02*
Y02775D01*
Y02717D02*
X00272Y02715D01*
X00614*
X01252Y01028D02*
X01293Y00987D01*
X01199Y01081D02*
X01252Y01028D01*
X01208Y00985D02*
X01252Y01028D01*
X02331Y00911D02*
Y00936D01*
X02185Y00911D02*
X02331D01*
X02157Y00883D02*
X02185Y00911D01*
X02162Y00831D02*
Y00832D01*
X01621Y00715D02*
Y00733D01*
X01293Y00987D02*
X01367D01*
X01621Y00733*
X02156Y00838D02*
X02162Y00832D01*
X02156Y00838D02*
Y00883D01*
X01995Y02581D02*
Y02607D01*
X01969Y02633D02*
X01995Y02607D01*
X0062Y01059D02*
X00735D01*
X00581Y01098D02*
X0062Y01059D01*
X00762Y01069D02*
Y01112D01*
X00735Y01118D02*
X00756D01*
X00762Y01112*
X00753Y0106D02*
X00762Y01069D01*
X00735Y01059D02*
X00736Y0106D01*
X00753*
X00472Y01098D02*
X00581D01*
X00844Y02664D02*
Y02668D01*
X00798Y02713D02*
X00844Y02668D01*
G54D12*
X00722Y02508D02*
X00724Y02505D01*
X00711Y02508D02*
X00722D01*
X00665Y02554D02*
X00711Y02508D01*
X00679Y02555D02*
Y0262D01*
X00665Y02554D02*
Y02645D01*
X00674Y02653*
Y02655*
X01877Y00763D02*
X01919Y00721D01*
X0187Y00757D02*
X01877Y00763D01*
X01835Y00937D02*
Y00981D01*
X01835Y00777D02*
Y00937D01*
X01835Y00937*
X01835Y00982D02*
X01835Y00981D01*
X01855Y00757D02*
X0187D01*
X01835Y00777D02*
X01855Y00757D01*
X01919Y00721D02*
X01938D01*
X01529Y00923D02*
Y0163D01*
Y00923D02*
X0161Y00843D01*
X01647*
X01529Y0163D02*
X01952Y02054D01*
X01512Y01634D02*
X01927Y02049D01*
X01512Y00918D02*
Y01634D01*
X01604Y00826D02*
X01613D01*
X01512Y00918D02*
X01604Y00826D01*
X01613D02*
X01614Y00828D01*
X01851Y00797D02*
Y00966D01*
X02074Y00591D02*
X02093D01*
X02047Y00618D02*
X02074Y00591D01*
X02047Y00618D02*
Y00621D01*
X02039Y00629D02*
X02047Y00621D01*
X02035Y00629D02*
X02039D01*
X01946Y00683D02*
X02077Y00552D01*
X01946Y00683D02*
Y00713D01*
X02077Y00552D02*
X02224D01*
X01954Y0071D02*
X02035Y00629D01*
X01954Y0071D02*
Y00716D01*
X01893Y00778D02*
X01954Y00716D01*
X01884Y00778D02*
X01893D01*
X01875Y00787D02*
X01884Y00778D01*
X01861Y00787D02*
X01875D01*
X01851Y00797D02*
X01861Y00787D01*
X01899Y00806D02*
X01928Y00777D01*
X01896Y00806D02*
X01899D01*
X01887Y00815D02*
X01896Y00806D01*
X01849Y00968D02*
X01851Y00966D01*
X01849Y00968D02*
Y00987D01*
X01841Y00996D02*
X01849Y00987D01*
X01815Y00996D02*
X01841D01*
X01813Y00993D02*
X01815Y00996D01*
X02224Y00552D02*
X02225Y00551D01*
X01938Y00721D02*
X01946Y00713D01*
X01947Y00617D02*
X02067Y00496D01*
Y00468D02*
Y00496D01*
X01934Y02479D02*
X02019D01*
X02273Y02551D02*
X02306Y02584D01*
X02273Y02536D02*
Y02551D01*
X02224Y02486D02*
X02273Y02536D01*
X02019Y02479D02*
X02023Y02483D01*
X02083*
X02086Y02486*
X02224*
X00679Y02555D02*
X00715Y02519D01*
X00751*
X00724Y0248D02*
X00751D01*
X00754Y02482*
Y02517*
X00751Y02519D02*
X00754Y02517D01*
X02067Y00468D02*
X021D01*
X02107Y0046D02*
X02464D01*
X021Y00468D02*
X02107Y0046D01*
X02464D02*
X02703Y00221D01*
Y00147D02*
Y00221D01*
Y00147D02*
X02716Y00134D01*
X02794*
X0263Y01919D02*
X02694Y01854D01*
X02555Y01919D02*
X0263D01*
X02679Y00922D02*
X0268Y00921D01*
X02664Y00922D02*
X02679D01*
X02642Y00944D02*
X02664Y00922D01*
X01813Y00988D02*
Y00993D01*
X02188Y01689D02*
X02188Y01689D01*
X02099Y017D02*
X02109Y01689D01*
X02188*
X02709Y02609D02*
Y02609D01*
X02699Y02619D02*
X02709Y02609D01*
X02687Y02627D02*
Y0278D01*
X02695Y02619D02*
X02699D01*
X02687Y02627D02*
X02695Y02619D01*
X02086Y02798D02*
Y02802D01*
Y02798D02*
X02089Y02795D01*
X0219Y02719D02*
Y02752D01*
X02295Y02614D02*
X02362D01*
X0219Y02719D02*
X02295Y02614D01*
X02388Y0264D02*
Y02699D01*
X02362Y02614D02*
X02388Y0264D01*
X01887Y00836D02*
X01941Y00891D01*
X019Y00821D02*
X01901Y0082D01*
X019Y00821D02*
Y00839D01*
X01937Y00875D02*
X01945Y00883D01*
X02005*
X01941Y00891D02*
X02018D01*
X01937Y00875D02*
D01*
X019Y00839D02*
X01937Y00875D01*
X01887Y00815D02*
Y00836D01*
X02484Y02715D02*
X02536Y02767D01*
X02285Y02689D02*
X02313Y02717D01*
X02385D02*
X02436Y02767D01*
X02313Y02717D02*
X02385D01*
X02651Y02816D02*
X02687Y0278D01*
X02388Y02699D02*
X02404Y02715D01*
X02484*
X02147Y02729D02*
X02163Y02714D01*
X02147Y02729D02*
Y02765D01*
X02156Y02773*
X02168*
X0219Y02752*
X02018Y00891D02*
X02044Y00865D01*
X02005Y00883D02*
X02042Y00845D01*
X02048*
X02051Y00843*
X02089Y02777D02*
Y02795D01*
X02101Y02816D02*
X02651D01*
X02086Y02802D02*
X02086D01*
X02101Y02816*
X02079Y02768D02*
X02089Y02777D01*
X0197Y02729D02*
X0201Y02768D01*
X02079*
X02116Y02781D02*
X02277D01*
X02283Y02787D02*
X02285D01*
X02277Y02781D02*
X02283Y02787D01*
X02065Y0273D02*
X02116Y02781D01*
X02046Y0273D02*
X02065D01*
X02043Y02733D02*
X02046Y0273D01*
X02043Y02733D02*
D01*
X02261Y02689D02*
X02285D01*
G54D68*
X01343Y0236D02*
D01*
X01343Y02359*
X01343Y02359*
X01343Y02358*
X01344Y02358*
X01344Y02357*
X01344Y02357*
X01344Y02356*
X01344Y02356*
X01345Y02355*
X01345Y02355*
X01345Y02354*
X01346Y02354*
X01224Y02527D02*
X01343Y02409D01*
X01132Y0262D02*
X01224Y02527D01*
X01274D02*
X01275Y02527D01*
X01224Y02527D02*
X01274D01*
X01837Y02325D02*
X01869Y02357D01*
X01375Y02325D02*
X01837D01*
X01343Y0236D02*
Y02409D01*
X00995Y0262D02*
X01132D01*
X00792Y02532D02*
X00907D01*
X00715Y02609D02*
X00792Y02532D01*
X00907D02*
X00995Y0262D01*
X01346Y02354D02*
X01375Y02325D01*
X01944Y02357D02*
X01962Y02375D01*
X01869Y02357D02*
X01944D01*
G54D69*
X02117Y00785D02*
X02162Y00831D01*
X02056Y00785D02*
X02117D01*
X02228Y02628D02*
X02243Y02614D01*
X022Y02628D02*
X02228D01*
X02162Y02759D02*
X02177Y02744D01*
Y02651D02*
Y02744D01*
X02163Y02637D02*
X02177Y02651D01*
X02163Y02637D02*
Y02637D01*
X02158Y02631D02*
X02163Y02637D01*
X02199Y02628D02*
X022Y02628D01*
X02158Y02628D02*
X02199D01*
X02158D02*
Y02631D01*
G54D71*
X00391Y01327D02*
Y01332D01*
X00392Y01333*
X00391Y01327D02*
X00497Y01221D01*
Y01133D02*
Y0118D01*
Y01221*
X0072Y01836D02*
X00824Y0194D01*
X0072Y0183D02*
Y01836D01*
X00667Y01778D02*
X0072Y0183D01*
X0065Y01455D02*
X00667Y01472D01*
Y01778*
X0065Y01412D02*
Y01455D01*
X00824Y0194D02*
Y02064D01*
X02012Y01879D02*
X02148Y02016D01*
X02012Y01868D02*
Y01879D01*
X01759Y01615D02*
X02012Y01868D01*
X01593Y01615D02*
X01759D01*
X00497Y0118D02*
X00542Y01225D01*
Y01305*
X0065Y01412*
X00401Y01139D02*
X00401Y01139D01*
G54D72*
X01545Y0207D02*
D01*
X01544Y02071*
X01543Y02071*
X01542Y02072*
X01541Y02073*
X01539Y02074*
X01538Y02074*
X01537Y02075*
X01535Y02075*
X01534Y02075*
X01533Y02075*
X01531Y02075*
X01531Y02076*
X00181Y01601D02*
X00194Y01614D01*
X00181Y00146D02*
Y01601D01*
Y00146D02*
X00224Y00102D01*
Y00142D02*
X00236Y00154D01*
X00224Y00102D02*
Y00142D01*
X00236Y00154D02*
X00275D01*
X00194Y01614D02*
Y02196D01*
X01857Y02166D02*
Y02264D01*
X01213Y02074D02*
X01215Y02076D01*
X01742Y02053D02*
X01857Y02168D01*
X01215Y02076D02*
X01531D01*
X02672Y01114D02*
X02715Y01157D01*
Y0175*
X02569Y01896D02*
X02715Y0175D01*
X005Y00093D02*
Y00145D01*
X00449Y00158D02*
X00487D01*
X005Y00145*
X00513Y001D02*
X00554D01*
X00505Y00074D02*
Y00093D01*
X00513Y001*
X00749Y00264D02*
X00796Y0031D01*
X00717Y00264D02*
X00749D01*
X00554Y001D02*
X00717Y00264D01*
X00796Y0031D02*
Y00417D01*
X0079Y00423D02*
X00796Y00428D01*
X01857Y02266D02*
X0187Y02278D01*
X01545Y0207D02*
X01562Y02053D01*
X01742*
X02011Y0226D02*
X0212Y0237D01*
X01907Y0226D02*
X02011D01*
X01888Y02278D02*
X01907Y0226D01*
X0187Y02278D02*
X01888D01*
X02089Y02628D02*
X02158D01*
X02086Y02625D02*
X02089Y02628D01*
X02582Y01076D02*
Y01173D01*
X02491Y00985D02*
X02582Y01076D01*
X00796Y00428D02*
Y00692D01*
X00797Y00417D02*
X00849Y00365D01*
X01388Y00389D02*
Y00419D01*
X01024Y00541D02*
Y00692D01*
Y00417D02*
Y00541D01*
X01382Y00425D02*
X01388Y00419D01*
X01382Y00425D02*
Y00456D01*
X01389Y00464D02*
Y0051D01*
X01382Y00456D02*
X01389Y00464D01*
X01024Y00541D02*
X01358D01*
X01389Y0051*
X02809Y00078D02*
X02839Y00108D01*
X02809Y00197D02*
X02839Y00166D01*
Y00108D02*
Y00166D01*
X02283Y00229D02*
X02464D01*
X02283D02*
Y00375D01*
Y00139D02*
Y00229D01*
X00849Y00365D02*
X00972D01*
X01024Y00417*
X02081Y00168D02*
X02109Y00139D01*
X01941Y00168D02*
X02081D01*
X02109Y00139D02*
X02283D01*
X01713D02*
X01913D01*
X01941Y00168*
X02809Y00062D02*
Y00078D01*
Y00197D02*
Y00212D01*
X02489Y01896D02*
X02569D01*
X02491Y00779D02*
Y00985D01*
X02468Y00212D02*
Y00221D01*
X02459Y0023D02*
X02468Y00221D01*
X02124Y01423D02*
Y016D01*
X02186Y01662*
X02124Y01423D02*
X02155Y01392D01*
X02268D02*
X02314Y01346D01*
X02336Y01337D02*
X02363Y0131D01*
X02327Y01346D02*
X02336Y01337D01*
X02155Y01392D02*
X02268D01*
X02363Y01288D02*
Y0131D01*
X02314Y01346D02*
X02327D01*
X02277Y01662D02*
X02304D01*
X02213Y01662D02*
X02277D01*
X02186D02*
X02213D01*
Y01695*
X02184Y01724D02*
X02213Y01695D01*
X02277Y01662D02*
X02277Y01662D01*
X02074Y01724D02*
X02184D01*
X02055Y01705D02*
X02074Y01724D01*
X02055Y0166D02*
Y01705D01*
X01991Y01595D02*
X02055Y0166D01*
X01991Y015D02*
Y01595D01*
X01978Y01488D02*
X01991Y015D01*
X01926Y01488D02*
X01978D01*
X02468Y00062D02*
Y00212D01*
Y00062D02*
X02468Y00062D01*
X02808*
X02809Y00062*
X01713Y00139D02*
Y00375D01*
G54D73*
X00786Y01373D02*
X0083D01*
X00842Y01312D02*
X00843Y0131D01*
X0083Y01373D02*
X00842Y01361D01*
Y01312D02*
Y01361D01*
Y01308D02*
X00843Y0131D01*
G54D82*
X00224Y00072D03*
X005D03*
G54D83*
X00275Y00154D03*
X0045D03*
G54D84*
X00561Y0037D03*
G54D85*
X00661Y0037D03*
G54D87*
X00094Y00479D03*
Y00401D03*
X00093Y00647D03*
Y00725D03*
G54D88*
X00796Y00417D03*
X01024D03*
Y00692D03*
X00796D03*
G54D89*
X02374Y00157D03*
Y00057D03*
X02637Y02764D03*
X02537D03*
X02437D03*
X02337D03*
Y02664D03*
X02437D03*
X02537D03*
X02637D03*
X00944Y02764D03*
X00844D03*
X00744D03*
Y02664D03*
X00844D03*
X00944D03*
G54D90*
X02468Y00062D03*
X02809Y00062D03*
Y00212D03*
X02468D03*
G54D91*
X01038Y01133D03*
X02361D03*
G54D92*
X02828Y02708D03*
Y00425D03*
G54D93*
X00584Y02765D03*
X00301D03*
G54D94*
X00346Y02661D03*
X00539D03*
G54D95*
X0289Y01528D03*
Y01478D03*
X0284D03*
Y01428D03*
Y01528D03*
Y01578D03*
X0289Y01428D03*
Y01578D03*
X0284Y01628D03*
X0289D03*
G54D96*
X01713Y00375D03*
G54D97*
X02283Y00375D03*
G54D98*
X02283Y00139D03*
X01713D03*
G54D99*
X0091Y00437D03*
Y00515D03*
Y00594D03*
Y00673D03*
G54D100*
X02875Y00887D03*
Y00965D03*
G54D101*
X02837Y0064D03*
Y0074D03*
G54D102*
X01487Y02645D03*
X01275Y02527D03*
X01737Y02351D03*
X01702Y02378D03*
X01594Y02366D03*
X01362Y02771D03*
X01456Y02769D03*
X01419Y02516D03*
X01249Y02764D03*
X01171Y02768D03*
X01292Y02772D03*
X00392Y01333D03*
X0029Y01496D03*
X00143Y00304D03*
X00219Y00361D03*
Y00188D03*
X00038Y00304D03*
X02596Y02305D03*
X00419Y01644D03*
X00275Y00651D03*
X00535Y00856D03*
X00847Y02555D03*
X00862Y02568D03*
X00894Y026D03*
X00661Y02506D03*
X00724Y02505D03*
X00627Y02613D03*
X00645D03*
X00679Y0262D03*
X00614Y02715D03*
X00674Y02655D03*
X00715Y02609D03*
X00657Y02797D03*
X00194Y01614D03*
X01213Y02074D03*
X00472Y01218D03*
X00494Y01259D03*
X00275Y01677D03*
X02769Y0026D03*
X02729Y0028D03*
X02749D03*
X02674Y00345D03*
X02769Y0028D03*
X02783Y0138D03*
X02894Y01287D03*
X02749Y0026D03*
X0273Y0026D03*
X02674Y00305D03*
Y00325D03*
X00232Y00924D03*
X00194Y02196D03*
X00373Y00711D03*
X00374Y00493D03*
X0045Y00245D03*
X00356Y00257D03*
X00433Y00734D03*
X00504Y00534D03*
X00637Y0048D03*
X00333Y00539D03*
X0037Y00289D03*
X0073Y00117D03*
X0075D03*
X00478Y00967D03*
X01513Y02593D03*
X026Y02203D03*
X0022Y02256D03*
X0109Y00985D03*
X01017Y01473D03*
X01137Y01493D03*
X01116Y00975D03*
X00967Y01638D03*
X01075Y01633D03*
X01998Y00993D03*
X01983Y00974D03*
X01647Y00843D03*
X01571Y00755D03*
X01952Y02054D03*
X01614Y00828D03*
X01927Y02049D03*
X01993Y01096D03*
X01587Y02471D03*
X00307Y02026D03*
X00303Y01978D03*
X00306Y01923D03*
X00308Y01875D03*
X00754Y01831D03*
X00729Y01931D03*
X0074Y01884D03*
X00725Y01973D03*
X01888Y00966D03*
X01904Y00985D03*
X0192Y00968D03*
X01936Y00993D03*
X00343Y0172D03*
X00309Y01777D03*
Y01829D03*
X00216Y02603D03*
X00226Y02686D03*
X00217Y02638D03*
X002Y02687D03*
X01447Y01767D03*
X01562Y02053D03*
X01555Y01952D03*
X00824Y02064D03*
X02284Y00826D03*
X01154Y0196D03*
X01879Y02257D03*
X01106Y0083D03*
X02162Y00831D03*
X02307Y007D03*
X01621Y00715D03*
X02503Y02617D03*
X01963Y02375D03*
X02331Y00936D03*
X01861Y0077D03*
X01892Y00792D03*
X02056Y00785D03*
X02162Y02759D03*
X02241Y0271D03*
X02249Y02614D03*
X02158Y02628D03*
X02086Y02625D03*
X01969Y02633D03*
X02157Y00883D03*
X01201Y0122D03*
X01193Y00887D03*
X01308Y01032D03*
X01214Y0066D03*
X02225Y00551D03*
X02033Y00615D03*
X02459Y0055D03*
Y0057D03*
Y0053D03*
X02095Y00592D03*
X01388Y00389D03*
X02287Y00782D03*
X02459Y01736D03*
X02409Y01565D03*
X02318Y01751D03*
X01785Y02127D03*
Y01423D03*
X02501Y01049D03*
X02582Y01207D03*
X02026Y00565D03*
X02401Y00874D03*
X02306Y02584D03*
X01934Y02478D03*
X02397Y01274D03*
X01903Y0131D03*
X00746Y0261D03*
X00797Y02632D03*
X00724Y0248D03*
X00705Y02485D03*
X00917Y02617D03*
X0181Y02462D03*
X00894Y02629D03*
X01474Y00588D03*
X00786Y01373D03*
X00497Y01133D03*
X0255Y0015D03*
X02516Y00143D03*
X02532Y00152D03*
X02538Y00133D03*
X022Y00215D03*
X0182Y00474D03*
X01572Y00151D03*
X00857Y00462D03*
X02767Y00171D03*
X00735Y01059D03*
X00994Y00769D03*
X02584Y02077D03*
Y02057D03*
X02648Y02024D03*
X02555Y01919D03*
X02694Y01854D03*
X02807Y01822D03*
X02774Y01853D03*
X02693Y0123D03*
X02619Y012D03*
X02566Y00888D03*
X01946Y00616D03*
X0268Y00922D03*
X02642Y00944D03*
X00738Y00968D03*
X00797Y00996D03*
X01103Y00621D03*
X01064Y00613D03*
X00959Y00608D03*
X00864Y00735D03*
X00862Y00779D03*
X01091Y00457D03*
X00985Y00541D03*
X00651Y01353D03*
X00736Y01313D03*
X00842Y01308D03*
X00804Y01257D03*
Y01217D03*
X00733Y01198D03*
X00873Y01169D03*
X00633Y01021D03*
X00395Y01159D03*
X00401Y01139D03*
X00392Y01179D03*
X00805Y0104D03*
X00612Y01017D03*
X00631Y01279D03*
X00671D03*
X00735Y01177D03*
Y01118D03*
Y01079D03*
X00472Y01098D03*
X02794Y00134D03*
X02175Y0034D03*
X02076Y00326D03*
X02026Y00341D03*
X01978Y00342D03*
X02489Y01896D03*
X02327Y02014D03*
X01435Y0059D03*
X00544Y02133D03*
X00361Y02134D03*
X01848Y02458D03*
X01587Y00666D03*
X01607Y0061D03*
X02596Y0199D03*
X01456Y00651D03*
X0138Y00673D03*
X01785Y02407D03*
X02729Y0017D03*
X02749D03*
X02729Y0015D03*
X02749D03*
X02769D03*
X02579Y0018D03*
X02547Y00171D03*
X02529Y0017D03*
X02634Y00325D03*
X02654Y00305D03*
Y00325D03*
Y00345D03*
X02634D03*
X0135Y00592D03*
X01308D03*
X00883Y02713D03*
X00576Y02356D03*
X01475Y0075D03*
X01813Y00993D03*
X01792Y0097D03*
X01948Y00807D03*
X02242Y00742D03*
X0195Y00848D03*
X01841Y01021D03*
X0195Y00867D03*
X01865Y00993D03*
X0195Y00827D03*
X0182Y00966D03*
X01835Y00982D03*
X02241Y00836D03*
X02559Y0054D03*
Y0056D03*
X02509Y0054D03*
Y0056D03*
X02609Y0053D03*
Y0055D03*
Y0057D03*
Y0059D03*
X02459D03*
X02434Y00478D03*
X02535D03*
X02485D03*
X00988Y01942D03*
X01562Y00616D03*
X01523Y0061D03*
X01263Y00592D03*
X01821Y02525D03*
X00488Y02246D03*
X01003Y01678D03*
X023Y01306D03*
X0243Y01659D03*
X02304Y01661D03*
X02324Y01374D03*
X02188Y01689D03*
X02209Y01735D03*
X02099Y017D03*
X01876Y00332D03*
X01841Y00305D03*
X01403Y02394D03*
X00469Y02611D03*
X00439D03*
X01867Y00801D03*
X02058Y01301D03*
X01626Y02507D03*
X01601Y02523D03*
X01578Y0253D03*
X01394Y02486D03*
X02323Y01662D03*
X02032Y01534D03*
X02067Y01567D03*
X02055Y0166D03*
X02229Y01732D03*
X01865Y01451D03*
Y01471D03*
X01862Y01505D03*
X01926Y01488D03*
X02149Y01553D03*
X02312Y01324D03*
X02363Y01288D03*
X02153Y01299D03*
X02104Y01245D03*
X0204Y02237D03*
X02016Y02238D03*
X02065D03*
X01146Y01406D03*
X01126D03*
X02588Y02096D03*
X0065Y01455D03*
X00712Y01999D03*
X01403Y01018D03*
X02687Y01995D03*
X02707D03*
X01669Y0221D03*
X02709Y02609D03*
X02336Y00564D03*
Y00583D03*
X02277D03*
X02317Y00543D03*
Y00563D03*
X02297Y00543D03*
X02067Y00468D03*
X01403Y01197D03*
X00931Y01004D03*
X02502Y02332D03*
X02588Y02155D03*
X02501Y02216D03*
Y02274D03*
X025Y02451D03*
Y02392D03*
X01973Y02656D03*
X01966Y02606D03*
X01944Y02671D03*
X02085Y02604D03*
X01641Y01224D03*
X02277Y00543D03*
X01496Y01025D03*
X01965Y0103D03*
X01873Y01028D03*
X02587Y01374D03*
Y01436D03*
X02606Y01495D03*
X02587Y01553D03*
Y01613D03*
X02606Y01614D03*
Y01669D03*
X02487Y01329D03*
X01993Y01876D03*
X01543Y01206D03*
X01588Y01261D03*
X01927Y0141D03*
X02593Y01573D03*
Y01593D03*
X00736Y01503D03*
X02032Y01165D03*
X01967Y01198D03*
X0192Y01198D03*
X01493Y01195D03*
X01779Y0102D03*
X02167Y00611D03*
X00244Y02794D03*
X01324Y012D03*
X01893Y01131D03*
X0196Y01118D03*
X01937Y01126D03*
X0243Y01533D03*
X01604Y0094D03*
X0243Y01595D03*
X0135Y00403D03*
X0243Y01513D03*
X01304Y0075D03*
X0243Y01404D03*
X01212Y01239D03*
X01177Y01269D03*
X01645Y00957D03*
X01589Y00882D03*
X0173Y00929D03*
X01986Y01114D03*
X0243Y01639D03*
Y01575D03*
X02012Y01263D03*
X0243Y01384D03*
Y0145D03*
Y01469D03*
X02069Y02468D03*
X01845Y02383D03*
X02513Y01078D03*
X00756Y00215D03*
X01683Y01019D03*
X00201Y02795D03*
X00376Y0255D03*
X01689Y01263D03*
X02215Y01063D03*
X02789Y01209D03*
X02519Y00971D03*
X02218Y00991D03*
X02867Y0117D03*
X02694Y01095D03*
X02251Y01037D03*
X02241Y01056D03*
X02252Y01016D03*
X02241Y00998D03*
X02062Y0095D03*
X02527Y00858D03*
X0188Y01229D03*
X01735Y01237D03*
X01641Y01388D03*
X01593Y01515D03*
Y01577D03*
X01593Y01389D03*
X01593Y01596D03*
Y01495D03*
Y01535D03*
Y01615D03*
X01447Y01204D03*
X01262Y01221D03*
X01864Y02513D03*
X0186Y02399D03*
X01907Y02508D03*
X01839Y02483D03*
X01844Y02513D03*
X01818Y02495D03*
X01798Y02504D03*
X01737Y02513D03*
X01718Y02513D03*
X0182Y02773D03*
X02034Y02406D03*
X01642Y02595D03*
X02048Y02468D03*
X01942Y02327D03*
X01829Y02367D03*
X0197Y02729D03*
X01969Y02766D03*
X01896Y02635D03*
X01894Y02765D03*
X02055Y02406D03*
X02158Y02406D03*
X02523Y02481D03*
X01828Y02347D03*
X02043Y02733D03*
X01675Y02509D03*
X01598Y02587D03*
X0182Y02695D03*
X01696Y02508D03*
X01747Y02774D03*
X01745Y02697D03*
X02503Y01209D03*
X02121Y02388D03*
X0223Y02401D03*
X02224Y02421D03*
X01376Y00786D03*
X0182Y02796D03*
X02122Y01835D03*
X01909Y01622D03*
X01891Y01419D03*
Y01439D03*
X02477Y0135D03*
X02431Y01493D03*
X00346Y0255D03*
X00321D03*
X00311Y0251D03*
X02074Y025D03*
X0203D03*
X02029Y02468D03*
X02052Y025D03*
X02141Y02368D03*
X02122Y02369D03*
X02159Y02368D03*
X02086Y02801D03*
X01791Y002D03*
X01831Y0023D03*
X01811Y00225D03*
X01791D03*
X01841Y00245D03*
Y00265D03*
Y00285D03*
X01821Y00325D03*
X01801D03*
X01781D03*
X02599Y0084D03*
X02619D03*
X0264D03*
X02599Y00859D03*
X02619D03*
X0264D03*
Y00877D03*
X02619D03*
X02599D03*
X02252Y02536D03*
X02078Y02684D03*
X00977Y00198D03*
X01177Y00324D03*
X01686Y00705D03*
Y00725D03*
X02447Y02012D03*
X02411Y0201D03*
X0234Y02188D03*
X02093Y02471D03*
X01891Y00617D03*
X01909Y00708D03*
X00734Y0032D03*
Y00301D03*
X00743Y00203D03*
X02201Y02085D03*
X02212Y0199D03*
X02033Y02386D03*
X01703Y00881D03*
X02388Y02699D03*
X02785Y01349D03*
X01789Y02383D03*
X02277Y00563D03*
X02297D03*
X02317Y00583D03*
X02297D03*
X0262Y00179D03*
X02656D03*
X01901Y0082D03*
X02172Y01098D03*
Y01078D03*
Y01139D03*
Y01119D03*
X02171Y0118D03*
Y0116D03*
X0217Y0122D03*
X02171Y01201D03*
X0244Y02121D03*
X01894Y01534D03*
Y01514D03*
X02593Y01415D03*
X02582Y01173D03*
X0122Y01295D03*
X01838Y02645D03*
X0224Y02641D03*
X02282Y00718D03*
X02037Y00793D03*
X01342Y01645D03*
X01269Y01406D03*
X0131Y02136D03*
X01142Y01855D03*
X01257Y02378D03*
X0099Y02316D03*
X00992Y02296D03*
X01016D03*
X01336Y01257D03*
X02586Y0202D03*
X0215Y02016D03*
X02672Y01114D03*
X02158Y02388D03*
X0214Y02406D03*
Y02387D03*
X02121Y02406D03*
X02163Y02714D03*
X02474Y01309D03*
X02919Y01233D03*
X02284Y02766D03*
X02286Y02717D03*
X02235Y02802D03*
X02153Y02686D03*
X02018Y02747D03*
X02338Y02216D03*
X02188Y01967D03*
X02828Y01801D03*
X02675Y01835D03*
X02415Y01855D03*
X02232Y01838D03*
X02415Y01829D03*
X02093Y0238D03*
X0189Y02725D03*
X01815Y02647D03*
X01691Y02472D03*
X01942Y01902D03*
X02431Y01429D03*
Y01364D03*
X02224Y01562D03*
X02209Y01546D03*
X02194Y01532D03*
X02211Y01447D03*
X02185Y01446D03*
X02077Y0148D03*
X02056Y01461D03*
X02918Y013D03*
X02474Y01268D03*
X02266Y01325D03*
X02192Y01222D03*
X02193Y01119D03*
Y01139D03*
Y01098D03*
X02192Y0118D03*
Y0116D03*
X02193Y01078D03*
X02192Y01202D03*
X02153Y01191D03*
X02153Y0115D03*
X02151Y01108D03*
X01833Y01234D03*
X01783Y01235D03*
X01688Y01455D03*
X01545Y01383D03*
X01933Y00707D03*
X0102Y02745D03*
Y02765D03*
Y02785D03*
X01147Y02649D03*
X01215Y02359D03*
X0145Y01482D03*
Y01438D03*
Y01387D03*
X00295Y02252D03*
X00331Y02248D03*
X0032Y02226D03*
X00933Y01045D03*
X00932Y01024D03*
X00948Y01004D03*
X00972Y00984D03*
X00967Y01004D03*
X00972Y00964D03*
X02062Y00906D03*
X02044Y00865D03*
X01928Y00777D03*
X02051Y00843D03*
X02287Y0173D03*
X02848Y01363D03*
X01894Y01598D03*
Y01578D03*
X01865Y01566D03*
Y01546D03*
X02918Y0168D03*
X0231Y0173D03*
X02233Y02539D03*
X02441Y0215D03*
X02163Y02802D03*
X02161Y02738D03*
X01894Y02699D03*
X02285Y02787D03*
X02061Y02696D03*
X0216Y02654D03*
X02161Y02606D03*
X02261Y02689D03*
X02385Y0156D03*
X02277Y01306D03*
X02593Y01652D03*
Y01632D03*
Y01533D03*
Y01513D03*
Y01475D03*
Y01455D03*
Y01395D03*
X01865Y01426D03*
X01841Y01443D03*
X01848Y01521D03*
X01869Y01523D03*
X01839Y01539D03*
X0184Y01563D03*
X01868Y0159D03*
X01066Y0127D03*
X01007Y0132D03*
G54D103*
X01006Y01924D02*
X01008D01*
X00988Y01942D02*
X01006Y01924D01*
G54D104*
X01038Y02456D03*
M02*