%FSTAX23Y23*%
%MOIN*%
%SFA1B1*%

%IPPOS*%
%AMD157*
4,1,8,-0.009900,0.028700,-0.009900,-0.028700,-0.005900,-0.032700,0.005900,-0.032700,0.009900,-0.028700,0.009900,0.028700,0.005900,0.032700,-0.005900,0.032700,-0.009900,0.028700,0.0*
1,1,0.007953,-0.005900,0.028700*
1,1,0.007953,-0.005900,-0.028700*
1,1,0.007953,0.005900,-0.028700*
1,1,0.007953,0.005900,0.028700*
%
%AMD193*
4,1,8,-0.012800,0.017700,-0.012800,-0.017700,-0.012800,-0.017700,0.012800,-0.017700,0.012800,-0.017700,0.012800,0.017700,0.012800,0.017700,-0.012800,0.017700,-0.012800,0.017700,0.0*
1,1,0.000000,-0.012800,0.017700*
1,1,0.000000,-0.012800,-0.017700*
1,1,0.000000,0.012800,-0.017700*
1,1,0.000000,0.012800,0.017700*
%
%AMD215*
4,1,8,-0.041400,0.014800,-0.041400,-0.014800,-0.024600,-0.031500,0.024600,-0.031500,0.041400,-0.014800,0.041400,0.014800,0.024600,0.031500,-0.024600,0.031500,-0.041400,0.014800,0.0*
1,1,0.033528,-0.024600,0.014800*
1,1,0.033528,-0.024600,-0.014800*
1,1,0.033528,0.024600,-0.014800*
1,1,0.033528,0.024600,0.014800*
%
%ADD13R,0.031735X0.033788*%
%ADD16R,0.045596X0.039848*%
%ADD17R,0.022538X0.026813*%
%ADD18R,0.026813X0.022538*%
%ADD21R,0.033788X0.031735*%
%ADD28R,0.049212X0.043307*%
%ADD30R,0.035911X0.033808*%
%ADD33C,0.035000*%
%ADD47R,0.094937X0.043811*%
%ADD48O,0.020000X0.010000*%
%ADD49O,0.035000X0.010000*%
%ADD50C,0.031496*%
%ADD51C,0.015748*%
%ADD64O,0.010000X0.030000*%
%ADD66C,0.070866*%
%ADD91C,0.236220*%
%ADD156R,0.035512X0.039449*%
G04~CAMADD=157~8~0.0~0.0~654.3~197.6~39.8~0.0~15~0.0~0.0~0.0~0.0~0~0.0~0.0~0.0~0.0~0~0.0~0.0~0.0~90.0~198.0~654.0*
%ADD157D157*%
%ADD158R,0.043386X0.114252*%
%ADD159R,0.027638X0.070945*%
%ADD160R,0.036016X0.041016*%
%ADD161R,0.122126X0.086693*%
%ADD162R,0.067008X0.035512*%
%ADD163R,0.051260X0.025669*%
%ADD164R,0.019764X0.051260*%
%ADD165R,0.122126X0.039449*%
%ADD166R,0.041016X0.036016*%
%ADD167R,0.009874X0.029559*%
%ADD168R,0.031575X0.011890*%
%ADD169C,0.039016*%
%ADD170R,0.026000X0.028000*%
%ADD171R,0.019764X0.037480*%
%ADD172R,0.028000X0.026000*%
%ADD173R,0.049291X0.059134*%
%ADD174R,0.051244X0.015811*%
%ADD175R,0.015811X0.051244*%
%ADD176R,0.055181X0.039433*%
%ADD177R,0.074882X0.025669*%
%ADD178R,0.039449X0.049291*%
%ADD179R,0.035512X0.049291*%
%ADD180R,0.031575X0.049291*%
%ADD181R,0.028016X0.084016*%
%ADD182R,0.059055X0.047244*%
%ADD183R,0.027638X0.057165*%
%ADD184R,0.019764X0.053228*%
%ADD185R,0.015811X0.025653*%
%ADD186O,0.015039X0.106378*%
%ADD187R,0.074882X0.027638*%
%ADD188R,0.051244X0.043370*%
%ADD189R,0.059118X0.015811*%
%ADD190R,0.165417X0.108330*%
%ADD191R,0.078937X0.042937*%
%ADD192R,0.025622X0.017748*%
G04~CAMADD=193~8~0.0~0.0~354.3~255.9~0.0~0.0~15~0.0~0.0~0.0~0.0~0~0.0~0.0~0.0~0.0~0~0.0~0.0~0.0~90.0~256.0~354.0*
%ADD193D193*%
%ADD194R,0.024472X0.036677*%
%ADD195R,0.017748X0.025622*%
%ADD196R,0.036677X0.028803*%
%ADD197O,0.051260X0.098504*%
%ADD198O,0.045354X0.086693*%
%ADD199C,0.063071*%
%ADD200R,0.063071X0.063071*%
%ADD201R,0.055512X0.055512*%
%ADD202C,0.055512*%
%ADD203O,0.082756X0.098504*%
%ADD204C,0.082756*%
%ADD205O,0.043370X0.070929*%
%ADD206C,0.004016*%
%ADD207C,0.220535*%
%ADD208O,0.047323X0.078819*%
%ADD209C,0.053228*%
%ADD210C,0.043386*%
%ADD211O,0.059134X0.122126*%
%ADD212O,0.059134X0.126063*%
%ADD213O,0.059134X0.086693*%
%ADD214C,0.074882*%
G04~CAMADD=215~8~0.0~0.0~630.6~827.4~167.6~0.0~15~0.0~0.0~0.0~0.0~0~0.0~0.0~0.0~0.0~0~0.0~0.0~0.0~90.0~828.0~631.0*
%ADD215D215*%
%ADD216O,0.102441X0.082756*%
%ADD217C,0.019764*%
%LNx98_carrier_v1r2_12082022_soldermask_top-1*%
%LPD*%
G54D13*
X0041Y01592D03*
X00363D03*
G54D16*
X00422Y008D03*
X00357D03*
G54D17*
X00508Y00673D03*
Y0064D03*
X00232Y00272D03*
Y00239D03*
G54D18*
X00094Y00064D03*
X00061D03*
G54D21*
X01079Y01588D03*
Y01541D03*
X0098Y01593D03*
Y01545D03*
G54D28*
X00053Y00156D03*
X00146D03*
X00055Y00255D03*
X00148D03*
G54D30*
X0036Y00428D03*
Y00367D03*
G54D33*
X0041Y00966D03*
X01392Y00638D03*
G54D47*
X02457Y00713D03*
X02618D03*
G54D48*
X02608Y01573D03*
X02608Y01593D03*
G54D49*
X02492Y02355D03*
Y02428D03*
Y02413D03*
Y02371D03*
G54D50*
X00385Y01219D03*
G54D51*
X00439Y02611D03*
X0047D03*
G54D64*
X00951Y00782D03*
X00965D03*
G54D66*
X01368Y00244D03*
X01209Y01524D03*
X00459Y01933D03*
G54D91*
X01038Y01133D03*
Y02456D03*
X02361Y01133D03*
G54D156*
X00429Y01492D03*
X00354D03*
X00391Y01413D03*
G54D157*
X00562Y00781D03*
X00587D03*
X00613D03*
X00639D03*
Y00554D03*
X00613D03*
X00587D03*
X00562D03*
G54D158*
X01124Y02755D03*
X01515D03*
G54D159*
X01196Y02623D03*
X01246D03*
X01443D03*
X01393D03*
X01295D03*
X01344D03*
G54D160*
X00242Y00713D03*
X00293D03*
X02587Y01844D03*
X02639D03*
X02468Y0193D03*
X02519Y0193D03*
X00631Y01418D03*
X00682D03*
X00335Y02601D03*
X00386D03*
G54D161*
X00076Y01577D03*
Y01327D03*
X00074Y01676D03*
Y02173D03*
Y02265D03*
Y02515D03*
G54D162*
X0019Y01476D03*
Y01427D03*
X00188Y01777D03*
Y01826D03*
Y01875D03*
Y01924D03*
Y01974D03*
Y02072D03*
Y02023D03*
Y02365D03*
Y02414D03*
G54D163*
X00437Y00597D03*
Y00635D03*
Y00672D03*
X00335D03*
Y00597D03*
Y00635D03*
G54D164*
X00362Y00133D03*
X00337D03*
X00311D03*
X00388D03*
X00413D03*
G54D165*
X00362Y00072D03*
G54D166*
X00311Y00284D03*
Y00233D03*
X02359Y00789D03*
Y00738D03*
Y00881D03*
Y00829D03*
X00244Y02713D03*
Y02764D03*
X00199Y02713D03*
Y02764D03*
X02907Y01328D03*
Y0138D03*
X02634Y01116D03*
Y01168D03*
G54D167*
X0164Y02431D03*
X01983Y01053D03*
X01999D03*
X0216Y02431D03*
X02144D03*
X02129D03*
X02113D03*
X02097D03*
X02081D03*
X02066D03*
X01955D03*
X01971D03*
X01987D03*
X02003D03*
X02018D03*
X02034D03*
X0205D03*
X01845D03*
X01861D03*
X01877D03*
X01892D03*
X01908D03*
X01924D03*
X0194D03*
X01829D03*
X01814D03*
X01798D03*
X01782D03*
X01766D03*
X01751D03*
X01735D03*
X01546D03*
X01562D03*
X01577D03*
X01593D03*
X01609D03*
X01625D03*
X01719D03*
X01703D03*
X01688D03*
X01672D03*
X01656D03*
Y02552D03*
X01672D03*
X01688D03*
X01703D03*
X01719D03*
X0164D03*
X01625D03*
X01609D03*
X01593D03*
X01577D03*
X01562D03*
X01546D03*
X01735D03*
X01751D03*
X01766D03*
X01782D03*
X01798D03*
X01814D03*
X01829D03*
X0194D03*
X01924D03*
X01908D03*
X01892D03*
X01877D03*
X01861D03*
X01845D03*
X0205D03*
X02034D03*
X02018D03*
X02003D03*
X01987D03*
X01971D03*
X01955D03*
X02066D03*
X02081D03*
X02097D03*
X02113D03*
X02129D03*
X02144D03*
X0216D03*
X01388D03*
X01404D03*
X0142D03*
X01436D03*
X01451D03*
X01467D03*
X01483D03*
X0153D03*
X01514D03*
X01499D03*
Y02431D03*
X01514D03*
X0153D03*
X01483D03*
X01467D03*
X01451D03*
X01436D03*
X0142D03*
X01404D03*
X01388D03*
X01243Y01053D03*
X01259D03*
X01274D03*
X0129D03*
X01306D03*
X01322D03*
X01337D03*
X01385D03*
X01369D03*
X01353D03*
Y01174D03*
X01369D03*
X01385D03*
X01337D03*
X01322D03*
X01306D03*
X0129D03*
X01274D03*
X01259D03*
X01243D03*
X02014D03*
X01999D03*
X01983D03*
X01967D03*
X01951D03*
X01936D03*
X0192D03*
X0181D03*
X01825D03*
X01841D03*
X01857D03*
X01873D03*
X01888D03*
X01904D03*
X01699D03*
X01715D03*
X01731D03*
X01747D03*
X01762D03*
X01778D03*
X01794D03*
X01684D03*
X01668D03*
X01652D03*
X01636D03*
X01621D03*
X01605D03*
X01589D03*
X014D03*
X01416D03*
X01432D03*
X01447D03*
X01463D03*
X01479D03*
X01495D03*
X01573D03*
X01558D03*
X01542D03*
X01526D03*
X0151D03*
Y01053D03*
X01526D03*
X01542D03*
X01558D03*
X01573D03*
X01495D03*
X01479D03*
X01463D03*
X01447D03*
X01432D03*
X01416D03*
X014D03*
X01589D03*
X01605D03*
X01621D03*
X01636D03*
X01652D03*
X01668D03*
X01684D03*
X01794D03*
X01778D03*
X01762D03*
X01747D03*
X01731D03*
X01715D03*
X01699D03*
X01904D03*
X01888D03*
X01873D03*
X01857D03*
X01841D03*
X01825D03*
X0181D03*
X0192D03*
X01936D03*
X01951D03*
X01967D03*
X02014D03*
G54D168*
X01075Y01901D03*
X00954D03*
X01075Y01885D03*
X00954D03*
X01075Y01869D03*
X00954D03*
X01075Y01854D03*
X00954D03*
X01075Y01838D03*
X00954D03*
X01075Y01822D03*
X00954D03*
X01075Y01806D03*
X00954D03*
X01075Y01791D03*
X00954D03*
X01075Y01775D03*
X00954D03*
X01075Y01759D03*
X00954D03*
G54D169*
X02279Y0064D03*
Y0058D03*
X01925Y00534D03*
X01924Y00595D03*
X01232Y00853D03*
X01155Y00855D03*
X01651Y00907D03*
X02699Y01158D03*
X02606Y0087D03*
X02285Y00931D03*
X0273Y00864D03*
G54D170*
X00286Y01172D03*
X00316D03*
X00271Y0258D03*
X00241D03*
X00285Y01109D03*
X00314D03*
X00298Y00896D03*
X00268D03*
X02496Y0197D03*
X02466D03*
X00658Y01376D03*
X00687D03*
X02496Y02006D03*
X02466D03*
X02493Y02152D03*
X02464D03*
X02496Y0212D03*
X02466D03*
X00528Y01371D03*
X00557D03*
X00349Y01121D03*
X00378D03*
X02508Y02594D03*
X02478D03*
X02444D03*
X02414D03*
X02368D03*
X02338D03*
X02097Y02756D03*
X02126D03*
X02186Y02771D03*
X02215D03*
X02185Y02644D03*
X02215D03*
X02186Y02739D03*
X02215D03*
X02097Y02725D03*
X02126D03*
X02186Y02803D03*
X02215D03*
X02185Y02676D03*
X02215D03*
X02186Y02708D03*
X02215D03*
X02097Y02658D03*
X02126D03*
X02185Y02612D03*
X02215D03*
X02097Y02689D03*
X02126D03*
X02813Y01723D03*
X02842D03*
X02659Y01661D03*
X0263D03*
X02659Y0163D03*
X0263D03*
X02659Y01599D03*
X0263D03*
X02659Y01568D03*
X0263D03*
X02659Y01536D03*
X0263D03*
X02659Y01505D03*
X0263D03*
X02659Y01474D03*
X0263D03*
X02659Y01443D03*
X0263D03*
Y01412D03*
X02659D03*
Y0138D03*
X0263D03*
X02842Y01688D03*
X02813D03*
X0288Y00571D03*
X02909D03*
X02829Y02562D03*
X02799D03*
G54D171*
X00943Y00829D03*
X00973D03*
Y00894D03*
X00943D03*
X00437Y02573D03*
X00467D03*
Y02508D03*
X00437D03*
G54D172*
X00873Y01239D03*
Y0121D03*
Y01308D03*
Y01279D03*
X00817Y01093D03*
Y01064D03*
X00713Y02556D03*
Y02585D03*
X00681Y02556D03*
Y02585D03*
X00609Y02545D03*
Y02575D03*
X00577Y02575D03*
Y02545D03*
X0232Y00736D03*
Y00765D03*
X01583Y00617D03*
Y00647D03*
X00777Y02556D03*
Y02585D03*
X0081Y02556D03*
Y02585D03*
X00352Y02171D03*
Y022D03*
X0052Y02128D03*
Y02099D03*
X00745Y02556D03*
Y02585D03*
X0232Y00855D03*
Y00826D03*
X02756Y01243D03*
Y01272D03*
X02788Y01242D03*
Y01271D03*
X02868Y01303D03*
Y01333D03*
X02872Y01238D03*
Y01267D03*
X02914Y01708D03*
Y01738D03*
X0148Y00808D03*
Y00838D03*
X01511Y00808D03*
Y00838D03*
X01449Y00808D03*
Y00838D03*
X01417Y00808D03*
Y00838D03*
X01386Y00809D03*
Y00839D03*
X01355Y00838D03*
Y00808D03*
X01324Y00838D03*
Y00808D03*
X02919Y01251D03*
Y01281D03*
X01881Y00557D03*
Y00527D03*
X01849Y00557D03*
Y00527D03*
X02265Y02745D03*
Y02715D03*
Y02667D03*
Y02637D03*
X02874Y01723D03*
Y01693D03*
X02564Y01144D03*
Y01114D03*
X02532Y01144D03*
Y01114D03*
X02596Y01144D03*
Y01114D03*
G54D173*
X00275Y00959D03*
X00338Y01046D03*
X00275D03*
X00338Y00959D03*
X00468Y02112D03*
X00405Y02198D03*
Y02112D03*
X00468Y02198D03*
G54D174*
X00435Y01197D03*
Y01217D03*
Y01237D03*
Y01256D03*
X00769D03*
Y01237D03*
Y01217D03*
Y01197D03*
Y01178D03*
Y01158D03*
Y01138D03*
Y01119D03*
Y01099D03*
Y01079D03*
Y01059D03*
Y0104D03*
X00435D03*
Y01059D03*
Y01079D03*
Y01099D03*
Y01119D03*
Y01138D03*
Y01158D03*
Y01178D03*
G54D175*
X00494Y01315D03*
X00513D03*
X00533D03*
X00553D03*
X00573D03*
X00592D03*
X00612D03*
X00632D03*
X00651D03*
X00671D03*
X00691D03*
X0071D03*
Y00981D03*
X00691D03*
X00671D03*
X00651D03*
X00632D03*
X00612D03*
X00592D03*
X00573D03*
X00553D03*
X00533D03*
X00513D03*
X00494D03*
G54D176*
X00736Y01447D03*
Y01376D03*
G54D177*
X02895Y00182D03*
Y00057D03*
G54D178*
X02747Y00212D03*
X0253D03*
G54D179*
X02698Y00212D03*
X02579D03*
G54D180*
X02619Y00212D03*
X02658D03*
G54D181*
X02534Y0053D03*
X02484Y0053D03*
X02434Y0053D03*
Y0031D03*
X02484D03*
X02534D03*
X02584D03*
Y0053D03*
G54D182*
X02365Y00435D03*
Y00526D03*
X02659Y00385D03*
Y00476D03*
G54D183*
X00474Y02766D03*
X00411D03*
G54D184*
X00391Y02662D03*
X00417D03*
X00494D03*
X00468D03*
X00442D03*
G54D185*
X01458Y00763D03*
X01477D03*
X01497D03*
Y00704D03*
X01458D03*
X01377Y00758D03*
X01357D03*
X01338D03*
Y00699D03*
X01377D03*
G54D186*
X02175Y00405D03*
X02155D03*
X02136D03*
X02116D03*
X02096D03*
X02077D03*
X02057D03*
X02037D03*
X02018D03*
X01998D03*
X01978D03*
X01959D03*
X01939D03*
X01919D03*
X019D03*
X0188D03*
X0186D03*
X01841D03*
X01821D03*
G54D187*
X00619Y02505D03*
X00835D03*
X00619Y02355D03*
Y02205D03*
Y02155D03*
Y02405D03*
Y02455D03*
Y02255D03*
Y02305D03*
X00835Y02155D03*
Y02205D03*
Y02255D03*
Y02305D03*
Y02355D03*
Y02405D03*
Y02455D03*
G54D188*
X02121Y02619D03*
X01783D03*
Y02796D03*
X02121D03*
G54D189*
X02543Y02116D03*
Y02037D03*
Y02017D03*
Y02136D03*
Y02175D03*
Y02195D03*
Y02234D03*
Y02254D03*
Y02293D03*
Y02313D03*
Y02411D03*
Y02431D03*
Y02352D03*
Y02372D03*
Y02057D03*
Y02077D03*
Y02096D03*
Y02214D03*
Y02155D03*
Y02273D03*
Y02332D03*
Y02391D03*
Y02451D03*
Y01998D03*
G54D190*
X02649Y02521D03*
Y01923D03*
G54D191*
X01711Y00536D03*
Y00654D03*
G54D192*
X02908Y0178D03*
Y01835D03*
G54D193*
X01892Y00735D03*
Y00642D03*
X01855D03*
X01929Y00735D03*
X01855D03*
X01929Y00642D03*
X02024Y00735D03*
Y00642D03*
X01987D03*
Y00735D03*
X02061D03*
Y00642D03*
X02168Y00739D03*
Y00645D03*
X0213D03*
Y00739D03*
X02205D03*
Y00645D03*
G54D194*
X02918Y01202D03*
X02892Y01144D03*
X02867Y01202D03*
G54D195*
X02855Y01773D03*
X028D03*
G54D196*
X01788Y0055D03*
Y00638D03*
G54D197*
X00224Y00072D03*
X005D03*
G54D198*
X00275Y00154D03*
X0045D03*
G54D199*
X00561Y0037D03*
G54D200*
X00661Y0037D03*
G54D201*
X00094Y00479D03*
X00093Y00725D03*
G54D202*
X00094Y00401D03*
X00093Y00647D03*
G54D203*
X00796Y00417D03*
X01024D03*
Y00692D03*
X00796D03*
G54D204*
X02374Y00157D03*
Y00057D03*
X02637Y02764D03*
X02537D03*
X02437D03*
X02337D03*
Y02664D03*
X02437D03*
X02537D03*
X02637D03*
X00944Y02764D03*
X00844D03*
X00744D03*
Y02664D03*
X00844D03*
X00944D03*
G54D205*
X02468Y00062D03*
X02809Y00062D03*
Y00212D03*
X02468D03*
G54D206*
X01232Y00118D03*
X01547D03*
G54D207*
X02828Y02708D03*
Y00425D03*
G54D208*
X00584Y02765D03*
X00301D03*
G54D209*
X00346Y02661D03*
X00539D03*
G54D210*
X0289Y01528D03*
Y01478D03*
X0284D03*
Y01428D03*
Y01528D03*
Y01578D03*
X0289Y01428D03*
Y01578D03*
X0284Y01628D03*
X0289D03*
G54D211*
X01713Y00375D03*
G54D212*
X02283Y00375D03*
G54D213*
X02283Y00139D03*
X01713D03*
G54D214*
X0091Y00437D03*
Y00515D03*
Y00594D03*
Y00673D03*
G54D215*
X02875Y00887D03*
Y00965D03*
G54D216*
X02837Y0064D03*
Y0074D03*
G54D217*
X01487Y02645D03*
X01275Y02527D03*
X01737Y02351D03*
X01702Y02378D03*
X01594Y02366D03*
X01362Y02771D03*
X01456Y02769D03*
X01249Y02764D03*
X01171Y02768D03*
X01292Y02772D03*
X00392Y01333D03*
X0029Y01496D03*
X00143Y00304D03*
X00219Y00361D03*
Y00188D03*
X02596Y02305D03*
X00419Y01644D03*
X00275Y00651D03*
X00194Y01614D03*
X01213Y02074D03*
X00275Y01677D03*
X00194Y02196D03*
X00433Y00734D03*
X00504Y00534D03*
X00637Y0048D03*
X00333Y00539D03*
X0037Y00289D03*
X026Y02203D03*
X0022Y02256D03*
X0109Y00985D03*
X01017Y01473D03*
X01137Y01493D03*
X01116Y00975D03*
X00967Y01638D03*
X01075Y01633D03*
X01998Y00993D03*
X01983Y00974D03*
X01647Y00843D03*
X01952Y02054D03*
X01614Y00828D03*
X01927Y02049D03*
X00307Y02026D03*
X00303Y01978D03*
X00306Y01923D03*
X00308Y01875D03*
X00754Y01831D03*
X00729Y01931D03*
X0074Y01884D03*
X00725Y01973D03*
X01888Y00966D03*
X01904Y00985D03*
X0192Y00968D03*
X01936Y00993D03*
X00343Y0172D03*
X00309Y01777D03*
Y01829D03*
X01447Y01767D03*
X01562Y02053D03*
X00824Y02064D03*
X02284Y00826D03*
X01879Y02257D03*
X02287Y00782D03*
X02459Y01736D03*
X01785Y02127D03*
Y01423D03*
X02501Y01049D03*
X02026Y00565D03*
X02306Y02584D03*
X01934Y02478D03*
X02397Y01274D03*
X01474Y00588D03*
M02*