%FSTAX23Y23*%
%MOIN*%
%SFA1B1*%

%IPPOS*%
%ADD247C,0.001000*%
%LNx98_carrier_v1r2_12082022_keep-out-1*%
%LPD*%
G36*
X00985Y01818D02*
X00968D01*
Y01826*
X00985*
Y01818*
G37*
G36*
Y01802D02*
X00968D01*
Y0181*
X00985*
Y01802*
G37*
G36*
Y01787D02*
X00968D01*
Y01795*
X00985*
Y01787*
G37*
G36*
Y01771D02*
X00968D01*
Y01779*
X00985*
Y01771*
G37*
G36*
Y01755D02*
X00968D01*
Y01763*
X00985*
Y01755*
G37*
G36*
X01061Y01818D02*
X01044D01*
Y01826*
X01061*
Y01818*
G37*
G36*
Y01802D02*
X01044D01*
Y0181*
X01061*
Y01802*
G37*
G36*
Y01787D02*
X01044D01*
Y01795*
X01061*
Y01787*
G37*
G36*
Y01771D02*
X01044D01*
Y01779*
X01061*
Y01771*
G37*
G36*
Y01755D02*
X01044D01*
Y01763*
X01061*
Y01755*
G37*
G36*
X00985Y01897D02*
X00968D01*
Y01905*
X00985*
Y01897*
G37*
G36*
Y01881D02*
X00968D01*
Y01889*
X00985*
Y01881*
G37*
G36*
Y01865D02*
X00968D01*
Y01873*
X00985*
Y01865*
G37*
G36*
Y0185D02*
X00968D01*
Y01858*
X00985*
Y0185*
G37*
G36*
Y01834D02*
X00968D01*
Y01842*
X00985*
Y01834*
G37*
G36*
X01061Y01897D02*
X01044D01*
Y01905*
X01061*
Y01897*
G37*
G36*
Y01881D02*
X01044D01*
Y01889*
X01061*
Y01881*
G37*
G36*
Y01865D02*
X01044D01*
Y01873*
X01061*
Y01865*
G37*
G36*
Y0185D02*
X01044D01*
Y01858*
X01061*
Y0185*
G37*
G36*
Y01834D02*
X01044D01*
Y01842*
X01061*
Y01834*
G37*
G54D247*
X0Y0D02*
X02952D01*
Y02834D01*
M02*