%FSTAX23Y23*%
%MOIN*%
%SFA1B1*%

%IPPOS*%
%ADD139C,0.007874*%
%LNx98_carrier_v1r2_12082022_top_assembly-1*%
%LPD*%
G36*
X00231Y00318D02*
X00231D01*
X00231*
X00231*
X0023Y00318*
X0023Y00318*
X0023Y00318*
X00229Y00319*
X00229Y00319*
X00229*
X00229Y00319*
X00229Y00319*
X00228Y00319*
X00228Y00319*
X00227Y00319*
X00227Y0032*
X00226Y0032*
X00226Y00321*
X00226*
X00225Y00321*
X00225Y00321*
X00225Y00321*
X00224Y00322*
X00224Y00322*
X00223Y00323*
X00223Y00324*
X00222Y00325*
X00222Y00325*
X00222Y00325*
X00221Y00325*
X00221Y00325*
X00221Y00326*
X00221Y00326*
X0022Y00327*
X0022Y00327*
X00219Y00328*
X00218Y00329*
X00218Y00329*
X00217Y0033*
X00217Y0033*
X00216Y0033*
X00216*
X00216Y0033*
X00216Y0033*
X00216Y00331*
X00216Y00331*
X00215Y00331*
X00215Y00331*
X00214Y00332*
X00213Y00332*
X00213Y00332*
X00213*
X00213*
X00212Y00332*
X00212Y00332*
X00212Y00332*
X00211Y00332*
X00211Y00331*
X0021Y00331*
X0021Y0033*
X0021Y0033*
X00209Y0033*
X00209Y0033*
X00209Y0033*
X00209Y00329*
X00208Y00328*
X00208Y00328*
X00208Y00327*
Y00327*
X00208Y00327*
X00208Y00326*
X00208Y00326*
X00209Y00325*
X00209Y00325*
X00209Y00324*
X0021Y00323*
X0021Y00323*
X0021Y00323*
X0021Y00323*
X00211Y00323*
X00211Y00323*
X00212Y00322*
X00213Y00322*
X00213Y00322*
X00213Y00319*
X00213*
X00213Y00319*
X00213*
X00212Y00319*
X00212Y00319*
X00212Y00319*
X00211Y00319*
X00211Y00319*
X0021Y0032*
X00209Y0032*
X00209Y0032*
X00208Y00321*
X00208Y00321*
X00208Y00321*
X00208Y00321*
X00208Y00321*
X00207Y00322*
X00207Y00322*
X00207Y00322*
X00207Y00322*
X00207Y00323*
X00207Y00323*
X00207Y00323*
X00206Y00324*
X00206Y00324*
X00206Y00325*
X00206Y00325*
X00206Y00326*
X00206Y00326*
X00206Y00327*
Y00327*
X00206Y00328*
X00206Y00328*
X00206Y00328*
X00206Y00329*
X00206Y00329*
X00206Y0033*
X00207Y00331*
X00207Y00332*
X00207Y00332*
X00207Y00332*
X00208Y00333*
X00208Y00333*
X00208Y00333*
X00208Y00333*
X00208Y00333*
X00208Y00333*
X00209Y00334*
X00209Y00334*
X00209Y00334*
X0021Y00334*
X00211Y00335*
X00211Y00335*
X00212Y00335*
X00212Y00335*
X00213Y00335*
X00213*
X00213*
X00213Y00335*
X00214Y00335*
X00214Y00335*
X00215Y00335*
X00215Y00335*
X00216Y00334*
X00216Y00334*
X00216Y00334*
X00216Y00334*
X00217Y00334*
X00217Y00334*
X00218Y00333*
X00218Y00333*
X00219Y00332*
X00219Y00332*
X00219Y00332*
X00219Y00332*
X00219Y00332*
X0022Y00331*
X0022Y00331*
X0022Y00331*
X00221Y0033*
X00221Y0033*
X00221Y0033*
X00222Y00329*
X00222Y00329*
X00223Y00328*
X00223Y00328*
X00223Y00327*
X00223Y00327*
X00223Y00327*
X00224Y00327*
X00224Y00327*
X00224Y00327*
X00225Y00326*
X00225Y00325*
X00226Y00325*
X00226Y00324*
X00226Y00324*
X00226Y00324*
X00226Y00324*
X00227Y00324*
X00227Y00324*
X00227Y00323*
X00227Y00323*
X00227Y00323*
X00228Y00323*
Y00335*
X00231*
Y00318*
G37*
G36*
X0022Y00316D02*
X0022D01*
X00221Y00316*
X00221Y00316*
X00222Y00315*
X00224Y00315*
X00225Y00315*
X00225Y00315*
X00226Y00315*
X00226*
X00226Y00315*
X00226Y00315*
X00226Y00315*
X00227Y00314*
X00227Y00314*
X00227Y00314*
X00228Y00314*
X00229Y00313*
X00229Y00313*
X0023Y00312*
Y00312*
X0023Y00312*
X0023Y00312*
X0023Y00312*
X0023Y00311*
X00231Y00311*
X00231Y00311*
X00231Y0031*
X00231Y00309*
X00231Y00308*
X00232Y00307*
Y00307*
X00231Y00307*
X00231Y00306*
X00231Y00306*
X00231Y00306*
X00231Y00305*
X00231Y00305*
X00231Y00304*
X00231Y00304*
X0023Y00303*
X0023Y00303*
X0023Y00302*
X00229Y00302*
X00229Y00302*
X00229Y00302*
X00229Y00302*
X00229Y00301*
X00228Y00301*
X00228Y00301*
X00228Y00301*
X00227Y00301*
X00226Y003*
X00226Y003*
X00225Y003*
X00224Y003*
X00223Y003*
X00222Y00299*
X00221Y00299*
X0022Y00299*
X00219Y00299*
X00219*
X00218*
X00218*
X00218*
X00218Y00299*
X00217*
X00217Y00299*
X00216Y00299*
X00215Y00299*
X00214Y003*
X00213Y003*
X00212Y003*
X00211Y003*
X00211*
X00211Y003*
X00211Y003*
X00211Y003*
X00211Y003*
X0021Y003*
X0021Y00301*
X00209Y00301*
X00209Y00302*
X00208Y00302*
X00207Y00303*
Y00303*
X00207Y00303*
X00207Y00303*
X00207Y00303*
X00207Y00303*
X00207Y00304*
X00206Y00304*
X00206Y00305*
X00206Y00306*
X00206Y00306*
X00206Y00307*
Y00308*
X00206Y00308*
X00206Y00309*
X00206Y00309*
X00206Y0031*
X00206Y0031*
X00207Y00311*
Y00311*
X00207Y00311*
X00207Y00311*
X00207Y00311*
X00207Y00312*
X00208Y00312*
X00208Y00313*
X00208Y00313*
X00209Y00313*
X00209Y00314*
X00209Y00314*
X0021Y00314*
X0021Y00314*
X00211Y00314*
X00211Y00315*
X00212Y00315*
X00213Y00315*
X00213*
X00213Y00315*
X00213Y00315*
X00213Y00315*
X00213Y00315*
X00214Y00315*
X00214Y00315*
X00214Y00315*
X00215Y00315*
X00215Y00315*
X00216Y00315*
X00216Y00316*
X00217Y00316*
X00217*
X00218Y00316*
X00219*
X00219*
X00219*
X00219*
X00219*
X0022Y00316*
G37*
G36*
X00224Y00296D02*
X00225Y00296D01*
X00225Y00296*
X00225Y00296*
X00226Y00296*
X00227Y00296*
X00227Y00295*
X00228Y00295*
X00228Y00295*
X00228Y00295*
X00229Y00294*
X00229Y00294*
X00229Y00294*
X00229Y00294*
X0023Y00294*
X0023Y00293*
X0023Y00293*
X0023Y00293*
X0023Y00293*
X0023Y00292*
X00231Y00292*
X00231Y00291*
X00231Y00291*
X00231Y0029*
X00231Y0029*
X00231Y00289*
X00231Y00289*
X00232Y00288*
Y00287*
X00231Y00287*
X00231Y00287*
X00231Y00287*
X00231Y00286*
X00231Y00286*
X00231Y00285*
X00231Y00284*
X00231Y00284*
X0023Y00283*
X0023Y00283*
X0023Y00282*
X00229Y00282*
X00229Y00282*
X00229Y00282*
X00229Y00282*
X00229Y00281*
X00229Y00281*
X00228Y00281*
X00228Y00281*
X00228Y00281*
X00227Y0028*
X00227Y0028*
X00226Y0028*
X00226Y0028*
X00225Y0028*
X00224Y0028*
X00224Y0028*
X00224*
X00224*
X00224*
X00223Y0028*
X00223*
X00223Y0028*
X00222Y0028*
X00222Y0028*
X00221Y0028*
X0022Y0028*
X0022Y00281*
X0022*
X0022Y00281*
X00219Y00281*
X00219Y00281*
X00219Y00282*
X00218Y00282*
X00218Y00283*
X00218Y00284*
X00217Y00284*
Y00284*
X00217Y00284*
X00217Y00284*
X00217Y00284*
X00217Y00284*
X00217Y00283*
X00217Y00283*
X00216Y00282*
X00216Y00282*
X00215Y00281*
X00215Y00281*
X00215Y00281*
X00215Y00281*
X00215Y00281*
X00214Y00281*
X00214Y00281*
X00213Y00281*
X00212Y00281*
X00212*
X00212*
X00212*
X00212Y00281*
X00212Y00281*
X00211Y00281*
X00211Y00281*
X0021Y00281*
X00209Y00281*
X00209Y00282*
X00208Y00282*
X00208Y00282*
X00208Y00283*
X00208Y00283*
X00208Y00283*
X00207Y00283*
X00207Y00283*
X00207Y00283*
X00207Y00283*
X00207Y00284*
X00207Y00284*
X00207Y00284*
X00206Y00285*
X00206Y00285*
X00206Y00286*
X00206Y00287*
X00206Y00287*
X00206Y00288*
Y00288*
X00206Y00288*
X00206Y00289*
X00206Y00289*
X00206Y00289*
X00206Y0029*
X00206Y00291*
X00207Y00291*
X00207Y00292*
X00207Y00292*
X00207Y00293*
X00208Y00293*
X00208Y00293*
X00208Y00293*
X00208Y00293*
X00208Y00293*
X00208Y00294*
X00208Y00294*
X00209Y00294*
X0021Y00294*
X0021Y00295*
X00211Y00295*
X00212Y00295*
X00212Y00295*
X00212*
X00212*
X00213*
X00213Y00295*
X00213Y00295*
X00214Y00295*
X00214Y00295*
X00215Y00295*
X00215Y00294*
X00216Y00294*
X00216Y00294*
X00216Y00294*
X00216Y00294*
X00217Y00293*
X00217Y00293*
X00217Y00292*
X00217Y00291*
Y00291*
X00217Y00292*
X00218Y00292*
X00218Y00292*
X00218Y00292*
X00218Y00293*
X00218Y00293*
X00219Y00294*
X00219Y00294*
X0022Y00295*
X0022*
X0022Y00295*
X0022Y00295*
X00221Y00295*
X00221Y00296*
X00222Y00296*
X00222Y00296*
X00223Y00296*
X00224Y00296*
X00224*
X00224*
X00224*
X00224Y00296*
G37*
G36*
X00231Y00273D02*
X00226Y0027D01*
X00226*
X00226Y0027*
X00226Y0027*
X00225Y0027*
X00225Y0027*
X00225Y00269*
X00224Y00269*
X00223Y00269*
X00223Y00268*
X00222Y00268*
X00222Y00268*
X00222Y00268*
X00222Y00267*
X00222Y00267*
X00221Y00267*
X00221Y00266*
X00221Y00266*
X00221Y00266*
X00221Y00266*
X00221Y00266*
X0022Y00266*
X0022Y00265*
X0022Y00265*
X0022Y00265*
Y00264*
X0022Y00264*
Y00264*
X0022Y00264*
X0022Y00264*
Y00264*
X0022Y00263*
Y00259*
X00231*
Y00255*
X00206*
Y00267*
X00206Y00267*
Y00268*
X00206Y00269*
X00206Y00269*
X00206Y0027*
X00206Y00271*
X00206Y00271*
X00207Y00272*
Y00272*
X00207Y00272*
X00207Y00272*
X00207Y00272*
X00207Y00273*
X00207Y00273*
X00208Y00274*
X00208Y00274*
X00209Y00275*
X00209*
X00209Y00275*
X00209Y00275*
X0021Y00275*
X0021Y00275*
X00211Y00275*
X00211Y00275*
X00212Y00276*
X00213Y00276*
X00213*
X00213*
X00213*
X00213Y00276*
X00213*
X00214Y00276*
X00214Y00275*
X00215Y00275*
X00216Y00275*
X00217Y00274*
X00217Y00274*
X00217Y00274*
X00217Y00274*
X00217Y00274*
X00217Y00274*
X00218Y00274*
X00218Y00273*
X00218Y00273*
X00218Y00273*
X00218Y00273*
X00218Y00272*
X00219Y00272*
X00219Y00271*
X00219Y00271*
X00219Y0027*
X00219Y0027*
X00219Y00269*
X0022Y00269*
X0022Y00269*
X0022Y00269*
X0022Y00269*
X0022Y00269*
X0022Y0027*
X00221Y0027*
X00221Y00271*
X00221Y00271*
X00221Y00271*
X00221Y00271*
X00222Y00271*
X00222Y00272*
X00223Y00272*
X00223Y00273*
X00224Y00273*
X00231Y00278*
Y00273*
G37*
G36*
X0107Y01664D02*
X0107Y01664D01*
X01071Y01664*
X01071Y01664*
X01072Y01663*
X01072Y01663*
X01073Y01663*
X01074Y01663*
X01074Y01662*
X01075Y01662*
X01075Y01662*
X01075Y01662*
X01076Y01662*
X01076Y01661*
X01076Y01661*
X01076Y01661*
X01076Y01661*
X01077Y0166*
X01077Y0166*
X01077Y0166*
X01078Y01659*
X01078Y01658*
X01078Y01658*
X01078Y01657*
X01078Y01657*
X01078Y01656*
X01079Y01655*
Y01655*
X01078Y01655*
X01078Y01654*
X01078Y01654*
X01078Y01653*
X01078Y01653*
X01078Y01652*
X01078Y01651*
X01077Y01651*
X01077Y0165*
X01077Y0165*
X01077Y01649*
X01077Y01649*
X01077Y01649*
X01076Y01649*
X01076Y01649*
X01076Y01649*
X01076Y01649*
X01076Y01649*
X01075Y01648*
X01075Y01648*
X01074Y01648*
X01074Y01648*
X01073Y01647*
X01072Y01647*
X01071Y01647*
X01071Y0165*
X01071*
X01071*
X01071Y0165*
X01072Y0165*
X01072Y0165*
X01073Y01651*
X01073Y01651*
X01074Y01651*
X01074Y01651*
X01075Y01652*
X01075Y01652*
X01075Y01652*
X01075Y01652*
X01075Y01653*
X01076Y01653*
X01076Y01654*
X01076Y01654*
X01076Y01655*
Y01655*
X01076Y01655*
X01076Y01656*
X01076Y01656*
X01076Y01657*
X01075Y01658*
X01075Y01658*
X01075Y01659*
X01074Y01659*
X01074Y01659*
X01074Y01659*
X01074Y01659*
X01074Y01659*
X01074Y01659*
X01073Y0166*
X01072Y0166*
X01072Y0166*
X01071Y0166*
X0107Y0166*
X0107*
X0107*
X0107*
X0107*
X01069Y0166*
X01069*
X01069Y0166*
X01068Y0166*
X01068Y0166*
X01067Y0166*
X01066Y01659*
X01066Y01659*
X01066*
X01066Y01659*
X01065Y01659*
X01065Y01658*
X01065Y01658*
X01065Y01657*
X01064Y01657*
X01064Y01656*
X01064Y01655*
Y01655*
X01064Y01655*
X01064Y01654*
X01064Y01654*
X01064Y01653*
X01065Y01653*
X01065Y01652*
X01065Y01652*
X01065Y01652*
X01065Y01652*
X01065Y01652*
X01066Y01651*
X01066Y01651*
X01066Y01651*
X01067Y0165*
X01066Y01648*
X01053Y0165*
Y01663*
X01056*
Y01652*
X01063Y01651*
X01063Y01651*
X01063Y01651*
X01063Y01651*
X01063Y01651*
X01063Y01652*
X01062Y01652*
X01062Y01653*
X01062Y01653*
X01062Y01654*
X01061Y01655*
X01061Y01655*
Y01656*
X01061Y01656*
X01061Y01657*
X01061Y01657*
X01062Y01657*
X01062Y01658*
X01062Y01659*
X01062Y01659*
X01062Y0166*
X01063Y0166*
X01063Y01661*
X01063Y01661*
X01064Y01661*
X01064Y01661*
X01064Y01662*
X01064Y01662*
X01064Y01662*
X01064Y01662*
X01065Y01662*
X01065Y01662*
X01065Y01663*
X01066Y01663*
X01066Y01663*
X01067Y01663*
X01067Y01663*
X01068Y01663*
X01068Y01664*
X01069Y01664*
X0107Y01664*
X0107*
X0107*
X0107*
X0107Y01664*
G37*
G36*
X01078Y01636D02*
X01058D01*
X01058Y01636*
X01059Y01636*
X01059Y01636*
X01059Y01635*
X01059Y01635*
X0106Y01634*
X0106Y01634*
X01061Y01633*
Y01633*
X01061Y01633*
X01061Y01633*
X01061Y01632*
X01061Y01632*
X01061Y01631*
X01062Y01631*
X01062Y0163*
X01062Y0163*
X01059*
Y0163*
X01059Y0163*
X01059Y0163*
X01059Y0163*
X01059Y0163*
X01059Y01631*
X01058Y01631*
X01058Y01632*
X01057Y01633*
X01057Y01634*
X01056Y01634*
X01056Y01634*
X01056Y01634*
X01056Y01634*
X01056Y01635*
X01055Y01635*
X01055Y01635*
X01055Y01636*
X01054Y01636*
X01053Y01637*
X01053Y01637*
Y01639*
X01078*
Y01636*
G37*
G36*
Y01616D02*
X01058D01*
X01058Y01616*
X01059Y01616*
X01059Y01616*
X01059Y01616*
X01059Y01615*
X0106Y01615*
X0106Y01614*
X01061Y01613*
Y01613*
X01061Y01613*
X01061Y01613*
X01061Y01613*
X01061Y01612*
X01061Y01612*
X01062Y01611*
X01062Y01611*
X01062Y0161*
X01059*
Y0161*
X01059Y0161*
X01059Y0161*
X01059Y01611*
X01059Y01611*
X01059Y01611*
X01058Y01612*
X01058Y01612*
X01057Y01613*
X01057Y01614*
X01056Y01615*
X01056Y01615*
X01056Y01615*
X01056Y01615*
X01056Y01615*
X01055Y01615*
X01055Y01616*
X01055Y01616*
X01054Y01617*
X01053Y01617*
X01053Y01617*
Y01619*
X01078*
Y01616*
G37*
G36*
Y01597D02*
X01058D01*
X01058Y01597*
X01059Y01597*
X01059Y01596*
X01059Y01596*
X01059Y01596*
X0106Y01595*
X0106Y01595*
X01061Y01594*
Y01594*
X01061Y01594*
X01061Y01594*
X01061Y01593*
X01061Y01593*
X01061Y01592*
X01062Y01592*
X01062Y01591*
X01062Y01591*
X01059*
Y01591*
X01059Y01591*
X01059Y01591*
X01059Y01591*
X01059Y01591*
X01059Y01592*
X01058Y01592*
X01058Y01593*
X01057Y01594*
X01057Y01594*
X01056Y01595*
X01056Y01595*
X01056Y01595*
X01056Y01595*
X01056Y01595*
X01055Y01596*
X01055Y01596*
X01055Y01597*
X01054Y01597*
X01053Y01598*
X01053Y01598*
Y016*
X01078*
Y01597*
G37*
G36*
Y01582D02*
X01073Y01579D01*
X01073*
X01073Y01579*
X01073Y01579*
X01072Y01579*
X01072Y01578*
X01072Y01578*
X01071Y01578*
X0107Y01577*
X0107Y01577*
X01069Y01576*
X01069Y01576*
X01069Y01576*
X01069Y01576*
X01069Y01576*
X01068Y01575*
X01068Y01575*
X01068Y01575*
X01068Y01575*
X01068Y01575*
X01068Y01574*
X01067Y01574*
X01067Y01574*
X01067Y01574*
X01067Y01573*
Y01573*
X01067Y01573*
Y01573*
X01067Y01573*
X01067Y01572*
Y01572*
X01067Y01572*
Y01568*
X01078*
Y01564*
X01053*
Y01576*
X01053Y01576*
Y01576*
X01053Y01577*
X01053Y01578*
X01053Y01579*
X01053Y0158*
X01053Y0158*
X01054Y0158*
Y0158*
X01054Y01581*
X01054Y01581*
X01054Y01581*
X01054Y01581*
X01054Y01582*
X01055Y01582*
X01055Y01583*
X01056Y01583*
X01056*
X01056Y01583*
X01056Y01583*
X01057Y01584*
X01057Y01584*
X01058Y01584*
X01058Y01584*
X01059Y01584*
X0106Y01584*
X0106*
X0106*
X0106*
X0106Y01584*
X0106*
X01061Y01584*
X01061Y01584*
X01062Y01584*
X01063Y01584*
X01064Y01583*
X01064Y01583*
X01064Y01583*
X01064Y01583*
X01064Y01582*
X01064Y01582*
X01065Y01582*
X01065Y01582*
X01065Y01582*
X01065Y01582*
X01065Y01581*
X01065Y01581*
X01066Y0158*
X01066Y0158*
X01066Y0158*
X01066Y01579*
X01066Y01578*
X01066Y01578*
X01067Y01577*
X01067Y01577*
X01067Y01577*
X01067Y01578*
X01067Y01578*
X01067Y01579*
X01068Y01579*
X01068Y01579*
X01068Y01579*
X01068Y01579*
X01068Y0158*
X01069Y0158*
X01069Y01581*
X0107Y01581*
X0107Y01581*
X01071Y01582*
X01078Y01586*
Y01582*
G37*
G36*
X00973Y01665D02*
X0098D01*
Y01662*
X00973*
Y01651*
X00971*
X00954Y01662*
Y01665*
X00971*
Y01668*
X00973*
Y01665*
G37*
G36*
X0098Y01641D02*
X0096D01*
X0096Y01641*
X0096Y0164*
X0096Y0164*
X0096Y0164*
X00961Y01639*
X00961Y01639*
X00962Y01638*
X00962Y01638*
Y01638*
X00962Y01638*
X00962Y01637*
X00962Y01637*
X00963Y01637*
X00963Y01636*
X00963Y01636*
X00963Y01635*
X00964Y01634*
X00961*
Y01635*
X0096Y01635*
X0096Y01635*
X0096Y01635*
X0096Y01635*
X0096Y01635*
X0096Y01636*
X00959Y01637*
X00959Y01637*
X00958Y01638*
X00958Y01639*
X00958Y01639*
X00958Y01639*
X00957Y01639*
X00957Y01639*
X00957Y0164*
X00956Y0164*
X00956Y01641*
X00955Y01641*
X00955Y01641*
X00954Y01642*
Y01644*
X0098*
Y01641*
G37*
G36*
Y01621D02*
X0096D01*
X0096Y01621*
X0096Y01621*
X0096Y01621*
X0096Y0162*
X00961Y0162*
X00961Y01619*
X00962Y01619*
X00962Y01618*
Y01618*
X00962Y01618*
X00962Y01618*
X00962Y01617*
X00963Y01617*
X00963Y01617*
X00963Y01616*
X00963Y01615*
X00964Y01615*
X00961*
Y01615*
X0096Y01615*
X0096Y01615*
X0096Y01615*
X0096Y01616*
X0096Y01616*
X0096Y01616*
X00959Y01617*
X00959Y01618*
X00958Y01619*
X00958Y01619*
X00958Y01619*
X00958Y01619*
X00957Y0162*
X00957Y0162*
X00957Y0162*
X00956Y0162*
X00956Y01621*
X00955Y01621*
X00955Y01622*
X00954Y01622*
Y01624*
X0098*
Y01621*
G37*
G36*
Y01601D02*
X0096D01*
X0096Y01601*
X0096Y01601*
X0096Y01601*
X0096Y01601*
X00961Y016*
X00961Y016*
X00962Y01599*
X00962Y01599*
Y01599*
X00962Y01598*
X00962Y01598*
X00962Y01598*
X00963Y01597*
X00963Y01597*
X00963Y01596*
X00963Y01596*
X00964Y01595*
X00961*
Y01595*
X0096Y01595*
X0096Y01596*
X0096Y01596*
X0096Y01596*
X0096Y01596*
X0096Y01597*
X00959Y01598*
X00959Y01598*
X00958Y01599*
X00958Y016*
X00958Y016*
X00958Y016*
X00957Y016*
X00957Y016*
X00957Y016*
X00956Y01601*
X00956Y01601*
X00955Y01602*
X00955Y01602*
X00954Y01603*
Y01605*
X0098*
Y01601*
G37*
G36*
Y01587D02*
X00974Y01584D01*
X00974*
X00974Y01583*
X00974Y01583*
X00974Y01583*
X00973Y01583*
X00973Y01583*
X00972Y01582*
X00972Y01582*
X00971Y01581*
X00971Y01581*
X00971Y01581*
X00971Y01581*
X0097Y01581*
X0097Y01581*
X0097Y0158*
X00969Y0158*
X00969Y01579*
X00969Y01579*
X00969Y01579*
X00969Y01579*
X00969Y01579*
X00969Y01579*
X00969Y01578*
X00968Y01578*
Y01578*
X00968Y01578*
Y01578*
X00968Y01577*
X00968Y01577*
Y01577*
X00968Y01576*
Y01572*
X0098*
Y01569*
X00954*
Y01581*
X00954Y01581*
Y01581*
X00954Y01582*
X00954Y01583*
X00955Y01584*
X00955Y01584*
X00955Y01585*
X00955Y01585*
Y01585*
X00955Y01585*
X00955Y01585*
X00955Y01586*
X00956Y01586*
X00956Y01587*
X00956Y01587*
X00957Y01587*
X00957Y01588*
X00957*
X00957Y01588*
X00958Y01588*
X00958Y01588*
X00959Y01588*
X00959Y01589*
X0096Y01589*
X0096Y01589*
X00961Y01589*
X00961*
X00961*
X00961*
X00962Y01589*
X00962*
X00962Y01589*
X00963Y01589*
X00963Y01589*
X00964Y01588*
X00965Y01588*
X00965Y01588*
X00966Y01587*
X00966Y01587*
X00966Y01587*
X00966Y01587*
X00966Y01587*
X00966Y01587*
X00966Y01586*
X00967Y01586*
X00967Y01586*
X00967Y01586*
X00967Y01585*
X00967Y01585*
X00967Y01584*
X00968Y01584*
X00968Y01583*
X00968Y01583*
X00968Y01582*
X00968Y01582*
X00968Y01582*
X00968Y01582*
X00968Y01583*
X00969Y01583*
X00969Y01584*
X00969Y01584*
X00969Y01584*
X0097Y01584*
X0097Y01584*
X0097Y01585*
X00971Y01585*
X00971Y01586*
X00972Y01586*
X00973Y01587*
X0098Y01591*
Y01587*
G37*
G36*
X00349Y00477D02*
X00349D01*
X00349Y00477*
X0035Y00477*
X00351Y00477*
X00352Y00477*
X00353Y00477*
X00354Y00476*
X00355Y00476*
X00355*
X00355Y00476*
X00355Y00476*
X00355Y00476*
X00355Y00476*
X00356Y00476*
X00356Y00476*
X00357Y00475*
X00358Y00475*
X00358Y00474*
X00359Y00474*
Y00474*
X00359Y00473*
X00359Y00473*
X00359Y00473*
X00359Y00473*
X00359Y00473*
X0036Y00472*
X0036Y00472*
X0036Y00471*
X0036Y0047*
X0036Y00469*
Y00469*
X0036Y00468*
X0036Y00468*
X0036Y00468*
X0036Y00467*
X0036Y00467*
X0036Y00466*
X0036Y00466*
X00359Y00465*
X00359Y00465*
X00359Y00465*
X00359Y00464*
X00358Y00464*
X00358Y00463*
X00358Y00463*
X00358Y00463*
X00357Y00463*
X00357Y00463*
X00357Y00463*
X00356Y00462*
X00356Y00462*
X00355Y00462*
X00355Y00462*
X00354Y00462*
X00353Y00461*
X00352Y00461*
X00351Y00461*
X0035Y00461*
X00349Y00461*
X00347Y00461*
X00347*
X00347*
X00347*
X00347*
X00346Y00461*
X00346*
X00345Y00461*
X00345Y00461*
X00344Y00461*
X00342Y00461*
X00341Y00461*
X00341Y00462*
X0034Y00462*
X0034*
X0034Y00462*
X0034Y00462*
X0034Y00462*
X0034Y00462*
X00339Y00462*
X00339Y00462*
X00338Y00463*
X00337Y00463*
X00337Y00464*
X00336Y00464*
Y00464*
X00336Y00464*
X00336Y00465*
X00336Y00465*
X00336Y00465*
X00336Y00465*
X00335Y00466*
X00335Y00466*
X00335Y00467*
X00335Y00468*
X00335Y00469*
Y00469*
X00335Y0047*
X00335Y0047*
X00335Y00471*
X00335Y00471*
X00335Y00472*
X00335Y00473*
Y00473*
X00335Y00473*
X00335Y00473*
X00336Y00473*
X00336Y00473*
X00336Y00474*
X00337Y00474*
X00337Y00475*
X00338Y00475*
X00338Y00475*
X00338Y00475*
X00338Y00475*
X00339Y00476*
X00339Y00476*
X0034Y00476*
X00341Y00476*
X00341Y00477*
X00342*
X00342Y00477*
X00342Y00477*
X00342Y00477*
X00342Y00477*
X00342Y00477*
X00343Y00477*
X00343Y00477*
X00343Y00477*
X00344Y00477*
X00344Y00477*
X00345Y00477*
X00345Y00477*
X00346*
X00347Y00477*
X00347*
X00347*
X00348*
X00348*
X00348*
X00349Y00477*
G37*
G36*
Y00458D02*
X00349D01*
X00349Y00458*
X0035Y00458*
X00351Y00457*
X00352Y00457*
X00353Y00457*
X00354Y00457*
X00355Y00457*
X00355*
X00355Y00457*
X00355Y00457*
X00355Y00457*
X00355Y00456*
X00356Y00456*
X00356Y00456*
X00357Y00456*
X00358Y00455*
X00358Y00455*
X00359Y00454*
Y00454*
X00359Y00454*
X00359Y00454*
X00359Y00454*
X00359Y00453*
X00359Y00453*
X0036Y00453*
X0036Y00452*
X0036Y00451*
X0036Y0045*
X0036Y00449*
Y00449*
X0036Y00449*
X0036Y00448*
X0036Y00448*
X0036Y00448*
X0036Y00447*
X0036Y00447*
X0036Y00446*
X00359Y00446*
X00359Y00445*
X00359Y00445*
X00359Y00444*
X00358Y00444*
X00358Y00444*
X00358Y00444*
X00358Y00444*
X00357Y00443*
X00357Y00443*
X00357Y00443*
X00356Y00443*
X00356Y00443*
X00355Y00442*
X00355Y00442*
X00354Y00442*
X00353Y00442*
X00352Y00442*
X00351Y00441*
X0035Y00441*
X00349Y00441*
X00347Y00441*
X00347*
X00347*
X00347*
X00347*
X00346Y00441*
X00346*
X00345Y00441*
X00345Y00441*
X00344Y00441*
X00342Y00442*
X00341Y00442*
X00341Y00442*
X0034Y00442*
X0034*
X0034Y00442*
X0034Y00442*
X0034Y00442*
X0034Y00442*
X00339Y00442*
X00339Y00443*
X00338Y00443*
X00337Y00444*
X00337Y00444*
X00336Y00445*
Y00445*
X00336Y00445*
X00336Y00445*
X00336Y00445*
X00336Y00445*
X00336Y00446*
X00335Y00446*
X00335Y00447*
X00335Y00448*
X00335Y00448*
X00335Y00449*
Y0045*
X00335Y0045*
X00335Y00451*
X00335Y00451*
X00335Y00452*
X00335Y00452*
X00335Y00453*
Y00453*
X00335Y00453*
X00335Y00453*
X00336Y00453*
X00336Y00454*
X00336Y00454*
X00337Y00455*
X00337Y00455*
X00338Y00455*
X00338Y00456*
X00338Y00456*
X00338Y00456*
X00339Y00456*
X00339Y00456*
X0034Y00457*
X00341Y00457*
X00341Y00457*
X00342*
X00342Y00457*
X00342Y00457*
X00342Y00457*
X00342Y00457*
X00342Y00457*
X00343Y00457*
X00343Y00457*
X00343Y00457*
X00344Y00457*
X00344Y00457*
X00345Y00458*
X00345Y00458*
X00346*
X00347Y00458*
X00347*
X00347*
X00348*
X00348*
X00348*
X00349Y00458*
G37*
G36*
X00353Y00438D02*
X00353Y00438D01*
X00354Y00438*
X00354Y00438*
X00355Y00438*
X00355Y00438*
X00356Y00437*
X00356Y00437*
X00357Y00437*
X00357Y00437*
X00358Y00436*
X00358Y00436*
X00358Y00436*
X00358Y00436*
X00358Y00436*
X00358Y00435*
X00359Y00435*
X00359Y00435*
X00359Y00435*
X00359Y00434*
X00359Y00434*
X0036Y00433*
X0036Y00433*
X0036Y00432*
X0036Y00432*
X0036Y00431*
X0036Y00431*
X0036Y0043*
Y00429*
X0036Y00429*
X0036Y00429*
X0036Y00429*
X0036Y00428*
X0036Y00428*
X0036Y00427*
X0036Y00426*
X00359Y00426*
X00359Y00425*
X00359Y00425*
X00358Y00424*
X00358Y00424*
X00358Y00424*
X00358Y00424*
X00358Y00424*
X00358Y00423*
X00357Y00423*
X00357Y00423*
X00357Y00423*
X00357Y00423*
X00356Y00422*
X00356Y00422*
X00355Y00422*
X00354Y00422*
X00354Y00422*
X00353Y00422*
X00353Y00422*
X00353*
X00352*
X00352*
X00352Y00422*
X00352*
X00352Y00422*
X00351Y00422*
X0035Y00422*
X0035Y00422*
X00349Y00422*
X00348Y00423*
X00348*
X00348Y00423*
X00348Y00423*
X00348Y00423*
X00348Y00424*
X00347Y00424*
X00347Y00425*
X00346Y00426*
X00346Y00426*
Y00426*
X00346Y00426*
X00346Y00426*
X00346Y00426*
X00346Y00426*
X00346Y00425*
X00345Y00425*
X00345Y00424*
X00345Y00424*
X00344Y00423*
X00344Y00423*
X00344Y00423*
X00344Y00423*
X00343Y00423*
X00343Y00423*
X00342Y00423*
X00342Y00423*
X00341Y00423*
X00341*
X00341*
X00341*
X00341Y00423*
X0034Y00423*
X0034Y00423*
X00339Y00423*
X00339Y00423*
X00338Y00423*
X00338Y00424*
X00337Y00424*
X00337Y00424*
X00336Y00425*
X00336Y00425*
X00336Y00425*
X00336Y00425*
X00336Y00425*
X00336Y00425*
X00336Y00425*
X00336Y00426*
X00335Y00426*
X00335Y00426*
X00335Y00427*
X00335Y00427*
X00335Y00428*
X00335Y00429*
X00335Y00429*
X00335Y0043*
Y0043*
X00335Y0043*
X00335Y00431*
X00335Y00431*
X00335Y00431*
X00335Y00432*
X00335Y00433*
X00335Y00433*
X00336Y00434*
X00336Y00434*
X00336Y00435*
X00336Y00435*
X00336Y00435*
X00337Y00435*
X00337Y00435*
X00337Y00435*
X00337Y00436*
X00337Y00436*
X00338Y00436*
X00338Y00436*
X00339Y00437*
X0034Y00437*
X00341Y00437*
X00341Y00437*
X00341*
X00341*
X00341*
X00342Y00437*
X00342Y00437*
X00343Y00437*
X00343Y00437*
X00344Y00437*
X00344Y00436*
X00344Y00436*
X00344Y00436*
X00345Y00436*
X00345Y00436*
X00345Y00435*
X00346Y00435*
X00346Y00434*
X00346Y00433*
Y00433*
X00346Y00434*
X00346Y00434*
X00346Y00434*
X00347Y00434*
X00347Y00435*
X00347Y00435*
X00348Y00436*
X00348Y00436*
X00349Y00437*
X00349*
X00349Y00437*
X00349Y00437*
X00349Y00437*
X0035Y00438*
X0035Y00438*
X00351Y00438*
X00352Y00438*
X00353Y00438*
X00353*
X00353*
X00353*
X00353Y00438*
G37*
G36*
X0036Y00415D02*
X00355Y00412D01*
X00355*
X00354Y00412*
X00354Y00412*
X00354Y00412*
X00354Y00412*
X00353Y00411*
X00353Y00411*
X00352Y00411*
X00352Y0041*
X00351Y0041*
X00351Y0041*
X00351Y0041*
X00351Y00409*
X0035Y00409*
X0035Y00409*
X0035Y00408*
X00349Y00408*
X00349Y00408*
X00349Y00408*
X00349Y00408*
X00349Y00408*
X00349Y00407*
X00349Y00407*
X00349Y00407*
Y00406*
X00349Y00406*
Y00406*
X00349Y00406*
X00349Y00406*
Y00406*
X00349Y00405*
Y00401*
X0036*
Y00397*
X00335*
Y00409*
X00335Y00409*
Y0041*
X00335Y00411*
X00335Y00411*
X00335Y00412*
X00335Y00413*
X00335Y00413*
X00335Y00414*
Y00414*
X00335Y00414*
X00335Y00414*
X00336Y00414*
X00336Y00415*
X00336Y00415*
X00337Y00416*
X00337Y00416*
X00338Y00417*
X00338*
X00338Y00417*
X00338Y00417*
X00338Y00417*
X00339Y00417*
X00339Y00417*
X0034Y00417*
X00341Y00418*
X00342Y00418*
X00342*
X00342*
X00342*
X00342Y00418*
X00342*
X00342Y00418*
X00343Y00417*
X00344Y00417*
X00345Y00417*
X00345Y00416*
X00346Y00416*
X00346Y00416*
X00346Y00416*
X00346Y00416*
X00346Y00416*
X00346Y00416*
X00346Y00415*
X00347Y00415*
X00347Y00415*
X00347Y00415*
X00347Y00414*
X00347Y00414*
X00348Y00413*
X00348Y00413*
X00348Y00412*
X00348Y00412*
X00348Y00411*
X00348Y00411*
X00348Y00411*
X00348Y00411*
X00349Y00411*
X00349Y00411*
X00349Y00412*
X00349Y00412*
X0035Y00413*
X0035Y00413*
X0035Y00413*
X0035Y00413*
X00351Y00413*
X00351Y00414*
X00352Y00414*
X00352Y00415*
X00353Y00415*
X0036Y0042*
Y00415*
G37*
%LNx98_carrier_v1r2_12082022_top_assembly-2*%
%LPC*%
G36*
X0022Y00312D02*
X00219D01*
X00219*
X00219*
X00218*
X00218*
X00218Y00312*
X00217*
X00217Y00312*
X00216Y00312*
X00215Y00312*
X00214Y00312*
X00213Y00312*
X00213Y00312*
X00212Y00312*
X00211Y00311*
X00211Y00311*
X0021Y00311*
X0021*
X0021Y00311*
X0021Y00311*
X0021Y00311*
X0021Y0031*
X00209Y0031*
X00209Y00309*
X00209Y00309*
X00208Y00309*
X00208Y00308*
X00208Y00308*
X00208Y00307*
Y00307*
X00208Y00307*
X00208Y00307*
X00209Y00306*
X00209Y00306*
X00209Y00305*
X00209Y00305*
X0021Y00304*
X0021Y00304*
X0021Y00304*
X0021*
X0021Y00304*
X0021Y00304*
X00211Y00304*
X00211Y00304*
X00211Y00303*
X00212Y00303*
X00212Y00303*
X00213Y00303*
X00213Y00303*
X00214Y00303*
X00215Y00303*
X00216Y00302*
X00217Y00302*
X00218Y00302*
X00219Y00302*
X00219*
X00219*
X00219*
X0022Y00302*
X0022*
X00221Y00302*
X00221Y00302*
X00222Y00303*
X00223Y00303*
X00224Y00303*
X00225Y00303*
X00225Y00303*
X00226Y00303*
X00226Y00304*
X00227Y00304*
X00227*
X00227Y00304*
X00227Y00304*
X00228Y00304*
X00228Y00305*
X00228Y00305*
X00229Y00306*
X00229Y00307*
X00229Y00307*
X00229Y00307*
Y00308*
X00229Y00308*
X00229Y00308*
X00229Y00309*
X00228Y00309*
X00228Y0031*
X00228Y0031*
X00228Y0031*
X00227Y00311*
X00227Y00311*
X00227*
X00227Y00311*
X00227Y00311*
X00227Y00311*
X00226Y00311*
X00226Y00311*
X00226Y00312*
X00225Y00312*
X00225Y00312*
X00224Y00312*
X00223Y00312*
X00223Y00312*
X00222Y00312*
X00221Y00312*
X0022Y00312*
G37*
G36*
X00212Y00292D02*
X00212D01*
X00212*
X00212*
X00212Y00292*
X00211Y00292*
X00211Y00292*
X0021Y00291*
X0021Y00291*
X00209Y00291*
X00209Y00291*
X00209Y00291*
X00209Y0029*
X00209Y0029*
X00209Y0029*
X00208Y00289*
X00208Y00288*
X00208Y00288*
Y00288*
X00208Y00287*
X00208Y00287*
X00209Y00286*
X00209Y00286*
X00209Y00285*
X00209Y00285*
X0021Y00285*
X0021Y00285*
X0021Y00285*
X0021Y00284*
X00211Y00284*
X00211Y00284*
X00212Y00284*
X00212Y00284*
X00212*
X00212*
X00212Y00284*
X00213Y00284*
X00213Y00284*
X00214Y00284*
X00214Y00284*
X00215Y00285*
X00215Y00285*
X00215Y00285*
X00215Y00285*
X00215Y00285*
X00216Y00286*
X00216Y00286*
X00216Y00287*
X00216Y00287*
X00216Y00288*
Y00288*
X00216Y00288*
X00216Y00288*
X00216Y00289*
X00216Y00289*
X00216Y0029*
X00215Y0029*
X00215Y00291*
X00215Y00291*
X00215Y00291*
X00215Y00291*
X00214Y00291*
X00214Y00292*
X00213Y00292*
X00213Y00292*
X00212Y00292*
G37*
G36*
X00224Y00293D02*
X00224D01*
X00224*
X00224*
X00224Y00293*
X00223Y00293*
X00223Y00293*
X00222Y00293*
X00221Y00292*
X00221Y00292*
X0022Y00291*
X0022Y00291*
X0022Y00291*
X0022Y00291*
X00219Y0029*
X00219Y0029*
X00219Y00289*
X00219Y00289*
X00219Y00288*
Y00288*
X00219Y00287*
X00219Y00287*
X00219Y00286*
X00219Y00286*
X00219Y00285*
X0022Y00285*
X0022Y00284*
X0022Y00284*
X0022Y00284*
X00221Y00284*
X00221Y00283*
X00222Y00283*
X00222Y00283*
X00223Y00283*
X00224Y00283*
X00224*
X00224*
X00224Y00283*
X00225Y00283*
X00225Y00283*
X00225Y00283*
X00226Y00283*
X00226Y00283*
X00226Y00283*
X00227Y00283*
X00227Y00284*
X00227Y00284*
X00227Y00284*
X00228Y00284*
X00228Y00285*
X00228Y00285*
X00228Y00285*
X00228Y00285*
X00229Y00286*
X00229Y00286*
X00229Y00286*
X00229Y00287*
X00229Y00287*
X00229Y00288*
Y00288*
X00229Y00288*
X00229Y00289*
X00229Y00289*
X00229Y0029*
X00228Y0029*
X00228Y00291*
X00228Y00292*
X00227Y00292*
X00227Y00292*
X00227Y00292*
X00227Y00292*
X00226Y00293*
X00225Y00293*
X00225Y00293*
X00224Y00293*
G37*
G36*
X00213Y00272D02*
X00213D01*
X00213*
X00212Y00272*
X00212Y00272*
X00212Y00272*
X00211Y00272*
X00211Y00272*
X0021Y00271*
X0021Y00271*
X0021Y00271*
X0021Y00271*
X00209Y0027*
X00209Y0027*
X00209Y00269*
X00209Y00269*
X00209Y00268*
X00209Y00267*
Y00259*
X00217*
Y00266*
X00217Y00267*
X00217Y00267*
X00217Y00268*
X00217Y00268*
X00217Y00269*
X00217Y0027*
X00217Y0027*
X00216Y0027*
X00216Y0027*
X00216Y0027*
X00216Y00271*
X00216Y00271*
X00215Y00271*
X00215Y00272*
X00215Y00272*
X00215Y00272*
X00215Y00272*
X00214Y00272*
X00214Y00272*
X00214Y00272*
X00213Y00272*
X00213Y00272*
G37*
G36*
X0106Y01581D02*
X0106D01*
X0106*
X01059Y01581*
X01059Y01581*
X01059Y01581*
X01058Y01581*
X01058Y0158*
X01057Y0158*
X01057Y0158*
X01057Y01579*
X01057Y01579*
X01056Y01579*
X01056Y01579*
X01056Y01578*
X01056Y01577*
X01056Y01576*
X01056Y01575*
Y01568*
X01064*
Y01575*
X01064Y01575*
X01064Y01576*
X01064Y01577*
X01064Y01577*
X01064Y01578*
X01064Y01578*
X01064Y01578*
X01063Y01578*
X01063Y01579*
X01063Y01579*
X01063Y01579*
X01063Y0158*
X01062Y0158*
X01062Y0158*
X01062Y0158*
X01062Y0158*
X01062Y0158*
X01061Y01581*
X01061Y01581*
X01061Y01581*
X0106Y01581*
X0106Y01581*
G37*
G36*
X00971Y01662D02*
X00959D01*
X00971Y01654*
Y01662*
G37*
G36*
X00961Y01586D02*
X00961D01*
X00961*
X00961Y01586*
X00961Y01585*
X0096Y01585*
X0096Y01585*
X00959Y01585*
X00959Y01585*
X00958Y01584*
X00958Y01584*
X00958Y01584*
X00958Y01584*
X00958Y01583*
X00957Y01583*
X00957Y01582*
X00957Y01581*
X00957Y0158*
Y01572*
X00965*
Y0158*
X00965Y0158*
X00965Y01581*
X00965Y01581*
X00965Y01582*
X00965Y01582*
X00965Y01583*
X00965Y01583*
X00965Y01583*
X00965Y01583*
X00965Y01584*
X00964Y01584*
X00964Y01584*
X00964Y01585*
X00963Y01585*
X00963Y01585*
X00963Y01585*
X00963Y01585*
X00963Y01585*
X00962Y01585*
X00962Y01585*
X00962Y01586*
X00961Y01586*
G37*
G36*
X00349Y00474D02*
X00347D01*
X00347*
X00347*
X00347*
X00347*
X00346Y00474*
X00346*
X00345Y00474*
X00345Y00474*
X00344Y00474*
X00343Y00474*
X00342Y00474*
X00341Y00473*
X00341Y00473*
X0034Y00473*
X0034Y00473*
X00339Y00473*
X00339*
X00339Y00473*
X00339Y00472*
X00339Y00472*
X00338Y00472*
X00338Y00472*
X00338Y00471*
X00337Y0047*
X00337Y0047*
X00337Y0047*
X00337Y00469*
X00337Y00469*
Y00469*
X00337Y00469*
X00337Y00468*
X00337Y00468*
X00337Y00467*
X00338Y00467*
X00338Y00466*
X00338Y00466*
X00339Y00466*
X00339Y00465*
X00339*
X00339Y00465*
X00339Y00465*
X00339Y00465*
X0034Y00465*
X0034Y00465*
X0034Y00465*
X00341Y00465*
X00341Y00465*
X00342Y00464*
X00343Y00464*
X00343Y00464*
X00344Y00464*
X00345Y00464*
X00346Y00464*
X00347Y00464*
X00347*
X00348*
X00348*
X00348Y00464*
X00349*
X00349Y00464*
X0035Y00464*
X00351Y00464*
X00352Y00464*
X00353Y00464*
X00354Y00465*
X00354Y00465*
X00355Y00465*
X00355Y00465*
X00356Y00465*
X00356*
X00356Y00465*
X00356Y00466*
X00356Y00466*
X00357Y00466*
X00357Y00467*
X00357Y00468*
X00358Y00468*
X00358Y00469*
X00358Y00469*
Y00469*
X00358Y00469*
X00358Y0047*
X00357Y0047*
X00357Y00471*
X00357Y00471*
X00357Y00472*
X00356Y00472*
X00356Y00472*
X00356Y00473*
X00356*
X00356Y00473*
X00355Y00473*
X00355Y00473*
X00355Y00473*
X00355Y00473*
X00354Y00473*
X00354Y00473*
X00353Y00473*
X00353Y00474*
X00352Y00474*
X00351Y00474*
X0035Y00474*
X0035Y00474*
X00349Y00474*
G37*
G36*
Y00454D02*
X00347D01*
X00347*
X00347*
X00347*
X00347*
X00346Y00454*
X00346*
X00345Y00454*
X00345Y00454*
X00344Y00454*
X00343Y00454*
X00342Y00454*
X00341Y00454*
X00341Y00454*
X0034Y00453*
X0034Y00453*
X00339Y00453*
X00339*
X00339Y00453*
X00339Y00453*
X00339Y00453*
X00338Y00452*
X00338Y00452*
X00338Y00451*
X00337Y00451*
X00337Y00451*
X00337Y0045*
X00337Y0045*
X00337Y00449*
Y00449*
X00337Y00449*
X00337Y00449*
X00337Y00448*
X00337Y00448*
X00338Y00447*
X00338Y00447*
X00338Y00446*
X00339Y00446*
X00339Y00446*
X00339*
X00339Y00446*
X00339Y00446*
X00339Y00446*
X0034Y00446*
X0034Y00445*
X0034Y00445*
X00341Y00445*
X00341Y00445*
X00342Y00445*
X00343Y00445*
X00343Y00445*
X00344Y00444*
X00345Y00444*
X00346Y00444*
X00347Y00444*
X00347*
X00348*
X00348*
X00348Y00444*
X00349*
X00349Y00444*
X0035Y00444*
X00351Y00445*
X00352Y00445*
X00353Y00445*
X00354Y00445*
X00354Y00445*
X00355Y00445*
X00355Y00446*
X00356Y00446*
X00356*
X00356Y00446*
X00356Y00446*
X00356Y00446*
X00357Y00447*
X00357Y00447*
X00357Y00448*
X00358Y00449*
X00358Y00449*
X00358Y00449*
Y0045*
X00358Y0045*
X00358Y0045*
X00357Y00451*
X00357Y00451*
X00357Y00452*
X00357Y00452*
X00356Y00452*
X00356Y00453*
X00356Y00453*
X00356*
X00356Y00453*
X00355Y00453*
X00355Y00453*
X00355Y00453*
X00355Y00453*
X00354Y00454*
X00354Y00454*
X00353Y00454*
X00353Y00454*
X00352Y00454*
X00351Y00454*
X0035Y00454*
X0035Y00454*
X00349Y00454*
G37*
G36*
X00341Y00434D02*
X00341D01*
X00341*
X00341*
X0034Y00434*
X0034Y00434*
X0034Y00434*
X00339Y00433*
X00339Y00433*
X00338Y00433*
X00338Y00433*
X00338Y00433*
X00338Y00432*
X00338Y00432*
X00337Y00432*
X00337Y00431*
X00337Y0043*
X00337Y0043*
Y0043*
X00337Y00429*
X00337Y00429*
X00337Y00428*
X00338Y00428*
X00338Y00427*
X00338Y00427*
X00338Y00427*
X00338Y00427*
X00339Y00427*
X00339Y00426*
X00339Y00426*
X0034Y00426*
X0034Y00426*
X00341Y00426*
X00341*
X00341*
X00341Y00426*
X00342Y00426*
X00342Y00426*
X00342Y00426*
X00343Y00426*
X00343Y00427*
X00344Y00427*
X00344Y00427*
X00344Y00427*
X00344Y00427*
X00344Y00428*
X00345Y00428*
X00345Y00429*
X00345Y00429*
X00345Y0043*
Y0043*
X00345Y0043*
X00345Y0043*
X00345Y00431*
X00345Y00431*
X00345Y00432*
X00344Y00432*
X00344Y00433*
X00344Y00433*
X00344Y00433*
X00343Y00433*
X00343Y00433*
X00343Y00434*
X00342Y00434*
X00342Y00434*
X00341Y00434*
G37*
G36*
X00353Y00435D02*
X00353D01*
X00353*
X00352*
X00352Y00435*
X00352Y00435*
X00351Y00435*
X00351Y00435*
X0035Y00434*
X0035Y00434*
X00349Y00433*
X00349Y00433*
X00349Y00433*
X00349Y00433*
X00348Y00432*
X00348Y00432*
X00348Y00431*
X00348Y00431*
X00348Y0043*
Y0043*
X00348Y00429*
X00348Y00429*
X00348Y00428*
X00348Y00428*
X00348Y00427*
X00348Y00427*
X00349Y00426*
X00349Y00426*
X00349Y00426*
X0035Y00426*
X0035Y00425*
X0035Y00425*
X00351Y00425*
X00352Y00425*
X00353Y00425*
X00353*
X00353*
X00353Y00425*
X00353Y00425*
X00354Y00425*
X00354Y00425*
X00355Y00425*
X00355Y00425*
X00355Y00425*
X00355Y00425*
X00356Y00426*
X00356Y00426*
X00356Y00426*
X00356Y00426*
X00357Y00427*
X00357Y00427*
X00357Y00427*
X00357Y00427*
X00357Y00428*
X00357Y00428*
X00357Y00428*
X00358Y00429*
X00358Y00429*
X00358Y0043*
Y0043*
X00358Y0043*
X00358Y00431*
X00358Y00431*
X00357Y00432*
X00357Y00432*
X00357Y00433*
X00356Y00434*
X00356Y00434*
X00356Y00434*
X00356Y00434*
X00355Y00434*
X00355Y00435*
X00354Y00435*
X00353Y00435*
X00353Y00435*
G37*
G36*
X00342Y00414D02*
X00342D01*
X00341*
X00341Y00414*
X00341Y00414*
X0034Y00414*
X0034Y00414*
X0034Y00414*
X00339Y00413*
X00339Y00413*
X00339Y00413*
X00338Y00413*
X00338Y00412*
X00338Y00412*
X00338Y00411*
X00338Y00411*
X00337Y0041*
X00337Y00409*
Y00401*
X00346*
Y00408*
X00346Y00409*
X00346Y00409*
X00346Y0041*
X00346Y0041*
X00345Y00411*
X00345Y00412*
X00345Y00412*
X00345Y00412*
X00345Y00412*
X00345Y00412*
X00345Y00413*
X00344Y00413*
X00344Y00413*
X00344Y00414*
X00344Y00414*
X00344Y00414*
X00343Y00414*
X00343Y00414*
X00343Y00414*
X00342Y00414*
X00342Y00414*
X00342Y00414*
G37*
%LNx98_carrier_v1r2_12082022_top_assembly-3*%
%LPD*%
G54D139*
X00343Y01569D02*
X0043D01*
X00343D02*
Y01614D01*
X0043*
Y01569D02*
Y01614D01*
X00314Y0076D02*
Y00839D01*
Y0076D02*
X00464D01*
Y00839*
X00314D02*
X00464D01*
X00491Y00621D02*
X00525D01*
Y00692*
X00491D02*
X00525D01*
X00491Y00621D02*
Y00692D01*
X00214Y0022D02*
X00249D01*
Y00291*
X00214D02*
X00249D01*
X00214Y0022D02*
Y00291D01*
X00042Y00046D02*
Y00081D01*
Y00046D02*
X00113D01*
Y00081*
X00042D02*
X00113D01*
X01056Y01521D02*
X01101D01*
Y01608*
X01056D02*
X01101D01*
X01056Y01521D02*
Y01608D01*
X00957Y01525D02*
X01002D01*
Y01612*
X00957D02*
X01002D01*
X00957Y01525D02*
Y01612D01*
X00174Y00125D02*
Y00186D01*
X00024D02*
X00174D01*
X00024Y00125D02*
Y00186D01*
Y00125D02*
X00174D01*
X00176Y00224D02*
Y00285D01*
X00026D02*
X00176D01*
X00026Y00224D02*
Y00285D01*
Y00224D02*
X00176D01*
X00332Y0034D02*
X00388D01*
Y00455*
X00332D02*
X00388D01*
X00332Y0034D02*
Y00455D01*
M02*