%FSTAX23Y23*%
%MOIN*%
%SFA1B1*%

%IPPOS*%
%AMD15*
4,1,8,-0.007900,0.028700,-0.007900,-0.028700,-0.005900,-0.030700,0.005900,-0.030700,0.007900,-0.028700,0.007900,0.028700,0.005900,0.030700,-0.005900,0.030700,-0.007900,0.028700,0.0*
1,1,0.003937,-0.005900,0.028700*
1,1,0.003937,-0.005900,-0.028700*
1,1,0.003937,0.005900,-0.028700*
1,1,0.003937,0.005900,0.028700*
%
%AMD62*
4,1,8,-0.010800,0.015700,-0.010800,-0.015700,-0.010800,-0.015700,0.010800,-0.015700,0.010800,-0.015700,0.010800,0.015700,0.010800,0.015700,-0.010800,0.015700,-0.010800,0.015700,0.0*
1,1,0.000000,-0.010800,0.015700*
1,1,0.000000,-0.010800,-0.015700*
1,1,0.000000,0.010800,-0.015700*
1,1,0.000000,0.010800,0.015700*
%
%AMD100*
4,1,8,-0.039400,0.014800,-0.039400,-0.014800,-0.024600,-0.029500,0.024600,-0.029500,0.039400,-0.014800,0.039400,0.014800,0.024600,0.029500,-0.024600,0.029500,-0.039400,0.014800,0.0*
1,1,0.029528,-0.024600,0.014800*
1,1,0.029528,-0.024600,-0.014800*
1,1,0.029528,0.024600,-0.014800*
1,1,0.029528,0.024600,0.014800*
%
%ADD13R,0.031735X0.033788*%
%ADD14R,0.031496X0.035433*%
G04~CAMADD=15~8~0.0~0.0~614.2~157.5~19.7~0.0~15~0.0~0.0~0.0~0.0~0~0.0~0.0~0.0~0.0~0~0.0~0.0~0.0~90.0~158.0~614.0*
%ADD15D15*%
%ADD16R,0.045596X0.039848*%
%ADD17R,0.022538X0.026813*%
%ADD18R,0.026813X0.022538*%
%ADD19R,0.039370X0.110236*%
%ADD20R,0.023622X0.066929*%
%ADD21R,0.033788X0.031735*%
%ADD22R,0.032000X0.037000*%
%ADD23R,0.118110X0.082677*%
%ADD24R,0.062992X0.031496*%
%ADD25R,0.047244X0.021654*%
%ADD26R,0.015748X0.047244*%
%ADD27R,0.118110X0.035433*%
%ADD28R,0.049212X0.043307*%
%ADD29R,0.037000X0.032000*%
%ADD30R,0.035911X0.033808*%
%ADD31R,0.007874X0.027559*%
%ADD32R,0.027559X0.007874*%
%ADD33C,0.035000*%
%ADD34R,0.022000X0.024000*%
%ADD35R,0.015748X0.033465*%
%ADD36R,0.024000X0.022000*%
%ADD37R,0.045275X0.055118*%
%ADD38R,0.047244X0.011811*%
%ADD39R,0.011811X0.047244*%
%ADD40R,0.051181X0.035433*%
%ADD41R,0.070866X0.021654*%
%ADD42R,0.035433X0.045275*%
%ADD43R,0.031496X0.045275*%
%ADD44R,0.027559X0.045275*%
%ADD45R,0.024000X0.080000*%
%ADD46R,0.057087X0.045275*%
%ADD47R,0.094937X0.043811*%
%ADD48O,0.020000X0.010000*%
%ADD49O,0.035000X0.010000*%
%ADD50C,0.031496*%
%ADD51C,0.015748*%
%ADD52R,0.023622X0.053150*%
%ADD53R,0.015748X0.049212*%
%ADD54R,0.011811X0.021654*%
%ADD55O,0.011024X0.102362*%
%ADD56R,0.070866X0.023622*%
%ADD57R,0.047244X0.039370*%
%ADD58R,0.055118X0.011811*%
%ADD59R,0.161417X0.104330*%
%ADD60R,0.075000X0.039000*%
%ADD61R,0.023622X0.015748*%
G04~CAMADD=62~8~0.0~0.0~315.0~216.5~0.0~0.0~15~0.0~0.0~0.0~0.0~0~0.0~0.0~0.0~0.0~0~0.0~0.0~0.0~90.0~216.0~314.0*
%ADD62D62*%
%ADD63R,0.020472X0.032677*%
%ADD64O,0.010000X0.030000*%
%ADD65R,0.015748X0.023622*%
%ADD66C,0.070866*%
%ADD67R,0.032677X0.024803*%
%ADD82O,0.047244X0.094488*%
%ADD83O,0.041339X0.082677*%
%ADD84C,0.059055*%
%ADD85R,0.059055X0.059055*%
%ADD86R,0.051496X0.051496*%
%ADD87C,0.051496*%
%ADD88O,0.078740X0.094488*%
%ADD89C,0.078740*%
%ADD90O,0.039370X0.066929*%
%ADD91C,0.236220*%
%ADD92C,0.216535*%
%ADD93O,0.043307X0.074803*%
%ADD94C,0.049212*%
%ADD95C,0.039370*%
%ADD96O,0.055118X0.118110*%
%ADD97O,0.055118X0.122047*%
%ADD98O,0.055118X0.082677*%
%ADD99C,0.070866*%
G04~CAMADD=100~8~0.0~0.0~590.6~787.4~147.6~0.0~15~0.0~0.0~0.0~0.0~0~0.0~0.0~0.0~0.0~0~0.0~0.0~0.0~90.0~788.0~591.0*
%ADD100D100*%
%ADD101O,0.098425X0.078740*%
%LNx98_carrier_v1r2_12082022_pads_top-1*%
%LPD*%
G54D13*
X0041Y01592D03*
X00363D03*
G54D14*
X00429Y01492D03*
X00354D03*
X00391Y01413D03*
G54D15*
X00562Y00781D03*
X00587D03*
X00613D03*
X00639D03*
Y00554D03*
X00613D03*
X00587D03*
X00562D03*
G54D16*
X00422Y008D03*
X00357D03*
G54D17*
X00508Y00673D03*
Y0064D03*
X00232Y00272D03*
Y00239D03*
G54D18*
X00094Y00064D03*
X00061D03*
G54D19*
X01124Y02755D03*
X01515D03*
G54D20*
X01196Y02623D03*
X01246D03*
X01443D03*
X01393D03*
X01295D03*
X01344D03*
G54D21*
X01079Y01588D03*
Y01541D03*
X0098Y01593D03*
Y01545D03*
G54D22*
X00242Y00713D03*
X00293D03*
X02587Y01844D03*
X02639D03*
X02468Y0193D03*
X02519Y0193D03*
X00631Y01418D03*
X00682D03*
X00335Y02601D03*
X00386D03*
G54D23*
X00076Y01577D03*
Y01327D03*
X00074Y01676D03*
Y02173D03*
Y02265D03*
Y02515D03*
G54D24*
X0019Y01476D03*
Y01427D03*
X00188Y01777D03*
Y01826D03*
Y01875D03*
Y01924D03*
Y01974D03*
Y02072D03*
Y02023D03*
Y02365D03*
Y02414D03*
G54D25*
X00437Y00597D03*
Y00635D03*
Y00672D03*
X00335D03*
Y00597D03*
Y00635D03*
G54D26*
X00362Y00133D03*
X00337D03*
X00311D03*
X00388D03*
X00413D03*
G54D27*
X00362Y00072D03*
G54D28*
X00053Y00156D03*
X00146D03*
X00055Y00255D03*
X00148D03*
G54D29*
X00311Y00284D03*
Y00233D03*
X02359Y00789D03*
Y00738D03*
Y00881D03*
Y00829D03*
X00244Y02713D03*
Y02764D03*
X00199Y02713D03*
Y02764D03*
X02907Y01328D03*
Y0138D03*
X02634Y01116D03*
Y01168D03*
G54D30*
X0036Y00428D03*
Y00367D03*
G54D31*
X0164Y02431D03*
X01983Y01053D03*
X01999D03*
X0216Y02431D03*
X02144D03*
X02129D03*
X02113D03*
X02097D03*
X02081D03*
X02066D03*
X01955D03*
X01971D03*
X01987D03*
X02003D03*
X02018D03*
X02034D03*
X0205D03*
X01845D03*
X01861D03*
X01877D03*
X01892D03*
X01908D03*
X01924D03*
X0194D03*
X01829D03*
X01814D03*
X01798D03*
X01782D03*
X01766D03*
X01751D03*
X01735D03*
X01546D03*
X01562D03*
X01577D03*
X01593D03*
X01609D03*
X01625D03*
X01719D03*
X01703D03*
X01688D03*
X01672D03*
X01656D03*
Y02552D03*
X01672D03*
X01688D03*
X01703D03*
X01719D03*
X0164D03*
X01625D03*
X01609D03*
X01593D03*
X01577D03*
X01562D03*
X01546D03*
X01735D03*
X01751D03*
X01766D03*
X01782D03*
X01798D03*
X01814D03*
X01829D03*
X0194D03*
X01924D03*
X01908D03*
X01892D03*
X01877D03*
X01861D03*
X01845D03*
X0205D03*
X02034D03*
X02018D03*
X02003D03*
X01987D03*
X01971D03*
X01955D03*
X02066D03*
X02081D03*
X02097D03*
X02113D03*
X02129D03*
X02144D03*
X0216D03*
X01388D03*
X01404D03*
X0142D03*
X01436D03*
X01451D03*
X01467D03*
X01483D03*
X0153D03*
X01514D03*
X01499D03*
Y02431D03*
X01514D03*
X0153D03*
X01483D03*
X01467D03*
X01451D03*
X01436D03*
X0142D03*
X01404D03*
X01388D03*
X01243Y01053D03*
X01259D03*
X01274D03*
X0129D03*
X01306D03*
X01322D03*
X01337D03*
X01385D03*
X01369D03*
X01353D03*
Y01174D03*
X01369D03*
X01385D03*
X01337D03*
X01322D03*
X01306D03*
X0129D03*
X01274D03*
X01259D03*
X01243D03*
X02014D03*
X01999D03*
X01983D03*
X01967D03*
X01951D03*
X01936D03*
X0192D03*
X0181D03*
X01825D03*
X01841D03*
X01857D03*
X01873D03*
X01888D03*
X01904D03*
X01699D03*
X01715D03*
X01731D03*
X01747D03*
X01762D03*
X01778D03*
X01794D03*
X01684D03*
X01668D03*
X01652D03*
X01636D03*
X01621D03*
X01605D03*
X01589D03*
X014D03*
X01416D03*
X01432D03*
X01447D03*
X01463D03*
X01479D03*
X01495D03*
X01573D03*
X01558D03*
X01542D03*
X01526D03*
X0151D03*
Y01053D03*
X01526D03*
X01542D03*
X01558D03*
X01573D03*
X01495D03*
X01479D03*
X01463D03*
X01447D03*
X01432D03*
X01416D03*
X014D03*
X01589D03*
X01605D03*
X01621D03*
X01636D03*
X01652D03*
X01668D03*
X01684D03*
X01794D03*
X01778D03*
X01762D03*
X01747D03*
X01731D03*
X01715D03*
X01699D03*
X01904D03*
X01888D03*
X01873D03*
X01857D03*
X01841D03*
X01825D03*
X0181D03*
X0192D03*
X01936D03*
X01951D03*
X01967D03*
X02014D03*
G54D32*
X01075Y01901D03*
X00954D03*
X01075Y01885D03*
X00954D03*
X01075Y01869D03*
X00954D03*
X01075Y01854D03*
X00954D03*
X01075Y01838D03*
X00954D03*
X01075Y01822D03*
X00954D03*
X01075Y01806D03*
X00954D03*
X01075Y01791D03*
X00954D03*
X01075Y01775D03*
X00954D03*
X01075Y01759D03*
X00954D03*
G54D33*
X02279Y0064D03*
Y0058D03*
X01925Y00534D03*
X01924Y00595D03*
X0041Y00966D03*
X01232Y00853D03*
X01155Y00855D03*
X01651Y00907D03*
X01392Y00638D03*
X02699Y01158D03*
X02606Y0087D03*
X02285Y00931D03*
X0273Y00864D03*
G54D34*
X00286Y01172D03*
X00316D03*
X00271Y0258D03*
X00241D03*
X00285Y01109D03*
X00314D03*
X00298Y00896D03*
X00268D03*
X02496Y0197D03*
X02466D03*
X00658Y01376D03*
X00687D03*
X02496Y02006D03*
X02466D03*
X02493Y02152D03*
X02464D03*
X02496Y0212D03*
X02466D03*
X00528Y01371D03*
X00557D03*
X00349Y01121D03*
X00378D03*
X02508Y02594D03*
X02478D03*
X02444D03*
X02414D03*
X02368D03*
X02338D03*
X02097Y02756D03*
X02126D03*
X02186Y02771D03*
X02215D03*
X02185Y02644D03*
X02215D03*
X02186Y02739D03*
X02215D03*
X02097Y02725D03*
X02126D03*
X02186Y02803D03*
X02215D03*
X02185Y02676D03*
X02215D03*
X02186Y02708D03*
X02215D03*
X02097Y02658D03*
X02126D03*
X02185Y02612D03*
X02215D03*
X02097Y02689D03*
X02126D03*
X02813Y01723D03*
X02842D03*
X02659Y01661D03*
X0263D03*
X02659Y0163D03*
X0263D03*
X02659Y01599D03*
X0263D03*
X02659Y01568D03*
X0263D03*
X02659Y01536D03*
X0263D03*
X02659Y01505D03*
X0263D03*
X02659Y01474D03*
X0263D03*
X02659Y01443D03*
X0263D03*
Y01412D03*
X02659D03*
Y0138D03*
X0263D03*
X02842Y01688D03*
X02813D03*
X0288Y00571D03*
X02909D03*
X02829Y02562D03*
X02799D03*
G54D35*
X00943Y00829D03*
X00973D03*
Y00894D03*
X00943D03*
X00437Y02573D03*
X00467D03*
Y02508D03*
X00437D03*
G54D36*
X00873Y01239D03*
Y0121D03*
Y01308D03*
Y01279D03*
X00817Y01093D03*
Y01064D03*
X00713Y02556D03*
Y02585D03*
X00681Y02556D03*
Y02585D03*
X00609Y02545D03*
Y02575D03*
X00577Y02575D03*
Y02545D03*
X0232Y00736D03*
Y00765D03*
X01583Y00617D03*
Y00647D03*
X00777Y02556D03*
Y02585D03*
X0081Y02556D03*
Y02585D03*
X00352Y02171D03*
Y022D03*
X0052Y02128D03*
Y02099D03*
X00745Y02556D03*
Y02585D03*
X0232Y00855D03*
Y00826D03*
X02756Y01243D03*
Y01272D03*
X02788Y01242D03*
Y01271D03*
X02868Y01303D03*
Y01333D03*
X02872Y01238D03*
Y01267D03*
X02914Y01708D03*
Y01738D03*
X0148Y00808D03*
Y00838D03*
X01511Y00808D03*
Y00838D03*
X01449Y00808D03*
Y00838D03*
X01417Y00808D03*
Y00838D03*
X01386Y00809D03*
Y00839D03*
X01355Y00838D03*
Y00808D03*
X01324Y00838D03*
Y00808D03*
X02919Y01251D03*
Y01281D03*
X01881Y00557D03*
Y00527D03*
X01849Y00557D03*
Y00527D03*
X02265Y02745D03*
Y02715D03*
Y02667D03*
Y02637D03*
X02874Y01723D03*
Y01693D03*
X02564Y01144D03*
Y01114D03*
X02532Y01144D03*
Y01114D03*
X02596Y01144D03*
Y01114D03*
G54D37*
X00275Y00959D03*
X00338Y01046D03*
X00275D03*
X00338Y00959D03*
X00468Y02112D03*
X00405Y02198D03*
Y02112D03*
X00468Y02198D03*
G54D38*
X00435Y01197D03*
Y01217D03*
Y01237D03*
Y01256D03*
X00769D03*
Y01237D03*
Y01217D03*
Y01197D03*
Y01178D03*
Y01158D03*
Y01138D03*
Y01119D03*
Y01099D03*
Y01079D03*
Y01059D03*
Y0104D03*
X00435D03*
Y01059D03*
Y01079D03*
Y01099D03*
Y01119D03*
Y01138D03*
Y01158D03*
Y01178D03*
G54D39*
X00494Y01315D03*
X00513D03*
X00533D03*
X00553D03*
X00573D03*
X00592D03*
X00612D03*
X00632D03*
X00651D03*
X00671D03*
X00691D03*
X0071D03*
Y00981D03*
X00691D03*
X00671D03*
X00651D03*
X00632D03*
X00612D03*
X00592D03*
X00573D03*
X00553D03*
X00533D03*
X00513D03*
X00494D03*
G54D40*
X00736Y01447D03*
Y01376D03*
G54D41*
X02895Y00182D03*
Y00057D03*
G54D42*
X02747Y00212D03*
X0253D03*
G54D43*
X02698Y00212D03*
X02579D03*
G54D44*
X02619Y00212D03*
X02658D03*
G54D45*
X02534Y0053D03*
X02484Y0053D03*
X02434Y0053D03*
Y0031D03*
X02484D03*
X02534D03*
X02584D03*
Y0053D03*
G54D46*
X02365Y00435D03*
Y00526D03*
X02659Y00385D03*
Y00476D03*
G54D47*
X02457Y00713D03*
X02618D03*
G54D48*
X02608Y01573D03*
X02608Y01593D03*
G54D49*
X02492Y02355D03*
Y02428D03*
Y02413D03*
Y02371D03*
G54D50*
X00385Y01219D03*
G54D51*
X00439Y02611D03*
X0047D03*
G54D52*
X00474Y02766D03*
X00411D03*
G54D53*
X00391Y02662D03*
X00417D03*
X00494D03*
X00468D03*
X00442D03*
G54D54*
X01458Y00763D03*
X01477D03*
X01497D03*
Y00704D03*
X01458D03*
X01377Y00758D03*
X01357D03*
X01338D03*
Y00699D03*
X01377D03*
G54D55*
X02175Y00405D03*
X02155D03*
X02136D03*
X02116D03*
X02096D03*
X02077D03*
X02057D03*
X02037D03*
X02018D03*
X01998D03*
X01978D03*
X01959D03*
X01939D03*
X01919D03*
X019D03*
X0188D03*
X0186D03*
X01841D03*
X01821D03*
G54D56*
X00619Y02505D03*
X00835D03*
X00619Y02355D03*
Y02205D03*
Y02155D03*
Y02405D03*
Y02455D03*
Y02255D03*
Y02305D03*
X00835Y02155D03*
Y02205D03*
Y02255D03*
Y02305D03*
Y02355D03*
Y02405D03*
Y02455D03*
G54D57*
X02121Y02619D03*
X01783D03*
Y02796D03*
X02121D03*
G54D58*
X02543Y02116D03*
Y02037D03*
Y02017D03*
Y02136D03*
Y02175D03*
Y02195D03*
Y02234D03*
Y02254D03*
Y02293D03*
Y02313D03*
Y02411D03*
Y02431D03*
Y02352D03*
Y02372D03*
Y02057D03*
Y02077D03*
Y02096D03*
Y02214D03*
Y02155D03*
Y02273D03*
Y02332D03*
Y02391D03*
Y02451D03*
Y01998D03*
G54D59*
X02649Y02521D03*
Y01923D03*
G54D60*
X01711Y00536D03*
Y00654D03*
G54D61*
X02908Y0178D03*
Y01835D03*
G54D62*
X01892Y00735D03*
Y00642D03*
X01855D03*
X01929Y00735D03*
X01855D03*
X01929Y00642D03*
X02024Y00735D03*
Y00642D03*
X01987D03*
Y00735D03*
X02061D03*
Y00642D03*
X02168Y00739D03*
Y00645D03*
X0213D03*
Y00739D03*
X02205D03*
Y00645D03*
G54D63*
X02918Y01202D03*
X02892Y01144D03*
X02867Y01202D03*
G54D64*
X00951Y00782D03*
X00965D03*
G54D65*
X02855Y01773D03*
X028D03*
G54D66*
X01368Y00244D03*
X01209Y01524D03*
X00459Y01933D03*
G54D67*
X01788Y0055D03*
Y00638D03*
G54D82*
X00224Y00072D03*
X005D03*
G54D83*
X00275Y00154D03*
X0045D03*
G54D84*
X00561Y0037D03*
G54D85*
X00661Y0037D03*
G54D86*
X00094Y00479D03*
X00093Y00725D03*
G54D87*
X00094Y00401D03*
X00093Y00647D03*
G54D88*
X00796Y00417D03*
X01024D03*
Y00692D03*
X00796D03*
G54D89*
X02374Y00157D03*
Y00057D03*
X02637Y02764D03*
X02537D03*
X02437D03*
X02337D03*
Y02664D03*
X02437D03*
X02537D03*
X02637D03*
X00944Y02764D03*
X00844D03*
X00744D03*
Y02664D03*
X00844D03*
X00944D03*
G54D90*
X02468Y00062D03*
X02809Y00062D03*
Y00212D03*
X02468D03*
G54D91*
X01038Y01133D03*
Y02456D03*
X02361Y01133D03*
G54D92*
X02828Y02708D03*
Y00425D03*
G54D93*
X00584Y02765D03*
X00301D03*
G54D94*
X00346Y02661D03*
X00539D03*
G54D95*
X0289Y01528D03*
Y01478D03*
X0284D03*
Y01428D03*
Y01528D03*
Y01578D03*
X0289Y01428D03*
Y01578D03*
X0284Y01628D03*
X0289D03*
G54D96*
X01713Y00375D03*
G54D97*
X02283Y00375D03*
G54D98*
X02283Y00139D03*
X01713D03*
G54D99*
X0091Y00437D03*
Y00515D03*
Y00594D03*
Y00673D03*
G54D100*
X02875Y00887D03*
Y00965D03*
G54D101*
X02837Y0064D03*
Y0074D03*
M02*